<?xml version="1.0" encoding="utf-8"?>
<!-- Generator: Adobe Illustrator 22.1.0, SVG Export Plug-In . SVG Version: 6.00 Build 0)  -->
<svg version="1.1" id="Layer_1" xmlns="http://www.w3.org/2000/svg" xmlns:xlink="http://www.w3.org/1999/xlink" x="0px" y="0px"
	 viewBox="0 0 909 810" style="enable-background:new 0 0 909 810;" xml:space="preserve">
<style type="text/css">
	.st0{fill:#DDD6D6;}
</style>
<path class="st0" d="M905.6,271.8c0.6-0.4,1.4,0.2,1.9,1.6c0.6,1.7,1.1,3.5,1.5,5.4V0.1H-0.9V810h494.3c0-0.4,0.1-0.7,0.2-1l0-0.2
	l0.1-0.3c0.1-0.4,0.2-0.8,0.4-1.3l0,0l0,0c0.2-0.7,0.4-1.4,0.6-2.1c0.2-1.1,0.9-1.3,1.5-0.9c0.5,0.4,0.6,1.2,0.5,2.1l-0.1,1.7
	c0,0.7-0.1,1.4-0.2,2.1h26l-0.1-1l-0.1-0.5l-0.1-0.7c-0.3-1.8-0.5-3.5-0.5-5.4c0-1.6,0.4-2.7,1.3-3.1c0.7-0.3,1.1-0.2,1.3,1
	c0.1,0.7,0.3,1.4,0.4,2.1c0.2,0.9,0.4,1.8,0.5,2.7c0.1,0.5,0.2,1,0.3,1.5c0.2,1.1,0.4,2.2,0.5,3.3h129l-0.3-3.4c-0.2-2-0.4-4-0.6-6
	c-0.2-2.3,0.7-4.2,1.9-3.8c0.8,0.3,1,1.4,1.2,2.4l0,0.3c0.5,3.6,1.1,7.2,1.1,10.5h45.6l-0.7-0.9c-0.3-0.4-0.6-0.8-0.8-1.3
	c-0.5-1-0.5-2.4,0-3.4c0.4-1,0.9-1.3,1.5-0.7l0.3,0.3l0.5,0.5l0.9,0.8c1.6,1.5,3.3,2.9,4.8,4.8H909v-78.9c-0.3,0.2-0.6,0.3-0.9,0.3
	c-0.4,0.1-0.7-0.1-0.9-0.8c-0.3-1.2-0.6-2.5-0.3-3.8c0.3-1.7,0.4-3.5,0.9-5.2c0.2-0.6,0.4-1.4,0.5-2.1c0.1-0.5,0.2-0.9,0.3-1.3
	l0.1-0.6l0-0.1c0.1-0.3,0.2-0.6,0.3-0.9V613.3c-0.3,0.7-0.6,1.3-1,1.9c-0.2,0.3-0.4,0.7-0.5,1c-0.5,0.9-1.3,0.8-2-0.3
	c-0.7-1-0.9-1.9-0.5-3.2c0.1-0.4,0.3-0.7,0.4-1.1c0.5-1.3,0.9-2.6,1.6-3.7c0.7-1.1,1.3-2.4,2-3.7V415.1c-0.1,0-0.2,0-0.2,0l-0.1,0
	c-0.1,0-0.1,0-0.2,0c-0.5-0.1-0.8-0.5-1-1.1c0-0.1,0-0.2-0.1-0.3c0-0.2-0.1-0.4-0.1-0.6l0-0.3l0-0.3c0-0.1,0-0.2,0-0.4
	c0-0.2,0-0.3,0-0.5c0-0.5,0.1-0.9,0.2-1.4c0.1-0.4,0.1-0.8,0.1-1.2c0-0.6,0.1-1.2,0.2-1.8c0.2-2.5,0.6-4.9,1.1-7.3
	c0.1-0.3,0.1-0.7,0.2-1l0-113.3c-0.4,0.3-0.9,0.5-1.3,0.6c-0.2,0-0.4,0-0.6-0.1c-0.2-0.2-0.4-0.5-0.4-0.9c-0.2-1.2-0.5-2.3-0.7-3.5
	c-0.4-2.2-0.9-4.3-1.1-6.6C904.7,273.4,905,272.2,905.6,271.8z M160.6,532.7c0.8,0.6,1,1.7,0.5,2.9c-0.4,0.9-0.8,1.8-1.2,2.6
	c-1.3,2.2-2.4,4.6-3.4,6.9c-0.2,0.5-0.5,1-0.8,1.4c-0.4,0.6-0.9,1.2-1.4,1.7l-0.3,0.4c-0.2,0.2-0.3,0.4-0.5,0.6
	c-0.7,0.8-1.7,0.7-3.1-0.1c-0.9-0.5-1.1-1.2-1-2.3c0.8-2.4,1.8-4.9,3.1-7.2c0.3-0.6,0.7-1.2,1.1-1.7c0.3-0.5,0.7-1,1.1-1.5
	c0.4-0.6,0.9-1.2,1.3-1.7l0.1-0.2c0.5-0.6,1-1.1,1.6-1.6C158.6,532.2,159.9,532.2,160.6,532.7z M148.2,502.5l0-0.4l0-0.4l0-0.4
	c0.1-0.7,0.3-1.4,1.1-1.6c1.2-0.3,1.7,0.9,2.2,1.8c2.3,3.6,3.8,7.5,4.6,11.6c-0.3,0.5-0.7,0.8-1,1c-0.2,0.1-0.4,0.2-0.6,0.3
	l-0.2,0.1l-0.3,0.1c-2.1,0.9-3.4,0.4-3.9-1.8c-0.8-3.2-1.3-6.5-1.9-9.8C148.1,502.9,148.2,502.7,148.2,502.5z M147,382.9
	c-0.7-0.1-1.3-0.3-1.9-0.6c-0.8-0.4-1.6-0.8-1.4-1.9c0.2-0.9,0.9-1.5,1.8-1.7c2.9-0.6,5.8-1.1,8.8-1c2.9,0.1,4.1,2.2,2.8,4.8
	c-0.6,1.2-1.4,1.7-2.7,1.6c-0.5,0-1-0.1-1.5-0.2c-0.4-0.1-0.8-0.1-1.3-0.2C150.2,383.5,148.6,383.2,147,382.9z M144.5,192.6
	c0.1-0.3,0.2-0.5,0.4-0.7c0.1-0.1,0.2-0.2,0.3-0.3l0.2-0.2l0.1-0.1c0.9-0.6,1.8-0.7,2.7-0.1c0.2,0.1,0.4,0.3,0.6,0.5
	c0.3,0.3,0.6,0.6,0.9,0.9c2.4,2.6,4.1,5.7,5.9,8.7c0.5,0.8,1,1.7,1.5,2.5c0.2,0.4,0.3,0.8,0.5,1.2c0.1,0.2,0.1,0.4,0.2,0.6l-0.1,0.2
	l-0.2,0.4c-0.2,0.4-0.5,0.8-0.9,1.1c-1.4,1-2.6,0.9-3.9-0.3c-0.5-0.5-0.9-1-1.3-1.5l-0.5-0.7l-0.8-1.1l0,0c-0.9-1.2-1.7-2.3-2.7-3.4
	c-1.6-1.9-2.3-4.1-3-6.4C144.4,193.3,144.4,192.9,144.5,192.6z M146.8,237.3c1.9,0,3.8,0.1,5.8,0.2l1.1,0.1c1,0,1.5,0.6,1.6,1.7
	c0.1,1.2,0,2.3-0.7,3.3c-0.7,0.9-1.6,1.4-2.8,1.1c-0.7-0.1-1.4-0.3-2.1-0.4c-0.5-0.1-1-0.2-1.6-0.2c-2-0.3-4-0.6-5.9-1.2
	c-1-0.3-2-0.8-2.8-1.8C141.3,238.8,144.9,237.3,146.8,237.3z M135.9,578.4L135.9,578.4L135.9,578.4l0.4-0.9l0.2-0.4
	c0.6-1.4,1.3-2.8,2.5-3.8c0.4-0.3,0.8-0.6,1.2-0.6c0.6-0.1,1.3,0,2,0.5c1,0.7,1.2,1.5,0.7,2.8l-0.4,1.1l-0.7,1.7
	c-1.4,3.6-2.8,7.2-4.9,10.5c-0.6,0.9-1,2-2.3,1.8c-1.1-0.2-1.6-1.2-1.6-2.7l0.1-1c0.1-0.6,0.2-1.2,0.3-1.7c0.1-0.3,0.1-0.7,0.2-1
	c0.3-1.1,0.6-2.2,1.2-3.2C135.2,580.4,135.5,579.4,135.9,578.4z M126.6,551.3l0-0.2c0-0.1,0.1-0.2,0.1-0.2c0.2-0.3,0.4-0.6,0.7-0.8
	c0.1-0.1,0.2-0.1,0.3-0.2c0.4-0.2,0.7-0.2,1-0.1c0.2,0,0.3,0.1,0.5,0.2c0.1,0.1,0.2,0.1,0.4,0.2l0.2,0.1c0.3,0.2,0.5,0.5,0.8,0.7
	c0.3,0.3,0.5,0.7,0.8,1.1c0.4,0.7,0.8,1.6,1.1,2.4l0.2,0.5c0.5,1.2,0.8,2.6,1.1,3.9c0.1,0.6,0.2,1.1,0.4,1.7
	c0.3,1.1-0.1,1.9-1.1,2.3c-0.5,0.2-1,0.4-1.5,0.6c-0.5,0.2-1,0.4-1.5,0.6c-0.8-0.5-1.4-1.1-1.7-1.8c-0.1-0.2-0.2-0.4-0.2-0.6
	l-0.1-0.2l-0.1-0.3l0-0.2l-0.1-0.3c0-0.1,0-0.3-0.1-0.4c-0.3-2.7-0.8-5.4-1.1-8.2C126.5,551.9,126.6,551.6,126.6,551.3z M20.9,621.1
	l-0.4,0.1l-0.5,0.2l-0.6,0.2c-0.7,0.2-1.5,0.5-2.3,0.5c-1.1,0.1-2.2,0.3-3.4,0.4c-1.4,0.2-2.8,0.4-4.2,0.5l-0.5,0l-0.5,0l-0.4,0
	c-0.4,0-0.8,0-1.2,0c-1,0-1.9-0.1-2.9-1c0.2-0.4,0.3-0.9,0.5-1.1c2-1.1,3.7-2.6,6-3.2c2.5-0.8,5-1.8,7.6-2.4
	c2.8-0.6,4.9,1.4,4.1,4.2C22,620.4,21.7,620.9,20.9,621.1z M35,741.7c-0.4,0.6-0.7,1-1.2,1.1c-0.5,0.1-1,0.1-1.7-0.2
	c-0.6-0.2-1.1-0.4-1.6-0.7c-0.2-0.1-0.4-0.3-0.6-0.5c-1.4-1.2-2.9-2.4-4.3-3.6l-2.3-1.9c-0.2-0.2-0.4-0.4-0.6-0.7l0,0l-0.1-0.2
	c-0.2-0.3-0.4-0.6-0.6-0.9c-0.1-0.4-0.1-0.7,0-1.2c0.4-0.9,1.2-1.2,2.1-1.1c0.2,0,0.3,0,0.5,0c0.2,0,0.4,0,0.5,0
	c0.2,0,0.5,0.1,0.6,0.2c0.8,0.4,1.7,0.7,2.6,1l0.7,0.2c1.2,0.4,2.4,0.9,3.4,1.8c0.5,0.4,1,0.7,1.6,1c0.9,0.4,1.9,0.8,2.4,1.9
	C36.5,739.4,35.6,740.6,35,741.7z M90.8,533.1c-0.2,0-0.3,0-0.4,0c-1,0-1.5-0.4-2-0.9c-0.6-0.7-1.3-1.5-1.7-2.3l0,0
	c-0.8-1.5-1.7-3.1-2.4-4.7c-0.7-1.5-1.4-3-1.9-4.5c-0.1-0.4-0.2-0.7-0.3-1.1c-0.2-1.1,0.2-1.9,1-2.5c0.7-0.5,1.5-0.1,2.1,0.4
	l0.3,0.2l0.4,0.3l0.4,0.3c0.2,0.1,0.3,0.2,0.4,0.4L87,519c0.7,0.7,1.3,1.4,1.8,2.1c1.3,1.9,2.8,3.6,4.2,5.5c2,2.6,1.1,5.5-2,6.5
	C90.9,533.1,90.9,533.1,90.8,533.1z M97.5,654.3c-0.1,0.9-0.2,1.8-0.3,2.8c-0.1,1.2-0.3,2.5-0.5,3.7c-0.3,2.3-2.2,3-4,1.9
	c-0.6-0.4-0.8-0.9-0.9-1.7c-0.1-2.8-0.6-5.7,0-8.6c0-0.6,0.1-1.1,0.1-1.7c0.1-2,0.2-4,1.1-5.9c0.7-1.6,1.9-2.1,3.8-1.2
	c0.7,0.3,0.9,0.8,1,1.6C97.8,648.2,97.7,651.2,97.5,654.3z M108.3,770.8c-0.7-1.3-1.3-2.7-1.8-4.1c-0.4-1-0.8-2-1.2-3l-0.4-0.9
	c-0.2-0.6-0.4-1.1-0.7-1.7c-0.2-0.4-0.2-0.9-0.4-1.4c-0.5-2.7-0.2-3.1,2.9-4c3.6,4.8,7.4,9.6,8.6,15.8
	C112.1,775.1,110.3,775,108.3,770.8z M124.1,725.7c-0.6,1.3-1.1,2.5-1.5,3.8l-0.6,1.6l-0.2,0.6c-0.5,1.2-1,2.3-1.6,3.4
	c-0.5,0.9-0.8,1.9-1.2,2.9c-0.2,0.4-0.3,0.9-0.5,1.3c-0.4,1.2-1.3,2-2.6,1.9c-1.4,0-2.6-0.6-3.4-1.9c-0.3-0.5-0.3-1.1-0.1-2.2
	l0.6-1.5c0.8-1.8,1.6-3.8,2.6-5.8c0.4-0.8,0.8-1.6,1.3-2.4c0.4-0.7,0.8-1.4,1.2-2.1c0.2-0.3,0.4-0.7,0.6-1c0.3-0.4,0.6-0.8,0.9-1.1
	c1.4-1.5,2.9-1.3,4.2,0.2C124.4,724.3,124.5,724.9,124.1,725.7z M126.3,601.7c-1.2-1.6-2.2-3.4-3-5.2c-0.5-1-1-2-1.8-2.9
	c-1.2-1.5-1.3-3.5-2.1-5c0.1-1.5,1.5-2.3,2.8-1.8c0.9,0.3,1.7,1,2.3,1.7c1.7,2,3.3,4.1,4.8,6.3c0.8,1.1,1.5,2.3,2.1,3.5
	c0.9,1.6,0.7,2.3-0.8,3.4c-0.1,0.1-0.2,0.1-0.3,0.2l-0.2,0.1l-0.4,0.2l-0.4,0.2l-0.2,0.1c-0.2,0.1-0.4,0.2-0.6,0.3
	c-0.2,0-0.4,0.1-0.5,0.1C127.3,602.7,126.8,602.3,126.3,601.7z M141.4,713.1c-0.4,0.2-0.8,0.4-1.3,0.6l0,0l-0.2,0.1
	c-0.1-0.1-0.2-0.1-0.3-0.2l-0.2-0.1c-0.3-0.2-0.7-0.3-0.9-0.6c-0.5-0.5-1.1-1-1.6-1.4c-1.3-1.2-2.7-2.3-3.7-3.8
	c-0.9-1.3-2.2-2.4-3.4-3.5c-0.9-0.8-1.3-1.9-1.9-2.9c-0.2-0.3-0.3-0.7-0.4-1c-0.1-0.4,0-0.8,0.4-1.1c0.7-0.7,1.5-1.2,2.6-0.8
	c0.2,0.1,0.5,0.2,0.7,0.3c0.1,0.1,0.2,0.1,0.3,0.2c2.4,1.7,4.8,3.4,7,5.4c1.3,1.1,2.6,2.4,3.7,3.7
	C143.8,710,143.7,711.7,141.4,713.1z M152.1,682.2c-0.4,1-0.7,2-1,3l0,0l-0.4,1.1l-0.3,0.7l-0.1,0.3l-0.2,0.6l-0.3,0.8l-0.2,0.5
	l-0.2,0.5c-0.2,0.5-0.4,0.9-0.6,1.3c-0.2,0.3-0.3,0.6-0.5,0.9c-0.8,1.4-1.5,2.9-2.3,4.3c-1.1,1.9-1.7,2.1-3.1,1.6
	c-1.4-0.6-1.9-1.5-1.7-3.4l0-0.2c0-0.2,0.1-0.4,0.1-0.7c0.1-0.3,0.1-0.5,0.2-0.8c0.1-0.3,0.2-0.6,0.4-1c1.5-3.2,2.8-6.5,3.9-9.8
	c0.3-1,0.8-1.9,1.6-2.7c1-0.9,2.3-1.1,3.4-0.4C152,679.8,152.6,681,152.1,682.2z M164.8,647.2c-0.5,0.5-0.9,0.8-1.4,1
	c-0.9,0.3-1.8,0-2.8-0.9c-2-1.9-3.6-4.2-5.2-6.4c-0.6-0.8-1.1-1.8-1.7-2.7c-0.3-0.6-0.7-1.1-1-1.7c-0.2-0.3-0.3-0.6-0.4-0.9
	c0-0.2-0.1-0.4,0-0.6c0-0.3,0.2-0.6,0.5-0.9c0.7-0.8,1.6-0.5,2.4-0.1c1.2,0.6,2.4,1.3,3.3,2.2c2.1,2.2,4.7,3.9,6.4,6.5
	c0.4,0.5,0.8,1,1.2,1.6l0.5,0.7C166.1,646.1,165.4,646.6,164.8,647.2z M175.6,184.6c0,0.2,0,0.3,0,0.5c-0.1,2.2-0.3,2.4-2.4,2.7
	c-1,0.1-1.6,0-2-0.4c-0.3-0.3-0.5-0.7-0.8-1.4c-0.5-1.3-0.6-2.6-0.7-3.9c-0.4-3.4-0.7-6.8-1.1-10.2c0.1-0.2,0.1-0.4,0.1-0.6l0,0
	c0.2-0.8,0.3-1.6,1.2-2.2c1.7-1.1,3.6-0.4,4,1.5c0.8,4.4,1.3,8.8,1.7,13.3C175.6,184.2,175.6,184.4,175.6,184.6z M177.8,678.5
	c-1.1-0.2-1.9-1.1-1.9-2.5c0-0.4,0-0.9,0.1-1.3c0-0.2,0.1-0.5,0.1-0.7c-0.1,0-0.1,0-0.2,0l0.2-1.3l0-0.1l0-0.1l0.2-1.2
	c0.1-0.6,0.2-1.2,0.3-1.8c0.2-0.9,0.3-1.7,0.5-2.6l0.1-0.5l0,0l0.1-0.5l0.1-0.4c0.1-0.3,0.1-0.7,0.1-1.1c0-0.2,0-0.4,0.1-0.6l0-0.2
	l0-0.1l0.1-0.2l0-0.2l0.1-0.2l0-0.1l0.1-0.2l0.1-0.2c0.3-0.6,0.7-1.1,1-1.7l0.3-0.4c0.6-0.9,2-1.2,3.1-0.7c1.1,0.4,1,1.3,1,2.3
	l0,0.1c-0.1,3.3-0.8,6.4-1.5,9.5l0,0l0,0l0,0l0,0l0,0l0,0l0,0c-0.1,0.6-0.3,1.3-0.4,1.9l-0.2,1.1c-0.1,0.4-0.2,0.9-0.3,1.3l-0.1,0.3
	l0,0.1c-0.1,0.3-0.2,0.5-0.3,0.8C180.1,678.4,179.1,678.8,177.8,678.5z M183.4,730.4c-1.2-3.4-2.3-6.8-2.5-10.5l0-0.4
	c0-0.6-0.1-1.3,0.2-1.9c0.2-0.3,0.3-0.6,0.6-0.9c0.2-0.2,0.5-0.3,0.9-0.3c0.7,0,1.3,0.2,1.7,0.8c0.8,1.1,1.3,2.4,1.6,3.6
	c0.3,0.9,0.6,1.8,1,2.7c0.2,0.5,0.4,1.1,0.7,1.6l0,0c0.2,0.4,0.4,0.9,0.6,1.3l0.3,0.7c0.1,0.3,0.3,0.6,0.4,1l0.2,0.6
	c0.1,0.4,0.3,0.8,0.4,1.3c0.2,0.6,0.4,1.3,0.4,1.9c0,0.4-0.1,0.8-0.2,1.2c-0.3,0.1-0.6,0.1-0.9,0.2c-0.6,0.1-1.2,0.2-1.7,0.7
	c-0.7,0.6-1.5,0.3-2-0.4l-0.1-0.2l0,0c-0.3-0.5-0.7-1-0.9-1.5L183.4,730.4z M189.3,788.1c-0.5-0.6-1-1.3-1.4-2
	c-0.2-0.4-0.5-0.8-0.7-1.2c-0.6-1.2-1.1-2.5-1.4-3.9c-0.2-0.7-0.4-1.4-0.6-2.1c-0.3-0.8-0.6-1.6-0.7-2.5c-0.4-2.2-0.2-2.8,2.1-3.9
	c3.2,3.3,6.6,12,6.6,16.8C191.6,789.9,190.5,789.6,189.3,788.1z M202.4,244.7c-0.3-0.5-0.5-1.1-0.8-1.6l0-0.1l0-0.1l0,0l0,0
	c-0.4-0.7-0.7-1.4-1.1-2.1c-0.1-0.3-0.2-0.5-0.4-0.8c-0.4-0.9-0.6-1.8-0.6-3c0-1,0.7-1.8,1.8-2.1c1.1-0.3,2.2,0,2.8,0.9
	c2.2,3.5,4.3,7,6.4,10.5c0.2,0.3,0.4,0.7,0.5,1.1c0.1,0.2,0.1,0.4,0.2,0.6l0.1,0.4c0.5,1.6,0.1,3-1.2,3.7c-1.1,0.6-3.1,0.3-3.9-0.9
	l-0.4-0.5l-0.3-0.4c-0.9-1.2-1.8-2.4-2.3-3.7C203,246,202.7,245.4,202.4,244.7z M214.8,561.9c0.1,0.4,0.2,0.7,0.3,1.1l0.2,0.6
	c0.6,2.4-1.4,4.8-3.9,4.6c-0.6,0-1.1-0.3-1.4-0.9c-0.6-1.1-1.5-2.1-1.8-3.2c-0.4-1.2-0.9-2.4-1.3-3.6l0-0.1c-0.8-1.9-1.5-3.8-2-5.8
	c-0.2-0.9-0.5-1.7,0.4-2.3c0.7-0.5,1.4-0.3,2.1,0.2C211,554.7,213.7,557.6,214.8,561.9z M213,748.6c-1.4,4.3-2,8.8-4.9,12.7
	c-1.1,0.3-1.8-0.6-2.6-0.9c-0.8-0.3-1-1-1-1.9c0-1.4,0.5-2.7,1-4l0.2-0.5c0.4-1,0.7-2.1,1-3.2c0.5-1.9,1.1-3.7,2.1-5.4l0.2-0.3
	c1.3-2.2,1.3-2.2,4.2-1.7C214.1,745.1,213.5,746.9,213,748.6z M216.3,680.1c-0.6,0-1.2,0.3-1.7,0.6c-0.4,0.2-0.9,0.4-1.3,0.5
	c-0.2-0.1-0.4-0.2-0.5-0.3c-0.7-0.5-1-1.1-1.3-1.8l-0.2-0.4c-1.1-2.2-1.9-4.5-2.7-6.8l0,0c-0.6-1.7-1.2-3.3-1.8-4.9
	c-0.2-0.6-0.2-1.1-0.2-1.7l0-0.3c0-0.8,0.4-1.3,1.2-1.4l0.1,0l0,0l0,0c0.1,0,0.3,0,0.4-0.1l0.2,0c0.1,0,0.2,0,0.3,0
	c0.5,0,0.9,0.2,1.3,0.7c2.7,3.7,5,7.4,6.2,11.8C216.6,677.3,216.9,678.6,216.3,680.1z M219.7,635.5c-0.7,0.3-1.4,0.7-2.1,0.9
	c-1.1,0.3-1.9,0.2-2.4-0.2c-0.6-0.4-0.9-1.1-1.2-2.2c-0.6-2.3-0.6-4.7-0.7-7.1c-0.1-0.8,0.1-1.7,0.6-2.4c0.8-1,2.3-1.2,2.8,0
	c1.6,3.3,3.1,6.7,3.2,10.5C219.9,635,219.9,635.1,219.7,635.5z M220,457.1c-0.3,0.2-0.6,0.3-1,0.4c-0.3,0.1-0.7,0.3-1.1,0.4
	l-0.3,0.1c-3-3.2-5.4-6.6-6.2-11.2c2.3-0.4,3.6,0.2,4.9,1.3c2.4,2,4.1,4.4,5.4,7.2C221.4,456.2,220.8,456.7,220,457.1z M441.6,292.3
	c0.8-4.8,1.5-9.6,3.6-14.1c0.8-1.7,1.4-2,3.1-1.6c0.7,0.2,1.1,0.3,1.3,0.7c0.3,0.4,0.4,0.9,0.3,1.8c0,0.1,0,0.2,0,0.3l0,0.2l0,0.2
	c0,0.2,0,0.4,0,0.7c-0.9,4.1-1.5,8.5-3.2,12.7c-0.3,0.6-0.7,1.1-1.1,1.4c-0.9,0.6-2.1,0.6-3.2-0.3c-0.2-0.1-0.4-0.3-0.5-0.5
	c-0.1-0.1-0.2-0.3-0.2-0.5C441.6,293.1,441.6,292.7,441.6,292.3z M438,313.3c0.7-0.2,1.2-0.1,1.6,0.2c0.2,0.2,0.5,0.4,0.7,0.7l0,0
	c0.8,0.9,1.4,1.8,2,2.8c0.3,0.5,0.6,1.1,0.8,1.6l0,0l0.5,1c0.1,0.3,0.3,0.5,0.4,0.8c0.9,1.6,2,3.2,2.1,5.3c0,1.2,0,2-0.3,2.5
	c-0.4,0.7-1.1,1-2.6,1.4c-0.3,0.1-0.7,0.2-1,0.3c-0.7-0.2-1.1-0.6-1.4-1c-0.3-0.4-0.4-0.9-0.6-1.3c-0.1-0.2-0.2-0.5-0.2-0.7
	c-1.4-3.6-2.3-7.2-2.6-11.1l0-0.2C437.5,314.9,437.4,314.1,438,313.3z M417.7,183.6c0.8,0.3,1.1,0.9,1.1,1.8c0,1.6-0.5,3-0.9,4.4
	c-1.1,3.7-2.4,7.4-4,11c-1.6-0.1-2.9-0.6-4.2-1.5c0.1-1.8,0.3-3.4,1-4.9c1.3-3.2,2.5-6.4,4.1-9.5
	C415.2,183.9,416.6,183.3,417.7,183.6z M405.4,148.5c0.1-0.1,0.2-0.1,0.3-0.2l0.2-0.1c0.1,0,0.1-0.1,0.2-0.1c0.8-0.3,1.3-0.1,2,0.7
	c0.2,0.2,0.3,0.5,0.4,0.7c1.8,4,4,7.8,5.3,12c0.9,3.1,0.7,3.7-2.4,4.4l-0.2,0l-0.3,0l-0.4,0l-0.2,0l-0.1,0c-1.5-1.3-2-2.9-2.5-4.4
	l-0.2-0.6c-0.1-0.2-0.2-0.5-0.3-0.7c-1-2.7-2-5.4-2.8-8.1l-0.1-0.1C404.3,150.8,403.9,149.5,405.4,148.5z M390.9,216.8
	c0.1-0.7,0.3-1.4,1-1.6c0.7-0.2,1.3,0.2,1.7,0.8c2.6,4.4,4.3,9.1,5,14.1c0,0.1,0,0.2-0.1,0.4c0,0.1-0.1,0.2-0.1,0.3
	c-0.7,0.3-1.4,0.1-1.9,0.6c-1-0.8-1.7-1.6-2.3-2.5c-0.3-0.5-0.5-1-0.8-1.6l-0.1-0.4l-0.1-0.4l-0.1-0.4c-0.8-2.6-1.8-5.2-1.9-8
	c0-0.1,0-0.2,0-0.3l-0.1-0.2C390.9,217.4,390.8,217.1,390.9,216.8z M363.4,263.9c0.6-3.4,1.4-6.7,2.5-10c0.2-0.5,0.4-1,0.7-1.4
	c0.3-0.5,0.6-0.9,1-1.3l0.1-0.1c0.6-0.8,1.5-1.1,2.5-1.1c1.1,0,1.6,0.6,1.7,1.5c0.1,0.5,0.1,1,0.1,1.5c0,0.7-0.1,1.5-0.3,2.2
	c-0.6,3.4-1.2,6.7-2.2,10c-0.8,2.5-2.3,3.2-4.6,2.4c-0.5-0.2-0.9-0.4-1.1-0.7c-0.3-0.4-0.5-0.8-0.4-1.4
	C363.3,264.9,363.3,264.4,363.4,263.9z M370.1,564.1c0.3,0.2,0.6,0.4,0.7,0.6c0.1,0.1,0.1,0.2,0.2,0.3c0.4,0.7,0.2,1.6,0.1,2.4
	c-0.6,3.5-1.2,7-1.8,10.5c-0.1,0.4-0.2,0.7-0.3,1.1c-0.1,0.3-0.2,0.6-0.4,0.9l-0.1,0.2c-0.4,1-1.1,1.7-2.2,1
	c-0.3-0.2-0.7-0.2-1.1-0.2l0,0l-0.4,0c-0.1,0-0.2,0-0.4,0c-0.1,0-0.1,0-0.2-0.1l-0.1,0l-0.1,0c-0.2-0.1-0.3-0.1-0.5-0.3
	c-0.4-1.2-0.3-2.4,0-3.5c0.1-0.4,0.2-0.8,0.3-1.2c0.6-3.3,2-6.4,3.4-9.4C368.1,564.3,369.2,563.6,370.1,564.1z M360,451.5
	c0.3,1.1,0.1,2.1-0.1,3.1c-0.1,0.6-0.3,1.3-0.4,1.9c-0.4,3.4-1.2,6.8-2.5,10l-0.1,0.3v0c-0.1,0.3-0.2,0.7-0.6,0.9
	c-0.9,0.4-2.1,0.3-2.3-1.2c-0.3-2.5-0.3-5,0-7.3c0.1-2.9,0.3-5.5,1.2-8.1c0.6-1.6,1.1-1.9,2.5-1.8C359.2,449.5,359.6,450,360,451.5z
	 M353.1,421.8c0.1-0.5,0.3-0.9,0.5-1.3c0.2-0.5,0.5-0.8,0.8-1.1c0.2-0.1,0.4-0.3,0.6-0.3c0.3-0.1,0.7-0.1,1.1,0
	c1.2,0.3,1.8,1.1,2,2.2c0.2,0.8,0,1.7-0.1,2.6c-0.8,3.3-1.3,6.7-2.5,9.9l-0.1,0.1c0,0.1-0.1,0.3-0.1,0.4c-0.2,0.5-0.4,0.9-0.6,1.2
	c-0.5,0.6-1,0.9-1.5,0.7c-1.2-0.4-1.4-1.4-1.5-2.5c-0.1-1.2-0.1-2.5-0.1-3.8l0-0.8C352,426.7,352.5,424.2,353.1,421.8z M351.9,492.4
	c1,0.5,1.2,1.4,1,2.4c-0.1,0.3-0.1,0.6-0.1,1.1l-0.5,2.2l0,0.1l-0.4,1.6c-0.1,0.6-0.3,1.2-0.4,1.8c-0.2,0.8-0.4,1.5-0.6,2.3
	c-0.2,0.9-0.5,1.8-0.8,2.8c-0.2,0.5-0.3,1-0.5,1.4c-0.1,0.3-0.2,0.5-0.3,0.8c-0.6,1.6-1.2,1.9-2.5,1.7c-1.4-0.2-1.9-0.9-2.1-2.6
	c-0.1-0.8,0.1-1.5,0.2-2.2l0.1-0.2c0-0.2,0.1-0.3,0.1-0.5c0-0.1,0.1-0.3,0.1-0.4c0.4-3.1,1.2-6.2,2.2-9.2c0.3-1,0.7-2,1.5-2.7
	c0.6-0.5,1.2-0.8,1.9-0.8C351.2,492.1,351.6,492.2,351.9,492.4z M341.7,367.1c1.1-0.4,2.6,0.2,3.4,1.6c2.1,3.4,3.5,7.1,4.8,11.1
	c-1.5,1.2-2.9,1.7-4.4,1.9c-0.9,0.1-1.5-0.2-1.8-1.1c-0.5-1.3-1-2.7-1.5-4c-0.3-0.8-0.6-1.6-0.8-2.4l-0.3-0.8
	c-0.1-0.3-0.2-0.6-0.2-0.8l-0.1-0.4c-0.1-0.5-0.2-1-0.3-1.5C340,368.6,340.6,367.4,341.7,367.1z M337,410.2c0.2-2.4,0.7-3.2,2-3.4
	c1.3-0.1,2.4,0.8,2.9,2.6c0.4,1.4,0.7,2.8,1,4.2l0.2,1c0.5,3,0.9,6.1,0.8,9.1c0,0.8-0.1,1.2-0.5,1.5c-0.2,0.2-0.6,0.3-1.1,0.4
	c-2.3,0.4-2.4,0.2-3.4-1.9c-0.9-2.1-1-4.2-1.2-6.4l-0.1-1c-0.1-0.5-0.1-1.1-0.2-1.6c-0.1-0.5-0.2-0.9-0.2-1.4
	C336.9,412.1,336.7,411.1,337,410.2z M342.3,467.8c-0.4,1.8-0.9,2.3-2.4,2.2c-1.1,0-1.7-0.3-2-1c-0.2-0.4-0.3-0.9-0.3-1.5
	c-0.2-3.6,0-7.1,0.4-10.6c0.1-1,0.3-2.1,0.5-3.1c0.2-0.8,0.5-1.6,1.1-2.5c0.6-0.1,1.1-0.2,1.5-0.2c1.8,0,2.4,0.5,2.5,2.3
	C343.9,458.2,343.4,463,342.3,467.8z M313.5,124.3c2.2,4.8,4.1,9.7,5,14.9c-0.5,0.8-1,1-1.5,1.3l0,0l-0.3,0.1
	c-2,0.9-2.8,0.5-3.8-1.6c-1.7-3.8-3.1-7.6-3.7-11.8c-0.1-0.7-0.2-1.3-0.1-2c0.1-1.4,0.6-2,1.8-2.2
	C312.2,122.8,312.9,123.1,313.5,124.3z M294,653c0.6-0.1,1.1,0.1,1.5,0.7c1.2,2.2,2.2,4.4,1.8,7c-0.1,0.7-0.2,1.3-0.7,1.8
	c-0.5,0.5-1.2,0.7-1.7,0.1c-1.7-2.1-3.1-4.3-3.2-6.6C291.8,654,292.6,653.1,294,653z M281.8,138.7c0-0.4,0-0.8,0-1.2l0-0.8
	c0.1-1.1,0.2-2.1,0.3-3.2c0.1-1,0.2-2,0.4-3c0.1-0.5,0.3-0.9,0.5-1.4l0.1-0.2c0.8-1.9,2-2.3,3.9-1.3c0.3,0.1,0.5,0.3,0.7,0.5
	c0.1,0.1,0.3,0.2,0.4,0.3c-1.1,10.7-1.7,12.7-4.7,14.8c-1.3-0.9-1.7-2.1-1.7-3.3C281.8,139.5,281.8,139.1,281.8,138.7z M240,432.9
	c2.2,2.3,3.3,5.3,4.2,8.1c-0.2,0.5-0.5,0.7-0.7,0.9c-0.2,0.1-0.4,0.2-0.5,0.3c-0.1,0-0.2,0.1-0.2,0.1c-2.4,1.2-3.8,0.7-4.6-1.9
	c-0.5-1.6-0.7-3.4-1.1-5c-0.2-0.6-0.2-1.1-0.1-1.7c0.2-1.5,1.5-2.1,2.7-1.2C239.7,432.6,239.9,432.8,240,432.9z M237.3,603.4
	c0.2-0.6,0.7-1.2,1-1.7c0.4-0.6,0.9-0.7,1.5-0.6c0.8,0.1,1.2,0.6,1.3,1.3c0.1,0.9,0.2,1.9,0.2,2.9c-0.2,2.8-0.3,5.5-0.6,8.3
	c0,0.2-0.1,0.3-0.1,0.5c-0.2,0.6-0.4,1.2-0.7,1.9c-1,0.1-1.9,0-2.7-0.2c-0.6-0.2-1.2-0.4-1.7-0.6C235,611.1,236.2,607.3,237.3,603.4
	z M235.1,542.5c-1.5-0.4-2.2-1.8-2.3-3.2l-0.2-1.6c-0.3-3.1-0.6-6.1-0.2-9.2c0.3-2.6,1.5-3.1,4.4-2.3c0.7,4.9,0.5,9.8-0.4,14.7
	C236.3,541.6,236,542.2,235.1,542.5z M239.3,508.3c-0.9-0.9-1.7-1.9-2.3-2.9c-0.3-0.4-0.5-0.9-0.8-1.3l-0.5-0.9l-0.1-0.1l-0.1-0.1
	c-0.8-1.4-1.7-2.8-2.4-4.2c-0.4-0.8-0.8-1.7-1.2-2.6c-0.1-0.4-0.2-0.7-0.4-1.2c0.5-0.8,0.9-1.3,1.6-1.6c0.8-0.4,1.6-0.3,2.1,0.4
	c3.3,4.1,6.6,8.1,8.7,13.1c0.2,0.4,0.2,0.9,0.2,1.4c-0.6,0.5-1.1,0.9-1.5,1.1l-0.2,0.1c-0.1,0.1-0.2,0.1-0.3,0.1l-0.1,0
	c-0.1,0-0.3,0.1-0.4,0.1C240.9,509.8,240.3,509.3,239.3,508.3z M237.5,464l0,0.2c-0.2,1.8-0.4,3.5-0.7,5.2c-0.1,0.7-0.3,1.6-1.3,1.7
	c-1,0.1-1.9-0.3-2.2-1.4c-0.1-0.3-0.2-0.5-0.3-0.8c-0.2-0.6-0.4-1.1-0.4-1.7l-0.1-2c-0.1-3.4-0.2-6.7,0.4-10.1l0.1-0.3
	c0.1-0.7,0.2-1.5,1-1.9c0.8-0.4,1.6-0.7,2.5-0.3c0.9,0.4,1.1,1.2,1.1,2.2c0,0.8,0,1.7,0.1,2.5v0v0v0v0v0v0
	C237.6,459.7,237.7,461.8,237.5,464z M225.1,303.1c0-0.1,0.1-0.2,0.1-0.3c0.5-1,1.5-1.1,2.5-1.1l0.6,0c2.7,0.4,5.3,1,7.8,1.9
	c2.2,0.8,2.9,3.4,1.4,5.2c-0.7,0.8-1.7,1-2.6,0.7c-0.6-0.2-1.3-0.4-1.9-0.7c-2.4-0.8-4.8-1.6-6.7-3.6L226,305
	C225.4,304.4,224.9,303.9,225.1,303.1z M224.7,478.9c-1-1.4-1.9-2.9-2.7-4.5c1.5-1.3,2.8-0.9,3.9-0.2c2.6,1.7,5,3.8,6.9,6.4
	c0.5,0.8,0.3,1.4-0.2,2.1c-1.1,1.3-2.9,1.5-4.2,0.3C226.9,481.7,225.8,480.4,224.7,478.9z M233.6,654.7c-0.3,0.9-0.6,1.4-1,1.7
	c-0.3,0.1-0.6,0.1-1.1,0.1c-1.7-0.2-2.5-0.8-2.5-2.2l0-1.1l0-0.5l0-0.6c0.1-1,0.2-1.9,0.4-2.9c0.5-2,0.8-4.1,1.1-6.2
	c0.3-1.8,0.9-3.5,1.7-5.3c1.5-0.1,2.7-0.2,3.8,0.9C235.7,643.9,235.4,649.4,233.6,654.7z M237.2,678.2c0.1-0.9,0.2-1.8,1.3-2
	c0.9-0.2,1.4,0.4,1.9,1l0.2,0.2c1.4,1.6,1.7,3.6,2.2,5.5l0.3,1.1l0,0c0.3,1,0.5,2,0.9,3c0.6,1.8,1.1,3.6,0.5,5.8l-0.9,0.1l-0.1,0
	c-0.8,0.1-1.5,0.2-2.3,0.4c-0.2,0-0.3,0-0.5,0c-0.2,0-0.3,0-0.4,0c-0.6-0.1-1-0.6-1.3-1.4C237.7,687.5,236.6,682.9,237.2,678.2z
	 M247.3,716.4c-0.9,3.5-2.1,6.9-4,10c-0.7,1.1-0.9,2.3-1.6,3.3c-1,1.5-1.8,2.2-2.8,2c-1.1-0.3-1.7-1.5-1.5-3.6c0-1,0.4-1.9,0.8-3
	c0.1-0.3,0.2-0.6,0.3-0.9c0.1-0.3,0.2-0.5,0.3-0.8c0.4-1.6,0.9-3.2,1.5-4.8c0.5-1.2,1.1-2.3,1.8-3.4c0.7-1,1.5-1.7,2.7-1.8
	C246.6,713.2,247.8,714.7,247.3,716.4z M247.7,491l0,0.2c-0.1,0.7-0.2,1.3-0.4,2c-0.1,0.8-0.7,1.1-1.4,1.1c-0.4,0-0.7-0.1-0.9-0.3
	c0,0-0.1-0.1-0.1-0.1c-0.1-0.1-0.2-0.3-0.3-0.4c-0.3-0.6-0.5-1.2-0.8-1.8c-0.3-0.8-0.5-1.5-0.7-2.3c-0.1-0.3-0.2-0.7-0.2-1
	c-0.1-0.5-0.2-1-0.2-1.5l-0.1-1.6l-0.1-1.3l-0.1-1l-0.1-0.9l-0.1-1.1c-0.1-0.8,0-1.6,0.5-2.2c0.6-0.8,1.5-1.2,2.5-1.1
	c1,0.1,1.4,0.9,1.6,1.8l0.2,0.9l0,0l0,0c0.2,0.9,0.4,1.8,0.5,2.7c0.1,0.9,0.1,1.7,0.2,2.6c0.1,1.2,0.1,2.3,0.1,3.5l0,1.4L247.7,491z
	 M252.7,783.7l-0.1,0.1c-0.1,0-0.1,0.1-0.2,0.1c-0.1,0-0.1,0.1-0.2,0.1c-3.2,0.5-4.2-0.1-4-3.4v0c0.1-2.9,0.2-5.9,0.6-8.8
	c0.1-1,0.3-2,0.5-3c0.1-0.6,0.3-1.2,0.4-1.8c0.7-2.8,1.9-3,4.9-1.2C255,771.3,254.2,778.9,252.7,783.7z M262,450.3l-0.5,2.4l0,0.2
	c-0.2,1-0.4,1.9-0.6,2.9l-0.2,0.7l-0.2,1.1l-0.3,1.2c-0.1,0.5-0.3,1.1-0.4,1.6c-0.2,1-0.5,1.9-0.8,2.9c-0.1,0.5-0.3,1-0.5,1.4
	c-0.1,0.3-0.3,0.6-0.5,0.9c-0.1,0.2-0.2,0.3-0.3,0.4c-0.1,0.1-0.2,0.1-0.3,0.2c-0.1,0.1-0.3,0.1-0.4,0.1c-0.1,0-0.1,0-0.2,0l-0.1,0
	c-0.3,0-0.6-0.1-0.9-0.2l-0.2-0.1c-1.7-0.4-1.9-0.8-1.7-2.7c0.3-3.9,1.3-7.7,2.7-11.4c0.5-1.3,0.5-2.8,1.9-4.2c0.2,0,0.3,0,0.5,0
	l0.3,0c0.4,0,0.8,0,1.1,0.1C261.6,448.3,262.2,449,262,450.3z M270.1,181.7c-0.4-0.6-0.5-1.3-0.2-1.9c0.4-0.7,1.1-0.7,2-0.8l1.2,0.5
	l0.1,0l0.1,0c1.3,0.5,2.7,1,4,1.6c0.2,0.1,0.4,0.2,0.6,0.3c0.3,0.1,0.5,0.3,0.8,0.4c0.3,0.1,0.5,0.3,0.8,0.5l0.6,0.4l0.2,0.2
	l0.4,0.3c1.9,1.2,2.1,3.7,0.6,5.4c-0.3,0.4-0.8,0.6-1.3,0.5l-0.3-0.1c-0.5-0.1-1-0.2-1.3-0.4l-0.8-0.5l-0.8-0.5l0,0l-0.1-0.1
	c-0.6-0.4-1.2-0.8-1.7-1.2c-0.5-0.4-1-0.7-1.5-1.1c-0.9-0.7-1.7-1.4-2.5-2.2C270.6,182.4,270.3,182.1,270.1,181.7z M284.4,791.2
	c-0.4,1.9-1.4,3.5-2.4,5.1c-1.4,2.2-2.6,4.4-4,6.6c-1.7,2.8-2,2.9-5.1,1.3l-0.1-0.2l0-0.1l0-0.2l0-0.2c-0.1-0.5,0-0.9,0.2-1.3
	c0.3-0.7,0.7-1.4,1-2.1c1.8-3.9,3.6-7.7,6.4-11c1.2-1.4,1.7-1.6,2.8-1.1c0.3,0.2,0.6,0.3,0.8,0.6C284.6,789,284.7,789.9,284.4,791.2
	z M296.1,720.4l-0.2,0.4c-1.7,3.6-3.4,7.2-5.8,10.4c-0.2,0.3-0.4,0.5-0.6,0.8c-0.2,0.4-0.5,0.7-0.8,1.1c-0.3,0.4-0.7,0.7-1.1,0.8
	c-0.4,0.1-0.8,0.1-1.2,0c-0.9-0.3-1.7-1.5-1.7-2.4c0-0.2,0-0.4,0.1-0.6l0-0.2l0-0.1l0.1-0.2l0.8-1.7l0,0v0c1.6-3.5,3.2-7,5.5-10.1
	c0.9-1.2,1.9-2.1,3.7-2.1C297.1,718.3,297,718.6,296.1,720.4z M299.5,705c-0.5,0.3-1.1,0.3-1.6,0.4c-0.4,0-0.8,0.1-1.2,0.2
	c-1.1,0.4-2.3-0.5-2.7-1.6c-1-3.3-0.9-6.8-0.5-10.2c0.2-1.4,1.8-1.8,2.9-0.8c0.1,0.1,0.3,0.3,0.4,0.4c0.1,0.1,0.2,0.2,0.2,0.4
	c0.2,0.4,0.4,0.8,0.5,1.2c0.7,2.3,1.5,4.7,2.1,7.1C299.8,702.9,299.9,704,299.5,705z M298.3,86.5c-0.7-0.5-1.5-0.9-1.3-2
	c0.1-0.3,0.2-0.5,0.4-0.7c0.4-0.4,1.2-0.7,2.2-0.5l0.8,0.2l0.6,0.1c3.5,0.7,7.1,1.4,10.3,3.9c-0.5,0.8-0.6,1.6-0.8,2.5
	c-0.2,1-0.3,1.9-1,2.8c-1.2,0.4-2.3-0.1-3.2-0.7l-1.1-0.8c-0.5-0.3-1-0.7-1.5-1l-0.8-0.5l-2.2-1.6C299.9,87.6,299.1,87,298.3,86.5z
	 M302.1,217.3L302,217l-0.1-0.2c-0.2-0.5-0.4-0.9-0.4-1.3c0.2-1.9,2.3-2.8,3.7-1.8c0.1,0.1,0.1,0.1,0.2,0.2l0.2,0.2l0.2,0.2
	c3,3.5,5.6,7.3,8.1,11.1c0.8,1.3,0.5,2.3-0.8,3.2c-1.4,1-2.8,1-3.5-0.1c-0.8-1.3-1.8-2.5-2.7-3.8C305.1,222.4,303.4,220,302.1,217.3
	z M308.1,302.5c0-0.3,0-0.6,0-0.9l0.1,0c0-0.2,0-0.4,0-0.6v0c0-0.2,0-0.4,0-0.6c0-0.2,0-0.3,0.1-0.5c0.2-0.7,0.5-1.3,1-1.7
	c0.6-0.5,1.3-0.7,2-0.6c0.1,0,0.2,0,0.3,0l0.2,0c0.2,0,0.3,0.1,0.5,0.2c0.7,0.3,1,0.9,1.1,1.6c0.2,1.2,0.5,2.4,0.7,3.6
	c0.3,1.3,0.5,2.7,0.6,4c0.1,1.3,0.2,2.6,0.3,3.9c0.1,0.7,0.2,1.4,0.2,2l0,0.4c0.3,2.7-1.9,4.2-4.4,3.2c-1-0.4-1.4-1.5-1.5-2.3
	c-0.1-1.7-0.4-3.3-0.7-4.9C308.4,307,308,304.8,308.1,302.5z M319,587.4c-1.8,0.4-3,0-3.7-1.4c-0.1-0.1-0.1-0.2-0.1-0.3l-0.1-0.2
	c0-0.2-0.1-0.4-0.1-0.7c0-0.3-0.1-0.5-0.2-0.8c-0.9-3.8-1.2-7.7-1.6-11.6c0-0.2,0-0.5,0-0.7l0-0.1v-0.2c0.2-1.8,0.8-2.5,2.2-2.7
	c1.6-0.2,2.3,0.4,2.9,2.1c1.1,3.2,1.6,6.5,2,9.8c0.2,1.4,0.3,2.8,0.4,4.3C320.7,586.6,320.3,587.1,319,587.4z M313.3,433.3
	c0-1.3,0.2-2.7,0.3-4l0.1,0l0.1-1.5c0.1-1.3,0.2-2.6,0.3-3.9c0.2-1.6,1.2-2.4,2.7-2.3c1.4,0,2,0.7,2.3,2.4c0.5,2.9,0.3,5.9,0.1,8.9
	l-0.1,0.9c-0.1,1.5-0.2,3.1-0.4,4.6c-0.2,2.1-1.2,2.8-3.3,2.5c-0.2,0-0.4-0.1-0.5-0.1c-0.2-0.1-0.4-0.1-0.5-0.2
	c-0.6-0.3-0.9-0.9-1-2C313.3,436.7,313.3,435,313.3,433.3z M314.4,344.4l-0.1-0.1c-0.4-0.8-0.9-1.6-1.3-2.3
	c-1.2-2.1-2.5-4.2-3.3-6.5c-0.3-0.8-0.5-1.5-0.5-2.2c0-0.1,0-0.2,0-0.3l0-0.3c0-0.3,0.1-0.6,0.3-1l0.6-0.2c2.1-0.7,2.2-0.7,3.9,1.5
	c2.9,3.8,5.3,7.9,7.4,12.4C317,349.3,316.3,347.9,314.4,344.4z M321.1,197.2l-0.2,0.7c-0.5,1.5-1,3-2,4.2c-0.5,0.6-0.8,1.2-1,2
	c-0.9,2.6-2.1,5.1-4.2,7.4l-1.9-0.7l-1.3-0.5c-0.3-2,0.5-3.5,1.3-5l0.3-0.5c0.4-0.7,0.7-1.4,1.1-2.1l1-1.8c0.7-1.3,1.4-2.6,2.2-3.9
	l0.8-1.5c0.7-1.3,1.7-1.6,2.9-1.1C321.1,194.9,321.6,195.8,321.1,197.2z M324.5,476.6c0.8-1.2,2.9-1.1,3.3,0.2l0.5,1.5l0,0.1
	c0.7,2.1,1.3,4.3,1.8,6.5c0.3,1.2,0.5,2.3,0.6,3.5c0.1,0.5,0.1,1.1,0.2,1.6l0,0.3l0,0.2c0,0.2,0,0.4,0,0.6c0,0.9,0.3,2-0.8,2.1
	c-0.2,0-0.5,0.1-0.7,0.2l-0.5,0.1c-1,0.3-2.1,0.7-3.1-0.5c-0.1-0.2-0.2-0.3-0.3-0.5c-0.1-0.2-0.2-0.3-0.3-0.5
	c-0.1-0.3-0.3-0.7-0.3-1.1c-0.1-0.5-0.2-1-0.3-1.5c-0.3-1.5-0.4-3.1-0.5-4.6c0-0.6-0.1-1.2-0.1-1.8v0c-0.1-1.5-0.1-3.1-0.3-4.7
	C324,477.8,324.2,477.1,324.5,476.6z M333.1,774.3c-0.9,4.2-2.2,8.3-3.5,12.4c-0.8,2.5-2,3-4.3,1.9c-1.1-0.5-1.7-1.3-1.3-2.5
	l0.1-0.3l0-0.2c0-0.2,0-0.4,0.1-0.6c1-4.8,2.2-9.4,4.3-13.8c0.7-1.4,1.4-1.7,3.1-1.3c1.2,0.3,1.7,0.8,1.8,2.2
	C333.4,772.8,333.3,773.5,333.1,774.3z M331.2,522.7L331.2,522.7c0.1-0.9,0.2-1.6,0.4-2.1c0.4-0.7,0.9-1,1.8-1.2
	c1.4-0.2,2.3,0.4,3,2.1c1.8,4.5,2.2,9.2,2.3,14c0,0.8,0.1,1.9-1,2.2c-0.2,0-0.5,0.1-0.7,0.2l-0.5,0.1c-0.2,0-0.4,0.1-0.7,0.1
	c-0.3,0-0.6,0-0.9,0c-0.3,0-0.5-0.1-0.8-0.3c-0.4-0.2-0.5-0.5-0.6-0.9C332.1,532.2,331.7,527.3,331.2,522.7z M338,567.3
	c-0.8,1.3-1.3,1.4-2.8,0.9l-0.2-0.1l-0.4-0.1l-0.8-0.2c-0.4-3.8,3.5-14.5,6.3-17.7c0.2-0.1,0.4-0.1,0.7-0.1c0.1,0,0.1,0,0.2,0l0.1,0
	c0.2,0.1,0.4,0.2,0.7,0.3c1.7,0.8,1.9,1.3,1.5,3.2c-0.8,3.7-2.3,7.2-3.8,10.7c-0.3,0.8-0.7,1.6-1,2.4
	C338.3,566.8,338.1,567.1,338,567.3z M339.6,672.7L339.6,672.7c-0.3-0.1-0.5-0.2-0.8-0.3c-0.8-5.4-0.1-10.4,0.8-15.4
	c0.1-0.3,0.1-0.6,0.2-0.8c0.1-0.3,0.2-0.5,0.4-0.7c0.1-0.2,0.3-0.3,0.4-0.5c0.4-0.3,1-0.4,1.6-0.3c1.1,0.2,1.6,0.9,1.7,2
	c0.1,2,0.3,4,0.4,6l0,0.7l0,1.7l0,1.9l0,2.4c0,0.6-0.1,1.2-0.2,1.7c-0.4,1.8-1.3,2.4-3.1,2.1c-0.2,0-0.4-0.1-0.5-0.1
	c-0.2,0-0.3-0.1-0.5-0.2L339.6,672.7z M354.8,700c-0.4,1-0.8,1.9-1.7,2.7c-0.5,0.4-0.9,0.9-1.3,1.3c-0.3,0.4-0.7,0.8-1,1.2
	c-0.5,0.7-1,1.4-1.5,2.1c-1.2,1.8-2.8,3.4-4.3,5c-0.8,0.9-2.3,0.8-3.7-0.3c-1.3-1-1.6-1.9-0.8-3.2c1.1-1.6,2.1-3.4,3.6-4.8
	c0.6-0.5,1.2-1.1,1.7-1.7c0.6-0.7,1.3-1.4,1.9-2.1c0.5-0.5,0.9-1,1.3-1.5c1.2-1.2,2.7-2.1,3.6-2C354.3,697,355.4,698.7,354.8,700z
	 M353.5,621.6c-0.4-0.1-0.7-0.4-0.9-0.7c-0.2-0.3-0.3-0.6-0.5-1c-0.9-2.3-1.1-4.6-1.3-7c0-0.7-0.1-1.4-0.1-2.1v0v0
	c0-0.4,0-0.8,0-1.3c0.1-0.7,0.3-1.4,0.6-1.8c0.2-0.3,0.5-0.5,0.8-0.6l0.1,0l0.1,0c1.3,0,2,0.9,2.4,2.1l0.5,1.3l0.5,1.2l0.6,1.5
	l0.1,0.1c0.4,1,0.8,2.1,1.2,3.1c0.2,0.5,0.3,1.1,0.4,1.7C358.1,620.7,356.1,622.4,353.5,621.6z M365.8,745.8c-1.5,0-2.8,0-4.1,0
	c-0.9,0-1.4-0.4-1.6-1.3c-0.2-1.1-0.4-2.2-0.5-3.4l-0.1-1.5c-0.2-3.3-0.4-6.6,0-9.9c0.1-0.8,0.2-1.5,0.7-2.1c0.9-1.1,2.6-1.1,3.5,0
	c0.1,0.1,0.2,0.3,0.3,0.4l0.1,0.2c0.3,0.5,0.5,1.1,0.6,1.7c0.1,1.4,0.3,2.9,0.4,4.3l0,0.2c0.2,1.7,0.4,3.4,0.5,5.2
	C365.9,741.6,366.2,743.6,365.8,745.8z M373.8,643.1c-0.1,0.6-0.2,1.1-0.4,1.7l-0.3,0.8c-1.4,3.6-2.7,7.2-4.4,10.6
	c-0.6,1.1-1.2,2.2-2.6,2.8c-3.5-1.7-4.2-2.9-2.6-6.1c0.2-0.4,0.4-0.8,0.6-1.2l0.7-1.4c0.8-1.7,1.6-3.3,2.5-4.9
	c0.4-0.7,0.8-1.3,1.2-1.9c0.5-0.7,1.1-1.3,1.7-1.9l0.2-0.2c0.8-0.8,1.6-0.6,2.4-0.2C373.5,641.5,374,642.2,373.8,643.1z
	 M375.4,353.4c-0.1,1.3-0.2,2.6-0.2,4c-0.2,3.7-0.3,7.5-1.5,11.2c-1.6,0.6-2.8,0.2-4.1-0.3c-0.5-1.2-0.6-2.4-0.5-3.7
	c0.1-2,0.2-3.9,0.3-5.9l0.2-2.8l0.2-1.9c0.1-0.8,0.4-1.7,0.6-2.5c0.4-1.1,1.3-1.6,2.4-1.6c1.2,0,2,0.6,2.3,1.7
	C375.3,352.3,375.5,352.8,375.4,353.4z M384.1,528.9c-0.8-0.4-0.9-1.2-1.2-1.9c-0.3-1-0.5-2.1-0.7-3.1c-0.2-1.1-0.2-2.1-0.4-3.2
	l-0.1-1.3c-0.1-0.7-0.1-1.5-0.1-2.3l0-0.6l0-0.9v0v0v0v0v0c0-0.5,0-0.9,0-1.4l0-0.9l0-0.1l0-0.2c0-0.2,0.1-0.5,0.2-0.8
	c0.3-1.1,1.3-1.4,2.2-1.4c0.5,0,0.9,0.2,1.2,0.5c0.2,0.3,0.4,0.6,0.5,1.1c0.5,2.8,1.1,5.6,1.4,8.5c0.1,0.9,0.2,1.7,0.2,2.6
	c0.1,1,0.2,2,0.3,3C388.3,528,385.7,529.7,384.1,528.9z M398.3,786.1c0,0.5-0.1,0.9-0.1,1.4c-0.1,0.5-0.1,1-0.2,1.5
	c-0.1,0.5-0.2,1-0.2,1.5c-0.1,0.7-0.2,1.4-0.3,2l-0.2,0.9c-0.2,1-0.4,2-0.6,3c-0.2,1.5-0.8,2.9-1.1,4.2c-0.6,0.3-1.1,0.4-1.6,0.4
	c-0.3,0-0.6,0-0.8,0c-0.2,0-0.3,0-0.5-0.1l-0.4-0.1l-0.3,0c-1.4-0.2-2-1-1.8-2.4c0.7-4.5,1.4-9,2.2-13.6c0.1-0.5,0.4-1.1,0.7-1.6
	c0.4-0.7,0.8-1.2,1.3-1.5c0.7-0.4,1.5-0.4,2.5,0.1c0.9,0.4,1.5,0.9,1.6,2.1c0,0.4,0.1,0.9,0,1.3
	C398.4,785.6,398.3,785.8,398.3,786.1z M402.3,675.1c-0.5,2.9-0.6,5.9-1.2,8.8c-0.4,2.2-0.4,2.3-2.4,2.2c-2.5-0.1-3-0.8-3-3.5
	c0-0.9,0.2-1.7,0.2-2.6l0.2-2.6c0.1-2.8,0.4-5.5,1.1-8.2c0.5-2.2,1-2.6,3.2-2.3c1.4,0.2,2.1,0.7,2.1,2.2
	C402.5,671.1,402.7,673,402.3,675.1z M410.9,538.4c0,0.3-0.1,0.6-0.1,1c-1.1,4.1-2.2,8.3-3.6,12.3c-0.3,0.7-0.6,1.5-1.2,1.9
	c-0.6,0.4-1.3,0.8-2.1,0.3c-0.6-0.4-1-0.9-0.9-1.6l0.2-2.2l0.2-0.8l0.2-0.8c0.5-2.5,1-5.3,2.2-8c0.5-1.1,0.7-2.4,1.2-3.5
	c0.5-1,1.2-1.4,2.3-1.3c0.4,0,0.7,0.2,1,0.4c0.5,0.4,0.9,1.1,0.9,1.8C410.9,538,410.9,538.2,410.9,538.4z M413.6,512.3
	c-1,2.2-2.3,4.4-3.6,6.5c-0.6,0.9-1.5,1.7-2.7,2c-1.1-0.9-1-2.2-0.9-3.3c0.1-2.5,2-7.7,3.4-9.6c0.3,0,0.5-0.1,0.8-0.1
	C414.3,507.7,414.9,509.6,413.6,512.3z M415.1,381c0.1-1.1,1.1-1.5,2.2-0.9c0.2,0.1,0.5,0.2,0.7,0.4c0.2,0.2,0.5,0.4,0.7,0.6
	c2.6,3.2,4.7,6.7,6.1,10.6c0,0.1,0,0.2,0,0.4c0,0.1,0,0.3-0.1,0.5L424,393c-0.6,0.4-1.2,0.8-1.8,1.1c-1.3,0.7-2.1,0.6-3-0.6
	c-1.3-1.8-2.3-3.7-2.8-5.9c-0.1-0.2-0.1-0.5-0.2-0.7l-0.1-0.3c-0.2-0.7-0.3-1.4-0.7-1.9C414.6,383.4,415,382.2,415.1,381z
	 M419.8,579.2c-0.5,0.8-0.9,1.6-1.4,2.4c-0.1,0.2-0.3,0.4-0.5,0.6c-0.2,0.2-0.3,0.3-0.5,0.4c-0.5,0.4-1.1,0.5-1.5,0.4
	c-0.2-0.1-0.4-0.2-0.5-0.4c-0.2-0.2-0.3-0.5-0.3-0.8c0-0.2,0-0.4,0-0.7c0-0.2,0-0.5,0.1-0.7l0.1-0.6l0-0.4c0.6-4.3,2.6-8.5,4.9-12.6
	c0.2-0.4,0.5-0.7,0.8-1c0.3-0.3,0.6-0.4,0.9-0.5c0.4-0.1,0.7-0.1,1.1,0c0.3,0.1,0.5,0.2,0.8,0.3c0.6,0.3,1.1,0.9,1.2,1.6
	c0.2,0.7,0.1,1.6-0.2,2.4c-1,2.3-2,4.7-3.3,6.9c-0.5,0.9-1.1,1.8-1.6,2.7L419.8,579.2z M429,740c-0.9,1.7-1.7,3.5-2.5,5.2
	c-0.9,1.9-1.8,3.7-2.7,5.6c-0.4,0.9-1.1,1.8-2.2,2.2c-1.3-0.4-1.7-1.3-1.6-2.6c0.1-1.8,0.2-3.6,0.8-5.4c0.3-0.9,0.5-1.7,0.8-2.6
	l0.3-0.9c0.4-1.4,0.8-2.8,1.3-4.1c0.4-1.1,1-2.2,2.3-3c1.1,0.3,2.4,0.2,3.2,1.4c0.5,0.8,0.8,1.6,0.8,2.4
	C429.5,738.7,429.3,739.3,429,740z M432.9,354.3c-1.9-0.1-2.6-0.6-2.6-2.6c0-4.8,0.5-9.5,2.1-14.1c0.4-1.2,1.2-1.6,2.4-1.4
	c0.7,0.1,1.3,0.4,2.1,0.6c0,5.2-0.5,10.2-0.9,15.1C435.7,354,435.1,354.4,432.9,354.3z M435,486.6c-0.1,0-0.3-0.1-0.4-0.1
	c-0.6-1.5-0.8-3-0.7-4.5c0.1-1.2,0.1-2.5,0.1-3.7c0-0.8,0-1.7,0.1-2.5c0.1-1.6,0.2-3.3,0.4-4.9c0.5-2.5,0.9-2.8,4.2-2.4
	c0.5,1.2,0.7,2.3,0.8,3.5c0.1,2,0.2,3.9,0.2,5.9c0,0.8,0,1.5,0,2.3c0,0.5,0,1-0.1,1.5c0,1.1-0.1,2.1-0.2,3.2
	c-0.2,1.5-0.5,1.8-1.9,1.9c-0.3,0-0.7,0-1.1,0c-0.2,0-0.4,0-0.7,0C435.5,486.7,435.2,486.6,435,486.6z M435.9,509.2
	c0-0.2,0-0.5,0-0.8c0-0.3,0-0.5,0-0.8l0-0.4l0-0.3c0-2.3,1.1-4.3,1.4-6.5c0.2-0.8,0.6-1.4,1.6-1.4c1,0,1.5,0.5,1.7,1.5
	c0.9,3.3,1,6.6,0.4,9.9c-0.2,0.9-0.7,1.3-1.6,1.3c-0.5,0-0.9,0-1.4-0.1C436.4,511.3,436,510.9,435.9,509.2z M447.2,672l-0.1,0.4
	c-0.4,1.2-0.8,2.3-1.3,3.4c-1.1,2.4-2.4,4.8-3.9,6.9c-0.6,0.8-1.4,1-2.4,0.9c-1.7-1.9-1-4.1-0.4-5.9c0.3-0.8,0.5-1.6,0.8-2.4
	c0.5-1.6,1-3.1,1.6-4.7c0.2-0.4,0.4-0.9,0.6-1.3l0.1-0.2l0.2-0.3c0.1-0.2,0.3-0.5,0.5-0.7c0.9-1.3,1.6-1.5,2.9-1
	c1.4,0.5,2.1,1.4,2,2.8C447.7,670.6,447.5,671.3,447.2,672z M448.4,342.1L448.4,342.1L448.4,342.1c0.1-0.6,0.2-1.2,0.3-1.8
	c0.1-0.6,0.2-1.2,0.3-1.8l0.1-0.3c0.2-1,0.3-2,0.4-3c0-0.5,0.2-0.9,0.3-1.4c0.6-3.4,2.6-4.3,5.5-2.2c-0.4,1.1-0.5,2.4-0.7,3.6l0,0.5
	c-0.4,3.6-1.2,7.1-2.1,10.7c-0.7,2.9-1.6,3.3-4.7,1.7C447.8,346.1,448.1,344.1,448.4,342.1z M451.4,445.8c-0.1,0-0.2,0.1-0.2,0.1
	c-0.2,0.1-0.5,0.2-0.8,0.3c-2.5-4.4-1.9-13.4,1.2-16.6c1.8,0.6,1.5,2.7,2.7,3.8c0.6,0.6,0.3,1.5,0.2,2.2c-0.2,1.5-0.5,3.1-0.8,4.6
	c-0.1,0.5-0.2,1-0.3,1.5l-0.1,0.5l-0.1,0.4c-0.1,0.4-0.2,0.9-0.4,1.3c-0.2,0.6-0.4,1.1-0.8,1.5C451.7,445.5,451.6,445.7,451.4,445.8
	z M457.9,720.6l-0.1,1.1c0,0.7-0.1,1.5-0.1,2.2c-0.1,1.6-0.2,3.3-0.3,4.9c0,0.1,0,0.3-0.1,0.4l0,0.1l-0.1,0.1l-0.1,0.1l-0.1,0.1
	c0,0.1-0.1,0.1-0.1,0.2c-0.3,0.3-0.6,0.4-1,0.6c-0.6,0.2-1.1-0.2-1.5-0.6c-0.7-0.7-1.3-1.5-1.3-2.4c-0.1-1.8-0.2-3.5-0.3-5.4
	c-0.1-1.8-0.2-3.7-0.3-5.8c-0.1-0.4,0-0.8,0.3-1.2l0.2-0.3l0.2-0.3c0.1-0.2,0.2-0.3,0.3-0.5c0.1-0.2,0.2-0.3,0.2-0.5
	c0.1-0.2,0.2-0.4,0.4-0.6c0.4-0.4,0.9-0.5,1.5-0.4c0.8,0.2,1.2,0.6,1.3,1.6c0.1,0.9,0.3,1.8,0.5,2.6
	C457.7,717.9,458,719.3,457.9,720.6z M458.5,465.7c-1,2.7-1.9,5.4-3,8c-0.2,0.6-0.5,1.1-0.9,1.6c-0.5,0.6-1.1,1.1-2,1.4
	c-0.9-1.2-0.9-2.5-0.8-3.8l0-0.3l0-0.3c0-2.4,1.5-4.5,1.7-6.9c0-0.3,0.2-0.6,0.4-0.9c0.2-0.2,0.4-0.5,0.6-0.7l0.3-0.3l0.2-0.2
	c0.2-0.2,0.4-0.4,0.7-0.5c0.5-0.2,1.1-0.3,1.7,0C458.3,463.3,458.9,464.6,458.5,465.7z M455.3,214.7c-0.1,0-0.2,0-0.2-0.1l-0.1,0
	l-0.2-0.1c-0.3-0.1-0.5-0.4-0.6-0.6l-0.1-0.1l-0.1-0.2c-0.1-0.2-0.2-0.3-0.2-0.5c-1.5-3.4-2.9-6.9-3.5-10.6
	c-0.1-0.6-0.2-1.1-0.2-1.7l-0.3-1.9c0.2-1,0.3-2,1.5-2.3c1.4-0.3,2.2,0.1,2.8,1.3l0.1,0.2c1.8,4.2,3.7,8.4,4.7,12.9
	C459.5,213.6,457.9,215.2,455.3,214.7z M892.4,426c0.1-2.2,0.8-3,2.3-3.2c1.3-0.2,2.3,0.4,3,2.1c1.8,4.5,2.3,9.2,2.3,14
	c0,0.8,0.1,1.9-1,2.2c-1.2,0.2-2.4,0.8-3.6,0.2c-0.4-0.2-0.5-0.5-0.6-0.9C893.3,435.6,892.9,430.6,892.4,426L892.4,426z
	 M903.6,371.2c-0.4,1.8-0.9,2.3-2.4,2.2c-1.6-0.1-2.3-0.7-2.4-2.6c-0.3-4.6,0.1-9.2,0.9-13.7c0.2-0.8,0.5-1.6,1.1-2.5l0.4-0.1
	c0.4-0.1,0.8-0.1,1.1-0.2c0.8,0,1.4,0.1,1.8,0.4c0.5,0.3,0.7,1,0.7,1.9C905.1,361.6,904.6,366.4,903.6,371.2z M904.4,456.8
	c-0.8,3.7-2.3,7.2-3.8,10.7c-0.3,0.8-0.7,1.6-1,2.4l-0.1,0.2l-0.1,0.2l-0.1,0.1l-0.2,0.3c-0.8,1.3-1.3,1.4-2.8,0.9
	c-0.5-0.1-0.9-0.3-1.4-0.4c-0.4-3.8,3.5-14.5,6.3-17.7c0.6-0.2,1.1,0,1.7,0.3C904.6,454.4,904.8,454.9,904.4,456.8z M870.3,28.6
	c0.1-1.4,0.5-2,1.8-2.2c0.4-0.1,0.8-0.1,1.1-0.1l0.2,0l0.1,0c0.1,0,0.1,0.1,0.2,0.1c0.1,0.1,0.2,0.1,0.3,0.2
	c0.2,0.2,0.4,0.5,0.6,0.9c2.2,4.8,4.1,9.7,5,14.9c-0.5,0.8-1,1-1.5,1.3c-0.1,0-0.2,0.1-0.3,0.1c-2,0.9-2.8,0.5-3.8-1.6
	c-1.7-3.8-3.1-7.6-3.7-11.8c0-0.3-0.1-0.5-0.1-0.8c0-0.2,0-0.3,0-0.5C870.3,29,870.3,28.8,870.3,28.6z M855.2,556.3
	c0.6-0.1,1.1,0.1,1.5,0.7c1.2,2.2,2.2,4.4,1.8,7c-0.1,0.7-0.2,1.3-0.7,1.8c-0.1,0-0.1,0.1-0.2,0.1c-0.1,0.1-0.2,0.1-0.2,0.2
	c-0.2,0.1-0.3,0.2-0.5,0.2c-0.3,0.1-0.7,0-0.9-0.4c-1.7-2.1-3.1-4.3-3.2-6.6C853,557.4,853.8,556.5,855.2,556.3z M843.8,33.8l0-0.1
	l0-0.1l0-0.2c0.1-0.3,0.2-0.6,0.4-1l0.1-0.2c0.8-1.9,2-2.3,3.9-1.3c0.4,0.2,0.8,0.5,1.1,0.8c-1.1,10.7-1.7,12.7-4.7,14.8
	c-1.3-0.9-1.7-2.1-1.7-3.3C843,40.1,843.3,36.9,843.8,33.8z M801.2,336.3c2.2,2.3,3.3,5.3,4.2,8.1c-0.2,0.4-0.4,0.7-0.7,0.8
	l-0.1,0.1c-0.1,0-0.1,0.1-0.2,0.1c-0.1,0.1-0.2,0.1-0.3,0.1c-0.1,0-0.2,0.1-0.2,0.1c-2.4,1.2-3.8,0.7-4.6-1.9
	c-0.5-1.6-0.7-3.4-1.1-5c-0.2-0.6-0.2-1.1-0.1-1.7c0.2-1.5,1.5-2.1,2.7-1.2C801,336,801.1,336.2,801.2,336.3z M798.5,506.8
	c0.2-0.6,0.7-1.2,1-1.7c0.4-0.6,0.9-0.7,1.5-0.6c0.2,0,0.3,0.1,0.4,0.1c0.2,0.1,0.4,0.3,0.6,0.5c0.2,0.2,0.2,0.5,0.3,0.8
	c0.1,0.9,0.2,1.9,0.2,2.9c-0.1,1.4-0.2,2.8-0.3,4.2l-0.2,2c-0.1,0.7-0.1,1.4-0.2,2.1c-0.1,0.4-0.2,0.8-0.3,1.2l-0.1,0.3l0,0.1
	c-0.1,0.3-0.2,0.6-0.3,0.9c-1.7,0.2-3-0.2-4.5-0.8C796.2,514.5,797.4,510.6,798.5,506.8z M796.3,445.9c-1.5-0.4-2.2-1.8-2.3-3.2
	l-0.2-1.6c-0.3-3.1-0.6-6.1-0.2-9.2c0.3-2.6,1.5-3.1,4.4-2.3c0.7,4.9,0.5,9.8-0.4,14.7c-0.1,0.3-0.1,0.5-0.3,0.8
	c-0.1,0.2-0.3,0.4-0.6,0.6C796.6,445.8,796.5,445.8,796.3,445.9z M800.5,411.7l-0.4-0.5l-0.4-0.4c-0.6-0.6-1.1-1.3-1.5-2
	c-0.4-0.8-0.9-1.5-1.4-2.3l-0.1-0.1l0,0l0,0c-1.3-2.2-2.6-4.3-3.6-6.7c-0.1-0.4-0.2-0.7-0.4-1.2c0.5-0.8,0.9-1.3,1.6-1.6
	c0.2-0.1,0.3-0.1,0.5-0.2c0.2,0,0.4-0.1,0.6,0c0.4,0.1,0.7,0.2,0.9,0.6l0.7,0.9c3,3.8,6.1,7.6,8,12.2c0.2,0.4,0.2,0.9,0.2,1.4
	C802.9,413.6,802.4,413.7,800.5,411.7z M798.7,367.4l0,0.2c-0.2,1.8-0.4,3.5-0.7,5.2c-0.1,0.7-0.3,1.6-1.3,1.7
	c-0.7,0.1-1.3-0.1-1.7-0.5c-0.2-0.2-0.4-0.5-0.6-0.9c-0.3-0.8-0.7-1.6-0.7-2.5l-0.1-2c-0.1-3.4-0.2-6.7,0.4-10.1l0.1-0.3
	c0.1-0.7,0.2-1.5,1-1.9c0.2-0.1,0.5-0.3,0.7-0.3c0.2-0.1,0.3-0.1,0.5-0.1c0.3,0,0.5,0,0.8,0l0.2,0.1c0.1,0,0.2,0.1,0.2,0.1
	c0.9,0.4,1.1,1.2,1.1,2.2c0,0.8,0,1.7,0.1,2.5v0v0v0v0C798.8,363,798.9,365.2,798.7,367.4z M786.4,206.1c0.3-0.6,0.7-0.9,1.2-1
	c0.4-0.1,0.8-0.1,1.3-0.1l0.6,0c2.7,0.4,5.3,1,7.8,1.9c2.2,0.8,2.9,3.4,1.4,5.1c-0.7,0.8-1.7,1-2.6,0.7l-0.7-0.2l-0.7-0.2l-0.6-0.2
	l-0.6-0.2c-0.3-0.1-0.7-0.2-1-0.3c-0.7-0.3-1.5-0.5-2.2-0.9c-0.2-0.1-0.5-0.2-0.7-0.4c-0.2-0.1-0.3-0.2-0.5-0.3
	c-0.6-0.4-1.2-0.9-1.8-1.5l-0.2-0.2c-0.1-0.1-0.3-0.3-0.4-0.4l-0.1-0.1l-0.1-0.1c-0.1-0.1-0.1-0.2-0.1-0.3
	C786.3,207,786.2,206.6,786.4,206.1z M777.6,351.5c2.4,2,4.1,4.4,5.4,7.2c-0.8,1.6-2.2,2.1-3.8,2.7l-0.3,0.1
	c-3-3.2-5.4-6.6-6.2-11.2C774.9,349.8,776.2,350.4,777.6,351.5z M769.6,574.3l-0.6-1.5l-0.4-1.2l-0.2-0.5l-0.3-0.7
	c-0.2-0.6-0.2-1.1-0.2-1.7l0-0.3c0-0.4,0.1-0.8,0.4-1c0.2-0.2,0.5-0.4,0.8-0.4c0.8-0.1,1.7-0.3,2.3,0.6c2.7,3.7,5,7.4,6.2,11.8
	c0.2,0.7,0.3,1.3,0.4,2c0.1,0.7,0,1.4-0.3,2.1c-0.3,0-0.5,0.1-0.8,0.1l-0.2,0.1c-0.1,0.1-0.3,0.1-0.4,0.2l-0.3,0.1
	c-0.4,0.2-0.9,0.4-1.3,0.5c-1.2-0.5-1.5-1.5-1.9-2.5c-1.1-2.2-1.9-4.5-2.7-6.8v0L769.6,574.3z M766,458l-0.1-0.3
	c-0.2-0.7-0.3-1.5,0.5-2c0.7-0.5,1.4-0.3,2.1,0.2c3.6,2.2,6.4,5.1,7.4,9.4c0.1,0.3,0.1,0.5,0.2,0.8c0.1,0.3,0.2,0.6,0.3,0.9
	c0.6,2.4-1.4,4.8-3.9,4.6c-0.6,0-1.1-0.3-1.4-0.9c-0.6-1.1-1.5-2.1-1.8-3.2c-0.4-1.2-0.9-2.4-1.3-3.6l0-0.1
	C767.2,461.9,766.5,460,766,458z M777.2,539.8c-1-0.2-1.6-1-2-2.5c-0.2-0.9-0.4-1.7-0.5-2.6c-0.1-0.9-0.1-1.9-0.2-2.8l0-0.7l-0.1-1
	c0-0.5,0-1,0.2-1.5c0.1-0.3,0.2-0.7,0.5-1c0.8-1,2.3-1.2,2.8,0c1.6,3.3,3.1,6.7,3.2,10.5l0,0l-0.1,0.1c0,0.1-0.1,0.2-0.2,0.4
	c-0.2,0.1-0.4,0.2-0.7,0.3l-0.3,0.2l-0.3,0.1c-0.3,0.1-0.6,0.2-0.8,0.3C778.2,539.9,777.7,539.9,777.2,539.8z M721.8,436.1
	c0.8,0.6,1,1.7,0.5,2.9c-0.1,0.3-0.2,0.6-0.4,0.9l-0.1,0.3l-0.2,0.4c-0.2,0.4-0.4,0.7-0.6,1c-1.3,2.2-2.4,4.6-3.4,6.9
	c-0.1,0.1-0.1,0.2-0.2,0.4c-0.1,0.1-0.1,0.3-0.2,0.4c-0.3,0.6-0.7,1.1-1.1,1.6l-0.3,0.4l-0.4,0.5l-0.4,0.4l-0.4,0.5
	c-0.7,0.8-1.7,0.7-3.2-0.1c-0.9-0.5-1.1-1.2-0.9-2.3c0.3-1,0.7-2,1.1-3l0.3-0.8l0.2-0.6l0.1-0.3l0.3-0.6c0.1-0.3,0.3-0.5,0.4-0.8
	c0.2-0.4,0.4-0.8,0.6-1.2c0.4-0.7,0.9-1.4,1.4-2.1c0.7-1,1.4-1.9,2.1-2.9l0.1-0.2c0.1-0.2,0.3-0.3,0.4-0.5c0.2-0.2,0.3-0.3,0.4-0.5
	c0.3-0.2,0.5-0.5,0.8-0.6C719.8,435.6,721.1,435.5,721.8,436.1z M709.4,405.9c0.1-1,0-2.3,1.2-2.7c0.8-0.2,1.3,0.2,1.6,0.8
	c0.2,0.3,0.4,0.7,0.6,1c2.3,3.6,3.8,7.5,4.6,11.6c-0.7,1-1.4,1.2-2.1,1.5c-2.1,0.9-3.4,0.4-3.9-1.8c-0.6-2.4-1-4.8-1.5-7.2l0-0.1
	l-0.5-2.5C709.3,406.3,709.4,406.1,709.4,405.9z M708.2,286.3c-0.2,0-0.3,0-0.5-0.1c-0.1,0-0.2-0.1-0.3-0.1l-0.1,0
	c-0.3-0.1-0.6-0.2-0.9-0.4c-0.5-0.2-0.9-0.5-1.2-0.9c-0.2-0.3-0.3-0.6-0.2-1.1c0.1-0.5,0.3-0.8,0.7-1.1c0.3-0.3,0.7-0.4,1.1-0.5
	c1.8-0.4,3.7-0.7,5.5-0.9c1.1-0.1,2.2-0.2,3.3-0.1c2.9,0.1,4.1,2.2,2.8,4.8c-0.5,1.2-1.4,1.7-2.7,1.6c-0.9-0.1-1.8-0.2-2.8-0.4
	C711.4,286.8,709.8,286.6,708.2,286.3z M705.7,96.1c0-0.1,0-0.1,0.1-0.2c0-0.1,0.1-0.1,0.1-0.2c0.2-0.4,0.5-0.7,0.9-1
	c0.9-0.6,1.8-0.7,2.7-0.1c0.5,0.3,0.9,0.8,1.3,1.2l0.1,0.2c2.1,2.3,3.7,4.9,5.2,7.5l0,0l1,1.6c0.4,0.7,0.8,1.4,1.3,2
	c0.3,0.6,0.5,1.3,0.7,1.9l-0.1,0.1c-0.3,0.6-0.6,1.2-1.1,1.5c-1.4,1-2.6,0.9-3.8-0.3c-0.5-0.5-0.9-1-1.3-1.5l0,0
	c-1.3-1.8-2.6-3.6-4-5.3c-1.6-1.9-2.3-4.1-3-6.4c-0.1-0.3-0.1-0.5-0.1-0.8C705.6,96.3,705.6,96.2,705.7,96.1z M703.3,142
	c0.7-0.3,1.5-0.6,2.2-0.9c0.4-0.1,0.7-0.2,1-0.3c0.6-0.1,1.1-0.2,1.5-0.2c0.6,0,1.3,0,1.9,0l1.3,0.1l1.2,0.1l1.3,0.1l1.1,0.1
	c0.3,0,0.6,0.1,0.8,0.2c0.5,0.2,0.8,0.7,0.8,1.5c0.1,1.2,0,2.3-0.7,3.3c-0.4,0.5-0.8,0.9-1.4,1.1c-0.4,0.1-0.9,0.2-1.4,0.1
	c-3.2-0.7-6.4-0.8-9.6-1.8c-0.6-0.2-1.2-0.4-1.7-0.8c-0.4-0.3-0.7-0.6-1-1C701.4,143,702.3,142.5,703.3,142z M697.2,481.7l0.1-0.1
	l0.2-0.4l0.3-0.7c0.6-1.4,1.3-2.8,2.5-3.8c0.5-0.4,0.9-0.6,1.4-0.7c0.6-0.1,1.2,0.1,1.7,0.5c1,0.7,1.2,1.5,0.7,2.8l-0.5,1.2
	l-0.6,1.6c-0.8,2.2-1.7,4.4-2.7,6.5c-0.7,1.4-1.4,2.7-2.2,4c-0.2,0.4-0.4,0.8-0.7,1.1c-0.4,0.5-0.8,0.8-1.6,0.7
	c-1.1-0.2-1.6-1.2-1.6-2.7l0.1-0.9c0.1-0.6,0.2-1.2,0.3-1.8c0.1-0.6,0.2-1.1,0.4-1.7c0.2-0.9,0.6-1.7,1-2.5
	C696.4,483.8,696.8,482.8,697.2,481.7z M688.9,453.4c0.8-0.4,1.4,0,2.1,0.4c1.5,1.2,2.1,2.9,2.8,4.6c0.3,0.8,0.5,1.5,0.7,2.3
	c0.1,0.5,0.2,1,0.4,1.6l0,0l0.2,1l0.1,0.6c0.3,1.1-0.1,1.9-1.1,2.3c-0.5,0.2-1.1,0.4-1.6,0.6l-0.1,0l-0.7,0.3l-0.6,0.2
	c-0.8-0.5-1.3-1.1-1.7-1.7c-0.3-0.6-0.5-1.3-0.6-2c-0.3-2.7-0.8-5.4-1.1-8.2C687.7,454.6,688.1,453.8,688.9,453.4z M597.8,171
	l0.2-0.3c1.8-1.9,3.9-3.4,6-4.8c0.9-0.6,1.9-0.9,3-0.3c1,0.6,1.4,1.5,0.8,2.4c-1.8,2.9-3.9,5.7-6.5,8c-1.7,1.5-4,0.9-5.1-1.1
	c-0.1-0.2-0.2-0.5-0.2-0.7L596,174C596.2,172.6,597.1,171.7,597.8,171z M604.5,216.7c-0.2,2.1-0.4,4.2-0.8,6.2
	c-0.3,1.4-0.6,2.9-0.9,4.4v0l-0.3,1.7c-0.1,0.7-0.2,1.3-0.5,2c-0.3,0.9-0.9,1.5-2,1.1c-0.4-0.2-0.9-0.1-1.4-0.2
	c-0.9-0.2-1.4-0.5-1.6-1c-0.2-0.3-0.2-0.8-0.2-1.4c0-0.1,0-0.2,0.1-0.3c0-0.1,0-0.2,0.1-0.3l0.2-3.2c0.5-3.3,1.1-6.6,2-9.8
	c0.3-1.1,0.7-1.8,1.2-2.1c0.4-0.3,1-0.4,1.7-0.3c0.5,0.1,0.9,0.2,1.3,0.5c0.5,0.4,0.9,0.9,1.1,1.5c0.1,0.2,0.1,0.4,0.1,0.6
	C604.5,216.2,604.5,216.4,604.5,216.7z M586.8,168.2c1.3,0.1,2.4,0.5,3.3,1.5c1.1,1.2,2.2,2.4,3.3,3.6c1.2,1.5,1.2,2.1-0.1,3.4
	c-1.6,1.5-4.2,2.3-5.4-0.4c-0.9-2-2.2-3.9-2.7-6.2C584.9,168.8,585.5,168.1,586.8,168.2z M577.9,252.3c0.5-0.3,1-0.6,1.5-0.9
	c0.8-0.5,1.7-0.9,2.6-1.3c1.6-0.7,3.2-1.3,4.2-2.9c0.3-0.5,0.8-0.8,1.5-0.8l1.1-0.1l1.1-0.1c0.9,0,1.8-0.1,2.7,0
	c1.3,0.1,2.5,1.2,2.6,2.3c0,0.7-0.1,1.3-0.5,1.8l-0.1,0.1l-0.1,0.1l-0.1,0.1l-0.1,0.1l-0.1,0.1c-0.1,0.1-0.2,0.2-0.3,0.2
	c-0.1,0.1-0.3,0.2-0.5,0.2c-5,2.3-10,4.3-15.2,5.4c-0.2-0.1-0.3-0.2-0.4-0.3c-0.1-0.1-0.2-0.1-0.2-0.2c-0.4-0.4-0.5-0.7-0.6-1.1
	l0-0.1C576.3,253.5,576.4,253.4,577.9,252.3z M541.1,244.5c0-0.5,0.2-1,0.3-1.4c0.2-0.5,0.3-0.9,0.5-1.4c0.1-0.3,0.2-0.5,0.3-0.8
	c0.1-0.3,0.2-0.6,0.3-1c0.4-1.4,1-2.7,1.6-4.1l0.1-0.2c1.1-2.6,3-3.3,5.3-2.1c0.9,0.5,1.1,1.3,1.3,2.1l0.1,0.3l-3.8,6
	c-0.9,1.5-2.1,2.8-3.3,3.9c-0.1,0.1-0.3,0.3-0.4,0.4l-0.1,0.1c-0.1,0.1-0.3,0.2-0.5,0.3c-0.1,0-0.2,0.1-0.3,0.1c-0.1,0-0.2,0-0.2,0
	l-0.2,0l-0.1,0c-0.1,0-0.1-0.1-0.2-0.1C541.2,246,541,245.3,541.1,244.5z M544.2,533.4c-0.4-2,0.5-3.9,0.7-5.9
	c0.1-0.7,0.3-1.3,0.6-1.9c0.2-0.5,0.5-0.7,0.9-0.8c0.3-0.1,0.7-0.1,1-0.2c0.8,0,1.3,0.4,1.5,1.1c0.4,1.2,0.8,2.4,0.9,3.6
	c0.4,3.4,0.6,6.9,0.8,10.3c0.1,1-0.1,2.2-1.2,2.7c-1.3,0.6-2.8,0.9-4.2,0.1c0,0-0.1-0.1-0.2-0.1c-0.1-0.1-0.1-0.1-0.2-0.2
	c-0.1-0.2-0.2-0.4-0.3-0.6l-0.1-0.4c-0.2-0.7-0.4-1.4-0.4-2.1c0-0.7,0-1.4,0.1-2.1C544.3,535.8,544.3,534.6,544.2,533.4z
	 M536.8,463.3c0-0.1,0-0.2,0.1-0.4c0.1-0.2,0.1-0.3,0.2-0.5c2.4-3.7,5.2-7.2,8-10.8c0.2-0.3,0.5-0.5,0.8-0.7l0.1-0.1
	c1.6-1.2,2.6-1,3.7,0.8c0.2,0.3,0.4,0.7,0.6,1.1c-1.6,2.5-3,4.9-4.5,7.2c-1.2,1.8-2.5,3.6-3.8,5.3c-0.6,0.8-1.3,1.4-2.5,0.8
	l-0.2-0.1l-0.3-0.2l0,0c-1-0.5-2-1-2.3-2.4C536.8,463.5,536.8,463.4,536.8,463.3z M528.8,608.2c0,0.8,0.1,1.5-0.7,2
	c-0.8,0.4-1.7,0.7-2.6,0.7c-0.3,0-0.6,0-0.8,0l-0.2,0c-0.1,0-0.2,0-0.3-0.1c-0.2-0.1-0.5-0.1-0.8-0.2c-0.8-0.3-1-1.1-1.1-1.9
	c0-1-0.1-1.9-0.1-2.8c0-3.9,0.1-7.8,0.7-11.7c0.3-2,2.2-3,3.8-1.8c0.6,0.4,0.8,1,0.9,1.7c0.3,1.1,0.4,2.3,0.4,3.4
	c0.1,0.9,0.1,1.9,0.3,2.8c0.4,2.1,0.8,4.3,0.6,6.5l0,0.6c0,0.2,0,0.4,0,0.6L528.8,608.2z M523,259.2l0.2-0.3l0.1-0.1l0.2-0.2
	c0.1-0.1,0.2-0.2,0.2-0.3l0.2-0.2l0.2-0.3l0.1-0.2l0.2-0.3c0.5-0.6,1.2-1,1.8-1.1c0.2,0,0.4,0,0.6,0c0.2,0,0.4,0.1,0.6,0.2
	c0.3,0.1,0.5,0.3,0.7,0.6c0.3,0.4,0.5,0.9,0.5,1.5c0,0.3,0,0.6-0.1,0.9c-0.6,2-1.3,4-2,6c-1.1,2.9-2.4,5.7-4.1,8.5
	c-1.1,0.3-1.9,0.2-2.6,0.1c-2.1-0.4-2.5-1.4-1.8-3.4c0.8-2.2,1.8-4.3,2.8-6.3c0.7-1.4,1.4-2.9,2-4.4
	C522.9,259.5,522.9,259.4,523,259.2z M503.4,182.9c0.1-0.4,0.4-0.8,0.9-1.1c4.5-2.8,9-5.8,14.3-6.8c1.6-0.3,2.5,0.3,2.8,1.8
	c0.1,0.5,0.1,0.9-0.1,1.3c-0.2,0.4-0.5,0.8-1,1.1c-4.7,2.9-9.7,5.3-15.2,6.7c-0.8-0.3-1.1-0.9-1.3-1.4l-0.1-0.2
	C503.4,183.8,503.3,183.3,503.4,182.9z M498.7,289.4c0-0.4,0.1-0.7,0.2-1.1c0.1-0.3,0.2-0.5,0.3-0.7c0.2-0.3,0.5-0.6,1-0.8
	c0.8-0.3,1.8,0.5,2.4,2c0.2,0.7,0.5,1.4,0.8,2.2l0,0c1.3,3.5,2.6,7.1,2.6,11c0,1.9-0.3,2.2-2.2,2.6c-2,0.3-3,0-3.4-1.7l-0.2-0.8
	c-0.3-1.1-0.6-2.2-0.6-3.4c-0.1-1.5-0.3-3.1-0.5-4.6c-0.1-0.8-0.2-1.7-0.3-2.5c0-0.6-0.1-1.3-0.1-2L498.7,289.4z M487.9,634.7
	c0-1.3,0.5-2.5,0.9-3.8c0.2-0.5,0.3-0.9,0.5-1.4c0.2-0.8,1.4-1.4,2.5-1.7c0.6-0.1,1.2-0.2,1.7,0c0.5,0.2,0.9,0.4,1.1,0.8
	c0.1,0.2,0.2,0.5,0.3,0.7c0,0.3,0,0.6,0,0.9c-0.2,1-0.6,1.8-1.1,2.6l0,0.1c-0.2,0.3-0.3,0.6-0.5,1c-0.4,0.8-0.8,1.6-1.2,2.3
	c-0.2,0.5-0.5,0.9-0.8,1.3c-0.3,0.4-0.6,0.9-0.9,1.3c-0.6,0.8-1.7,0.7-2-0.2l-0.1-0.3c-0.2-0.7-0.4-1.4-0.5-2
	C487.8,635.8,487.8,635.2,487.9,634.7z M485,154.2c-0.1,0.4-0.2,0.9-0.3,1.3l-0.3,1.5l-0.2,0.9l-0.2,0.8l-0.3,1.1
	c-0.4,1.7-0.9,3.4-1.4,5.1l-0.4,1.6c-0.2,0.5-0.3,1.1-0.6,1.6c-1.2,2.3-2.7,2.7-4.9,1.4c-0.8-0.4-0.7-1.2-0.6-1.9l0-0.1l0.2-1l0,0
	c0.2-0.8,0.3-1.6,0.5-2.4c0.3-1,0.6-2.1,0.9-3.2l0,0v0l0,0c0.7-2.6,1.4-5.2,2.6-7.7c1-1.9,2.3-2.3,3.9-1.1
	C484.8,152.5,485.2,153.2,485,154.2z M474.4,125.9c0-0.2,0.1-0.3,0.1-0.5c0.1-0.3,0.2-0.6,0.4-0.8c0.4-0.5,1-0.5,1.8-0.1
	c0.2,0.1,0.3,0.2,0.5,0.3l0.2,0.1l0.1,0.1c0.1,0.1,0.2,0.2,0.4,0.3l0.2,0.2c0.2,0.1,0.3,0.3,0.5,0.4c0.4,0.4,0.8,0.9,1.2,1.4
	c0.4,0.5,0.7,1,1,1.5c1.6,2.7,2.5,5.6,2.9,8.6c0.4,2.5-2,4.4-4.3,3.7c-0.4-0.1-0.7-0.3-0.9-0.6c-0.1-0.1-0.1-0.2-0.2-0.3
	c-0.1-0.1-0.1-0.2-0.2-0.3l-0.3-0.5l-0.2-0.5c-0.4-0.8-0.9-1.7-1.1-2.6c-0.2-0.9-0.5-1.8-0.8-2.7c-0.6-1.8-1.1-3.6-1.2-5.6
	c0-0.3,0-0.5,0-0.8l-0.1-0.9C474.4,126.2,474.4,126.1,474.4,125.9z M469.3,78.6c-0.1,0.4-0.2,0.9-0.4,1.3c-0.2,0.9-0.4,1.8-0.7,2.6
	c-0.4,1.7-0.8,3.5-1.4,5.1c-0.1,0.4-0.3,0.9-0.5,1.3c-0.1,0.2-0.2,0.5-0.3,0.7l-0.2,0.5c-0.3,0.7-0.6,1.3-1,2c-1,1.6-1.7,2-3.2,1.4
	c-1.6-0.6-2.1-1.3-1.9-3c0.1-1.7,0.9-3.1,1.4-4.7c1.1-3,2.4-5.8,4-8.6c0.1-0.2,0.3-0.5,0.5-0.7l0.2-0.2l0.2-0.2l0.2-0.2l0,0
	c0.2-0.2,0.4-0.4,0.5-0.6c0.2,0,0.4,0.1,0.6,0.1c0,0.2,0.1,0.3,0.2,0.5c0.2,0.2,0.4,0.3,0.6,0.4c0.1,0,0.2,0.1,0.2,0.1l0.2,0.1
	c0.3,0.2,0.5,0.5,0.7,0.8C469.4,77.8,469.4,78.2,469.3,78.6z M470.2,183.9l0-0.5c0-0.3,0-0.5,0-0.8c0-0.6,0.1-1.1,0.5-1.6
	c0.6-0.8,1.2-1.4,2.4-1.2c1.2,0.1,1.7,0.8,1.8,1.9c0.4,3.7,1.5,7.3,1,11.1c-0.1,0.5-0.1,1,0,1.5c0,0.2,0,0.4,0.1,0.7
	c0,0.5,0.1,1,0.1,1.5c0,0.7-0.1,1.2-0.3,1.5c-0.3,0.4-0.8,0.5-1.7,0.6c-1.6,0.1-2.2-0.2-2.5-1.6c-0.8-4.1-1.2-8.3-1.1-12.2
	c0-0.2,0-0.3,0-0.5L470.2,183.9z M472.9,620.7c-0.1-0.5-0.1-0.9-0.2-1.3c-0.1-0.6-0.2-1.2-0.3-1.7l-0.3-1.7
	c-0.2-1.2-0.5-2.5-0.6-3.7c-0.2-1-0.3-2.1-0.3-3.1c0-0.2,0-0.5,0-0.7l0-0.5l0-0.5l0.1-0.4c0.1-0.4,0.1-0.7,0.2-1
	c0.4-0.8,1.1-1.4,2-1.5c1-0.1,1.6,0.7,1.8,1.5c0.6,2,1.1,4,1.6,6.1c0.3,1.6,0.6,3.2,0.9,4.8c0.1,0.8,0.3,1.7,0.4,2.5
	c0.1,0.5,0.2,0.9,0.2,1.4c0,1.4-0.7,2.1-2.1,2.1c-0.2,0-0.4,0-0.6,0l-0.3,0l-0.2,0c-0.2,0-0.3,0-0.4,0c-0.2,0-0.3-0.1-0.5-0.1
	C473.5,622.5,473.1,621.9,472.9,620.7z M478.8,657c-0.4,0.9-0.8,1.5-1.8,1.5c-1.1,0-1.8-0.5-2-1.6c0-0.1-0.1-0.2-0.1-0.3
	c-0.7-1.8-1.2-13.2-0.7-15.1c0.4-1.5,1.4-2.4,2.8-2.3c1.3,0.1,1.9,0.5,2.1,1.9c0.1,0.7,0.2,1.5,0.3,2.2c0.4,2.9,0.8,5.7,0.2,8.6
	c-0.2,0.7-0.2,1.4-0.2,2.1C479.3,655,479.3,656,478.8,657z M485.7,691.6c-0.1,0.5-0.2,1-0.4,1.6c-0.1,0.3-0.2,0.6-0.3,0.9
	c-0.7,1.7-1.4,3.3-2.2,4.9c-0.5,1-0.6,1.1-2.3,2c-0.3-0.3-0.6-0.5-0.8-0.8c-0.2-0.3-0.3-0.7-0.3-1.1l0-1.4c0-1.1,0.1-2.1,0.1-3.2
	c0.1-1,0.2-1.9,0.4-2.9c0.2-0.8,0.4-1.6,0.8-2.3c0.5-1.1,1.1-2,2.4-2.3c1.5-0.4,2.7,0.5,2.7,2C485.9,689.9,485.9,690.7,485.7,691.6z
	 M488.1,678.8c-0.3-1.1-0.7-2.3-0.6-3.6c0.1-1.6-0.2-3.2-0.3-4.9c-0.1-1.3-0.1-2.7-0.1-4c0.1-1.5,0.7-2.3,2-2.8
	c1.3-0.5,2.5,0,2.9,1.4c0.2,0.7,0.2,1.4,0.3,2.2l0.1,0.6l0,0.4c0.2,1.7,0.2,3.4,0.1,5c0,1.7-0.1,3.4,0.1,5c-0.1,1.2-0.2,2.3-0.9,3.3
	c-0.3,0.5-0.7,0.8-1.2,0.8c-0.2,0-0.4,0-0.6-0.1c-0.2-0.1-0.4-0.2-0.7-0.5c-0.2-0.2-0.4-0.4-0.6-0.7l-0.1-0.1c0-0.1-0.1-0.1-0.1-0.2
	c0-0.1,0-0.1,0-0.2c-0.1-0.3-0.2-0.6-0.2-0.9l-0.1-0.5L488.1,678.8z M490.9,756.6c-0.2-0.3-0.3-0.6-0.4-0.9l0-0.1
	c-1-3.9-2-7.8-2.2-11.9c0-0.2,0-0.3,0-0.6c0.2-1,0.2-2.1,0.8-3c0.1-0.2,0.3-0.4,0.4-0.6c0.2-0.2,0.4-0.4,0.7-0.5
	c0.2-0.1,0.5-0.2,0.8-0.1c0.1,0,0.2,0,0.4,0.1c0.4,0.1,0.8,0.5,1.2,1c0.3,0.4,0.5,0.8,0.7,1.2c0.1,0.1,0.1,0.3,0.2,0.4
	c0.2,0.4,0.3,0.8,0.4,1.2c0.2,0.8,0.4,1.6,0.6,2.5c0.2,0.6,0.4,1.2,0.6,1.8c0.7,2.2,1.4,4.4,1.6,6.8c0.1,1.3,0.1,2.5-1,3.3
	c-1.1,0.9-2.3,0.6-3.5,0.2C491.5,757.2,491.2,756.9,490.9,756.6z M496.3,796.1c-0.4,0.7-0.9,1.3-1.4,1.8c-0.2,0.2-0.4,0.4-0.6,0.5
	c-0.3,0.2-0.7,0.3-1.2,0.1c-0.8-0.3-1.2-0.9-1.2-1.8c0.1-1.5,0-3.1,0.4-4.6c1-3.6,2.2-7.1,4.4-10.2l0.1-0.2l0.1-0.2l0.2-0.3
	c0.1-0.1,0.2-0.2,0.2-0.3c0.5-0.6,1-0.9,1.5-1.1c0.7-0.2,1.4,0.1,2.2,0.7c0.5,0.3,0.8,0.8,1.2,1.2C501,787,498.8,791.6,496.3,796.1z
	 M507,549.7c-0.4,0.2-0.9,0.4-1.3,0.4c-2.4,0.5-3.4-0.3-4-2.7c-0.6-2.3-1.2-4.6-1.2-7l0-0.2v-0.1l0-0.9l0-0.6v-0.4
	c0-0.1,0-0.2,0-0.3l0-0.3l0-0.1l0-0.1l0-0.1l0.1-0.2l0,0c0.1-0.4,0.3-0.7,0.5-1c0.2-0.3,0.5-0.6,0.9-0.7c1-0.4,1.5,0.5,2.1,1.1
	c0.6,0.6,0.9,1.4,1.3,2.2l0.1,0.3l0.1,0.3l0.1,0.2c0.9,1.9,1.5,3.8,2.1,5.8l0.2,0.8l0.3,0.9C508.8,548.7,508.5,549.1,507,549.7z
	 M510.6,522c0.2-1.1,0.7-2,1.3-2.9c1-1.5,2.1-3,3.2-4.5c1-1.5,2.1-2.9,3.1-4.4c0.1-0.1,0.2-0.2,0.3-0.4c0.1-0.2,0.3-0.4,0.5-0.5
	c0.7-0.7,1.6-0.7,2.4-0.3c0.7,0.3,1.1,1.1,1,1.9c0,0.2-0.1,0.4-0.1,0.7l-0.1,0.4c-0.1,0.3-0.1,0.5-0.2,0.8l0,0.2l-0.1,0.2l-0.1,0.2
	c-1.2,4.4-3.1,8.6-5.9,12.5c-1.7-0.3-3-0.9-4.3-1.5C510.7,523.9,510.4,523.1,510.6,522z M531.3,622.5c-0.2,0.2-0.3,0.5-0.6,0.7
	c-3,2.5-5.8,5.2-9.1,7.4c-1.2,0.8-2.3,1.7-3.4,2.5l-0.4-0.3l-0.4-0.4l0,0c-0.5-0.4-0.9-0.8-1.4-1.2c-0.8-0.8-1.1-1.4-0.9-2.1
	c0.1-0.4,0.4-0.8,0.9-1.3c0.1-0.1,0.2-0.2,0.4-0.3l0.3-0.3l0.5-0.4c0.4-0.3,0.7-0.5,1.1-0.8l0.7-0.5c0.6-0.4,1.1-0.8,1.6-1.3
	c0.5-0.4,1-0.9,1.5-1.3l0.7-0.6c1.2-1,2.4-2,3.8-2.9c1.8-1.2,3.1-1,4.5,0.5c0.4,0.4,0.6,0.8,0.6,1.2
	C531.8,621.6,531.6,622,531.3,622.5z M551.2,736.9c-0.4,0.5-0.8,0.8-1.2,1.1c-0.4,0.2-0.8,0.3-1.3,0.3c-0.6,0-1.3-0.3-2-0.8
	c-0.2-0.2-0.4-0.3-0.6-0.5c-0.3-0.3-0.6-0.5-0.8-0.8c-0.2-0.2-0.4-0.4-0.6-0.6l-0.4-0.3c-1-1-2-1.9-3.1-2.7
	c-1.9-1.2-2.9-3.3-4.6-4.7c-0.3-0.3-0.5-0.7-0.6-1.2c0-0.3-0.1-0.6,0-0.9c0.1-1.5,1.5-2.7,3-2.3l0.4,0.1l0.2,0.1
	c0.7,0.2,1.3,0.6,2,1c1.2,1,2.5,2,3.8,3c1.3,1,2.7,2.1,4,3.1c0.6,0.5,1.3,1,1.9,1.6C552.9,733.8,552.8,734.9,551.2,736.9z
	 M561.6,580.9c-0.8,1.3-1.7,2.6-2.6,3.8c-0.9,1.1-1.7,2.2-2.6,3.3c-1.2,1.4-2.4,2.7-3.7,3.9c-0.5,0.4-1,0.9-1.7,1l-0.2-0.1l0,0
	l-0.7-0.3c-0.4-0.1-0.7-0.3-1.1-0.5c-2-0.9-2.5-2.6-1.2-4.4c0.9-1.2,1.8-2.4,2.8-3.5l0,0c2.3-2.4,4.6-4.8,7.3-6.7
	c1.6-1.1,2.4-1.4,3.5-0.5C562.2,577.7,562.4,579.6,561.6,580.9z M564,556.4c-0.2,0.5-0.5,1-0.9,1.4c-3,3.4-6.1,6.6-9.8,9.2
	c-0.1,0.1-0.2,0.2-0.4,0.2l-0.3,0.2l-0.2,0.1l-0.1,0.1c-0.3,0.2-0.5,0.4-0.8,0.4c-0.3,0-0.7,0-1-0.3c-0.5-0.4-0.6-1-0.4-1.6
	c0.2-1.7,1.2-3,2.1-4.1l0.3-0.4c2.2-2.8,4.6-5.6,7.5-7.9c0.7-0.6,1.5-0.9,2.4-0.7c0.7,0.2,1.3,0.5,1.6,1c0.2,0.3,0.3,0.7,0.3,1.2
	C564.2,555.7,564.1,556.1,564,556.4z M565.2,525.6L565.2,525.6l0.1-0.3l0.1-0.2c0.1-0.3,0.2-0.5,0.4-0.6c0.6-0.3,1.1-0.7,1.6-1
	c1.4-0.9,2.8-1.8,4.4-2.2c2.5-0.8,5-1.8,7.6-2.4c2.8-0.6,4.9,1.4,4.1,4.2c-0.2,0.7-0.5,1.1-1.3,1.4c-1.3,0.4-2.5,0.9-3.8,1.1
	c-1.1,0.1-2.2,0.3-3.4,0.4c-2.3,0.3-4.5,0.6-6.8,0.6C567.2,526.6,566.2,526.5,565.2,525.6z M582.8,784.8l-0.1,0.9
	c0,1.1-0.4,2.1-0.8,3.1c-0.2,0.4-0.3,0.8-0.5,1.3c-0.8,2.4-2,4.5-2.8,6.9c-0.8,2.4-2.4,2.9-5.1,1.8c-1.3-0.5-2.1-2.6-1.4-4.2
	c0.3-0.9,0.8-1.7,1.3-2.5c1-1.4,1.9-2.9,2.7-4.4c0.9-1.8,2.6-2.8,3.8-4.3c0.5-0.7,1.4-0.6,2.1-0.3
	C582.9,783.3,582.9,784.1,582.8,784.8z M596.2,645.1c-0.7,1.2-1.5,1.4-2.9,0.9c-0.9-0.2-1.6-0.6-2.3-1.2l-1.5-1.2
	c-1.7-1.4-3.4-2.8-5.1-4.3c-0.1-0.1-0.2-0.2-0.3-0.3l-0.1-0.1l-0.1-0.2l-0.1-0.1l0,0l-0.1-0.2c-0.5-0.6-0.9-1.3-0.5-2.1
	c0.4-0.9,1.2-1.2,2.1-1.1c0.2,0,0.3,0,0.5,0c0.4,0,0.8,0,1.2,0.2c0.8,0.4,1.7,0.7,2.6,1c1.4,0.5,2.9,0.9,4.1,2
	c1.2,1.1,3.1,1.1,4.1,2.9C597.7,642.8,596.9,643.9,596.2,645.1z M598,611.2c0,0.1-0.1,0.1-0.2,0.2c0,0-0.1,0.1-0.2,0.1
	c-0.1,0-0.1,0.1-0.2,0.1c-4.5,2.6-9.1,4.9-14,6.6c-0.3,0.1-0.7,0.2-1.1,0.2c-1.3,0-2.1-1.2-1.4-2.4c0.2-0.4,0.5-0.8,0.9-1.2
	c0.2-0.2,0.5-0.5,0.8-0.7c0.2-0.1,0.4-0.3,0.6-0.4l1.5-1l1.8-1.2l2.5-1.6l2.1-1.4c1.1-0.7,2.4-1,3.7-1.2l0,0
	c2.1-0.4,3.5,0.9,3.3,3.4C598.2,610.8,598.1,611,598,611.2z M608.9,503.7c-0.1,0.3-0.2,0.6-0.4,0.7c-0.4,0.3-0.8,0.6-1.2,0.9
	c-0.4,0.3-0.7,0.6-1.1,0.9c-1.4,1.2-2.7,2.5-4.1,3.7c-0.9,0.8-1.8,1.5-2.9,2.1c-0.5,0.3-1,0.7-1.5,1.1l0,0l-0.5,0.4
	c-0.1,0.1-0.2,0.2-0.3,0.2c-0.4,0.3-0.8,0.4-1.1,0.5c-0.8,0.1-1.5-0.2-2.3-1.1c-1.3-1.3-1.6-2.6-0.7-3.8c0.6-0.9,1.3-1.7,2.2-2.2
	l0.1-0.1l2.5-1.6c1.1-0.7,2.1-1.4,3.2-2.1l1.6-1l1.3-0.8c0.1-0.1,0.3-0.2,0.4-0.3l0.6-0.3c2.4-1.1,3-0.8,4.2,1.5
	c0.1,0.1,0.1,0.2,0.1,0.3l0,0l0.1,0.2l0.1,0.1C609,503.4,609,503.6,608.9,503.7z M651.6,436.6c-1,0-1.5-0.4-1.9-0.9l-0.4-0.5
	c-0.5-0.6-1-1.2-1.3-1.8l0,0c-0.7-1.3-1.4-2.6-2.1-4c-0.8-1.7-1.6-3.4-2.3-5.3c-0.1-0.4-0.2-0.7-0.3-1.1c-0.2-1.1,0.2-1.9,1-2.5
	c0.1,0,0.1-0.1,0.2-0.1c0.1,0,0.2-0.1,0.3-0.1c0.2,0,0.3,0,0.5,0c0.4,0.1,0.8,0.3,1.2,0.6c1.4,1,2.7,2.2,3.7,3.6
	c1.3,1.9,2.8,3.6,4.2,5.5c2,2.6,1.1,5.5-2,6.5C652,436.5,651.7,436.6,651.6,436.6z M657.9,564.1c-0.3,2.3-2.2,3-4,1.9
	c-0.6-0.4-0.8-0.9-0.8-1.7c0-0.3,0-0.5,0-0.8l0-0.5l0-0.7l0-0.4l-0.1-0.8c-0.1-1.8-0.2-3.6,0.2-5.4c0-0.3,0-0.5,0-0.8l0-0.9
	c0.1-2,0.2-4,1.1-5.9c0.7-1.6,1.9-2.1,3.8-1.2c0.7,0.3,1,0.8,1,1.6C659.1,553.7,658.7,558.9,657.9,564.1z M669.5,674.2
	c-1.2-2.3-2.1-4.7-3-7.1l0,0l-0.5-1.2l-0.6-1.4c-0.1-0.3-0.2-0.7-0.3-1.1l-0.1-0.3c-0.4-2.7-0.2-3.1,2.9-4l0.6,0.9
	c3.4,4.5,6.8,9.1,8,14.9C673.3,678.4,671.5,678.3,669.5,674.2z M685.3,629.1c-0.4,0.9-0.8,1.8-1.1,2.7l-0.4,1.1
	c-0.3,0.9-0.7,1.8-1.1,2.8l-0.2,0.5l-0.3,0.6c-0.3,0.6-0.6,1.2-0.8,1.7c-0.5,0.9-0.8,1.9-1.2,2.9v0c-0.2,0.4-0.3,0.9-0.5,1.3
	c-0.2,0.5-0.4,0.9-0.8,1.2c-0.5,0.5-1.1,0.7-1.8,0.7c-0.8,0-1.6-0.2-2.3-0.7c-0.4-0.3-0.8-0.7-1.1-1.2c-0.3-0.5-0.3-1.1-0.1-2.2
	c0.9-2.1,2-4.7,3.2-7.2c0.4-0.8,0.8-1.6,1.3-2.3l0,0c0.4-0.7,0.8-1.4,1.2-2.1c0.4-0.8,0.9-1.5,1.5-2.1c1.4-1.5,2.8-1.3,4.2,0.2
	C685.6,627.6,685.7,628.2,685.3,629.1z M687.5,505c-1.2-1.6-2.2-3.4-3-5.2c-0.5-1-1-2-1.8-2.9c-1.2-1.5-1.3-3.5-2.1-5
	c0-0.3,0.1-0.5,0.2-0.8c0.1-0.3,0.3-0.5,0.5-0.7l0.1-0.1c0.1,0,0.1-0.1,0.2-0.1l0.1-0.1l0.1,0c0.1,0,0.2-0.1,0.2-0.1
	c0.2,0,0.4-0.1,0.6-0.1l0.2,0l0.2,0l0.2,0l0.2,0.1c0.9,0.3,1.7,1,2.3,1.7c0.8,0.9,1.5,1.8,2.2,2.8c1.7,2.2,3.3,4.6,4.7,7.1
	c0.9,1.6,0.7,2.3-0.8,3.4c-0.5,0.3-1,0.5-1.5,0.8C689.1,506.4,688.2,506,687.5,505z M702.6,616.5c-0.2,0.1-0.5,0.3-0.7,0.4l-0.5,0.2
	l-0.3,0.1c-0.2-0.1-0.4-0.2-0.6-0.3l0,0c-0.2-0.1-0.4-0.2-0.6-0.3c-0.2-0.1-0.3-0.2-0.4-0.3c-0.5-0.5-1.1-1-1.6-1.4
	c-1.3-1.2-2.7-2.3-3.7-3.8c-0.5-0.7-1.2-1.4-1.8-2.1c-0.5-0.5-1-1-1.5-1.4c-0.2-0.2-0.5-0.5-0.7-0.7c-0.5-0.7-0.8-1.4-1.2-2.1
	c-0.4-0.7-0.6-1.4,0-2.1c0.7-0.7,1.5-1.2,2.6-0.8c0.2,0.1,0.4,0.1,0.5,0.2c0.2,0.1,0.3,0.2,0.5,0.3c3.8,2.7,7.6,5.5,10.7,9
	C705,613.4,704.9,615.1,702.6,616.5z M713.3,585.6c-0.4,0.9-0.7,1.9-1,2.8l0,0.1l0,0.1c-0.8,2.3-1.5,4.6-2.8,6.8
	c-0.4,0.7-0.8,1.5-1.2,2.3c-0.3,0.7-0.7,1.3-1.1,2c-1.1,1.9-1.7,2.1-3.1,1.6c-0.3-0.1-0.6-0.3-0.8-0.5c-0.3-0.3-0.6-0.6-0.7-1
	c-0.2-0.5-0.2-1.1-0.2-1.9c0.1-0.3,0.1-0.6,0.2-0.9c0.1-0.3,0.1-0.6,0.2-0.9c0.1-0.3,0.2-0.6,0.3-0.8c0.9-1.9,1.7-3.8,2.4-5.8
	c0.2-0.6,0.4-1.1,0.7-1.7l0.3-0.9c0.2-0.5,0.3-1,0.5-1.4c0.3-1,0.8-1.9,1.6-2.7c1-0.9,2.3-1.1,3.4-0.4
	C713.2,583.1,713.8,584.4,713.3,585.6z M716.6,544.1c-1-1.4-1.8-2.9-2.7-4.4c-0.5-0.8-0.7-1.6,0.1-2.3c0.7-0.8,1.6-0.5,2.4-0.1
	l0.3,0.1c0.8,0.4,1.6,0.9,2.3,1.4c0.3,0.2,0.5,0.4,0.7,0.7c2.1,2.2,4.7,3.9,6.4,6.5c0.5,0.8,1.2,1.5,1.7,2.3
	c-0.2,0.5-0.4,0.9-0.7,1.2c-0.2,0.3-0.5,0.5-0.7,0.7c-0.2,0.1-0.3,0.3-0.4,0.4c-1.5,1.5-2.7,1.4-4.1,0c-1.9-1.8-3.4-3.9-4.9-6
	L716.6,544.1z M728,748.7c-0.1,0.7-0.2,1.4-0.3,2c-0.1,0.7-0.1,1.5-0.3,2.1c-0.1,2-0.1,3.9-0.9,5.8c-0.5,1.2-1.1,1.6-2.3,1.7
	c-2.8,0.2-4.3-1.4-4.1-4.1c0.1-1.3,0.1-2.7,0.4-4l0-0.1c0.5-2.8,1.1-5.7,1.8-8.5c0.5-2,1.9-2.8,3.6-2.7c1.8,0.1,2.5,0.6,2.4,2.4
	C728.4,745.2,728.3,747,728,748.7z M730.7,709.6l-0.2,1.7c-0.6,4.6-1.6,9-3.2,13.3c-0.4,1-0.9,1.5-1.7,1.7c-0.4,0.1-0.9,0-1.5-0.2
	c-0.9-0.3-1.5-0.9-1.3-1.9c0.3-1.7,0.1-3.4,0.8-5.1c0.6-1.5,1.1-3.1,1.1-4.7c0-2.3,1.7-4,2.4-6c0.4-1.1,1.7-1.3,2.7-0.9
	c0.6,0.2,0.8,0.6,1,1C730.8,708.8,730.8,709.2,730.7,709.6z M736.8,88l0,0.3v0.2c-0.1,2.2-0.3,2.4-2.4,2.7c-1.7,0.2-2.2-0.1-2.8-1.8
	c-0.5-1.3-0.6-2.6-0.7-3.9l-0.5-4.7l-0.3-2.4l-0.3-3.1l0-0.2l0.1-0.3l0,0v0l0,0l0,0l0,0c0.2-0.8,0.3-1.6,1.2-2.2
	c1.7-1.1,3.6-0.4,4,1.5c0.8,4.4,1.3,8.8,1.7,13.3C736.8,87.5,736.8,87.7,736.8,88z M741,581.6c-0.1,0.1-0.2,0.1-0.4,0.2
	c-0.1,0-0.2,0.1-0.3,0.1c-0.4,0.1-0.8,0.1-1.3,0c-1.1-0.2-1.9-1.1-1.9-2.5c0-0.4,0-0.9,0.1-1.3c0-0.2,0.1-0.5,0.1-0.7
	c-0.1,0-0.1,0-0.2,0c0.4-2.3,0.8-4.7,1.3-7l0.1-0.5c0.2-0.7,0.3-1.3,0.3-2c0-1.5,0.8-2.6,1.6-3.8l0.3-0.4c0.6-0.9,2-1.2,3.1-0.7
	c0.5,0.2,0.8,0.5,0.9,0.9l0,0.1l0,0.1l0,0.2c0,0.1,0,0.2,0,0.3c0,0.3,0,0.5,0,0.8c-0.1,3.3-0.8,6.4-1.5,9.5l0,0
	c-0.2,1-0.4,2.1-0.7,3.1c-0.2,0.8-0.4,1.7-0.7,2.5C741.6,581,741.3,581.4,741,581.6z M745.2,635.4l-0.1-0.2l-0.5-1.4
	c-1.2-3.4-2.3-6.8-2.5-10.5l0-0.4c0-0.7-0.1-1.3,0.2-1.9c0.3-0.6,0.6-1.2,1.4-1.2c0.7,0,1.3,0.2,1.7,0.8c0.8,1.1,1.3,2.4,1.6,3.6
	c0.2,0.7,0.5,1.4,0.7,2.1c0.3,0.7,0.6,1.4,0.8,2.1l0.1,0.2l0,0c0.7,1.6,1.3,3.1,1.8,4.8l0,0.2c0.1,0.2,0.1,0.5,0.2,0.7
	c0.2,0.7,0.2,1.4-0.1,2.2c-0.9,0.3-1.8,0.1-2.6,0.9c-0.7,0.6-1.5,0.3-2-0.4c-0.2-0.3-0.4-0.6-0.6-0.9
	C745.4,635.8,745.3,635.6,745.2,635.4z M752,692.7c-0.5-0.2-1-0.6-1.5-1.2c-1.7-2.1-2.8-4.4-3.4-7.1l-0.1-0.3c0-0.2-0.1-0.4-0.2-0.6
	l-0.2-0.6l-0.2-0.6l0-0.1c-0.3-0.8-0.6-1.6-0.7-2.5c-0.4-2.2-0.2-2.8,2.1-3.9c3.2,3.3,6.6,12,6.6,16.8
	C753.4,693,752.7,693.1,752,692.7z M761.3,143.4c-0.4-0.9-0.6-1.8-0.6-3c0-1,0.7-1.8,1.8-2.1c1.1-0.3,2.2,0,2.8,0.9
	c2.2,3.5,4.3,7,6.4,10.5c0.3,0.5,0.5,1.1,0.7,1.7l0.1,0.4c0.5,1.6,0.1,3-1.2,3.7c-1.1,0.6-3.1,0.3-3.9-0.9c-0.2-0.3-0.4-0.6-0.6-0.8
	l0,0c-0.9-1.2-1.8-2.4-2.2-3.7C763.6,147.7,762.3,145.6,761.3,143.4z M774.3,651.6l-0.1,0.3c-0.3,1.1-0.6,2.1-0.9,3.2
	c-0.9,3.3-1.8,6.5-4,9.4c-0.1,0-0.2,0.1-0.3,0.1c-0.1,0-0.2,0-0.2,0c-0.1,0-0.1,0-0.2,0c-0.4-0.1-0.7-0.3-1.1-0.5
	c-0.2-0.2-0.5-0.3-0.8-0.4c-0.8-0.3-1-1-0.9-1.9c0-1.4,0.5-2.7,0.9-4l0.2-0.5c0.3-0.8,0.6-1.6,0.8-2.5l0.2-0.7
	c0.2-0.9,0.5-1.7,0.8-2.5c0.4-1,0.8-2,1.3-2.9l0.2-0.3c1.3-2.2,1.3-2.2,4.2-1.7C775.3,648.4,774.7,650.1,774.3,651.6z M778.3,719
	l-0.3-0.9l-0.1-0.4c-0.3-1-0.5-2-0.8-3.1l-0.3-1.1l-0.3-1.2c-0.1-0.4-0.2-0.8-0.4-1.2c-0.5-1.8-0.9-3.5-0.9-5.4
	c0-1.7,0.7-2.7,2.3-3.1c1.2-0.3,1.9-0.2,2.3,1l0.5,1.4l0.2,0.7l0,0c1.5,4.3,3.1,8.7,3.1,13.4c0,1.7-0.4,2.2-2.1,2.5
	c-1.9,0.3-2.5-0.1-3.2-2C778.5,719.5,778.4,719.3,778.3,719z M787,770.1c-0.4,0.2-0.9,0.4-1.3,0.5c-0.6,0.1-1.1,0.2-1.5,0
	c-0.6-0.2-1-0.7-1.4-1.5c-0.7-1.6-1.3-3.2-1.7-4.8c-0.2-0.9-0.5-1.8-0.7-2.6c-0.3-1.3-0.6-2.5-0.8-3.8l0-0.1l0,0v0l0-0.2l-0.2-0.7
	c0-0.2-0.1-0.4-0.1-0.6c0-0.2,0-0.3,0-0.5l0-0.2c0-0.1,0-0.3,0-0.4c0-0.4,0.1-0.8,0.2-1.2c0.2-0.3,0.4-0.5,0.8-0.6
	c0.2-0.1,0.5-0.1,0.7-0.1c0.2,0,0.3,0,0.5,0.1c0.2,0.1,0.3,0.2,0.5,0.3c0.1,0.1,0.3,0.2,0.4,0.4c3,3.8,5.5,7.8,6.6,12.6
	C789.5,768.8,789.3,769.2,787,770.1z M783.2,377.7c1.5-1.3,2.8-0.9,3.9-0.2c2.6,1.7,5,3.8,6.9,6.4c0.5,0.8,0.3,1.4-0.2,2.1
	c-0.2,0.3-0.5,0.5-0.7,0.6c-1.1,0.7-2.4,0.6-3.5-0.3C786.9,383.9,784.9,381,783.2,377.7z M794.8,558c-0.6,1.6-0.8,1.9-2,1.7
	c-1.7-0.2-2.5-0.8-2.5-2.2c0-1.7,0-3.5,0.4-5.1c0.3-1.5,0.6-3,0.8-4.5c0.1-0.6,0.2-1.2,0.2-1.8c0.3-1.8,0.9-3.5,1.7-5.3
	c1.5-0.1,2.7-0.2,3.8,0.9C796.9,547.3,796.6,552.8,794.8,558z M798.4,581.5l0.1-0.3c0-0.2,0-0.3,0.1-0.5c0.1-0.6,0.4-1,1.1-1.2
	c1-0.2,1.5,0.5,2.1,1.2c0.6,0.7,1,1.4,1.3,2.2c0.4,1.1,0.6,2.2,0.9,3.3l0.3,1.1l0,0c0.2,0.6,0.3,1.3,0.5,1.9
	c0.1,0.4,0.2,0.8,0.4,1.1c0.3,0.8,0.6,1.7,0.7,2.5c0.2,1,0.2,2.1-0.2,3.3c-1.2,0.2-2.3,0.3-3.3,0.5c-1.1,0.2-1.9-0.3-2.2-1.4
	C798.9,590.8,797.8,586.3,798.4,581.5z M808.5,619.8c-0.9,3.5-2.1,6.9-4,10c-0.3,0.5-0.6,1.1-0.8,1.7c-0.2,0.6-0.5,1.1-0.8,1.7
	c-0.4,0.6-0.8,1.1-1.2,1.5c-0.4,0.3-0.7,0.5-1.1,0.5c-0.2,0-0.4,0-0.5,0c-1.1-0.3-1.7-1.5-1.5-3.6c0-1,0.4-1.9,0.8-3
	c0.2-0.6,0.4-1.1,0.6-1.7c0.8-2.9,1.7-5.7,3.3-8.2c0.7-1,1.5-1.7,2.7-1.8c0.6-0.1,1.1,0.1,1.5,0.3
	C808.4,617.6,808.8,618.6,808.5,619.8z M808.5,396.6c0,0.2-0.1,0.3-0.2,0.5c-0.1,0.1-0.2,0.3-0.3,0.4l-0.1,0.1l-0.1,0.1
	c-0.1,0-0.2,0.1-0.2,0.1c-0.2,0-0.3,0.1-0.5,0.1c-0.7,0-1-0.4-1.3-0.9c-0.5-1.2-1-2.3-1.3-3.5c-0.3-1-0.5-2-0.6-3.1
	c-0.1-1-0.1-2-0.2-3c-0.1-1-0.1-2-0.2-3c-0.1-0.8,0-1.6,0.5-2.2c0.6-0.8,1.5-1.2,2.5-1.1c1,0.1,1.4,0.9,1.6,1.8
	c0.2,1.2,0.6,2.4,0.7,3.7c0.1,1.1,0.2,2.1,0.2,3.2l0,0.5l0,1l0,1.6l0,1.2C808.9,394.7,808.7,395.7,808.5,396.6z M813.9,687.1
	l-0.1,0.1c-0.1,0.1-0.2,0.2-0.4,0.2c-3.2,0.5-4.2-0.1-4-3.4c0.2-4.6,0.4-9.2,1.6-13.6c0.7-2.8,1.9-3,4.9-1.2
	C816.3,674.7,815.4,682.3,813.9,687.1z M823.2,353.6l-0.5,2.3c-0.8,4.1-1.7,8.2-3,12.1c-0.1,0.1-0.1,0.3-0.2,0.4
	c-0.2,0.3-0.4,0.6-0.6,0.9c-0.1,0-0.1,0.1-0.2,0.1c-0.1,0-0.1,0.1-0.2,0.1c-0.1,0-0.2,0.1-0.3,0.1c-0.2,0-0.3,0-0.5,0l-0.2,0l-0.1,0
	l-0.3-0.1l-0.2-0.1c-1.7-0.4-1.9-0.8-1.7-2.7c0.3-3.9,1.3-7.7,2.7-11.4c0.5-1.3,0.5-2.8,1.9-4.2c0.2,0,0.4,0,0.6,0
	c0.3,0,0.6,0,0.9,0.1l0.2,0l0.2,0C822.8,351.7,823.4,352.4,823.2,353.6z M831.3,85L831.3,85l-0.1-0.1l-0.1-0.1
	c0-0.1-0.1-0.2-0.1-0.3l0-0.2c-0.1-0.4,0-0.8,0.1-1.2c0.1-0.3,0.4-0.5,0.6-0.6c0.3-0.1,0.6-0.1,1-0.2l0.4,0l1.2,0.5
	c1.4,0.5,2.8,1,4.2,1.7c1.2,0.5,2.4,1.2,3.5,1.9c1.9,1.2,2.1,3.7,0.6,5.4c-0.4,0.4-0.8,0.6-1.3,0.5l-0.3-0.1l-0.4-0.1l-0.2,0
	l-0.2-0.1c-0.1,0-0.2-0.1-0.3-0.1l-0.1,0l-0.1,0l-0.1,0l-0.8-0.5l-0.9-0.6c-2-1.4-4.1-2.7-5.8-4.5C831.9,85.8,831.5,85.4,831.3,85z
	 M845.6,694.6c-0.4,1.9-1.4,3.5-2.4,5.1l-0.5,0.8l-0.5,0.9l-0.7,1.1l-0.5,0.9l-1,1.6l-0.4,0.7l-0.4,0.7c-1.7,2.8-2,2.9-5.1,1.3
	c-0.3-0.8-0.3-1.5,0-2.1c2.2-4.5,4.1-9.2,7.4-13.1c1.2-1.4,1.7-1.6,2.8-1.1C845.7,691.9,846,692.9,845.6,694.6z M857.3,623.8
	l-0.2,0.4c-1.7,3.6-3.4,7.2-5.8,10.4c-0.2,0.3-0.4,0.5-0.6,0.8c-0.2,0.4-0.5,0.7-0.8,1.1c-0.1,0.1-0.2,0.3-0.4,0.4
	c-0.1,0.1-0.3,0.2-0.4,0.3c-0.5,0.2-1,0.3-1.5,0.1c-0.9-0.3-1.7-1.5-1.7-2.4c0-0.2,0-0.5,0.1-0.7l0-0.1c0-0.1,0.1-0.2,0.1-0.3
	l0.8-1.7l0,0c1.6-3.5,3.2-7,5.5-10.1c0.9-1.2,1.9-2,3.7-2.1c1.1,1,1.6,1.6,1.7,2.1C858,622.3,857.8,622.8,857.3,623.8z M857.8,608.9
	c-1.1,0.4-2.3-0.5-2.7-1.6c-1-3.3-0.9-6.8-0.5-10.2c0.1-0.8,0.6-1.2,1.3-1.3c0.5-0.1,1.1,0.1,1.6,0.5c0.6,0.5,0.9,1.3,1.1,2
	c0.4,1.2,0.7,2.3,1.1,3.5c0.4,1.2,0.7,2.4,1,3.6c0.1,0.5,0.2,0.9,0.2,1.4c0,0.4,0,0.7-0.1,1.1c0,0.2-0.1,0.4-0.2,0.6
	c-0.5,0.3-1.1,0.3-1.6,0.4C858.7,608.7,858.2,608.7,857.8,608.9z M865.5,759.7c-2.2,1-4.4-0.1-4.7-2.6c-0.2-2.2-0.6-4.4-0.8-6.5
	c-0.1-0.9,0-1.9,0.2-2.8c0.3-1.5,1.8-1.8,2.9-0.8c0.3,0.3,0.6,0.8,0.8,1.2c1.8,2.5,3.6,7.5,3.5,10.4
	C866.8,758.9,866.2,759.4,865.5,759.7z M863.3,120.6c-0.1-0.2-0.1-0.3-0.2-0.4c-0.2-0.5-0.4-0.9-0.4-1.3c0.2-1.9,2.3-2.8,3.7-1.8
	c0.1,0.1,0.3,0.3,0.4,0.4c0.1,0.1,0.1,0.2,0.2,0.2c3,3.5,5.6,7.3,8.1,11.1c0.3,0.5,0.5,1,0.5,1.4c0,0.3-0.1,0.6-0.3,0.8
	c-0.2,0.3-0.5,0.6-1,0.9c-1.4,1-2.8,1-3.5-0.1c-0.8-1.3-1.8-2.5-2.7-3.8C866.3,125.7,864.6,123.4,863.3,120.6z M869.3,205.9
	c0-0.3,0-0.6,0-0.9l0.1,0l0-0.3l0-0.3c0-0.4,0-0.8,0.1-1.1c0.4-1.9,2.2-2.8,4-2c0.7,0.3,1,0.9,1.1,1.6c0.1,0.3,0.1,0.7,0.2,1
	l0.3,1.3l0,0l0.1,0.7l0.2,0.8l0.2,0.9c0.2,1,0.3,1.9,0.4,2.9c0.1,2,0.3,3.9,0.6,5.9l0,0.4c0.3,2.7-1.9,4.2-4.4,3.2
	c-0.3-0.1-0.5-0.3-0.7-0.4c-0.3-0.3-0.4-0.6-0.6-0.9c-0.1-0.3-0.2-0.7-0.2-1c-0.1-1.7-0.4-3.3-0.7-4.9
	C869.7,210.4,869.2,208.1,869.3,205.9z M881.8,489.5c-0.2,0.8-0.7,1.1-1.6,1.3c-1.8,0.4-3,0-3.7-1.4c-0.3-0.6-0.3-1.3-0.4-1.9
	c-0.9-3.5-1.2-7.1-1.5-10.7l-0.1-1c-0.1-0.4,0-0.8,0-1c0.2-1.8,0.8-2.5,2.2-2.7c1.6-0.2,2.3,0.4,2.9,2.1c0.3,0.9,0.6,1.9,0.8,2.9
	c0.6,2.3,0.8,4.6,1.1,7c0.1,0.6,0.1,1.2,0.2,1.8c0.1,0.8,0.1,1.6,0.2,2.5C881.9,488.8,881.9,489.1,881.8,489.5z M874.5,336.6
	c0-0.6,0.1-1.3,0.1-1.9l0.1-0.9c0-0.4,0.1-0.8,0.1-1.2l0.1,0c0.1-1.8,0.2-3.6,0.4-5.4c0.2-1.6,1.2-2.4,2.7-2.3c1.4,0,2,0.7,2.3,2.4
	c0.6,3.2,0.2,6.5,0,9.7c-0.1,1.5-0.2,3.1-0.4,4.6c-0.2,2.1-1.2,2.8-3.3,2.5c-0.8-0.1-1.3-0.3-1.6-0.8c-0.2-0.3-0.4-0.8-0.4-1.5
	C874.5,340.1,874.5,338.3,874.5,336.6z M875.6,247.8l-0.1-0.1c-0.2-0.4-0.4-0.8-0.7-1.1l-0.7-1.2c-1.2-2.1-2.5-4.2-3.3-6.5
	c-0.5-1.4-0.7-2.5-0.2-3.8l0.6-0.2c1.2-0.4,1.8-0.6,2.4-0.2c0.4,0.3,0.9,0.8,1.5,1.8c2.9,3.8,5.3,7.9,7.4,12.4
	C878.3,252.7,877.5,251.2,875.6,247.8z M882.4,100.6c-0.6,1.7-1,3.5-2.3,4.9c-0.5,0.6-0.8,1.2-1,2c-0.2,0.6-0.5,1.3-0.7,1.9
	c-0.8,1.9-1.9,3.8-3.5,5.5c-1.2-0.4-2.2-0.8-3.2-1.2c-0.3-2,0.5-3.5,1.3-5l0.3-0.5c1.6-3.1,3.4-6.2,5.1-9.2c0.7-1.3,1.7-1.6,2.9-1.1
	c0.5,0.2,0.9,0.5,1.2,0.9C882.6,99.2,882.6,99.8,882.4,100.6z M885,381.7l0.1-0.2l0.1-0.3v0l0,0l0,0v0c0.1-0.4,0.3-0.9,0.5-1.2
	c0.8-1.2,2.9-1.1,3.3,0.2c1.4,4.7,3,9.4,3.2,14.4v0.2l0,0.3c0,0.3,0,0.7,0,0.9c-0.1,0.4-0.3,0.7-0.8,0.7c-0.4,0-0.8,0.2-1.2,0.3
	c-1,0.3-2.1,0.7-3-0.5c-0.5-0.6-0.8-1.3-1-2c-0.7-2.6-0.8-5.2-0.9-7.9v0v0v0c0-0.9-0.1-1.8-0.1-2.6c0-0.5-0.1-0.9-0.1-1.4L885,381.7
	z M886.5,691.9c-0.2-0.1-0.5-0.3-0.7-0.4c-0.2-0.2-0.4-0.4-0.5-0.6c-0.2-0.4-0.3-0.9-0.1-1.5c0-0.2,0-0.4,0.1-0.6l0-0.3l0-0.3
	c0.9-4.8,2.2-9.4,4.3-13.8c0.4-0.8,0.8-1.2,1.3-1.3c0.2-0.1,0.5-0.1,0.8-0.1c0.1,0,0.3,0,0.4,0.1c0.1,0,0.3,0.1,0.5,0.1
	c1.2,0.3,1.7,0.8,1.8,2.2c0,0.2,0,0.4,0,0.6c0,0.5-0.1,1.1-0.2,1.7c-0.9,4.2-2.2,8.3-3.5,12.4C890,692.6,888.8,693,886.5,691.9z
	 M896.7,772.3l-0.2,0.6c-0.3,0.7-0.6,1.4-0.9,2.1l-0.9,2c-0.8,1.7-1.5,3.4-2.2,5.1c-0.2,0-0.4-0.1-0.6-0.1l-0.4,0
	c-0.5-0.1-0.8-0.1-1.1-0.2c-1.3-0.5-1.7-1.1-1.3-2.4l0.4-1.4l0.3-1.1v0c1-3.7,2-7.4,3.9-10.7l0-0.1l0-0.1c0,0,0-0.1,0.1-0.1
	c1.6-2.8,2.2-3,5.4-1.3C898.6,767.2,897.7,769.8,896.7,772.3z M902.9,736c0.2,0.8,0.5,1.5,0.8,2.3l0,0.1l0.3,1l0.2,0.7l0.2,0.7
	c0.4,1.1,0.7,2.2,0.9,3.3c0.8,3.3-0.3,4.6-3.7,4.3l-0.3,0c-0.2,0-0.5-0.1-0.7-0.1c-0.2-0.1-0.5-0.2-0.6-0.3
	c-0.5-0.3-0.7-0.9-0.9-1.8c-0.3-1.9-0.7-3.9-1-5.8l-0.6-3.7c0-0.2,0-0.5,0-0.7l0-0.2c0-0.2,0-0.3,0.1-0.5c0.4-2,2-2.6,3.6-1.4
	C902.1,734.3,902.6,735.1,902.9,736z M905.2,560.1l0.1,1.5c0.1,1.5,0.2,3,0.3,4.5c0,1.1,0,2.3,0.1,3.4c0,1.1,0,2.1,0,3.2
	c0,0.3,0,0.6,0,0.9c0,0.3-0.1,0.5-0.1,0.8c-0.4,1.8-1.3,2.4-3.1,2.1c-0.2,0-0.3-0.1-0.5-0.1c-0.2-0.1-0.4-0.1-0.6-0.2l-0.5-0.2
	c-0.3-0.1-0.5-0.2-0.8-0.3c-0.8-5.4-0.1-10.4,0.8-15.4l0-0.2l0-0.1l0-0.1l0.1-0.1l0.1-0.2c0.3-0.7,0.7-1.1,1.1-1.4
	c0.2-0.1,0.5-0.2,0.8-0.2c0.2,0,0.3,0,0.5,0c0.3,0,0.6,0.1,0.8,0.3C904.8,558.7,905.1,559.3,905.2,560.1z M903.1,312.7
	c0.4,1.4,0.7,2.8,1,4.2l0.2,1c0.5,3,0.9,6.1,0.8,9.1c0,1.4-0.2,1.6-1.6,1.9c-0.5,0.1-0.9,0.1-1.2,0.2c-0.3,0-0.6,0-0.8-0.1l-0.1-0.1
	l-0.1-0.1c-0.2-0.1-0.4-0.4-0.5-0.7c-0.1-0.2-0.2-0.4-0.3-0.6l-0.2-0.6c-0.9-2.1-1-4.2-1.2-6.4c-0.1-0.9-0.1-1.8-0.2-2.6
	c-0.1-0.5-0.2-0.9-0.2-1.4c-0.2-1.1-0.4-2.1-0.2-3.1l0-0.5c0-0.3,0.1-0.5,0.1-0.7c0.1-0.7,0.3-1.1,0.5-1.5c0.3-0.4,0.7-0.7,1.3-0.7
	C901.5,310,902.6,310.9,903.1,312.7z"/>
</svg>
