<svg width="68" height="68" viewBox="0 0 68 68" fill="none" xmlns="http://www.w3.org/2000/svg">
<mask id="path-1-inside-1" fill="#F2E14C">
<path fill-rule="evenodd" clip-rule="evenodd" d="M3.62166 0H15.6622C16.401 0 17 0.598969 17 1.33783V13.3783C17 14.1172 16.401 14.7162 15.6622 14.7162C14.9233 14.7162 14.3243 14.1172 14.3243 13.3783V4.56765L1.89198 17L0 15.108L12.4323 2.67567H3.62166C2.88279 2.67567 2.28383 2.0767 2.28383 1.33783C2.28383 0.598969 2.88279 0 3.62166 0Z"/>
</mask>
<path fill-rule="evenodd" clip-rule="evenodd" d="M3.62166 0H15.6622C16.401 0 17 0.598969 17 1.33783V13.3783C17 14.1172 16.401 14.7162 15.6622 14.7162C14.9233 14.7162 14.3243 14.1172 14.3243 13.3783V4.56765L1.89198 17L0 15.108L12.4323 2.67567H3.62166C2.88279 2.67567 2.28383 2.0767 2.28383 1.33783C2.28383 0.598969 2.88279 0 3.62166 0Z" transform="scale(4)" fill="#F2E14C"/>
<path d="M14.3243 4.56765H17V-1.89198L12.4323 2.67567L14.3243 4.56765ZM1.89198 17L-1.24195e-07 18.892L1.89198 20.784L3.78397 18.892L1.89198 17ZM0 15.108L-1.89198 13.216L-3.78397 15.108L-1.89198 17L0 15.108ZM12.4323 2.67567L14.3243 4.56765L18.892 0H12.4323V2.67567ZM15.6622 -2.67567H3.62166V2.67567H15.6622V-2.67567ZM19.6757 1.33783C19.6757 -0.878764 17.8788 -2.67567 15.6622 -2.67567V2.67567C14.9233 2.67567 14.3243 2.0767 14.3243 1.33783H19.6757ZM19.6757 13.3783V1.33783H14.3243V13.3783H19.6757ZM15.6622 17.3918C17.8788 17.3918 19.6757 15.5949 19.6757 13.3783H14.3243C14.3243 12.6395 14.9233 12.0405 15.6622 12.0405V17.3918ZM11.6487 13.3783C11.6487 15.5949 13.4456 17.3918 15.6622 17.3918V12.0405C16.401 12.0405 17 12.6395 17 13.3783H11.6487ZM11.6487 4.56765V13.3783H17V4.56765H11.6487ZM3.78397 18.892L16.2163 6.45963L12.4323 2.67567L-1.24195e-07 15.108L3.78397 18.892ZM-1.89198 17L-1.24195e-07 18.892L3.78397 15.108L1.89198 13.216L-1.89198 17ZM10.5404 0.783685L-1.89198 13.216L1.89198 17L14.3243 4.56765L10.5404 0.783685ZM3.62166 5.35134H12.4323V0H3.62166V5.35134ZM-0.391843 1.33783C-0.391843 3.55443 1.40506 5.35134 3.62166 5.35134V0C4.36052 0 4.95949 0.598968 4.95949 1.33783H-0.391843ZM3.62166 -2.67567C1.40506 -2.67567 -0.391843 -0.878763 -0.391843 1.33783H4.95949C4.95949 2.0767 4.36052 2.67567 3.62166 2.67567V-2.67567Z" transform="scale(4)" fill="#F2E14C " mask="url(#path-1-inside-1)"/>
</svg>
