<svg width="209" height="1346" fill="none" xmlns="http://www.w3.org/2000/svg"><g clip-path="url(#clip0)" fill="#333"><path d="M178.7817 970.1232c.0281 1.681-.0843 3.1377-.7023 4.5385-.2809.6724-.7023 1.3167-1.1798 1.849-.8147.8965-1.7136 1.681-2.5845 2.5214-.8427.7845-1.2079 1.793-1.236 2.8576-.0562 1.821-.5338 2.2692-2.3597 2.6334-.2248.0561-.5057.0561-.7023-.028-1.1799-.5603-2.2193-.028-3.1182.5883-1.6574 1.1207-3.4553 1.5689-5.4218 1.5409-.8708-.028-1.7416-.1121-2.6125-.2802-1.0394-.1681-1.854-1.1206-1.7979-2.1291 0-.2522.281-.6444.5338-.7284.4776-.1401.9832-.1401 1.4889-.1681 1.1798-.028 2.3597-.028 3.5395-.0561 1.0113-.028 1.9103-.5042 2.6407-1.1486.955-.8404 2.0507-1.3167 3.2586-1.5128.5337-.1121.7866-.3082.9832-.8405.3933-1.1486 1.0113-2.2132 1.9103-3.0537.5337-.5042 1.1236-.9525 1.7136-1.4007 1.1517-.8405 2.0226-1.877 2.5282-3.1938.1967-.5323.3933-1.0926.7304-1.5408.2809-.3922.7023-.8125 1.1518-.8965.3371-.112.8146.2521 1.236.4482zM206.3138 1147.1253c.6742-.6724 1.1518-.7284 1.7979-.3082 1.4327.9245 1.9664 2.2692 1.7417 3.9222-.3933 2.9136-1.7979 5.3509-3.989 7.284-.8147.7284-1.1799 1.5969-1.3203 2.6054-.0843.7004-.0843 1.4008-.1967 2.1012-.0562.3362-.2528.7284-.5056.9525-1.0113.8124-1.3204 1.9891-1.7417 3.1097-.2529.7004-.3933 1.4288-.618 2.1292-.7866 2.4373-3.2868 4.0062-5.8432 3.67-.309-.028-.5618-.0841-.7023-.4483-.1123-.2801-.4775-.4482-.6742-.7003-.1404-.1962-.2809-.4763-.2528-.7004.0562-.3362.3652-.2802.6461-.2522 2.0226.1961 3.5677-.8124 3.8767-2.8015.281-1.9611 1.0675-3.7261 1.9102-5.463.4214-.8685.309-1.9611 1.0675-2.6895.1405-1.793 1.2642-2.9416 2.5283-4.0622.6742-.6164 1.1518-1.4568 1.7136-2.2133.5899-.7844.9832-1.6529 1.236-2.6334.3371-1.2607.4495-2.4934-.6742-3.502zM59.9544 947.2334c.3371-.6163.5899-1.1486.8989-1.6529.7585-1.2887 1.9664-2.1852 2.9778-3.2498.618-.6443 1.0674-1.3727 1.2079-2.2692.1966-1.1487.8147-1.681 1.9102-1.5969.4776.028 1.0956.6444 1.1799 1.2327.1966 1.2607-.0843 2.4933-.618 3.614-.2528.5042-.618.9805-.9832 1.3727-.6742.7284-1.4608 1.3728-2.135 2.1012-.927.9525-1.1518 2.1291-1.0113 3.4459a3.778 3.778 0 0 1-.0843 1.3727c-.1124.5323-.4495.9245-1.0394.9525-.5899.0281-1.236.0841-1.6293-.5603-.1967-.3081-.3652-.6723-.618-.8965-.59-.4482-1.2642-.6163-1.9946-.2801-.5337.2241-1.0674.4202-1.6012.6443-1.4888.5884-3.09.6444-4.6632.8125-1.3484.1401-2.5002-.4202-3.4553-1.3728-.4214-.4202-.3933-.6723.0843-1.0926.4494-.3922.8989-.6163 1.545-.5603 1.8822.1681 3.68-.2801 5.478-.7004.0842-.028.2246-.056.2808-.112 1.1518-1.0646 2.6126-1.1206 4.0452-1.1767.0843.028.1686 0 .2248-.028zM112.457 932.526l.7586-.252c.7585-.2802 1.1517-.1962 1.517.4482.5899 1.0085 1.5169 1.5968 2.5563 2.017 1.1798.4763 2.3878.8686 3.5676 1.3168.3652.14.7585.3642.9833.6444.337.3922.6742.3922 1.0674.252.1967-.056.3933-.14.5619-.252 1.7698-1.0646 3.7081-1.0366 5.6464-.9806.8428.028 1.6574-.1961 2.444-.5883.4776-.2241.9832-.4483 1.4889-.5603.5899-.1401 1.0675.14 1.3765.6443.2528.3923.1404 1.3728-.2809 1.709-.899.7284-1.7417 1.5688-2.9497 1.877-1.3765.3362-2.753.5883-4.1576.6444-.7023.028-1.3765.196-2.0788.3361-.1966.056-.3932.2522-.5618.3923-.2528.224-.5337.4482-.7023.7003-1.0675 1.5129-3.1182.6444-3.68-.5042-.309-.6444-.7866-1.0366-1.4327-1.3168-1.6012-.7003-3.2025-1.4287-4.4947-2.6614-.4776-.4483-.899-.9806-1.3203-1.5129-.4776-.6723-.6742-1.4287-.309-2.3533zM133.5836 960.738c.4495.168.9832.2521 1.4046.5323.5618.3922.5057 1.0646-.0562 1.4288-.618.3922-1.2922.7564-1.9664 1.0085-1.5731.5884-3.1744 1.0646-4.7475 1.681-1.2361.4762-1.8822 1.5688-2.3036 2.7735-.3651 1.0366-.9832 1.737-2.0787 1.961-.281.056-.6462.0841-.8709-.028-.899-.5322-1.6293-.028-2.2192.4203-1.3484 1.0365-2.7811 1.765-4.4385 2.1011-.6742.1401-1.4046.1121-2.107.0561-1.0674-.0841-1.545-.8685-1.882-1.737-.1686-.4202 0-.7284.4494-.8404.2247-.056.4775-.1121.7023-.1121 1.1237.056 2.1069-.3362 3.09-.7844.7305-.3362 1.3204-.7565 1.8822-1.3168 1.0113-1.0646 2.0788-2.045 3.7082-1.933.3651.028.5056-.1961.7303-.4203.899-.8965 1.6574-1.933 2.753-2.6614.8147-.5603 1.7698-.6444 2.6407-.9245.9832-.3082 2.0226-.4763 3.0339-.7004.7304-.1961 1.4608-.3362 2.2754-.5043zM200.2158 1185.4193c1.2641-1.5689 3.0901-2.1852 5.197-2.3533 1.5731-.14 3.1463-.4482 4.6913-.7844.8147-.1681 1.517.2241 2.2754.2801.3933.028.6181.7564.3371 1.0926-.309.3922-.6742.7564-1.0955 1.0086-1.4046.8124-3.0339.8965-4.5509 1.2607-.8428.2241-1.7136.2801-2.5845.4482-1.2079.2241-2.0226.8405-2.2473 2.1292-.1405.7004-.3652 1.3447-1.0956 1.709-.8427.4202-1.4889.3641-1.826-.5043-.5056-1.3168-1.4888-1.597-2.781-1.709-1.6013-.14-3.2025-.4482-4.7756-.7564-1.0113-.1961-2.0507-.4202-3.034-.7284-.7304-.2241-1.2922-.7004-1.6012-1.4848.1124-.1961.2247-.3922.309-.6164.5057-.9245.618-.8965 1.6574-.6163 1.4327.3922 2.8935.7284 4.3543.8965 1.4607.168 2.9496.112 4.4385.2241.7584.084 1.4888.3082 2.3316.5043zM159.2864 959.8965c.0562-1.5969.3371-2.6334.927-3.558.4495-.7003 1.0675-1.0926 1.9384-1.1206.59-.028.9832.2522 1.2922.6724.281.3922 0 .7564-.1966 1.1206-.1686.3362-.3652.6444-.5057.9806-.7304 2.045.2528 2.9696 1.8822 4.2583.1404.112.4775.14.646.056 1.0957-.6443 2.3317-.8124 3.5115-1.2046 1.517-.5323 2.9778-1.2327 4.4666-1.849.4776-.1962 1.0114-.3362 1.517-.4483.618-.14.9551.3362 1.208.7284.2809.4202.1685.9245-.1405 1.3167-.2247.2802-.4495.6444-.7585.8125-1.3203.7844-2.6687 1.5688-4.0452 2.2692-.7023.3642-1.517.5323-2.3035.7564-.7023.1962-1.1799.5884-1.5732 1.1767-.2528.3922-.5056.8124-.8427 1.1206-.927.8405-2.5845 1.0086-3.1744-.4482-.59-1.5129-1.826-2.5495-2.6406-3.8942-.618-.9805-1.2642-1.989-1.208-2.7455zM228.3643 941.3789c.0843.4762-.1405.8684-.5619 1.2326-1.1517.9245-2.2473 1.933-3.7081 2.4094-.2247.084-.4494.196-.6742.224-1.0394.0841-1.7979.5604-2.444 1.4008-.4775.6444-1.0956 1.2047-1.6574 1.765-.5337.5323-1.3484.7284-1.9383.3082-.5338-.3922-1.0113-.3082-1.4889-.028-1.1518.6163-2.3597.7564-3.6238.5883-1.2642-.168-2.416-.6724-3.3991-1.4288-.6743-.5323-.9552-1.3727-1.0675-2.2132-.0562-.5043.4775-1.0366 1.1236-1.2607.1967-.056.3933-.084.59-.112 1.0955-.1682 1.0955-.1682 1.2641.9244.0281.1681.1124.3923.2528.5043.8428.7284 2.5564.7564 3.343-.028.5618-.5603 1.264-.6443 1.9664-.6443.8708-.028 1.5169-.3923 2.1069-1.0086 1.1236-1.1206 2.3316-2.0171 4.0452-1.989.2809 0 .5899-.1682.8427-.3083.9552-.5883 1.8822-1.1766 2.8092-1.765.4495-.28.899-.3361 1.4327-.084.7023.2802.8428.7845.7866 1.5128zM208.9534 1108.656c.4775-.4201.927-.8404 1.3765-1.2326.7303-.6444 1.545-1.1486 2.472-1.5128.8428-.3643 1.6013-.9806 2.3878-1.4849.4776-.3081.899-.7003 1.4046-1.0085.2809-.1681.59-.2802.9271-.3362.4775-.084.9551-.084 1.236.4482.309.5323.3933 1.0927.0281 1.625a6.0496 6.0496 0 0 1-.7585.9245c-1.1237 1.0645-2.3316 2.017-3.7362 2.6894-.7304.3642-1.4046.8965-2.0507 1.4288-.5899.5043-.7866 1.2047-.7023 2.0171.1686 1.6529-1.9102 3.1378-3.3991 2.4654-.5338-.2241-.7023-.7004-.8428-1.2047-.0561-.1681-.028-.3362 0-.5043.1686-1.0645-.3932-1.6809-1.2922-2.1291-.6742-.3082-1.3203-.6724-1.9945-.9526-1.5731-.6723-2.5844-1.905-3.3148-3.3898-.1405-.3082-.1686-.8965.028-1.0926.2529-.2522.7585-.3642 1.1518-.3362.4214.028.8709.2521 1.1799.5323 1.0394.9805 2.3035 1.5128 3.5676 2.0171.7304.3082 1.489.6724 2.3317 1.0366zM178.1925 1086.2702c-.5899 1.4288-1.8541 2.0731-3.2306 2.4933-1.3765.4203-2.8091.6724-4.298.5323-1.1237-.112-2.0507.3362-2.8654 1.0086-.2528.1961-.3652.5603-.5337.8124-.309.5043-.5619 1.0926-.9551 1.5129-.8709.9245-1.7136.9245-2.5564-.028-.59-.6724-1.208-.8966-2.0788-.6444-1.517.4202-3.062.8124-4.607 1.1766-.4776.1121-1.0114.1681-1.489.1681-.4775 0-.955-.2241-1.1236-.7004-.1966-.5323.1686-.8684.5618-1.1766 1.545-1.2047 3.3149-1.905 5.2532-2.2132.6742-.112 1.3484-.1681 1.9945-.3082.7866-.14 1.545-.168 2.107.1961 1.1236-.7844 2.163-1.5408 3.2024-2.2412.8427-.5603 1.7698-.8125 2.7811-.7004 2.0226.1961 3.9609-.2241 5.8712-.8124 1.1517-.2802 1.2922-.1962 1.9664.9245zM90.125 947.8225c-.3653-1.765-.0562-3.2498.2809-4.7626.2247-.9806.2247-1.9891.2528-2.9977.028-.8404.1124-1.0926.6461-1.3167.618-.2521 1.1799-.112 1.6574.3642.5338.5043.927 1.1206.9551 1.849.0281 1.0926-.0281 2.2132-.1123 3.3058-.0281.5043-.1405 1.0086-.3371 1.4568-.3933.9526-.1124 1.849.2247 2.7455l.4214 1.0086c.3652.8685-.1405 2.2412-1.0113 2.5774-.2809.1121-.7023-.028-1.0394-.1401-.3652-.14-.7304-.3361-1.0394-.5883-1.1518-.8124-2.2474-.5323-3.3991.056-1.236.6444-2.5002 1.1207-3.961.8125-.927-.1961-1.3765-.8965-1.8821-1.5689-.2529-.3362.0842-.6443.4213-.7844.3652-.1401.7866-.2241 1.18-.2802.9831-.084 1.7697-.4762 2.5563-1.0645.8989-.7004 1.9945-.9526 3.1462-.8125.309.084.59.084 1.0394.14zM192.07 967.2924c.4495-.1681.7304-.2522.9551-.3923.3933-.224.7585-.14 1.1518.028.59.2242 1.208.3643 1.826.4763.1966.028.4775-.056.646-.168.871-.6444 1.8541-.7565 2.8654-.6724.5619.028 1.0113-.056 1.4889-.4203.8428-.6443 1.9102-.8685 2.9496-.9245 1.2642-.084 2.3317-.4202 3.2868-1.2607.5618-.5043 1.1237-1.0366 1.9945-1.0926 1.0113-.028 1.6293.5883 1.3765 1.5689-.1405.5323-.4214 1.0926-.7866 1.4848-.6461.6724-1.4046 1.2327-2.1349 1.821-.9552.7844-2.135.9525-3.3149 1.0366-.6742.056-1.1798.168-1.545.8965-.281.5323-.8428.9805-1.3765 1.2887-.6461.3642-1.4327.4762-2.0788 0-.7585-.5603-1.4889-.6164-2.3597-.3642-2.2193.6443-4.0453-.8965-4.7195-2.1292-.1404-.3642-.1404-.7844-.2247-1.1766zM195.7786 992.1991c.2528 1.0366.1967 2.0171-.4494 2.9416-.9552 1.3728-2.0508 2.5775-3.3992 3.558-1.3203.9525-2.1911 2.1292-2.2192 3.8381-.0281.8125-.2528 1.5409-1.0675 1.9051-.3371.1681-.7585.3081-1.1237.2521-.5056-.056-.7584.1401-.955.5323-.2248.4763-.4215 1.0085-.7305 1.4288-1.0113 1.2607-3.399 2.1852-5.0284 1.5688-.59-.2241-.8147-.4482-.8428-.9805-.028-.5323.2528-.8124.7304-.9525.309-.1121.6461-.2241.9551-.3082 1.3203-.3362 2.416-.8965 2.6126-2.4093.5618-.6164 1.0955-1.2327 1.6855-1.793.2809-.2521.7023-.3642.927-.4482.3652-.9806.6461-1.821.9832-2.6335.1405-.3362.3371-.6444.59-.8965.7023-.6724 1.4607-1.3167 2.1349-1.989.7023-.7285 1.3484-1.4849 2.0226-2.2413.2529-.2802.5057-.5323.7304-.8405.6461-.7844 1.3765-1.0366 2.444-.5323zM198.1683 1041.111c.955-1.2326 2.4159-1.793 3.9328-2.2412 1.4327-.4482 2.7249-1.1486 3.8486-2.1291.618-.5323 1.6293-.7845 2.0226-.5323.3933.2521.3933 1.3727-.0281 2.1572-.6461 1.1486-1.517 2.0731-2.7249 2.6054-.8147.3642-1.6574.7284-2.5283 1.0366-1.1517.4202-2.0226 1.0926-2.5563 2.2412-.59 1.3447-2.2193 1.4568-3.062.2802-.7023-1.0086-1.6293-1.5129-2.8935-1.5689-1.2922-.056-2.472-.5883-3.6238-1.1767-.7585-.3922-1.0113-1.0365-.899-1.765.1124-.8404.6742-1.2606 1.4327-1.5408.3652-.14.6742.056.6461.3922-.028.7004.3933.8405.927.9526 1.0957.2241 2.1631.4762 3.2587.7004.7585.196 1.4608.3922 2.2474.5883zM165.0186 945.9733c.3933-.6164.7023-1.1767 1.0675-1.681.8427-1.1486 1.3765-2.4653 1.6855-3.838.1404-.5604.4495-.8686.9551-.8405.5338.028 1.1518-.1121 1.4889.5883.5337 1.1766.5056 2.3533-.0281 3.53-.4495.9805-1.0113 1.905-1.4327 2.8855-.2247.5323-.3371 1.1486-.4495 1.709-.2528 1.3167-1.2922 2.6334-2.5563 2.6894-.4214.028-.7304-.084-1.0113-.4762-.59-.7845-1.2923-1.4849-2.3878-1.5129-.3371 0-.6742-.028-.9833.028-1.573.2522-2.8091-.4202-3.4272-1.849-.2247-.5042.0281-.9805.6743-1.0926.4213-.084.8708-.028 1.3203-.084.8708-.112 1.7136-.3642 2.5844-.3642.8147 0 1.6293.196 2.5002.3081zM214.0393 1020.5532c-.1405 1.4569-.309 2.6335-1.0394 3.642-.5619.7565-.6742 1.5409-.4495 2.4654.2529.9805.0562 1.821-.9832 2.3813-.59.3362-1.0394.9245-1.4888 1.4568-1.6013 1.9051-3.4272 2.3813-5.6184 1.3448-.5619-.2802-.9832-.7565-.8428-1.5409.1405-.7004.7304-1.2607 1.3765-.9525 1.236.5883 2.1912-.0841 2.8092-1.0086.3371-.5042.7585-.9245 1.0956-1.4288.1685-.252.3933-.5883.3933-.8965 0-1.4568.4494-2.7735 1.1798-4.0062.0562-.112.1405-.224.2248-.3361.5618-1.0366.5056-1.4568-.3371-2.2973-.2248-.2241-.4776-.3922-.6742-.5883-.3933-.3642-.3652-.6724.0561-.9806.7304-.5603 1.2642-.6163 2.0227-.112.646.4202 1.4607.5883 1.7697 1.4288.1686.5322.3652 1.0645.5057 1.4287zM180.8626 949.7273c1.4046.028 2.6125.14 3.8205.056.7866-.056 1.5731-.3362 2.3597-.5603.6461-.1961 1.1237-.056 1.545.4202.4776.5323.4495 1.0646 0 1.625-.8708 1.0925-2.1068 1.5127-3.4271 1.7089-.59.084-1.208.084-1.798.056-.5618-.028-.9831.112-1.3483.5043-.1686.168-.3371.3361-.5338.4482-1.4046.9805-2.9777.3362-3.1182-1.1206-.1123-1.0366-.6742-1.849-1.3484-2.6334-.8146-.9806-1.2922-2.1292-1.0675-3.474.0843-.5603.4776-.9525 1.0675-1.0646.5338-.112 1.3765.1962 1.4608.6724.2247 1.5969 1.5731 2.3533 2.3878 3.3619zM207.83 1056.3569c1.6293.5043 3.3991.14 4.916 1.0926.3653.2241.7024.196 1.0395 0 1.6574-.8965 3.5957-1.1767 5.1127-2.3813.2528-.1961.7023-.3082 1.0394-.3082.9832 0 1.1798.4202.8708 1.3728-.5618 1.765-1.9945 2.5213-3.5395 3.1377a32.116 32.116 0 0 0-2.8092 1.3167c-1.2642.6724-2.3036.4202-3.3149-.4763-.2247-.196-.5618-.3361-.8708-.4482-.9551-.3362-1.9383-.5603-2.8654-.9525-1.0675-.4763-1.208-1.0086-.3933-2.0452.1686-.196.5338-.196.8147-.3081zM129.5665 1147.9592c-.1685-.1681-.2528-.2241-.2528-.2522-.0843-1.737.2247-3.3338 1.7136-4.4824.7304-.5603 1.4608-1.0926 2.444-1.0646.4214.028.8427.084 1.3203.14.0843-.196.1967-.3921.2528-.6163.2248-.7564.7023-1.3167 1.3765-1.6809.8428-.4763 1.7417-.8685 2.6407-1.2607.618-.2801 1.2641-.4482 1.9102-.7004.5899-.224 1.1799-.2521 1.7698.056.5899.3082.7304.6164.309 1.0927-.4214.5042-.9551.9525-1.545 1.2607-.6181.3361-1.3204.5323-1.9665.7844-.3933.168-.8146.3082-1.208.5043-.7022.3642-1.1236.9525-1.1798 1.765-.028.5322-.1966.9805-.6742 1.2886-.3652.2522-.7023.3082-1.1237.1961-1.9383-.5883-2.5282-.4202-3.708 1.2047-.5338.8125-1.4609 1.0086-2.0789 1.765zM191.846 923.897c1.6012-2.0172 3.8205-2.8856 6.0678-3.7541-.0843-.5883-.2528-1.2047-.2809-1.821-.028-.3642.1124-.7845.281-1.1206.2247-.4763.5618-.9245.8427-1.3728.8146-1.2607 2.163-1.877 3.3429-2.6895.1124-.084.309-.028.6461-.056-.1123.3362-.1685.5603-.2809.7564-.6742 1.1206-1.3765 2.2132-2.0788 3.3338-.2809.4483-.3652.9246-.1685 1.4568.2809.7565.5618 1.5129.7865 2.2693.1686.5323.281 1.1206.281 1.653 0 .8124-.3933 1.0925-1.1799 1.0085-.3371-.0281-.7304-.0561-.9832-.2242-.6461-.4202-1.2922-.3081-1.9384-.112-.646.1961-1.264.4482-1.9102.6443-.7023.1961-1.4327.3642-2.163.5323-.4214.0841-.562 0-1.2642-.5042zM167.209 1145.1094c.0843-.9525.3371-1.2887 1.0956-1.4007 1.6855-.2522 3.371-.2242 4.9722.5042.7304.3362 1.3204.4203 2.0507-.056 1.7698-1.1486 3.6801-1.4008 5.7308-.8404.309.084.6742.084.9832.168.3652.0841.7304.1401 1.0394.3362.2528.1681.5337.5323.5056.7564-.0562.3082-.3371.7004-.6461.8125-.5337.168-1.1237.1961-1.6855.1961-.5337 0-1.0675-.14-1.6012-.112-1.6293.028-3.0058.5603-3.989 1.933-.6462.8965-1.18 1.0366-1.826.1961-.9832-1.2887-2.3597-1.5128-3.7643-1.793-.9832-.14-1.9103-.4482-2.8654-.7004zM163.6687 1051.96c.2809.084.5056.084.6742.168.4214.1682.5337.4764.2809.8966-.309.5603-.6461 1.0926-.9832 1.6249-.5057.8124-1.0394 1.5969-1.0956 2.6334-.0562.9526-.6461 1.625-1.6012 1.9891-.6462.2522-1.208.7284-1.826 1.0646-.5057.2802-1.0113.5323-1.545.7004-.7024.1961-1.0395-.2241-.8147-.8965.1685-.4763.4214-.8965.7304-1.3167.2809-.3922.7023-.7284 1.0113-1.1206.5899-.6724 1.0394-1.3728 1.3765-2.2693.59-1.5688 1.826-2.6895 3.371-3.4179.1685-.028.3371-.056.4214-.056zM198.1823 319.4145c.3261 1.2627 1.1415 2.1181 1.9976 2.9735 1.1415 1.0998 2.5276 1.5072 3.9545 1.222 1.916-.4073 3.7914-.4073 5.6667.163.5707.1629 1.0192 0 1.4676-.4481 1.1008-1.059 2.1607-2.1589 3.6691-2.607 1.0192-.285 2.12-.4888 3.1392-.6924 1.3453-.2852 2.6499-.4888 4.036-.448.7746 0 1.5491-.163 2.3237-.2038.53-.0407 1.1008-.0814 1.6307.0408.6116.1222.7746.6517.4485 1.1405-.2446.3666-.5708.774-.9377.9776-1.223.6925-2.5276 1.2628-3.9544 1.222-1.7123-.0814-3.3022.4888-4.9329.8554-1.7123.3666-3.0576 1.2628-3.5876 3.1365-.3262 1.1405-1.3861 1.5479-2.4053 1.7923-.6931.163-1.4269-.2037-1.6307-.8554-.3669-1.1406-1.2638-1.1406-2.1607-1.1813-.897-.0407-1.7938.0815-2.6907.0815-1.9976-.0407-3.9545-.2852-5.5852-1.6294-1.06-.9776-1.6307-2.1181-1.6307-3.5845 0-.8962.4077-1.4257 1.1823-1.9552zM216.9353 295.7085c4.199-2.0775 9.4581-2.1182 11.6188-.0815-.8561 1.0998-2.0792 1.385-3.3837 1.4664-1.1415.0815-2.3238.1222-3.4653.2037-.4484.0407-.8969.2036-1.3453.3258-.53.1222-1.0192.326-1.3454.8147-.7338 1.0184-1.8753 1.1406-3.0168 1.3035-.6115.0814-1.1415-.2444-1.3861-.8554-.0815-.163-.2446-.3259-.2446-.5296-.1223-1.4664-1.3046-1.9144-2.4053-2.4032-1.06-.4481-2.2015-.8147-3.2614-1.2628-1.0192-.448-1.6715-1.3442-2.1607-2.3625-.1223-.2852-.2446-.611-.1631-.8962.1223-.3666.367-.7739.6523-1.0183.3669-.2444.8153-.163 1.1822.163.2447.2443.5708.448.7746.7331.5708.8554 1.427 1.1406 2.3238 1.385 1.1823.3259 2.4053.611 3.4653 1.2627.7746.4888 1.7122.8147 2.1607 1.7516zM7.612 110.773c.2727-2.0088 1.7388-3.1323 2.9662-4.358 1.3297-1.3278 2.7958-2.5194 4.2278-3.745.8524-.749 1.5343-1.5662 1.8752-2.6557.2728-.817.6137-1.6002.9206-2.3832.0341-.1362.0682-.2724.1364-.4086.3068-.6809 1.2274-1.2597 1.773-1.1576.5113.1022.9887.9193.9205 1.7705-.1705 2.5534-1.057 4.8345-2.898 6.673-.9548.9534-2.0458 1.7705-3.0345 2.6897-.9547.8852-1.8753 1.8045-2.7958 2.7578-.9888 1.0214-1.2615 2.247-1.0229 3.6429.0682.3745.0682.7831.0682 1.1576 0 .7831-.6137 1.1235-1.2274 1.2597-.5796.1022-1.2274 0-1.6366-.5447-.068-.0681-.1363-.1702-.1704-.2724-.5456-1.2597-1.6707-1.2937-2.7958-1.2257-.75.0341-1.466.1703-2.2162.2724-1.5342.1702-2.9662-.3404-4.3982-.749-.716-.2043-1.3979-.5447-2.1139-.715-.7842-.2383-1.2274-.8171-1.6365-1.4299-.4774-.715-.375-1.464.034-2.213.2046-.3405.4774-.5448.8524-.3065.4092.2384.8183.5448 1.2274.7491.4774.2383.9888.4085 1.4661.5787.7842.2384 1.5684.4767 2.3867.5788.8864.1022 1.807.2384 2.6253.0341 1.3297-.3064 2.5912-.1702 3.8868.034.1363-.034.2727-.034.5796-.034zM21.3541 363.2955c-.0341-1.2938.2728-1.7704 1.3979-2.213.4432-.1703.8865-.3064 1.2956-.5107 1.2274-.6128 1.8411-1.8045 2.2844-2.9621.8864-2.3832 2.0116-4.5281 4.2277-5.9581-.1364-.4766-.3068-.9533-.4432-1.4299-.4091-1.6002-.1364-3.1323.1705-4.7325.4091-2.1449.5796-4.358-.3069-6.5028-.3068-.715-.5455-1.464-.9206-2.145-.3409-.6128-.1363-1.1235.2046-1.566.341-.4427.8524-.2725 1.2956-.1363.4773.1362.8524.3405 1.2274.749 1.5002 1.8386 2.2503 3.9154 2.1139 6.2986-.0682 1.0895-.0682 2.213-.1704 3.3025-.0682.715-.3751 1.43-.4774 2.145-.0682.5787-.0341 1.1916.0682 1.7704.1364.715.3069 1.3959 1.1251 1.8044.8183.4086.716 1.7023-.1022 2.213a2.7725 2.7725 0 0 1-.9888.4086c-1.3979.2383-2.2162 1.0554-2.864 2.2811-.716 1.3959-1.0228 2.928-1.9093 4.2218-1.1592 1.7023-2.6594 2.962-4.6369 3.5408-.5114.1362-1.1251-.0681-1.6365-.1702-.375-.0681-.682-.2724-.9547-.4086zM222.3416 104.134c.341 1.3278-.2387 2.3152-.8865 3.2344-1.4319 2.0088-3.4435 3.0642-5.8643 3.4387-1.9434.3064-3.8868.2383-5.8302.1362-1.3638-.0681-2.7617.034-4.1255.2724-.6819.1021-1.3638.5788-1.9434 1.0214-.6819.5107-1.3638.8511-2.2162.8852-1.091.034-1.8752-.4426-2.0798-1.5321-.1023-.6129-.375-.749-.8864-.8171-1.773-.2043-3.4436.034-5.1484.6468-2.0456.715-4.1254.5448-6.2052.034-.3069-.068-.5796-.3404-.9547-.5447.5114-.6809 1.0229-1.0894 1.807-.9533 1.9775.3405 3.8187-.2723 5.6598-.783 2.182-.5788 4.3982-.8512 6.6144-.3064.1364.034.3069.034.4091.1021.8865.749 1.8071.3745 2.6594.034 1.3979-.5787 2.8981-.715 4.3983-.749 1.7047-.068 3.4095.0681 5.1142.1022 2.8981.034 5.3529-.8512 7.16-3.2344.6137-.7831 1.3297-1.0895 2.3184-.9874zM54.1185 99.7087c-.0682-1.1236.5455-1.7023 1.3638-1.9066 1.9434-.5107 3.4436-1.8045 5.1142-2.7578.9547-.5447 1.9093-1.0554 3.0004-1.6342 0-.2383.034-.6128 0-.9874-.341-2.1449-.6478-4.2558-.5115-6.4347.0341-.715-.2727-1.464-.4091-2.179-.2046-.9873-.4432-1.9406-.5114-2.928-.0682-.6128.1023-1.2597.2386-1.8725.0682-.3745.2387-.715.6479-.715.409 0 .8523 0 1.1251.4766.2045.4086.5455.7831.6819 1.1917.4432 1.5661.8864 3.1322 1.2615 4.6984.1023.4766.1364.9873.1705 1.464.0682.9873.1022 1.9747.1022 2.962 0 1.8045.7842 3.2685 1.9435 4.5963.6478.749.8864 1.6001.5455 2.5534-.2387.7831-.8183 1.2598-1.6025.9874-1.7388-.6809-3.2731-.0681-4.8074.5447-.6819.2724-1.2956.749-1.9434 1.1236-1.6706.9192-3.5118 1.2597-5.421 1.1575-.341 0-.682-.2383-.9888-.3404zM25.6475 66.0024c.8524 1.0214.4432 1.9406.1023 2.8259-1.3638 3.2343-2.8299 6.4007-4.1937 9.6351-.2727.6469-.4773 1.3278-.6478 2.0087-.1364.5448-.034 1.0555.2728 1.5321.5796.9193.4091 1.7023-.5455 2.6216-.341.3404-.6819.7149-1.0229 1.0214-.9887.8852-1.6024.9533-2.7616.2723-.5797-.3064-1.1593-.4766-1.8412-.4085-1.9775.1702-3.955.3064-5.9325.4426-.4773.034-.9205-.1362-1.466-.2043.2045-.9873.8864-1.3959 1.5001-1.8385.4432-.3405.9888-.5788 1.5343-.715 1.9093-.4766 3.7845-1.1916 5.8302-1.1576.7501 0 .8524-.1361.9547-.9533.1704-1.3618.7841-2.5534 1.3296-3.7791 1.2275-2.6897 2.5572-5.3112 3.7505-8.0009.5455-1.2257 1.398-2.179 2.3866-3.0642.1705-.1702.4774-.1702.7501-.2383zM99.8398 92.8307c.2387-1.2257 1.0229-1.5661 2.0798-1.3618 1.432.3064 2.5912-.3745 3.7163-1.0214 1.6025-.9193 3.3072-1.43 5.1484-2.0428-.0341-.4426-.0341-.9874-.1364-1.4981-.2046-.8852-.1364-1.7704.0682-2.6215.3068-1.2597.375-2.5195.0682-3.7792-.2046-.8511-.2728-1.7363-.4092-2.6216-.1023-.749.2387-1.464.8183-1.7023.5796-.2723 1.2615-.068 1.7388.5788.2387.3405.5115.681.6138 1.0895.375 1.498.7159 3.0301.9546 4.5622.1023.647 0 1.3619-.2046 2.0088-.4432 1.3618.0341 2.5534.5797 3.677.4773.9873.5114 1.8725.1363 2.8599-.2386.5788-.5796.8511-1.1933.8852-.2728 0-.6137.034-.8524-.0681-1.5342-.715-2.898 0-4.2618.5447-.8865.3405-1.7048.8852-2.5912 1.2597-1.1593.5107-2.3867.9193-3.6823.7491-1.057-.1703-1.9434-.715-2.5912-1.4981zM167.2788 141.9267c-.375-.1022-1.023-.2384-1.6366-.4767-.6137-.2383-.8524-.715-.716-1.2597.1023-.4767.5114-.8171 1.091-.8512.7842-.0681 1.5684-.0681 2.3526-.1702.6137-.0681 1.2615-.2383 1.8752-.4086.6819-.2042 1.1251-.6809 1.5002-1.2597 1.0228-1.498 1.9775-3.0301 3.7504-3.8132.4092-.1702.5114-.5107.5796-.9192.2046-1.2257.4433-2.4173.7842-3.609.1705-.5787.4432-1.1235.7842-1.6001.7842-1.1235 1.6706-2.179 2.4548-3.3366.4774-.715.8183-1.5661 1.1593-2.3832.2386-.5788.5796-.9874 1.2615-1.1576.7501-.1702 1.1592 0 1.2615.8171.1364 1.0214-.0341 2.0428-.3751 2.9961-.4773 1.3278-1.2615 2.4514-2.0457 3.609-.5455.783-1.0569 1.566-1.5683 2.3491-.6137.9193-.716 1.9066-.4433 2.9621.341 1.498-.1704 2.4513-1.7047 2.6556-1.3297.1702-2.1139 1.0554-2.864 2.0768-.2386.3405-.4432.715-.716 1.0554-1.6706 2.1109-4.0232 2.5195-6.7848 2.7238zM179.0081 171.6828c-.9546.4086-1.2615 1.1236-1.2956 2.1109 0 1.5661-.5455 2.962-1.466 4.2558-.4433.6128-1.057.9533-1.739 1.1576-.2386.0681-.5454 0-.75 0-.3068-.6469-.1364-1.1576.1023-1.6342.8524-1.5662 1.2615-3.2345 1.2274-4.9708 0-.7831.2728-1.4981.7842-2.0428.75-.7831 1.432-1.7023 2.5912-2.0087.2046-.0681.4432-.3745.4773-.6129.1705-.9533.4774-1.8385 1.1252-2.5875.2386-.2724.4091-.5788.6819-.783.9546-.7831 1.9434-1.5322 2.8639-2.3493 1.3297-1.1235 2.489-2.4513 3.3072-4.0174.341-.647.6819-1.2257 1.5343-1.2598.6478-.034.8865.0681 1.0911.715.3409 1.0555.2727 2.1109-.341 3.0642-1.1251 1.7023-2.3866 3.2344-4.0914 4.426-.8524.6129-1.6024 1.396-2.4207 2.0769-.4433.3745-.6478.8171-.6478 1.3959 0 .5447-.0682 1.0554-.1023 1.6001-.0682 1.2598-.8865 1.8726-2.1139 1.6683-.3068-.0681-.5796-.1362-.8183-.2043zM66.4258 374.1217c.1705-1.2938.2387-2.5535.9206-3.677 1.2615-2.0428 2.7275-3.8813 5.1142-4.7665.8865-.3405 1.466-.9193 1.6707-1.9066.4432-2.0428 1.6365-3.643 3.239-5.0048 2.148-1.8045 4.1595-3.7452 6.0689-5.822.8864-.9873 1.1933-.9873 2.2843-.034-.6819 2.0768-2.0457 3.711-3.4777 5.2772-.8864.9873-1.9434 1.8725-2.898 2.8258-.9206.9193-1.6707 1.9066-2.0798 3.1663-.1705.5107-.3069.9874-.1023 1.5321.1705.5107-.0341.9874-.4432 1.3278-.4774.4086-.9888.8171-1.5343 1.1235-.341.2043-.8183.3405-1.1933.2724-.7842-.1362-1.4661.1362-1.9434.5788-1.2956 1.2597-2.5572 2.5535-3.6823 3.9834-.5114.6469-.9206 1.2257-1.9434 1.1236zM119.888 137.2276c-1.0569.034-2.1139.1362-3.1708.1362-1.3638-.034-2.3526.749-3.2731 1.6001-.4092.3746-.6819.8853-.9888 1.3279-.4091.5787-1.6365.9192-2.4207.715-.716-.2043-1.2615-.8512-1.1593-1.6683.1023-.8852-.3068-1.3619-.9887-1.7024-1.2956-.6128-2.6594-1.1575-3.9891-1.7363-.9206-.4086-1.8411-.783-2.6935-1.2257-.716-.3745-1.0229-1.1235-.7842-1.8044.0682-.2043.4773-.4767.716-.4767.5455 0 1.1592.068 1.6706.2383 2.1821.783 4.3301 1.6002 6.478 2.4514.5797.2383 1.1252.6128 1.6366.9873.341.2724.6478.3064.9547.034 2.0116-1.7704 4.4664-1.532 6.8872-1.498 1.0569 0 2.1479 0 3.2049-.034.8183-.034 1.6024-.2043 2.4207-.2724.2728-.034.5796 0 .8524.068.4773.1022.9887.2384 1.0228.7491.0682.5448-.3068.9533-.75 1.1916-.4433.2384-.9206.4086-1.3979.4767-1.3979.2383-2.7958.4085-4.2278.5788v-.1362zM13.1345 371.1258c-.7501 1.2937-2.0116 1.7363-3.2049 2.247-2.0116.8171-4.1255 1.3278-6.2735 1.5321-.9206.1022-1.4661.783-1.9434 1.498-.1023.1362-.1023.3405-.1705.5108-.8183 1.566-1.5002 2.0768-3.2049 1.2597-.5114-.2383-1.0229-.1703-1.5343.1021-2.6253 1.396-5.2506 2.8259-7.8759 4.1877-.6478.3405-1.3297.6129-2.148.5448-.1364-.5107-.1023-.9193.1705-1.3619.5455-.749 1.091-1.43 1.9434-1.9066 2.182-1.2256 4.296-2.5194 6.4098-3.8132.7501-.4426 1.5343-.749 2.4208-.681.5455.0341.8524-.1701 1.1933-.5447a31.1 31.1 0 0 1 1.5002-1.498c.8865-.749 1.9093-1.1576 3.1026-1.2257 2.3185-.1021 4.5346-.783 6.7508-1.498 1.3638-.4426 2.0457-.3064 2.864.6469zM53.8102 302.0466c-.2386 1.0214-.3068 2.0428-.6819 2.928-.5114 1.2597-1.1933 2.4853-1.9093 3.677-.6137 1.0554-.9546 2.1108-.8183 3.3365.0341.2724.1364.5788.3069.749.4432.4086.5455.8852.5114 1.43-.0682 1.2937-.4773 2.3492-1.8411 2.8258-.716.2384-.7842.8171-.8183 1.43-.1023 1.498-.2387 2.962-.341 4.46-.1022 1.4981-.75 2.7919-1.5683 4.1197-.375-.0341-.7842-.1022-1.1933-.1362-.2387-1.1916-.341-2.2811-.1364-3.4387.2387-1.3959.1705-2.8259.2386-4.2218 0-.1361 0-.2723-.034-.4085-.2387-.749-.1023-1.43.2386-2.1449.4773-.8852.8524-1.8045 1.6366-2.4514.1704-.1362.2386-.5788.2045-.8511-.5455-2.4514-.0681-4.6644 1.4661-6.7072.6137-.783 1.0229-1.7023 1.5684-2.5535.7842-1.0894 1.5343-2.179 3.1708-2.0427zM168.1995 250.0574c.4092-.5788.8183-1.1235 1.1934-1.7363.9546-1.5662 2.5571-2.3152 4.0573-3.1323.5114-.2724 1.1251-.4426 1.6706-.715.5455-.2724 1.1252-.5788 1.6366-.9533.6137-.4426 1.1933-.715 1.9434-.4426.6819 1.6002-.1023 3.2344-1.9434 3.8132-1.2615.3745-2.3867.9533-3.5118 1.7364-1.1251.783-1.8752 1.7704-2.0798 3.0642-.1705.9192-.7501 1.532-1.2956 2.1449-.716.8171-2.2503.7149-2.9322-.2043-.716-.9873-1.6706-1.498-2.8298-1.7364-2.114-.3745-3.8869-1.464-5.6939-2.5535-.9205-.5447-1.0228-1.464-.375-2.1449.3068-.3064 1.0228-.4766 1.2615-.2042.5455.6468 1.3297.817 2.0457 1.0894 1.3297.4767 2.7276.783 4.0914 1.1576.8864.2724 1.7388.5107 2.7616.8171zM38.4348 366.6664c-.1023-1.6342.0682-1.8385 1.398-2.145 1.7729-.4085 3.5117-.783 5.2164-1.4299.7842-.3064 1.6366-.3745 2.6253-.5447.0341-.681.0341-1.396.1023-2.145.0682-.5107.1364-1.0554.341-1.532.9205-1.9747 1.9093-3.9494 2.898-5.89.5456-1.0555 1.0911-1.3279 2.1139-1.0896.3751 1.43.1705 2.7918-.5455 4.0856-.5796 1.0214-1.0569 2.0768-1.5684 3.1323-.75 1.6002-.6818 3.1322.3751 4.5962.2387.3405.4773.715.6137 1.1236.3069.9192-.1364 1.6342-1.091 1.8044-.8183.1362-1.5684-.0681-2.2162-.5788-.9547-.749-1.9434-.6469-3.0345-.3404-1.7047.5107-3.4094.9873-5.1483 1.2937-.6478.1703-1.3638-.2042-2.0798-.3404zM117.7749 293.16c.2727-2.145 1.6024-3.609 3.0685-4.9708l2.7617-2.6557c.375-.3404.7501-.6128 1.1592-.9192.4092-.2724.7501-.0681 1.0911.1362.375.2042.2386.5447.1704.8511-.2727 1.0214-.8523 1.8726-1.5342 2.6216-.9547 1.0554-1.8753 2.145-2.7958 3.2004-.4092.4426-.5115.9532-.4774 1.566.0341.647 0 1.3279-.1022 2.0088-.1023.6469-.5456.9193-1.1934.9533-.341 0-.716.0341-1.0569 0-.9206-.1021-1.3979.3745-1.6707 1.1576-.4432 1.3278-.8864 2.6897-1.3638 4.0175-.5114 1.464-.8182 3.0301-2.0797 4.1196-.1705.1362-.3069.3405-.4774.4085-.2045.1022-.4432.0681-.75.1022-.2728-1.1916-.1023-2.2471.2386-3.3025.5796-1.9066 1.1933-3.7792 1.807-5.6517.2046-.6809.4433-1.3619.7501-1.9747.4433-.9873 1.2956-1.464 2.4549-1.6683zM4.5103 55.38c.8183.2043 1.5002-.0341 2.114-.6128.2045-.2043.4432-.4086.6818-.4426.8183-.1022 1.057-.5107 1.1593-1.3278.1022-1.0555.5114-2.0428 1.091-2.962.6819-1.1236 1.091-2.3833 1.2956-3.6771.1364-.8171.4091-1.6342 1.432-1.8385.8183-.1702 1.432.1362 1.773.9193.3068.715.3409 1.498.1023 2.179-.4433 1.3277-.9547 2.6555-1.6025 3.9152-.4774.9533-.6138 1.8386-.2387 2.86.4774 1.2937.034 2.6556-1.057 3.3705-.1704.1022-.409.1362-.6137.1362-.341-.034-.716-.0681-1.057-.1702-.8182-.2383-1.5342-.1021-2.182.4766-1.2615 1.0895-3.58.6129-4.5687-.3404-.375-.3745-.5455-.7831-.4773-1.3278.1023-.7831.4773-1.0895 1.2956-1.1236.2727-.0681.5455-.034.8523-.034zM142.0472 122.2807c-.034-.2724-.0681-.4767-.0681-.715-.0341-.7831-.1705-1.5661-.0341-2.3151.2727-1.8045.7841-3.5068 1.466-5.2091.3069-.749.5115-1.5321.7501-2.3152.341-1.1576.4774-1.2597 1.6366-.9533.6819 1.396.6137 2.7918.2046 4.2218-.3751 1.3618-.6819 2.7577-.9547 4.1536-.2728 1.3619.0682 2.6216.7842 3.8473.8523 1.464-.1023 2.5194-1.432 2.8599-.7501.2042-1.5343.1021-2.1139-.6129-.3069-.4085-.7842-.5788-1.3297-.6128-1.3638-.0341-2.7617-.1362-4.1255-.1362-1.5002 0-3.4777-.5107-4.5687-1.2938.0341-.2042.0682-.4426.1023-.6809.034-.2043.0682-.4085.1364-.6809.6137.0681 1.1933.0681 1.7047.2383 1.5343.4426 3.0686.5107 4.637.1702.8182-.1702 1.6024-.2383 2.4207-.034.1704.1021.4432.0681.7841.0681zM64.8582 423.5574c-.6819.6469-1.432 1.2938-2.148 1.9747-1.1933 1.1236-2.3525 2.247-3.955 2.8258-.341.1362-.6137.4427-.9546.681-.5456-.783-.4092-1.43.0682-2.0088.5455-.6809 1.125-1.3618 1.7047-2.0428.9547-1.0554 1.9093-2.1108 2.898-3.0982 1.023-1.0213 2.2844-1.532 3.7846-1.3278.341.034.75-.068 1.091-.2042 1.3979-.681 2.8981-.8853 4.4665-.8172.8864.0681 1.7729.1022 2.6594.1703.9887.1021 1.9093-.2724 2.7617-.681.8864-.4085 1.5683-.1702 2.182.5448-.2045.715-.6137 1.2938-1.1933 1.7023-1.1592.8171-2.4548 1.2938-3.8868 1.2597-.6137 0-1.1933-.1362-1.807-.1702-1.5684-.0681-3.1027.1021-4.4324 1.0895-1.091.8852-1.8752.9192-3.239.1021zM78.7694 115.4038c.1363-.3405.3068-.681.375-1.0555.3069-1.464 1.0229-2.7237 2.0798-3.7791 1.3979-1.3619 2.8299-2.6897 4.3301-3.9494.6478-.5447 1.5001-.8852 2.3184-1.3278.4091.1362.7842.2724 1.3297.4767-.2727.4766-.4773.9873-.7842 1.3618-1.2615 1.396-2.5571 2.7578-3.8186 4.1537-.375.4085-.7842.8511-1.1592 1.2597-.8865 1.0214-1.2615 2.179-1.1934 3.5408 0 .3405.0682.715.0341 1.0554-.1363 1.5662-1.6365 2.2471-2.9662 1.43-.4433-.2724-.9888-.4767-1.466-.4767-1.5344.0341-3.0345.1703-4.5688.2384-.4092.034-.8524.0681-1.2615.034-.4774-.034-.716-.4426-.5114-.8852.1704-.3745.409-.6809.8182-.8852 1.9775-.9533 4.0914-1.2257 6.444-1.1916zM197.0436 178.9688c.5114 1.396-.0342 2.4514-.8183 3.4047-.7501.8852-1.6366 1.6682-2.4549 2.5194-.9205.9193-1.8752 1.8045-2.7957 2.7578-.2387.2383-.3069.6128-.4092.9533-.4091 1.1916-1.2274 1.7023-2.4207 1.4299-1.091-.2383-1.2275-.2383-1.7048.6809-.8183 1.6683-2.2502 2.5195-3.8527 3.1663-1.057.4427-2.148.3405-3.3413-.2383.341-.5788.9206-.8852 1.466-1.2597.9206-.6469 1.9094-1.2257 2.7959-1.9406.341-.2724.5114-.7491.6478-1.1576.375-1.0214 1.0228-1.7364 2.1138-2.0087.7842-.1703 1.4661-.5448 2.0117-1.2257.716-.8512 1.6024-1.6002 2.4548-2.3492 1.4661-1.3619 3.0685-2.6216 4.3301-4.2218.5114-.6809 1.1933-.749 1.9775-.5107zM156.2648 167.223c.0682 0 .1023.034.1364.034 1.3297-.715 2.7617-1.0214 4.2278-1.3278 1.7729-.3745 3.4095-1.1575 4.9096-2.1449.341-.2043.682-.3405 1.057-.5107.3409-.1702.6819-.1021.9887.0681.8183.4767.9547 1.1916.2046 1.8045-1.0569.8852-2.148 1.7704-3.3413 2.4173-1.7047.9192-3.5459 1.6001-5.4552 1.9746-1.0228.2043-1.9093.647-2.4548 1.6343-.5114.8852-1.6366 1.2256-2.4548.715-.4092-.2724-.7842-.7831-.9206-1.2598-.1364-.5447-.2728-1.1235 0-1.7363.4773-1.0214.2387-1.6683-.4432-2.111-.2728-.1701-.5115-.3744-.7501-.5787-.5796-.4086-.7842-.8852-.5796-1.2597.2386-.4767 1.0228-.8852 1.5001-.783 1.6366.4425 3.0004 1.2256 3.3754 3.064zM186.27 230.1398c.1022-.1702.2386-.5447.4432-.8511.682-.9533 1.1933-1.9747 1.5343-3.0983.4091-1.3278 1.091-2.5194 2.3525-3.3365.3069-.2043.6478-.4426.6478-.9193.0341-2.4513 2.114-4.9367 5.2847-5.4474 1.057-.1702 2.1139-.1702 3.1709-.1702.9205 0 1.5001.4766 1.6365 1.1916.1023.4426-.0341.6129-.5114.715-1.2956.2724-2.5912.5107-3.8186.8852-1.7048.5107-2.3867 1.6342-2.1821 3.3706.1705 1.532-.5796 2.5535-2.0457 2.7577-.6478.1022-1.057.4426-1.3297.9533-.4092.7831-.8183 1.5662-1.1933 2.3833-.5797 1.1916-1.5684 2.0087-2.7617 2.5194-.8524.4086-1.2615.1362-1.2274-.9533zM105.395 347.0549c-.6136-1.9406-.6137-3.745-.2045-5.5836.2386-1.0554.8524-1.8385 1.5684-2.5875.3068-.3405.9887-.3405 1.3638-.034.3409.2723.5114.6128.3409 1.1235-.2728.715-.5114 1.464-.6819 2.247-.3068 1.396-.3068 2.7918.5114 4.0856.341.5447.7842.9533 1.3638 1.2597.716.3745 1.432.783 1.6025 1.7023.2386 1.2257-1.0229 2.4854-2.2162 2.1449-.4773-.1362-.9546-.2723-1.3979-.4426-1.6706-.6468-3.3413-.4426-5.046-.1702-.682.1021-1.398.1362-2.114.1021-.75-.034-1.1591-.4426-1.2273-.9873-.0682-.5107.3068-1.1916.9205-1.396 1.5002-.5447 2.9663-1.2256 4.6028-1.2256.1364 0 .341-.1362.6138-.2383zM191.7947 204.0945c-.6137-.783-.5796-.749-.1023-1.532.8865-1.43 2.148-2.2471 3.8186-2.3493 1.1252-.068 2.2503 0 3.4436 0 .6478-.5107 1.3297-1.1575 2.1139-1.6682 1.2274-.8172 2.2162-1.8726 3.0685-3.0302.6819-.9192 1.432-1.7023 2.7617-1.43.4433.5448.4092 1.1576.2387 1.8045-.6478 2.213-2.0116 3.9154-3.9891 5.039-.9547.5446-1.2615 1.2256-1.1933 2.213.0681.9192-.2728 1.6341-1.1252 2.0768-.6819.3745-1.2615.2723-1.807-.3065-.3068-.3404-.5796-.7149-.8865-1.0554-.4432-.5107-.9546-.749-1.6706-.749-1.1592 0-2.2844.034-3.3413.5447-.4433.1702-.8865.2724-1.3297.4426zM184.2921 205.661c-.1705.5788-.2387 1.0214-.4092 1.3959-.9887 2.0428-2.5912 3.5408-4.33 4.9027-1.5002 1.1916-2.3867 2.5875-2.2844 4.5281v.5448c-.034 1.2257-.6819 1.7704-1.8752 1.5321-.341-.0681-.6819-.1702-.8183-.5788-.2045-.6469-.5455-1.2257-.6819-1.8726-.1364-.6128-.375-1.0554-.8864-1.3618-.6478-.4086-1.3297-.8171-2.0457-1.1576-1.1252-.5447-2.1821-1.1576-3.0345-2.1109-.2046-.2383-.375-.5107-.5455-.715.9888-1.1235 1.1251-1.1575 2.3867-.5787 1.841.8511 3.648 1.7363 5.5915 2.6556.2387-.2724.5455-.5448.7842-.8852 1.1592-1.5661 2.523-2.86 4.0573-4.0515.5796-.4426 1.1592-.9193 1.7388-1.396.8183-.6809.8524-.6809 2.3526-.8511zM130.5582 152.651c-.4092-.8851-.341-1.2256.341-1.6341 2.0797-1.2257 4.33-2.1109 6.7848-2.3152.7842-.068 1.6365.3064 2.5571.5107 1.3638-.4426 2.864-.9533 4.3983-1.3959.716-.2043 1.466-.2383 2.2161-.2724a60.4642 60.4642 0 0 1 3.5118-.1021h2.6253c.2387 1.0895.1023 1.3278-.716 1.7704-1.3297.715-2.8298.681-4.2618.8512-1.432.1702-2.8981.1702-4.296.783-.6137.2724-1.2274.5107-1.7048 1.0555-.8523.9192-2.4207 1.3618-3.6822.5107-.1705-.1022-.375-.2384-.4432-.4086-.2387-.749-.7842-.715-1.3638-.681-.341.0341-.682.1363-1.0229.2384-1.3979.3745-2.7957.749-4.1936 1.0895-.2728.034-.5115 0-.7501 0zM163.4938 109.6155c-.341-.749-.3069-1.3959-.0341-2.179.4773-1.2937.1364-2.6555-.4773-3.8131-.9206-1.7023-2.0116-3.3366-3.0004-5.0048 1.091-.681 1.8411-.681 2.5571.3404.0682.1022.1364.1703.2046.2384 2.0116 1.4299 2.864 3.6089 3.955 5.7538.75-.4086 1.5343-.8512 2.3184-1.2597 1.6707-.8852 3.4777-1.464 5.387-1.6002.5797-.034 1.1934.068 1.773.2383.2046.0681.4773.3745.5114.6129.0341.2042-.2387.5107-.4432.6128a3.2696 3.2696 0 0 1-1.0911.4086c-2.4207.4426-4.6028 1.464-6.5803 2.8598-.6137.4426-1.1933 1.0214-1.6365 1.6343-1.0229 1.3959-1.773 1.7023-3.4436 1.1575zM129.4335 69.5093c.2386-.2043.3068-.2724.4432-.4086-.5796-.1021-1.091-.2723-1.3297-.817.4773-1.0896.9887-1.3279 2.0457-.9874.6137.2042 1.1933.4085 1.773.6809 1.1932.5788 2.0797.749 3.7163.6469.0682-.681.2045-1.3619.2386-2.0428.2046-2.4173 2.0116-3.8472 3.8869-4.5963.7841-.3404 1.5342.3405 1.3297 1.1917-.1364.5788-.3751 1.1916-.7842 1.6001-1.1593 1.2257-1.1593 2.6897-.8524 4.1537.1705.783 0 1.3959-.375 2.0087-.1023.1703-.3069.4086-.4433.4086-.6478 0-1.091.4766-1.6365.6809-.4432.1702-.9547.2043-1.432.1702-.716-.034-1.398-.1021-2.0798-.2383-.6137-.1021-1.2615-.2043-1.807-.5107-.9206-.5107-1.7389-1.2256-2.6935-1.9406zM99.4967 57.1505c.341-1.7023 1.3638-2.7237 2.523-3.711a35.6073 35.6073 0 0 0 2.8299-2.7237c.5114-.5448 1.1251-.715 1.807-.7831.5796-.0681.9206.2383.8524.783-.0341.5448-.1705 1.1576-.4773 1.6002-.6819 1.0214-1.5002 1.9407-2.2844 2.894-.4432.5107-.8865 1.0214-1.3638 1.498-.4773.4767-.6478 1.0895-.5114 1.6683.2045.9873-.3069 1.5661-.9547 2.0428-.8524.6809-1.432.6469-2.3525.034-1.1933-.817-2.3526-.5788-3.5118.0681-.8524.4767-1.7047.9874-2.5912 1.43-.2046.1021-.5114.034-.7842.034v-.6809c0-1.6342 1.1592-2.3492 2.3867-3.0302 1.3296-.783 2.7616-1.2937 4.4323-1.1235zM10.0009 384.1322c.1705-.9192.341-1.8044.5115-2.6555.2045-.8852.5796-1.7024 1.4319-2.145.7842-.4085 1.1934-.1361 1.1593.749-.0341 1.2257-.0682 2.4854-.1705 3.711-.1023.9193.2387 1.6684.7842 2.3153.4773.5447.5796 1.1235.4432 1.7704-.2046.9192-.9547 1.1916-1.6706 1.3959-.5797.1702-1.057-.2383-1.3297-.681-.8865-1.532-2.3526-1.8385-3.921-1.9406-1.3297-.1021-2.6935-.1021-4.0572-.1021-.8865 0-1.773.1702-2.6254.2723-.6137.0681-1.2615.0681-1.807.1022-.4773-.6129-.4432-1.0895.0341-1.43.5455-.3745 1.091-.817 1.7048-.9873.8182-.2383 1.6706-.3745 2.523-.4086 2.182-.034 4.3982.034 6.5803.0681.1364 0 .2387 0 .4091-.034zM138.297 343.3443c.1364-.3405.1705-.5788.3068-.715 1.2616-1.0895 2.5572-2.0428 4.296-2.145.9547-.068 1.9093-.102 2.864-.2382.341-.034.8183-.2384.9887-.5107 1.2957-1.9747 3.205-2.6216 5.4552-2.7237.716-.034 1.4661-.3065 2.148-.5448 1.0569-.3745 2.0798-.4426 3.1026-.034.1705.068.341.2383.5456.4085-1.4661 1.5662-3.0345 2.8259-5.1825 3.0983-.6137.068-1.1933.1361-1.7729.2723-.9547.2383-1.6366.8171-1.9775 1.7364-.4432 1.1576-.9888 1.464-2.182 1.3278-.682-.0681-1.3298-.2383-2.0117-.2724-.8183-.034-1.6365-.034-2.4548.034-.9547.0682-1.9093.2724-2.864.3405-.341.1362-.75 0-1.2615-.034zM183.405 385.6983c0 1.3279-.716 2.0769-1.9434 2.3833-.9887.2383-2.0116.3745-3.0003.6128a87.3477 87.3477 0 0 0-3.9891 1.1235c-.307.1022-.5456.4426-.8524.5448-.8524.2723-1.6025-.034-2.2162-.647-.2046-.2042-.341-.4425-.5114-.7149-.9888.0681-1.9775.1702-2.9663.2383-.716.0681-1.432.2043-2.1139.1362-.375-.034-.75-.3745-1.091-.5787.9888-1.7364 2.523-2.2811 4.1937-2.5876.5455-.1021 1.1251-.1702 1.6706-.3064.6478-.1702 1.2615-.1362 1.8412.2043.1704.1021.341.2042.4773.2042.9546 0 1.9093.0341 2.8299-.102 1.6024-.2724 3.1708-.647 4.8414-.5789.9547.034 1.8753-.3064 2.8299.0681zM98.5781 398.806c1.1933-1.9066 2.2844-2.3493 4.296-1.9066.5114.102 1.0228.2042 1.5342.3064.7842-.6129 1.5684-1.1916 2.3526-1.7704 1.091-.8171 2.3525-.8852 3.6481-.8852.9206 0 1.8412 0 2.7617-.034.8865-.0341 1.773-.1363 2.6253-.1703 1.2956-.034 1.3638.034 1.3979 1.464-1.9093.8171-3.8186 1.7363-6.0348 1.7363h-1.1592c-.8865 0-1.5684.3746-2.0457 1.1236-.2386.3405-.4773.715-.7842.9873-.9205.8852-1.7047 1.464-3.3413.715-1.2274-.5447-2.523-.9533-3.9209-.9533-.375.034-.8183-.3745-1.3297-.6128zM207.7836 313.0767c.4091-.5448.8523-1.0555 1.2615-1.6002.5796-.715 1.3638-1.0214 2.2162-1.0895.3409 0 .6818.1362.9887.3064.3068.1702.4091.4767.1705.8171-.1364.2043-.2728.4426-.4092.6129-.716.9192-1.1592 1.8725-1.2956 3.0641-.1705 1.43-2.1139 2.2811-3.3754 1.6683-.2045-.1021-.3409-.3405-.5114-.5447-.8865-1.1576-2.0116-1.6683-3.4436-1.0895-.341.1362-.6819.2383-1.0228.3064-2.0798.3745-4.0914.4426-5.8644-.9874-.1022-.102-.2386-.1702-.341-.2723-.4772-.4426-.6136-.9533-.409-1.3278.2045-.3745.9546-.681 1.432-.4767 1.8751.9193 3.8186.5448 5.6256-.034 1.7388-.5788 3.2049-.3064 4.671.5447.0682.034.2046.0681.3069.1022zM158.686 57.219c.8865-1.0555 2.4207-1.0215 3.3413-.2384.6478.5448 1.3638.9874 2.0457 1.498.6137.4767 1.1933.9874 1.8411 1.5662 1.432-.1362 3.0686-.2383 4.7392-.4086.6819-.068 1.1933.1362 1.6707.5107.6478.4767.6137.9533-.1023 1.2597-.8865.3745-1.807.6129-2.7276.8852-.6137.1703-1.2274.3065-1.8411.4767-.8865.2383-1.6025.6469-2.0116 1.6002-.5456 1.2937-1.8752 1.464-2.864 1.1916-1.2956-.3745-1.9093-1.6342-1.057-2.928.682-1.0554.716-1.0895-.0681-1.9747-.9206-1.0895-1.9094-2.0768-2.864-3.1323 0-.1361-.0341-.2042-.1023-.3064zM17.943 418.962c-.1023-.9534.3068-1.6002 1.3296-2.0428 1.7389-.715 3.58-.8852 5.4211-.5107.2728.068.5456.1021.7842.1702 1.1592-1.8045 2.523-3.3706 4.1596-4.5963.7501-.5447 1.5002-1.1575 2.5571-1.1916.8865-.034 1.432.2383 1.807.9874-2.2161 1.1916-3.8186 2.962-5.1142 5.0048-.375.6128-.5796 1.3618-.7842 2.0768-.375 1.1916-1.7388 2.0087-2.9321 1.7023-.2728-.068-.5796-.3064-.7501-.5447-.716-.9874-1.773-1.1576-2.8299-1.1916-1.1592 0-2.3867.102-3.6482.1361zM54.6968 338.5442c.6478-1.6001 1.1933-3.1322 1.8752-4.5962.2046-.4426.6137-.8852 1.0229-1.1576.716-.4766 1.5342-.034 1.7729.8171.2727.9873.1023 1.9066-.4091 2.7237-.5115.8171-.5797 1.6342-.1023 2.4854.2386.4766.4091.9874.4773 1.498.2387 1.5662-.9888 2.4854-2.4548 1.8726-.4092-.1702-.8524-.3405-1.2957-.4767-.9205-.2723-1.7388-.068-2.523.4426-.6137.4086-1.2615.7831-1.9434 1.0895-.7842.3745-1.5684.3064-2.3525-.2042-.0682-.647.2045-1.1576.6819-1.5321.8182-.647 1.6706-1.2938 2.523-1.9407.8524-.681 1.807-.9192 2.7276-1.0214zM134.479 288.1547c.4091-1.8044 1.3297-3.3025 2.6253-4.5622.4433-.4426 1.057-.715 1.773-.6128.6477.068 1.0569-.3064 1.3297-.8512.3409-.6128.6137-1.2597.9205-1.9066.341-.8171.9888-1.2937 1.773-1.5661 1.3638-.4767 2.7616-.9193 4.1595-1.3619 1.057-.3404 1.1933-.2723 2.0457.681-.4773 1.0214-1.2956 1.7363-2.3184 2.179-.5456.2382-1.1252.4085-1.7048.6128-1.432.5106-2.2503 1.6342-2.2162 3.1322 0 .3064-.034.6469-.034.9533-.0682 1.1916-.9888 1.8045-2.114 1.3619-.1704-.0681-.3068-.1362-.4773-.2043-1.432-.4426-1.5001-.2724-2.3525.5447-.5796.5788-1.2274 1.0555-1.8411 1.6002-.5115.5107-.9547.4767-1.5684 0zM21.9652 440.8528c-.2727.6809-.8523 1.0554-1.5 1.2597-1.5685.4766-3.1369.9192-4.7052 1.3618-1.2274.3405-2.489.5107-3.6482 1.1576-1.2274.681-2.182.4085-2.7957-.749-.5456-1.0555-1.432-1.5321-2.489-1.8385-.9546-.2724-1.7388-.647-1.6706-1.9747.3068-.3405.8523-.6129 1.5342-.5788 1.5343.034 3.0345.2043 4.296 1.2597.2728.2383.7842.2383 1.1933.2043 1.1252-.1362 2.2503-.3745 3.3754-.5107a108.14 108.14 0 0 1 4.7733-.4086c.6478-.068 1.2615.1703 1.6365.8172zM57.084 54.3585c.0341-1.7023.5796-3.0982 2.0116-4.0175.4432-.2724.9206-.5447 1.432-.681.5114-.1361.8183-.3744.9887-.851.0682-.2384.2046-.4427.2728-.681.8183-2.2811 2.148-4.2218 3.8868-5.856.8865-.8511.9888-.8511 2.1821-.2724.2727 1.0895-.3751 1.9407-.8183 2.8259-.5455 1.0214-1.2274 2.0087-1.7388 3.0301-.2728.5448-.341 1.2257-.4092 1.8385-.1023 1.3278-.9546 2.2471-1.7729 3.1663-.2046.2384-.75.3065-1.091.2384-1.1934-.2043-2.148.2383-3.0686.8511-.5455.4767-1.1592.6809-1.8752.4086zM120.0575 422.1275c-.7842.4767-1.5343.9533-2.2502 1.464-.9888.6809-1.773 1.43-1.807 2.8258-.0342 1.3619-.682 1.8385-2.148 1.9066-.2387 0-.5797-.1362-.7501-.3064-.5456-.5447-1.1934-.9873-1.5343-1.7364-.1705-.3745-.5796-.715-.9547-.9192-1.0569-.6128-2.182-1.0554-3.4095-1.1576-.409-.034-.8182-.0681-.8864-.5788-.0341-.4766-.0341-.9873.5114-1.2597.6819-.3405 1.3297-.5788 2.148-.5107 1.432.1362 2.7958.4426 4.0232 1.2597.1023.0681.2727.1022.4432.1702.9547-.9532 1.9775-1.8044 3.2731-2.247.5796-.2043 1.2274-.3405 1.8411-.3745 1.057-.034 1.3298.2724 1.5002 1.464zM108.6027 328.943c.5115-1.1236 1.0229-2.213 1.5343-3.3366.4773-1.0554.9547-2.1109 2.0116-2.7918 1.1593-.749 1.6025-.681 2.4208.5788-.1705.2724-.341.5788-.5797.8171-.6478.783-1.0569 1.6683-1.3638 2.6216-.5114 1.498-1.0569 2.996-1.2956 4.5962-.1363.8512-1.1933 1.4981-2.0457 1.2257-.75-.2383-1.466-.5107-2.148-.9192-1.1592-.715-2.3866-.8172-3.6822-.5788-.4091.068-.8183.068-1.2274.068.1023-1.8725.7842-2.5194 2.2844-2.8258 1.1592-.2383 2.148-.1021 4.0913.5447zM135.3651 192.7568c.3069-.4426.6137-.9192.9888-1.3618.4773-.5107.9546-1.0214 1.5001-1.464.4774-.3745 1.2274-.3064 1.6025 0 .4773.3745.5796.9533.2387 1.6342-.2046.4426-.4433.8852-.7842 1.2597-.4092.4767-.5455.9193-.4092 1.5662.2728 1.1916-.6137 2.7577-2.148 2.8599-.375.034-.6818.034-.9887-.2043-1.1592-.9193-2.4548-1.0555-3.8868-.9193-1.0229.1022-2.148-.034-3.1367-.3064-.6138-.1702-1.091-.8171-1.6366-1.2257.4091-.9192.8865-1.3278 1.807-1.3618 1.807-.0681 3.614-.3064 5.387-.4426.4774-.0681.8865-.034 1.4661-.034zM149.4132 244.9164c-.2387.2383-.4432.4766-.6478.6469-1.1933 1.0214-2.4207 1.9746-3.58 3.03-.5455.5108-.9887 1.0896-1.466 1.7024-.8183 1.0214-1.1593 2.179-.8865 3.4727.2046 1.0214-.4092 1.9066-1.398 2.179-.75.2043-1.5342 0-1.8751-.715-.4433-.8511-1.091-1.3278-1.9434-1.7023-.7501-.3405-1.4661-.783-2.2844-1.2257 1.3979-1.7363 3.1026-1.1916 4.7392-.8511 1.0228-2.3152 2.6594-4.0175 4.5687-5.4815.8524-.6469 1.9434-1.0214 2.9663-1.43.5114-.2042.7501-.068 1.807.3746zM132.6733 308.7533c-.5455.0341-.9888.0681-1.5343.1022-.1023-1.1576-.2387-2.213-.341-3.2344-.1022-1.7024.9206-2.6216 2.2844-3.3706.2046-.1022.4432-.2383.5796-.4086.4432-.5447.9206-1.0895 1.3297-1.6683.6478-.9192 1.4661-1.6342 2.3867-2.247.8523-.5788 1.6024-1.2938 2.4207-1.9406.5455-.4427 1.1933-.5107 1.3979-.0681.1705.3745.3409.9192.2387 1.2937-.2728 1.1236-.8865 2.0768-1.8753 2.7578-1.1592.817-2.2161 1.7704-2.6594 3.2003-.0682.2043-.2386.5107-.4091.5788-.8524.2724-1.3297 1.0555-2.0798 1.396-.8865.4085-1.2615 1.1235-1.3979 2.0087-.1364.5107-.2386.9873-.341 1.6001zM191.4193 92.4563c-.4432-.0681-.7841-.0341-1.0228-.1702-.8524-.4427-1.6025-.1022-2.3526.2042-.4432.2043-.8523.5107-1.3297.681-.4432.1702-.9546.2723-1.432.2723-.4773.0341-.6478-.3064-.4091-.6809.8865-1.43 1.9434-2.7237 3.5459-3.3706.8524-.3404 1.2615-.9192 1.6024-1.7023.6137-1.3619 1.2615-2.6897 2.0457-3.9494.6478-1.0554 1.773-1.6002 3.0004-1.8385.3068-.068.6478 0 .9205.1021.1364.0341.3069.3405.2728.4767-.1364.5107-.1705 1.0554-.7501 1.3278-.75.3405-1.1251.9193-1.3638 1.6683-.4773 1.464-1.0228 2.8599-1.057 4.426-.034.8512-.4432 1.5661-1.0569 2.1109-.1704.2043-.4773.3404-.6137.4426zM109.214 369.9004c-.034-2.0087.7842-3.3365 2.5571-3.8813.8183-.2383 1.1934-.783 1.5002-1.43.3069-.6468.6137-1.2937.9206-1.9065.5114-1.0214 1.3638-1.7023 2.4548-2.0428 1.5002-.4426 3.0004-.8852 4.5005-1.2938.7501-.2042 1.1252-.068 1.8071.4426-1.2615 1.2257-2.3867 2.5875-4.1596 3.1663-.3069.1022-.5796.2724-.8865.3405-1.2956.3064-1.8411 1.2597-1.9775 2.4513-.1705 1.3619-1.1251 2.0428-2.2162 2.4514-1.0228.4085-2.0456.715-2.9321 1.4299-.4092.4086-.9206.7491-1.5684.2724zM162.744 227.6895c.341-1.2938 1.0229-1.9066 2.3526-1.8044 1.432.102 2.7957.4085 4.0573 1.1575.9546.5788.9546.5448 1.7047-.2043.9547-.9873 2.0457-1.7704 3.4095-2.0087.4091-.0681.8523-.2383 1.091.3064.2387.5107.2728.9533-.1364 1.3619-.4091.4426-.8523.8511-1.2956 1.2597-.6478.5788-1.0228 1.1916-.9205 2.1109.1364 1.1575-.6478 2.0087-1.7389 2.1449-.5796.068-1.091-.0681-1.5001-.5788-.8865-1.0895-1.9775-1.9406-3.3072-2.4513-.6479-.2384-1.3638-.3405-2.0457-.4767-.6138-.1021-1.2957-.1362-1.6707-.8171zM188.1447 253.9383c-.375-.647-.7842-1.3278-1.1592-2.0088-.4774-.9533-.3069-1.3618.5796-1.8725.375-.2043.6478-.1362.8865.034 1.125.8171 2.2502 1.6343 2.7616 3.0302.2046.5447.5456.8852.9547 1.2256.5455.4426 1.057.9533 1.6366 1.3619.4773.3404 1.057.6128 1.6024.715.716.1361 1.2615.4085 1.7389.9533.0341 1.3278-.6137 1.9406-2.0457 1.8725-1.2615-.068-2.489-.4086-3.4095-1.2938-.6478-.6468-1.2956-.9873-2.2503-.6128-.4091.1702-.9887.1021-1.432-.0681-.6137-.2383-.9205-1.1576-.6478-1.8385.1705-.4766.4773-.9192.7842-1.498zM45.2537 39.4124c-.1364.6128-.2728 1.2597-.4432 1.8385-.2728.9193-.6138 1.8045-.8183 2.7237-.1023.5448-.0682 1.1236 0 1.6683.1364 1.2257-.375 2.213-1.2956 2.6556-.716.3405-1.2956.0681-1.773-.3064-.5796-.4426-1.091-.4426-1.6706-.2043-.5115.2043-1.091.3064-1.5684.6129-.6478.4426-1.1592 0-1.6706-.1703-.1023-.034-.2046-.5107-.1364-.715.2045-.783.75-1.3278 1.466-1.7363 1.0229-.5448 1.9435-1.2597 3.1027-1.5661.2728-.0681.5114-.5448.6819-.8853.6478-1.464 1.1933-2.962 1.8411-4.392.2046-.4085.682-.7149 1.057-.9873.1363-.1021.4091-.034.5796.0681.4773.3405.6819.783.6478 1.396zM190.09 144.4458c.9206-1.0214 1.7388-1.1575 2.7958-.5447.5796.3405 1.091.783 1.7388 1.2257.341-.3405.682-.647 1.0229-1.0214.8864-1.0214 1.9434-1.7704 3.1708-2.247 1.3297-.5108 2.6935-.647 3.955.5106-.6137.3745-1.1592.749-1.7388 1.1235-1.3297.7831-2.6253 1.6002-3.3413 3.0302-.1705.3404-.375.6809-.4433 1.0554-.4091 1.6683-2.4207 2.3152-3.6481 1.0895-.8524-.8171-1.5684-1.7023-2.3185-2.5875-.4773-.5448-.7842-1.0895-1.1933-1.6343zM65.5059 150.71c.1023-.2724.1705-.4427.2046-.5789.3068-1.3278.4773-1.498 1.841-1.498 1.1593-.034 2.3186 0 3.58 0 .1364-.5448.307-1.2257.4774-1.9407.2727-1.1235.7842-2.1449 1.7047-2.8599.4774-.3745 1.1593-.5447 1.7389-.6128.716-.068 1.1592.6128.9546 1.2938-.0682.2724-.2386.5107-.375.749-.8183 1.3619-1.2615 2.8599-1.2615 4.46 0 .1363-.0341.2724-.0341.4086-.0341 1.7364-1.2274 2.247-2.7276 1.7364-1.1933-.4086-2.4208-.5788-3.6482-.715-.7842-.068-1.6024-.034-2.4548-.4426zM145.8005 227.859c-1.091.6128-2.1479 1.1575-3.1026 1.7704-.6137.4085-1.1592.9192-1.6706 1.464-.5115.5787-.8524 1.2256-.5115 2.1108.2728.749-.4773 2.213-1.1933 2.4514-.2727.1021-.6478.068-.9205-.034-.2728-.0682-.4774-.2724-.7501-.4086-1.3297-.681-2.6253-1.396-3.955-2.0769-.4774-.2383-.8865-.4426-1.0229-.9873.6478-1.2597 1.0228-1.396 2.2503-.9533.7842.2724 1.6024.4766 2.2502.681.8524-1.0215 1.5343-2.0088 2.3867-2.86 1.2274-1.2257 2.6935-2.0428 4.4323-2.3832 1.3297-.1703 1.4661-.1022 1.807 1.2256zM148.9004 287.202h.2045c1.1593.068 1.091.068 1.432-1.0555.5455-1.8385 1.1593-3.643 2.523-5.073.2046-.2382.4774-.4085.7501-.5787.3069-.2383.6137-.4426.9547-.1362.2727.2724.375.6469.2045 1.0895-.2386.5447-.409 1.1235-.6137 1.7023-.375 1.1916-.6818 2.3832-1.0569 3.5749-.2046.6128-.1364 1.1576.1364 1.7363.2386.4767.4091.9874.5114 1.498.1023.4767.1023 1.0215-.4773 1.2939-.5796.2723-1.2956.5447-1.807.1021-1.1934-1.0895-2.6935-1.43-4.1596-1.8045-.4433-.1361-1.057-.1362-1.091-.817-.0342-.5789.5455-1.2939 1.1933-1.43.4091-.1022.8523-.0681 1.2615-.1022 0-.034 0 0 .034 0zM185.2131 273.9236c-.1022.3065-.2045.5448-.3409.9533-1.2274-.1361-2.4548-.2723-3.6823-.4426-.5114.6129-.8864 1.2598-1.7047 1.5662-.9887.3745-1.8752.5447-2.864.1021-.2045-.1021-.4773-.1021-.716-.1362-1.2274-.1702-2.4548-.3064-3.6822-.4766-.5796-.1022-1.1933-.3745-1.2615-.9874-.1023-.6128.4432-.9873.9546-1.2937.682-.4086 1.4661-.2043 2.1821-.2043 1.2615-.034 2.5571 0 3.8186-.0681.2387 0 .5456-.1702.7501-.3405 1.091-.8511 2.3526-.9873 3.6482-.8511.3409.034.6819.2383.9205.4426.6138.5107 1.2275 1.0895 1.9775 1.7363zM82.2461 386.0048c0-1.3959.5114-2.4173 1.3979-3.2684.5455-.5107.7842-1.0555.8524-1.8385.1023-1.1236.4432-2.213.7842-3.3025.1363-.4426.5455-.8171.7841-1.2257.341-.5447.8524-.5447 1.2956-.3745.4774.2043.7842.6469.716 1.1916-.1022.8512-.2386 1.6683-.341 2.5194-.1022.749-.1363 1.43.2728 2.145.6138 1.0895.2728 1.9406-.9546 2.3832-.716.2383-1.398.4426-1.773 1.1916-.3409.681-.5114 1.3619-.4432 2.145.0341.2724-.034.5787-.1705.783-.4773.7831-.9546.7831-1.5342.0681-.6137-.749-.8524-1.6002-.8865-2.4173zM27.8987 258.399c-.2386.9873-.8524 1.7704-1.5684 2.4854-.5455.5107-.8182 1.0214-.5455 1.8725.375 1.1236-.6478 2.5535-2.0116 2.7237-.2386.034-.5455-.1702-.716-.3745-.9546-1.1576-2.2843-1.7704-3.614-2.3832-1.0229-.4426-2.0116-.9874-2.8299-1.8045.8865-1.43 2.182-1.2257 3.4436-.9873.7842.1362 1.5684.4766 2.4207.749.716-1.0214 1.7048-1.8045 2.8299-2.3833.4432-.2042.9547-.3064 1.3979-.4426.5796-.1702.8865.1022 1.1933.5448zM183.8488 289.3124c-1.2956.4086-2.5913.8512-3.8869 1.2598-.9887.3064-2.0115.5106-2.9662.8851-.5455.2043-1.091.5789-1.4661.9874-.5114.5788-1.091.715-1.7048.5447-.75-.2042-1.5001-.5106-1.9433-1.2256-.3069-.5107-.716-.715-1.2957-.749-.9887-.0681-1.1933-.5448-.6819-1.396.8524-1.3959 2.6595-1.3959 3.6823-.783.6137.3404 1.091.3064 1.7048.1362 1.1592-.3064 2.3525-.5788 3.5458-.749 1.2615-.1703 2.523-.2384 3.8186-.2384.9206-.068 1.0911.1703 1.1934 1.3278zM7.8164 354.3752c.3069-.9193.8183-1.2938 1.6366-1.1917.4773.0681.9546.2724 1.3979.4426.375.1703.75.4086 1.091.647.0682.034.1364.034.3069.102.2727-.3744.5796-.817.9205-1.2256 1.057-1.3278 2.3185-2.3832 4.0232-2.7918.716-.1702 1.398-.0681 2.0798.5447-.341.3405-.6478.647-.9888.9193-.6137.5107-1.2956 1.0214-1.8752 1.5661-.7842.749-1.3297 1.6683-1.5683 2.7237-.1023.4426-.2728.8852-.375 1.3278-.2387.9193-.9547 1.1576-1.739 1.2598-.7841.1021-1.1933-.4086-1.432-1.0214-.3409-.8852-1.1591-1.3278-1.807-1.9066-.5796-.4426-1.125-.9193-1.6706-1.396zM178.3244 257.1727c-.4091.3064-.8523.5448-1.2274.8852-.6137.5788-1.2274 1.1916-1.7388 1.8385-.2046.2383-.2046.6469-.2046 1.0214-.034 1.0895-.4432 1.9747-1.5684 2.213-1.2615.2724-2.1138 1.0895-3.0685 1.8045-.8524.6469-1.6707 1.3278-2.148 2.3151-.1023.1703-.341.3065-.5455.4767-.4773-.4767-.6137-1.0214-.4091-1.498.3068-.7831.6478-1.6002 1.1592-2.2471.7842-.9874 1.773-1.8385 2.6253-2.7578.2387-.2383.4773-.5107.6137-.817.7842-1.7705 2.182-2.9621 3.7163-4.0176.2046-.1361.4433-.2042.682-.2723 1.1251-.3745 1.5001-.2043 2.1138 1.0554zM194.078 128.8515c.2387-.5107.4432-.9192.6819-1.3959 1.9775-.1021 3.7845.1362 5.2165 1.6002.3069.3064.5455.3064.9547.2043 1.8752-.5448 3.7504-1.0554 5.6256-1.5661.3069-.0681.6138-.0681.9547-.1022.375-.034.6137.1362.716.4767.1364.3745.2386.783-.1364 1.0554-.4432.3064-.8865.5788-1.3638.783-.7842.3065-1.6365.4767-2.4207.7831-.8524.3405-1.6707.7831-2.523 1.1236-.6138.2723-1.2275.5447-1.8753.6468-1.1592.1362-1.7388-.3404-2.0116-1.498-.1704-.715-.716-1.1235-1.3297-1.43-.375-.2042-.7842-.3404-1.1933-.4766-.4091-.034-.7842-.068-1.2956-.2043zM121.7625 315.9371c.2046-1.9746.8183-3.643 1.9775-5.1069.8183-.9873 1.8411-1.396 3.1026-.9193.5455.2043.8865.4767.716 1.1576-.1364.0681-.3068.2043-.5114.2724-1.8752.715-2.523 2.281-2.8299 4.0515-.1364.749-.1364 1.498.1705 2.2811.1705.4426.375 1.0554-.1705 1.464-.4773.3405-1.057.4086-1.6024.2043-1.1593-.4086-2.3185-.8171-3.4777-1.2597-.5455-.2043-1.057-.4086-1.5684-.681-.4432-.2723-.4432-.5447-.1364-.9532.4092-.5788 1.0229-.749 1.6707-.681.6478.0681 1.2615.1702 1.9093.2383.2387 0 .4773-.034.75-.068zM128.3092 269.5317c.716-.783 1.3638-1.6683 2.1821-2.3152.682-.5787 1.5684-.9873 2.3867-1.3278 1.0228-.4426 1.7047 0 2.0457 1.1576-.4774.4086-.9547.8512-1.4661 1.1916-1.1592.7831-1.773 1.9066-1.9775 3.2685-.2387 1.6683-1.1933 1.9406-2.5912 1.5661-.341-.1021-.682-.2383-.9547-.4426-.7842-.6128-1.6366-.6128-2.523-.3404-.1364.034-.2728.1361-.4091.1361-.341-.034-.716-.068-.9888-.2383-.375-.2383-.0682-.5788.034-.8511.4433-1.1576 1.2616-1.7364 2.5231-1.7364.5796-.0681 1.1251-.0681 1.7388-.0681zM83.577 292.581c-.2728.5107-.5456 1.0214-.8184 1.5661-.5114 1.0555-.716 2.1109-.2045 3.2685.3068.6809.1022 1.2597-.341 1.8385-.6137.783-1.3297 1.2257-2.3525 1.1916-.682-.034-1.1934.3745-1.6707.8171-.5455.5107-1.2956.6128-1.5683.1021-.2728-.4766-.4774-1.0894-.4092-1.6001.1023-.8171.6478-1.464 1.432-1.8726.4773-.2383.9206-.5107 1.432-.783.1364-.7831.3068-1.5662.4091-2.3833.2046-1.1916.9206-2.0428 1.9093-2.6556.716-.4086 1.5002-.2383 2.1821.5107zM153.1277 263.3014c.9205-1.1576 1.7388-2.2471 2.5912-3.3026.2386-.3064.6137-.4766.9205-.715.5114-.4425 1.057-.3404 1.5684 0 .5114.3065.5796.613.1705 1.0215-1.0229 1.0554-1.6025 2.4173-2.2162 3.711-.2387.5107-.2387 1.0895-.341 1.6683-.1363.715-.2386 1.3959-1.091 1.6342-.8524.2383-1.5002.0681-2.148-.4766-.7842-.6129-1.5683-1.1917-2.3866-1.7364-.716-.4766-.9547-.8852-.7501-1.43.2727-.7149.9206-1.0894 1.7047-.9532.341.068.682.1362 1.0229.2723.375.0681.6819.2043.9547.3065zM179.279 47.9582c.1364-1.0555.6137-1.6683 1.6707-1.7023.6477-.034 1.0228-.2724 1.3978-.7831.5796-.783 1.2274-1.498 1.773-2.2811.375-.5448.9205-.749 1.466-.9874.6138-.2723 1.3298.4086 1.2616 1.1576 0 .2383-.0682.5107-.1705.715-.4092.9193-.8865 1.8385-1.2956 2.7918-.341.8512-.6137 1.7364-.9547 2.5875-.4091 1.0555-.8183 1.2257-1.9434 1.1576-1.091-.068-1.807-.749-2.6253-1.2938-.3068-.2042-.375-.8852-.5796-1.3618zM154.528 223.8072c-.5114-.2724-.8865-.4085-1.2615-.6469-.716-.4426-.8865-1.2256-.9547-1.9406-.1023-1.2597.1023-2.5195.7842-3.643.4773-.783.7842-1.6002.9888-2.5535.4091-1.9406 1.6365-3.2684 3.58-3.8132 1.0228-.3064 1.2955-.068 1.466.681-.4773.6468-.75 1.1576-1.1251 1.5661-.5796.5448-.8865 1.0895-.8524 1.9406.0341.681-.2046 1.464-.8524 1.8726-1.432.9192-1.6365 2.3152-1.7388 3.7792-.0682.7149 0 1.4299 0 2.1449.034.1702 0 .3404-.0341.6128zM139.8322 263.301c1.7047.034 2.2503 1.464 3.3754 2.1109.2727-.3745.5796-.749.9206-1.1236.1704-.2042.409-.3745.6137-.5447.3409-.2724.716-.3745 1.057-.068.3068.2723.3068.6127.2045.9872-.375 1.3279-.4433 2.6216-.2387 3.9835.1023.6128.0682 1.2597.0341 1.9066-.034.5788-.375 1.0214-.9547 1.1235-.75.1362-1.5001.2043-2.0115-.5447-.2046-.3065-.4092-.715-.4433-1.0555-.0682-1.2937-.6819-2.3492-1.466-3.3025-.5797-.715-1.057-1.498-1.1593-2.4513 0-.2724.0341-.5788.0682-1.0214zM115.0121 115.4038c-.1364-1.1575-.2045-2.179.2046-3.2003.3068-.749.75-1.3619 1.3979-1.8385.5114-.3745.9546-.2383 1.091.4085.0682.3745.0682.7831 0 1.1576-.2046 1.1916.0341 2.3492.5455 3.4047.682 1.4299.4433 2.3491-.9205 3.0982-.2728.1362-.716.2383-.9888.1021-1.2274-.5788-2.3525-.1702-3.4777.2724-.375.1362-.716.3405-1.091.4426-.2387.068-.6137.034-.75-.1362-.1365-.1362-.1365-.5107-.0342-.749.375-1.1235 1.2956-1.7704 2.2844-2.247.5114-.2724 1.091-.4427 1.7388-.715zM96.4299 153.434c.8864.1021 1.841.1702 2.8298.2723.9206-1.2256 1.807-2.4513 2.7276-3.677.375-.5107 1.6366-.8852 2.182-.6128.2388.1021.4774.4426.5456.681.0682.2723.0682.6468-.0682.9192-.7841 1.7363-1.6365 3.4387-3.0344 4.8005-.8183.8171-1.7389 1.1916-2.898.8171-.4774-.1362-.9888-.1702-1.432-.3745-.4092-.1702-.8865-.4426-1.057-.8171-.2387-.5447-.4092-1.2597.2046-2.0087zM206.6923 169.844c1.1933-.5107 2.114-.1703 2.9663.749.8523-.5107 1.6365-1.0214 2.4548-1.464.716-.3745 1.4661-.681 2.2162-1.0214.1023-.034.2045-.068.3068-.068.8524-.1022 1.432.068 1.5684.5446.2387.681-.2728 1.0214-.75 1.362-.9888.7149-2.0117 1.4639-2.9664 2.247-.4432.3404-.8182.783-1.091 1.2597-.7842 1.2937-2.1139 1.43-3.1026.2724-.4774-.5448-.9206-1.0555-1.3638-1.6002-.6137-.681-.9206-1.43-.2387-2.2811zM188.485 235.383c.2728-.2382.5456-.4085.7842-.6127 1.091-.9874 2.4208-1.2598 3.8527-1.3279.4092-.034.7842.034.9206.5107.1705.5107.2728.9533-.2046 1.3619-.2045.1702-.375.3405-.5796.4426-1.2274.6469-2.0798 1.7023-2.864 2.7918-.5455.715-1.6706.9533-2.4889.3745-1.0228-.715-1.9775-1.498-2.9321-2.3151-.716-.6129-.7501-.9533-.341-1.5321.5114-.749 1.1933-.9874 1.9434-.6469.3069.1362.6137.3745.9206.5107.2727.1702.5796.2724.9887.4426zM87.7695 326.5937c-.716-1.9407-.4091-3.677.9888-5.107.4773-.5107.75-1.0554 1.057-1.6683.5454-1.1576 1.432-1.8725 2.557-2.4173.1705-.1021.4092-.102.6137-.102.5797.034 1.1934.068 1.432.6808.2387.5788.1364 1.1917-.375 1.6343-.7842.715-1.1592 1.6342-1.5002 2.6215-.3068.8852-.8524 1.7364-1.9093 2.145-.5114.2042-.9547.715-1.2956 1.1575-.4092.5788-.8865.8852-1.5684 1.0555zM74.4725 198.3065c.5455-.9874.9887-1.9066 1.5342-2.7238.5456-.817 1.3297-1.43 2.2503-1.8725.2386-.1022.5455-.1362.8183-.1362.5796.068.75.3405.4773.8852-.3068.681-.6819 1.3278-1.0228 2.0087-.4774.8853-.9547 1.7364-.7501 2.8259.0682.2724-.2046.6469-.375.9192-.0683.1022-.2728.1703-.307.2724-.2727 1.0555-1.1592 1.0214-1.8752.8852-.9546-.2043-1.841.1022-2.7275.2384-.1705.034-.341.1361-.5115.1361-.6478 0-1.0228-.4766-.7842-1.0554.3069-.8852.8183-1.6683 1.807-1.9747.5115-.1362 1.023-.2724 1.4662-.4085zM35.7062 381.7826c.716-.783 1.3979-1.5661 2.1139-2.247.9546-.8853 2.1139-1.43 3.4436-1.5322.2386-.034.4773.1362.716.2384-.1023.2042-.1364.4766-.3069.6468-.9547 1.0895-1.9434 2.145-2.898 3.2685-.5115.5788-.8865 1.2937-1.023 2.0768-.1022.5788-.4772.9193-1.0569 1.0554-.341.0681-.6819.1703-1.0228.2384-.6137.1021-1.3638-.1362-1.5684-.681-.375-1.0213-1.1933-1.6342-1.9434-2.3491-.5796-.5448-.5455-.5788.0682-1.0555.7501-.5788 1.5343-.4085 2.3185-.1362.4091.1362.7841.3405 1.1592.4767zM123.8081 335.6165c-.6137.681-1.432.681-2.148.9192-.8183.3065-1.6365.647-2.4207 1.0214-.2728.1362-.4773.4086-.716.6129-.75.6809-1.5002.749-2.3185.2723-.5114-.3064-.6137-.817-.6819-1.2597-.1364-.681-.4091-1.2597-.8182-1.8044-.1705-.2384-.2728-.5107-.375-.749-.2047-.749.4772-1.464 1.2614-1.2938.6137.1362 1.1592.3745 1.5343.8511.2727.3745.6478.4086 1.057.2724.4773-.1702.9546-.2724 1.3978-.4766.8865-.4086 1.773-.2043 2.6253-.0681.8183.1361 1.3638.783 1.6025 1.7023zM207.8847 214.3083c.2727-.3405.4773-.681.75-.9533 1.3639-1.43 3.1027-2.213 5.0461-2.4854.682-.1022.9547.3064.716.9873-.1705.5448-.6137.749-1.057.9874-.6818.4085-1.432.817-2.0456 1.2937-.6137.4767-1.057 1.0555-1.1593 1.9407-.1022 1.3278-.4432 1.498-1.807 1.3278-.1705-.034-.341-.034-.5114.034-.9547.3064-1.5343-.2723-2.0798-.9192-.1705-.2043-.2387-.4426-.4091-.6129-.6478-.6469-.341-1.3959-.2046-2.1108.1023-.5107.9547-.647 1.5684-.3065.375.1703.6819.4427 1.1933.8172zM170.178 256.1513c-.0682.9192-.4432 1.5321-1.091 2.0768-.8524.681-1.6707 1.396-1.9093 2.5876-.1705.783-.8865 1.1916-1.6707.9192-1.091-.3745-2.148-.8852-3.1026-1.498-.9206-.647-.6478-1.7023.4432-1.9747.4773-.1362.9888-.2724 1.466-.1703.6479.1362 1.0911-.1361 1.5684-.4766a25.2152 25.2152 0 0 1 2.2503-1.43c.6478-.4085 1.3297-.4766 2.0457-.034zM207.7163 358.461c-.9888.2723-1.8412.5106-2.6594.783-1.1252.3745-2.523-.034-2.9663-.9873-.2387-.5448-.3069-1.1576-.4091-1.7364-.0682-.4086-.1023-.8512-.1364-1.2597-.0682-.749.4432-1.498 1.1933-1.7023.6137-.1362 1.0228-.0681 1.3297.5787.5114 1.1236 1.091 1.9747 2.523 1.9407.4092 0 .9206.4086 1.2616.749.2045.2383.2727.715.2386 1.0554-.0682.2384-.341.4767-.375.5788zM175.1901 202.2906c-.4432.1021-.7842.3064-.9887.2043-.9206-.4426-1.9093-.2043-2.8299-.3745-.9887-.1703-1.9775-.3405-2.9322.034-1.2615-.3745-1.7047.6469-2.3184 1.3619-.2728.3064-.5114.6128-.8183.9873-.5796-.715-.75-1.3619-.4091-2.0768.4432-.9193.9546-1.8385 1.7729-2.4854.4432-.3745.9547-.6469 1.5684-.5448 1.6365.2724 3.273.5788 4.8755.8512.8183.1362 1.3298.6128 1.6707 1.3278.0682.1702.2046.3405.4091.715zM151.732 270.554c.4091-.2724.8864-.5108 1.2274-.8512.4432-.4086.9887-.3745 1.5002-.4086.3068-.034.5114.2043.5114.5448 0 .2383-.0341.5107-.1023.715-.2728.817-.4433 1.6001-.4773 2.4853-.0341 1.1236-.9888 1.6343-2.2503 1.2597-1.5343-.4766-2.6594-1.498-3.58-2.7237-.2386-.3064-.375-.817-.341-1.1916.1024-.9533 1.1252-1.3618 1.9435-.8511.3068.2042.5455.4426.8183.6468.2727.2043.5455.4426.7842.681 0-.1022-.0341-.2043-.0341-.3065zM185.2115 243.009c.9206-.4767 1.7389-.9193 2.5572-1.2938.3068-.1361.6819-.1702 1.0228-.1702.7501 0 1.0229.4767.6478 1.1235-.1364.2384-.375.4086-.5796.6129-.6478.715-1.2615 1.3959-1.6707 2.281-.716 1.6003-2.182 1.7364-3.3753.4086-.5456-.6128-1.091-1.1916-1.6707-1.8385.0682-.749.2046-1.43 1.091-1.7023.8524-.2383 1.432.3745 1.9775.5788zM128.65 326.4921c-.9205.4086-1.7047.783-2.523 1.1236-.6478.2723-1.1592.6468-1.5684 1.1916-.8864 1.0895-2.2843 1.0214-3.1367-.1362-.3068-.4086-.6819-.8171-1.091-1.1576-.4774-.3745-.4433-.8171-.2728-1.2257.1705-.4426.5455-.6809 1.0229-.5447.6137.1362 1.2274.3405 1.8752.5107.8864-.715 2.0116-.9874 3.1367-1.2257.8183-.1702 1.5684.1021 2.148.681.1364.2042.2386.4766.4091.783zM129.604 98.2443c0-.9192.5114-1.2597 1.2274-1.1916.9888.1021 1.4661-.3405 1.8412-1.1916.409-.9533 1.2955-1.498 2.1138-2.0088.6478-.4426 1.1934-.1021 1.1593.681 0 .3745-.1364.749-.2728 1.1235-.375.9533-.7842 1.8385-.8183 2.928-.034 1.498-1.3638 2.1449-2.7276 1.464-.341-.1703-.6819-.4086-.9887-.647-.5114-.3744-1.0229-.783-1.5343-1.1575zM174.5085 84.047c.0682.5789.0682 1.1236.1705 1.6683.2046.9874-.2386 1.7705-.75 2.4854-.341.4426-.8524.7831-1.6025.5107-.682-.2383-1.1252-.6128-1.1934-1.3278-.0681-.5107-.0681-1.0895 0-1.6002.2046-1.1575.3069-2.3492.9888-3.3365.2046-.3064.6137-.5788.9887-.715.7842-.2383 1.3297.1362 1.398.9533.034.4086 0 .8512 0 1.2938.034.068 0 .068 0 .068zM160.357 242.192c.716-.4426 1.3297-1.0214 2.0457-.5107.9205-.4426 1.7047-.9533 2.5571-1.2257 1.0229-.3404 1.3638-.1021 2.0457.9533-.5114.3745-.9887.749-1.5002 1.1236-.716.5447-.9205 1.3959-1.2956 2.1449-.2386.5107-.5114.9873-1.1251 1.1916-.9547.2724-1.8411-.3405-1.9775-1.2257-.1023-.6468-.1023-1.3278-.682-1.8044-.0681-.1362 0-.4086-.0681-.647zM203.352 234.4984c1.432-.681 1.773-.647 2.6594.3745.716.8511 1.3979 1.7704 1.8411 2.8258.2728.681.1023 1.2598-.4773 1.8045-.5455.5107-1.5684.681-2.0798.2724-.2386-.2043-.5114-.5788-.5114-.8853 0-1.1235-.5796-2.0087-.9888-2.962-.2386-.4426-.3068-.9533-.4432-1.43zM151.2202 255.0619v-2.0768c0-.681.2387-1.1576.75-1.3619.4774-.1702 1.1593-.034 1.5343.4426 1.057 1.2938 1.1934 3.2004.5797 4.5963-.2387.5447-.9206.8171-1.5343.715-.716-.1362-1.3297-.749-1.398-1.43 0-.3404.0342-.6128.0683-.8852zM207.1026 268.5103c-.3069.3405-.5455.715-.8524.9874-.341.2724-.6137.5447-.6819 1.0214-.0682.3745-.2386.749-.4432 1.0554-.375.5788-.9888.783-1.773.6129-.6137-.1362-.8523-.6129-.9205-1.1576a2.7554 2.7554 0 0 1 0-.749c.341-1.2257 1.6365-2.7237 3.273-2.7578.5115 0 .5115 0 1.398.9873zM26.4805 480.067c1.4942.7253 1.9788 2.0148 2.3423 3.3446.0404.1209-.2019.282-.3635.5642.7673.3626.7673 1.088.7673 1.8939 0 1.773-.0807 3.4655-.6461 5.1982-.7673 2.2969-2.0192 4.2714-3.6346 6.0848-.8885 1.0074-1.6558 2.0954-2.4634 3.1431-.8885 1.1283-.7673 2.4984-.727 3.8282 0 .6044.202 1.2492-.2423 1.8133-.0807.0806-.0807.2418-.0807.3627-.1212 1.8133-1.6558 2.7401-3.1904 1.8133-.9692-.5641-1.898-.5641-2.9077-.5641-.7673 0-1.4538.282-2.0999.7253-1.6558 1.1283-3.4327 2.0954-5.4519 2.579-2.948.7253-5.6134.2015-7.996-1.6522-.7674-.6044-1.4943-1.2089-2.1808-1.8939-.8077-.7656-.8077-1.5716 0-2.4984.1211-.1612.2019-.3224.3634-.5641 1.2923.3223 2.5442.8462 3.675 1.5715.9288.6448 1.898 1.2492 3.0692 1.3701.848.1209 1.6961.1209 2.4634-.2821 1.1308-.5641 2.2212-1.1283 3.2712-1.8133 1.1307-.7254 2.3422-1.2895 3.6749-1.5313 1.05-.1612 2.1404-.3627 3.2711-.5641.1616-.6851.4443-1.4104.5654-2.176.3635-2.3372 1.8577-4.07 3.1904-5.8833 1.4942-2.0148 2.9884-3.9894 3.5942-6.5683.4442-1.773.4442-3.4655.2019-5.1983-.0404-.2418-.0404-.4835-.0404-.7656-.1615-1.773-.1615-1.773 1.575-2.3372zM64.1603 454.6408c.8481-.2015 1.575-.7254 2.2615-.0403.6866.6447 1.1308 1.3297 1.05 2.2969-.1211 1.2088.1616 2.3774-.2423 3.5863-.525 1.5716-1.1307 3.0626-2.2615 4.2312-.7673.8059-1.575 1.6521-2.4634 2.3372-1.4943 1.1686-1.777 2.7804-1.8577 4.4729-.0808 1.2089-.2423 2.3372-.9288 3.3043-.5654.7656-1.1712 1.37-2.2616 1.37-.9288 0-1.2115.403-1.4134 1.3298-.3635 1.6522-.0808 3.1835.4442 4.7953.4846 1.491.6462 3.1028.9692 4.6744.6462 3.1431.3231 6.2862.0404 9.4294-.1211 1.2894-.4846 2.5386-.7673 3.8281-.0807.2821-.323.5239-.4442.7253-.2423-.0402-.323-.0402-.4039-.0402-1.4134-.5239-1.7365-1.5716-1.6557-2.982.1212-2.2969.1615-4.6341 0-6.931-.1615-1.8133-.6461-3.6266-1.05-5.44-.2827-1.2895-.6865-2.579-1.05-3.8684-.525-1.6925-.2827-3.4252 0-5.1177.3635-2.0954 1.5346-3.5461 3.473-4.3923.6058-.2821.9289-.6447.9693-1.2895.0808-.9268.323-1.8133.4846-2.7401.202-1.0477.7673-1.8537 1.4942-2.579 1.05-1.088 2.1404-2.1357 3.1904-3.2237 1.2923-1.2895 1.9788-2.9014 2.1403-4.7147.0808-.9671.202-1.9342.2827-3.0222zM98.4035 511.418c.3231-2.3775 2.0596-3.7073 3.5135-5.158 1.5749-1.5715 3.3115-2.982 5.0076-4.4326 1.0096-.8865 1.8173-1.8536 2.2211-3.1431.3231-.9671.727-1.894 1.0904-2.8208.0404-.1611.0808-.3223.1615-.4835.3635-.806 1.4539-1.491 2.1-1.37.6058.1208 1.1712 1.088 1.0904 2.0953-.2019 3.0223-1.2519 5.7221-3.4327 7.8981-1.1307 1.1283-2.423 2.0954-3.5942 3.1834-1.1307 1.0477-2.2211 2.1357-3.3115 3.264-1.1711 1.2089-1.4942 2.6596-1.2115 4.3118.0808.4432.0808.9268.0808 1.37 0 .9269-.7269 1.3298-1.4538 1.491-.6866.1209-1.4539 0-1.9385-.6447-.0808-.0806-.1615-.2015-.2019-.3224-.6462-1.491-1.9788-1.5313-3.3115-1.4507-.8885.0403-1.7365.2015-2.625.3224-1.8173.2015-3.5134-.403-5.2096-.8865-.848-.2418-1.6557-.6448-2.5038-.8463-.9288-.282-1.4538-.9671-1.9384-1.6924-.5654-.8462-.4443-1.7327.0403-2.6193.2424-.4029.5654-.6447 1.0097-.3626.4846.282.9692.6447 1.4538.8865.5654.2821 1.1711.4835 1.7365.685.9289.2821 1.8577.5642 2.827.6851 1.0499.1209 2.1403.282 3.1095.0403 1.575-.3627 3.0692-.2015 4.6038.0403.1615-.0403.3231-.0403.6865-.0403zM114.681 810.2967c-.0404-1.5313.323-2.0955 1.6557-2.6193.525-.2015 1.05-.3627 1.5346-.6045 1.4538-.7253 2.1808-2.1357 2.7058-3.5057 1.05-2.8208 2.3826-5.3595 5.0076-7.0519-.1615-.5642-.3634-1.1283-.525-1.6925-.4846-1.8939-.1615-3.7072.2019-5.6012.4846-2.5386.6866-5.158-.3634-7.6966-.3635-.8462-.6462-1.7327-1.0904-2.5387-.4038-.7253-.1615-1.3297.2423-1.8536.4038-.5238 1.0096-.3224 1.5346-.1612.5654.1612 1.0096.403 1.4538.8865 1.7769 2.176 2.6654 4.6341 2.5039 7.4549-.0808 1.2895-.0808 2.6192-.202 3.9087-.0807.8463-.4442 1.6925-.5653 2.5387-.0808.685-.0404 1.4104.0807 2.0954.1616.8462.3635 1.6522 1.3327 2.1357.9692.4836.8481 2.0149-.1211 2.6193a3.2853 3.2853 0 0 1-1.1712.4836c-1.6557.282-2.625 1.2492-3.3923 2.6998-.848 1.6522-1.2115 3.4655-2.2615 4.9968-1.373 2.0148-3.15 3.5058-5.4922 4.1908-.6058.1612-1.3327-.0806-1.9385-.2015-.4442-.0806-.8077-.3224-1.1307-.4835zM153.4881 498.3215c-.0807-1.3298.6462-2.0149 1.6154-2.2567 2.3019-.6044 4.0788-2.1357 6.0576-3.264 1.1308-.6447 2.2615-1.2491 3.5538-1.9342 0-.2821.0404-.7253 0-1.1686-.4038-2.5387-.7673-5.037-.6057-7.616.0404-.8462-.3231-1.7328-.4846-2.579-.2423-1.1686-.525-2.2969-.6058-3.4655-.0808-.7253.1212-1.491.2827-2.2163.0808-.4432.2827-.8462.7673-.8462s1.0096 0 1.3327.5642c.2423.4835.6461.9268.8077 1.4103.525 1.8537 1.05 3.7073 1.4942 5.561.1211.564.1615 1.1685.2019 1.7327a50.811 50.811 0 0 1 .1212 3.5058c0 2.1357.9288 3.8684 2.3019 5.44.7673.8865 1.0499 1.8939.6461 3.0222-.2827.9268-.9692 1.491-1.8981 1.1686-2.0595-.8059-3.8768-.0806-5.6941.6448-.8077.3223-1.5346.8865-2.302 1.3297-1.9788 1.088-4.1595 1.491-6.421 1.3701-.4039 0-.8077-.2821-1.1712-.4029zM119.7676 458.428c1.0096 1.2089.525 2.2969.1211 3.3446-1.6154 3.8282-3.3519 7.5757-4.9672 11.4039-.3231.7656-.5654 1.5716-.7673 2.3775-.1616.6447-.0404 1.2492.323 1.8133.6866 1.088.4846 2.0148-.6461 3.1028-.4039.403-.8077.8463-1.2116 1.2089-1.1711 1.0477-1.898 1.1283-3.2711.3224-.6865-.3627-1.373-.5641-2.1807-.4835-2.3423.2014-4.6846.3626-7.0269.5238-.5654.0403-1.0904-.1612-1.7365-.2418.2423-1.1686 1.05-1.6521 1.777-2.176.5249-.4029 1.171-.685 1.8172-.8462 2.2615-.5642 4.4826-1.4104 6.9057-1.3701.8885 0 1.0096-.1612 1.1308-1.1283.2019-1.6118.9288-3.0222 1.5749-4.4729 1.4539-3.1834 3.0289-6.2862 4.4423-9.4696.6462-1.4507 1.6558-2.579 2.8269-3.6267.2019-.2015.5654-.2015.8885-.2821zM13.0735 885.812c.1615 1.088.3635 2.0551.4846 3.0222.202 1.6925 1.2923 2.7805 2.7057 3.385 1.575.6447 2.948 1.5312 4.2808 2.6595 2.4634-1.1283 5.1692-1.5716 7.8749-1.9342 1.8577-.2418 3.5134-1.1283 5.0076-2.2163.4847-.3224.9693-.6448 1.5346-.8865.5654-.2418 1.1712-.2015 1.6154.282.4442.4836.5654 1.088.2019 1.6119-.6057.8462-1.1711 1.773-1.9384 2.4178-1.5346 1.2894-3.473 1.8536-5.4115 2.2163-1.7769.3223-3.5134.6447-5.2499 1.2088-1.0904.3627-1.7366 1.0881-2.3019 1.9746-.4039.6044-.8885 1.088-1.6154 1.3701-1.373.4835-2.827-.5642-2.7865-2.0551 0-.403-.0404-.806-.0404-1.2493 0-.5641-.3635-.9268-.8077-1.2089-1.1711-.7253-2.423-1.3297-3.473-2.176-1.777-1.37-3.15-3.0222-2.9077-5.4803.1211-1.491 1.05-2.5386 2.8269-2.9416zM207.645 490.1811c.2827-1.4507 1.2115-1.8537 2.4634-1.6119 1.6962.3627 3.0692-.4432 4.402-1.2089 1.898-1.088 3.9172-1.6924 6.0979-2.4178-.0403-.5238-.0403-1.1686-.1615-1.773-.2423-1.0477-.1615-2.0954.0808-3.1028.3634-1.491.4442-2.982.0807-4.473-.2423-1.0073-.323-2.055-.4846-3.1028-.1211-.8865.2827-1.7327.9693-2.0148.6865-.3224 1.4942-.0806 2.0595.685.2827.403.6058.806.727 1.2895.4442 1.773.848 3.5864 1.1307 5.3998.1212.7656 0 1.6118-.2423 2.3775-.525 1.6118.0404 3.0222.6866 4.352.5653 1.1686.6057 2.2163.1615 3.3849-.2827.685-.6866 1.0074-1.4135 1.0477-.323 0-.7269.0403-1.0096-.0806-1.8173-.8462-3.4326 0-5.048.6447-1.05.403-2.0192 1.0477-3.0692 1.491-1.373.6044-2.8269 1.088-4.3615.8865-1.2519-.2015-2.302-.8462-3.0692-1.773zM168.068 823.1109c.202-1.5312.2827-3.0222 1.0904-4.352 1.4942-2.4178 3.2307-4.5938 6.0576-5.6415 1.05-.4029 1.7365-1.088 1.9788-2.2566.525-2.4178 1.9385-4.3117 3.8365-5.9236 2.5443-2.1357 4.9269-4.4326 7.1884-6.8907 1.05-1.1686 1.4135-1.1685 2.7058-.0402-.8077 2.458-2.4231 4.3923-4.1192 6.2459-1.05 1.1686-2.3019 2.2163-3.4327 3.3446-1.0903 1.088-1.9788 2.2566-2.4634 3.7476-.2019.6044-.3635 1.1686-.1212 1.8133.202.6044-.0404 1.1686-.525 1.5716-.5653.4835-1.1711.9671-1.8173 1.3297-.4038.2418-.9692.403-1.4134.3224-.9288-.1612-1.7365.1612-2.3019.6851-1.5346 1.4909-3.0288 3.0222-4.3615 4.7146-.6058.7657-1.0904 1.4507-2.3019 1.3298zM231.3899 542.728c-1.2519.0404-2.5038.1613-3.7557.1613-1.6154-.0403-2.7865.8865-3.8769 1.894-.4846.4432-.8077 1.0476-1.1712 1.5715-.4846.685-1.9384 1.088-2.8672.8462-.8481-.2418-1.4943-1.0074-1.3731-1.9745.1212-1.0477-.3634-1.6119-1.1711-2.0149-1.5346-.7253-3.15-1.37-4.725-2.055-1.0904-.4836-2.1807-.9269-3.1904-1.4507-.848-.4433-1.2115-1.3298-.9288-2.1357.0808-.2418.5654-.5642.8481-.5642.6461 0 1.373.0806 1.9788.282 2.5846.9269 5.1288 1.894 7.673 2.9014.6866.2821 1.3327.7254 1.9385 1.1686.4038.3224.7673.3627 1.1307.0403 2.3827-2.0954 5.2904-1.8133 8.1576-1.773 1.2519 0 2.5442 0 3.7962-.0403.9692-.0403 1.898-.2418 2.8672-.3224.3231-.0403.6866 0 1.0096.0806.5654.1209 1.1712.282 1.2116.8865.0807.6448-.3635 1.1283-.8885 1.4104-.525.282-1.0904.4836-1.6557.5641-1.6558.2821-3.3115.4836-5.0077.685v-.1611zM104.946 819.565c-.8884 1.5312-2.3827 2.055-3.7961 2.6595-2.3827.967-4.8865 1.5715-7.4307 1.8133-1.0904.121-1.7365.9269-2.3019 1.773-.1212.1613-.1212.403-.2019.6045-.9693 1.8537-1.7769 2.4581-3.7962 1.491-.6057-.282-1.2115-.2015-1.8172.1209-3.1096 1.6521-6.2192 3.3446-9.3288 4.9565-.7673.4029-1.575.7253-2.5442.6447-.1615-.6045-.1212-1.088.202-1.6119.646-.8865 1.2922-1.6924 2.3018-2.2566 2.5846-1.4506 5.0884-2.982 7.5923-4.5132.8884-.5238 1.8172-.8865 2.8672-.806.6462.0404 1.0096-.2014 1.4135-.6446a36.8182 36.8182 0 0 1 1.7769-1.7731c1.05-.8865 2.2615-1.37 3.675-1.4507 2.7461-.1208 5.3711-.9268 7.996-1.773 1.6154-.5239 2.4231-.3627 3.3923.7656zM153.1246 737.8037c-.2827 1.2089-.3635 2.4178-.8077 3.4655-.6058 1.491-1.4134 2.9416-2.2615 4.352-.727 1.2492-1.1308 2.4984-.9692 3.949.0404.3224.1615.6851.3634.8866.525.4835.6462 1.0477.6058 1.6924-.0808 1.5313-.5654 2.7805-2.1808 3.3446-.848.2821-.9288.9671-.9692 1.6925-.1211 1.773-.2827 3.5058-.4038 5.2788-.1212 1.773-.8885 3.3043-1.8577 4.8759-.4442-.0403-.9288-.1209-1.4134-.1612-.2827-1.4104-.4039-2.6999-.1616-4.0699.2827-1.6522.202-3.3447.2827-4.9968 0-.1612 0-.3224-.0404-.4836-.2827-.8865-.1211-1.6924.2827-2.5386.5654-1.0477 1.0096-2.1358 1.9384-2.9014.202-.1612.2827-.685.2424-1.0074-.6462-2.9013-.0808-5.5206 1.7365-7.9384.7269-.9268 1.2115-2.0148 1.8576-3.0222.9289-1.2895 1.8173-2.579 3.7558-2.4178zM134.9122 814.2856c-.1212-1.9342.0807-2.176 1.6557-2.5387 2.1-.4835 4.1596-.9268 6.1788-1.6924.9288-.3627 1.9385-.4433 3.1096-.6448.0404-.8059.0404-1.6521.1211-2.5386.0808-.6045.1616-1.2492.4039-1.8134 1.0904-2.3371 2.2615-4.6743 3.4326-6.9712.6462-1.2492 1.2924-1.5716 2.5039-1.2895.4442 1.6924.2019 3.3043-.6462 4.8355-.6865 1.209-1.2519 2.4581-1.8577 3.7073-.8884 1.894-.8076 3.7073.4443 5.44.2827.403.5654.8463.7269 1.3298.3634 1.088-.1615 1.9342-1.2923 2.1357-.9692.1612-1.8577-.0806-2.625-.685-1.1307-.8865-2.3019-.7657-3.5942-.403-2.0192.6045-4.0384 1.1686-6.098 1.5313-.7673.2015-1.6154-.2418-2.4634-.403zM94.7296 445.8555c.9693.2418 1.777-.0403 2.5039-.7253.2423-.2418.525-.4836.8076-.5239.9693-.1209 1.252-.6044 1.3731-1.5715.1212-1.2492.6058-2.4178 1.2923-3.5058.8077-1.3298 1.2923-2.8208 1.5346-4.352.1615-.9671.4846-1.9343 1.6961-2.176.9693-.2015 1.6962.1612 2.1 1.088.3635.8462.4039 1.773.1212 2.579-.525 1.5715-1.1308 3.143-1.8981 4.634-.5654 1.1283-.7269 2.176-.2827 3.3849.5654 1.5313.0404 3.1432-1.2519 3.9894-.2019.1209-.4846.1612-.7269.1612-.4039-.0403-.848-.0806-1.252-.2015-.9691-.2821-1.8172-.1209-2.5845.5641-1.4942 1.2895-4.2404.7254-5.4115-.4029-.4442-.4433-.6461-.9269-.5654-1.5716.1212-.9268.5654-1.2895 1.5346-1.3298.3231-.0806.6462-.0403 1.0096-.0403zM166.21 881.6212c-.8077.7657-1.6962 1.5313-2.5442 2.3373-1.4135 1.3297-2.7865 2.6595-4.6846 3.3445-.4039.1612-.727.5239-1.1308.806-.6461-.9268-.4846-1.6925.0808-2.3775.6461-.806 1.3327-1.6119 2.0192-2.4178 1.1308-1.2492 2.2615-2.4984 3.4327-3.667 1.2115-1.2089 2.7057-1.8133 4.4826-1.5716.4039.0403.8885-.0805 1.2923-.2417 1.6558-.806 3.4327-1.0477 5.2904-.9671 1.0499.0805 2.0999.1208 3.1499.2014 1.1712.121 2.2615-.3223 3.2711-.8059 1.05-.4835 1.8577-.2014 2.5846.6448-.2423.8462-.7269 1.5313-1.4134 2.0148-1.3731.9671-2.9077 1.5313-4.6038 1.491-.7269 0-1.4135-.1612-2.1404-.2015-1.8577-.0806-3.6749.1209-5.2499 1.2895-1.2923 1.0477-2.2212 1.088-3.8365.1209zM182.687 516.898c.1615-.4029.3634-.8059.4442-1.2491.3634-1.7328 1.2115-3.2238 2.4634-4.473 1.6558-1.6118 3.3519-3.1834 5.1288-4.6743.7673-.6448 1.7769-1.0477 2.7462-1.5716.4846.1612.9288.3224 1.5749.5642-.323.5641-.5653 1.1686-.9288 1.6118-1.4942 1.6522-3.0288 3.264-4.523 4.9162-.4443.4835-.9289 1.0074-1.3731 1.491-1.05 1.2088-1.4942 2.5789-1.4134 4.1908 0 .4029.0807.8462.0403 1.2492-.1615 1.8536-1.9384 2.6595-3.5134 1.6924-.525-.3224-1.1711-.5641-1.7365-.5641-1.8173.0403-3.5942.2014-5.4115.282-.4846.0403-1.0096.0806-1.4942.0403-.5654-.0403-.848-.5238-.6058-1.0477.202-.4432.4846-.8059.9692-1.0477 2.3423-1.1283 4.8462-1.4507 7.6327-1.4104zM214.2256 791.0746c-.727-2.2969-.727-4.4326-.2423-6.6086.2827-1.2492 1.0096-2.176 1.8577-3.0625.3634-.403 1.1711-.403 1.6153-.0403.4039.3223.6058.7253.4039 1.3297-.3231.8463-.6058 1.7328-.8077 2.6596-.3635 1.6522-.3635 3.3043.6058 4.8356.4038.6447.9288 1.1283 1.6153 1.4909.8481.4433 1.6962.9269 1.8981 2.0149.2827 1.4506-1.2116 2.9416-2.625 2.5386-.5654-.1612-1.1307-.3223-1.6557-.5238-1.9789-.7656-3.9577-.5239-5.977-.2015-.8076.1209-1.6557.1612-2.5037.1209-.8885-.0403-1.373-.5239-1.4539-1.1686-.0807-.6044.3635-1.4104 1.0904-1.6522 1.7769-.6447 3.5134-1.4506 5.4519-1.4506.1615 0 .4038-.1612.727-.2821zM207.2388 447.951c.4039-2.0149 1.6154-3.2238 2.9885-4.3924a42.1726 42.1726 0 0 0 3.3519-3.2237c.6057-.6447 1.3326-.8462 2.1403-.9268.6866-.0806 1.0904.282 1.0096.9268-.0403.6448-.2019 1.3701-.5653 1.894-.8077 1.2089-1.7769 2.2969-2.7058 3.4252-.525.6044-1.05 1.2088-1.6153 1.773-.5654.5642-.7673 1.2895-.6058 1.9745.2423 1.1686-.3635 1.8537-1.1308 2.4178-1.0096.8059-1.6961.7656-2.7865.0403-1.4134-.9671-2.7865-.685-4.1596.0806-1.0096.5642-2.0192 1.1686-3.0692 1.6925-.2423.1208-.6057.0402-.9288.0402v-.8059c0-1.9342 1.373-2.7804 2.8269-3.5864 1.575-.9268 3.2711-1.5312 5.25-1.3297zM101.2332 834.9586c.2019-1.088.4038-2.1357.6057-3.143.2424-1.0478.6866-2.015 1.6962-2.5388.9288-.4835 1.4134-.1611 1.3731.8866-.0404 1.4506-.0808 2.9416-.202 4.3922-.1211 1.088.2827 1.9746.9289 2.7402.5653.6448.6865 1.3298.525 2.0954-.2424 1.088-1.1308 1.4104-1.9789 1.6522-.6865.2015-1.2519-.2821-1.575-.8059-1.0499-1.8134-2.7865-2.176-4.6441-2.297-1.575-.1208-3.1904-.1208-4.8058-.1208-1.05 0-2.1.2014-3.1096.3223-.7269.0806-1.4942.0806-2.1403.121-.5654-.7254-.525-1.2896.0404-1.6925.6461-.4433 1.2923-.9671 2.0192-1.1686.9692-.282 1.9788-.4433 2.9884-.4836 2.5846-.0403 5.2096.0403 7.7942.0806.1615 0 .2827 0 .4846-.0403zM206.15 852.3258c1.4135-2.2566 2.7057-2.7805 5.0884-2.2566l1.8173.3627c.9288-.7254 1.8577-1.4104 2.7865-2.0954 1.2923-.9671 2.7865-1.0477 4.3211-1.0477 1.0904 0 2.1808 0 3.2712-.0404 1.0499-.0403 2.0999-.1611 3.1095-.2014 1.5347-.0403 1.6154.0403 1.6558 1.7327-2.2615.9671-4.523 2.0551-7.148 2.0551h-1.3731c-1.05 0-1.8576.4433-2.423 1.3298-.2827.403-.5654.8463-.9289 1.1686-1.0904 1.0477-2.0192 1.7328-3.9576.8462-1.4539-.6447-2.9885-1.1283-4.6442-1.1283-.4442.0403-.9692-.4432-1.575-.7253zM17.755 858.2087c-.6461-1.3701-.6057-1.4507.2827-2.4178l1.2115-1.4507c1.0904-1.4104 2.625-1.8536 4.2404-2.0148.525-1.0074.9692-2.0149 1.575-2.9417 1.2923-1.9342 3.2711-2.982 5.2499-4.0296.8077-.4433 1.6558-.806 2.4635-1.209.6461-.3223 1.2519-.4835 1.7769 0 .4038 1.491-.3231 2.4582-1.3731 3.264-.8077.6448-1.6961 1.2493-2.5846 1.8134-1.8173 1.1283-3.0288 2.579-2.9884 4.8759 0 1.0477-1.7365 2.2969-2.827 1.9342-1.171-.4029-2.0191.0403-2.9076.6851-1.2115.8059-2.5846 1.3701-4.1192 1.491zM110.641 876.1815c-.1211-1.1283.3635-1.894 1.575-2.4178 2.0596-.8462 4.2404-1.0477 6.4211-.6045.3231.0806.6462.121.9289.2015 1.373-2.1357 2.9884-3.9893 4.9269-5.44.8884-.6447 1.7769-1.37 3.0288-1.4104 1.05-.0403 1.6961.2821 2.1403 1.1686-2.6249 1.4104-4.523 3.5058-6.0576 5.9236-.4442.7253-.6865 1.6118-.9288 2.458-.4443 1.4104-2.0596 2.3775-3.473 2.0149-.3232-.0806-.6866-.3627-.8885-.6448-.8481-1.1685-2.1-1.37-3.352-1.4103-1.373 0-2.8268.1209-4.321.1612zM154.1761 781.0014c.7673-1.894 1.4135-3.7073 2.2212-5.44.2423-.524.7269-1.0478 1.2115-1.3701.8481-.5642 1.8173-.0403 2.1.967.3231 1.1687.1211 2.2567-.4846 3.2238-.6058.9671-.6866 1.9342-.1212 2.9416.2827.5642.4846 1.1686.5654 1.773.2827 1.8537-1.1711 2.9417-2.9077 2.2164-.4846-.2015-1.0096-.403-1.5346-.5642-1.0903-.3224-2.0596-.0806-2.9884.5239-.727.4835-1.4942.9268-2.3019 1.2895-.9288.4432-1.8577.3626-2.7865-.2418-.0808-.7656.2423-1.3701.8077-1.8134.9692-.7656 1.9788-1.5312 2.9884-2.2969 1.0096-.8059 2.1404-1.088 3.2307-1.2089zM115.4065 902.0913c-.323.806-1.0096 1.2491-1.7769 1.491-1.8577.564-3.7153 1.088-5.573 1.6118-1.4538.403-2.948.6044-4.3211 1.37-1.4538.806-2.5846.4836-3.3115-.8865-.6462-1.2492-1.6962-1.8133-2.948-2.176-1.1308-.3223-2.0597-.7656-1.9789-2.3372.3635-.403 1.0096-.7253 1.8173-.685 1.8173.0403 3.5942.2418 5.0884 1.491.323.282.9288.282 1.4135.2417 1.3326-.1611 2.6653-.4432 3.998-.6044 1.8577-.2015 3.7557-.3627 5.6538-.4835.7673-.0806 1.4942.2015 1.9384.967zM157.002 444.6469c.0404-2.0148.6865-3.667 2.3827-4.755.525-.3224 1.0903-.6447 1.6961-.806.6058-.1611.9692-.4432 1.1712-1.0073.0807-.2821.2423-.5239.323-.806.9693-2.6998 2.5442-4.9967 4.6038-6.931 1.05-1.0074 1.1712-1.0074 2.5846-.3223.3231 1.2895-.4442 2.2969-.9692 3.3446-.6462 1.2089-1.4538 2.3775-2.0596 3.5864-.323.6447-.4038 1.4506-.4846 2.176-.1212 1.5715-1.1308 2.6595-2.1 3.7475-.2423.2821-.8884.3627-1.2923.2821-1.4134-.2418-2.5442.2821-3.6346 1.0074-.6461.5642-1.373.8059-2.2211.4836zM62.0188 811.7059c-.3635.8865-.9692 1.37-1.8577 1.7327-1.575.685-3.0692 1.4104-4.0384 3.0222-.5654.9672-1.777 1.088-2.9077 1.1687-.8884.0403-1.2519-.5642-1.6557-1.1687-.1212-.1611-.2423-.3223-.323-.5238-.4847-1.37-1.6155-2.0551-2.9078-2.579-1.1307-.4432-2.221-.967-3.3518-1.4506-.0404-.4433-.0808-.806-.1212-1.2492.0808-.0806.202-.1612.2827-.2015 1.0096-.4836 2.1-.4433 3.1096-.282 1.6557.282 3.2711.7655 4.6442 1.8133.848.6447.8076.5641 1.7365.0806 1.6154-.8463 3.3115-1.4507 5.1288-1.5313 1.2519-.0806 1.7769.2418 2.2615 1.1686zM52.4062 872.7565c1.8173-3.6267 4.9269-4.0297 8.3191-3.7476.525-.806 1.0097-1.6522 1.575-2.4178 1.5346-2.0954 3.7962-3.1834 6.1384-3.9893.5654-.2015 1.252-.0806 1.8577.0403.3231.0806.6058.4432 1.0096.7656-1.4942 1.088-2.8269 2.0148-4.1596 3.0222-1.2922.9672-2.1807 2.176-2.6653 3.7073-.1615.5641-.4846 1.088-.8077 1.5716-.8884 1.2089-1.9384 1.4506-3.2711.8059-1.252-.6044-2.5846-.6448-3.9577-.4836-1.05.1612-2.0596.403-3.1096.6045-.323.1208-.6057.0806-.9288.1209z"/><path d="M57.1738 424.6193c.2827-1.088 1.0904-1.4103 2.0596-1.491 1.2115-.0805 2.423-.1611 3.7961-.2417.0808-.3627.1212-.9671.323-1.491.404-1.1283.727-2.3371 1.2924-3.3849.2423-.4835.9692-.7656 1.5346-.967.6057-.2016 1.2519.3223 1.2519 1.0073s-.0808 1.3298-.1615 2.0149c-.0808.4432-.2424.8865-.3231 1.3297-.1616.8463-.1616 1.6925.4442 2.4178.8885 1.1283.5654 2.4581.525 3.7073-.0404.7253-1.6961 1.6521-2.423 1.3701-.6058-.2418-1.2116-.6045-1.6558-1.0477-1.1711-1.1686-1.9384-1.4507-3.7154-1.7328-.5653-.0806-1.0096-.0806-1.575 0-.2826.0403-.6865-.282-.8884-.5238-.2423-.2418-.323-.6448-.4846-.9671zM142.9888 426.9565c-.1615.7254-.3231 1.491-.525 2.176-.323 1.088-.7269 2.1358-.9692 3.2238-.1212.6447-.0808 1.3298 0 1.9745.1615 1.4507-.4442 2.6193-1.5346 3.1431-.848.403-1.5346.0806-2.1-.3627-.6865-.5238-1.2923-.5238-1.9788-.2417-.6058.2417-1.2923.3626-1.8577.7253-.7673.5239-1.373 0-1.9788-.2015-.1212-.0403-.2423-.6044-.1615-.8462.2423-.9268.8884-1.5716 1.7365-2.0551 1.2115-.6448 2.3019-1.491 3.675-1.8537.323-.0806.6057-.6447.8076-1.0477.7673-1.7327 1.4135-3.5058 2.1808-5.1982.2423-.4836.8077-.8462 1.2519-1.1686.1615-.1209.4846-.0403.6865.0806.5654.403.8077.9268.7673 1.6521zM166.979 558.6848c.1212-.3224.202-.5239.2423-.685.3635-1.5716.5654-1.773 2.1808-1.773 1.373-.0404 2.746 0 4.2403 0 .1615-.6448.3635-1.4508.5654-2.297.323-1.3298.9288-2.5387 2.0192-3.3849.5654-.4432 1.3731-.6447 2.0596-.7253.8481-.0806 1.3731.7253 1.1308 1.5312-.0808.3224-.2827.6045-.4443.8866-.9692 1.6118-1.4942 3.3849-1.4942 5.2788 0 .1612-.0404.3224-.0404.4835-.0404 2.0552-1.4538 2.6596-3.2307 2.0552-1.4135-.4836-2.8673-.685-4.3211-.8463-.9289-.0806-1.8981-.0403-2.9077-.5238zM186.807 837.1737c0-1.6521.6058-2.861 1.6558-3.8684.6461-.6045.9288-1.2492 1.0096-2.176.1211-1.3298.525-2.6193.9288-3.9088.1615-.5238.6461-.967.9288-1.4506.4039-.6448 1.0096-.6448 1.5346-.4433.5654.2418.9289.7656.8481 1.4104-.1211 1.0074-.2827 1.9745-.4038 2.9819-.1212.8865-.1616 1.6925.323 2.5387.727 1.2895.3231 2.2969-1.1307 2.8207-.848.2821-1.6558.5239-2.1 1.4104-.4038.8059-.6058 1.6119-.525 2.5387.0404.3224-.0404.685-.202.9268-.5653.9268-1.1307.9268-1.8172.0806-.727-.8865-1.0096-1.894-1.05-2.8611zM122.4332 686.1434c-.2827 1.1686-1.0096 2.0954-1.8577 2.9416-.6461.6045-.9692 1.209-.6461 2.2163.4442 1.3298-.7673 3.0223-2.3827 3.2238-.2827.0402-.6462-.2015-.848-.4433-1.1308-1.3701-2.7058-2.0954-4.2808-2.8208-1.2115-.5238-2.3827-1.1686-3.3519-2.1357 1.05-1.6924 2.5846-1.4506 4.0788-1.1686.9289.1612 1.8577.5642 2.8673.8865.848-1.2089 2.0192-2.1357 3.3519-2.8207.525-.2418 1.1307-.3627 1.6557-.5239.6866-.2014 1.05.121 1.4135.6448zM84.9553 486.8371c0 1.5716-1.6961 2.982-3.1096 2.7805-.8077-.121-1.2519-.7254-1.575-1.3298-.3634-.6448-.7269-.6448-1.3327-.403-1.2923.5642-2.6653 1.0477-4.1192 1.0477-.6865 0-1.171-.2015-1.4538-.7656-.2827-.5642.1212-1.0477.4442-1.491.1616-.2418.4039-.4432.6866-.5641 1.7769-.7657 3.3519-1.894 5.2903-2.297.2827-.0402.525-.3223.7673-.564.323-.3225.6058-.6851.848-1.088.4443-.6045 1.0097-.524 1.575-.3627.5654.1611.7674.7253.7674 1.2088 0 1.1283.323 2.0552 1.0096 2.9014.1615.282.1615.685.2019.9268zM98.6465 799.7382c.3635-1.088.9692-1.5313 1.9384-1.4104.5654.0806 1.1308.3224 1.6558.5239.4442.2015.8884.4835 1.2923.7656.0808.0403.1615.0403.3635.121.323-.4433.6865-.9672 1.0903-1.4507 1.252-1.5716 2.7462-2.8208 4.7654-3.3044.848-.2014 1.6557-.0806 2.4634.6448-.4038.403-.7673.7656-1.1711 1.088-.727.6044-1.5346 1.2089-2.2212 1.8536-.9288.8865-1.575 1.9745-1.8576 3.2237-.1212.5239-.3231 1.0477-.4443 1.5716-.2827 1.088-1.1307 1.37-2.0596 1.491-.9288.1208-1.4134-.4836-1.6961-1.209-.4038-1.0476-1.373-1.5715-2.1404-2.2565-.6865-.5239-1.3327-1.088-1.9788-1.6522zM188.3817 726.6014c-.3231.6045-.6462 1.209-.9693 1.8537-.6057 1.2492-.848 2.4984-.2423 3.8684.3635.806.1212 1.491-.4038 2.176-.727.9269-1.575 1.4507-2.7865 1.4104-.8077-.0403-1.4135.4433-1.9789.9671-.6461.6045-1.5346.7254-1.8576.1209-.3231-.5641-.5654-1.2894-.4847-1.8939.1212-.9671.7674-1.7327 1.6962-2.2163.5654-.282 1.0904-.6045 1.6961-.9268.1616-.9269.3635-1.8537.4846-2.8208.2423-1.4104 1.0904-2.4178 2.2616-3.1431.848-.4836 1.7769-.282 2.5845.6044zM203.605 561.9093c1.0499.1209 2.1807.2015 3.3518.3223 1.0904-1.4506 2.1404-2.9013 3.2308-4.352.4442-.6044 1.9384-1.0477 2.5845-.7253.2827.1209.5654.5238.6462.806.0808.3223.0807.7656-.0808 1.088-.9288 2.055-1.9384 4.0699-3.5942 5.6817-.9692.9671-2.0596 1.4104-3.4327.9671-.5653-.1611-1.1711-.2014-1.6961-.4432-.4846-.2015-1.05-.5239-1.2519-.9671-.2827-.6448-.4846-1.491.2423-2.3775zM193.3478 766.8569c-.848-2.2969-.4846-4.352 1.1712-6.0444.5654-.6045.8884-1.2492 1.2519-1.9746.6461-1.37 1.6961-2.2163 3.0288-2.861.202-.1209.4846-.1209.727-.1209.6865.0403 1.4134.0806 1.696.806.2828.685.1616 1.4103-.4442 1.9342-.9288.8462-1.373 1.9342-1.7769 3.1028-.3634 1.0477-1.0096 2.0551-2.2615 2.5387-.6057.2417-1.1308.8462-1.5346 1.37-.4846.6851-1.05 1.0477-1.8577 1.2492zM177.5976 615.0192c.6461-1.1686 1.1711-2.2566 1.8173-3.2237.6461-.9671 1.575-1.6925 2.6653-2.2163.2827-.121.6462-.1612.9693-.1612.6865.0806.8884.403.5653 1.0477-.3634.806-.8076 1.5716-1.2115 2.3775-.5654 1.0477-1.1308 2.0551-.8884 3.3446.0807.3224-.2424.7656-.4443 1.088-.0808.1209-.323.2015-.3634.3224-.3231 1.2492-1.3731 1.2089-2.2212 1.0477-1.1307-.2418-2.1807.1209-3.2307.282-.202.0404-.4039.1612-.6058.1612-.7673 0-1.2115-.5641-.9288-1.2492.3635-1.0477.9692-1.9745 2.1403-2.3371.6058-.1612 1.2116-.3224 1.7366-.4836zM131.6806 832.1772c.848-.9269 1.6557-1.8537 2.5038-2.6596 1.1308-1.0477 2.5038-1.6925 4.0788-1.8134.2827-.0403.5654.1612.8481.2821-.1212.2418-.1615.5642-.3635.7656-1.1307 1.2895-2.3019 2.5387-3.4326 3.8685-.6058.685-1.05 1.5313-1.2116 2.458-.1211.6851-.5653 1.088-1.2519 1.2493-.4038.0806-.8077.2015-1.2115.282-.727.121-1.6154-.1611-1.8577-.8059-.4442-1.2088-1.4134-1.9342-2.3019-2.7804-.6865-.6448-.6461-.685.0808-1.2492.8884-.685 1.8173-.4836 2.7461-.1612.4846.1612.9289.403 1.373.5642z"/></g><defs><clipPath id="clip0"><path fill="#fff" d="M0 0h209v1346H0z"/></clipPath></defs></svg>