<svg width="209" height="1346" fill="none" xmlns="http://www.w3.org/2000/svg"><g clip-path="url(#clip0)" fill="#333"><path d="M166.3413 1025.6651c1.0832-2.4121 3.2216-4.1311 5.1657-5.961 1.3053-1.22 1.6942-2.6617 1.5553-4.3252-.0556-.6377-.2222-1.2477-.3333-1.8576-.1111-.6931.0833-1.22.5832-1.4417.5277-.2496 1.1943-.1387 1.6109.3327.3332.3881.6109.8317.8609 1.303.1666.2773.1944.6378.3333.9427.8332 2.135.1388 3.9648-1.1109 5.7115-.6666.9427-1.5553 1.719-2.3885 2.523-.972.9427-1.8607 1.9963-2.7495 3.0221-.3888.4436-.4721.9704-.361 1.5804.1666.8318.1666 1.6635-.4999 2.3289-.0833.0832-.1667.2218-.2777.2773-.6666.4713-2.3885.2495-2.8328-.4713-.4722-.7486-1.111-.9982-1.9163-1.0813-.9999-.1109-1.9997-.1941-2.9995-.2773-2.2218-.2218-5.4712-2.4953-5.6934-5.2678-.0833-1.0536 0-2.0518.7777-2.8835.5276-.5545.861-.5545 1.1664.1386.2222.499.361 1.0536.4722 1.6081.4443 2.0517 2.1662 3.5212 4.3047 3.6043 1.4164.0278 2.8328.1109 4.3325.1941zM187.8081 804.635c-.361-.6654-.1388-1.1922.3333-1.6358.4721-.4713.9998-.9149 1.5552-1.2476 1.7497-1.0536 3.1383-2.4399 4.027-4.2975.5833-1.2477 1.6387-2.1072 2.7218-2.8835.4999-.3881 1.2498-.61 1.9718-.305.8055.3328 1.4998.2219 2.1941-.3327.5277-.4436 1.1387-.8317 1.7497-1.1367 1.2497-.6377 2.5828-1.0536 4.027-.8872.9165.1109 1.7774-.111 2.6384-.4436l1.583-.6654c.9165-.3605 2.1107-.0832 2.7773.5822.2777.305.2499.5822.0277.8872-.4999.7486-1.1942 1.2754-1.9718 1.608-.9165.416-1.833.7764-2.7773 1.0814-.722.2218-1.4997.305-2.2496.4159-.6665.1109-1.333.1386-1.9718.2495-.8332.1664-1.4442.5822-1.8052 1.414-.3055.6931-.7499 1.3308-1.222 1.913-.8887 1.1091-2.444.8318-2.9995-.499-.3332-.7486-.8054-.8318-1.3053-.194-.4721.6099-.9442 1.2199-1.3886 1.8298-.5832.8041-1.2775 1.5249-2.1107 2.0794-.9443.61-1.833 1.3309-2.805 1.8854-.972.5545-1.9164.9981-2.9995.5822zM203.7793 1025.3064c1.3053-.2495 2.444-.5268 3.6383-.7209 2.1662-.3881 4.3047-.8317 6.2488-1.913.8332-.4437 1.6108-.915 2.1662-1.6913.1667-.2218.4444-.4713.6944-.5268.3888-.0554.9442-.1109 1.2219.111.4999.4158.6666 1.0535.4722 1.7466-.2222.6932-.6943 1.22-1.222 1.6636-1.1665.998-2.5273 1.6635-3.9437 2.3012-1.8052.7763-3.666 1.1645-5.5823 1.414-.6943.0832-1.3886.305-1.9996.6099-.3889.1664-.6388.5823-.9443.8873-.2222.2218-.4166.499-.6388.7208-1.3053 1.1091-2.5273.8873-3.3327-.6377-.111-.194-.0833-.5267-.0278-.7485.3888-1.5527-.111-2.7171-1.333-3.7707-1.3331-1.1368-2.694-2.2735-3.5272-3.9093-.4999-.9704-.6387-1.9685-.4443-2.9944.0833-.4159.3888-.8318.6943-1.1645.4443-.4436.972-.3327 1.3053.2218.1944.3327.3333.7209.4721 1.0813.3055.9427.7777 1.7745 1.5553 2.3844 1.1387.915 2.3051 1.8022 3.3883 2.7726.611.5268 1.083 1.2754 1.1386 2.1626zM108.2971 829.4494c.0278 1.6635-.0833 3.1052-.6943 4.4915-.2777.6654-.6943 1.3031-1.1664 1.8299-.8055.8872-1.6942 1.6635-2.5551 2.4953-.8332.7763-1.1942 1.7744-1.222 2.828-.0556 1.8022-.5277 2.2458-2.3329 2.6062-.2222.0555-.4999.0555-.6943-.0277-1.1665-.5545-2.1941-.0277-3.0828.5822-1.6386 1.1091-3.416 1.5527-5.3601 1.5249-.861-.0277-1.7219-.1109-2.5828-.2772-1.0276-.1664-1.833-1.109-1.7775-2.1072 0-.2495.2777-.6376.5277-.7208.4721-.1386.972-.1387 1.472-.1664 1.1664-.0277 2.3328-.0277 3.4993-.0554.9998-.0278 1.8885-.4991 2.6106-1.1368.9443-.8317 2.0274-1.3031 3.2216-1.4972.5277-.1109.7777-.3049.9721-.8317.3888-1.1368.9998-2.1904 1.8885-3.0221.5277-.499 1.1109-.9427 1.6941-1.3863 1.1387-.8318 1.9997-1.8576 2.4996-3.1607.1944-.5268.3888-1.0813.7221-1.525.2777-.388.6943-.804 1.1386-.8871.3333-.111.8054.2495 1.222.4436zM169.037 915.5647c.3887.4991.8053.9427 1.1664 1.4418 1.1942 1.608 2.8605 2.1349 4.749 1.5803 1.6386-.499 3.3328-.6377 5.0269-.5267.3055.0277.611.2217.8887.305.9165-.8318 1.7775-1.6913 2.694-2.4954.8331-.6931 1.7774-1.1922 2.8328-1.608 1.6663-.6377 3.3049-1.4695 4.4436-2.939.5277-.6931 1.222-1.109 2.0829-1.2476.6666-.111 1.0832.2218.9165.8595-.2777 1.1644-.611 2.3012-1.3608 3.2993-.9165 1.1922-2.1385 1.9685-3.4994 2.5508-1.222.5268-2.4995.9426-3.4993 1.8576-.9165.8318-1.8885 1.5526-2.2218 2.9389-.3055 1.3031-1.8886 1.5804-2.6106.4991-.7221-1.0813-1.6664-1.0259-2.7218-.8318-.4166.0832-.861.1663-1.2497.3604-.8332.4714-1.722.4714-2.6107.3604-.2221-.0277-.472-.0831-.6943-.0831-2.2773 0-3.8048-1.2477-4.8602-3.133-.611-1.0813-.3888-2.1626.5277-3.1885zM195.975 1004.9012c.0833-.61.2777-1.3309 1.0276-1.7468.5554-.305.8332-.305.9998.2496.4444 1.3862 1.472 1.8021 2.7773 1.7467 1.1386-.0555 2.2773-.0555 3.3604-.2496 1.1665-.194 2.2774-.0277 3.305.416.6387.2772 1.1109.194 1.6108-.2773.6943-.6377 1.4997-.8318 2.4718-.804 1.7496.0554 3.416.4158 5.1101.7762 1.8052.3605 3.5827.0555 5.2768-.6376.1944-.0832.361-.1664.5554-.2218.6944-.2218.9999-.1387 1.3331.2772.5277.6931.5277.9704.1111 1.6358-.6943 1.109-1.7774 1.6081-2.9716 1.8022a38.1528 38.1528 0 0 1-4.3603.499c-.6388.0278-1.3053-.194-1.9441-.305-1.1109-.194-2.1941-.5267-3.305-.6099-.722-.0554-1.2497.5268-1.6385 1.1645-.4722.804-1.222 1.1922-2.1108 1.2754-.7776.0831-1.2497-.111-1.4441-.8595-.2778-.915-.8332-1.1645-1.6942-1.109-1.3608.0831-2.7217.0831-4.0825.0554-1.0832-.0277-2.1108-.2773-3.055-.8318-.8332-.4159-1.3331-1.109-1.3331-2.2458zM189.3084 820.0504c.25.4159.4444.8595.7221 1.2476.3888.5546.8332 1.0536 1.222 1.5804.3888.499.861.804 1.472.9427 1.1386.2495 2.2773.4159 3.4438.1386.5554-.1109 1.1664.0832 1.7496.2218 1.0832.2495 1.0276.194 1.7775-.6931.8887-1.0259 1.9163-1.9408 2.8883-2.8835.4444-.4436.9721-.804 1.3609-1.2754.9165-1.0535 1.9718-1.9962 2.6384-3.2439.2777-.5268.8054-.6654 1.3608-.6931.611-.0277.9999.3327 1.0276.9427.0556 1.2753-.3055 2.412-1.1942 3.3825-.4444.4713-.7499 1.0258-1.1942 1.4694-.7499.7764-1.5275 1.4695-2.3052 2.218-.6387.61-1.333 1.1923-1.944 1.8577-.4722.5268-.9165 1.109-.9721 1.9131-.0277.3604-.2221.7763-.4443 1.0813-.5277.7486-1.5553.9426-2.1663.2495-1.0276-1.1922-2.3607-1.1367-3.666-1.0536-1.4441.0832-2.694-.3604-3.9437-.9149-1.1664-.4991-2.1107-1.2477-2.7495-2.3844-.3888-.6932-.9165-1.3031-1.333-1.9685-.3611-.61-.3333-1.22.2499-1.6913.611-.5268 1.1387-1.22 1.9996-.4436zM135.516 1004.6193c.6665-.6654 1.1387-.7208 1.7774-.305 1.4164.915 1.9441 2.2458 1.7219 3.8816-.3888 2.8835-1.7774 5.2956-3.9437 7.2087-.8054.7208-1.1664 1.5803-1.3053 2.5785-.0833.6931-.0833 1.3863-.1944 2.0794-.0556.3327-.25.7208-.5.9427-.9997.804-1.3052 1.9685-1.7218 3.0775-.25.6931-.3888 1.414-.611 2.1071-.7777 2.4122-3.2494 3.9648-5.7767 3.6321-.3055-.0277-.5555-.0832-.6943-.4436-.1111-.2773-.4722-.4436-.6666-.6932-.1388-.194-.2777-.4713-.25-.6931.0556-.3327.3611-.2773.6388-.2495 1.9997.194 3.5272-.8041 3.8327-2.7726.2777-1.9408 1.0553-3.6875 1.8885-5.4065.4166-.8595.3055-1.9408 1.0554-2.6616.1388-1.7745 1.2497-2.9112 2.4995-4.0203.6665-.61 1.1387-1.4417 1.6941-2.1903.5832-.7763.9721-1.6358 1.222-2.6062.3333-1.2476.4444-2.4676-.6665-3.4657zM209.945 860.8341c1.1388.1109 2.2497.194 3.3883.3327.972.1386 1.8608-.1109 2.7218-.4991.9165-.4159 1.8607-.6931 2.8605-.7763.2222-.0277.4444-.2218.611-.4159.6388-.804 1.1943-1.6635 1.8886-2.4676.7221-.8317 1.6941-1.303 2.6939-1.6358 1.7219-.5822 2.7773-1.7744 3.4994-3.3548.2499-.5545.4721-1.0813.6665-1.6635.2777-.8595.972-1.0536 1.7219-1.0813.5832-.0277.972.3327.9165.915-.2222 2.828-1.1942 5.351-3.4716 7.1531-.972.7764-2.194 1.22-3.3327 1.7745-.6388.305-1.1109.6931-1.5275 1.2199-.3055.4159-.5277.8318-.4721 1.3863.0833.6931-.1111 1.3308-.5555 1.8576-.3332.4159-.722.6931-1.2775.4159-.1111-.0555-.2777-.0277-.3888-.0832-.7777-.3604-1.5553-.6099-2.333 0-2.4994.4713-4.9712.4991-7.3874-.4713-.5277-.1941-.9998-.5545-1.4164-.915-.611-.5268-.3888-1.2753.361-1.5526.2777-.0832.5832-.1386.861-.1941-.0278.0277-.0278.0277-.0278.0555zM42.724 792.2409l.7499-.2496c.7499-.2772 1.1387-.194 1.4997.4437.5832.998 1.4997 1.5803 2.5273 1.9962 1.1665.4713 2.3607.8595 3.5271 1.3031.361.1386.7499.3604.972.6377.3333.3881.6666.3881 1.0554.2495.1945-.0554.3889-.1386.5555-.2495 1.7497-1.0536 3.666-1.0259 5.5823-.9704.8332.0277 1.6386-.194 2.4162-.5823.4721-.2218.972-.4436 1.472-.5545.5832-.1386 1.0553.1387 1.3608.6377.25.3882.1389 1.3586-.2777 1.6913-.8887.7209-1.7219 1.5526-2.9161 1.8576-1.3609.3327-2.7218.5822-4.1104.6377-.6943.0277-1.3608.194-2.0552.3327-.1944.0555-.3888.2495-.5554.3882-.25.2218-.5277.4436-.6943.6931-1.0554 1.4972-3.0828.6377-3.6382-.499-.3055-.6378-.7777-1.026-1.4164-1.3032-1.583-.6931-3.1661-1.414-4.4436-2.6339-.4722-.4436-.8888-.9704-1.3054-1.4972-.4721-.6654-.6665-1.414-.3055-2.329zM63.6106 820.161c.4444.1664.9721.2495 1.3887.5268.5554.3881.4999 1.0536-.0556 1.414-.611.3881-1.2775.7486-1.9441.9981-1.5552.5822-3.1383 1.0536-4.6935 1.6635-1.222.4714-1.8608 1.5527-2.2774 2.7449-.361 1.0258-.972 1.719-2.0552 1.9408-.2777.0554-.6387.0831-.8609-.0278-.8887-.5267-1.6108-.0277-2.194.416-1.3331 1.0258-2.7495 1.7466-4.3881 2.0794-.6666.1386-1.3886.1109-2.083.0554-1.0553-.0832-1.5274-.8595-1.8607-1.719-.1667-.4159 0-.7209.4443-.8318.2222-.0554.4722-.1109.6944-.1109 1.1109.0555 2.083-.3327 3.055-.7763.722-.3327 1.3053-.7486 1.8607-1.303.9998-1.0537 2.0552-2.024 3.666-1.9131.361.0277.4999-.1941.7221-.416.8887-.8871 1.6386-1.913 2.7217-2.6339.8054-.5545 1.7497-.6376 2.6106-.9149.9721-.305 1.9996-.4713 2.9995-.6931.722-.1941 1.4441-.3327 2.2495-.4991zM129.487 1042.5164c1.2498-1.5526 3.055-2.1626 5.138-2.329 1.5552-.1386 3.1105-.4435 4.638-.7763.8054-.1663 1.4997.2219 2.2496.2773.3888.0277.611.7486.3332 1.0813-.3055.3881-.6665.7486-1.0831.9981-1.3886.804-2.9994.8872-4.4992 1.2477-.8331.2218-1.6941.2772-2.555.4436-1.1943.2218-1.9997.8318-2.2218 2.1071-.1389.6932-.3611 1.3309-1.0832 1.6913-.8332.4159-1.4719.3604-1.8052-.499-.4999-1.3032-1.4719-1.5804-2.7495-1.6913-1.583-.1387-3.166-.4436-4.7213-.7486-.9998-.1941-2.0274-.416-2.9995-.7209-.722-.2218-1.2775-.6931-1.583-1.4695.111-.194.2222-.3881.3055-.61.4999-.9149.611-.8871 1.6386-.6099 1.4164.3882 2.8606.7209 4.3047.8872 1.4442.1664 2.9162.111 4.3881.2218.7499.0832 1.4719.305 2.3051.4991zM89.0229 819.329c.0555-1.5803.3332-2.6061.9165-3.521.4443-.6932 1.0553-1.0814 1.9163-1.109.5832-.0278.972.2494 1.2775.6653.2777.3882 0 .7486-.1944 1.109-.1666.3327-.361.6377-.4999.9704-.722 2.024.25 2.939 1.8608 4.2143.1388.111.4721.1387.6387.0555 1.0832-.6377 2.3052-.804 3.4716-1.1922 1.4997-.5268 2.9439-1.22 4.4159-1.83.4721-.194.9998-.3326 1.4997-.4435.611-.1387.9442.3327 1.1942.7208.2777.416.1666.915-.1389 1.3031-.2221.2773-.4443.6377-.7498.804-1.3053.7764-2.6384 1.5527-3.9993 2.2459-.6943.3604-1.4997.5267-2.2773.7486-.6943.194-1.1665.5822-1.5553 1.1644-.25.3882-.4999.8041-.8332 1.1091-.9165.8317-2.555.9981-3.1383-.4436-.5832-1.4972-1.8052-2.523-2.6106-3.854-.611-.9703-1.2498-1.9684-1.1942-2.717zM157.3136 801.0015c.0833.4714-.1389.8595-.5555 1.22-1.1387.915-2.2218 1.913-3.666 2.3844-.2222.0831-.4443.194-.6665.2218-1.0276.0831-1.7775.5545-2.4162 1.3862-.4722.6377-1.0832 1.1923-1.6386 1.7468-.5277.5268-1.3331.7208-1.9163.305-.5277-.3882-.9999-.305-1.472-.0278-1.1387.61-2.3329.7486-3.5826.5823-1.2498-.1664-2.3885-.6655-3.3605-1.414-.6666-.5268-.9443-1.3586-1.0554-2.1904-.0555-.499.4722-1.0258 1.111-1.2476.1943-.0555.3887-.0832.5831-.111 1.0832-.1663 1.0832-.1663 1.2498.915.0278.1664.1111.3882.25.499.8331.721 2.5273.7487 3.305-.0277.5554-.5545 1.2497-.6376 1.944-.6376.861-.0278 1.4997-.3882 2.0829-.9982 1.1109-1.109 2.3052-1.9962 3.9993-1.9685.2777 0 .5832-.1663.8332-.305.9442-.5822 1.8607-1.1644 2.7772-1.7467.4444-.2772.8888-.3327 1.4164-.0831.6943.2772.8332.7763.7777 1.4971zM138.1242 966.552c.4722-.4159.9165-.8318 1.3609-1.22.7221-.6376 1.5275-1.1367 2.444-1.4971.8331-.3605 1.583-.9704 2.3606-1.4695.4722-.305.8888-.6931 1.3887-.9981.2777-.1664.5832-.2773.9165-.3327.4721-.0832.9442-.0832 1.222.4436.3055.5268.3888 1.0813.0277 1.608a5.9824 5.9824 0 0 1-.7498.915c-1.1109 1.0536-2.3051 1.9963-3.6938 2.6617-.7221.3604-1.3886.8872-2.0274 1.414-.5832.499-.7776 1.1922-.6943 1.9962.1666 1.6358-1.8885 3.1053-3.3605 2.4399-.5276-.2218-.6943-.6932-.8331-1.1922-.0556-.1664-.0278-.3327 0-.499.1666-1.0537-.3889-1.6636-1.2776-2.1072-.6665-.305-1.3053-.6654-1.9718-.9427-1.5553-.6654-2.5551-1.8853-3.2772-3.3548-.1389-.305-.1667-.8872.0278-1.0813.25-.2495.7498-.3604 1.1386-.3327.4166.0277.861.2495 1.1665.5268 1.0276.9704 2.2773 1.4972 3.5271 1.9962.722.305 1.472.6655 2.3051 1.0259zM146.7872 851.6837c-.0555.2495-.0555.499-.1389.7209-.2777.7763.0834 1.7744.8888 2.024 1.0831.3326 2.1662.6376 3.055 1.3585.3332.2772.6387.194.9442-.1664.8887-.9704 1.833-1.913 2.7773-2.828.6665-.6377 1.0831-1.3308 1.1109-2.2458.0278-.7208.4721-1.2476 1.1387-1.4417.6387-.1663 1.0831.194 1.4441.6654.7777.9704.7221 2.0794.2778 3.1053-.6388 1.4695-1.7219 2.634-2.9995 3.632-.9442.7486-1.8052 1.6913-2.0274 2.8558-.2222 1.1922-.861 1.8021-1.9163 1.9685-.9165.1386-1.6386-.4436-2.2218-1.109-.2222-.2773-.3888-.61-.5832-.915-.361-.5545-.7499-.998-1.472-1.2199-1.7774-.5545-3.1383-2.4676-3.1938-4.2975-.0278-.5822.2222-1.0813.6943-1.3585.611-.3605 1.2775-.61 1.944-.915.1112.0278.1945.111.2778.1664zM107.7135 944.3992c-.5832 1.414-1.833 2.0517-3.1938 2.4676-1.3609.4159-2.7773.6654-4.2492.5268-1.1109-.111-2.0274.3327-2.8328.998-.25.1942-.3611.5546-.5277.8041-.3055.499-.5555 1.0813-.9443 1.4972-.8609.915-1.6941.915-2.5273-.0277-.5832-.6654-1.1942-.8872-2.0552-.6377-1.4997.4159-3.0272.804-4.5547 1.1645-.472.1109-.9998.1663-1.472.1663-.472 0-.9442-.2218-1.1108-.6931-.1944-.5268.1666-.8595.5554-1.1645 1.5275-1.1922 3.2772-1.8853 5.1935-2.1903.6666-.111 1.3331-.1664 1.9719-.305.7776-.1386 1.5275-.1664 2.083.194 1.1108-.7762 2.1384-1.5248 3.166-2.218.8332-.5545 1.7497-.804 2.7495-.6931 1.9996.194 3.9159-.2218 5.8044-.804 1.1387-.2773 1.2776-.1941 1.9441.9149zM190.6969 1033.203c-.5276-.0555-1.0275-.0832-1.5274-.1387-.7499-.0554-1.3887.1387-1.8886.6932-.7221.7763-1.6941 1.0258-2.6939 1.1367-.3333.0278-.7777-.0831-1.0276-.2772-.611-.499-1.1665-.3605-1.7497 0-.972.61-2.0274.9704-3.166 1.109-1.6942.194-3.2217-.2218-4.638-1.1368-.5278-.3327-.6389-.7208-.5-1.2476.1389-.499.4166-.8318.9443-.8872.361-.0278.722 0 1.0831.0277.8332.0832 1.6386.305 2.4718.305.5276 0 1.1386-.2218 1.5552-.5545.8887-.6932 1.8886-1.109 2.9161-1.4418.6666-.2218 1.3331-.0831 1.9441.1941.4444.2218.7777.2495 1.1943-.0832 1.1942-.9426 2.6384-1.1922 4.1103-1.3862.2222-.0278.4444.0554.6665.1386 1.1109.3327 2.2219.4159 3.305-.0555.3055-.1109.6388-.1386.972-.1386.7777.0277.9721.2218 1.222.9427.1944.61-.1388.8872-.5554 1.2476-1.3887 1.0813-2.9995 1.3863-4.6381 1.5527zM155.4001 832.1106c1.1387-1.8022 2.9717-2.7171 4.9158-3.4657.9998-.3882 1.7774-.9427 2.3329-1.9131.5277-.915 1.1942-1.1368 1.8885-.6654.3055.2218.6666.6654.6666.9981.0277.8318-.1111 1.6358-.6943 2.329-1.0276 1.2199-2.1385 2.218-3.7216 2.7448-1.222.3882-2.2218 1.1645-3.0272 2.218-.1666.1941-.25.4714-.3333.7209-.4443 1.3586-1.8052 1.8299-2.9716 1.0258-1.1665-.7763-1.1387-.8317-2.6107-.998-1.6108-.1942-2.6939-1.0536-3.4437-2.4122-.1667-.305-.25-.6931-.2222-1.0259.1666-1.2476.6387-2.3012 1.9163-2.8002.361-.1387.611-.1941.9443.0277.3332.2218.3888.5268.3054.8595-.0277.0554-.0277.1386-.0555.194-.2222 1.2477-.0833 1.4695 1.1387 1.6913.9442.1387 1.8885.2773 2.9716.4714zM182.9199 968.021c-.0278.998-.4166 1.719-1.1109 2.2734-1.1943.9427-2.4996 1.5804-4.0271 1.8854-1.4164.2495-2.3606 1.1367-2.805 2.5507-.1666.5268-.3611 1.0813-.6943 1.525-.5277.7208-1.583.9981-2.333.693-.472-.194-.8331-.4713-.9997-1.0258-.25-.804-.4166-.8317-1.222-.8595-1.1665-.0277-2.3051-.2495-3.3883-.7208-1.1386-.499-1.8052-1.414-2.2495-2.5508-.1945-.499.0555-1.303.472-1.608.5278-.3605.9166-.3328 1.5276.194.2777.2218.5554.4713.8331.7209.9165.8317 2.0552 1.0536 3.2494.9704.5555-.0278 1.0832-.1941 1.6664.0554.3333.1387.722.1387.972-.2772.972-1.5804 2.5273-2.218 4.2215-2.5785 1.3886-.305 2.5828-.8318 3.5826-1.8576.4166-.416.9443-.4436 1.4998-.305.4999.1386.8054.5545.8054.915zM188.0042 847.9141c.6944-1.7467 2.2496-2.3012 3.8049-2.7725 1.1109-.3328 2.2496-.5268 3.3883-.804.2499-.0555.5276-.0833.7776-.2219 1.0276-.5545 1.9441-.0832 2.8606.3327.361.1664.4443.5545.1388.8318-1.0553.9427-2.1107 1.9408-3.5827 2.2735-1.0553.2495-2.1107.5545-3.166.8318-.9165.2495-1.472.804-1.8052 1.6912-.5833 1.5804-2.3052 2.0794-3.6105 1.0259-.4443-.3605-.8331-.2496-1.1942-.0278-.5277.3327-1.0831.6932-1.5275 1.1368-1.0553 1.0258-2.3329 1.5249-3.7215 1.8021-.3055.0555-.6666.0278-.972-.0554-1.0554-.2773-1.2498-.8595-.611-1.7744.361-.4991.7498-.8595 1.3886-1.109.8887-.3328 1.7496-.8596 2.444-1.4972 1.7219-1.4695 3.055-1.9686 5.3878-1.6636zM204.6948 1037.673c1.583-.998 3.1938-.4713 4.7769-.1386 1.0553.2496 2.0274.2218 3.0272-.0554.2777-.0832.5832-.1386.8887-.111.3888.0278.8887-.0276.9998.4437.1389.499.1944 1.0258-.2777 1.4695-1.4997 1.4694-3.3049 1.719-5.2768 1.3585-.611-.111-1.222-.2772-1.833-.3881-.611-.1387-.9998.2218-1.3886.61-1.0554 1.0535-2.0552 1.1644-3.1939.3049-.3332-.2495-.5554-.6654-.861-1.0536-.6665-.1663-1.3052.1941-1.9162.4714-1.9996.9704-3.8604.6654-5.6656-.4437-.1944-.1109-.3888-.2495-.5832-.4158-.6388-.4991-.6944-.721-.4166-1.4695.2221-.5545.722-.8318 1.3608-.7209.3055.0555.5833.111.861.2496 1.4442.6931 2.8328.4713 4.2492-.1664.6665-.305 1.333-.61 2.0551-.7486 1.1387-.2495 2.2496.0278 3.1939.804zM20.6462 807.3793c-.361-1.7467-.0555-3.2162.2777-4.7133.2222-.9704.2222-1.9686.25-2.9667.0278-.8317.1111-1.0813.6388-1.303.611-.2496 1.1664-.111 1.6386.3603.5276.4991.9165 1.109.9442 1.83.0278 1.0812-.0277 2.1903-.1111 3.2716-.0277.499-.1388.998-.3332 1.4417-.3888.9427-.1111 1.8299.2222 2.7171l.4165.9981c.3611.8595-.1388 2.2181-.9998 2.5508-.2777.1109-.6943-.0278-1.0276-.1387-.361-.1386-.722-.3327-1.0275-.5822-1.1387-.804-2.2218-.5268-3.3605.0555-1.222.6377-2.4718 1.109-3.916.804-.9165-.1941-1.3608-.8872-1.8607-1.5526-.25-.3327.0833-.6377.4166-.7763.361-.1387.7776-.2218 1.1664-.2773.972-.0832 1.7497-.4713 2.5273-1.0536.8887-.6931 1.9719-.9426 3.1105-.804.3055.0832.5833.0832 1.0276.1386zM121.434 826.6486c.4444-.1664.722-.2496.9443-.3882.3888-.2218.7498-.1386 1.1386.0277.5833.2218 1.1943.3605 1.8053.4714.1944.0277.472-.0555.6387-.1664.861-.6377 1.833-.7486 2.8328-.6654.5555.0277.9998-.0555 1.472-.4159.8332-.6377 1.8885-.8595 2.9161-.915 1.2498-.0831 2.3051-.4158 3.2494-1.2476.5554-.499 1.1109-1.0258 1.9719-1.0813.9998-.0277 1.6108.5822 1.3608 1.5526-.1389.5268-.4166 1.0813-.7776 1.4695-.6388.6654-1.3886 1.22-2.1107 1.8022-.9443.7763-2.1108.9426-3.2772 1.0258-.6666.0555-1.1665.1664-1.5275.8872-.2777.5268-.8332.9704-1.3609 1.2754-.6387.3604-1.4164.4713-2.0551 0-.7499-.5545-1.472-.61-2.333-.3604-2.194.6377-3.9992-.8873-4.6657-2.1072-.1389-.3604-.1389-.7763-.2222-1.1645zM125.0989 851.2964c.2499 1.0259.1944 1.9963-.4444 2.9112-.9443 1.3586-2.0274 2.5508-3.3605 3.5212-1.3053.9426-2.1662 2.1071-2.194 3.7984-.0278.804-.25 1.5249-1.0554 1.8853-.3332.1664-.7498.305-1.1109.2495-.4999-.0554-.7498.1387-.9442.5268-.2222.4714-.4166.9981-.7221 1.414-.9998 1.2477-3.3605 2.1626-4.9713 1.5527-.5832-.2218-.8054-.4436-.8332-.9704-.0278-.5268.25-.8041.722-.9427.3056-.1109.6389-.2218.9444-.305 1.3053-.3327 2.3884-.8872 2.5828-2.3844.5555-.61 1.0831-1.2199 1.6664-1.7744.2777-.2495.6943-.3605.9165-.4436.361-.9704.6387-1.8022.972-2.6062.1389-.3327.3333-.6377.5832-.8872.6943-.6655 1.4442-1.3032 2.1107-1.9686.6944-.7208 1.3331-1.4694 1.9997-2.218.2499-.2773.4999-.5268.7221-.8318.6387-.7763 1.3608-1.0258 2.4162-.5268zM127.4613 899.7053c.9442-1.2199 2.3884-1.7744 3.8881-2.218 1.4164-.4436 2.694-1.1367 3.8049-2.1071.611-.5268 1.6108-.7764 1.9996-.5268.3888.2495.3888 1.3585-.0278 2.1348-.6388 1.1368-1.4997 2.0517-2.6939 2.5785-.8054.3605-1.6386.7209-2.4996 1.0259-1.1386.4159-1.9996 1.0813-2.5273 2.218-.5832 1.3308-2.194 1.4417-3.0272.2773-.6943-.9982-1.6108-1.4972-2.8606-1.5527-1.2775-.0554-2.444-.5822-3.5826-1.1644-.7499-.3882-.9998-1.0259-.8887-1.7468.111-.8317.6665-1.2476 1.4164-1.5249.361-.1386.6665.0555.6387.3882-.0277.6931.3889.8318.9165.9427 1.0832.2218 2.1385.4713 3.2216.6931.7499.194 1.4442.3882 2.2219.5822zM152.0927 946.0907c-.5276 0-1.0276-.0277-1.5275 0-1.7774.111-3.527-.1109-5.249-.499-.4166-.0832-.7776-.3882-1.1387-.5823-.611-.305-.361-.9981.1389-1.1367.611-.1941 1.2775-.3604 1.9163-.3882 1.0276-.0554 2.0552 0 3.0828-.0277.4721 0 .9442-.0832 1.3608-.194.7221-.2219 1.4164-.3328 2.1663-.1664.4166.1109.6943-.0832.972-.3328.4999-.4436.9998-.8872 1.5275-1.2753.3888-.2773.861-.499 1.3887-.3604.9442.2495 1.7774-.0555 2.5828-.4437.6388-.2772 1.2775-.5822 1.9163-.8317.3333-.1387.6943-.1664 1.0554-.2218.5276-.0832.8887.194 1.0831.6654.1944.499.1666.9981-.25 1.3863-1.2219 1.109-2.5828 1.9685-4.1936 2.3844-.611.1663-1.222.3327-1.833.4713-.5555.1109-.861.3881-.9165.9981-.0833.8318-.4166 1.4972-1.2775 1.8576-1.1943.4714-2.0552.1941-2.6385-.9704l-.1666-.3327zM172.1719 890.4727c.0833.6931-.1389 1.3863-.5277 1.8853-.6666.804-1.472 1.525-2.2218 2.2458-.5833.5545-1.2498.9981-1.7775 1.5804-.3055.3604-.4443.8595-.6387 1.3308-.0556.1109-.0001.2773-.0278.3882-.0833.693-.3333 1.3585-1.0276 1.5803-.7221.2218-1.4442-.0277-1.9996-.61-.2222-.2495-.4722-.499-.611-.7763-.3055-.61-.861-.8317-1.4442-.915-.5832-.1108-1.1942-.1385-1.7775-.2217-1.1664-.1941-2.2495-.5823-3.0827-1.4972-.9998-1.109-.6943-2.6894.611-3.3548.4166-.2218.7498-.1109.8054.3604.111 1.0813.8054 1.4695 1.7219 1.6081.8887.1387 1.7775.2218 2.6662.3327.4721.0555.9165.1387 1.3608.2496.7777.2218.8054.2218 1.3331-.416.5277-.6099 1.0276-1.2476 1.6386-1.719 1.1387-.8317 2.194-1.6912 3.0827-2.828.2778-.3604.8332-.4713 1.3054-.6376.1388-.0555.4443.1663.4999.3327.0555.3604.0555.7209.1111 1.0813zM208.9457 914.455c-1.0832-.0276-2.0552-.4435-3.0273-.7762-1.0553-.3605-1.9718-.4436-2.8328.4436-.5277.5545-1.333.5268-1.9163.0554-.7776-.61-1.2775-1.303-1.1664-2.4398.0833-.6377-.361-1.3863-.6666-2.0517-.3888-.915-.7498-1.8576-.611-2.8835.0556-.5268.2222-1.0258.4444-1.4972.25-.5822 1.0831-.9149 1.6941-.7763.5555.1387.9443.61.9165 1.3863-.0278 1.3586.5 2.523 1.1665 3.632.2221.3605.4443.5546.9442.5269 1.3054-.111 2.6107.1663 3.8049.693.7776.3605 1.583.4714 2.4162.4714.4721 0 .972.1664 1.4164.305.4166.1386.4999.499.4166.915-.1666.8317-.7499 1.3308-1.4997 1.6358-.4444.194-.9998.2495-1.4997.3604zM94.6895 805.5494c.3889-.61.6943-1.1644 1.0554-1.6635.8332-1.1367 1.3608-2.4398 1.6663-3.7984.1389-.5545.4444-.8595.9443-.8318.5277.0278 1.1387-.1109 1.472.5823.5276 1.1645.4999 2.329-.0278 3.4934-.4444.9704-.9998 1.8853-1.4164 2.8557-.2222.5268-.3333 1.1368-.4444 1.6913-.2499 1.3031-1.2775 2.6062-2.5273 2.6617-.4166.0277-.722-.0832-.9998-.4714-.5832-.7763-1.2775-1.4694-2.3607-1.4972-.3332 0-.6665-.0277-.972.0278-1.5553.2495-2.7773-.416-3.3883-1.83-.2221-.499.0278-.9703.6666-1.0812.4166-.0832.861-.0277 1.3053-.0832.861-.1109 1.6941-.3604 2.555-.3604.8055 0 1.6109.194 2.4718.305zM205.0548 962.0325c1.5275.0277 2.805.7209 4.1382 1.3586.611 1.0258 1.222.5822 2.0274.1663 1.1942-.61 2.5273-1.0258 3.8048-1.4972.0833-.0277.1944-.0831.2777-.0831.611-.0555 1.3053-.0555 1.6108.5268.25.5267-.0833 1.0812-.4443 1.5249-.6666.8594-1.6941 1.2476-2.5829 1.8299-.972.61-1.9996 1.0813-2.5828 2.218-.3333.6931-1.0831 1.1645-1.9163 1.3308-1.4442.305-2.6662-.7208-2.5829-2.1903.0833-1.2754-.2777-1.7744-1.4997-2.1071-.7776-.2218-1.5553-.3882-2.3051-.61-.4722-.1386-.8332-.4159-.861-.9981-.0277-.804.2777-1.2754 1.0832-1.3863.6387-.0554 1.222-.0555 1.833-.0832zM143.1525 879.3551c-.1388 1.4417-.3055 2.6062-1.0275 3.6043-.5555.7486-.6666 1.525-.4444 2.4399.25.9704.0556 1.8022-.972 2.3567-.5833.3327-1.0276.9149-1.472 1.4417-1.583 1.8853-3.3882 2.3567-5.5545 1.3308-.5555-.2772-.972-.7486-.8332-1.5249.1389-.6931.7221-1.2476 1.3609-.9427 1.222.5823 2.1662-.0831 2.7772-.9981.3333-.499.7499-.915 1.0832-1.414.1666-.2495.3888-.5822.3888-.8872 0-1.4417.4443-2.7448 1.1664-3.9648.0556-.1109.1389-.2218.2222-.3327.5555-1.0258.5-1.4417-.3333-2.2735-.2221-.2218-.4721-.3881-.6665-.5822-.3888-.3604-.361-.6654.0555-.9704.7221-.5545 1.2498-.61 1.9997-.1109.6387.4159 1.4441.5822 1.7496 1.414.1667.5268.3611 1.0536.4999 1.414zM211.1952 879.0496c-.3888 1.3031-1.2775 2.1072-2.4162 2.523-1.2498.4437-2.5551.6932-3.8604.9704-.7499.1387-1.3886.4714-1.9163.9982-.7499.7208-1.5553 1.3862-2.6662 1.3862-.2777 0-.5554-.1109-.8331-.1386-.4444-.0554-.8888-.1663-1.3331-.1663-.75 0-1.5275.194-2.2774.1386-1.9163-.1386-2.9161-2.0517-1.9996-3.743.2777-.499.6665-.5545.9998-.1386.3055.3882.4721.9427 1.0831.915.5-.0278.972-.1664 1.472-.2219.6943-.0831 1.3886-.2218 2.0551-.1386.4444.0555.75.0555 1.0554-.2772.8887-.9704 2.0552-1.3863 3.3605-1.5804 1.5552-.2218 3.0828-.5545 4.6102-.804.861-.1664 1.7775-.1664 2.6662.2772zM177.9787 868.403c.1666.1664.5554.3604.6665.6654.2222.499.25 1.0536.0833 1.6636-.4166 1.4971-1.2775 2.6893-2.4717 3.6597-.5277.4436-.8887.9704-1.111 1.6081-.4998 1.4695-1.222 2.7448-2.916 3.0776-.5.0831-.6944.499-.9443.8317-.7221.9704-1.5275 1.8299-2.5829 2.4676-.8887.5545-1.833.5545-2.7772.3327-.1944-.0554-.3888-.3327-.4722-.5268-.111-.3327-.0555-.6377.3056-.8595.6387-.4159 1.3053-.8317 1.8885-1.3031.4166-.3327.8887-.6931 1.0553-1.1644.5833-1.4418 1.5553-2.523 2.8329-3.3549.4165-.2772.5832-.6654.7498-1.109.2222-.5822.611-1.109.9998-1.5803.4722-.5545 1.0831-.9982 1.5553-1.525.5832-.6654 1.1109-1.414 1.6663-2.1348.3333-.4159.7499-.6654 1.472-.7486zM148.595 896.406c1.722.8872 2.7773 2.1626 2.8328 4.1034.0278.6654.1667 1.3308.1111 1.9685-.0555.804-.4443 1.525-.9443 2.1626-.3054.3882-.4443.7763-.4165 1.2754.0555 1.109-.5555 1.7744-1.6664 1.7467-.4444 0-.7499.1663-1.0554.4159-.8054.5822-1.4997 1.3863-2.555 1.4417-.9165.0555-1.8608.1386-2.7773.0555-.4166-.0278-.861-.3605-1.1664-.6655-.3055-.3049-.4444-.7485 0-1.1367.111-.1109.1944-.2773.25-.4159.2221-.4436.5831-.5822.9997-.3604.9443.4713 1.7775.0277 2.5829-.3327.6665-.2773 1.2497-.7763 1.833-1.22.1944-.1663.3333-.4713.3888-.7486.1389-.7485.3888-1.3862.9165-1.9407.5277-.5268.7776-1.1922.722-1.9963-.0555-.9427-.0555-1.8299-.5831-2.6894-.4722-.6376-.0278-1.1644.5276-1.6635zM110.3531 809.2653c1.3886.0277 2.5829.1386 3.777.0555.7777-.0555 1.5553-.3328 2.333-.5546.6387-.194 1.1109-.0554 1.5275.416.4721.5267.4443 1.0535 0 1.608-.861 1.0813-2.083 1.4972-3.3883 1.6913-.5832.0831-1.1942.0831-1.7774.0554-.5555-.0277-.972.111-1.3331.499-.1666.1664-.3333.3328-.5277.4437-1.3886.9704-2.9439.3327-3.0827-1.109-.1111-1.0259-.6666-1.83-1.3331-2.6062-.8054-.9704-1.2776-2.1072-1.0554-3.438.0833-.5545.4721-.9427 1.0554-1.0536.5276-.1109 1.3608.194 1.4441.6654.2222 1.5804 1.5553 2.329 2.3607 3.3271zM185.0871 770.2818c-.5832.6931-1.2498 1.1922-2.0829 1.4972-.9443.3604-1.9441.6931-2.8606 1.1644-1.2775.6377-2.1385 1.6913-2.4718 3.0776-.1388.61-.3055 1.1645-.8331 1.5249-.5277.3604-2.1108.2495-2.5273-.2495-.611-.7209-1.4442-.9704-2.3052-1.0536-1.0553-.111-2.1107-.2495-3.1383.1386-.111.0555-.25.0555-.3888.0555-.722.0554-.9443-.2496-.6388-.8873.1389-.2772.361-.5822.611-.7763.972-.804 2.083-1.303 3.3605-1.2199.9165.0555 1.8608.1386 2.7773.305.9442.1663.9442.2218 1.3886-.5822.5555-.9982 1.3053-1.8577 2.2774-2.4676.722-.4714 1.4997-.6654 2.3328-.7763 1.111-.1664 2.1941-.4714 3.3605-.3882.4999.0277.861.1664 1.1387.6377zM181.422 899.8438c.0278.194.0556.3327.0834.4436.0833.6654.2777.7763.9165.6654.3888-.0832.7776-.0832 1.1664-.1664.5-.1109.972-.2218 1.3609-.6654.6665-.7486 1.5275-1.303 2.4995-1.5526.611-.1664 1.0831-.4713 1.472-.9704.1388-.194.3055-.3604.4721-.5268.7499-.7209 1.8608-.4159 2.1107.5545.0833.3327.0556.7486-.0278 1.0813-.3055 1.1922-1.0553 2.1072-2.1107 2.6617-1.0553.5545-1.9163 1.2476-2.555 2.2735-.5555.915-1.3887 1.4694-2.5829 1.2754-.5554-.111-1.1387-.0555-1.6941-.111-1.0276-.1108-1.8886-.61-2.6662-1.2476-.5555-.4713-.722-1.608-.4166-2.329.361-.998.8887-1.3862 1.9719-1.3862zM179.8654 950.7199c.1944-.2219.361-.416.4999-.6377 1.222-1.8854 3.1383-2.4676 5.1657-2.4953 1.333-.0278 2.6106.61 3.3049 1.9408.1389.2772.1944.7208.1111 1.0258-.1666.4713-.6388.3604-1.0554.2773-.5832-.1387-1.1664-.305-1.7496-.3882-1.2498-.2218-2.3052.194-3.1106 1.1368-.361.4158-.611.9426-.9442 1.3862-.3055.4437-.5832.8873-.972 1.2754-.611.6377-1.2498.6654-1.9441.111-.1945-.1387-.3611-.305-.5277-.4714-1.0832-1.1368-2.444-1.4418-3.9437-1.2754-.4444.0554-.8054.0277-1.0276-.3604-.0833-.1664-.1667-.416-.1111-.5546.4721-.9703.972-1.8298 2.2496-2.024 1.2497-.194 2.3884-.083 3.416.6932.1944.111.3888.2218.6388.3605zM144.4572 998.6863c-.1944-.804-.0555-1.2754.6388-1.7744.8332-.5823 1.4997-1.3863 2.194-2.1627.6388-.7208 1.3887-1.0258 2.3052-.7485.472.1386.7776.0554.972-.3882.861-1.8853 2.5273-2.634 4.4158-3.0221.7499-.1386 1.4997-.305 2.2774-.3604.6387-.0555 1.3053 0 1.9718.0554.3611.0277.4999.3327.4444.6654-.0833.6377-.4166 1.1645-.9998 1.3863-.861.3327-1.7497.61-2.6662.7763-1.7219.305-3.0272.9982-3.416 2.828-.0556.2773-.2222.5546-.3333.8318-.5277 1.0536-1.5553 1.3031-2.5828.6654-.0834-.0554-.1944-.0554-.361-.1386-1.4165 1.0536-2.944 1.7744-4.8603 1.3863zM137.0138 914.7884c1.6108.499 3.3605.1386 4.8602 1.0812.361.2219.6943.1941 1.0276 0 1.6386-.8872 3.5549-1.1644 5.0546-2.3566.25-.1941.6943-.305 1.0276-.305.972 0 1.1664.4159.8609 1.3586-.5554 1.7467-1.9718 2.4952-3.4993 3.1052a31.7414 31.7414 0 0 0-2.7773 1.3031c-1.2497.6654-2.2773.4159-3.2771-.4713-.2222-.1941-.5555-.3327-.861-.4436-.9443-.3327-1.9163-.5545-2.8328-.9427-1.0553-.4713-1.1942-.9981-.3888-2.024.1666-.194.5277-.194.8054-.305zM59.6395 1005.4508c-.1666-.1663-.25-.2218-.25-.2495-.0833-1.719.2222-3.2994 1.6942-4.4361.722-.5545 1.4442-1.0813 2.4162-1.0536.4166.0277.8332.0832 1.3053.1386.0833-.194.1944-.3881.25-.61.2222-.7485.6943-1.303 1.3608-1.6634.8332-.4714 1.722-.8596 2.6107-1.2477.6109-.2773 1.2497-.4436 1.8885-.6931.5832-.2219 1.1664-.2496 1.7497.0554.5832.305.722.61.3055 1.0813-.4166.499-.9443.9427-1.5275 1.2477-.611.3327-1.3053.5268-1.9441.7763-.3888.1663-.8054.305-1.1942.499-.6944.3605-1.111.9427-1.1665 1.7467-.0278.5268-.1944.9705-.6665 1.2754-.361.2496-.6943.305-1.111.1941-1.9162-.5822-2.4995-.4159-3.666 1.1922-.5276.804-1.444.9981-2.055 1.7467zM121.211 783.7021c1.583-1.9963 3.777-2.8558 5.9989-3.7153-.0833-.5822-.25-1.1922-.2778-1.8021-.0277-.3604.1111-.7763.2778-1.109.2221-.4714.5554-.915.8331-1.3586.8055-1.2476 2.1385-1.8576 3.305-2.6616.1111-.0832.3055-.0278.6388-.0555-.1111.3327-.1667.5545-.2778.7486-.6665 1.109-1.3608 2.1903-2.0551 3.2993-.2778.4436-.361.915-.1667 1.4418.2777.7486.5555 1.4971.7777 2.2457.1666.5268.2777 1.109.2777 1.6358 0 .8041-.3888 1.0814-1.1665.9982-.3332-.0278-.722-.0555-.972-.2218-.6388-.416-1.2775-.305-1.9163-.1109-.6388.194-1.2498.4436-1.8885.6377-.6944.194-1.4165.3604-2.1385.5267-.4166.0832-.5555 0-1.2498-.499zM96.8535 1002.618c.0833-.9427.3333-1.2754 1.0831-1.3863 1.6664-.2496 3.3327-.2219 4.9158.499.722.3327 1.3053.4159 2.0274-.0554 1.7497-1.1368 3.6382-1.3863 5.6656-.8318.3055.0832.6665.0832.972.1664.3611.0831.7221.1386 1.0276.3327.25.1663.5277.5267.4999.7485-.0555.305-.3333.6932-.6388.804-.5276.1664-1.1109.1942-1.6663.1942-.5277 0-1.0554-.1387-1.583-.111-1.6108.0278-2.9717.5546-3.9438 1.9131-.6387.8873-1.1664 1.0259-1.8052.1941-.972-1.2754-2.3329-1.4972-3.7215-1.7744-.972-.1387-1.8885-.4436-2.8328-.6932zM181.1724 1001.3196c1.1664-.7209 2.194-1.414 3.2771-1.9685.611-.305 1.3887-.1387 1.9719.2218.4166.2495.3055.6654.1111 1.0813-.3888.804-.972 1.4417-1.7497 1.8299-.7498.3604-1.3053.8594-1.6663 1.608-.4722.9427-1.6664 1.1922-2.5551.61-.8887-.61-1.7775-.9704-2.8884-.5822-.4443.1663-.9998.0831-1.472.0277-.9164-.1386-1.444-.915-1.2774-1.8022.0833-.3881.2777-.6931.7776-.7763.7776-.1386 1.5552-.3604 2.3329-.5545 1.0831-.2773 2.1662-.0832 3.1383.305zM156.2314 786.4185c.3888-.4436.7776-.8595 1.1387-1.2754.4999-.5268 1.0276-1.0536 1.4997-1.608.6943-.7764 1.6664-1.0536 2.5829-1.4418.3332-.1386.6665-.1109.8887.2495.1944.3327.0555.5823-.2222.7763-1.222.7764-1.8608 2.0795-2.8328 3.0776-.3333.3604-.6666.7486-.9165 1.1645-.25.4158-.4166.8872-.611 1.3308-.0833.2218-.0833.4713-.1666.6654-.4444.9704-.9443.9427-1.7775.5822-.25-.1109-.4721-.3604-.6943-.5822-.8332-.8595-1.7774-1.3863-2.9994-1.3308h-.3055c-.4166 0-.6666-.2496-.6943-.5823-.0278-.2495.0833-.5822.2499-.804.7776-.9427 1.8608-.8872 2.9161-.7486.611.111 1.1942.3327 1.9441.5268zM93.3555 910.435c.2777.0832.4999.0832.6665.1663.4166.1664.5277.4714.2777.8873-.3055.5545-.6387 1.0813-.972 1.608-.5.804-1.0276 1.5804-1.0831 2.6063-.0556.9426-.6388 1.608-1.583 1.9685-.6389.2495-1.1943.7208-1.8053 1.0536-.5.2772-.9998.5267-1.5275.6931-.6943.194-1.0276-.2218-.8054-.8872.1666-.4714.4166-.8872.722-1.3031.2778-.3882.6944-.7209.9999-1.109.5832-.6655 1.0276-1.3586 1.3609-2.2458.5832-1.5527 1.8052-2.6617 3.3327-3.3825.1666-.0278.3332-.0555.4166-.0555zM157.6483 920.555c-.2222.305-.4444.5545-.6388.804-.611.7763-1.1942 1.5526-1.4164 2.5785-.2222 1.0535-1.0276 1.4417-1.9996.998-1.0831-.4712-2.1663-.4712-3.2772-.083-.1944.0554-.361.1663-.5554.1663-.361.0277-.5833-.1941-.4722-.5546.4722-1.5803 1.3054-2.6616 3.2217-2.6616.6665 0 1.083-.194 1.4997-.7209.5832-.8317 1.3886-1.414 2.4995-1.3308.5.0554.611.1386 1.1387.804zM189.9763 884.567c-.2778.1664-.5.305-.7499.4436-.6665.3605-1.3609.721-2.0274 1.0813-.7499.416-1.3053.9982-1.6108 1.83-.1389.3604-.4166.693-.6943.9703-.8054.804-1.6108.7763-2.3885-.0831-.5554-.61-1.333-.721-2.0274-.9704-.3888-.1387-.972-.0832-.972-.6655 0-.61.5832-.5267.972-.61.8332-.194 1.6386-.4713 2.5274-.194.2221.0555.5554-.111.7776-.2773.4443-.3327.8054-.804 1.2775-1.109 1.4442-.9981 3.0272-1.0258 4.6658-.6931.0556-.0277.1111.0832.25.2772zM203.6867 144.1947c1.9022-.4926 3.8397-.6333 5.7772-.176.7397.176 1.4795.4223 2.2192.6334 1.1625.3166 2.325.1407 3.4875-.2463.5988-.176 1.2329-.387 1.8317-.5277.3523-.0704.7398-.1056 1.0921-.0704.5284.0352.9159.3166 1.1272.8444.2114.5277-.1057.8444-.4227 1.161-.2114.2111-.4579.4222-.7045.5278-1.867.8796-3.8397 1.548-5.9181 1.3017-1.2329-.1407-2.4658-.3518-3.6283-.7388-1.6204-.5277-2.8534-.1407-3.9806 1.0203-.6341.6685-1.4795.8444-2.3954.5981-.8807-.2463-1.1977-1.0555-1.233-1.7943-.0352-.6685-.317-.8796-.8102-1.0555-1.0568-.387-2.0431-.8444-3.0999-1.161-1.8318-.563-3.1352-1.7592-4.1215-3.3424-.3875-.6333-.5284-1.3722-.458-2.111.0353-.4222.141-.8092.6341-.8796.4932-.1055 1.0216-.211 1.409.2463.141.1759.282.387.3524.5981.8102 1.7592 2.2192 2.674 4.051 3.1313 1.1977.2815 2.3602.7037 3.5227 1.161.4227.176.8454.5981 1.2681.8796zM151.0216 295.3054c.2818 1.0906.9863 1.8295 1.726 2.5683.9864.95 2.1841 1.3018 3.417 1.0555 1.6557-.3518 3.2761-.3518 4.8965.1408.4932.1407.8807 0 1.2682-.387.9511-.9148 1.867-1.8648 3.1704-2.2518.8806-.2463 1.8318-.4222 2.7124-.598 1.1625-.2464 2.2897-.4223 3.4874-.3871.6693 0 1.3387-.1407 2.008-.176.4579-.0351.9511-.0703 1.409.0353.5284.1055.6693.5629.3875.985-.2114.3167-.4932.6686-.8102.8445-1.0568.598-2.184 1.0907-3.417 1.0555-1.4795-.0704-2.8533.4222-4.2624.7388-1.4795.3167-2.642 1.0907-3.0999 2.7091-.2818.9851-1.1977 1.337-2.0784 1.548-.5988.1408-1.2329-.1759-1.409-.7388-.3171-.9851-1.092-.9851-1.867-1.0203-.775-.0352-1.55.0704-2.325.0704-1.7261-.0352-3.417-.2463-4.826-1.4073-.916-.8444-1.4091-1.8296-1.4091-3.0962 0-.774.3523-1.2314 1.0216-1.6887zM171.3832 51.9447c.2466-.4574.5284-.8796.7398-1.337.2466-.598.7397-.95 1.3034-1.1962.7397-.3167 1.4443-.7388 2.2192-.95 1.5148-.4573 2.5011-1.548 3.3818-2.7442.5284-.7389 1.1272-1.1259 2.0783-.8444.4932.5981.458 1.337.1762 2.0406-.1762.4574-.458.8796-.7046 1.337-.7397 1.4425-2.1488 1.935-3.5226 2.4628-.8807.3518-1.7966.6333-2.2897 1.5128-.3171.563-.5284 1.2314-.7398 1.8296-.317.9147-.9159 1.3017-1.867 1.0554-.4579-.1055-.9159-.2462-1.3386-.4573-.634-.2815-1.1625-.2111-1.6909.2462-.1761.1408-.3875.2815-.5636.4574-1.55 1.4073-3.417 1.8999-5.4601 1.9703h-.5989c-1.092 0-1.092 0-2.0431-.9148.634-.5981 1.3738-.9499 2.2545-1.1258.8454-.176 1.6909-.4574 2.4658-.8444.7398-.3519 1.3387-.8796 1.7261-1.6185.5284-1.0203 1.4443-1.337 2.5364-1.2314.5988.1408 1.2329.2463 1.9374.3519zM203.9298 218.958c.1409.2463.2465.4574.3874.6333 1.092 1.7591 2.642 2.9906 4.5795 3.7294.1409.0352.2466.1056.3523.176.6693.387 1.3033.6332 1.9726-.1056.2466-.2815.775-.3519 1.1977-.4222 2.0079-.2815 3.9806-.563 5.9885-.774.7398-.1056 1.4796-.0704 2.0432.4925.5284.5277.4932.8444 0 1.4073-.5636.6685-1.3034.9148-2.1136 1.0555-1.3738.2463-2.7829.4574-4.192.6685-.8806.1407-1.55.5277-1.9726 1.3721-.317.5981-.775.9852-1.4443 1.1259-1.233.2463-2.4307-.1408-2.8182-1.4425-.2113-.6685-.6693-1.0555-1.3033-1.3018-1.7966-.7037-2.8886-2.111-3.6988-3.7998-.141-.3166-.2114-.7036-.2818-1.0555-.0705-.8092.5636-1.161 1.3034-1.7591zM204.2136 44.7321c.0704.563.1056.8796.1409 1.1963.1409.8443.5636 1.2314 1.3738 1.337.5988.0703 1.1977.1406 1.7965.1055.8807-.0352 1.6557.1759 2.3955.5277.8102-.5277 1.5147-1.1259 2.3601-1.548.5637-.2815 1.2682-.4222 1.9023-.4574 1.2329-.0704 2.4658 0 3.6987-.0704.4228-.0352.8103-.2463 1.1978-.4222.4579-.211.8806-.4926 1.3033-.7388.5637-.3167 1.0921-.1056 1.6909.0703.2466 1.1963-.3523 2.0758-1.1625 2.7795-.8806.7388-1.9727 1.0203-3.0647 1.1258-.9511.0704-1.9022.176-2.8181.0704-1.4091-.1759-2.2897.5981-3.0295 1.5832-.9863 1.3018-2.642 1.3722-3.593.1056-.3171-.4574-.775-.4574-1.233-.4926-.9159-.1055-1.867-.1407-2.783-.3166-1.5147-.2815-2.5714-1.7943-2.3249-3.3072.0705-.4222.4932-.8796.8455-1.161.2818-.2463.775-.2463 1.3034-.387zM200.513 71.7525c.3874.7037.7397 1.3722 1.092 2.0407.5636 1.0906 1.1977 1.4073 2.4658 1.1962.5989-.0704 1.1977-.0352 1.7966-.1056.1761 0 .3875-.1055.5284-.211.3523-.2815.6693-.563.9863-.8796 1.1273-1.1963 2.5011-2.0055 4.0159-2.6036l3.8044-1.5832c.2114-.1056.4227-.176.6693-.2111.5989-.0704.8807.1407.9159.7388.0353.6333-.1057 1.1963-.5988 1.6536-.7398.6685-1.55 1.2314-2.5011 1.4777-1.7966.4574-3.2761 1.3722-4.509 2.7091-.2114.2111-.3875.5981-.3523.8796.0705.95-.3875 1.5129-1.1977 1.8647-.775.3518-1.3738.0352-1.867-.4926-.458-.5277-1.0216-.3518-1.5852-.3166-1.6909.0704-3.2056-.4222-4.2976-1.7592-.7045-.8444-1.0216-1.8647-1.092-2.9905-.0705-.774.4931-1.2314 1.726-1.4073zM181.3162 245.5219c1.8318-.5278 3.9806-.5981 6.1647-.5981.4932 0 1.0216-.0704 1.4795-.176.6341-.1407 1.1977-.0351 1.7613.176.3523.1407.6693.3166.7046.774 0 .4222-.1762.7037-.5284.8796-1.0921.6333-2.2545 1.0555-3.5227 1.161-.8102.0704-1.6204 0-2.4306.0704-.7045.0352-1.4091.1055-2.0784.2815-.458.1407-.8102.5277-1.233.8092-.1408.1055-.2465.2463-.3522.387-.4227.598-.8806 1.1258-1.726.8796-.9512-.2463-1.5853-1.0555-1.6557-2.0407 0-.0703-.0353-.1407 0-.211.4227-1.4074-.458-2.111-1.55-2.674-.7045-.3518-1.4443-.7388-2.1136-1.161-.458-.3166-.8806-.7037-1.233-1.161-.493-.5982-.3522-1.0555.3876-1.3018.3523-.1056.8102-.176 1.1625-.0704 1.0215.387 2.0431.8092 3.0647 1.3018.634.3166 1.1977.7036 1.7613 1.1258.634.4574 1.1625.9148 1.9374 1.548zM211.6469 182.5092c-.2466-.0352-.4579-.0704-.7045-.1056-1.4443-.1759-2.5363.387-3.3113 1.6185-.6693 1.0906-2.008 1.2314-2.8533.211-.317-.3518-.5989-.4573-1.0216-.4925-.7046-.0352-1.409-.1056-2.0784-.2111-1.867-.2815-3.1704-1.337-4.1215-2.885-.1057-.176-.2466-.4222-.2466-.6333-.0704-.6333.4227-1.0203 1.0216-.8092.4227.1407.8102.3518 1.1625.598 1.4795.9852 3.0999 1.126 4.826.9148.3875-.0351.8102-.0351 1.1625.1056.458.2111.775.0704 1.092-.2111.9863-.8796 2.1488-1.2314 3.417-1.0203 1.7613.2815 3.4874-.0704 5.1783-.3518.8454-.1408 1.6908.211 2.0079.9499.0704.2111.0704.563-.0705.7037-.317.3166-.6693.7388-1.092.8444-1.4091.3518-2.8886.6332-4.2976.9147-.0353-.0704-.0705-.1055-.0705-.1407zM216.4367 265.0832h-3.734c-.6341 0-1.0568.3166-1.4795.7388-.3875.387-.775.7037-1.1977 1.0907-.3523.3166-.775.2815-1.1273.0704-.6693-.387-1.3034-.8796-1.3738-1.7592-.1057-.8092-.5637-1.337-1.1977-1.7591-.775-.4926-1.6204-.9852-2.325-1.5833-.5284-.4222-.9863-1.0203-1.3034-1.6184-.3874-.7036 0-1.2314.8103-1.337.5283-.0703 1.0215-.0351 1.409.3519 1.092 1.0907 2.6068 1.548 3.8045 2.3924.8454.5982 1.6556.8796 2.8181.5982 1.2682-.2815 2.642.0351 3.9806.0351 1.2329 0 2.4659.0704 3.6283.5981.7398.3519.8807.7389.5637 1.4425-.1762.4574-.5989.5278-.9864.563-.775.0352-1.55 0-2.3249 0 .0352.0704.0352.1055.0352.1759zM179.52 114.2184c.4227-.8092 1.092-1.0907 1.867-1.0907 1.3034.0352 2.3602-.4222 3.1-1.548.4579-.7037 1.1624-.9852 1.9374-1.1259.5989-.1056.8807-.3518.9159-.9851.1057-1.0203.7045-1.7944 1.3034-2.5332 1.0215-1.2666 1.9374-2.5684 2.9238-3.835.317-.4221.6693-.8443 1.092-1.161.2466-.1759.7045-.176 1.0216-.1055.4227.1055.2818.4925.2818.8443 0 1.1963-.5636 2.1814-1.1625 3.1665-.6341 1.0555-1.4091 2.0406-2.1136 3.061-.3875.5277-.5284.985-.2818 1.6536.3523 1.0555-.4579 1.6887-1.092 2.322-.317.3167-.7398.5278-1.3034.387-.8454-.2111-1.55.1056-2.184.7389-.9864.9851-2.1136 1.6888-3.558 1.5832-.7045-.0352-1.3738-.1759-2.0783-.3166-.4932-.1056-.5284-.6333-.6693-1.0555zM167.2245 274.8295c3.6283-1.7943 8.1725-1.8295 10.0395-.0703-.7397.95-1.7965 1.1962-2.9238 1.2666-.9863.0703-2.0079.1055-2.9942.1759-.3875.0352-.775.1759-1.1625.2814-.4579.1056-.8807.2815-1.1625.7037-.634.8796-1.6204.9851-2.6067 1.1258-.5284.0704-.9864-.211-1.1977-.7388-.0705-.1407-.2114-.2815-.2114-.4574-.1057-1.2666-1.1272-1.6536-2.0783-2.0758-.916-.387-1.9023-.7036-2.8182-1.0907-.8806-.387-1.4443-1.161-1.867-2.0406-.1057-.2462-.2113-.5277-.1409-.774.1057-.3166.317-.6685.5636-.8796.317-.211.7046-.1407 1.0216.1408.2114.211.4932.387.6693.6333.4932.7388 1.233.9851 2.008 1.1962 1.0215.2815 2.0783.5277 2.9942 1.0907.6693.4222 1.4795.7036 1.867 1.5128zM199.565 306.9512c.7045.2111 1.2681.3518 1.8317.6333.4932.2463.9512.2111 1.4443 0 .916-.4222 1.8318-.5981 2.8182-.3167.2818.0704.7397-.1055.9863-.3166 1.0568-.9851 2.2897-1.4777 3.6636-1.6888.7045-.1055 1.3738-.4925 2.0431-.774.458-.2111.8807-.5278 1.3386-.6685.3171-.1055.7398-.1407 1.0568-.0352.5989.1408.775.6685.4932 1.2314-.5989 1.1963-1.6909 1.7944-2.7829 2.3573-.458.2463-.9864.387-1.5148.5277-1.2329.3519-2.2545.9852-2.8533 2.1814-.2818.5277-.634.9148-1.1625 1.1962-.7045.3519-1.1624.4222-1.5852-.211-.6693-1.0204-1.4443-1.1611-2.5363-.7741-.8102.2815-1.6556 0-2.3954-.4926-.4932-.3166-.9511-.7388-1.4443-1.0906-.3522-.2815-.7045-.6685-.4227-1.0907.2466-.3518.7045-.4574 1.0216-.6685zM221.9691 352.3374c-.5988 1.5833-1.7613 2.3925-3.3465 2.6036-.9863.1407-2.0079.1759-3.0295.1759-1.1272 0-1.8318.563-2.325 1.4777-.8102 1.4777-1.726 1.6888-3.0294.6333-.317-.2463-.5637-.3167-.916-.1408-.317.176-.6692.3167-.9862.4574-1.1273.4926-2.2546.6685-3.417.1056-.6693-.3167-.775-.8444-.1762-1.3018.3523-.2815.8102-.4925 1.233-.7036.775-.387 1.5852-.739 2.325-1.1611.8101-.4926 1.6556-.6685 2.6067-.5278.2818.0352.634 0 .8454-.1407 1.6204-1.337 3.5227-1.548 5.5306-1.4777.9159.0352 1.7261-.1407 2.5363-.5277 1.0216-.4926 1.2682-.4222 2.1488.5277zM174.0953 346.0403c.3875.1407.7398.211 1.0568.3518.3523.1407.6693.2815 1.0216.4574.9863.4926 1.8317.211 2.5715-.4574.4227-.3518.8102-.7037 1.409-.7037.141 0 .3171-.211.4228-.3518.2466-.3166.458-.6685.6693-1.0203.634-1.0907 1.55-1.7592 2.7124-2.0758 1.3739-.387 2.7829-.7388 4.1568-1.161.6693-.2111 1.2329-.176 1.8317.3166-.2818.7037-.634 1.337-1.3386 1.7592-1.0568.5981-2.0783 1.2666-3.276 1.4777-1.3034.211-1.9375 1.0906-2.325 2.2165-.1409.387-.2113.774-.3523 1.161-.3522.9851-.8806 1.2666-1.9022.95-.5636-.176-.9511.0351-1.409.3166-1.4796.9851-4.2272.4574-5.2488-1.0203-.5284-.8795-.5284-1.0907 0-2.2165zM170.3957 312.686c.458-.1758.9511-.3518 1.409-.4925.7046-.211 1.4444-.2463 2.1841-.0704 1.3386.2815 2.7125.4222 4.0511.6685.8102.1408 1.5499.4222 2.1136 1.0555.3875.4574.2113.9148-.3171 1.0907-.3875.1055-.8102.1759-1.1977.1759-1.7261-.0704-3.4874-.0352-5.1783-.4222-.5988-.1407-1.092 0-1.5852.3518-.5636.4222-1.1624.8093-1.8318 1.0555-.8454.3519-1.6204.2815-1.7965-.598-.317-1.6537-1.55-2.3222-2.7829-3.061-.5636-.3518-1.1272-.7388-1.5852-1.1962-.5284-.4926-.4932-1.3018-.1057-1.8295.317-.4574 1.0568-.6333 1.409-.2463.7398.8796 1.8319 1.2314 2.7125 1.8295.8455.563 1.6557 1.0907 2.5011 1.6888zM187.516 17.7118c.0352-.95.4227-1.6185 1.1625-2.2166 1.5147-1.1962 3.2408-1.8295 5.143-2.0758.8455-.1055.8455-.1055 1.092-.9851.6341-2.2517 1.9728-4.0812 3.5932-5.7348.1057-.1056.2466-.2463.3875-.2815.3522-.1055.8806-.3518.9863-.2111.2466.2815.4227.774.3875 1.161-.0704.5278-.317 1.0204-.5284 1.513-.4579 1.0554-.9863 2.0405-1.4443 3.096-.2818.5981-.4227 1.1962-.0704 1.8295.2465.4574.1056.9148-.2114 1.337-.1409.176-.2818.3518-.4579.563-.6341.774-1.2682 1.0203-2.184.7388-1.7614-.563-3.4523-.2815-5.0727.4926-.5284.2463-1.0216.5277-1.5148.774-.4227.1056-.8102.2463-1.2681 0zM203.0873 285.8055c-1.0216-1.8295-.317-3.5535.1762-5.3127.2113-.8092 1.1272-1.1962 1.8317-.774.2114.1056.4227.387.458.5981.0704.5278.1057 1.0555.0352 1.5833-.141 1.3017-.141 2.5331.7398 3.659.317.4222.2818.9148.1056 1.337-.2113.5277-.5284 1.0203-.8806 1.4425-.5989.774-1.4443.774-2.3954.4573-.1762.387-.4227.7389-.5284 1.1259-.5284 1.6184-2.184 2.111-3.3466 1.9702-.1409 0-.317-.1055-.4931-.1759-.0352-.6685.2818-1.161.6693-1.6184.3523-.4222.6693-.8444.8806-1.337.8103-1.935.8807-2.0758 2.7477-2.9553zM206.186 326.9c.9159.1055 1.5852.3518 2.0431.95.5637.7036 1.1977.774 2.0432.598 1.6908-.3166 3.3465-.1759 4.9317.563.4579.211.8454.6685 1.1625 1.0555.2818.3518.1761.8092-.0705 1.1259-.2113.2814-.5284.1055-.8102.0703-1.2682-.176-2.5363-.387-3.8045-.4222-.5988 0-1.1977.3518-1.7613.6685-.9511.5629-1.6204.6333-2.3954.0352-.2466-.176-.4227-.4926-.5636-.774-.4227-.739-.7398-1.4777-1.5852-1.8647-.7398-.3519-.7398-.9148-.1057-1.4426.2818-.2815.7045-.4222.9159-.563zM185.7883 211.9577c-.0353-1.1259.6693-1.7592 1.55-2.2165.4579-.2463.7045-.563.9158-1.0555.6693-1.4777 1.5852-2.7795 3.3818-3.061.8454-.1407 1.3034.387 1.0215 1.161-.1056.352-.2465.739-.4931.9852-.6693.7037-.8807 1.548-.9864 2.4628-.1056.8796-.634 1.337-1.409 1.6536-.775.2815-1.55.6685-2.2898.9851-.1409.0704-.317.176-.458.176a5.6627 5.6627 0 0 1-1.092 0c-.1408-.1056-.1408-.176-.1408-1.0907zM166.3416-4.8657c.341 1.3278-.2387 2.3151-.8865 3.2344-1.4319 2.0087-3.4435 3.0641-5.8643 3.4386-1.9434.3065-3.8868.2384-5.8302.1362-1.3638-.068-2.7617.034-4.1255.2724-.6819.1021-1.3638.5788-1.9434 1.0214-.6819.5107-1.3638.8512-2.2162.8852-1.091.034-1.8752-.4426-2.0798-1.532-.1023-.613-.375-.7491-.8864-.8172-1.773-.2043-3.4436.034-5.1484.6469-2.0456.715-4.1254.5447-6.2052.034-.3069-.068-.5796-.3404-.9547-.5447.5114-.681 1.0229-1.0895 1.807-.9533 1.9775.3404 3.8187-.2724 5.6598-.783 2.182-.5789 4.3982-.8512 6.6144-.3065.1364.034.3069.034.4091.1021.8865.749 1.8071.3746 2.6594.034 1.3979-.5787 2.8981-.7149 4.3983-.749 1.7047-.068 3.4095.0682 5.1142.1022 2.8981.034 5.3529-.8512 7.16-3.2344.6137-.783 1.3297-1.0895 2.3184-.9873zM111.2788 32.9263c-.375-.1022-1.023-.2384-1.6366-.4767-.6137-.2383-.8524-.715-.716-1.2597.1023-.4767.5114-.8171 1.091-.8512.7842-.0681 1.5684-.0681 2.3526-.1702.6137-.0681 1.2615-.2383 1.8752-.4086.6819-.2042 1.1251-.6809 1.5002-1.2597 1.0228-1.498 1.9775-3.0301 3.7504-3.8132.4092-.1702.5114-.5107.5796-.9192.2046-1.2257.4433-2.4173.7842-3.609.1705-.5787.4432-1.1235.7842-1.6001.7842-1.1236 1.6706-2.179 2.4548-3.3366.4774-.715.8183-1.5661 1.1593-2.3832.2386-.5788.5796-.9874 1.2615-1.1576.7501-.1702 1.1592 0 1.2615.8171.1364 1.0214-.0341 2.0428-.3751 2.9961-.4773 1.3278-1.2615 2.4513-2.0457 3.609-.5455.783-1.0569 1.566-1.5683 2.3491-.6137.9193-.716 1.9066-.4433 2.9621.341 1.498-.1704 2.4513-1.7047 2.6556-1.3297.1702-2.1139 1.0554-2.864 2.0768-.2386.3405-.4432.715-.716 1.0554-1.6706 2.1109-4.0232 2.5195-6.7848 2.7238zM123.0081 62.6824c-.9546.4086-1.2615 1.1236-1.2956 2.1109 0 1.5661-.5455 2.962-1.466 4.2558-.4433.6128-1.057.9533-1.739 1.1576-.2386.0681-.5454 0-.75 0-.3068-.6469-.1364-1.1576.1023-1.6342.8524-1.5662 1.2615-3.2345 1.2274-4.9708 0-.7831.2728-1.4981.7842-2.0428.75-.7831 1.432-1.7023 2.5912-2.0087.2046-.0681.4432-.3745.4773-.6129.1705-.9533.4774-1.8385 1.1252-2.5875.2386-.2724.4091-.5788.6819-.783.9546-.7831 1.9434-1.5321 2.8639-2.3493 1.3297-1.1235 2.489-2.4513 3.3072-4.0174.341-.647.6819-1.2257 1.5343-1.2598.6478-.034.8865.0681 1.0911.715.3409 1.0555.2727 2.1109-.341 3.0642-1.1251 1.7023-2.3866 3.2344-4.0914 4.426-.8524.6129-1.6024 1.396-2.4207 2.0769-.4433.3745-.6478.8171-.6478 1.3959 0 .5447-.0682 1.0554-.1023 1.6001-.0682 1.2598-.8865 1.8726-2.1139 1.6683-.3068-.0681-.5796-.1362-.8183-.2043zM10.4258 265.1217c.1705-1.2938.2387-2.5535.9206-3.677 1.2615-2.0428 2.7276-3.8813 5.1142-4.7665.8865-.3405 1.466-.9193 1.6707-1.9066.4432-2.0428 1.6365-3.643 3.239-5.0048 2.148-1.8045 4.1595-3.7452 6.0689-5.822.8864-.9873 1.1933-.9873 2.2843-.034-.6819 2.0768-2.0457 3.711-3.4777 5.2772-.8864.9873-1.9434 1.8725-2.898 2.8258-.9206.9193-1.6707 1.9066-2.0798 3.1663-.1705.5107-.3069.9874-.1023 1.5321.1705.5107-.0341.9874-.4432 1.3278-.4774.4086-.9888.8171-1.5343 1.1235-.341.2043-.8183.3405-1.1933.2724-.7842-.1362-1.4661.1362-1.9434.5788-1.2956 1.2597-2.5572 2.5535-3.6823 3.9834-.5114.6469-.9206 1.2257-1.9434 1.1236zM63.8878 28.2272c-1.0569.034-2.1139.1362-3.1708.1362-1.3638-.034-2.3526.749-3.2731 1.6002-.4092.3745-.6819.8852-.9888 1.3278-.4091.5787-1.6365.9192-2.4207.715-.716-.2043-1.2615-.8512-1.1593-1.6683.1023-.8852-.3068-1.3619-.9887-1.7024-1.2956-.6128-2.6594-1.1575-3.9891-1.7363-.9206-.4086-1.8412-.783-2.6935-1.2257-.716-.3745-1.0229-1.1235-.7842-1.8044.0682-.2043.4773-.4767.716-.4767.5455 0 1.1592.068 1.6706.2383 2.1821.783 4.3301 1.6002 6.478 2.4514.5797.2383 1.1252.6128 1.6366.9873.341.2724.6478.3064.9547.034 2.0116-1.7704 4.4664-1.532 6.8872-1.498 1.0569 0 2.1479 0 3.2049-.034.8183-.034 1.6024-.2043 2.4207-.2724.2728-.034.5796 0 .8524.068.4773.1022.9887.2384 1.0228.7491.0682.5447-.3068.9533-.75 1.1916-.4433.2383-.9206.4086-1.3979.4767-1.3979.2383-2.7958.4085-4.2278.5788v-.1362zM112.1995 141.0574c.4092-.5788.8183-1.1235 1.1934-1.7363.9546-1.5662 2.5571-2.3152 4.0573-3.1323.5114-.2724 1.1251-.4426 1.6706-.715.5455-.2724 1.1252-.5788 1.6366-.9533.6137-.4426 1.1933-.715 1.9434-.4426.6819 1.6002-.1023 3.2344-1.9434 3.8132-1.2615.3745-2.3867.9533-3.5118 1.7364-1.1251.783-1.8752 1.7704-2.0798 3.0642-.1705.9192-.7501 1.532-1.2956 2.1449-.716.8171-2.2503.7149-2.9322-.2043-.716-.9873-1.6706-1.498-2.8299-1.7364-2.1138-.3745-3.8868-1.464-5.6938-2.5535-.9205-.5447-1.0228-1.464-.375-2.1449.3068-.3064 1.0228-.4766 1.2615-.2042.5455.6468 1.3297.817 2.0457 1.0894 1.3297.4767 2.7276.783 4.0914 1.1576.8864.2724 1.7388.5107 2.7616.8171zM61.7746 184.16c.2727-2.145 1.6024-3.609 3.0685-4.9708l2.7617-2.6557c.375-.3404.7501-.6128 1.1592-.9192.4092-.2724.7501-.0681 1.0911.1362.375.2042.2386.5447.1704.8511-.2727 1.0214-.8523 1.8726-1.5342 2.6216-.9547 1.0554-1.8753 2.145-2.7958 3.2004-.4092.4426-.5115.9532-.4774 1.566.0341.647 0 1.3279-.1022 2.0088-.1023.6469-.5456.9193-1.1934.9533-.341 0-.716.0341-1.0569 0-.9206-.1021-1.3979.3745-1.6707 1.1576-.4432 1.3278-.8864 2.6897-1.3637 4.0175-.5115 1.464-.8183 3.0301-2.0798 4.1196-.1705.1362-.3069.3405-.4774.4085-.2045.1022-.4432.0681-.75.1022-.2728-1.1916-.1023-2.2471.2386-3.3025.5796-1.9066 1.1933-3.7792 1.807-5.6517.2046-.6809.4433-1.3619.7501-1.9747.4433-.9873 1.2956-1.464 2.4549-1.6683zM86.047 13.2807c-.0341-.2724-.0682-.4767-.0682-.715-.0341-.7831-.1705-1.5661-.0341-2.3151.2727-1.8045.7841-3.5068 1.466-5.2091.3069-.749.5115-1.5321.7501-2.3152.341-1.1576.4774-1.2597 1.6366-.9533.6819 1.396.6137 2.7918.2046 4.2218-.3751 1.3618-.6819 2.7577-.9547 4.1536-.2728 1.3619.0682 2.6216.7842 3.8473.8523 1.464-.1023 2.5194-1.432 2.8599-.7501.2042-1.5343.1021-2.1139-.6129-.3069-.4085-.7842-.5788-1.3297-.6128-1.3638-.0341-2.7617-.1362-4.1255-.1362-1.5002 0-3.4777-.5107-4.5687-1.2938.0341-.2042.0682-.4426.1023-.6809.034-.2043.0682-.4085.1364-.6809.6137.0681 1.1933.0681 1.7047.2383 1.5343.4426 3.0685.5107 4.637.1702.8182-.1702 1.6024-.2383 2.4206-.034.1705.1021.4433.0681.7842.0681zM8.8582 314.5574c-.682.6469-1.432 1.2938-2.148 1.9747-1.1933 1.1236-2.3525 2.247-3.955 2.8258-.341.1362-.6137.4427-.9547.681-.5455-.783-.4091-1.43.0682-2.0088.5455-.6809 1.1252-1.3618 1.7048-2.0428.9546-1.0554 1.9093-2.1108 2.898-3.0982 1.0229-1.0213 2.2844-1.532 3.7846-1.3278.341.034.75-.068 1.091-.2042 1.3979-.681 2.898-.8853 4.4665-.8172.8864.0681 1.7729.1022 2.6594.1703.9887.1021 1.9093-.2724 2.7617-.681.8864-.4085 1.5683-.1702 2.182.5448-.2045.715-.6137 1.2938-1.1933 1.7023-1.1592.8171-2.4548 1.2938-3.8868 1.2597-.6137 0-1.1933-.1362-1.807-.1702-1.5684-.0681-3.1027.1021-4.4324 1.0895-1.091.8852-1.8752.9192-3.239.1021zM22.7694 6.4033c.1363-.3405.3068-.681.375-1.0555.3069-1.464 1.0229-2.7237 2.0798-3.7791 1.3979-1.3619 2.8299-2.6897 4.3301-3.9494.6478-.5447 1.5001-.8852 2.3184-1.3278.4091.1362.7842.2724 1.3297.4767-.2727.4766-.4773.9873-.7842 1.3618-1.2615 1.396-2.5571 2.7578-3.8186 4.1537-.375.4085-.7842.8511-1.1592 1.2597-.8865 1.0214-1.2615 2.179-1.1934 3.5408 0 .3405.0682.715.0341 1.0554-.1363 1.5662-1.6365 2.2471-2.9662 1.43-.4433-.2724-.9888-.4767-1.466-.4767-1.5344.0341-3.0345.1703-4.5688.2384-.4092.034-.8524.0681-1.2615.034-.4774-.034-.716-.4426-.5114-.8852.1704-.3745.409-.6809.8182-.8852 1.9775-.9533 4.0914-1.2257 6.444-1.1916zM141.0436 69.9686c.5114 1.396-.0342 2.4514-.8183 3.4047-.7501.8852-1.6366 1.6682-2.4549 2.5194-.9205.9193-1.8752 1.8045-2.7957 2.7578-.2387.2383-.3069.6128-.4092.9533-.4091 1.1916-1.2274 1.7023-2.4207 1.4299-1.091-.2383-1.2275-.2383-1.7048.6809-.8183 1.6683-2.2502 2.5195-3.8527 3.1663-1.057.4427-2.148.3405-3.3413-.2383.341-.5788.9206-.8852 1.466-1.2597.9206-.6469 1.9094-1.2257 2.7959-1.9406.341-.2724.5114-.7491.6478-1.1576.375-1.0214 1.0228-1.7364 2.1138-2.0087.7842-.1703 1.4661-.5448 2.0116-1.2257.716-.8512 1.6025-1.6002 2.4549-2.3492 1.4661-1.3619 3.0685-2.6216 4.3301-4.2218.5114-.6809 1.1933-.749 1.9775-.5107zM100.2653 58.2228c.0682 0 .1023.034.1364.034 1.3297-.715 2.7617-1.0214 4.2278-1.3278 1.7729-.3745 3.4095-1.1576 4.9096-2.1449.341-.2043.682-.3405 1.057-.5107.3409-.1702.6819-.1021.9887.0681.8183.4767.9547 1.1916.2046 1.8045-1.0569.8852-2.148 1.7704-3.3413 2.4173-1.7047.9192-3.5459 1.6001-5.4552 1.9746-1.0228.2043-1.9093.647-2.4548 1.6343-.5114.8852-1.6366 1.2256-2.4548.715-.4092-.2724-.7842-.7831-.9206-1.2598-.1364-.5447-.2728-1.1235 0-1.7363.4773-1.0214.2387-1.6683-.4432-2.111-.2728-.1701-.5115-.3744-.7501-.5787-.5796-.4086-.7842-.8852-.5796-1.2597.2386-.4767 1.0228-.8852 1.5001-.783 1.6366.4425 3.0004 1.2256 3.3754 3.064zM130.27 121.1398c.1022-.1702.2386-.5447.4432-.8511.682-.9533 1.1933-1.9747 1.5343-3.0983.4091-1.3278 1.091-2.5194 2.3525-3.3365.3069-.2043.6478-.4426.6478-.9192.0341-2.4514 2.114-4.9368 5.2847-5.4475 1.057-.1702 2.1139-.1702 3.1709-.1702.9205 0 1.5001.4766 1.6365 1.1916.1023.4426-.0341.6129-.5114.715-1.2956.2724-2.5912.5107-3.8186.8852-1.7048.5107-2.3867 1.6342-2.1821 3.3706.1705 1.532-.5796 2.5535-2.0457 2.7577-.6478.1022-1.057.4426-1.3297.9533-.4092.7831-.8183 1.5662-1.1933 2.3833-.5797 1.1916-1.5684 2.0087-2.7617 2.5194-.8524.4086-1.2615.1362-1.2274-.9533zM49.395 238.0549c-.6137-1.9406-.6137-3.745-.2045-5.5836.2386-1.0554.8524-1.8385 1.5684-2.5875.3068-.3405.9887-.3405 1.3638-.034.3409.2723.5114.6128.3409 1.1235-.2728.715-.5114 1.464-.6819 2.247-.3069 1.396-.3069 2.7918.5114 4.0856.341.5447.7842.9533 1.3638 1.2597.716.3745 1.432.783 1.6025 1.7023.2386 1.2257-1.0229 2.4854-2.2162 2.1449-.4773-.1362-.9547-.2723-1.3979-.4426-1.6706-.6468-3.3413-.4426-5.046-.1702-.682.1021-1.398.1362-2.114.1021-.75-.034-1.1591-.4426-1.2273-.9873-.0682-.5107.3068-1.1916.9205-1.396 1.5002-.5447 2.9663-1.2256 4.6028-1.2256.1364 0 .341-.1362.6138-.2383zM135.7947 95.0948c-.6137-.783-.5796-.749-.1023-1.532.8865-1.43 2.148-2.2471 3.8186-2.3493 1.1252-.068 2.2503 0 3.4436 0 .6478-.5107 1.3297-1.1576 2.1139-1.6682 1.2274-.8172 2.2162-1.8726 3.0685-3.0302.6819-.9192 1.432-1.7023 2.7617-1.43.4433.5448.4092 1.1576.2387 1.8045-.6478 2.213-2.0116 3.9154-3.9891 5.039-.9547.5446-1.2615 1.2256-1.1933 2.213.0681.9192-.2728 1.6341-1.1252 2.0768-.6819.3745-1.2615.2723-1.807-.3065-.3068-.3404-.5796-.7149-.8865-1.0554-.4432-.5107-.9546-.749-1.6706-.749-1.1592 0-2.2844.034-3.3413.5447-.4433.1702-.8865.2724-1.3297.4426zM128.2921 96.6606c-.1705.5788-.2387 1.0214-.4092 1.3959-.9887 2.0428-2.5912 3.5408-4.33 4.9027-1.5002 1.1916-2.3867 2.5875-2.2844 4.5281v.5448c-.034 1.2257-.6819 1.7704-1.8752 1.5321-.341-.0681-.6819-.1702-.8183-.5788-.2045-.6469-.5455-1.2257-.6819-1.8726-.1364-.6128-.375-1.0554-.8864-1.3618-.6478-.4086-1.3297-.8171-2.0457-1.1576-1.1252-.5447-2.1821-1.1576-3.0345-2.1109-.2046-.2383-.375-.5107-.5455-.715.9888-1.1235 1.1251-1.1575 2.3867-.5787 1.841.8511 3.648 1.7363 5.5915 2.6556.2387-.2724.5455-.5448.7842-.8852 1.1592-1.5662 2.523-2.86 4.0573-4.0516.5796-.4426 1.1592-.9192 1.7388-1.3958.8183-.681.8524-.681 2.3526-.8512zM74.5579 43.651c-.4092-.8852-.341-1.2257.341-1.6342 2.0797-1.2257 4.33-2.1109 6.7848-2.3152.7842-.068 1.6365.3064 2.5571.5107 1.3638-.4426 2.864-.9533 4.3983-1.3959.716-.2043 1.466-.2383 2.2161-.2724a60.4642 60.4642 0 0 1 3.5118-.1021h2.6253c.2387 1.0895.1023 1.3278-.716 1.7704-1.3297.715-2.8298.681-4.2618.8512-1.432.1702-2.8981.1702-4.296.783-.6137.2724-1.2274.5107-1.7048 1.0555-.8523.9192-2.4207 1.3618-3.6822.5107-.1705-.1022-.375-.2384-.4432-.4086-.2387-.749-.7842-.715-1.3638-.681-.341.0341-.682.1363-1.0229.2384-1.3979.3745-2.7958.749-4.1936 1.0895-.2728.034-.5115 0-.7501 0zM107.4938.6155c-.341-.749-.3069-1.3959-.0341-2.179.4773-1.2937.1364-2.6555-.4774-3.8131-.9205-1.7023-2.0115-3.3366-3.0003-5.0048 1.091-.681 1.8411-.681 2.5571.3404.0682.1022.1364.1703.2046.2384 2.0116 1.4299 2.864 3.6089 3.955 5.7538.75-.4086 1.5343-.8512 2.3184-1.2597 1.6707-.8852 3.4777-1.464 5.387-1.6002.5797-.034 1.1934.068 1.773.2383.2046.0681.4773.3745.5114.6129.0341.2042-.2387.5107-.4432.6128a3.2696 3.2696 0 0 1-1.0911.4085c-2.4207.4427-4.6028 1.464-6.5803 2.86-.6137.4425-1.1933 1.0213-1.6365 1.6342-1.0229 1.3959-1.773 1.7023-3.4436 1.1575zM82.297 234.3443c.1363-.3405.1704-.5788.3067-.715 1.2616-1.0895 2.5572-2.0428 4.296-2.145.9547-.068 1.9093-.102 2.864-.2382.341-.034.8183-.2384.9887-.5107 1.2957-1.9747 3.205-2.6216 5.4552-2.7237.716-.034 1.4661-.3065 2.148-.5448 1.0569-.3745 2.0798-.4426 3.1026-.034.1705.068.341.2383.5456.4085-1.4661 1.5662-3.0345 2.8259-5.1825 3.0983-.6137.068-1.1933.1361-1.7729.2723-.9547.2384-1.6366.8171-1.9775 1.7364-.4432 1.1576-.9888 1.464-2.182 1.3278-.682-.0681-1.3298-.2383-2.0117-.2724-.8183-.034-1.6365-.034-2.4548.034-.9547.0682-1.9093.2724-2.864.3405-.341.1362-.75 0-1.2615-.034zM127.405 276.6983c0 1.3279-.716 2.0769-1.9434 2.3833-.9887.2383-2.0116.3745-3.0003.6128a87.3477 87.3477 0 0 0-3.9891 1.1235c-.307.1022-.5456.4426-.8524.5448-.8524.2723-1.6025-.034-2.2162-.647-.2046-.2042-.341-.4425-.5114-.7149-.9888.0681-1.9775.1702-2.9663.2383-.716.0681-1.432.2043-2.1139.1362-.375-.034-.75-.3745-1.091-.5787.9888-1.7364 2.523-2.2811 4.1937-2.5876.5455-.1021 1.1251-.1702 1.6706-.3064.6478-.1702 1.2615-.1362 1.8412.2043.1704.1021.341.2042.4773.2042.9547 0 1.9093.0341 2.8299-.102 1.6024-.2724 3.1708-.647 4.8414-.5789.9547.034 1.8753-.3064 2.8299.0681zM42.5781 289.806c1.1933-1.9066 2.2844-2.3493 4.296-1.9066.5114.102 1.0228.2042 1.5342.3064.7842-.6129 1.5684-1.1916 2.3526-1.7704 1.091-.8171 2.3525-.8852 3.6481-.8852.9206 0 1.8412 0 2.7617-.034.8865-.0341 1.773-.1363 2.6253-.1703 1.2956-.034 1.3638.034 1.3979 1.464-1.9093.8171-3.8186 1.7363-6.0348 1.7363h-1.1592c-.8865 0-1.5684.3746-2.0457 1.1236-.2386.3405-.4773.715-.7842.9873-.9205.8852-1.7047 1.464-3.3413.715-1.2274-.5447-2.523-.9533-3.9209-.9533-.375.034-.8183-.3745-1.3297-.6128zM151.7836 204.0767c.4091-.5448.8523-1.0555 1.2615-1.6002.5796-.715 1.3638-1.0214 2.2162-1.0895.3409 0 .6818.1362.9887.3064.3068.1702.4091.4767.1705.8171-.1364.2043-.2728.4426-.4092.6129-.716.9192-1.1592 1.8725-1.2956 3.0641-.1705 1.43-2.1139 2.2811-3.3754 1.6683-.2045-.1021-.3409-.3404-.5114-.5447-.8865-1.1576-2.0116-1.6683-3.4436-1.0895-.341.1362-.6819.2383-1.0228.3064-2.0798.3745-4.0914.4426-5.8644-.9873-.1022-.1022-.2386-.1703-.341-.2724-.4772-.4426-.6136-.9533-.409-1.3278.2045-.3745.9546-.681 1.432-.4767 1.8751.9193 3.8186.5448 5.6256-.034 1.7388-.5788 3.2049-.3064 4.671.5447.0682.034.2046.0681.3069.1022zM-1.3032 229.5442c.6478-1.6001 1.1933-3.1322 1.8752-4.5962.2046-.4426.6137-.8852 1.0229-1.1576.716-.4766 1.5342-.034 1.773.8171.2726.9874.1022 1.9066-.4092 2.7237-.5115.8171-.5797 1.6342-.1023 2.4854.2386.4766.4091.9874.4773 1.498.2387 1.5662-.9888 2.4854-2.4548 1.8726-.4092-.1702-.8524-.3405-1.2956-.4767-.9206-.2723-1.7389-.068-2.523.4427-.6138.4085-1.2616.783-1.9435 1.0894-.7841.3745-1.5683.3064-2.3525-.2042-.0682-.647.2045-1.1576.6819-1.5321.8182-.647 1.6706-1.2938 2.523-1.9407.8524-.681 1.807-.9192 2.7276-1.0214zM78.4785 179.1547c.4091-1.8044 1.3297-3.3025 2.6253-4.5622.4432-.4426 1.057-.715 1.773-.6128.6477.068 1.0569-.3065 1.3296-.8512.341-.6128.6138-1.2597.9206-1.9066.341-.8171.9888-1.2937 1.773-1.5661 1.3637-.4767 2.7616-.9193 4.1595-1.3619 1.057-.3404 1.1933-.2723 2.0457.681-.4773 1.0214-1.2956 1.7363-2.3184 2.179-.5456.2382-1.1252.4085-1.7048.6128-1.432.5106-2.2503 1.6342-2.2162 3.1322 0 .3064-.034.6469-.034.9533-.0682 1.1916-.9888 1.8045-2.114 1.3619-.1704-.0681-.3068-.1362-.4773-.2043-1.432-.4426-1.5001-.2724-2.3525.5447-.5796.5788-1.2274 1.0555-1.8411 1.6002-.5115.5107-.9547.4767-1.5684 0zM64.0572 313.1275c-.7842.4767-1.5343.9533-2.2502 1.464-.9888.6809-1.773 1.43-1.807 2.8258-.0342 1.3619-.682 1.8385-2.148 1.9066-.2387 0-.5797-.1362-.7501-.3064-.5456-.5447-1.1934-.9873-1.5343-1.7364-.1705-.3745-.5796-.715-.9547-.9192-1.0569-.6128-2.182-1.0554-3.4095-1.1576-.409-.034-.8182-.0681-.8864-.5788-.0341-.4766-.0341-.9873.5114-1.2597.6819-.3405 1.3297-.5788 2.148-.5107 1.432.1362 2.7958.4426 4.0232 1.2597.1023.0681.2727.1022.4432.1702.9547-.9532 1.9775-1.8044 3.2731-2.247.5796-.2043 1.2274-.3405 1.8411-.3745 1.057-.034 1.3298.2724 1.5002 1.464zM52.6023 219.943c.5115-1.1236 1.0229-2.213 1.5343-3.3366.4773-1.0554.9547-2.1109 2.0116-2.7918 1.1593-.749 1.6025-.681 2.4208.5788-.1705.2724-.341.5788-.5797.8171-.6478.783-1.0569 1.6683-1.3638 2.6216-.5114 1.498-1.0569 2.996-1.2956 4.5962-.1363.8512-1.1933 1.4981-2.0457 1.2257-.75-.2383-1.466-.5107-2.148-.9192-1.1592-.715-2.3866-.8172-3.6822-.5788-.4091.068-.8183.068-1.2274.068.1023-1.8725.7842-2.5194 2.2844-2.8258 1.1592-.2383 2.148-.1021 4.0913.5447zM79.3652 83.7571c.3069-.4426.6137-.9192.9888-1.3618.4773-.5107.9546-1.0214 1.5001-1.464.4774-.3745 1.2274-.3064 1.6025 0 .4773.3745.5796.9533.2387 1.6342-.2046.4426-.4433.8852-.7842 1.2597-.4092.4767-.5455.9193-.4092 1.5662.2728 1.1916-.6137 2.7577-2.148 2.8598-.375.0341-.6818.0341-.9887-.2042-1.1592-.9193-2.4548-1.0555-3.8868-.9193-1.0228.1022-2.148-.034-3.1367-.3064-.6137-.1702-1.091-.8171-1.6366-1.2257.4091-.9192.8865-1.3278 1.807-1.3618 1.807-.0681 3.614-.3064 5.387-.4426.4774-.0681.8865-.034 1.4661-.034zM93.4132 135.9164c-.2387.2383-.4432.4766-.6478.6469-1.1933 1.0214-2.4207 1.9746-3.58 3.03-.5455.5108-.9887 1.0896-1.466 1.7024-.8183 1.0214-1.1593 2.179-.8865 3.4727.2046 1.0214-.4092 1.9066-1.398 2.179-.75.2043-1.5342 0-1.8751-.715-.4433-.8511-1.091-1.3278-1.9434-1.7023-.7501-.3405-1.4661-.783-2.2844-1.2257 1.3979-1.7363 3.1026-1.1916 4.7392-.8511 1.0228-2.3152 2.6594-4.0175 4.5687-5.4815.8524-.6469 1.9434-1.0214 2.9663-1.43.5114-.2042.7501-.068 1.807.3746zM76.6733 199.7533c-.5455.0341-.9888.0681-1.5343.1022-.1023-1.1576-.2387-2.213-.341-3.2344-.1022-1.7023.9206-2.6216 2.2844-3.3706.2046-.1021.4432-.2383.5796-.4086.4432-.5447.9206-1.0895 1.3297-1.6682.6478-.9193 1.4661-1.6343 2.3867-2.2471.8524-.5788 1.6024-1.2938 2.4207-1.9406.5455-.4427 1.1933-.5107 1.3979-.0681.1705.3745.3409.9192.2387 1.2937-.2728 1.1236-.8865 2.0769-1.8753 2.7578-1.1592.817-2.2161 1.7704-2.6594 3.2003-.0682.2043-.2386.5107-.4091.5788-.8524.2724-1.3297 1.0555-2.0798 1.396-.8865.4085-1.2615 1.1235-1.3979 2.0087-.1364.5107-.2386.9873-.341 1.6001zM53.214 260.9004c-.0342-2.0087.7841-3.3365 2.557-3.8813.8183-.2383 1.1934-.783 1.5002-1.43.3069-.6468.6137-1.2937.9206-1.9065.5114-1.0214 1.3638-1.7023 2.4548-2.0428 1.5002-.4426 3.0004-.8852 4.5005-1.2938.7501-.2042 1.1252-.068 1.8071.4426-1.2615 1.2257-2.3867 2.5876-4.1596 3.1663-.3069.1022-.5796.2724-.8865.3405-1.2956.3064-1.8411 1.2597-1.9775 2.4514-.1705 1.3618-1.1251 2.0427-2.2161 2.4513-1.0229.4086-2.0457.715-2.9322 1.4299-.4091.4086-.9206.7491-1.5684.2724zM106.744 118.6895c.341-1.2938 1.0229-1.9066 2.3526-1.8044 1.432.102 2.7957.4085 4.0573 1.1575.9546.5788.9546.5448 1.7047-.2043.9547-.9873 2.0457-1.7704 3.4095-2.0087.4091-.0681.8523-.2383 1.091.3064.2387.5107.2728.9533-.1364 1.3619-.4091.4426-.8523.8511-1.2956 1.2597-.6478.5788-1.0228 1.1916-.9205 2.1109.1364 1.1575-.6478 2.0087-1.7389 2.1449-.5796.068-1.091-.0681-1.5001-.5788-.8865-1.0895-1.9775-1.9406-3.3072-2.4513-.6479-.2384-1.3639-.3405-2.0458-.4767-.6137-.1021-1.2956-.1362-1.6706-.8171zM132.1447 144.9383c-.375-.647-.7842-1.3278-1.1592-2.0088-.4774-.9533-.3069-1.3618.5796-1.8725.375-.2043.6478-.1362.8865.034 1.125.8171 2.2502 1.6343 2.7616 3.0302.2046.5447.5456.8852.9547 1.2256.5455.4426 1.057.9533 1.6366 1.3619.4773.3404 1.057.6128 1.6024.715.716.1361 1.2615.4085 1.7389.9533.0341 1.3278-.6137 1.9406-2.0457 1.8725-1.2615-.068-2.489-.4086-3.4095-1.2938-.6478-.6469-1.2956-.9873-2.2503-.6128-.4091.1702-.9887.1021-1.432-.0681-.6137-.2383-.9205-1.1576-.6478-1.8385.1705-.4766.4773-.9192.7842-1.498zM134.09 35.4458c.9206-1.0214 1.7388-1.1575 2.7958-.5447.5796.3405 1.091.783 1.7388 1.2257.341-.3405.682-.647 1.0229-1.0214.8864-1.0214 1.9434-1.7704 3.1708-2.247 1.3297-.5108 2.6935-.647 3.955.5106-.6137.3745-1.1592.749-1.7388 1.1235-1.3297.7831-2.6253 1.6002-3.3413 3.0302-.1705.3404-.375.6809-.4433 1.0554-.4091 1.6683-2.4207 2.3152-3.6481 1.0895-.8524-.8171-1.5684-1.7023-2.3185-2.5875-.4773-.5448-.7842-1.0895-1.1933-1.6343zM9.5059 41.7097c.1022-.2724.1704-.4426.2045-.5788.3069-1.3278.4774-1.498 1.8411-1.498 1.1593-.034 2.3185 0 3.58 0 .1364-.5447.3069-1.2257.4773-1.9407.2728-1.1235.7842-2.1449 1.7048-2.8599.4773-.3745 1.1592-.5447 1.7388-.6128.716-.068 1.1593.6128.9547 1.2938-.0682.2724-.2386.5107-.375.749-.8183 1.3619-1.2616 2.8599-1.2616 4.46 0 .1363-.034.2724-.034.4086-.0342 1.7364-1.2275 2.247-2.7277 1.7364-1.1933-.4086-2.4207-.5788-3.6481-.715-.7842-.068-1.6025-.034-2.4548-.4426zM89.8003 118.859c-1.091.6128-2.1479 1.1575-3.1026 1.7704-.6137.4085-1.1592.9192-1.6706 1.464-.5115.5788-.8524 1.2256-.5115 2.1108.2728.749-.4773 2.213-1.1933 2.4514-.2727.1021-.6478.068-.9205-.034-.2728-.0682-.4774-.2725-.7501-.4086-1.3297-.681-2.6253-1.396-3.955-2.0769-.4774-.2383-.8865-.4426-1.0229-.9873.6478-1.2597 1.0229-1.396 2.2503-.9533.7842.2724 1.6024.4766 2.2502.681.8524-1.0215 1.5343-2.0088 2.3867-2.86 1.2274-1.2256 2.6935-2.0428 4.4323-2.3832 1.3297-.1703 1.4661-.1022 1.807 1.2256zM92.9006 178.202h.2045c1.1593.068 1.091.068 1.432-1.0555.5455-1.8385 1.1593-3.643 2.523-5.073.2046-.2382.4774-.4085.7501-.5787.3069-.2383.6137-.4426.9547-.1362.2727.2724.375.6469.2045 1.0895-.2386.5447-.409 1.1235-.6136 1.7023-.3751 1.1916-.682 2.3833-1.057 3.5749-.2046.6128-.1364 1.1576.1364 1.7364.2387.4766.4091.9873.5114 1.498.1023.4766.1023 1.0214-.4773 1.2938-.5796.2723-1.2956.5447-1.807.1021-1.1934-1.0895-2.6935-1.43-4.1596-1.8045-.4433-.1361-1.057-.1361-1.091-.817-.0342-.5789.5455-1.2938 1.1933-1.43.4091-.1022.8523-.0681 1.2615-.1022 0-.034 0 0 .034 0zM161.6703 132.307c.4774.0682.8865.0341 1.2274.1703.6137.2383 1.057 0 1.5343-.3745 1.9434-1.43 4.1596-1.9066 6.5121-1.6683.4092.034.7842.3064 1.1934.3745.5114.1022.75.3405.7159.8512-.0681.5447-.4091.9193-.9546.9873-.6478.0681-1.2956-.034-1.9093.1362-1.0229.2724-2.0457.5788-2.9663 1.0555-.4432.2042-.716.749-.9887 1.1916-.4774.749-1.0229 1.3959-1.9775 1.43-.375 0-.8865-.0682-1.057-.3065-.716-.8852-1.7047-.9192-2.6935-1.0214-.7842-.1021-.9887-.2383-1.1592-.8511-.1364-.5788.5114-1.5321 1.2274-1.7364.4433-.1362.9206-.1702 1.2956-.2383zM129.2131 164.9236c-.1022.3065-.2045.5448-.3409.9533-1.2274-.1361-2.4548-.2723-3.6823-.4426-.5114.6129-.8864 1.2598-1.7047 1.5662-.9888.3745-1.8752.5447-2.864.1021-.2046-.1021-.4773-.1021-.716-.1362-1.2274-.1702-2.4548-.3064-3.6822-.4766-.5796-.1022-1.1933-.3745-1.2615-.9874-.1023-.6128.4432-.9873.9546-1.2937.682-.4086 1.4661-.2043 2.1821-.2043 1.2615-.034 2.5571 0 3.8186-.0681.2387 0 .5455-.1702.7501-.3405 1.091-.8511 2.3526-.9873 3.6482-.8511.3409.034.6819.2383.9205.4426.6138.5107 1.2275 1.0895 1.9775 1.7363zM26.2461 277.0048c0-1.3959.5114-2.4173 1.3979-3.2684.5455-.5107.7842-1.0555.8524-1.8385.1022-1.1236.4432-2.213.7841-3.3025.1364-.4426.5456-.8171.7842-1.2257.341-.5447.8524-.5447 1.2956-.3745.4774.2043.7842.6469.716 1.1916-.1023.8512-.2386 1.6683-.341 2.5194-.1022.749-.1363 1.43.2728 2.145.6137 1.0895.2728 1.9406-.9546 2.3832-.716.2383-1.398.4426-1.773 1.1916-.3409.681-.5114 1.3619-.4432 2.145.0341.2724-.034.5787-.1705.783-.4773.7831-.9546.7831-1.5342.0681-.6137-.749-.8524-1.6002-.8865-2.4173zM127.8488 180.3124c-1.2956.4086-2.5913.8512-3.8869 1.2598-.9887.3064-2.0115.5106-2.9662.8851-.5455.2043-1.091.5788-1.4661.9874-.5114.5788-1.091.715-1.7048.5447-.75-.2042-1.5001-.5107-1.9433-1.2256-.3069-.5107-.716-.715-1.2957-.749-.9887-.0681-1.1933-.5448-.6819-1.396.8524-1.3959 2.6595-1.3959 3.6823-.783.6137.3404 1.091.3064 1.7047.1362 1.1593-.3064 2.3526-.5788 3.546-.749 1.2614-.1703 2.5229-.2384 3.8185-.2384.9206-.068 1.0911.1703 1.1934 1.3278zM122.3244 148.1727c-.4091.3064-.8523.5448-1.2274.8852-.6137.5788-1.2274 1.1916-1.7388 1.8385-.2046.2383-.2046.6469-.2046 1.0214-.034 1.0895-.4432 1.9747-1.5684 2.213-1.2615.2724-2.1138 1.0895-3.0685 1.8045-.8524.6469-1.6707 1.3278-2.148 2.3151-.1023.1703-.341.3065-.5455.4767-.4773-.4767-.6137-1.0214-.4091-1.498.3068-.7831.6478-1.6002 1.1592-2.2471.7842-.9874 1.773-1.8385 2.6253-2.7578.2387-.2383.4773-.5107.6137-.817.7842-1.7705 2.182-2.9621 3.7163-4.0176.2046-.1361.4433-.2042.682-.2723 1.1251-.3745 1.5001-.2043 2.1138 1.0554zM138.078 19.8516c.2387-.5107.4432-.9192.6819-1.3959 1.9775-.1021 3.7845.1362 5.2165 1.6002.3069.3064.5455.3064.9547.2043 1.8752-.5447 3.7504-1.0554 5.6256-1.5661.3069-.0681.6138-.0681.9547-.1022.375-.034.6137.1362.716.4767.1364.3745.2386.783-.1364 1.0554-.4432.3064-.8865.5788-1.3638.783-.7842.3065-1.6365.4767-2.4207.7831-.8524.3405-1.6707.7831-2.523 1.1236-.6138.2723-1.2275.5447-1.8753.6468-1.1592.1362-1.7388-.3404-2.0116-1.498-.1704-.715-.716-1.1235-1.3297-1.43-.375-.2042-.7842-.3404-1.1933-.4766-.4091-.034-.7842-.068-1.2956-.2043zM65.7623 206.9372c.2046-1.9747.8183-3.643 1.9775-5.107.8183-.9873 1.8411-1.396 3.1026-.9193.5455.2043.8865.4767.716 1.1576-.1364.0681-.3068.2043-.5114.2724-1.8752.715-2.523 2.281-2.8299 4.0515-.1364.749-.1364 1.498.1705 2.2811.1705.4426.375 1.0554-.1705 1.464-.4773.3405-1.057.4086-1.6024.2043-1.1593-.4086-2.3185-.8171-3.4777-1.2597-.5455-.2043-1.057-.4086-1.5684-.681-.4432-.2723-.4432-.5447-.1364-.9532.4092-.5788 1.0229-.749 1.6707-.681.6478.0681 1.2615.1702 1.9093.2383.2387 0 .4773-.034.75-.068zM72.3092 160.5317c.716-.783 1.3638-1.6683 2.1821-2.3152.682-.5787 1.5684-.9873 2.3867-1.3278 1.0228-.4426 1.7047 0 2.0457 1.1576-.4774.4086-.9547.8512-1.4661 1.1916-1.1592.7831-1.773 1.9066-1.9775 3.2685-.2387 1.6683-1.1934 1.9406-2.5912 1.5661-.341-.1021-.682-.2383-.9547-.4426-.7842-.6128-1.6366-.6128-2.523-.3404-.1364.034-.2728.1361-.4092.1361-.3409-.034-.716-.068-.9887-.2383-.375-.2383-.0682-.5788.034-.8511.4433-1.1576 1.2616-1.7364 2.5231-1.7364.5796-.0681 1.1251-.0681 1.7388-.0681zM27.577 183.581c-.2728.5107-.5456 1.0214-.8184 1.5661-.5114 1.0555-.716 2.1109-.2045 3.2685.3068.6809.1023 1.2597-.341 1.8385-.6137.783-1.3297 1.2257-2.3525 1.1916-.682-.034-1.1934.3745-1.6707.8171-.5455.5107-1.2956.6128-1.5683.1022-.2728-.4767-.4774-1.0895-.4092-1.6002.1023-.8171.6478-1.464 1.432-1.8726.4773-.2383.9206-.5107 1.432-.783.1364-.7831.3068-1.5662.4091-2.3833.2046-1.1916.9206-2.0428 1.9093-2.6556.716-.4086 1.5002-.2383 2.1821.5107zM97.1277 154.3014c.9205-1.1576 1.7388-2.2471 2.5912-3.3025.2386-.3065.6137-.4767.9205-.715.5115-.4426 1.057-.3405 1.5684 0 .5114.3064.5796.6128.1705 1.0214-1.0229 1.0554-1.6025 2.4173-2.2162 3.711-.2387.5107-.2387 1.0895-.341 1.6683-.1363.715-.2386 1.3959-1.091 1.6342-.8524.2384-1.5002.0681-2.148-.4766-.7842-.6128-1.5683-1.1916-2.3866-1.7364-.716-.4766-.9547-.8852-.7501-1.43.2727-.7149.9206-1.0894 1.7047-.9532.341.068.682.1362 1.0229.2724.375.068.6819.2042.9547.3064zM98.5281 114.8072c-.5114-.2724-.8865-.4085-1.2615-.6469-.716-.4426-.8865-1.2256-.9547-1.9406-.1023-1.2597.1023-2.5195.7842-3.643.4773-.783.7842-1.6002.9888-2.5535.4091-1.9406 1.6365-3.2684 3.58-3.8132 1.0228-.3064 1.2955-.068 1.466.681-.4773.6468-.75 1.1575-1.1251 1.5661-.5796.5447-.8865 1.0895-.8524 1.9406.0341.681-.2046 1.464-.8524 1.8726-1.432.9192-1.6365 2.3151-1.7388 3.7791-.0682.715 0 1.43 0 2.145.034.1702 0 .3404-.0341.6128zM83.8319 154.301c1.7047.034 2.2502 1.464 3.3754 2.1109.2727-.3745.5796-.749.9205-1.1236.1705-.2042.4092-.3745.6138-.5447.3409-.2724.716-.3745 1.057-.068.3068.2723.3067.6127.2045.9872-.375 1.3279-.4433 2.6216-.2387 3.9835.1023.6128.0682 1.2597.0341 1.9066-.034.5788-.375 1.0214-.9547 1.1235-.75.1362-1.5001.2043-2.0116-.5447-.2045-.3065-.409-.715-.4432-1.0555-.0682-1.2937-.6819-2.3492-1.466-3.3025-.5797-.715-1.057-1.498-1.1593-2.4513 0-.2724.0341-.5788.0682-1.0214zM59.0121 6.4035c-.1364-1.1575-.2045-2.179.2046-3.2003.3068-.749.75-1.3619 1.3979-1.8385.5114-.3745.9546-.2384 1.091.4085.0682.3745.0682.783 0 1.1576-.2046 1.1916.0341 2.3492.5455 3.4046.682 1.43.4433 2.3492-.9205 3.0983-.2728.1361-.716.2383-.9888.1021-1.2274-.5788-2.3525-.1702-3.4777.2724-.375.1362-.716.3404-1.091.4426-.2387.068-.6137.034-.75-.1362-.1365-.1362-.1365-.5107-.0342-.749.375-1.1236 1.2956-1.7704 2.2844-2.247.5114-.2725 1.091-.4427 1.7388-.715zM40.4299 44.4337c.8864.1021 1.841.1702 2.8298.2723.9206-1.2256 1.807-2.4513 2.7276-3.677.375-.5107 1.6366-.8852 2.182-.6128.2388.1021.4774.4426.5456.681.0682.2723.0682.6468-.0682.9192-.7842 1.7363-1.6365 3.4387-3.0344 4.8005-.8183.8171-1.7389 1.1916-2.898.8171-.4774-.1362-.9889-.1702-1.432-.3745-.4092-.1702-.8865-.4426-1.057-.8171-.2387-.5447-.4092-1.2597.2046-2.0087zM150.6923 60.8437c1.1933-.5107 2.114-.1703 2.9663.749.8523-.5107 1.6365-1.0214 2.4548-1.464.716-.3745 1.4661-.681 2.2162-1.0214.1023-.034.2045-.068.3068-.068.8524-.1022 1.432.068 1.5684.5447.2387.6809-.2728 1.0213-.75 1.3618-.9888.715-2.0117 1.464-2.9664 2.247-.4432.3405-.8182.7831-1.091 1.2598-.7842 1.2937-2.1139 1.43-3.1026.2724-.4774-.5448-.9206-1.0555-1.3638-1.6002-.6137-.681-.9206-1.43-.2387-2.2811zM132.485 126.383c.2728-.2382.5456-.4085.7842-.6127 1.091-.9874 2.4208-1.2598 3.8527-1.3279.4092-.034.7842.034.9206.5107.1705.5107.2728.9533-.2046 1.3619-.2045.1702-.375.3405-.5796.4426-1.2274.6469-2.0798 1.7023-2.864 2.7918-.5455.715-1.6706.9533-2.4889.3745-1.0228-.715-1.9775-1.498-2.9321-2.3151-.716-.6129-.7501-.9533-.341-1.5321.5114-.749 1.1933-.9874 1.9434-.6469.3069.1362.6137.3745.9206.5107.2727.1702.5796.2724.9887.4426zM167.7057 72.1816c-.4092-.8852.034-1.464.6137-1.9747.6819-.6128 1.432-1.1235 2.3525-1.396 1.1592-.3404 2.2844-.749 3.4436-1.1234.3069-.1022.6478-.2384.8183.2042.1704.4086 0 .715-.341.9193-1.0569.715-2.148 1.3959-3.239 2.0428-.5455.3064-.8183.715-.8524 1.3618 0 .5788-.5114 1.3278-.9546 1.3278-.8865.034-1.5002.5788-2.2162.9193-1.2615.5788-2.489 1.1916-3.7504 1.7704-.4433.2043-.9206.5447-1.3297-.0681-.2387-.3745.034-1.3278.4773-1.6342.3068-.2383.6478-.4426 1.0228-.5788 1.2956-.6128 2.5572-1.1576 3.955-1.7704zM31.7695 217.5937c-.716-1.9407-.4091-3.677.9888-5.107.4773-.5107.75-1.0554 1.057-1.6683.5454-1.1575 1.432-1.8725 2.557-2.4173.1705-.1021.4092-.102.6137-.102.5797.034 1.1934.068 1.432.6808.2387.5788.1364 1.1917-.375 1.6343-.7842.715-1.1592 1.6342-1.5002 2.6215-.3068.8852-.8524 1.7364-1.9093 2.145-.5114.2042-.9547.715-1.2956 1.1575-.4091.5788-.8865.8852-1.5684 1.0555zM18.4725 89.3067c.5455-.9874.9887-1.9067 1.5342-2.7238.5456-.817 1.3297-1.43 2.2503-1.8725.2386-.1022.5455-.1362.8183-.1362.5796.068.75.3405.4773.8852-.3069.681-.6819 1.3278-1.0229 2.0087-.4773.8852-.9546 1.7364-.75 2.8259.0682.2724-.2046.6469-.375.9192-.0683.1022-.2728.1703-.307.2724-.2727 1.0555-1.1592 1.0214-1.8752.8852-.9546-.2043-1.841.1022-2.7275.2384-.1705.034-.341.1361-.5115.1361-.6478 0-1.0228-.4766-.7842-1.0554.3069-.8852.8183-1.6683 1.807-1.9747.5115-.1362 1.023-.2724 1.4662-.4085zM67.8081 226.6165c-.6137.681-1.432.681-2.148.9192-.8183.3065-1.6365.647-2.4207 1.0214-.2728.1362-.4773.4086-.716.6129-.75.6809-1.5002.749-2.3185.2723-.5114-.3064-.6137-.817-.6819-1.2597-.1363-.681-.4091-1.2597-.8182-1.8044-.1705-.2384-.2728-.5107-.375-.749-.2047-.749.4772-1.464 1.2614-1.2938.6137.1362 1.1592.3745 1.5343.8511.2727.3745.6478.4086 1.057.2724.4773-.1702.9546-.2724 1.3978-.4766.8865-.4086 1.773-.2043 2.6253-.0681.8183.1361 1.3638.783 1.6025 1.7023zM161.1936 147.7303c1.2956-.8171 2.6935-1.1916 4.1596-1.0895.4091.034.8183.1362 1.2274.3064.6137.2383.9547.749.7842 1.1916-.1705.5107-.682.5448-1.1252.6129-.6818.1362-1.3978.2723-2.0456.5447-.716.2724-1.398.6469-1.7048 1.498-.2046.681-1.466.8853-2.2502.3746-.9888-.647-1.9776-1.2938-2.489-2.4854-.375-.8171-.341-1.3619.2387-1.9066.5114-.4767 1.3638-.5107 1.9775-.1021.2046.1361.375.3064.5796.4766.2046.1702.375.3405.6478.5788zM151.8847 105.3083c.2727-.3405.4773-.681.75-.9533 1.3639-1.43 3.1027-2.213 5.0461-2.4854.682-.1022.9547.3064.716.9873-.1705.5448-.6137.749-1.057.9874-.6818.4085-1.432.817-2.0456 1.2937-.6137.4767-1.057 1.0554-1.1593 1.9407-.1022 1.3278-.4432 1.498-1.807 1.3278-.1705-.034-.341-.034-.5114.034-.9547.3064-1.5343-.2723-2.0798-.9192-.1705-.2043-.2387-.4426-.4091-.6129-.6478-.6469-.341-1.3959-.2046-2.1108.1023-.5107.9547-.647 1.5684-.3065.375.1703.6819.4426 1.1933.8172zM114.178 147.1513c-.0682.9193-.4432 1.5321-1.091 2.0768-.8524.681-1.6707 1.396-1.9093 2.5876-.1705.783-.8865 1.1916-1.6707.9192-1.091-.3745-2.148-.8852-3.1026-1.498-.9206-.647-.6478-1.7023.4432-1.9747.4773-.1362.9888-.2724 1.466-.1702.6479.1361 1.0911-.1362 1.5684-.4767a25.2152 25.2152 0 0 1 2.2503-1.43c.6478-.4085 1.3297-.4766 2.0457-.034zM151.7163 249.461c-.9888.2723-1.8412.5106-2.6594.783-1.1252.3745-2.523-.034-2.9663-.9873-.2387-.5448-.3069-1.1576-.4091-1.7364-.0682-.4086-.1023-.8511-.1364-1.2597-.0682-.749.4432-1.498 1.1933-1.7023.6137-.1362 1.0228-.0681 1.3297.5787.5114 1.1236 1.091 1.9747 2.523 1.9407.4092 0 .9206.4086 1.2616.749.2045.2384.2727.715.2386 1.0555-.0682.2383-.341.4766-.375.5787zM119.1901 93.2906c-.4432.1021-.7842.3064-.9887.2043-.9206-.4426-1.9093-.2043-2.8299-.3745-.9887-.1703-1.9775-.3405-2.9322.034-1.2615-.3745-1.7047.6469-2.3184 1.3619-.2728.3064-.5114.6128-.8183.9873-.5796-.715-.75-1.3619-.4091-2.0768.4432-.9193.9546-1.8385 1.7729-2.4854.4432-.3745.9547-.6469 1.5684-.5448 1.6365.2724 3.273.5788 4.8755.8512.8183.1362 1.3298.6128 1.6707 1.3278.0682.1702.2046.3405.4091.715zM95.7318 161.554c.4091-.2724.8864-.5108 1.2274-.8512.4432-.4086.9887-.3745 1.5001-.4086.3069-.034.5115.2043.5115.5448 0 .2383-.0341.5107-.1023.715-.2728.817-.4433 1.6001-.4773 2.4853-.0341 1.1236-.9888 1.6343-2.2503 1.2597-1.5343-.4766-2.6594-1.498-3.58-2.7237-.2386-.3064-.375-.817-.341-1.1916.1024-.9533 1.1252-1.3618 1.9435-.8511.3069.2042.5455.4426.8183.6468.2727.2043.5455.4426.7842.681 0-.1022-.0341-.2043-.0341-.3065zM129.2115 134.009c.9206-.4767 1.7389-.9193 2.5572-1.2938.3068-.1361.6819-.1702 1.0228-.1702.7501 0 1.0229.4767.6478 1.1235-.1364.2384-.375.4086-.5796.6129-.6478.715-1.2615 1.3959-1.6707 2.281-.716 1.6003-2.182 1.7364-3.3753.4086-.5456-.6128-1.091-1.1916-1.6707-1.8385.0682-.749.2046-1.43 1.091-1.7023.8524-.2383 1.432.3745 1.9775.5788zM72.6504 217.4921c-.9205.4086-1.7047.783-2.523 1.1236-.6478.2723-1.1592.6468-1.5684 1.1916-.8864 1.0895-2.2843 1.0214-3.1367-.1362-.3068-.4086-.6819-.8171-1.091-1.1576-.4774-.3745-.4433-.8171-.2728-1.2257.1705-.4426.5455-.6809 1.0229-.5447.6137.1362 1.2274.3405 1.8752.5107.8864-.715 2.0116-.9874 3.1367-1.2257.8183-.1702 1.5684.1021 2.148.681.1364.2042.2386.4766.4091.783zM104.357 133.192c.716-.4426 1.3297-1.0214 2.0457-.5107.9206-.4426 1.7047-.9533 2.5571-1.2257 1.0229-.3404 1.3638-.1021 2.0457.9533-.5114.3745-.9887.749-1.5002 1.1236-.716.5447-.9205 1.3959-1.2956 2.1449-.2386.5107-.5114.9873-1.1251 1.1916-.9547.2724-1.8411-.3405-1.9775-1.2257-.1023-.6468-.1023-1.3278-.682-1.8044-.0681-.1362 0-.4086-.0681-.647zM147.352 125.4984c1.432-.681 1.773-.647 2.6594.3745.716.8511 1.3979 1.7704 1.8411 2.8258.2728.681.1023 1.2598-.4773 1.8045-.5455.5107-1.5684.681-2.0798.2724-.2386-.2043-.5114-.5788-.5114-.8853 0-1.1235-.5796-2.0087-.9888-2.962-.2386-.4426-.3068-.9533-.4432-1.43zM95.2205 146.0619v-2.0768c0-.681.2387-1.1576.75-1.3619.4774-.1702 1.1593-.034 1.5344.4426 1.0569 1.2938 1.1933 3.2004.5796 4.5963-.2387.5447-.9206.8171-1.5343.715-.716-.1362-1.3297-.749-1.398-1.43 0-.3404.0342-.6128.0683-.8852zM151.1026 159.5103c-.3069.3405-.5455.715-.8524.9874-.341.2724-.6137.5447-.6819 1.0214-.0682.3745-.2386.749-.4432 1.0554-.375.5788-.9888.783-1.773.6129-.6137-.1362-.8523-.6129-.9205-1.1576a2.7554 2.7554 0 0 1 0-.749c.341-1.2257 1.6365-2.7237 3.273-2.7578.5115 0 .5115 0 1.398.9873z"/><path d="M131.6142 796.83c1.2983.6306 1.7193 1.7517 2.0351 2.9078.0351.105-.1754.2452-.3158.4904.6667.3153.6667.946.6667 1.6466 0 1.5415-.0702 3.0128-.5614 4.5193-.6667 1.9969-1.7544 3.7135-3.1579 5.29-.772.8758-1.4386 1.8217-2.1404 2.7326-.7719.9809-.6667 2.172-.6316 3.3281 0 .5255.1755 1.0861-.2105 1.5765-.0702.0701-.0702.2102-.0702.3153-.1052 1.5765-1.4386 2.3823-2.7719 1.5765-.8421-.4904-1.6492-.4904-2.5264-.4904-.6666 0-1.2631.2452-1.8245.6306-1.4386.9809-2.9825 1.8217-4.737 2.2421-2.5613.6306-4.8771.1752-6.9473-1.4364-.6667-.5255-1.2983-1.051-1.8948-1.6465-.7017-.6657-.7017-1.3663 0-2.1721.1053-.1401.1755-.2803.3158-.4905 1.1228.2803 2.2106.7357 3.193 1.3663.807.5606 1.6492 1.0861 2.6667 1.1912.7369.1051 1.4737.1051 2.1404-.2453.9824-.4904 1.9298-.9809 2.8421-1.5765.9825-.6306 2.0351-1.121 3.193-1.3312.9123-.1402 1.8597-.3153 2.8421-.4905.1404-.5956.386-1.2262.4913-1.8918.3157-2.0319 1.614-3.5383 2.7719-5.1148 1.2983-1.7517 2.5965-3.4683 3.1228-5.7104.386-1.5415.386-3.013.1755-4.5193-.0351-.2102-.0351-.4204-.0351-.6657-.1404-1.5414-.1404-1.5414 1.3684-2.0319zM164.3521 774.7249c.7368-.1752 1.3684-.6306 1.9649-.035.5965.5605.9824 1.156.9123 1.9969-.1053 1.051.1403 2.067-.2106 3.118-.4561 1.3662-.9824 2.6624-1.9649 3.6784-.6667.7007-1.3684 1.4364-2.1403 2.0319-1.2983 1.016-1.544 2.4173-1.6141 3.8887-.0702 1.051-.2105 2.032-.807 2.8727-.4913.6657-1.0176 1.1912-1.965 1.1912-.807 0-1.0526.3503-1.228 1.1561-.3158 1.4363-.0702 2.7676.386 4.1689.421 1.2963.5614 2.6976.842 4.0639.5615 2.7326.2808 5.4652.0351 8.1978-.1052 1.121-.421 2.2071-.6666 3.3281-.0702.2453-.2807.4554-.386.6306-.2105-.035-.2807-.035-.3509-.035-1.228-.4554-1.5088-1.3663-1.4386-2.5925.1053-1.9969.1404-4.0288 0-6.0257-.1403-1.5765-.5614-3.153-.9123-4.7295-.2456-1.121-.5965-2.2421-.9123-3.3632-.4561-1.4714-.2456-2.9778 0-4.4492.3158-1.8217 1.3334-3.0829 3.0176-3.8186.5263-.2452.807-.5605.8421-1.1211.0702-.8057.2807-1.5765.421-2.3822.1755-.9109.6667-1.6116 1.2983-2.2422.9123-.9459 1.8597-1.8567 2.772-2.8026 1.1228-1.121 1.7193-2.5224 1.8596-4.099.0702-.8407.1755-1.6815.2457-2.6274zM179.3574 817.6658c1.2544-1.6666 3.1355-1.9387 4.8538-2.4224 1.8613-.524 3.7768-.8572 5.6787-1.2381 1.1419-.2442 2.165-.6352 3.0186-1.4421.6556-.5967 1.3552-1.1285 2.0242-1.6774.0991-.1052.1982-.2103.3279-.2983.6177-.4572 1.7353-.5143 2.1739-.1484.408.3487.426 1.3223-.063 2.0523-1.4362 2.2073-3.3786 3.81-5.9559 4.5356-1.3364.3762-2.7268.5616-4.0767.8901-1.3021.315-2.5908.6779-3.8966 1.0712-1.4012.4202-2.262 1.3837-2.7492 2.7571-.127.3706-.3322.7375-.5204 1.0737-.3935.7032-1.1157.7004-1.7354.5143-.5718-.1995-1.1023-.6168-1.1959-1.3116-.027-.0954-.037-.2214-.0163-.3303.1431-1.4053-.8502-2.0014-1.8949-2.5056-.6907-.3465-1.4021-.584-2.127-.8693-1.4635-.6182-2.4929-1.7965-3.5736-2.883-.5403-.5433-.9817-1.1917-1.5391-1.7044-.5845-.6081-.6917-1.3506-.7512-2.1065-.0694-.882.3989-1.503 1.1427-1.97.3548-.203.7024-.2493.9194.1532.2477.4196.4612.9004.726 1.2895.3089.4538.6826.8638 1.0258 1.2564.5844.6082 1.169 1.2163 1.8525 1.7193.7448.5372 1.503 1.1221 2.3406 1.35 1.3481.393 2.4125 1.1494 3.4735 1.984.1395.0379.262.1065.5376.2607zM208.2466 1083.9259c-.0351-1.3312.2807-1.8217 1.4386-2.2771.4561-.1752.9123-.3153 1.3333-.5255 1.2632-.6306 1.8948-1.8568 2.351-3.0479.9122-2.4523 2.0701-4.6594 4.3508-6.1308-.1403-.4905-.3158-.981-.4561-1.4714-.421-1.6466-.1404-3.2231.1754-4.8696.421-2.2071.5965-4.4843-.3158-6.6914-.3158-.7357-.5614-1.5064-.9473-2.207-.351-.6307-.1404-1.1562.2105-1.6116s.8772-.2803 1.3333-.1401c.4913.14.8772.3503 1.2632.7707 1.5439 1.8918 2.3158 4.0288 2.1755 6.4811-.0702 1.1211-.0702 2.2772-.1755 3.3983-.0702.7357-.386 1.4714-.4912 2.2071-.0702.5955-.0351 1.2261.0702 1.8217.1403.7357.3157 1.4363 1.1579 1.8567.8421.4204.7368 1.7517-.1053 2.2772a2.8542 2.8542 0 0 1-1.0176.4204c-1.4386.2452-2.2807 1.086-2.9474 2.3472-.7368 1.4364-1.0526 3.0129-1.9649 4.3442-1.193 1.7516-2.7368 3.0479-4.772 3.6434-.5263.1401-1.1578-.0701-1.6842-.1752-.386-.07-.7017-.2802-.9824-.4204zM212.6665 778.017c.8772 1.051.4562 1.9969.1053 2.9078-1.4035 3.3281-2.9123 6.5862-4.3158 9.9144-.2807.6656-.4912 1.3663-.6667 2.0669-.1403.5606-.0351 1.0861.2807 1.5765.5965.9459.4211 1.7517-.5614 2.6976-.3509.3503-.7018.7357-1.0526 1.051-1.0176.9108-1.6492.9809-2.8422.2802-.5965-.3153-1.193-.4904-1.8947-.4204-2.0351.1752-4.0702.3153-6.1053.4555-.4913.035-.9474-.1402-1.5088-.2102.2105-1.016.9123-1.4364 1.5439-1.8918.4561-.3504 1.0175-.5956 1.579-.7357 1.9649-.4905 3.8947-1.2262 6-1.1911.772 0 .8772-.1402.9824-.981.1755-1.4013.8071-2.6275 1.3685-3.8887 1.2631-2.7676 2.6316-5.4651 3.8596-8.2328.5614-1.2612 1.4386-2.2421 2.4562-3.153.1754-.1751.4912-.1751.7719-.2452zM119.9643 1149.58c.1404.946.3158 1.7867.421 2.6275.1755 1.4714 1.1229 2.4173 2.351 2.9428 1.3684.5605 2.5614 1.3313 3.7193 2.3122 2.1403-.981 4.4912-1.3663 6.8421-1.6816 1.6141-.2102 3.0527-.981 4.3509-1.9268.4211-.2803.8422-.5606 1.3334-.7708.4912-.2102 1.0175-.1751 1.4035.2453.386.4204.4912.9458.1754 1.4013-.5263.7357-1.0175 1.5414-1.6842 2.102-1.3333 1.121-3.0175 1.6115-4.7018 1.9268-1.5438.2803-3.0526.5605-4.5614 1.051-.9474.3153-1.5088.9459-2 1.7166-.3509.5255-.772.9459-1.4035 1.1912-1.193.4204-2.4562-.4905-2.4211-1.7867 0-.3503-.035-.7007-.035-1.0861 0-.4904-.3159-.8057-.7018-1.051-1.0176-.6306-2.1053-1.156-3.0176-1.8917-1.5439-1.1912-2.7369-2.6276-2.5264-4.7646.1053-1.2962.9123-2.207 2.4562-2.5574zM199.7892 1091.9845c-.772 1.3313-2.0702 1.7867-3.2983 2.3122-2.0702.8408-4.2456 1.3663-6.4562 1.5765-.9473.1051-1.5087.8058-2 1.5415-.1052.1401-.1052.3503-.1754.5255-.8421 1.6115-1.5439 2.137-3.2983 1.2962-.5263-.2452-1.0526-.1752-1.579.1051-2.7017 1.4364-5.4035 2.9078-8.1053 4.3091-.6666.3503-1.3684.6306-2.2105.5605-.1404-.5255-.1053-.9459.1754-1.4013.5614-.7707 1.1228-1.4714 2-1.9618 2.2457-1.2612 4.4211-2.5925 6.5966-3.9238.772-.4554 1.5789-.7707 2.4912-.7007.5614.035.8772-.1751 1.2281-.5605a31.9992 31.9992 0 0 1 1.5439-1.5415c.9123-.7707 1.9649-1.191 3.193-1.2611 2.386-.1051 4.6667-.8058 6.9474-1.5415 1.4035-.4554 2.1053-.3153 2.9474.6656zM190.9137 767.0855c.8421.2102 1.5438-.035 2.1754-.6306.2106-.2102.4562-.4204.7018-.4554.8421-.1051 1.0877-.5255 1.193-1.3663.1052-1.086.5263-2.102 1.1228-3.0479.7018-1.156 1.1228-2.4523 1.3334-3.7836.1403-.8408.421-1.6816 1.4736-1.8918.8421-.1751 1.4737.1402 1.8246.946.3158.7356.3509 1.5414.1053 2.242-.4562 1.3663-.9825 2.7326-1.6492 4.0289-.4912.9809-.6315 1.8918-.2456 2.9428.4913 1.3312.0351 2.7325-1.0877 3.4682-.1754.1051-.421.1402-.6316.1402-.3509-.0351-.7368-.0701-1.0877-.1752-.8421-.2452-1.579-.1051-2.2456.4905-1.2983 1.121-3.6843.6306-4.7018-.3504-.386-.3853-.5614-.8057-.4913-1.3662.1053-.8058.4913-1.1211 1.3334-1.1561.2807-.0701.5614-.0351.8772-.0351zM196.5634 1105.3708c.1754-.946.3509-1.8567.5263-2.7326.2105-.9109.5965-1.7517 1.4737-2.207.807-.4205 1.2281-.1402 1.193.7707-.0351 1.2612-.0702 2.5574-.1754 3.8185-.1053.946.2456 1.7167.807 2.3823.4912.5606.5965 1.1561.4561 1.8217-.2105.946-.9825 1.2262-1.7193 1.4364-.5965.1752-1.0877-.2452-1.3684-.7006-.9123-1.5765-2.4211-1.8919-4.0351-1.997-1.3685-.105-2.772-.105-4.1755-.105-.9123 0-1.8246.1751-2.7018.2802-.6316.07-1.2982.0701-1.8596.1051-.4913-.6306-.4562-1.121.035-1.4714.5614-.3854 1.1228-.8408 1.7544-1.016.8421-.2452 1.7193-.3853 2.5965-.4203 2.2457-.035 4.5264.035 6.772.07.1404 0 .2456 0 .4211-.035zM124.0328 1125.5819c-.5614-1.1911-.5264-1.2612.2456-2.102l1.0526-1.2612c.9474-1.2261 2.2807-1.6115 3.6843-1.7516.456-.8758.842-1.7517 1.3684-2.5575 1.1228-1.6816 2.8421-2.5924 4.5614-3.5033.7018-.3853 1.4386-.7006 2.1404-1.051.5614-.2802 1.0877-.4204 1.5439 0 .3508 1.2963-.2808 2.137-1.193 2.8377-.7018.5605-1.4737 1.086-2.2457 1.5765-1.579.981-2.6316 2.2421-2.5965 4.239 0 .9109-1.5088 1.9969-2.4561 1.6816-1.0176-.3503-1.7544.035-2.5264.5956-1.0526.7006-2.2456 1.1911-3.579 1.2962zM204.7387 1141.2109c-.1053-.981.3158-1.6466 1.3684-2.102 1.7895-.7357 3.6843-.9109 5.579-.5255.2807.07.5614.105.807.1751 1.193-1.8567 2.5965-3.4683 4.2808-4.7295.7719-.5605 1.5438-1.191 2.6316-1.2261.9122-.035 1.4737.2452 1.8596 1.016-2.2807 1.2261-3.9298 3.0478-5.2632 5.1498-.3859.6306-.5965 1.4013-.807 2.137-.386 1.2262-1.7895 2.067-3.0176 1.7517-.2807-.07-.5965-.3153-.7719-.5605-.7368-1.016-1.8246-1.1911-2.9123-1.2262-1.193 0-2.4562.1051-3.7544.1402zM208.8786 1163.7343c-.2807.7007-.8772 1.086-1.5438 1.2962-1.6141.4905-3.2281.946-4.8422 1.4013-1.2632.3504-2.5614.5256-3.7544 1.1912-1.2632.7006-2.2456.4204-2.8772-.7708-.5614-1.086-1.4737-1.5764-2.5614-1.8917-.9825-.2803-1.7895-.6657-1.7193-2.032.3157-.3503.8772-.6306 1.579-.5955 1.5789.035 3.1227.2102 4.421 1.2962.2807.2452.807.2452 1.228.2102 1.158-.1402 2.3159-.3854 3.4738-.5255 1.614-.1752 3.2632-.3153 4.9123-.4204.6667-.07 1.2983.1752 1.6842.8408zM162.4924 1085.1565c-.3158.7708-.8421 1.1912-1.6141 1.5065-1.3684.5955-2.6666 1.2261-3.5088 2.6275-.4912.8408-1.5438.9459-2.5263 1.016-.772.035-1.0877-.4905-1.4386-1.016-.1053-.1402-.2105-.2803-.2807-.4555-.421-1.191-1.4035-1.7867-2.5263-2.242-.9825-.3855-1.9299-.8409-2.9123-1.2613-.0351-.3854-.0702-.7006-.1053-1.086.0702-.07.1754-.1401.2456-.1752.8772-.4204 1.8246-.3853 2.7018-.2452 1.4386.2452 2.8421.6656 4.0351 1.5765.7368.5605.7018.4905 1.5088.07 1.4035-.7356 2.8772-1.2612 4.4562-1.3312 1.0877-.07 1.5438.2102 1.9649 1.016zM154.141 1138.232c1.579-3.153 4.2807-3.5033 7.2281-3.258.4562-.7007.8772-1.4364 1.3684-2.102 1.3334-1.8218 3.2983-2.7676 5.3334-3.4683.4913-.1752 1.0878-.07 1.6141.035.2807.0701.5263.3854.8772.6657-1.2983.9459-2.4562 1.7516-3.6141 2.6275-1.1228.8408-1.8947 1.8917-2.3158 3.223-.1403.4905-.421.946-.7018 1.3663-.7719 1.051-1.6842 1.2612-2.842.7007-1.0878-.5255-2.2457-.5606-3.4387-.4204-.9123.14-1.7895.3503-2.7018.5255-.2807.105-.5263.07-.807.105zM158.281 748.6242c.2456-.946.9474-1.2262 1.7895-1.2963 1.0526-.07 2.1053-.14 3.2983-.2101.0701-.3153.1052-.8408.2807-1.2963.3508-.981.6315-2.032 1.1228-2.9428.2105-.4204.842-.6656 1.3333-.8408.5263-.1751 1.0877.2803 1.0877.8759 0 .5955-.0701 1.156-.1403 1.7516-.0702.3854-.2105.7707-.2807 1.1561-.1404.7357-.1404 1.4714.386 2.102.7719.981.4912 2.137.4561 3.223-.035.6307-1.4737 1.4364-2.1053 1.1912-.5263-.2102-1.0526-.5255-1.4386-.9109-1.0175-1.016-1.6842-1.2612-3.228-1.5064-.4913-.07-.8773-.07-1.3685 0-.2456.035-.5965-.2452-.772-.4554-.2105-.2102-.2806-.5606-.421-.8408zM214.9831 975.9903c-.2456 1.016-.8772 1.8217-1.614 2.5574-.5614.5255-.8421 1.051-.5614 1.9268.386 1.1561-.6667 2.6275-2.0702 2.8027-.2456.035-.5614-.1752-.7369-.3854-.9824-1.1911-2.3509-1.8217-3.7193-2.4523-1.0526-.4555-2.0702-1.016-2.9123-1.8568.9123-1.4714 2.2456-1.2612 3.5439-1.016.807.1402 1.614.4905 2.4912.7708.7369-1.051 1.7544-1.8568 2.9123-2.4524.4562-.2102.9825-.3152 1.4386-.4554.5965-.1751.9123.1051 1.2281.5606zM182.4212 802.715c0 1.3663-1.4736 2.5925-2.7017 2.4173-.7018-.105-1.0878-.6306-1.3685-1.156-.3158-.5606-.6315-.5606-1.1579-.3504-1.1228.4905-2.3158.9109-3.579.9109-.5964 0-1.0175-.1752-1.2631-.6656-.2456-.4905.1053-.911.386-1.2963.1403-.2102.3508-.3853.5965-.4904 1.5438-.6657 2.9123-1.6466 4.5965-1.997.2456-.035.4561-.2802.6666-.4904a4.8873 4.8873 0 0 0 .7369-.946c.386-.5254.8772-.4553 1.3684-.3152.4913.1401.6667.6306.6667 1.051 0 .981.2807 1.7867.8772 2.5224.1404.2452.1404.5956.1754.8058zM194.316 1074.7498c.3158-.946.8421-1.3313 1.6842-1.2262.4912.07.9825.2803 1.4386.4554.386.1752.772.4204 1.1228.6657.0702.035.1404.035.3158.105.2807-.3853.5965-.8407.9474-1.2611 1.0877-1.3663 2.386-2.4524 4.1404-2.8728.7368-.1751 1.4386-.07 2.1404.5606-.3509.3503-.6667.6656-1.0176.9459-.6316.5255-1.3333 1.051-1.9298 1.6115-.807.7707-1.3685 1.7166-1.614 2.8027-.1053.4554-.2808.9108-.386 1.3663-.2457.9458-.9825 1.191-1.7895 1.2962-.807.105-1.2281-.4204-1.4737-1.051-.351-.9109-1.193-1.3663-1.8597-1.9619-.5965-.4554-1.1579-.9459-1.7193-1.4363z"/></g><defs><clipPath id="clip0"><path fill="#fff" d="M0 0h209v1346H0z"/></clipPath></defs></svg>