<svg width="18" height="19" viewBox="0 0 18 19" fill="none" xmlns="http://www.w3.org/2000/svg">
<path d="M9 0.5C4.02991 0.5 0 4.52991 0 9.5C0 14.4701 4.02991 18.5 9 18.5C13.9701 18.5 18 14.4701 18 9.5C18 4.52991 13.9701 0.5 9 0.5ZM12.8873 6.56094L8.65647 12.427C8.40134 12.7826 7.87299 12.7826 7.61786 12.427L5.11272 8.95558C5.03638 8.84911 5.11272 8.70045 5.2433 8.70045H6.18549C6.3904 8.70045 6.58527 8.79888 6.7058 8.96763L8.13616 10.9525L11.2942 6.57299C11.4147 6.40625 11.6076 6.3058 11.8145 6.3058H12.7567C12.8873 6.3058 12.9636 6.45446 12.8873 6.56094V6.56094Z" fill="#05A663"/>
</svg>
