<svg width="180" height="180" viewBox="0 0 180 180" fill="none" xmlns="http://www.w3.org/2000/svg">
<path fill-rule="evenodd" clip-rule="evenodd" d="M22.5 45C34.9258 45 45 34.9268 45 22.5C45 10.0732 34.9258 0 22.5 0C10.0742 0 0 10.0732 0 22.5C0 34.9268 10.0742 45 22.5 45ZM18.375 32.8125C18.9219 32.8125 19.1719 32.5664 19.4766 32.2734L19.5 32.25L22.2031 29.6221L27.8242 33.7764C28.0742 33.915 28.3086 34.0029 28.5234 34.0381C29.1914 34.1494 29.668 33.7529 29.8633 32.8154L33.5547 15.4229C33.9336 13.9072 32.9766 13.2207 31.9883 13.6699L10.3125 22.0273C8.83594 22.6201 8.84375 23.4453 10.043 23.8135L15.6055 25.5498L28.4844 17.4258C29.0898 17.0576 29.6484 17.2559 29.1914 17.6621L18.7578 27.0762L18.375 32.8125Z" transform="scale(4)" fill="#333333"/>
</svg>
