<svg width="180" height="180" viewBox="0 0 180 180" fill="none" xmlns="http://www.w3.org/2000/svg">
<path fill-rule="evenodd" clip-rule="evenodd" d="M45 22.5C45 34.9268 34.9258 45 22.5 45C10.0742 45 0 34.9268 0 22.5C0 10.0732 10.0742 0 22.5 0C34.9258 0 45 10.0732 45 22.5ZM35.25 18.4746C37.3203 18.4746 39 20.1494 39 22.207C39 23.5674 38.2617 24.7559 37.168 25.4072C37.1914 25.5518 37.207 25.6973 37.2188 25.8428C37.2305 26.0107 37.2383 26.1797 37.2383 26.3496C37.2383 31.6572 30.7656 35.9746 22.8086 35.9746C14.8516 35.9746 8.37891 31.6572 8.37891 26.3496C8.37891 26.0078 8.41016 25.6689 8.46094 25.335C7.43359 24.6689 6.75 23.5176 6.75 22.207C6.75 20.1494 8.42969 18.4756 10.5 18.4746C11.418 18.4746 12.2578 18.8076 12.9141 19.3564C15.4023 17.7881 18.7227 16.8037 22.3828 16.7324L24.5234 9.99609C24.6367 9.6377 25.0117 9.42773 25.3789 9.51367L30.9219 10.8115C31.418 9.75781 32.4883 9.02441 33.7344 9.02441C35.4492 9.02441 36.8438 10.4121 36.8438 12.1182C36.8438 13.8242 35.4492 15.2119 33.7344 15.2119C32.0547 15.2119 30.6875 13.8789 30.6328 12.2217L25.6992 11.0645L23.8906 16.7549C26.2031 16.8701 28.3672 17.3506 30.2539 18.1104C31.168 18.4795 32.0156 18.9141 32.7812 19.4053C33.1523 19.0811 33.5859 18.8281 34.0625 18.668C34.4375 18.543 34.8359 18.4746 35.25 18.4746Z" transform="scale(4)" fill="#333333"/>
<path fill-rule="evenodd" clip-rule="evenodd" d="M2.77277 4.01278C2.24541 2.66096 1.28524 1.42443 0 0.371067C0.360614 0.137189 0.790126 0 1.25189 0C2.52283 0 3.55667 1.02928 3.55667 2.29463C3.55593 2.97875 3.25176 3.59246 2.77277 4.01278Z" transform="translate(136 79.6484) scale(4)" fill="#333333"/>
<path fill-rule="evenodd" clip-rule="evenodd" d="M1.66381 0C2.5811 0 3.32725 0.74323 3.32725 1.65649C3.32725 2.56974 2.5811 3.31261 1.66381 3.31261C0.746148 3.31261 0 2.56974 0 1.65649C0 0.74323 0.746148 0 1.66381 0Z" transform="translate(128.281 41.8516) scale(4)" fill="#333333"/>
<path fill-rule="evenodd" clip-rule="evenodd" d="M12.9844 16.374C20.1445 16.374 25.9688 12.7012 25.9688 8.1875C25.9688 8.03516 25.9609 7.88477 25.9492 7.73438C25.9062 7.25391 25.793 6.78418 25.625 6.32812C25.1992 5.17676 24.3906 4.11816 23.2812 3.20996C22.9141 2.9082 22.5156 2.62305 22.0859 2.35645C19.7422 0.900391 16.5273 0 12.9844 0C9.49219 0 6.32031 0.875977 3.98047 2.29492C3.55469 2.55566 3.15234 2.83398 2.78516 3.12988C1.63281 4.05176 0.789062 5.13281 0.347656 6.31152L0.25 6.60059C0.199219 6.75586 0.160156 6.91309 0.125 7.07227C0.078125 7.28418 0.0429688 7.49805 0.0234375 7.71484C0.0078125 7.87207 0 8.02832 0 8.1875C0 12.7021 5.82422 16.374 12.9844 16.374ZM10.1406 5.33984C10.332 5.66992 10.4414 6.05273 10.4414 6.45703C10.4414 7.66895 9.45312 8.65137 8.23438 8.65332C7.01562 8.65332 5.99609 7.66895 5.99609 6.45703C5.99609 5.8916 6.21875 5.36816 6.57812 4.9707C6.99219 4.51758 7.58594 4.22852 8.23438 4.22852C9.04688 4.22852 9.75781 4.67969 10.1406 5.33984ZM17.8984 4.22754C16.6797 4.22754 15.6562 5.24414 15.6562 6.45605C15.6562 7.66895 16.6797 8.65234 17.8984 8.65234C18.7148 8.65234 19.4297 8.20898 19.8125 7.55078C20 7.22852 20.1055 6.85449 20.1055 6.45605C20.1016 5.24316 19.1172 4.22754 17.8984 4.22754ZM13.0703 12.9844C15.082 12.9844 16.4609 12.5898 17.2773 11.7783C17.5586 11.498 18.0156 11.498 18.2969 11.7793C18.582 12.0586 18.582 12.5137 18.2969 12.7949C17.1953 13.8896 15.4844 14.4229 13.0352 14.4229M13.0703 12.9844C11.0195 12.9844 9.64062 12.5898 8.82812 11.7783C8.54297 11.4971 8.08594 11.4971 7.80469 11.7783C7.52344 12.0596 7.52344 12.5146 7.80469 12.7939C8.90625 13.8896 10.6172 14.4229 13.0352 14.4229" transform="translate(39.2969 72.6523) scale(4)" fill="#333333"/>
<path fill-rule="evenodd" clip-rule="evenodd" d="M0 2.29463C0 1.02965 1.03383 0 2.30441 0C2.73355 0 3.13448 0.12004 3.47933 0.32473C2.19337 1.36496 1.231 2.58908 0.688244 3.92704C0.263497 3.51073 0 2.93315 0 2.29463Z" transform="translate(32.7812 79.6484) scale(4)" fill="#333333"/>
</svg>
