<svg width="180" height="180" viewBox="0 0 180 180" fill="none" xmlns="http://www.w3.org/2000/svg">
<path fill-rule="evenodd" clip-rule="evenodd" d="M22.5 0C10.0742 0 0 10.0732 0 22.5C0 34.9268 10.0742 45 22.5 45C34.9258 45 45 34.9268 45 22.5C45 10.0732 34.9258 0 22.5 0ZM21.875 19.0664L21.8242 18.2881C21.6836 16.2705 22.9297 14.4277 24.8945 13.7119C25.6172 13.458 26.8477 13.4268 27.6484 13.6484C27.9648 13.7441 28.5625 14.0615 28.9883 14.3477L29.7578 14.8721L30.6094 14.6025C31.082 14.459 31.7109 14.2207 31.9922 14.0615C32.2617 13.9189 32.4961 13.8398 32.4961 13.8867C32.4961 14.1572 31.9141 15.0791 31.4258 15.5869C31.1094 15.9287 30.9883 16.1221 31.0938 16.1777C31.207 16.2393 31.5938 16.1377 32.293 15.8887C33.0938 15.6191 33.1094 15.6191 32.9531 15.9209C32.8594 16.0801 32.3711 16.6357 31.8516 17.1445C31.3867 17.6035 31.1562 17.8477 31.0391 18.0811C30.9336 18.293 30.9219 18.4971 30.9219 18.8447C30.9219 19.9727 30.3867 22.3242 29.8516 23.6113C28.8594 26.0264 26.7383 28.5205 24.6133 29.7754C21.6211 31.5391 17.6406 31.9844 14.2891 30.9512C13.1719 30.6025 11.25 29.7119 11.25 29.5537C11.25 29.5332 11.3594 29.5098 11.5391 29.4883C11.7734 29.46 12.1367 29.4355 12.5391 29.4268C14.0195 29.3945 15.5 28.9814 16.7578 28.251L17.6094 27.7422L16.6328 27.4082C15.2461 26.9316 14.0039 25.8359 13.6875 24.8027C13.5938 24.4688 13.625 24.4531 14.5078 24.4531L15.4219 24.4375L14.6484 24.0723C13.7383 23.6113 12.9023 22.832 12.4922 22.0381C12.1953 21.4658 11.8164 20.0205 11.9258 19.9092C11.957 19.8613 12.2891 19.957 12.668 20.084C13.7539 20.4805 13.8945 20.3857 13.2656 19.7188C12.0859 18.5107 11.7227 16.7148 12.2891 15.0156L12.5547 14.2529L13.5938 15.2852C15.7188 17.3672 18.2227 18.6064 21.0859 18.9717L21.875 19.0664Z" transform="scale(4)" fill="#333333"/>
</svg>
