<svg width="88" height="88" viewBox="0 0 88 88" fill="none" xmlns="http://www.w3.org/2000/svg">
<mask id="path-1-inside-1" fill="white">
<path fill-rule="evenodd" clip-rule="evenodd" d="M3.19558 0H13.8196C14.4715 0 15 0.528502 15 1.18044V11.8044C15 12.4564 14.4715 12.9849 13.8196 12.9849C13.1676 12.9849 12.6391 12.4564 12.6391 11.8044V4.03028L1.6694 15L0 13.3306L10.9697 2.36088H3.19558C2.54364 2.36088 2.01514 1.83238 2.01514 1.18044C2.01514 0.528502 2.54364 0 3.19558 0Z"/>
</mask>
<path d="M12.6391 4.03028H15.3148V-2.42935L10.7471 2.1383L12.6391 4.03028ZM1.6694 15L-0.222586 16.892L1.6694 18.784L3.56138 16.892L1.6694 15ZM0 13.3306L-1.89198 11.4386L-3.78397 13.3306L-1.89198 15.2226L0 13.3306ZM10.9697 2.36088L12.8617 4.25287L17.4294 -0.314785H10.9697V2.36088ZM13.8196 -2.67567H3.19558V2.67567H13.8196V-2.67567ZM17.6757 1.18044C17.6757 -0.94923 15.9492 -2.67567 13.8196 -2.67567V2.67567C12.9938 2.67567 12.3243 2.00623 12.3243 1.18044H17.6757ZM17.6757 11.8044V1.18044H12.3243V11.8044H17.6757ZM13.8196 15.6605C15.9492 15.6605 17.6757 13.9341 17.6757 11.8044H12.3243C12.3243 10.9786 12.9938 10.3092 13.8196 10.3092V15.6605ZM9.96345 11.8044C9.96345 13.9341 11.6899 15.6605 13.8196 15.6605V10.3092C14.6454 10.3092 15.3148 10.9786 15.3148 11.8044H9.96345ZM9.96345 4.03028V11.8044H15.3148V4.03028H9.96345ZM3.56138 16.892L14.5311 5.92226L10.7471 2.1383L-0.222586 13.108L3.56138 16.892ZM-1.89198 15.2226L-0.222586 16.892L3.56138 13.108L1.89198 11.4386L-1.89198 15.2226ZM9.07774 0.468901L-1.89198 11.4386L1.89198 15.2226L12.8617 4.25287L9.07774 0.468901ZM3.19558 5.03655H10.9697V-0.314785H3.19558V5.03655ZM-0.660528 1.18044C-0.660528 3.31011 1.06591 5.03655 3.19558 5.03655V-0.314785C4.02137 -0.314785 4.69081 0.35465 4.69081 1.18044H-0.660528ZM3.19558 -2.67567C1.06591 -2.67567 -0.660528 -0.94923 -0.660528 1.18044H4.69081C4.69081 2.00623 4.02137 2.67567 3.19558 2.67567V-2.67567Z" transform="translate(84.8594 42.4258) scale(4) rotate(135)" fill="#333333" mask="url(#path-1-inside-1)"/>
</svg>
