<svg width="180" height="180" viewBox="0 0 180 180" fill="none" xmlns="http://www.w3.org/2000/svg">
<path fill-rule="evenodd" clip-rule="evenodd" d="M22.5 0C10.0742 0 0 10.0732 0 22.5C0 34.9268 10.0742 45 22.5 45C34.9258 45 45 34.9268 45 22.5C45 10.0732 34.9258 0 22.5 0ZM24.8438 23.4883V35.7295H19.7812V23.4893H17.25V19.2705H19.7812V16.7373C19.7812 13.2959 21.2109 11.25 25.2695 11.25H28.6484V15.4688H26.5352C25.4062 15.4688 25.0312 15.7715 24.9062 16.3477C24.8594 16.5762 24.8516 16.8467 24.8516 17.1582L24.8438 19.2695H28.6719L28.2227 23.4883H24.8438Z" transform="scale(4)" fill="#333333"/>
</svg>
