<svg width="180" height="180" viewBox="0 0 180 180" fill="none" xmlns="http://www.w3.org/2000/svg">
<path fill-rule="evenodd" clip-rule="evenodd" d="M0 22.5C0 10.0732 10.0742 0 22.5 0C34.9258 0 45 10.0732 45 22.5C45 34.9268 34.9258 45 22.5 45C10.0742 45 0 34.9268 0 22.5ZM18.8828 16.4414L11.6797 12.8818C11.6406 12.8633 11.6055 12.8506 11.5703 12.8438L11.5039 12.8369C11.4609 12.8369 11.418 12.8477 11.3828 12.8672C11.3594 12.8809 11.3359 12.8984 11.3203 12.9199C11.2969 12.9463 11.2773 12.9785 11.2656 13.0166C11.2539 13.0537 11.25 13.0957 11.25 13.1436V28.4229C11.25 28.6826 11.4414 28.9912 11.6797 29.1074L18.3359 32.3965L18.4258 32.4346C18.4844 32.4541 18.543 32.4639 18.5938 32.4639C18.6992 32.4639 18.793 32.4258 18.8594 32.3555C18.9102 32.3027 18.9453 32.2314 18.9648 32.1445L18.9688 32.1064L18.9766 32.0039V16.5938C18.9766 16.5654 18.9688 16.5381 18.957 16.5137C18.9492 16.4951 18.9336 16.4775 18.918 16.4639L18.8828 16.4414ZM33.7891 32.3916L27.3203 29.1953L34.4297 17.7773V31.999C34.4297 32.3896 34.1406 32.5664 33.7891 32.3916ZM19.6602 17.585V25.416L26.7031 28.8955L19.6602 17.585ZM26.9141 12.7764L34.2578 16.4043C34.3516 16.4492 34.3828 16.5615 34.3281 16.6484L27.1016 28.252L22.0508 20.1387L26.5781 12.8711C26.625 12.7939 26.7148 12.75 26.8086 12.751L26.8711 12.7607L26.9141 12.7764ZM26.8086 12.751L26.8047 12.75L26.8086 12.751Z" transform="scale(4)" fill="#333333"/>
</svg>
