<svg width="180" height="180" viewBox="0 0 180 180" fill="none" xmlns="http://www.w3.org/2000/svg">
<path fill-rule="evenodd" clip-rule="evenodd" d="M22.5 0C10.0742 0 0 10.0732 0 22.5C0 34.9268 10.0742 45 22.5 45C34.9258 45 45 34.9268 45 22.5C45 10.0732 34.9258 0 22.5 0ZM33.5742 16.002C33.7656 16.2852 33.9102 16.6025 34 16.9434C34.5 18.8652 34.5 22.875 34.5 22.875C34.5 22.875 34.5 24.3408 34.3906 25.9248C34.3164 26.9609 34.1992 28.0469 34 28.8066C33.7227 29.8662 32.9102 30.7012 31.875 30.9854C30.0039 31.5 22.5 31.5 22.5 31.5C22.5 31.5 14.9961 31.5 13.125 30.9854C12.6016 30.8418 12.1367 30.5576 11.7656 30.1738C11.4062 29.7988 11.1367 29.3301 11 28.8066C10.5 26.8848 10.5 22.875 10.5 22.875C10.5 22.875 10.5 21.2695 10.625 19.6035C10.6992 18.6367 10.8164 17.6494 11 16.9434C11.2773 15.8838 12.0898 15.0488 13.125 14.7646C14.9961 14.25 22.5 14.25 22.5 14.25C22.5 14.25 24.8906 14.25 27.3086 14.3428C29.1758 14.4141 31.0586 14.54 31.875 14.7646C32.5781 14.957 33.1758 15.4033 33.5742 16.002Z" transform="scale(4)" fill="#333333"/>
<path fill-rule="evenodd" clip-rule="evenodd" d="M0 7.5V0L6 3.75014L0 7.5Z" transform="translate(81 78) scale(4)" fill="#333333"/>
</svg>
