<svg width="60" height="61" viewBox="0 0 60 61" fill="none" xmlns="http://www.w3.org/2000/svg">
<g clip-path="url(#clip0)">
<path fill-rule="evenodd" clip-rule="evenodd" d="M60 30.5181C60 47.0866 46.5685 60.5181 30 60.5181C13.4315 60.5181 0 47.0866 0 30.5181C0 13.9495 13.4315 0.518066 30 0.518066C46.5685 0.518066 60 13.9495 60 30.5181ZM43.7614 25.5183C43.7614 18.6267 38.1456 13 31.254 13H21.2437C18.4848 13 16.2385 15.2354 16.2385 18.0052V43.031C16.2385 45.7898 18.4739 48.0361 21.2437 48.0361C24.0134 48.0361 26.2488 45.8007 26.2488 43.031V38.0258H29.1486L34.6576 45.9003C36.2387 48.1684 39.3574 48.7136 41.6255 47.1325C43.8937 45.5513 44.4389 42.4327 42.8577 40.1645L39.3021 35.0821C42.0266 32.7851 43.7614 29.3488 43.7614 25.5183ZM42.5183 25.5184C42.5183 28.9336 40.994 31.9966 38.5894 34.0633L37.856 33.015C39.9378 31.179 41.2534 28.4933 41.2534 25.5074C41.2534 19.9898 36.7607 15.4971 31.2431 15.4971H25.57C25.501 15.3791 25.4266 15.263 25.3468 15.1491C25.1111 14.8124 24.8413 14.5135 24.5456 14.254H31.254C37.4587 14.254 42.5183 19.3028 42.5183 25.5184ZM28.279 36.7827L27.394 35.5177H23.7517V43.02C23.7517 44.4158 22.6285 45.539 21.2437 45.539C19.8588 45.539 18.7356 44.4158 18.7356 43.0309V22.3515C18.2777 22.0864 17.8566 21.7452 17.4925 21.3315V43.031C17.4925 45.0919 19.1718 46.7821 21.2437 46.7821C23.3155 46.7821 24.9948 45.1028 25.0057 43.0419V36.7827H28.279ZM40.0212 25.5185C40.0212 28.0847 38.9133 30.3987 37.1488 32.0041L36.4184 30.9602C37.8643 29.5901 38.7672 27.6526 38.7672 25.5076C38.7672 21.3638 35.3977 17.9944 31.254 17.9944H26.2524C26.2506 17.5782 26.1971 17.1604 26.0899 16.7513H31.254C36.0847 16.7513 40.0212 20.6878 40.0212 25.5185ZM26.6633 34.2857C26.4883 33.8756 26.3715 33.4502 26.3112 33.0207H21.2546L21.2473 23.0259C20.8189 23.0256 20.3923 22.9704 19.9787 22.8623V43.0202C19.9787 43.7181 20.5458 44.2851 21.2437 44.2851C21.9415 44.2851 22.5086 43.7181 22.5086 43.042V34.2857H26.6633ZM37.5132 25.5183C37.5132 27.2384 36.8193 28.7964 35.6962 29.9278L35.3664 29.4563C35.2338 29.2662 35.0905 29.0882 34.9377 28.9225C35.7647 28.0281 36.2701 26.8321 36.2701 25.5183C36.2701 22.7486 34.0237 20.5023 31.254 20.5023H25.5945C25.8199 20.1069 25.9888 19.6846 26.0991 19.2483H31.2431C34.6998 19.2483 37.5132 22.0616 37.5132 25.5183ZM26.2922 31.7775C26.3386 31.3527 26.439 30.9347 26.5915 30.5344H23.7517L23.7428 22.3589C23.3424 22.5899 22.9208 22.7596 22.4899 22.87L22.4977 31.7775H26.2922ZM35.0162 25.5183C35.0162 26.5246 34.6216 27.4393 33.9788 28.1159C33.5906 27.8658 33.1722 27.6731 32.7369 27.54C33.3638 27.0805 33.7729 26.3392 33.7729 25.5074C33.7729 24.1225 32.6498 22.9885 31.254 22.9885H26.2488V28.0263H28.7048C28.6012 28.0881 28.4989 28.154 28.3984 28.2241C27.9617 28.5285 27.5889 28.8899 27.2828 29.2913H24.9949V29.2804L24.984 21.7454H31.2432C33.326 21.7454 35.0162 23.4356 35.0162 25.5183ZM27.4919 26.7832V24.2316H31.254C31.9519 24.2316 32.5298 24.7986 32.5298 25.5074C32.5298 26.2162 31.9628 26.7832 31.254 26.7832H27.4919Z" fill="#333333"/>
</g>
<defs>
<clipPath id="clip0">
<rect width="60" height="60" fill="white" transform="translate(0 0.518066)"/>
</clipPath>
</defs>
</svg>
