<svg width="60" height="60" viewBox="0 0 60 60" fill="none" xmlns="http://www.w3.org/2000/svg">
<path fill-rule="evenodd" clip-rule="evenodd" d="M60 30C60 46.5685 46.5685 60 30 60C13.4315 60 0 46.5685 0 30C0 13.4315 13.4315 0 30 0C46.5685 0 60 13.4315 60 30ZM16.2386 25.151V26.8265L20.0229 22.3555C20.717 22.5302 21.4464 22.5563 22.159 22.4247L16.2386 29.4194V31.0952L24.593 21.2249C24.9398 20.9139 25.2345 20.5624 25.475 20.1828L31.9757 12.5026C31.7368 12.4889 31.4963 12.4819 31.2541 12.4819H30.5747L26.2515 17.5896C26.2645 16.881 26.1276 16.1652 25.8319 15.4924L28.3801 12.4819H26.9619L25.2528 14.5012C24.9062 14.0379 24.4934 13.6511 24.0369 13.3448L24.7673 12.4819H23.3489L23.0519 12.8329C22.4434 12.5982 21.7936 12.484 21.1415 12.4971L21.1536 12.4827C18.4362 12.5308 16.2386 14.7476 16.2386 17.4871V18.2896L16.2926 18.2258C16.3843 18.8565 16.598 19.4777 16.9401 20.0537L16.2386 20.8824V22.5581L17.608 20.9402C18.0021 21.3583 18.4567 21.6962 18.9483 21.9497L16.2386 25.151ZM16.2386 33.688V35.3635L35.0939 13.0869C34.717 12.9646 34.3324 12.8599 33.9409 12.7736L16.2386 33.688ZM16.2386 37.9564V39.6321L37.6982 14.2785C37.3836 14.0882 37.0601 13.9113 36.7284 13.7487L16.2386 37.9564ZM16.2386 42.225V42.5129C16.2386 42.9309 16.29 43.3372 16.3867 43.7257L26.2684 32.0508C26.3015 32.7262 26.4715 33.4013 26.7856 34.0327L17.1591 45.4059C17.3709 45.7044 17.6145 45.9787 17.8851 46.2239L27.3901 34.9941L28.3832 36.4137L27.4572 37.5077H28.8755L29.025 37.3311L34.6575 45.3822C36.2387 47.6503 39.3573 48.1955 41.6255 46.6144C43.8936 45.0332 44.4388 41.9145 42.8577 39.6464L38.9812 34.1054L42.9595 29.4051C43.2544 28.6252 43.4733 27.8085 43.6073 26.9641L38.3393 33.1879L37.3462 31.7683L43.7373 24.2176C43.7064 23.7211 43.6464 23.2322 43.559 22.7528L36.7045 30.851L35.7114 29.4315L43.0299 20.785C42.8921 20.4014 42.7361 20.0264 42.5629 19.661L35.0529 28.5338C34.6778 28.0975 34.2398 27.7402 33.7621 27.4659L41.6847 18.1057C41.4792 17.7956 41.2603 17.495 41.0288 17.205L32.7232 27.0177C32.0655 26.8187 31.3697 26.7557 30.6819 26.8365L39.8894 15.9582C39.6287 15.7087 39.3573 15.4702 39.076 15.2437L28.6851 27.52C28.5882 27.5784 28.4925 27.6404 28.3983 27.706C27.5582 28.2917 26.9545 29.0883 26.6076 29.9745L16.2386 42.225ZM19.3114 47.1316L26.249 38.9352V40.6109L20.4549 47.4563C20.056 47.3932 19.6729 47.283 19.3114 47.1316ZM22.807 47.2703C24.5763 46.6915 25.9075 45.1556 26.1923 43.2707L22.807 47.2703Z" fill="#333333"/>
</svg>
