<svg width="180" height="180" viewBox="0 0 180 180" fill="none" xmlns="http://www.w3.org/2000/svg">
<path fill-rule="evenodd" clip-rule="evenodd" d="M0 22.5C0 10.0732 10.0742 0 22.5 0C34.9258 0 45 10.0732 45 22.5C45 34.9268 34.9258 45 22.5 45C10.0742 45 0 34.9268 0 22.5ZM26.0195 11.9854C25.6562 10.8623 24.4531 10.248 23.332 10.6133C22.2109 10.9775 21.5977 12.1836 21.9609 13.3057L22.6602 15.46L18.168 16.9219L17.4688 14.7676C17.2812 14.1914 16.875 13.749 16.3711 13.5039C15.8945 13.2715 15.3281 13.2178 14.7812 13.3955C14.3594 13.5312 14.0117 13.7852 13.7578 14.1084C13.5195 14.4141 13.3672 14.7812 13.3203 15.1689C13.2852 15.4688 13.3125 15.7812 13.4102 16.0879L14.1094 18.2422L11.8906 18.9648C10.8438 19.3438 10.2539 20.4766 10.5664 21.5645C10.8945 22.6982 12.0977 23.3896 13.2109 23.0283L15.4297 22.3066L16.8906 26.8057L14.668 27.5283C13.6211 27.9072 13.0312 29.04 13.3438 30.1279C13.4297 30.4209 13.5703 30.6836 13.7539 30.9072C14.2852 31.5488 15.1641 31.8594 15.9883 31.5918L18.207 30.8691L18.9297 33.0918C19.3086 34.1396 20.4375 34.7295 21.5234 34.416C22.6562 34.0898 23.3477 32.8848 22.9844 31.7705L22.2656 29.5498L26.7578 28.0869L27.4805 30.3086C27.8594 31.3574 28.9883 31.9473 30.0742 31.6338C30.3125 31.5654 30.5312 31.459 30.7227 31.3232C30.9805 31.1396 31.1953 30.9004 31.3516 30.6299C31.5195 30.3418 31.6172 30.0166 31.6328 29.6826C31.6406 29.4531 31.6094 29.2197 31.5352 28.9893L30.8125 26.7676L32.9648 26.0674C34.0859 25.7021 34.6992 24.4961 34.3359 23.374C33.9727 22.251 32.7695 21.6367 31.6484 22.002L29.4961 22.7021L28.0352 18.2041L30.1875 17.5039C31.3086 17.1387 31.9219 15.9326 31.5586 14.8105C31.1953 13.6875 29.9922 13.0732 28.8711 13.4385L26.7188 14.1387L26.0195 11.9854ZM23.9805 19.5234L19.4844 20.9863L20.9453 25.4854L25.4414 24.0225L23.9805 19.5234Z" transform="scale(4)" fill="#333333"/>
</svg>
