<svg width="763" height="1000" viewBox="0 0 763 1000" fill="none" xmlns="http://www.w3.org/2000/svg">
<g clip-path="url(#clip0)">
<path d="M2.23866 18.6441C2.06557 17.98 1.40204 17.9223 0.940456 17.6335C0.190382 17.1716 -0.126949 16.4497 0.0461446 15.6701C1.02701 11.0215 1.2001 6.1708 3.39262 1.81092C4.25809 0.107397 4.89277 -0.267942 6.47946 0.165158C8.1527 0.598258 8.64313 1.26232 8.64313 3.02359C8.67198 4.69825 8.00845 6.19966 7.57572 7.78769C6.7391 10.8194 5.64285 13.7645 4.28695 16.623C3.94076 17.3737 3.30607 18.0088 2.81564 18.6729C2.6137 18.6441 2.4406 18.6441 2.23866 18.6441Z" transform="translate(173.383 989.327)" fill="#F0572A"/>
<path d="M0.378505 7.74741C0.349656 5.72627 0.205411 3.82063 0.81124 1.94386C1.21513 0.73118 1.7921 0.240333 2.97491 0.0670932C5.71557 -0.337134 7.41768 1.10653 7.35998 3.82063C7.33113 5.1488 7.4465 6.50585 7.30226 7.83403C6.98492 10.7502 6.66759 13.6953 6.11946 16.5826C5.74442 18.5749 4.44622 19.4989 2.77298 19.5566C0.984348 19.6144 0.26313 19.1235 0.147734 17.3045C0.00348964 15.5143 -0.0830502 13.6953 0.118893 11.934C0.291986 10.4904 0.176562 9.04671 0.378505 7.74741Z" transform="translate(416.242 205.109)" fill="#F0572A"/>
<path d="M10.1063 1.40983e-05C10.7986 0.202128 11.5199 0.40422 12.2122 0.66408C14.2317 1.41479 14.924 3.08945 13.7989 4.96622C13.02 6.26552 12.2122 7.50708 11.2314 8.69088C9.1254 11.2606 7.01943 13.8303 4.42302 15.967C2.89402 17.2374 2.1728 17.555 0.989994 16.7466C0.00912879 16.0825 -0.337061 14.2346 0.384164 12.8487C1.07654 11.4916 1.85546 10.1634 2.66323 8.86412C4.42302 6.15002 6.26935 3.52256 8.46188 1.15495C8.92346 0.692974 9.38505 0.202128 10.1063 1.40983e-05Z" transform="translate(40.9863 498.559)" fill="#F0572A"/>
<path d="M10.9039 3.84941C10.1538 5.98604 9.25946 8.67126 8.2209 11.3276C7.61507 12.9156 6.74962 14.4171 6.11494 16.0051C5.79761 16.8136 5.30715 17.5354 4.75902 18.1706C3.46082 19.7298 2.01836 19.7298 0.604763 18.315C-0.00106515 17.7086 -0.145303 17.1023 0.143187 16.2649C1.29715 13.0311 1.98954 9.68183 3.37429 6.50576C3.98012 5.11984 4.2686 3.58955 4.70134 2.11701C5.04753 0.904327 5.88415 0.067003 7.12466 0.00925626C8.50941 -0.0773638 9.7499 0.442367 10.6442 1.62617C10.9904 2.11702 11.0193 2.69447 10.9039 3.84941Z" transform="translate(468.086 316.791)" fill="#F0572A"/>
<path d="M17.2417 11.5171C17.2994 13.0474 15.9724 14.3467 14.4722 14.058C13.5491 13.8848 12.6548 13.596 11.8181 13.0474C8.41396 10.7376 4.92324 8.54319 1.57676 6.17557C-0.413821 4.78965 -0.442671 3.66359 1.05748 1.55584C2.24028 -0.118817 3.74043 -0.465301 5.50022 0.631887C6.30799 1.12273 7.00036 1.8157 7.75044 2.42204C8.93324 3.40373 10.0872 4.4143 11.4431 5.16501C13.4048 6.26219 14.5588 8.25444 16.434 9.46712C16.9821 9.81361 17.2417 10.7087 17.2417 11.5171Z" transform="translate(38.5215 353.531)" fill="#F0572A"/>
<path d="M10.0812 3.38778C9.99469 4.16736 9.90816 5.12019 9.56197 6.04413C8.35032 9.3357 7.2829 12.7139 6.41743 16.1209C6.15779 17.1315 5.72505 18.1132 5.00382 18.8928C4.08065 19.8745 2.75361 20.1632 1.65735 19.5569C0.445691 18.8928 -0.27554 17.709 0.0994964 16.4674C1.08036 13.1181 1.59963 9.62443 3.18632 6.41948C3.90755 4.97582 4.45569 3.44553 5.14807 2.00187C6.07123 0.0673511 6.6482 -0.250263 8.09065 0.153964C9.50425 0.615938 10.1101 1.53989 10.0812 3.38778Z" transform="translate(443.58 362.122)" fill="#F0572A"/>
<path d="M1.66179 0.571772C2.90229 -0.178935 4.0851 -0.00569867 5.21021 0.0809214C6.59496 0.167541 7.31618 0.947127 7.22964 2.33305C6.9123 6.89504 6.53727 11.457 6.13338 16.019C6.07568 16.5676 5.81604 17.1162 5.5564 17.6359C4.74863 19.4261 3.7389 19.9169 1.92142 19.3394C0.969403 19.0507 0.392424 18.531 0.190481 17.3472C-0.213405 15.1528 0.132786 12.9873 0.248182 10.8507C0.363578 8.85842 0.738608 6.89503 0.854004 4.8739C0.911702 3.37249 1.40215 1.89995 1.66179 0.571772Z" transform="translate(189.137 278.896)" fill="#F0572A"/>
<path d="M3.032 0.00810792C3.63783 -0.0496388 4.15711 0.210216 4.64754 0.498949C8.36906 2.63558 12.0906 4.77221 15.7832 6.93771C16.3602 7.28419 16.9084 7.65955 17.3988 8.12152C18.322 9.01659 18.4373 10.4314 17.7161 11.5286C17.0237 12.5969 16.216 12.9434 15.0332 12.4236C10.9078 10.6624 6.66697 9.18983 2.83005 6.87996C2.25307 6.53348 1.67609 6.21588 1.12796 5.81165C0.752927 5.52292 0.40674 5.17644 0.175948 4.77221C-0.602974 3.32854 1.35876 0.0658546 3.032 0.00810792Z" transform="translate(29.6523 275.302)" fill="#F0572A"/>
<path d="M8.25081 3.98876C7.67383 8.81061 6.8372 13.5747 4.99086 18.1078C4.41389 19.5226 3.72152 19.8691 2.04828 19.6093C0.836627 19.436 0.317332 18.9452 0.0865399 17.5304C-0.028856 16.7797 -0.028856 16.0578 0.0865399 15.2783C0.663519 11.005 1.64439 6.81836 2.65411 2.63173C3.28878 0.0331277 4.38505 -0.515476 6.80836 0.437344C7.90462 0.870444 8.56814 1.56341 8.3085 2.86271C8.27965 3.20919 8.27966 3.58454 8.25081 3.98876Z" transform="translate(254.957 285.613)" fill="#F0572A"/>
<path d="M1.40864e-05 2.80457C2.88491 -0.948961 4.67352 -0.977833 7.03913 2.97782C8.85662 5.98064 10.2991 9.18558 11.8858 12.3328C12.0877 12.7659 12.2031 13.2279 12.3474 13.6898C13.0109 16.3462 12.7513 16.8082 9.80866 17.8765C5.82751 13.3433 1.67325 8.89685 1.40864e-05 2.80457Z" transform="translate(473.479 283.823)" fill="#F0572A"/>
<path d="M0.163112 4.44687C0.163112 4.24475 0.163112 4.07151 0.163112 3.8694C0.22081 2.85883 -0.471563 1.61729 0.624698 0.924332C2.0383 0.058131 3.65384 -0.259483 5.32708 0.231364C6.1637 0.491224 6.45219 1.21308 6.53874 2.02153C6.65413 2.97435 6.76953 3.92715 6.85608 4.8511C7.20226 8.749 7.37535 12.6469 7.05801 16.5448C6.88492 18.5948 5.06744 19.6631 3.45189 18.6526C2.84607 18.2772 2.58643 17.7286 2.38449 17.0645C1.69211 15.0434 1.77865 12.9068 1.23052 10.8856C0.653544 8.77788 0.105415 6.67011 0.163112 4.44687Z" transform="translate(71.8145 478.78)" fill="#F0572A"/>
<path d="M7.04321e-06 2.60583C0.259648 1.94175 0.49044 1.27763 1.00972 0.844531C2.36562 -0.281529 3.49074 -0.281529 4.87549 0.844531C5.39477 1.27763 5.82748 1.76848 6.28906 2.2882C7.76036 3.93398 9.14512 5.66641 10.703 7.22557C12.4339 8.98684 13.3282 11.1812 14.1937 13.4044C14.6264 14.5016 14.1648 15.2523 13.3571 15.9164C12.5493 16.6094 11.6261 16.7827 10.703 16.2629C10.126 15.9453 9.63555 15.4544 9.14512 14.9925C5.82749 11.903 3.57726 7.97629 0.807757 4.42487C0.43272 3.87628 0.259648 3.1833 7.04321e-06 2.60583Z" transform="translate(475.094 851.527)" fill="#F0572A"/>
<path d="M0.0416672 0.300211C1.54181 0.184717 2.86886 0.126971 4.16707 0.0114773C5.09023 -0.0751428 5.60953 0.329095 5.84032 1.1953C6.09996 2.29248 6.4173 3.38967 6.56155 4.51573C7.05198 8.29814 7.65779 12.0517 7.4847 15.8918C7.45585 16.6714 7.39816 17.4221 6.93658 18.0573C6.09996 19.1834 4.42671 19.3278 3.44584 18.2883C2.86886 17.6531 2.40728 16.9601 2.29188 16.0651C1.80145 12.889 1.02253 9.74181 0.560945 6.53686C0.272455 4.5446 -0.131427 2.61008 0.0416672 0.300211Z" transform="translate(224.627 331.457)" fill="#F0572A"/>
<path d="M12.9211 14.6963C12.95 15.6492 12.373 16.5154 11.3056 16.9196C10.267 17.3239 9.11308 17.0929 8.44955 16.1978C6.02624 12.9062 3.63176 9.58581 1.29499 6.2365C0.862257 5.63016 0.602609 4.87942 0.314119 4.18646C-0.320558 2.65618 0.0256294 1.21248 1.17959 0.404027C2.1893 -0.288934 4.2376 -0.0868204 5.13192 0.981494C6.31473 2.36741 7.67061 3.69559 8.39183 5.3125C9.43039 7.59349 10.9594 9.52806 12.0845 11.7224C12.5172 12.6175 12.8346 13.4837 12.9211 14.6963Z" transform="translate(418.18 811.458)" fill="#F0572A"/>
<path d="M0 12.1562C0.201943 11.6365 0.259641 11.1745 0.519281 10.9435C3.54842 8.31604 5.85634 4.93786 9.14512 2.57024C9.8375 2.0794 10.4433 1.44418 11.078 0.866709C12.4628 -0.317098 13.4148 -0.288211 14.8572 0.953343C16.242 2.13715 16.617 3.40758 15.8092 4.70688C15.2611 5.60195 14.6553 6.46813 13.7898 7.10334C11.078 9.18223 8.3662 11.2611 5.62555 13.3111C5.30821 13.5421 4.99087 13.7442 4.67353 13.9464C2.36562 15.1879 1.70209 15.0147 0.317339 12.7625C0.201943 12.5893 0.144245 12.416 0 12.1562Z" transform="translate(0 580.355)" fill="#F0572A"/>
<path d="M3.16486 -3.52458e-06C3.71299 0.259857 4.31882 0.37535 4.75155 0.72183C6.68443 2.28099 8.81927 3.5803 10.4637 5.51482C11.5022 6.7275 12.8293 7.73806 14.0986 8.71975C15.0506 9.47046 15.5699 10.481 16.1757 11.4339C16.6085 12.1268 16.9258 12.8198 16.32 13.5416C15.6565 14.3212 14.8775 14.8409 13.8101 14.5522C13.4351 14.4655 13.0889 14.3212 12.7716 14.1191C8.76157 11.6937 4.80926 9.2106 1.40508 5.94792C-0.527803 4.10002 -0.498954 2.39649 1.69357 0.837331C2.09745 0.548597 2.61673 0.28873 3.16486 -3.52458e-06Z" transform="translate(450.322 346.107)" fill="#F0572A"/>
<path d="M9.12056 14.1205C8.94747 15.1599 9.06287 16.2282 8.57244 17.2099C7.79351 18.8268 6.29336 19.0867 5.1971 17.6719C4.56243 16.8634 3.98545 15.9106 3.69696 14.9289C2.62955 11.2909 0.725519 7.94157 0.11969 4.13029C-0.0822525 2.80212 -0.139957 1.67606 0.869757 0.723239C1.90832 -0.258454 3.11998 -0.0563339 4.36048 0.261273C5.1971 0.49226 5.68754 1.01197 5.94718 1.76267C7.27423 5.6317 8.60129 9.47186 9.06287 13.5719C9.09172 13.7451 9.12056 13.9184 9.12056 14.1205Z" transform="translate(92.6875 329.85)" fill="#F0572A"/>
<path d="M8.56508 15.1249C8.59393 17.3193 8.04579 18.1277 6.54562 18.5031C5.21855 18.8496 4.20883 18.2432 3.4299 16.6552C1.29504 12.2953 0.458409 7.61784 0.0545182 2.85374C-0.0320298 2.01641 -0.147413 0.919205 0.862314 0.630471C2.01629 0.312864 3.19911 -0.32235 4.46848 0.197371C4.84353 0.341738 4.98777 0.688218 5.13202 1.06357C6.94953 5.71218 7.78615 10.5918 8.56508 15.1249Z" transform="translate(267.971 536.445)" fill="#F0572A"/>
<path d="M9.54726 15.5737C9.72035 17.2195 9.02799 18.2878 7.47015 18.8653C6.28734 19.2984 5.53726 19.1829 5.04683 18.0568C2.912 13.1484 0.430986 8.32651 0.0271 2.84058C-0.117145 1.10818 0.286741 0.588453 1.90228 0.184227C3.77747 -0.277747 4.41217 0.0687331 5.24879 1.91663C6.46045 4.63072 7.21052 7.51806 8.27793 10.2899C8.91261 12.0512 9.43186 13.7547 9.54726 15.5737Z" transform="translate(362.93 247.956)" fill="#F0572A"/>
<path d="M8.12895 14.8374C8.12895 15.4149 8.18665 15.9924 8.12895 16.541C7.84046 18.4755 6.19609 19.4571 4.32091 18.8797C3.59969 18.6487 3.31118 18.1001 3.10923 17.4072C2.44571 14.924 1.55141 12.4698 1.17637 9.92889C0.887881 7.85 0.483982 5.79998 0.0800977 3.72108C-0.439183 1.06472 1.63795 -0.638776 4.23435 0.22743C5.30176 0.573912 5.76332 1.64222 5.87872 2.45068C6.42685 6.3486 8.07127 10.0155 8.21551 13.9712C8.21551 14.2599 8.24434 14.5487 8.27319 14.8374C8.2155 14.8374 8.1578 14.8374 8.12895 14.8374Z" transform="translate(308.48 755.303)" fill="#F0572A"/>
<path d="M6.04037 8.43854C6.12691 11.2104 6.04037 13.9822 5.60763 16.7252C5.26144 18.9773 4.77101 19.3815 2.63619 19.266C1.19374 19.1794 0.501359 18.6886 0.357115 17.2449C0.155172 15.2526 -0.133318 13.2893 0.0686248 11.2393C0.357115 8.29418 0.241722 5.32022 0.559061 2.37514C0.789853 0.180763 0.818709 0.0652841 2.83814 0.00753739C5.2903 -0.0790826 5.92496 0.556117 6.06921 3.24134C6.1269 4.10754 6.04037 4.97374 6.04037 5.83994C6.04037 6.70614 6.04037 7.57234 6.04037 8.43854Z" transform="translate(193.73 393.913)" fill="#F0572A"/>
<path d="M5.22302 -1.40983e-05C6.95396 0.144353 8.28101 0.635221 9.60806 1.21269C10.6178 1.64579 10.964 2.42536 10.7909 3.55142C10.6466 4.61974 10.2716 5.60142 9.75231 6.49649C7.93482 9.64368 6.05964 12.762 4.18445 15.8803C3.98251 16.1979 3.75172 16.5156 3.52093 16.8043C2.88625 17.5839 1.99193 17.6416 1.15531 17.324C0.405239 17.0353 -0.0274958 16.3423 0.00135321 15.505C0.0302022 14.6388 0.116749 13.7726 0.289843 12.9353C1.18416 8.40214 2.74201 4.12887 5.22302 -1.40983e-05Z" transform="translate(85.9121 562.628)" fill="#F0572A"/>
<path d="M0.0601585 4.08782C-0.141784 1.22936 0.0890074 0.796263 1.93534 0.247669C3.81052 -0.329798 4.64714 0.0455557 5.10873 1.98007C6.17614 6.42657 7.3878 10.8731 8.48406 15.3196C9.06104 17.6294 7.50319 19.6217 5.42607 19.4196C4.01247 19.2752 3.52204 18.2069 3.147 17.1386C1.58916 12.6632 0.00246053 8.21671 0.0601585 4.08782Z" transform="translate(125.402 268.565)" fill="#F0572A"/>
<path d="M16.2513 2.81966e-05C17.261 0.462002 17.4341 1.03944 17.6649 1.55916C18.415 3.11832 18.3573 3.23383 16.9437 4.38876C15.7609 5.37046 14.4338 6.12112 13.0779 6.87183C11.5489 7.68028 10.0199 8.45986 9.06793 10.0479C8.77944 10.5387 8.31786 10.943 7.68318 11.0007C6.06764 11.2028 4.45209 11.4627 2.83655 11.5205C1.53835 11.5493 0.211294 10.481 0.0381998 9.4127C-0.134894 8.17114 0.268992 7.21835 1.48065 6.55426C6.24073 3.86904 11.0874 1.4437 16.2513 2.81966e-05Z" transform="translate(33.7441 835.885)" fill="#F0572A"/>
<path d="M12.6115 7.04922e-06C13.477 0.6641 14.2271 1.18381 14.9483 1.79016C16.333 2.9451 16.4484 3.81132 15.2368 5.19726C14.429 6.12121 13.4193 6.87192 12.4673 7.68038C9.98628 9.78816 7.93799 12.3579 5.31274 14.2924C3.55295 15.5918 2.25475 15.5629 0.7546 14.1192C-0.11087 13.2819 -0.226267 12.5889 0.379562 11.5783C0.523807 11.3185 0.696902 11.0875 0.898845 10.8853C3.6972 8.17123 6.32245 5.22613 9.38044 2.77187C10.4767 1.87679 11.5153 0.923963 12.6115 7.04922e-06Z" transform="translate(67.9355 455.999)" fill="#F0572A"/>
<path d="M8.50585 15.7739C8.477 17.5929 7.95773 18.3147 6.54415 18.6034C5.01517 18.921 4.23626 18.4302 3.4862 16.7555C2.10146 13.6661 1.4091 10.4035 0.745577 7.11191C0.45709 5.69712 0.197445 4.31118 0.053202 2.89639C-0.148738 1.22175 0.197449 0.70204 1.55334 0.268942C3.3131 -0.308522 4.58244 0.0379708 5.30366 1.36614C5.62099 1.9436 5.67868 2.63655 5.90947 3.27176C7.14997 6.9964 7.75579 10.8654 8.41931 14.7344C8.50586 15.1098 8.477 15.4851 8.50585 15.7739Z" transform="translate(282.166 485.815)" fill="#F0572A"/>
<path d="M2.31937 16.7646C0.876925 16.7358 -0.363584 15.1477 0.0979995 13.7329C0.415338 12.7512 0.790375 11.7407 1.54045 10.9611C2.9252 9.51742 3.96377 7.84277 4.91578 6.05262C5.95434 4.14698 7.42565 2.47232 8.78155 0.739916C9.56047 -0.270651 11.0029 -0.212897 12.4454 0.71105C13.8301 1.57725 14.234 2.5012 13.5128 3.8005C12.5319 5.5329 11.7241 7.38079 10.2817 8.8822C8.63729 10.6146 7.25255 12.6069 5.78125 14.4836C4.71384 15.8118 3.30024 16.7646 2.31937 16.7646Z" transform="translate(239.135 362.835)" fill="#F0572A"/>
<path d="M0.158902 13.0119C0.447392 9.60488 0.822428 6.2267 1.60135 2.90627C2.17833 0.394285 3.62077 -0.414211 6.01524 0.192129C7.0538 0.451989 7.68848 1.05837 7.74618 2.18443C7.77503 2.64641 7.77503 3.13725 7.74618 3.6281C7.39999 7.03516 6.85186 10.4133 6.07294 13.7626C5.8133 14.9175 5.17862 15.8704 4.57279 16.8232C4.02466 17.6894 3.13034 18.007 2.12063 18.0936C1.05322 18.2091 0.447399 17.6605 0.274305 16.7366C0.0146641 15.495 -0.129588 14.2535 0.158902 13.0119Z" transform="translate(256.879 808.437)" fill="#F0572A"/>
<path d="M7.98786 15.591C7.78591 16.6881 7.87246 17.6988 6.8339 18.4495C5.21836 19.6333 3.25663 19.1424 2.7662 17.2945C1.64109 12.9635 0.775642 8.57477 0.0832665 4.15715C0.0255685 3.7818 0.0543964 3.40644 0.0255474 3.00222C-0.0898485 0.807844 0.112094 0.547983 2.18922 0.114883C3.83361 -0.202724 4.38174 0.0859535 5.07412 1.64511C5.62225 2.85779 5.88188 4.18598 6.11267 5.48528C6.74735 8.86346 7.35318 12.2128 7.98786 15.591Z" transform="translate(458.973 873.017)" fill="#F0572A"/>
<path d="M10.9808 15.2457C11.0385 16.0542 10.8942 16.8626 10.0576 17.1514C9.30754 17.4401 8.55748 17.2669 7.9805 16.6316C4.72057 13.0802 1.8645 9.26894 0.393207 4.59145C-0.356867 2.22384 -0.15491 1.84849 2.06646 0.780171C2.4992 0.578058 2.93193 0.347071 3.36466 0.202704C4.83596 -0.259269 5.64373 0.0294626 6.39381 1.47313C7.17273 3.00342 7.92279 4.56258 8.47092 6.15061C9.33639 8.57597 10.0288 11.0302 10.75 13.5133C10.8942 14.0908 10.8942 14.6683 10.9808 15.2457Z" transform="translate(352.855 199.603)" fill="#F0572A"/>
<path d="M5.75674 10.5881C5.75674 13.1579 6.13177 15.7276 5.17976 18.2396C4.57393 19.8565 3.4488 20.4628 1.51592 19.741C0.823541 19.4811 0.506223 18.9903 0.419677 18.2396C-0.128454 13.0424 -0.0996049 7.81629 0.275432 2.59022C0.419677 0.309224 2.20829 -0.614723 4.11232 0.424717C4.77585 0.771197 5.00665 1.29091 5.0932 2.04162C5.38169 4.87121 6.13177 7.67193 5.75674 10.5881Z" transform="translate(500.354 393.093)" fill="#F0572A"/>
<path d="M0.447728 18.5378C-0.331194 13.1962 -0.0715601 5.51586 1.05355 0.607391C1.19779 0.491898 1.34203 0.318665 1.51513 0.289791C4.71736 -0.432042 5.66939 0.0588046 5.78479 3.32149C5.95788 7.88348 6.13096 12.4743 5.26549 17.0075C4.74621 19.8082 3.62111 20.1258 0.447728 18.5378Z" transform="translate(333.469 284.576)" fill="#F0572A"/>
<path d="M-3.5216e-06 1.75619C0.288486 1.43858 0.346184 1.35197 0.432731 1.29422C4.58698 -1.27551 5.36591 0.254776 6.46217 3.48859C7.70268 7.18438 9.23167 10.8224 9.11627 14.8069C9.08742 15.3844 9.17397 15.9908 9.02973 16.5105C8.56815 18.3006 6.80836 18.7626 5.51015 17.4633C4.64468 16.5682 3.86576 15.4999 3.54843 14.345C2.62526 10.8513 0.865466 7.61748 0.288486 4.00831C0.17309 3.28648 0.0865434 2.53577 -3.5216e-06 1.75619Z" transform="translate(117.502 202.9)" fill="#F0572A"/>
<path d="M5.00517 0.330559C6.07258 -0.102544 6.8515 -0.0158952 7.60157 0.0707254C9.67869 0.301714 10.2268 1.25451 9.67869 3.36228C8.69782 7.14471 6.99574 10.6673 5.78408 14.392C5.49559 15.2871 4.94747 16.1244 4.39934 16.904C3.62042 18.0301 2.43762 18.4054 1.39906 17.9723C0.389345 17.5392 -0.216484 16.442 0.0720053 15.1716C1.19711 10.0321 2.66841 5.03695 5.00517 0.330559Z" transform="translate(99.1973 814.275)" fill="#F0572A"/>
<path d="M3.3687 0.0132512C4.37841 -0.0733688 4.92654 0.273133 5.38813 0.792853C6.05165 1.48581 6.77287 2.14991 7.29215 2.92949C9.13848 5.78795 10.9848 8.6464 12.3984 11.7936C12.5426 12.1401 12.6869 12.4865 12.8023 12.8619C13.1196 13.9013 12.7157 14.7964 11.9657 15.4316C11.3021 15.9802 10.4656 15.6049 9.83087 15.2295C8.33073 14.3922 6.9748 13.2373 5.90739 11.938C4.46494 10.1478 2.82055 8.55979 1.29155 6.82739C-0.900971 4.37316 -0.237424 1.39917 2.79172 0.157618C3.05136 0.0421246 3.33985 0.0132512 3.3687 0.0132512Z" transform="translate(513.414 522.337)" fill="#F0572A"/>
<path d="M10.2398 14.4541C10.2398 16.3598 9.57627 16.8795 8.10497 16.3309C6.14324 15.6091 4.78734 14.1077 3.66223 12.4619C1.90244 9.92103 0.748472 7.09144 0.084946 4.08862C-0.463184 1.63438 1.72934 -0.50226 4.1238 0.10408C4.72963 0.248447 5.10467 0.65266 5.42201 1.17238C6.08553 2.32731 6.89331 3.36678 7.32605 4.66608C8.22037 7.38018 9.57627 9.92099 9.98016 12.7795C10.0667 13.4435 10.1821 14.0788 10.2398 14.4541Z" transform="translate(154.42 943.393)" fill="#F0572A"/>
<path d="M3.70197 0.00675101C4.33665 -0.0509957 4.82708 0.266604 5.17326 0.757451C5.89449 1.76802 6.78883 2.72087 7.25041 3.81805C8.51976 6.9075 10.3661 9.73708 11.2893 12.9709C11.5201 13.8082 11.9528 14.6455 11.0296 15.3096C10.3372 15.8293 9.64486 15.7139 8.89479 15.3096C5.14442 13.3462 2.17298 10.6899 0.788233 6.53212C0.615139 5.98353 0.384355 5.46381 0.182412 4.91522C-0.596511 2.54761 1.22096 0.00675101 3.70197 0.00675101Z" transform="translate(389.777 496.906)" fill="#F0572A"/>
<path d="M5.78875 11.335C5.78875 13.154 5.84642 14.973 5.75988 16.792C5.70218 18.4089 4.75018 19.2751 3.25003 19.3328C1.89413 19.3906 1.23061 18.7554 0.797871 17.0807C-0.00989941 13.9047 0.047795 10.642 0.018946 7.37936C-0.00990291 5.84908 -0.00989235 4.3188 0.0478055 2.78852C0.105503 0.651911 1.02865 -0.127656 3.16347 0.0167098C4.51937 0.132202 5.09638 0.565299 5.35602 2.18219C5.61566 3.85684 5.75988 5.58924 5.87528 7.29276C5.96182 8.62092 5.90412 9.97796 5.90412 11.335C5.84642 11.335 5.8176 11.335 5.78875 11.335Z" transform="translate(295.473 632.023)" fill="#F0572A"/>
<path d="M6.63526 6.23528C6.40447 9.58459 6.05828 12.905 5.42361 16.1966C5.01972 18.2755 4.26965 18.9684 2.74065 18.8818C1.21166 18.7952 -8.80401e-07 17.5248 -8.80401e-07 15.7924C-8.80401e-07 13.6846 0.0576984 11.6057 0.346188 9.49798C0.634678 7.44797 0.836621 5.34022 1.06741 3.29021C1.15396 2.62612 1.21166 1.962 1.38475 1.29791C1.64439 0.373961 2.16367 -0.232365 3.28878 0.0852419C3.75037 0.200735 4.2408 0.143031 4.70238 0.200778C6.20253 0.431764 6.63526 0.922583 6.69296 2.48174C6.69296 2.68386 6.63526 2.8571 6.63526 3.05921C6.63526 4.12752 6.63526 5.19584 6.63526 6.23528Z" transform="translate(26.8867 862.104)" fill="#F0572A"/>
<path d="M6.75269 4.37626C6.5219 6.74387 6.31993 9.14035 5.97375 11.4791C5.85835 12.3453 5.68528 13.1826 5.74298 14.0488C5.85837 15.6946 4.99288 16.9939 4.24281 18.3221C3.69468 19.3038 2.36763 19.6503 1.18482 19.246C0.0308652 18.8707 0.0597142 17.9467 0.0308652 16.9362C-0.171078 12.6052 0.66555 8.38964 1.15598 4.14526C1.27138 3.30793 1.41563 2.41287 1.70412 1.63329C2.1657 0.391737 3.14657 -0.0991205 4.44477 0.0163729C5.56988 0.131866 6.43532 0.998067 6.57957 2.32624C6.66611 2.99033 6.57957 3.65441 6.57957 4.34738C6.69496 4.37625 6.72384 4.37626 6.75269 4.37626Z" transform="translate(413.934 384.203)" fill="#F0572A"/>
<path d="M6.41347 3.52458e-06C10.0773 1.38592 10.7985 2.54086 9.47147 5.83242C8.14442 9.09511 7.04816 12.5022 5.28837 15.5916C4.79794 16.4289 4.16326 17.1508 3.55743 17.8726C2.86505 18.7099 1.99958 18.5944 1.19181 18.248C0.470587 17.9304 -0.0775364 17.3529 0.00901046 16.4578C0.0667084 15.8803 0.124406 15.3029 0.2975 14.7543C1.45146 10.7986 2.57656 6.84298 4.07671 3.00282C4.56714 1.81901 5.08642 0.721837 6.41347 3.52458e-06Z" transform="translate(224.686 418.406)" fill="#F0572A"/>
<path d="M0.693422 0.444762C2.19358 -0.277078 3.46295 0.0116368 4.84771 0.386993C5.39584 1.54194 5.62663 2.7835 5.65548 3.99619C5.77087 7.51877 5.77088 11.0702 5.77088 14.5928C5.77088 15.4302 5.54009 16.2963 5.33814 17.1337C5.04965 18.2886 4.21302 18.8661 3.05906 18.9239C1.84739 19.0105 1.03962 18.433 0.578036 17.3647C0.347243 16.845 0.145292 16.2675 0.174141 15.7189C0.174141 10.666 -0.460543 5.61313 0.693422 0.444762Z" transform="translate(245.465 708.051)" fill="#F0572A"/>
<path d="M7.04321e-06 14.9715C0.548137 10.8426 0.807771 6.33831 2.19252 2.03618C2.8272 0.0727953 4.70239 -0.562404 6.43332 0.534783C7.1834 0.996756 7.38534 1.68973 7.29879 2.49818C6.89491 7.34891 6.57756 12.2285 4.81777 16.8193C4.1254 18.5806 3.54842 18.9559 1.84633 18.6961C0.375033 18.4651 7.04321e-06 18.0031 7.04321e-06 16.3862C0.028856 16.0397 7.04321e-06 15.6644 7.04321e-06 14.9715Z" transform="translate(177.092 787.335)" fill="#F0572A"/>
<path d="M8.14131 2.53336C7.99707 3.68829 7.91051 4.84327 7.67972 5.96933C6.8431 9.69399 6.41037 13.5341 4.96793 17.1144C4.16015 19.1067 2.86195 19.5686 1.13102 18.5581C0.352094 18.0961 -0.138353 17.4609 0.0347411 16.4504C0.35208 14.5736 0.55403 12.6679 0.871368 10.7623C1.2464 8.51014 1.708 6.22915 2.14073 3.97703C2.25613 3.42843 2.37151 2.85098 2.60231 2.33126C3.64087 -0.0363549 5.05446 -0.556033 7.39123 0.570027C8.2567 0.974254 8.17016 1.78265 8.14131 2.53336Z" transform="translate(151.873 914.429)" fill="#F0572A"/>
<path d="M6.98598 9.33396C7.59181 11.3262 6.84174 13.2896 6.72634 15.2241C6.66864 15.8882 6.5244 16.5234 6.29361 17.1586C5.97627 18.0537 5.25504 18.1981 4.47612 18.2847C3.6972 18.3713 3.17792 17.9382 2.91828 17.2741C2.45669 16.1192 1.90857 14.9642 1.70662 13.7804C1.07195 10.4022 0.552665 6.99521 0.0622323 3.58815C-0.0820125 2.54871 -0.0531671 1.36489 1.01424 0.758553C2.2836 0.0655923 3.6972 -0.309761 5.13965 0.325453C5.45699 0.469819 5.74548 0.816306 5.86087 1.16279C6.17821 1.97124 6.55325 2.77969 6.61095 3.61702C6.75519 5.55154 6.66865 7.45719 6.98598 9.33396Z" transform="translate(55.3594 548.126)" fill="#F0572A"/>
<path d="M4.59339 18.7426C4.01641 18.887 3.55483 19.0314 3.09325 19.0891C1.27577 19.2624 0.669946 18.7427 0.439156 16.9814C-0.195517 12.1017 -0.13782 7.25099 0.5834 2.40024C0.843039 0.552333 1.27576 0.0614692 2.7759 0.0037222C4.42028 -0.0540249 5.08381 0.552305 5.34345 2.37134C6.00697 6.93335 5.92042 11.5243 5.51653 16.1152C5.40114 16.9525 5.14151 17.7609 4.59339 18.7426Z" transform="translate(269.143 604.722)" fill="#F0572A"/>
<path d="M11.0089 2.67158C10.3742 5.1258 9.59531 7.69552 8.4702 10.092C7.57589 11.9687 6.42193 13.7589 5.29682 15.5201C4.89293 16.1553 4.34478 16.7328 3.79665 17.2236C2.90233 18.0032 1.63298 18.1764 0.911755 17.6856C0.0751346 17.1081 -0.213348 16.0687 0.161689 14.8561C0.450178 13.961 0.796359 13.037 1.20024 12.1997C2.2965 9.86098 3.27738 7.46455 4.0563 5.01033C4.60443 3.33569 5.78725 2.03637 6.73927 0.650466C7.34509 -0.215727 8.35478 -0.157974 9.88378 0.477234C10.8646 0.852585 11.0954 1.57441 11.0089 2.67158Z" transform="translate(445.967 510.584)" fill="#F0572A"/>
<path d="M-1.40863e-05 2.11662C0.490416 1.10606 1.18279 0.903937 1.73092 0.586332C3.69264 -0.453102 4.50041 -0.16437 5.59667 1.88562C7.55839 5.52364 9.26048 9.24831 10.1548 13.3194C10.299 13.9835 10.4144 14.6476 10.4144 15.3116C10.4144 16.7553 10.0105 17.3039 8.77004 17.6215C7.50069 17.968 6.75063 17.737 6.11596 16.5532C3.57726 11.9335 1.26933 7.22717 -1.40863e-05 2.11662Z" transform="translate(319.117 930.812)" fill="#F0572A"/>
<path d="M-3.5216e-06 17.3804C0.952013 12.241 2.79835 7.44799 4.93317 2.77051C5.25051 2.07755 5.68325 1.44233 6.17368 0.86486C6.57757 0.345139 7.09685 -0.174577 7.87577 0.0564095C8.68354 0.31627 9.17398 0.86486 9.20283 1.73106C9.23167 3.26135 9.43361 4.84939 9.14512 6.32193C8.39505 9.95997 7.52959 13.5691 5.5967 16.8318C5.39476 17.1494 5.22167 17.4959 4.99087 17.8135C3.89461 19.2861 2.88489 19.4882 1.2982 18.4776C0.807768 18.1889 0.403882 17.7558 -3.5216e-06 17.3804Z" transform="translate(84.7598 289.025)" fill="#F0572A"/>
<path d="M1.96429 18.1918C-0.545573 16.2285 -0.228256 15.9686 0.608364 13.7742C2.02196 10.0496 3.46442 6.29602 5.62809 2.91784C6.03198 2.28263 6.37816 1.58967 6.81089 0.954455C7.35902 0.174875 8.13796 -0.142725 9.06113 0.0593884C9.95544 0.261502 10.9075 1.41642 10.9363 2.34037C10.9652 2.71573 10.9363 3.11996 10.8209 3.46644C9.23421 7.65308 7.79177 11.9263 5.455 15.7954C4.67608 17.0947 3.69522 17.9897 1.96429 18.1918Z" transform="translate(295.688 337.559)" fill="#F0572A"/>
<path d="M9.02812 3.51173C9.11466 4.98427 8.39343 6.60118 8.07609 8.27583C7.55681 11.192 6.86445 14.0505 5.39315 16.7068C4.78733 17.804 4.0084 18.497 2.79675 18.728C1.00811 19.0456 -0.290093 17.6597 0.0560948 15.8695C0.719621 12.3181 1.64277 8.82442 3.31601 5.61948C3.89299 4.49342 4.06611 3.28073 4.64309 2.18354C5.47971 0.595509 6.25862 -0.126324 7.29718 0.0180423C8.45114 0.220156 9.05697 1.34623 9.02812 3.51173Z" transform="translate(345.084 335.983)" fill="#F0572A"/>
<path d="M0.117803 6.76607C0.406292 5.09143 -0.228389 3.35905 0.463985 1.65554C0.83902 0.760467 1.18521 0.09638 2.16607 0.00976044C3.23348 -0.0768591 3.98355 0.413985 4.32974 1.45342C4.35858 1.54004 4.44513 1.62665 4.47398 1.71327C5.28175 3.5034 6.6665 14.7351 6.32032 16.6985C6.03183 18.2576 5.07981 19.1816 3.69507 19.2393C2.42571 19.2682 1.76219 18.864 1.50255 17.5358C0.781325 13.9844 -0.372628 10.4618 0.117803 6.76607Z" transform="translate(117.502 427.491)" fill="#F0572A"/>
<path d="M4.32431 18.912C3.22805 18.7388 1.901 18.8832 1.00668 17.8149C-0.0318832 16.5156 -0.29152 15.1296 0.343157 13.5127C1.8433 9.78806 3.1992 6.03452 4.69934 2.33873C5.07438 1.38591 5.65136 0.4331 6.77647 0C8.10353 0.288733 8.56511 1.1838 8.56511 2.4831C8.56511 4.30212 8.59396 6.12115 8.16122 7.94017C7.55539 10.5388 7.06496 13.1662 6.34374 15.736C6.05525 16.862 5.53597 18.0458 4.32431 18.912Z" transform="translate(161.836 328.984)" fill="#F0572A"/>
<path d="M1.96083 18.4789C1.32616 17.324 1.03766 16.2268 0.893419 15.0719C0.316439 10.7986 -0.116295 6.52538 0.0279497 2.22325C0.0856477 0.664094 0.345299 0.346466 1.78775 0.144353C2.36473 0.0577326 2.94171 -1.40983e-05 3.51869 -1.40983e-05C3.89372 -1.40983e-05 4.26876 0.115507 4.67265 0.173254C5.39387 1.58805 5.71121 3.14718 5.74006 4.61972C5.82661 8.34438 6.31703 12.0402 5.99969 15.7649C5.74005 18.3346 5.27847 18.6522 1.96083 18.4789Z" transform="translate(171.643 595.543)" fill="#F0572A"/>
<path d="M7.91404 15.2774C7.91404 17.7317 7.45247 18.569 6.21197 18.8C4.91377 19.031 3.73097 18.2225 3.06744 16.4612C2.54817 15.1331 2.14429 13.7471 1.79811 12.3612C1.01919 9.04074 0.153722 5.72027 0.00947825 2.28432C-0.0482193 0.927257 0.124874 0.638514 1.45192 0.292031C3.73097 -0.285441 3.87522 -0.141059 4.97148 1.96671C6.41392 4.76745 6.50046 7.88578 7.13514 10.8598C7.45247 12.3901 8.17368 13.9492 7.91404 15.2774Z" transform="translate(271.652 648.898)" fill="#F0572A"/>
<path d="M0.324093 17.7618C-0.108641 12.5646 0.00675445 7.59835 0.0356034 2.63214C0.0356034 0.49551 0.612579 0.0624167 2.8628 0.00467C4.79568 -0.0530767 5.5169 0.408883 5.68999 2.37227C6.06503 7.16525 5.89194 11.9294 4.73798 16.6068C4.44949 17.7907 3.67057 18.3392 2.43006 18.2237C1.73769 18.1371 1.10302 17.9061 0.324093 17.7618Z" transform="translate(185.426 727.375)" fill="#F0572A"/>
<path d="M8.38307 0.529258C9.07544 4.25392 6.04629 15.2547 3.50758 18.6906C2.9306 18.9216 2.38248 18.7483 1.83435 18.5462C0.0745591 17.911 -0.156226 17.4202 0.0745661 15.5145C0.680394 10.837 2.38248 6.47718 3.82493 2.05956C3.91148 1.7997 4.05571 1.53982 4.17111 1.27996C4.92118 -0.048216 5.32507 -0.221442 6.91176 0.211658C7.37334 0.298278 7.83494 0.413765 8.38307 0.529258Z" transform="translate(262.125 506.315)" fill="#F0572A"/>
<path d="M0.00770837 14.1457C-0.0788385 12.5865 0.584688 11.1429 0.930876 9.67032C1.50786 7.24496 2.54642 4.99283 3.15225 2.56746C3.72923 0.11323 5.31592 -0.493103 8.11427 0.373097C9.47017 0.777324 10.3645 2.76959 9.87406 4.47312C9.61442 5.39706 9.23938 6.26326 8.74895 7.10058C7.85463 8.57312 7.04686 10.1034 6.35448 11.6626C5.54671 13.4816 4.01772 14.6654 2.92145 16.2534C2.43102 16.9464 1.56555 16.9464 0.815479 16.6865C0.0654061 16.4267 0.00770837 15.7048 0.00770837 15.0119C0.00770837 14.7232 0.00770837 14.4344 0.00770837 14.1457Z" transform="translate(4.31836 294.83)" fill="#F0572A"/>
<path d="M10.233 15.3109C10.1176 16.3504 10.0888 17.332 8.90597 17.6785C7.55007 18.0827 6.65575 17.794 5.99222 16.5524C3.79969 12.4524 1.60715 8.38139 0.193541 3.90607C-0.556536 1.48073 0.943624 -0.280569 3.48235 0.0370346C4.40552 0.152527 4.78056 0.84548 5.12675 1.48069C6.85769 4.77222 8.55978 8.09265 9.42525 11.7595C9.71374 12.9722 9.97338 14.1849 10.233 15.3109Z" transform="translate(173.264 868.216)" fill="#F0572A"/>
<path d="M10.5462 0.846944C10.8924 1.6554 10.9212 2.34836 10.6904 2.98357C8.87292 7.68993 7.31508 12.5118 4.34364 16.6695C3.27622 18.1709 2.78579 18.4308 1.60298 17.94C0.218234 17.3914 -0.185666 16.4097 0.0739749 14.7062C0.362465 12.7716 1.19908 11.097 2.0934 9.39346C3.30506 7.11246 4.37247 4.77371 5.55528 2.49272C7.05543 -0.423489 7.34393 -0.510103 10.5462 0.846944Z" transform="translate(302.254 265.512)" fill="#F0572A"/>
<path d="M0.0442719 15.1984C0.678949 10.9251 1.14053 6.33427 2.52528 1.94552C3.04456 0.328611 3.59269 -0.0756016 4.8909 0.0110184C6.3045 0.0976385 6.85263 0.790578 7.19881 2.40749C7.45845 3.59129 7.02572 4.68849 6.96802 5.81455C6.79493 8.96175 6.2468 12.0801 5.46788 15.1407C5.20823 16.1801 4.8909 17.1618 4.14083 17.9702C3.30421 18.8364 2.32334 19.0963 1.25593 18.6921C0.18852 18.3167 -0.0711169 17.3928 0.01543 16.3533C0.0731279 16.0646 0.0442719 15.7759 0.0442719 15.1984Z" transform="translate(256.99 564.695)" fill="#F0572A"/>
<path d="M-1.40863e-05 2.53828C3.98112 -1.59058 4.84658 -0.175806 7.06794 3.17348C8.91427 5.9453 11.0203 8.54386 12.4338 11.6333C13.0397 12.9614 13.357 14.0587 12.9243 15.358C10.3279 16.4263 10.3279 16.715 8.30845 14.3762C5.13509 10.7671 2.36559 6.86925 -1.40863e-05 2.53828Z" transform="translate(300.221 724.87)" fill="#F0572A"/>
<path d="M1.7608e-06 14.2946C1.38475 11.6383 2.59641 9.1841 3.92346 6.78763C4.96202 4.88201 6.11598 3.00525 7.29879 1.18625C7.81807 0.3778 8.5393 -0.344027 9.69326 0.175688C10.8761 0.724277 12.2897 1.07076 12.6936 2.60104C12.7801 2.91864 12.6359 3.35172 12.4628 3.66933C10.3279 7.59607 7.78922 11.2918 5.27936 15.0165C5.07742 15.3341 4.76008 15.5939 4.47159 15.8538C2.9426 17.182 1.99058 17.0665 0.692376 15.3918C0.432735 15.0742 0.259643 14.7277 1.7608e-06 14.2946Z" transform="translate(62.4883 623.924)" fill="#F0572A"/>
<path d="M13.3536 13.4598C13.3248 14.9901 12.0266 15.8852 10.6995 15.5098C9.77635 15.25 8.9686 14.6725 8.30507 13.9795C5.50672 11.0922 2.85262 8.08939 0.660097 4.71121C-0.349617 3.15205 -0.234221 2.45907 1.23708 1.30414C1.66981 0.957657 2.21793 0.726677 2.70837 0.40907C3.80463 -0.341637 4.69895 0.00485752 5.44902 0.928805C6.74722 2.45909 7.87234 4.10487 8.88205 5.83727C9.45903 6.81897 10.0648 7.77177 10.8726 8.63797C12.1708 10.0528 12.4882 11.9873 13.3536 13.4598Z" transform="translate(470.223 455.937)" fill="#F0572A"/>
<path d="M5.3974 0.574324C6.60907 5.8581 6.34942 10.9109 5.83014 15.9925C5.80129 16.2813 5.7436 16.57 5.65705 16.8299C5.25316 18.1003 4.53194 18.5911 3.32027 18.5045C2.1663 18.4179 1.61817 17.7249 1.44507 16.6566C1.15658 14.6644 0.839229 12.6721 0.608435 10.6799C0.377641 8.48555 0.204546 6.2912 0.0314506 4.09684C-0.0262479 3.51938 0.00259429 2.94192 0.0602927 2.36446C0.319936 0.545454 1.18542 -0.14751 3.00292 0.0257281C3.8107 0.112347 4.53192 0.372212 5.3974 0.574324Z" transform="translate(251.953 402.24)" fill="#F0572A"/>
<path d="M15.6122 2.81966e-05C16.5354 0.288762 16.8239 0.923961 17.1701 1.50143C17.8048 2.45425 17.6605 3.37821 16.7662 4.0423C12.4965 7.21836 8.28459 10.5099 3.00523 11.8958C1.47624 12.3001 0.466528 11.7803 0.0914917 10.3655C-0.168149 9.35496 0.120335 8.54648 1.01465 7.88239C5.51509 4.59083 10.2752 1.81905 15.6122 2.81966e-05Z" transform="translate(112.764 900.85)" fill="#F0572A"/>
<path d="M9.05579 3.55639C8.9404 5.60642 8.73844 7.68535 7.81527 9.64876C7.18059 11.0347 6.8344 12.5361 6.37282 13.9798C5.91123 15.4524 5.3054 16.8671 4.20913 17.9932C3.28596 18.946 2.21857 19.0615 1.09346 18.3975C0.0837381 17.82 -0.233623 17.0115 0.170264 15.6833C1.64157 11.0347 2.79555 6.29939 5.13233 1.93947C5.65161 0.986639 5.94007 -0.0816723 7.26713 0.00494864C8.33455 0.0915696 8.96925 1.10215 9.05579 2.60358C9.05579 2.92119 9.05579 3.2099 9.05579 3.55639Z" transform="translate(461.135 468.12)" fill="#F0572A"/>
<path d="M1.9558 18.0878C1.11918 17.8857 0.599908 17.4526 0.484512 16.7308C0.25372 15.4315 -0.0924783 14.1322 0.0229175 12.7751C0.253709 9.62795 0.7153 6.53851 1.29228 3.44906C1.66732 1.4568 2.93667 0.33074 4.9561 0.0420067C5.64848 -0.0734867 6.28314 0.0131334 6.65818 0.76384C7.26401 1.94765 7.89869 3.16032 7.58135 4.54624C7.14862 6.30752 7.20631 8.12654 6.31199 9.83007C5.73501 10.8984 5.61962 12.1977 5.21573 13.3815C4.6099 15.2005 3.83099 16.904 1.9558 18.0878Z" transform="translate(232.863 248.444)" fill="#F0572A"/>
<path d="M8.25804 15.1163C8.08494 15.6938 8.02725 16.3868 7.68106 16.9642C6.95983 18.2347 4.88272 18.3213 4.39229 17.0508C2.60365 12.4889 0.641923 7.95575 0.122641 2.98953C0.0360944 2.09446 -0.310107 1.02615 0.757305 0.824033C2.11321 0.564173 3.52682 -0.821755 4.96927 0.708533C5.5174 1.286 5.86357 1.92123 6.09436 2.67193C7.45027 6.65646 7.45027 10.9008 8.25804 15.1163Z" transform="translate(279.098 580.053)" fill="#F0572A"/>
<path d="M11.605 0.0180546C12.384 1.54834 11.9512 2.84764 11.4896 4.11807C10.1914 7.81385 8.2297 11.2209 6.21027 14.5702C5.83524 15.2054 5.3448 15.8118 4.62358 16.1871C3.41192 16.8512 1.82523 16.6491 0.700118 15.6097C-0.0788043 14.8878 -0.280744 13.5885 0.46933 12.4336C2.51761 9.19978 4.53703 5.96596 6.78725 2.84764C7.88351 1.34623 9.21057 -0.184059 11.605 0.0180546Z" transform="translate(90.1152 224.792)" fill="#F0572A"/>
<path d="M0.197875 1.32817C1.32298 1.24155 2.10192 0.288741 3.16933 7.04916e-06C4.38099 0.375361 4.78488 1.38593 5.30416 2.30987C7.41014 5.94792 8.79487 9.93243 10.6989 13.6571C11.0162 14.2923 10.9874 14.9564 11.0162 15.6205C11.0451 16.4001 10.6989 16.9775 9.97768 17.1508C9.16991 17.3529 8.36215 17.6127 7.64092 16.7465C4.69833 13.3106 2.07307 9.73032 0.572926 5.42819C0.111342 4.12889 -0.23486 2.85846 0.197875 1.32817Z" transform="translate(379.639 384.394)" fill="#F0572A"/>
<path d="M3.79866 18.6016C3.16398 18.6016 2.47159 18.6883 1.83691 18.5728C0.538711 18.3707 -0.124794 17.6777 0.0194506 16.4361C0.654128 11.4988 1.14455 6.56148 2.38505 1.73963C2.5293 1.19104 2.90434 0.729038 3.07743 0.411431C3.88521 -0.223783 4.57759 0.0361058 5.21227 0.151599C6.91436 0.469206 7.14513 0.844531 7.14513 2.7213C7.17398 6.67695 6.48162 10.5171 5.35651 14.2995C4.92378 15.6277 5.09686 17.158 3.79866 18.6016Z" transform="translate(351.178 601.917)" fill="#F0572A"/>
<path d="M5.22167 1.76229e-06C6.26023 0.0866218 6.86606 0.0288725 7.38534 0.173239C8.68355 0.548593 9.17398 1.18381 8.91434 2.48311C7.99117 7.0451 7.35649 11.7226 5.39476 16.0247C5.36591 16.1113 5.36591 16.2268 5.30821 16.3134C3.95231 19.2297 3.37533 19.4318 -3.5216e-06 17.9881C0.663523 11.7803 3.31764 6.09228 5.22167 1.76229e-06Z" transform="translate(243.564 196.63)" fill="#F0572A"/>
<path d="M4.37564 0.119284C5.44305 -0.313816 6.19314 0.552374 7.05861 0.812234C7.86638 1.04322 8.09715 1.76505 8.15485 2.63125C8.27024 4.21929 7.77982 5.69184 7.37594 7.1355C6.51047 10.0517 6.30852 13.1412 4.95262 15.9707C3.68326 18.5693 3.79864 18.656 0.682954 18.3384C-0.442155 16.6637 0.0771472 14.8158 0.452184 13.1412C1.49075 8.78128 1.75038 4.2193 4.37564 0.119284Z" transform="translate(377.42 304.005)" fill="#F0572A"/>
<path d="M3.90229 18.8088C2.45986 18.982 1.21939 19.1841 0.0943022 18.2313C-0.0787887 12.7454 -0.165334 7.25945 1.24824 1.88902C1.68097 0.272114 1.9406 -0.0743656 3.15223 0.0122543C4.88314 0.127747 5.71977 0.6186 5.80632 2.00452C5.95056 3.70804 6.03708 5.46931 5.77744 7.14396C5.46011 9.22284 5.28701 11.3306 5.20047 13.4095C5.08507 15.2574 4.59465 16.932 3.90229 18.8088Z" transform="translate(363.383 410.482)" fill="#F0572A"/>
<path d="M0.104535 15.4049C0.306478 10.814 0.970004 6.2809 2.26821 1.86328C2.72979 0.246369 3.76835 -0.273351 5.29735 0.130875C6.22052 0.361862 6.88406 0.881586 6.79752 1.92103C6.65327 3.62455 6.94176 5.2992 6.39362 7.0316C5.90319 8.56189 5.52816 10.1788 5.6724 11.8246C5.84549 14.1344 4.31651 15.9535 3.76838 18.0324C3.47989 19.1584 2.18169 19.5049 1.14313 19.1295C0.133412 18.7831 -0.0685378 18.0324 0.0180091 17.0795C0.0468581 16.5598 0.0756859 15.9823 0.104535 15.4049Z" transform="translate(416.656 239.174)" fill="#F0572A"/>
<path d="M13.7128 13.102C13.6551 15.0077 11.6645 16.076 10.1644 15.152C9.93358 15.0076 9.73163 14.7767 9.50084 14.5745C6.21205 11.3696 3.356 7.76042 0.586497 4.09351C-0.365519 2.82308 -0.134713 1.8703 1.10579 0.888609C2.46169 -0.179705 3.81757 -0.352945 4.65419 0.744242C7.39485 4.29566 10.7702 7.35625 12.9627 11.3696C13.2801 11.976 13.6839 12.4957 13.7128 13.102Z" transform="translate(316.338 842.417)" fill="#F0572A"/>
<path d="M3.78877 -1.40985e-05C5.83705 1.55917 6.29865 3.6958 7.19297 5.54372C8.43347 8.11348 9.58742 10.741 10.5683 13.4263C11.001 14.5812 11.6068 15.9671 10.1355 17.0932C9.06813 17.9017 8.28922 17.9595 7.36605 17.0066C7.16411 16.8045 6.99101 16.5735 6.87562 16.3136C4.82734 12.4734 2.28863 8.86424 0.673088 4.79305C-0.50972 1.79018 -0.307777 1.18382 2.69252 0.23099C3.06755 0.115495 3.44258 0.0577333 3.78877 -1.40985e-05Z" transform="translate(221.541 913.295)" fill="#F0572A"/>
<path d="M-7.0432e-06 3.61741C0.346181 2.40473 1.09627 1.88501 1.64441 1.2498C3.00031 -0.338237 4.18309 -0.367114 5.76979 0.903313C7.93346 2.63571 9.69326 4.77235 11.4819 6.8801C12.5782 8.1794 13.4725 9.65193 14.511 11.0379C15.088 11.8174 15.3188 12.597 14.6264 13.3766C13.9629 14.1851 13.0397 14.0407 12.2608 13.6942C11.0491 13.1456 9.75094 12.597 8.79893 11.7308C6.54871 9.68081 3.8369 8.17939 1.90402 5.75403C1.29819 5.0322 0.63467 4.33925 -7.0432e-06 3.61741Z" transform="translate(432.166 413.258)" fill="#F0572A"/>
<path d="M18.0359 0.832846C17.8628 1.26595 17.8339 1.75681 17.5743 1.93005C15.6991 3.22935 14.0548 4.78851 11.8622 5.62583C9.41007 6.60753 7.04445 7.8202 4.50574 8.59978C1.73624 9.46598 -0.485109 7.56034 0.0918706 4.70188C0.236115 4.0378 0.524605 3.51807 1.24583 3.20046C2.48634 2.70962 3.64029 2.0744 4.9962 1.84341C8.34268 1.23707 11.6314 0.313129 15.0645 0.0243959C16.0453 -0.0333508 16.9974 -0.0622276 18.0359 0.832846Z" transform="translate(577.965 426.062)" fill="#F0572A"/>
<path d="M-5.5025e-08 8.90082C-5.5025e-08 8.69871 0.144245 8.32333 0.605828 8.00572C4.84663 5.03176 9.26052 2.37543 14.0206 0.296548C14.3668 0.152182 14.7418 0.0366882 15.1169 0.00781489C16.4439 -0.107679 17.2805 1.07614 16.7324 2.28882C16.2997 3.27051 15.5784 4.07897 14.7418 4.71418C12.2608 6.67757 9.75095 8.58321 7.24109 10.5177C6.14483 11.355 4.84663 11.7015 3.57727 12.048C1.529 12.6255 0.0576979 11.3839 -5.5025e-08 8.90082Z" transform="translate(2.51172 475.654)" fill="#F0572A"/>
<path d="M8.94983 3.59391C8.69019 7.89604 7.0458 12.2559 5.05522 16.5003C4.2763 18.175 3.00694 18.5792 1.53564 17.944C0.150891 17.3376 -0.339541 15.6918 0.237438 14.1038C1.07406 11.7073 1.85299 9.28197 3.00695 7.00098C3.93012 5.21083 4.76674 3.39181 5.66106 1.63054C5.863 1.22631 6.23803 0.850947 6.55537 0.53334C7.44969 -0.390607 8.6325 -0.0729791 8.92099 1.16857C9.06523 1.77491 8.94983 2.46785 8.94983 3.59391Z" transform="translate(179.367 497.967)" fill="#F0572A"/>
<path d="M6.53911 13.5697C6.5968 15.0711 7.14494 16.1683 6.45256 17.3232C5.90443 18.2183 5.32746 18.7957 4.20235 18.738C3.01954 18.6802 2.44256 18.0739 2.26946 17.0056C1.60594 13.3675 0.221189 9.84498 0.451981 6.0337C0.538527 4.82102 0.105793 3.57945 0.019246 2.3379C-0.0961499 0.749862 0.27888 0.374564 1.92327 0.085831C3.48112 -0.174029 4.14465 0.114704 4.54854 1.5295C5.7025 5.57177 6.36601 9.72952 6.53911 13.5697Z" transform="translate(157.775 885.75)" fill="#F0572A"/>
<path d="M8.29571 14.7123C8.20916 15.8383 8.23801 17.0799 6.99751 17.6862C6.24743 18.0616 5.12233 17.3397 4.4588 15.8383C2.64131 11.6805 0.448793 7.63824 0.0449071 2.96071C-0.128187 1.08393 0.131452 0.708575 2.03549 0.217724C4.02607 -0.273127 5.03578 0.0155521 5.55506 1.6036C5.98779 2.93178 6.50707 4.26003 6.70902 5.70371C6.99751 8.07134 7.60334 10.3812 8.03607 12.7199C8.12262 13.3552 8.20916 14.0193 8.29571 14.7123Z" transform="translate(118.438 782.107)" fill="#F0572A"/>
<path d="M7.22863 15.8167C7.22863 15.7301 7.19979 16.3075 7.05555 16.8561C6.7959 17.9822 5.90156 18.3575 4.92068 18.4442C3.93981 18.5308 3.33397 17.9244 3.10318 17.0005C2.38194 14.2286 1.60301 11.4857 1.02602 8.68495C0.650976 6.83705 0.449041 4.9314 0.0451492 3.08349C-0.358742 1.32221 2.03574 -0.525713 3.70901 0.138377C4.48794 0.455985 4.74758 1.23559 5.00723 1.92855C5.93041 4.35393 6.2766 6.92366 6.73819 9.46453C7.05553 11.3124 7.02669 13.247 7.22863 15.8167Z" transform="translate(219.6 549.352)" fill="#F0572A"/>
<path d="M8.23528 15.13C8.17759 15.6208 8.17759 16.1405 8.03335 16.5736C7.71601 17.4398 7.02363 18.0173 6.15816 18.1905C5.14845 18.3927 4.51377 17.642 4.19643 16.8335C3.44635 14.899 2.75398 12.9067 2.177 10.9145C1.48462 8.54685 0.907643 6.15035 0.272965 3.78273C0.157569 3.32076 0.0421753 2.85878 0.0133263 2.36793C-0.10207 1.01088 0.532608 0.260203 1.88851 0.0869628C4.08103 -0.201771 4.9465 0.173562 5.35039 2.05033C6.12931 5.89048 7.48521 9.5574 8.00449 13.4553C8.06219 14.0039 8.14874 14.5814 8.23528 15.13Z" transform="translate(121.27 462.812)" fill="#F0572A"/>
<path d="M6.17369 0.673379C6.57757 3.38747 6.14483 5.95726 5.97174 8.52699C5.85634 10.2305 5.5967 11.9629 5.56785 13.6953C5.56785 14.1573 5.39475 14.6481 5.3659 15.1101C5.04856 18.5749 3.08684 19.6144 0 17.7665C0.375037 16.4383 0.346184 15.0234 0.375033 13.6087C0.490429 9.97061 1.03856 6.39032 1.61554 2.78115C2.07712 -0.163933 2.9426 -0.597048 6.17369 0.673379Z" transform="translate(167.602 733.953)" fill="#F0572A"/>
<path d="M0.155331 1.44486C0.991951 1.09838 1.97283 1.15612 2.69405 0.376543C3.32873 -0.287544 4.13651 0.00118955 4.68464 0.665276C5.11738 1.185 5.57896 1.70471 5.8386 2.28218C7.45414 6.06459 9.24278 9.76039 9.73321 13.9181C9.81976 14.6977 9.99286 15.4484 9.70437 16.1991C9.44473 16.8343 9.15622 17.4407 8.34845 17.4984C7.65607 17.5273 7.05025 17.4118 6.58867 16.8055C5.75205 15.7372 5.14622 14.4667 4.68464 13.3118C3.47298 10.2801 1.65549 7.59489 0.530382 4.53431C0.155345 3.49487 -0.219705 2.57092 0.155331 1.44486Z" transform="translate(402.324 329.33)" fill="#F0572A"/>
<path d="M1.40864e-05 5.13254C1.40864e-05 3.66 0.72121 2.47619 1.26934 1.29238C1.87517 -0.00691575 2.62526 -0.180156 4.06771 0.137451C4.93318 0.310691 5.71209 0.628305 6.43331 1.11915C8.77008 2.76493 11.078 4.41072 13.3859 6.08537C13.7032 6.31636 13.9629 6.60508 14.2225 6.86494C14.7707 7.4424 15.2034 8.07763 14.9149 8.91496C14.5976 9.8389 13.8475 10.2142 12.8955 10.1854C12.3185 10.1854 11.6838 10.3298 11.1934 10.1276C8.94317 9.17482 6.31792 9.26144 4.26964 7.67341C3.02913 6.66284 1.06743 6.86494 1.40864e-05 5.13254Z" transform="translate(554.545 308.867)" fill="#F0572A"/>
<path d="M0.117318 0.870072C1.32897 0.581339 2.33871 0.350349 3.34842 0.0904885C4.47353 -0.198245 5.22361 0.205992 5.6275 1.27431C7.24304 5.69193 8.71432 10.1095 8.45468 14.9025C8.39698 15.7687 8.397 16.6927 7.35844 17.0103C6.34872 17.3279 5.80059 16.6061 5.19476 15.9997C3.69462 14.5272 3.26188 12.506 2.59836 10.6581C2.10793 9.3011 1.67517 7.97292 1.09819 6.64474C0.319268 4.91234 -0.257718 3.09332 0.117318 0.870072Z" transform="translate(349.725 374.312)" fill="#F0572A"/>
<path d="M8.12671 1.16004C8.12671 2.97905 8.04017 4.53818 7.52089 6.12621C6.48233 9.41775 5.50145 12.7093 4.1744 15.8853C3.71282 17.0114 2.35692 17.791 1.26066 17.5311C0.395197 17.329 0.0778618 16.6938 0.0201639 15.8276C-0.0952319 14.2685 0.308646 12.8248 0.625985 11.3234C1.43375 7.51212 2.44347 3.75862 3.77053 0.00511094C5.35722 -0.0526354 6.68426 0.380462 8.12671 1.16004Z" transform="translate(215.443 878.785)" fill="#F0572A"/>
<path d="M9.27002 16.3712C8.14491 16.8043 7.53908 16.2268 6.87555 15.6205C5.00037 13.917 3.93296 11.636 2.54821 9.58598C1.50965 8.02682 0.326838 6.55425 0.0960462 4.50424C-0.192444 1.81902 0.0383448 1.21267 2.63475 0.375339C2.98094 0.259846 3.32713 0.115465 3.64447 -2.81966e-05C5.31771 0.317579 5.51965 1.7324 6.09663 2.91621C7.76987 6.35214 8.98153 9.9613 9.52966 13.7437C9.64506 14.581 9.81815 15.4473 9.27002 16.3712Z" transform="translate(177.115 752.239)" fill="#F0572A"/>
<path d="M13.2364 1.79005C13.1787 3.63797 12.0824 5.11052 11.2169 6.43871C9.22636 9.44157 7.03383 12.3578 4.37972 14.8698C3.68734 15.5339 2.99497 15.8515 2.0718 15.7072C0.456248 15.4762 -0.380373 14.1191 0.16776 12.5888C0.369703 12.0691 0.629341 11.5494 0.97553 11.0874C3.68734 7.50706 6.5434 4.07108 10.0053 1.18371C10.2938 0.952724 10.64 0.750601 10.8996 0.490738C11.4477 -0.000113758 12.0247 -0.202208 12.7171 0.25977C13.2652 0.664002 13.3806 1.21258 13.2364 1.79005Z" transform="translate(40.6816 523.419)" fill="#F0572A"/>
<path d="M13.559 13.9116C13.1262 14.7489 12.7223 15.2687 12.1165 15.6151C11.3664 16.0482 10.5875 16.0193 10.0105 15.413C6.43328 11.5729 2.76948 7.81942 0.346172 3.05537C0.14423 2.65114 0.0865466 2.16027 0 1.72718C2.25021 -0.467175 2.76948 -0.524921 4.7889 1.29408C5.71207 2.1314 6.6064 3.02646 7.29877 4.03702C9.28934 6.92433 11.4818 9.63841 13.0974 12.7856C13.2705 13.132 13.3859 13.4785 13.559 13.9116Z" transform="translate(365.498 557.438)" fill="#F0572A"/>
<path d="M6.50379 -1.40982e-05C7.68659 0.346463 8.754 0.664081 9.79256 0.952811C10.3407 3.14717 9.38867 4.90845 8.66745 6.61196C7.28271 9.84575 5.78258 13.0218 4.31129 16.1978C3.70547 17.526 2.78228 17.9302 1.54178 17.5259C0.330131 17.1217 -0.246844 16.2267 0.099341 14.8119C0.532073 13.0795 0.849409 11.2894 1.97451 9.788C2.43609 9.18167 2.66688 8.48866 2.83997 7.70908C3.5035 5.02389 4.54207 2.42532 6.50379 -1.40982e-05Z" transform="translate(311.805 860.457)" fill="#F0572A"/>
<path d="M0.0048731 4.29369C-0.0239759 3.10989 0.0625728 1.98381 0.610703 0.944374C1.15883 -0.12394 2.05315 -0.297173 2.94747 0.482408C3.29366 0.800015 3.69755 1.17538 3.81294 1.60848C4.33222 3.34088 5.28424 4.87115 5.34193 6.77679C5.37078 8.3937 5.77467 9.98174 6.06316 11.5986C6.29395 12.9268 6.38049 14.255 6.43819 15.612C6.49589 17.0846 5.89007 17.9508 4.64956 18.5571C3.3802 19.1635 2.11084 18.7304 1.67811 17.4022C1.36077 16.4205 1.24538 15.3522 1.04344 14.3127C0.379912 10.9634 0.6684 7.58525 0.0048731 4.29369Z" transform="translate(102.553 404.873)" fill="#F0572A"/>
<path d="M6.5743 0.650639C7.29553 2.18093 6.89164 3.82671 6.71855 5.41474C6.34351 8.76405 5.18956 11.9112 4.0356 15.0295C3.31437 16.9929 2.24696 17.7725 1.29495 17.3972C-0.2052 16.7908 -0.0321028 15.4049 0.0544441 14.1922C0.342934 10.6697 0.689121 7.14712 1.06416 3.62457C1.1507 2.87387 1.41035 2.12317 1.64114 1.40134C1.98733 0.361898 2.59315 -0.359921 3.74711 0.188672C4.58373 0.564026 5.47804 0.0154251 6.5743 0.650639Z" transform="translate(233.236 495.915)" fill="#F0572A"/>
<path d="M7.1279 -7.04916e-06C8.97424 1.73239 8.42612 4.01339 7.96453 5.89016C7.3587 8.28665 6.86826 10.712 6.14703 13.0796C5.85854 14.0036 5.51237 14.8698 5.02193 15.7071C4.24301 17.0641 3.52178 17.3529 2.22358 16.9486C0.752282 16.5155 0.0599034 15.7071 0.0022055 14.35C-0.0266435 13.4838 0.232997 12.6754 0.43494 11.8381C1.38696 8.05566 2.85825 4.47537 4.84883 1.12606C5.36811 0.288733 6.14704 0.0288663 7.1279 -7.04916e-06Z" transform="translate(147.936 399.465)" fill="#F0572A"/>
<path d="M5.61921 8.50801C5.70575 11.3664 5.70576 14.0516 5.01339 16.6502C4.58066 18.2671 4.06138 18.6136 2.64779 18.6425C1.2342 18.6713 0.714928 18.1228 0.253349 16.7368C-0.323626 15.0045 0.253345 13.3298 0.339891 11.6552C0.512984 8.21929 1.06111 4.81224 2.01311 1.49183C2.15736 1.02986 2.15736 0.567902 2.64779 0.279171C3.51325 -0.211672 4.7249 -0.153919 5.04223 1.26086C5.59036 3.74395 5.76345 6.19816 5.61921 8.50801Z" transform="translate(253.146 608.057)" fill="#F0572A"/>
<path d="M3.76885 -3.52458e-06C5.35555 -3.52458e-06 5.99022 0.433098 6.3941 2.05001C7.20187 5.16833 7.95195 8.28665 8.70202 11.4338C8.81742 11.8958 8.81742 12.3867 8.75972 12.8486C8.55778 14.8409 6.94224 15.6205 5.29784 14.4944C4.49007 13.9458 3.9131 13.1951 3.53806 12.3C2.47065 9.75919 1.23014 7.27608 0.393519 4.61973C-0.645044 1.35704 0.335825 -3.52458e-06 3.76885 -3.52458e-06Z" transform="translate(238.469 231.047)" fill="#F0572A"/>
<path d="M3.52161e-06 2.29003C1.35591 0.990714 2.71182 0.326607 4.24082 0.0378708C5.10629 -0.106497 5.79866 0.153386 6.14484 0.961847C7.5873 4.19569 9.23169 7.34292 10.1837 10.75C10.6741 12.569 10.2414 13.8106 9.14515 14.2726C8.07774 14.7345 6.54873 14.2437 5.62556 12.9733C3.28879 9.73941 1.55785 6.15909 3.52161e-06 2.29003Z" transform="translate(269.064 693.242)" fill="#F0572A"/>
<path d="M0.00444811 7.26513C0.090995 5.44611 0.177535 3.62711 0.32178 1.83696C0.379478 1.08626 0.466032 0.220036 1.4469 0.0467958C2.48546 -0.126444 3.35092 0.162317 3.78366 1.23063C4.101 2.03908 4.59142 2.81864 4.67797 3.6271C5.08185 7.61162 5.68767 11.625 5.28379 15.6384C5.19724 16.4757 5.22608 17.4286 4.44716 17.9772C3.72594 18.468 2.88935 18.8145 2.02388 18.468C1.12956 18.0927 0.841061 17.342 0.754514 16.3891C0.466025 13.3863 -0.0532498 10.3546 0.00444811 7.26513Z" transform="translate(375.531 595.497)" fill="#F0572A"/>
<path d="M6.93511 3.90333C6.58892 6.70404 6.38699 10.2555 5.14649 13.5759C4.71375 14.7597 4.68489 16.0013 4.25216 17.1851C3.84827 18.2534 3.1559 18.7154 2.08849 18.6576C1.04992 18.5999 0.126762 17.6759 0.0402154 16.6365C-0.0174825 16.1745 -0.0174896 15.6837 0.0690574 15.1928C0.819131 10.9773 1.56921 6.76182 2.72317 2.63293C2.92511 1.88222 3.18475 1.13151 3.79058 0.640659C4.36756 0.178685 5.05994 -0.254408 5.86771 0.178692C6.47354 0.525172 6.93511 0.958244 6.93511 1.73782C6.93511 2.28642 6.93511 2.74839 6.93511 3.90333Z" transform="translate(195.893 525.953)" fill="#F0572A"/>
<path d="M8.95117 11.541C8.92232 11.7719 8.95118 12.0896 8.89348 12.3494C8.66269 13.1579 8.48959 14.0818 7.59527 14.4572C6.58556 14.8903 6.03742 14.0529 5.40274 13.5043C4.50842 12.7536 4.10454 11.6565 3.52756 10.6748C2.17165 8.36494 1.30618 5.85301 0.296462 3.39881C-0.309368 1.92629 -0.0208757 1.4932 1.47927 0.800246C1.91201 0.598135 2.34474 0.367145 2.77748 0.251653C5.11425 -0.441298 6.18167 0.280547 7.01829 2.61925C7.82606 4.84247 8.51844 7.09454 8.72038 9.46212C8.80693 10.1551 8.89347 10.8191 8.95117 11.541Z" transform="translate(96.752 537.517)" fill="#F0572A"/>
<path d="M0.0256506 2.27683C0.804574 1.67048 1.5258 1.03526 2.33357 0.544408C3.60293 -0.264054 4.35299 -0.2063 5.33386 0.948646C6.77631 2.62332 7.93028 4.50009 8.62266 6.63674C8.96884 7.61844 9.17079 8.68677 9.83432 9.49524C10.7286 10.5636 10.469 11.8629 10.4401 13.0756C10.4113 14.2016 9.48812 14.6347 8.36301 14.1728C7.84373 13.9706 7.26675 13.7108 6.89172 13.3065C4.06451 10.3037 1.6412 7.04096 0.0256506 3.20077C-0.0320474 3.02753 0.0256506 2.82543 0.0256506 2.27683Z" transform="translate(193.512 686.297)" fill="#F0572A"/>
<path d="M7.87575 16.6559C4.47158 13.6242 0.403893 5.19316 7.04321e-06 0.371307C1.529 -0.321653 2.65411 -0.0617897 3.92346 1.29526C5.79864 3.28752 7.09686 5.48189 7.90463 8.10937C8.36622 9.61078 9.20284 10.9967 9.63557 12.5847C10.2414 14.7502 10.0683 15.3854 7.87575 16.6559Z" transform="translate(394.461 274.592)" fill="#F0572A"/>
<path d="M5.86014 14.0069C6.17747 14.7576 5.34085 15.8259 4.90811 16.9519C4.61963 17.7315 3.9561 18.1935 3.09063 18.0491C2.31171 17.9336 1.82128 17.5872 1.64818 16.6055C1.2443 14.3822 0.176884 12.1878 0.148035 9.96459C0.119186 7.2505 -0.0250591 4.50753 0.00378983 1.79344C0.00378983 0.927238 0.580771 0.407511 1.33084 0.0899042C1.93667 -0.169956 2.4271 0.176528 2.88869 0.580755C3.63876 1.21597 4.27344 1.9378 4.38884 2.91949C4.87927 6.41316 5.34085 9.90685 5.86014 14.0069Z" transform="translate(133.654 354.102)" fill="#F0572A"/>
<path d="M6.18799 7.01116C5.84181 9.43652 5.49562 11.8908 5.12059 14.345C5.0629 14.807 4.88981 15.2689 4.68787 15.702C4.13975 17.0013 3.38968 17.5211 2.32229 17.3478C1.13951 17.1746 0.418295 16.3661 0.158659 15.3267C-0.0721281 14.5182 -0.0144172 13.5943 0.100977 12.757C0.620248 9.37878 0.908732 5.97173 1.83188 2.65129C1.88958 2.47805 1.91843 2.27593 1.97612 2.10269C2.46655 0.630155 3.15891 -0.14941 3.99551 0.0238296C5.236 0.283689 5.52447 1.35198 5.69756 2.42029C5.92835 3.92171 6.04375 5.452 6.18799 7.01116Z" transform="translate(257.484 639.465)" fill="#F0572A"/>
<path d="M-7.04321e-06 5.59831C0.92316 3.80817 0.230792 1.81588 1.4136 0.227843C2.59641 -0.291877 3.69268 0.170124 4.67355 0.689845C7.50075 2.24901 10.2702 3.95253 13.0686 5.59831C13.7898 6.03141 14.6553 6.40673 14.511 7.50391C14.3956 8.37011 13.4725 9.09196 12.03 8.88985C7.99118 8.37013 3.83691 8.16804 -7.04321e-06 5.59831Z" transform="translate(330.195 978.263)" fill="#F0572A"/>
<path d="M15.7703 2.62811C14.097 4.04291 10.5486 5.83308 8.73113 5.97745C6.45207 6.15069 4.14414 6.17954 1.83622 6.23728C0.82651 6.26616 0.24953 5.77536 0.105285 4.70705C-0.0678084 3.52324 -0.0966644 2.39718 0.566862 1.38662C1.17269 0.462669 2.03818 -0.143728 3.22099 0.0295124C6.42322 0.433739 9.71201 0.318246 12.8854 1.04008C13.9528 1.24219 14.9048 1.64642 15.7703 2.62811Z" transform="translate(474.904 815.73)" fill="#F0572A"/>
<path d="M-7.04314e-06 2.16541C0.576967 1.12598 1.35588 0.894965 2.0194 0.548487C4.00996 -0.490945 5.3947 -0.0867001 6.08707 2.04991C7.12562 5.19708 7.90455 8.45972 8.77001 11.6646C8.82771 11.8379 8.77001 12.04 8.77001 12.2421C8.77001 13.2815 8.9431 14.5808 7.78915 14.9851C6.5775 15.4181 6.05823 14.2632 5.45241 13.397C2.91372 9.96113 1.12509 6.23652 -7.04314e-06 2.16541Z" transform="translate(452.793 545.188)" fill="#F0572A"/>
<path d="M3.51954 -2.81964e-05C4.84658 0.779547 5.33699 1.93447 5.45239 3.17602C5.74088 6.32319 5.62549 9.47042 5.39471 12.6176C5.36586 13.1662 5.13507 13.7148 4.93313 14.2633C4.26961 16.1978 3.08682 16.6887 1.1828 15.8225C0.750073 15.6204 0.375047 15.3605 1.40863e-05 15.1584C0.288501 4.41756 0.750066 2.39644 3.51954 -2.81964e-05Z" transform="translate(350.16 926.201)" fill="#F0572A"/>
<path d="M11.5577 2.56331C11.4423 4.15136 10.5191 5.10419 9.76904 6.02815C8.1535 8.0493 6.16292 9.72396 4.11465 11.2831C3.27803 11.9184 2.29716 12.3515 1.17205 11.8029C0.13349 11.2831 -0.299245 10.4458 0.220036 9.46408C1.80673 6.40348 3.68191 3.48723 6.07638 1.00409C7.63422 -0.612829 10.0287 -0.208598 11.2115 1.72594C11.4134 2.07242 11.5 2.44782 11.5577 2.56331Z" transform="translate(27.1016 917.199)" fill="#F0572A"/>
<path d="M3.95589 1.40983e-05C5.60028 0.837341 6.23496 2.05001 6.55229 3.52255C7.07158 6.20777 7.73511 8.89299 8.25439 11.6071C8.42749 12.4733 8.08129 13.3106 7.27352 13.8015C6.4946 14.2923 5.83106 13.9458 5.13869 13.5416C3.52315 12.5021 2.80194 10.7698 2.02302 9.18172C1.1864 7.47819 0.753665 5.60144 0.147836 3.78242C-0.2272 2.7141 0.118966 1.90563 1.09983 1.38591C2.023 0.895067 2.97502 0.490861 3.95589 1.40983e-05Z" transform="translate(471.023 494.661)" fill="#F0572A"/>
<path d="M7.84451 12.032C7.84451 13.3602 7.32523 14.544 6.45976 14.5729C5.13271 14.6306 4.44034 13.7933 3.92105 12.6383C2.85364 10.2996 1.72853 7.98976 0.632266 5.62214C0.401474 5.10242 0.228384 4.52493 0.112988 3.97634C-0.49284 1.34887 1.41119 -0.470161 4.0653 0.107306C4.90192 0.309419 5.2481 0.915766 5.59429 1.66647C6.6617 3.86085 7.06559 6.1996 7.46947 8.56721C7.64257 9.63552 7.70026 10.7038 7.84451 12.032Z" transform="translate(242.557 454.534)" fill="#F0572A"/>
<path d="M-3.5216e-06 1.88728C0.721221 1.39643 1.2982 0.905583 1.96172 0.530229C4.09655 -0.682451 6.37563 0.241498 6.80836 2.72461C7.1834 4.89011 7.73152 7.02673 8.07771 9.19223C8.22195 10.1162 8.2508 11.1267 8.07771 12.0507C7.84692 13.5232 6.37562 13.9852 5.25051 13.0324C4.90433 12.7437 4.64468 12.3106 4.32734 11.9352C2.30791 9.53871 0.17309 4.74574 -3.5216e-06 1.88728Z" transform="translate(275.441 216.282)" fill="#F0572A"/>
<path d="M-7.04322e-06 4.05468C0.08654 3.15962 0.144238 2.20682 0.288483 1.25401C0.37503 0.474432 0.865485 0.0990683 1.64441 0.012449C2.33679 -0.0741702 2.7118 0.301194 3.02914 0.820909C4.15425 2.84203 5.04859 4.92087 5.42362 7.23072C5.74096 9.22296 6.0006 11.2152 6.31794 13.2075C6.43333 13.987 6.40448 14.7955 6.02945 15.4595C5.53901 16.3257 4.67353 16.8166 3.63496 16.7588C2.62525 16.7011 2.13482 16.0082 1.87518 15.1131C1.52899 13.9293 1.0674 12.7455 0.894306 11.504C0.46157 9.04974 0.259634 6.59551 -7.04322e-06 4.05468Z" transform="translate(363.217 573.127)" fill="#F0572A"/>
<path d="M1.03612 16.3712C-0.0601404 11.5493 -0.262083 6.64088 0.314896 1.70354C0.401443 1.03945 0.632256 0.404234 1.52657 7.04916e-06C3.02672 0.317614 3.83447 1.64577 4.06526 2.97394C4.67109 6.52536 5.45004 10.0768 5.2481 13.7148C5.10385 16.2846 4.03641 16.9198 1.03612 16.3712Z" transform="translate(370.289 524.284)" fill="#F0572A"/>
<path d="M0 11.383C1.09626 9.27525 2.19252 7.16751 3.28877 5.05974C4.09654 3.52944 5.1351 2.14351 6.28906 0.873069C6.80834 0.295597 7.38532 -0.281874 8.25079 0.15123C9.00086 0.55546 9.17396 1.21954 9.14511 2.08575C9.11626 3.76041 8.27964 5.1752 7.9623 6.76325C7.67381 8.26468 7.15453 9.70837 6.63525 11.1809C5.71208 13.8662 3.86575 14.7035 1.52899 13.6641C0.519277 13.2021 0.317338 12.307 0 11.383Z" transform="translate(78.7598 843.154)" fill="#F0572A"/>
<path d="M0.617148 0.119874C2.26156 -0.168862 3.64633 0.0909862 5.11765 0.61071C5.83888 4.62414 5.00227 8.55094 4.16564 12.4489C4.02139 13.0841 3.58866 13.6616 3.27131 14.2391C2.95397 14.8165 2.43468 15.0186 1.82884 14.9898C1.04991 14.932 0.588306 14.4411 0.444059 13.7482C0.242113 12.8242 0.0978518 11.8714 0.0690024 10.9186C0.0113037 8.14673 -0.0175316 5.37486 0.0113178 2.57413C0.0690165 1.82341 0.386353 1.0727 0.617148 0.119874Z" transform="translate(360.725 451.288)" fill="#F0572A"/>
<path d="M5.807 0.152201C7.2206 0.267694 8.83614 0.41204 10.4517 0.527533C11.1441 0.556407 11.7787 0.700774 12.3845 0.960634C13.2212 1.30711 14.0001 1.68248 13.8847 2.77967C13.7693 3.73249 13.1058 4.30994 12.2403 4.5698C9.4131 5.436 6.49937 6.12896 3.52793 6.3022C0.614181 6.44657 -0.684023 4.45432 0.35454 1.7691C0.816123 0.556421 1.65274 -0.0787857 2.95095 0.00783432C3.87411 0.00783432 4.73959 0.065581 5.807 0.152201Z" transform="translate(461.643 676.004)" fill="#F0572A"/>
<path d="M11.0396 9.24824C9.27981 8.72852 7.34692 8.20883 5.47173 7.54474C4.23123 7.11164 2.99073 6.53419 1.83677 5.89897C-0.124959 4.83066 -0.586536 2.34751 0.798215 0.586234C1.11555 0.182007 1.51945 -0.0489797 2.03873 0.00876701C2.58686 0.0665137 3.25038 0.0665419 3.68311 0.326402C6.39491 1.91444 9.22211 3.30036 11.6166 5.37924C11.9628 5.69684 12.309 6.04328 12.5974 6.41864C13.0302 6.96723 13.1744 7.66022 12.9436 8.32431C12.6263 9.07501 11.8762 9.075 11.0396 9.24824Z" transform="translate(351.438 880.371)" fill="#F0572A"/>
<path d="M10.3737 7.24878C7.69073 7.10442 5.03662 6.67131 2.46905 6.00724C0.189984 5.42979 -0.733163 2.86016 0.651589 0.983435C1.25742 0.146129 2.2671 -0.171498 3.21912 0.0883556C6.30596 0.954534 9.6236 1.27215 12.1623 3.6397C12.9124 4.33264 13.7202 4.88121 13.3163 6.00724C12.9412 7.07553 11.9604 7.24878 10.9507 7.24878C10.7487 7.24878 10.5756 7.24878 10.3737 7.24878Z" transform="translate(387 756.569)" fill="#F0572A"/>
<path d="M0.215082 0.721806C0.907457 0.317579 1.62867 0.519692 2.11911 -2.81966e-05C4.08084 1.29927 5.17709 2.94507 5.95602 4.99508C6.90803 7.5648 8.14855 10.0479 8.52358 12.7909C8.58128 13.2529 8.86978 13.6571 8.78323 14.1768C8.69668 14.8698 8.55243 15.5916 7.86006 15.8226C7.16768 16.0536 6.50415 15.7071 6.10026 15.1296C3.18652 10.9719 1.0517 6.43873 0.0131358 1.44364C-0.0445621 1.2704 0.0996862 1.06829 0.215082 0.721806Z" transform="translate(232.068 846.943)" fill="#F0572A"/>
<path d="M5.3542 0.470906C6.6524 2.34767 6.79664 4.25331 6.39275 6.30332C6.04657 7.97798 5.87346 9.71038 5.70037 11.4139C5.61382 12.2512 5.26765 12.9153 4.48873 13.2041C3.50786 13.5794 2.84434 12.9153 2.29621 12.2224C1.43074 11.0674 1.1711 9.62376 0.882607 8.23784C0.536419 6.56318 0.363311 4.85966 0.0748214 3.15613C-0.213668 1.30823 0.305613 0.442033 2.09425 0.0955528C3.19051 -0.106561 4.22909 0.00893271 5.3542 0.470906Z" transform="translate(360.26 140)" fill="#F0572A"/>
<path d="M3.21713 -7.04916e-06C6.07318 4.18663 6.13087 13.1951 3.36137 16.6888C1.48619 16.2268 1.63043 14.1191 0.418775 13.0796C-0.215903 12.5599 0.0437276 11.636 0.101426 10.8853C0.332217 8.05568 0.591865 5.22608 1.22654 2.42536C1.48618 1.2993 1.86123 0.433093 3.21713 -7.04916e-06Z" transform="translate(160.463 637.092)" fill="#F0572A"/>
<path d="M0.184178 0.918026C1.0785 0.340559 2.08821 0.542669 2.98253 0.138442C4.02109 -0.323531 5.34813 0.427165 5.78087 1.55323C7.02137 4.81591 7.19447 8.28072 7.05023 11.7166C6.99253 13.1026 5.377 13.6223 4.25189 12.785C3.61722 12.2941 3.27101 11.6012 3.01137 10.8793C2.08821 8.59834 1.19388 6.28847 0.357265 3.94973C-0.0177717 2.96803 -0.133161 1.92859 0.184178 0.918026Z" transform="translate(293.836 366.44)" fill="#F0572A"/>
<path d="M10.9626 10.712C8.74124 11.3184 7.38533 10.8275 5.94288 9.81695C3.37532 8.0268 1.4713 5.7458 0 3.06058C0.663526 1.27043 2.16368 0.721841 3.86577 7.04916e-06C7.06801 2.97396 9.7798 6.20777 10.9626 10.712Z" transform="translate(391.895 607.15)" fill="#F0572A"/>
<path d="M0.201941 1.29074C0.86546 0.944256 1.50013 0.482285 2.22135 0.251296C4.29845 -0.412797 5.30814 0.222419 6.02936 2.35907C6.80827 4.64008 6.95252 7.03661 7.2987 9.37537C7.4141 10.1838 7.3564 11.0789 6.86597 11.8585C6.17361 12.9557 4.6735 13.2156 4.03883 12.1184C2.19251 8.91339 0.403895 5.65066 1.40863e-05 1.86821C0.0288628 1.81046 0.086546 1.69497 0.201941 1.29074Z" transform="translate(379.721 429.126)" fill="#F0572A"/>
<path d="M4.52097 7.04916e-06C5.32874 0.519727 5.67493 1.12605 5.70378 1.79014C5.84802 5.11058 6.2519 8.4599 5.06909 11.6937C4.66521 12.7909 4.08823 13.7726 2.87657 14.1768C1.43412 14.6677 0.135922 13.8881 0.0493749 12.3578C-0.066021 10.6543 -0.00832835 8.92186 0.539802 7.27608C1.11678 5.57255 1.72262 3.86903 2.35729 2.19437C2.73233 1.12606 2.84773 1.03945 4.52097 7.04916e-06Z" transform="translate(108.307 385.404)" fill="#F0572A"/>
<path d="M6.06705 7.04916e-06C7.22101 0.837334 7.19216 2.10776 7.22101 3.17608C7.3364 5.68806 5.77857 10.9719 4.56691 13.0507C4.30727 13.1085 4.04762 13.1662 3.75913 13.1951C0.153008 13.5705 -0.625915 11.7803 0.441497 8.92188C1.30697 6.61201 2.37438 4.35988 3.52834 2.19437C4.04762 1.21268 4.88424 0.346487 6.06705 7.04916e-06Z" transform="translate(194.738 559.365)" fill="#F0572A"/>
<path d="M5.57201 4.58358C5.71626 6.83567 4.85078 8.94342 4.61999 11.1378C4.53344 11.9173 4.1007 12.6103 3.14867 12.668C2.16779 12.7258 1.6485 12.2927 1.3023 11.2821C0.177177 8.07723 -0.255564 4.81455 0.148328 1.43642C0.263726 0.483608 0.754176 0.0794148 1.61966 0.0216688C2.1101 -0.00720415 2.57169 -0.00720415 3.06213 0.0216688C4.76424 0.194907 5.16813 0.570227 5.39892 2.30261C5.51432 3.0533 5.51432 3.83288 5.57201 4.58358Z" transform="translate(167.83 570.864)" fill="#F0572A"/>
<path d="M11.6214 8.71368C10.2655 10.1573 8.90964 9.86859 7.72683 9.23338C4.95733 7.70309 2.41865 5.88409 0.399225 3.37211C-0.206603 2.6214 -0.0623652 1.9573 0.428067 1.29321C1.46663 -0.121585 3.19756 -0.439177 4.64001 0.65801C7.46721 2.82351 9.68857 5.53761 11.6214 8.71368Z" transform="translate(378.6 582.527)" fill="#F0572A"/>
<path d="M5.09144 7.04916e-06C6.27425 1.35705 6.13001 2.88733 6.21656 4.38874C6.3608 6.8141 5.06259 9.00848 5.09144 11.4338C5.09144 12.0979 4.42792 12.7909 3.96634 13.3972C3.33166 14.1768 2.52389 14.6965 1.45648 14.2345C0.389066 13.7726 -0.216759 12.5599 0.0717305 11.4338C0.821804 8.662 1.60072 5.91904 2.46619 3.17608C2.87008 1.90565 3.4759 0.692967 5.09144 7.04916e-06Z" transform="translate(154.029 606.862)" fill="#F0572A"/>
<path d="M8.03232 9.54943C6.76297 9.52056 5.55131 9.2029 4.5993 8.3367C3.38764 7.23951 2.20483 6.14232 1.05087 5.01626C-0.30503 3.65922 -0.33388 3.02406 0.877776 1.60926C2.32022 -0.0365164 4.85893 -0.96052 6.27253 1.55146C7.36879 3.51485 8.78239 5.305 9.47477 7.4705C9.90751 8.82754 9.35938 9.54943 8.03232 9.54943Z" transform="translate(40.293 915.266)" fill="#F0572A"/>
<path d="M6.62745 4.6421C6.714 6.46112 6.02162 8.13577 5.61774 9.89704C5.3581 11.1097 2.79054 12.2069 1.57888 11.8893C0.482621 11.6294 -0.123205 10.7344 0.0210396 9.52167C0.165284 8.16462 0.886512 7.00969 1.37694 5.76814C2.09817 4.00686 2.79054 2.21674 3.82911 0.628701C4.40609 -0.2375 5.4735 -0.208647 5.84854 0.7153C6.33897 1.95685 6.91594 3.19844 6.62745 4.6421Z" transform="translate(103.951 447.43)" fill="#F0572A"/>
<path d="M1.40864e-05 2.16704C0.461598 1.06985 1.00971 1.01209 1.38474 0.781107C3.72151 -0.604814 5.16397 -0.171692 6.11598 2.28254C6.72181 3.87058 7.09686 5.5741 7.64499 7.19101C7.84693 7.76848 7.90461 8.31708 7.87576 8.89455C7.78922 10.4537 6.54871 11.0889 5.27936 10.2516C5.10626 10.1361 4.99087 9.9917 4.84662 9.87621C2.42331 7.71071 1.15397 4.85226 1.40864e-05 2.16704Z" transform="translate(370.633 624.07)" fill="#F0572A"/>
<path d="M6.01306 6.64759C5.98421 8.63982 5.26297 9.56375 3.90707 9.85248C3.3301 9.96797 2.81083 9.88135 2.40694 9.30389C0.993344 7.22503 -0.131779 5.08845 0.0124656 2.46101C0.0413146 1.76806 0.15671 1.13285 0.589445 0.584266C1.07988 0.0068071 1.77225 -0.253057 2.32038 0.324403C4.19556 2.25889 5.75342 4.3955 6.01306 6.64759Z" transform="translate(299.631 408.929)" fill="#F0572A"/>
<path d="M2.23866 18.6441C2.06557 17.98 1.40204 17.9223 0.940456 17.6335C0.190382 17.1716 -0.126949 16.4497 0.0461446 15.6701C1.02701 11.0215 1.2001 6.1708 3.39262 1.81092C4.25809 0.107397 4.89277 -0.267942 6.47946 0.165158C8.1527 0.598258 8.64313 1.26232 8.64313 3.02359C8.67198 4.69825 8.00845 6.19966 7.57572 7.78769C6.7391 10.8194 5.64285 13.7645 4.28695 16.623C3.94076 17.3737 3.30607 18.0088 2.81564 18.6729C2.6137 18.6441 2.4406 18.6441 2.23866 18.6441Z" transform="translate(727.383 849.327)" fill="#F0572A"/>
<path d="M10.1063 1.40983e-05C10.7986 0.202128 11.5199 0.40422 12.2122 0.66408C14.2317 1.41479 14.924 3.08945 13.7989 4.96622C13.02 6.26552 12.2122 7.50708 11.2314 8.69088C9.1254 11.2606 7.01943 13.8303 4.42302 15.967C2.89402 17.2374 2.1728 17.555 0.989994 16.7466C0.00912879 16.0825 -0.337061 14.2346 0.384164 12.8487C1.07654 11.4916 1.85546 10.1634 2.66323 8.86412C4.42302 6.15002 6.26935 3.52256 8.46188 1.15495C8.92346 0.692974 9.38505 0.202128 10.1063 1.40983e-05Z" transform="translate(594.986 358.559)" fill="#F0572A"/>
<path d="M17.2417 11.5171C17.2994 13.0474 15.9724 14.3467 14.4722 14.058C13.5491 13.8848 12.6548 13.596 11.8181 13.0474C8.41396 10.7376 4.92324 8.54319 1.57676 6.17557C-0.413821 4.78965 -0.442671 3.66359 1.05748 1.55584C2.24028 -0.118817 3.74043 -0.465301 5.50022 0.631887C6.30799 1.12273 7.00036 1.8157 7.75044 2.42204C8.93324 3.40373 10.0872 4.4143 11.4431 5.16501C13.4048 6.26219 14.5588 8.25444 16.434 9.46712C16.9821 9.81361 17.2417 10.7087 17.2417 11.5171Z" transform="translate(592.521 213.531)" fill="#F0572A"/>
<path d="M1.66179 0.571772C2.90229 -0.178935 4.0851 -0.00569867 5.21021 0.0809214C6.59496 0.167541 7.31618 0.947127 7.22964 2.33305C6.9123 6.89504 6.53727 11.457 6.13338 16.019C6.07568 16.5676 5.81604 17.1162 5.5564 17.6359C4.74863 19.4261 3.7389 19.9169 1.92142 19.3394C0.969403 19.0507 0.392424 18.531 0.190481 17.3472C-0.213405 15.1528 0.132786 12.9873 0.248182 10.8507C0.363578 8.85842 0.738608 6.89503 0.854004 4.8739C0.911702 3.37249 1.40215 1.89995 1.66179 0.571772Z" transform="translate(743.137 138.896)" fill="#F0572A"/>
<path d="M3.032 0.00810792C3.63783 -0.0496388 4.15711 0.210216 4.64754 0.498949C8.36906 2.63558 12.0906 4.77221 15.7832 6.93771C16.3602 7.28419 16.9084 7.65955 17.3988 8.12152C18.322 9.01659 18.4373 10.4314 17.7161 11.5286C17.0237 12.5969 16.216 12.9434 15.0332 12.4236C10.9078 10.6624 6.66697 9.18983 2.83005 6.87996C2.25307 6.53348 1.67609 6.21588 1.12796 5.81165C0.752927 5.52292 0.40674 5.17644 0.175948 4.77221C-0.602974 3.32854 1.35876 0.0658546 3.032 0.00810792Z" transform="translate(583.652 135.302)" fill="#F0572A"/>
<path d="M0.163112 4.44687C0.163112 4.24475 0.163112 4.07151 0.163112 3.8694C0.22081 2.85883 -0.471563 1.61729 0.624698 0.924332C2.0383 0.058131 3.65384 -0.259483 5.32708 0.231364C6.1637 0.491224 6.45219 1.21308 6.53874 2.02153C6.65413 2.97435 6.76953 3.92715 6.85608 4.8511C7.20226 8.749 7.37535 12.6469 7.05801 16.5448C6.88492 18.5948 5.06744 19.6631 3.45189 18.6526C2.84607 18.2772 2.58643 17.7286 2.38449 17.0645C1.69211 15.0434 1.77865 12.9068 1.23052 10.8856C0.653544 8.77788 0.105415 6.67011 0.163112 4.44687Z" transform="translate(625.814 338.78)" fill="#F0572A"/>
<path d="M0 12.1562C0.201943 11.6365 0.259641 11.1745 0.519281 10.9435C3.54842 8.31604 5.85634 4.93786 9.14512 2.57024C9.8375 2.0794 10.4433 1.44418 11.078 0.866709C12.4628 -0.317098 13.4148 -0.288211 14.8572 0.953343C16.242 2.13715 16.617 3.40758 15.8092 4.70688C15.2611 5.60195 14.6553 6.46813 13.7898 7.10334C11.078 9.18223 8.3662 11.2611 5.62555 13.3111C5.30821 13.5421 4.99087 13.7442 4.67353 13.9464C2.36562 15.1879 1.70209 15.0147 0.317339 12.7625C0.201943 12.5893 0.144245 12.416 0 12.1562Z" transform="translate(554 440.355)" fill="#F0572A"/>
<path d="M9.12056 14.1205C8.94747 15.1599 9.06287 16.2282 8.57244 17.2099C7.79351 18.8268 6.29336 19.0867 5.1971 17.6719C4.56243 16.8634 3.98545 15.9106 3.69696 14.9289C2.62955 11.2909 0.725519 7.94157 0.11969 4.13029C-0.0822525 2.80212 -0.139957 1.67606 0.869757 0.723239C1.90832 -0.258454 3.11998 -0.0563339 4.36048 0.261273C5.1971 0.49226 5.68754 1.01197 5.94718 1.76267C7.27423 5.6317 8.60129 9.47186 9.06287 13.5719C9.09172 13.7451 9.12056 13.9184 9.12056 14.1205Z" transform="translate(647.688 189.85)" fill="#F0572A"/>
<path d="M6.04037 8.43854C6.12691 11.2104 6.04037 13.9822 5.60763 16.7252C5.26144 18.9773 4.77101 19.3815 2.63619 19.266C1.19374 19.1794 0.501359 18.6886 0.357115 17.2449C0.155172 15.2526 -0.133318 13.2893 0.0686248 11.2393C0.357115 8.29418 0.241722 5.32022 0.559061 2.37514C0.789853 0.180763 0.818709 0.0652841 2.83814 0.00753739C5.2903 -0.0790826 5.92496 0.556117 6.06921 3.24134C6.1269 4.10754 6.04037 4.97374 6.04037 5.83994C6.04037 6.70614 6.04037 7.57234 6.04037 8.43854Z" transform="translate(747.73 253.913)" fill="#F0572A"/>
<path d="M5.22308 -1.40983e-05C6.95403 0.144352 8.2811 0.635219 9.60817 1.21268C10.6179 1.64578 10.9641 2.42535 10.791 3.55141C10.6467 4.61972 10.2717 5.6014 9.75242 6.49647C7.93491 9.64366 6.0597 12.762 4.1845 15.8803C3.98256 16.1979 3.75176 16.5155 3.52097 16.8043C2.88629 17.5838 1.99195 17.6416 1.15532 17.3239C0.405243 17.0352 -0.0274961 16.3423 0.00135322 15.505C0.0302025 14.6388 0.11675 13.7725 0.289846 12.9352C1.18417 8.40212 2.74204 4.12886 5.22308 -1.40983e-05Z" transform="translate(640.912 422.628)" fill="#F0572A"/>
<path d="M0.0601585 4.08782C-0.141784 1.22936 0.0890074 0.796263 1.93534 0.247669C3.81052 -0.329798 4.64714 0.0455557 5.10873 1.98007C6.17614 6.42657 7.3878 10.8731 8.48406 15.3196C9.06104 17.6294 7.50319 19.6217 5.42607 19.4196C4.01247 19.2752 3.52204 18.2069 3.147 17.1386C1.58916 12.6632 0.00246053 8.21671 0.0601585 4.08782Z" transform="translate(680.402 128.565)" fill="#F0572A"/>
<path d="M16.2513 2.81966e-05C17.261 0.462002 17.4341 1.03944 17.6649 1.55916C18.415 3.11832 18.3573 3.23383 16.9437 4.38876C15.7609 5.37046 14.4338 6.12112 13.0779 6.87183C11.5489 7.68028 10.0199 8.45986 9.06793 10.0479C8.77944 10.5387 8.31786 10.943 7.68318 11.0007C6.06764 11.2028 4.45209 11.4627 2.83655 11.5205C1.53835 11.5493 0.211294 10.481 0.0381998 9.4127C-0.134894 8.17114 0.268992 7.21835 1.48065 6.55426C6.24073 3.86904 11.0874 1.4437 16.2513 2.81966e-05Z" transform="translate(587.744 695.885)" fill="#F0572A"/>
<path d="M12.6115 7.04916e-06C13.477 0.664094 14.2271 1.1838 14.9483 1.79014C16.333 2.94507 16.4484 3.81129 15.2368 5.19721C14.429 6.12116 13.4193 6.87186 12.4673 7.68031C9.98627 9.78806 7.93799 12.3578 5.31273 14.2923C3.55295 15.5916 2.25475 15.5627 0.754599 14.1191C-0.11087 13.2818 -0.226266 12.5888 0.379562 11.5782C0.523807 11.3184 0.696901 11.0874 0.898844 10.8852C3.69719 8.17115 6.32245 5.22608 9.38044 2.77184C10.4767 1.87677 11.5153 0.923954 12.6115 7.04916e-06Z" transform="translate(621.936 315.999)" fill="#F0572A"/>
<path d="M-3.5216e-06 1.75619C0.288486 1.43858 0.346184 1.35197 0.432731 1.29422C4.58698 -1.27551 5.36591 0.254776 6.46217 3.48859C7.70268 7.18438 9.23167 10.8224 9.11627 14.8069C9.08742 15.3844 9.17397 15.9908 9.02973 16.5105C8.56815 18.3006 6.80836 18.7626 5.51015 17.4633C4.64468 16.5682 3.86576 15.4999 3.54843 14.345C2.62526 10.8513 0.865466 7.61748 0.288486 4.00831C0.17309 3.28648 0.0865434 2.53577 -3.5216e-06 1.75619Z" transform="translate(672.502 62.9004)" fill="#F0572A"/>
<path d="M5.00523 0.330559C6.07265 -0.102544 6.85158 -0.0158952 7.60166 0.0707254C9.67881 0.301714 10.2269 1.25451 9.67881 3.36228C8.69793 7.14471 6.99582 10.6673 5.78415 14.392C5.49566 15.2871 4.94753 16.1244 4.39939 16.904C3.62046 18.0301 2.43765 18.4054 1.39907 17.9723C0.38935 17.5392 -0.216486 16.442 0.0720062 15.1716C1.19713 10.0321 2.66844 5.03695 5.00523 0.330559Z" transform="translate(654.197 674.275)" fill="#F0572A"/>
<path d="M10.2398 14.4541C10.2398 16.3598 9.57627 16.8795 8.10497 16.3309C6.14324 15.6091 4.78734 14.1077 3.66223 12.4619C1.90244 9.92103 0.748472 7.09144 0.084946 4.08862C-0.463184 1.63438 1.72934 -0.50226 4.1238 0.10408C4.72963 0.248447 5.10467 0.65266 5.42201 1.17238C6.08553 2.32731 6.89331 3.36678 7.32605 4.66608C8.22037 7.38018 9.57627 9.92099 9.98016 12.7795C10.0667 13.4435 10.1821 14.0788 10.2398 14.4541Z" transform="translate(708.42 803.393)" fill="#F0572A"/>
<path d="M6.63526 6.23528C6.40447 9.58459 6.05828 12.905 5.42361 16.1966C5.01972 18.2755 4.26965 18.9684 2.74065 18.8818C1.21166 18.7952 -8.80401e-07 17.5248 -8.80401e-07 15.7924C-8.80401e-07 13.6846 0.0576984 11.6057 0.346188 9.49798C0.634678 7.44797 0.836621 5.34022 1.06741 3.29021C1.15396 2.62612 1.21166 1.962 1.38475 1.29791C1.64439 0.373961 2.16367 -0.232365 3.28878 0.0852419C3.75037 0.200735 4.2408 0.143031 4.70238 0.200778C6.20253 0.431764 6.63526 0.922583 6.69296 2.48174C6.69296 2.68386 6.63526 2.8571 6.63526 3.05921C6.63526 4.12752 6.63526 5.19584 6.63526 6.23528Z" transform="translate(580.887 722.104)" fill="#F0572A"/>
<path d="M7.04321e-06 14.9715C0.548137 10.8426 0.807771 6.33831 2.19252 2.03618C2.8272 0.0727953 4.70239 -0.562404 6.43332 0.534783C7.1834 0.996756 7.38534 1.68973 7.29879 2.49818C6.89491 7.34891 6.57756 12.2285 4.81777 16.8193C4.1254 18.5806 3.54842 18.9559 1.84633 18.6961C0.375033 18.4651 7.04321e-06 18.0031 7.04321e-06 16.3862C0.028856 16.0397 7.04321e-06 15.6644 7.04321e-06 14.9715Z" transform="translate(731.092 647.335)" fill="#F0572A"/>
<path d="M8.14131 2.53336C7.99707 3.68829 7.91051 4.84327 7.67972 5.96933C6.8431 9.69399 6.41037 13.5341 4.96793 17.1144C4.16015 19.1067 2.86195 19.5686 1.13102 18.5581C0.352094 18.0961 -0.138353 17.4609 0.0347411 16.4504C0.35208 14.5736 0.55403 12.6679 0.871368 10.7623C1.2464 8.51014 1.708 6.22915 2.14073 3.97703C2.25613 3.42843 2.37151 2.85098 2.60231 2.33126C3.64087 -0.0363549 5.05446 -0.556033 7.39123 0.570027C8.2567 0.974254 8.17016 1.78265 8.14131 2.53336Z" transform="translate(705.873 774.429)" fill="#F0572A"/>
<path d="M6.98598 9.33396C7.59181 11.3262 6.84174 13.2896 6.72634 15.2241C6.66864 15.8882 6.5244 16.5234 6.29361 17.1586C5.97627 18.0537 5.25504 18.1981 4.47612 18.2847C3.6972 18.3713 3.17792 17.9382 2.91828 17.2741C2.45669 16.1192 1.90857 14.9642 1.70662 13.7804C1.07195 10.4022 0.552665 6.99521 0.0622323 3.58815C-0.0820125 2.54871 -0.0531671 1.36489 1.01424 0.758553C2.2836 0.0655923 3.6972 -0.309761 5.13965 0.325453C5.45699 0.469819 5.74548 0.816306 5.86087 1.16279C6.17821 1.97124 6.55325 2.77969 6.61095 3.61702C6.75519 5.55154 6.66865 7.45719 6.98598 9.33396Z" transform="translate(609.359 408.126)" fill="#F0572A"/>
<path d="M-3.5216e-06 17.3804C0.952013 12.241 2.79835 7.44799 4.93317 2.77051C5.25051 2.07755 5.68325 1.44233 6.17368 0.86486C6.57757 0.345139 7.09685 -0.174577 7.87577 0.0564095C8.68354 0.31627 9.17398 0.86486 9.20283 1.73106C9.23167 3.26135 9.43361 4.84939 9.14512 6.32193C8.39505 9.95997 7.52959 13.5691 5.5967 16.8318C5.39476 17.1494 5.22167 17.4959 4.99087 17.8135C3.89461 19.2861 2.88489 19.4882 1.2982 18.4776C0.807768 18.1889 0.403882 17.7558 -3.5216e-06 17.3804Z" transform="translate(639.76 149.025)" fill="#F0572A"/>
<path d="M0.117802 6.76607C0.406288 5.09143 -0.228387 3.35905 0.46398 1.65554C0.839012 0.760467 1.18519 0.09638 2.16605 0.00976044C3.23345 -0.0768591 3.98351 0.413985 4.32969 1.45342C4.35854 1.54004 4.44509 1.62665 4.47394 1.71327C5.2817 3.5034 6.66644 14.7351 6.32026 16.6985C6.03177 18.2576 5.07976 19.1816 3.69503 19.2393C2.42569 19.2682 1.76217 18.864 1.50253 17.5358C0.781317 13.9844 -0.372625 10.4618 0.117802 6.76607Z" transform="translate(672.502 287.491)" fill="#F0572A"/>
<path d="M4.32431 18.912C3.22805 18.7388 1.901 18.8832 1.00668 17.8149C-0.0318832 16.5156 -0.29152 15.1296 0.343157 13.5127C1.8433 9.78806 3.1992 6.03452 4.69934 2.33873C5.07438 1.38591 5.65136 0.4331 6.77647 0C8.10353 0.288733 8.56511 1.1838 8.56511 2.4831C8.56511 4.30212 8.59396 6.12115 8.16122 7.94017C7.55539 10.5388 7.06496 13.1662 6.34374 15.736C6.05525 16.862 5.53597 18.0458 4.32431 18.912Z" transform="translate(715.836 188.984)" fill="#F0572A"/>
<path d="M1.96083 18.4789C1.32616 17.324 1.03766 16.2268 0.893419 15.0719C0.316439 10.7986 -0.116295 6.52538 0.0279497 2.22325C0.0856477 0.664094 0.345299 0.346466 1.78775 0.144353C2.36473 0.0577326 2.94171 -1.40983e-05 3.51869 -1.40983e-05C3.89372 -1.40983e-05 4.26876 0.115507 4.67265 0.173254C5.39387 1.58805 5.71121 3.14718 5.74006 4.61972C5.82661 8.34438 6.31703 12.0402 5.99969 15.7649C5.74005 18.3346 5.27847 18.6522 1.96083 18.4789Z" transform="translate(725.643 455.543)" fill="#F0572A"/>
<path d="M0.324093 17.7618C-0.108641 12.5646 0.00675445 7.59835 0.0356034 2.63214C0.0356034 0.49551 0.612579 0.0624167 2.8628 0.00467C4.79568 -0.0530767 5.5169 0.408883 5.68999 2.37227C6.06503 7.16525 5.89194 11.9294 4.73798 16.6068C4.44949 17.7907 3.67057 18.3392 2.43006 18.2237C1.73769 18.1371 1.10302 17.9061 0.324093 17.7618Z" transform="translate(739.426 587.375)" fill="#F0572A"/>
<path d="M0.00770837 14.1457C-0.0788385 12.5865 0.584688 11.1429 0.930876 9.67032C1.50786 7.24496 2.54642 4.99283 3.15225 2.56746C3.72923 0.11323 5.31592 -0.493103 8.11427 0.373097C9.47017 0.777324 10.3645 2.76959 9.87406 4.47312C9.61442 5.39706 9.23938 6.26326 8.74895 7.10058C7.85463 8.57312 7.04686 10.1034 6.35448 11.6626C5.54671 13.4816 4.01772 14.6654 2.92145 16.2534C2.43102 16.9464 1.56555 16.9464 0.815479 16.6865C0.0654061 16.4267 0.00770837 15.7048 0.00770837 15.0119C0.00770837 14.7232 0.00770837 14.4344 0.00770837 14.1457Z" transform="translate(558.318 154.83)" fill="#F0572A"/>
<path d="M10.233 15.3109C10.1176 16.3504 10.0888 17.332 8.90597 17.6785C7.55007 18.0827 6.65575 17.794 5.99222 16.5524C3.79969 12.4524 1.60715 8.38139 0.193541 3.90607C-0.556536 1.48073 0.943624 -0.280569 3.48235 0.0370346C4.40552 0.152527 4.78056 0.84548 5.12675 1.48069C6.85769 4.77222 8.55978 8.09265 9.42525 11.7595C9.71374 12.9722 9.97338 14.1849 10.233 15.3109Z" transform="translate(727.264 728.216)" fill="#F0572A"/>
<path d="M1.76079e-06 14.2946C1.38475 11.6383 2.5964 9.1841 3.92344 6.78763C4.962 4.88201 6.11595 3.00525 7.29876 1.18625C7.81803 0.3778 8.53926 -0.344027 9.69321 0.175688C10.876 0.724277 12.2896 1.07076 12.6935 2.60104C12.78 2.91864 12.6358 3.35172 12.4627 3.66933C10.3279 7.59607 7.78919 11.2918 5.27934 15.0165C5.07739 15.3341 4.76006 15.5939 4.47157 15.8538C2.94258 17.182 1.99057 17.0665 0.692372 15.3918C0.432733 15.0742 0.259641 14.7277 1.76079e-06 14.2946Z" transform="translate(616.488 483.924)" fill="#F0572A"/>
<path d="M15.6122 2.81966e-05C16.5354 0.288762 16.8239 0.923961 17.1701 1.50143C17.8048 2.45425 17.6605 3.37821 16.7662 4.0423C12.4965 7.21836 8.28459 10.5099 3.00523 11.8958C1.47624 12.3001 0.466528 11.7803 0.0914917 10.3655C-0.168149 9.35496 0.120335 8.54648 1.01465 7.88239C5.51509 4.59083 10.2752 1.81905 15.6122 2.81966e-05Z" transform="translate(667.764 760.85)" fill="#F0572A"/>
<path d="M11.605 0.0180546C12.384 1.54834 11.9512 2.84764 11.4896 4.11807C10.1914 7.81385 8.2297 11.2209 6.21027 14.5702C5.83524 15.2054 5.3448 15.8118 4.62358 16.1871C3.41192 16.8512 1.82523 16.6491 0.700118 15.6097C-0.0788043 14.8878 -0.280744 13.5885 0.46933 12.4336C2.51761 9.19978 4.53703 5.96596 6.78725 2.84764C7.88351 1.34623 9.21057 -0.184059 11.605 0.0180546Z" transform="translate(645.115 84.7915)" fill="#F0572A"/>
<path d="M-5.5025e-08 8.90082C-5.5025e-08 8.69871 0.144245 8.32333 0.605828 8.00572C4.84663 5.03176 9.26052 2.37543 14.0206 0.296548C14.3668 0.152182 14.7418 0.0366882 15.1169 0.00781489C16.4439 -0.107679 17.2805 1.07614 16.7324 2.28882C16.2997 3.27051 15.5784 4.07897 14.7418 4.71418C12.2608 6.67757 9.75095 8.58321 7.24109 10.5177C6.14483 11.355 4.84663 11.7015 3.57727 12.048C1.529 12.6255 0.0576979 11.3839 -5.5025e-08 8.90082Z" transform="translate(556.512 335.654)" fill="#F0572A"/>
<path d="M8.94983 3.59391C8.69019 7.89604 7.0458 12.2559 5.05522 16.5003C4.2763 18.175 3.00694 18.5792 1.53564 17.944C0.150891 17.3376 -0.339541 15.6918 0.237438 14.1038C1.07406 11.7073 1.85299 9.28197 3.00695 7.00098C3.93012 5.21083 4.76674 3.39181 5.66106 1.63054C5.863 1.22631 6.23803 0.850947 6.55537 0.53334C7.44969 -0.390607 8.6325 -0.0729791 8.92099 1.16857C9.06523 1.77491 8.94983 2.46785 8.94983 3.59391Z" transform="translate(733.367 357.967)" fill="#F0572A"/>
<path d="M6.53911 13.5697C6.5968 15.0711 7.14494 16.1683 6.45256 17.3232C5.90443 18.2183 5.32746 18.7957 4.20235 18.738C3.01954 18.6802 2.44256 18.0739 2.26946 17.0056C1.60594 13.3675 0.221189 9.84498 0.451981 6.0337C0.538527 4.82102 0.105793 3.57945 0.019246 2.3379C-0.0961499 0.749862 0.27888 0.374564 1.92327 0.085831C3.48112 -0.174029 4.14465 0.114704 4.54854 1.5295C5.7025 5.57177 6.36601 9.72952 6.53911 13.5697Z" transform="translate(711.775 745.75)" fill="#F0572A"/>
<path d="M8.29565 14.7123C8.2091 15.8383 8.23795 17.0799 6.99746 17.6862C6.24739 18.0616 5.12229 17.3397 4.45877 15.8383C2.64129 11.6805 0.44879 7.63824 0.0449068 2.96071C-0.128186 1.08393 0.131451 0.708575 2.03547 0.217724C4.02604 -0.273127 5.03574 0.0155521 5.55502 1.6036C5.98775 2.93178 6.50703 4.26003 6.70897 5.70371C6.99746 8.07134 7.60328 10.3812 8.03601 12.7199C8.12256 13.3552 8.2091 14.0193 8.29565 14.7123Z" transform="translate(673.438 642.107)" fill="#F0572A"/>
<path d="M8.23528 15.13C8.17759 15.6208 8.17759 16.1405 8.03335 16.5736C7.71601 17.4398 7.02363 18.0173 6.15816 18.1905C5.14845 18.3927 4.51377 17.642 4.19643 16.8335C3.44635 14.899 2.75398 12.9067 2.177 10.9145C1.48462 8.54685 0.907643 6.15035 0.272965 3.78273C0.157569 3.32076 0.0421753 2.85878 0.0133263 2.36793C-0.10207 1.01088 0.532608 0.260203 1.88851 0.0869628C4.08103 -0.201771 4.9465 0.173562 5.35039 2.05033C6.12931 5.89048 7.48521 9.5574 8.00449 13.4553C8.06219 14.0039 8.14874 14.5814 8.23528 15.13Z" transform="translate(676.27 322.812)" fill="#F0572A"/>
<path d="M6.17369 0.673379C6.57757 3.38747 6.14483 5.95726 5.97174 8.52699C5.85634 10.2305 5.5967 11.9629 5.56785 13.6953C5.56785 14.1573 5.39475 14.6481 5.3659 15.1101C5.04856 18.5749 3.08684 19.6144 0 17.7665C0.375037 16.4383 0.346184 15.0234 0.375033 13.6087C0.490429 9.97061 1.03856 6.39032 1.61554 2.78115C2.07712 -0.163933 2.9426 -0.597048 6.17369 0.673379Z" transform="translate(721.602 593.953)" fill="#F0572A"/>
<path d="M9.27002 16.3712C8.14491 16.8043 7.53908 16.2268 6.87555 15.6205C5.00037 13.917 3.93296 11.636 2.54821 9.58598C1.50965 8.02682 0.326838 6.55425 0.0960462 4.50424C-0.192444 1.81902 0.0383448 1.21267 2.63475 0.375339C2.98094 0.259846 3.32713 0.115465 3.64447 -2.81966e-05C5.31771 0.317579 5.51965 1.7324 6.09663 2.91621C7.76987 6.35214 8.98153 9.9613 9.52966 13.7437C9.64506 14.581 9.81815 15.4473 9.27002 16.3712Z" transform="translate(731.115 612.239)" fill="#F0572A"/>
<path d="M13.2363 1.79003C13.1786 3.63793 12.0824 5.11046 11.2169 6.43864C9.22633 9.44146 7.03381 12.3577 4.37971 14.8697C3.68733 15.5338 2.99496 15.8514 2.07179 15.707C0.456246 15.476 -0.380371 14.119 0.167759 12.5887C0.369702 12.069 0.629339 11.5492 0.975527 11.0873C3.68733 7.50698 6.54338 4.07103 10.0053 1.1837C10.2937 0.952714 10.6399 0.750593 10.8996 0.490733C11.4477 -0.000113757 12.0247 -0.202206 12.7171 0.259768C13.2652 0.663994 13.3806 1.21257 13.2363 1.79003Z" transform="translate(594.682 383.418)" fill="#F0572A"/>
<path d="M0.0048731 4.29369C-0.0239759 3.10989 0.0625728 1.98381 0.610703 0.944374C1.15883 -0.12394 2.05315 -0.297173 2.94747 0.482408C3.29366 0.800015 3.69755 1.17538 3.81294 1.60848C4.33222 3.34088 5.28424 4.87115 5.34193 6.77679C5.37078 8.3937 5.77467 9.98174 6.06316 11.5986C6.29395 12.9268 6.38049 14.255 6.43819 15.612C6.49589 17.0846 5.89007 17.9508 4.64956 18.5571C3.3802 19.1635 2.11084 18.7304 1.67811 17.4022C1.36077 16.4205 1.24538 15.3522 1.04344 14.3127C0.379912 10.9634 0.6684 7.58525 0.0048731 4.29369Z" transform="translate(657.553 264.873)" fill="#F0572A"/>
<path d="M7.12782 -7.04912e-06C8.97413 1.73239 8.42601 4.01338 7.96443 5.89013C7.35861 8.28661 6.86817 10.712 6.14696 13.0796C5.85847 14.0035 5.5123 14.8697 5.02187 15.707C4.24296 17.0641 3.52174 17.3528 2.22355 16.9486C0.752273 16.5155 0.0599027 15.707 0.00220547 14.35C-0.0266431 13.4838 0.232994 12.6753 0.434935 11.838C1.38694 8.05562 2.85821 4.47535 4.84877 1.12606C5.36804 0.288732 6.14696 0.0288662 7.12782 -7.04912e-06Z" transform="translate(702.936 259.465)" fill="#F0572A"/>
<path d="M6.93511 3.90333C6.58892 6.70404 6.38699 10.2555 5.14649 13.5759C4.71375 14.7597 4.68489 16.0013 4.25216 17.1851C3.84827 18.2534 3.1559 18.7154 2.08849 18.6576C1.04992 18.5999 0.126762 17.6759 0.0402154 16.6365C-0.0174825 16.1745 -0.0174896 15.6837 0.0690574 15.1928C0.819131 10.9773 1.56921 6.76182 2.72317 2.63293C2.92511 1.88222 3.18475 1.13151 3.79058 0.640659C4.36756 0.178685 5.05994 -0.254408 5.86771 0.178692C6.47354 0.525172 6.93511 0.958244 6.93511 1.73782C6.93511 2.28642 6.93511 2.74839 6.93511 3.90333Z" transform="translate(749.893 385.953)" fill="#F0572A"/>
<path d="M8.95117 11.541C8.92232 11.7719 8.95118 12.0896 8.89348 12.3494C8.66269 13.1579 8.48959 14.0818 7.59527 14.4572C6.58556 14.8903 6.03742 14.0529 5.40274 13.5043C4.50842 12.7536 4.10454 11.6565 3.52756 10.6748C2.17165 8.36494 1.30618 5.85301 0.296462 3.39881C-0.309368 1.92629 -0.0208757 1.4932 1.47927 0.800246C1.91201 0.598135 2.34474 0.367145 2.77748 0.251653C5.11425 -0.441298 6.18167 0.280547 7.01829 2.61925C7.82606 4.84247 8.51844 7.09454 8.72038 9.46212C8.80693 10.1551 8.89347 10.8191 8.95117 11.541Z" transform="translate(651.752 397.517)" fill="#F0572A"/>
<path d="M0.0256506 2.27683C0.804574 1.67048 1.5258 1.03526 2.33357 0.544408C3.60293 -0.264054 4.35299 -0.2063 5.33386 0.948646C6.77631 2.62332 7.93028 4.50009 8.62266 6.63674C8.96884 7.61844 9.17079 8.68677 9.83432 9.49524C10.7286 10.5636 10.469 11.8629 10.4401 13.0756C10.4113 14.2016 9.48812 14.6347 8.36301 14.1728C7.84373 13.9706 7.26675 13.7108 6.89172 13.3065C4.06451 10.3037 1.6412 7.04096 0.0256506 3.20077C-0.0320474 3.02753 0.0256506 2.82543 0.0256506 2.27683Z" transform="translate(747.512 546.297)" fill="#F0572A"/>
<path d="M5.86014 14.0069C6.17747 14.7576 5.34085 15.8259 4.90811 16.9519C4.61963 17.7315 3.9561 18.1935 3.09063 18.0491C2.31171 17.9336 1.82128 17.5872 1.64818 16.6055C1.2443 14.3822 0.176884 12.1878 0.148035 9.96459C0.119186 7.2505 -0.0250591 4.50753 0.00378983 1.79344C0.00378983 0.927238 0.580771 0.407511 1.33084 0.0899042C1.93667 -0.169956 2.4271 0.176528 2.88869 0.580755C3.63876 1.21597 4.27344 1.9378 4.38884 2.91949C4.87927 6.41316 5.34085 9.90685 5.86014 14.0069Z" transform="translate(688.654 214.102)" fill="#F0572A"/>
<path d="M11.5576 2.56331C11.4422 4.15136 10.5191 5.10419 9.76899 6.02815C8.15346 8.0493 6.16289 9.72396 4.11462 11.2831C3.27801 11.9184 2.29715 12.3515 1.17205 11.8029C0.133489 11.2831 -0.299244 10.4458 0.220035 9.46408C1.80672 6.40348 3.68189 3.48723 6.07634 1.00409C7.63418 -0.612829 10.0286 -0.208598 11.2114 1.72594C11.4134 2.07242 11.4999 2.44782 11.5576 2.56331Z" transform="translate(581.102 777.199)" fill="#F0572A"/>
<path d="M0 11.383C1.09626 9.27525 2.19252 7.16751 3.28877 5.05974C4.09654 3.52944 5.1351 2.14351 6.28906 0.873069C6.80834 0.295597 7.38532 -0.281874 8.25079 0.15123C9.00086 0.55546 9.17396 1.21954 9.14511 2.08575C9.11626 3.76041 8.27964 5.1752 7.9623 6.76325C7.67381 8.26468 7.15453 9.70837 6.63525 11.1809C5.71208 13.8662 3.86575 14.7035 1.52899 13.6641C0.519277 13.2021 0.317338 12.307 0 11.383Z" transform="translate(633.76 703.154)" fill="#F0572A"/>
<path d="M3.21713 -7.04916e-06C6.07318 4.18663 6.13087 13.1951 3.36137 16.6888C1.48619 16.2268 1.63043 14.1191 0.418775 13.0796C-0.215903 12.5599 0.0437276 11.636 0.101426 10.8853C0.332217 8.05568 0.591865 5.22608 1.22654 2.42536C1.48618 1.2993 1.86123 0.433093 3.21713 -7.04916e-06Z" transform="translate(714.463 497.092)" fill="#F0572A"/>
<path d="M4.52097 7.04916e-06C5.32874 0.519727 5.67493 1.12605 5.70378 1.79014C5.84802 5.11058 6.2519 8.4599 5.06909 11.6937C4.66521 12.7909 4.08823 13.7726 2.87657 14.1768C1.43412 14.6677 0.135922 13.8881 0.0493749 12.3578C-0.066021 10.6543 -0.00832835 8.92186 0.539802 7.27608C1.11678 5.57255 1.72262 3.86903 2.35729 2.19437C2.73233 1.12606 2.84773 1.03945 4.52097 7.04916e-06Z" transform="translate(663.307 245.404)" fill="#F0572A"/>
<path d="M6.06705 7.04916e-06C7.22101 0.837334 7.19216 2.10776 7.22101 3.17608C7.3364 5.68806 5.77857 10.9719 4.56691 13.0507C4.30727 13.1085 4.04762 13.1662 3.75913 13.1951C0.153008 13.5705 -0.625915 11.7803 0.441497 8.92188C1.30697 6.61201 2.37438 4.35988 3.52834 2.19437C4.04762 1.21268 4.88424 0.346487 6.06705 7.04916e-06Z" transform="translate(748.738 419.366)" fill="#F0572A"/>
<path d="M5.57201 4.58358C5.71626 6.83567 4.85078 8.94342 4.61999 11.1378C4.53344 11.9173 4.1007 12.6103 3.14867 12.668C2.16779 12.7258 1.6485 12.2927 1.3023 11.2821C0.177177 8.07723 -0.255564 4.81455 0.148328 1.43642C0.263726 0.483608 0.754176 0.0794148 1.61966 0.0216688C2.1101 -0.00720415 2.57169 -0.00720415 3.06213 0.0216688C4.76424 0.194907 5.16813 0.570227 5.39892 2.30261C5.51432 3.0533 5.51432 3.83288 5.57201 4.58358Z" transform="translate(721.83 430.864)" fill="#F0572A"/>
<path d="M5.09144 7.04916e-06C6.27425 1.35705 6.13001 2.88733 6.21656 4.38874C6.3608 6.8141 5.06259 9.00848 5.09144 11.4338C5.09144 12.0979 4.42792 12.7909 3.96634 13.3972C3.33166 14.1768 2.52389 14.6965 1.45648 14.2345C0.389066 13.7726 -0.216759 12.5599 0.0717305 11.4338C0.821804 8.662 1.60072 5.91904 2.46619 3.17608C2.87008 1.90565 3.4759 0.692967 5.09144 7.04916e-06Z" transform="translate(708.029 466.862)" fill="#F0572A"/>
<path d="M8.03232 9.54943C6.76297 9.52056 5.55131 9.2029 4.5993 8.3367C3.38764 7.23951 2.20483 6.14232 1.05087 5.01626C-0.30503 3.65922 -0.33388 3.02406 0.877776 1.60926C2.32022 -0.0365164 4.85893 -0.96052 6.27253 1.55146C7.36879 3.51485 8.78239 5.305 9.47477 7.4705C9.90751 8.82754 9.35938 9.54943 8.03232 9.54943Z" transform="translate(594.293 775.266)" fill="#F0572A"/>
<path d="M6.62745 4.6421C6.714 6.46112 6.02162 8.13577 5.61774 9.89704C5.3581 11.1097 2.79054 12.2069 1.57888 11.8893C0.482621 11.6294 -0.123205 10.7344 0.0210396 9.52167C0.165284 8.16462 0.886512 7.00969 1.37694 5.76814C2.09817 4.00686 2.79054 2.21674 3.82911 0.628701C4.40609 -0.2375 5.4735 -0.208647 5.84854 0.7153C6.33897 1.95685 6.91594 3.19844 6.62745 4.6421Z" transform="translate(658.951 307.43)" fill="#F0572A"/>
</g>
<defs>
<clipPath id="clip0">
<rect width="764" height="1000" fill="white"/>
</clipPath>
</defs>
</svg>
