<svg width="363" height="56" viewBox="0 0 363 56" fill="none" xmlns="http://www.w3.org/2000/svg">
<g clip-path="url(#clip0)">
<path d="M17.9931 23.4175C21.8525 20.7363 24.7052 15.5413 24.5374 10.8491C24.2857 5.31904 19.9228 1.21337 14.7209 0.291686C12.12 -0.21105 9.26731 -0.127261 6.91806 1.04579C4.23321 2.38642 1.88395 5.31904 0.793225 8.08408C-1.13651 12.7763 0.625427 18.3064 4.2332 21.6579C7.92487 25.0933 13.2107 25.1771 17.6575 23.1661C18.1609 22.9148 17.7414 22.412 17.238 22.6634C13.6302 24.3392 9.2673 24.5068 5.99514 22.0769C2.55517 19.5632 0.289831 14.7034 1.04495 10.514C1.54836 7.49756 3.47807 4.73252 5.74342 2.72157C7.92486 0.87821 10.7775 0.543053 13.5463 0.87821C18.5804 1.54852 23.0272 5.06767 23.6984 10.3464C24.2857 15.0386 21.3491 20.4849 17.4897 23.1661C16.9023 23.3337 17.6575 23.6689 17.9931 23.4175Z" transform="translate(0.714844 60.708) rotate(-90)" fill="white"/>
<path d="M14.1882 10.9428C16.3697 6.50197 13.9365 2.22871 9.65754 0.385351C6.30147 -1.03907 2.02249 1.72598 0.596166 4.74239C-0.410654 6.75333 -0.0750675 8.51291 1.09956 10.4401C2.10638 12.1158 3.70052 13.5403 5.46245 14.3782C9.07022 16.1377 12.8458 13.7078 14.7755 10.6076C15.0272 10.1887 14.1043 10.1887 13.9365 10.5238C13.0975 11.9483 11.9229 13.0375 10.4126 13.7916C8.39901 14.7971 6.46928 14.3782 4.70734 13.1213C2.10639 11.278 -0.0750522 8.01017 1.35128 4.82618C2.10639 3.23419 3.19712 2.22871 4.79125 1.47461C5.96587 0.888087 7.2244 0.385351 8.56682 0.720508C9.32194 0.888086 10.0771 1.39082 10.6644 1.80977C13.8526 3.73692 15.0272 7.50744 13.3492 10.859C13.0975 11.278 14.0204 11.278 14.1882 10.9428Z" transform="translate(5.3125 56.0635) rotate(-90)" fill="white"/>
<path d="M13.4313 25.7233C12.4245 25.7233 11.4177 25.6395 10.3269 25.3881C4.45382 24.2989 0.174823 19.6905 0.00701979 14.2442C-0.160784 9.46818 2.69188 4.02188 6.80306 1.08926C6.97086 0.921682 7.22258 0.921682 7.47429 0.921682C7.72599 0.921682 7.89378 1.00547 8.06158 1.08926C9.82352 0.418946 11.6694 0 13.5152 0C16.5357 0 19.3044 1.00547 21.4019 3.01641C25.4292 6.78693 26.8556 12.6522 25.0097 17.2606C23.6673 20.4446 21.1502 23.2934 18.5493 24.634C17.0391 25.3043 15.361 25.7233 13.4313 25.7233ZM6.88697 9.63576L6.55136 10.3899C5.12504 14.0766 6.88696 17.8471 10.9981 19.6067C11.5855 19.858 12.1728 19.9418 12.844 19.9418C15.6127 19.9418 18.5493 17.9309 19.4722 15.501C20.0595 13.8252 19.8917 11.9819 19.0527 10.3061C18.0459 8.46271 17.0391 7.37345 15.5288 6.61935C14.7737 6.28419 14.0186 6.11661 13.1796 6.11661C10.9142 6.11661 8.31329 7.54103 6.80306 9.63576H6.88697Z" transform="translate(0 80.5605) rotate(-90)" fill="white"/>
<path d="M17.9931 23.4175C21.8525 20.7363 24.7052 15.5413 24.5374 10.8491C24.2857 5.31904 19.9228 1.21337 14.7209 0.291686C12.1199 -0.21105 9.2673 -0.127261 6.91806 1.04579C4.2332 2.38642 1.88394 5.31904 0.79322 8.08408C-1.13652 12.7763 0.625422 18.3064 4.23319 21.6579C7.92487 25.0933 13.2107 25.1771 17.6575 23.1661C18.1609 22.9148 17.7414 22.412 17.2379 22.6634C13.6302 24.3392 9.2673 24.5068 5.99513 22.0769C2.55517 19.5632 0.289826 14.7034 1.04494 10.514C1.54835 7.49756 3.47809 4.73252 5.74344 2.72157C7.92488 0.87821 10.7775 0.543053 13.5463 0.87821C18.5804 1.54852 23.0272 5.06767 23.6984 10.3464C24.2857 15.0386 21.3491 20.4849 17.4897 23.1661C16.9024 23.3337 17.5736 23.6689 17.9931 23.4175Z" transform="translate(0.714844 26.9707) rotate(-90)" fill="white"/>
<path d="M14.1882 10.9428C16.3697 6.50197 13.9365 2.22871 9.65753 0.385351C6.30146 -1.03907 2.02248 1.72598 0.596156 4.74239C-0.410664 6.75333 -0.0750522 8.51291 1.09957 10.4401C2.10639 12.1158 3.70051 13.5403 5.46244 14.3782C9.07021 16.1377 12.8458 13.7078 14.7755 10.6076C15.0272 10.1887 14.1043 10.1887 13.9365 10.5238C13.0975 11.9483 11.9229 13.0375 10.4127 13.7916C8.39902 14.7971 6.46927 14.3782 4.70733 13.1213C2.10638 11.278 -0.0750625 8.01017 1.35127 4.82618C2.10638 3.23419 3.19711 2.22871 4.79124 1.47461C5.96586 0.888087 7.22439 0.385351 8.56681 0.720508C9.32193 0.888086 10.077 1.39082 10.6644 1.80977C13.8526 3.73692 15.0273 7.50744 13.3492 10.859C13.1814 11.278 14.0204 11.278 14.1882 10.9428Z" transform="translate(5.3125 22.4111) rotate(-90)" fill="white"/>
<path d="M13.4313 25.7233C12.4245 25.7233 11.4177 25.6395 10.3269 25.3881C4.45381 24.2989 0.174838 19.6905 0.00703516 14.2442C-0.160768 9.46818 2.69189 4.02188 6.80307 1.08926C6.97088 0.921682 7.22257 0.921682 7.47428 0.921682C7.72598 0.921682 7.8938 1.00547 8.0616 1.08926C9.82353 0.418946 11.6694 0 13.5152 0C16.5357 0 19.3044 1.00547 21.402 3.01641C25.4292 6.78693 26.8556 12.6522 25.0097 17.2606C23.6673 20.4446 21.1503 23.2934 18.5493 24.634C17.0391 25.3043 15.361 25.7233 13.4313 25.7233ZM6.88696 9.63576L6.55135 10.3899C5.12503 14.0766 6.88698 17.8471 10.9982 19.6067C11.5855 19.858 12.1728 19.9418 12.844 19.9418C15.6127 19.9418 18.5493 17.9309 19.4722 15.501C20.0595 13.8252 19.8917 11.9819 19.0527 10.3061C18.0459 8.46271 17.0391 7.37345 15.5288 6.61935C14.7737 6.28419 14.0186 6.11661 13.1796 6.11661C10.9142 6.11661 8.3133 7.54103 6.80307 9.63576H6.88696Z" transform="translate(0 46.9072) rotate(-90)" fill="white"/>
<path d="M13.5152 25.7233C12.5084 25.7233 11.5016 25.6395 10.4108 25.3881C4.45382 24.2989 0.258745 19.6905 0.00704028 14.2442C-0.160763 9.46818 2.69187 4.02188 6.80305 1.08926C6.97086 0.921682 7.22258 0.921682 7.47428 0.921682C7.72599 0.921682 7.89378 1.00547 8.06158 1.08926C9.82351 0.418946 11.6694 0 13.5152 0C16.5356 0 19.3044 1.00547 21.402 3.01641C25.4292 6.78693 26.8556 12.6522 25.0097 17.2606C23.6673 20.4446 21.1502 23.2934 18.5493 24.634C17.123 25.3043 15.361 25.7233 13.5152 25.7233ZM6.97087 9.63576L6.63527 10.3899C5.20894 14.0766 6.97086 17.8471 11.082 19.6067C11.6694 19.858 12.2567 19.9418 12.9279 19.9418C15.6966 19.9418 18.6332 17.9309 19.5561 15.501C20.1434 13.8252 19.9756 11.9819 19.1366 10.3061C18.1298 8.46271 17.123 7.37345 15.6127 6.61935C14.8576 6.28419 14.1025 6.11661 13.2635 6.11661C10.9981 6.11661 8.39719 7.54103 6.88696 9.63576H6.97087Z" transform="translate(0 13.0039) rotate(-90)" fill="white"/>
<path d="M17.9931 23.4175C21.8525 20.7363 24.7052 15.5413 24.5374 10.8491C24.2857 5.31904 19.9228 1.21337 14.7209 0.291687C12.12 -0.211049 9.26731 -0.127261 6.91806 1.04579C4.23321 2.38642 1.88395 5.31904 0.793225 8.08408C-1.13651 12.7763 0.625427 18.3064 4.2332 21.6579C7.92487 25.0933 13.2107 25.1771 17.6575 23.1661C18.1609 22.9148 17.7414 22.412 17.238 22.6634C13.6302 24.3392 9.2673 24.5068 5.99514 22.0769C2.55517 19.5632 0.289831 14.7034 1.04495 10.514C1.54836 7.49756 3.47807 4.73251 5.74342 2.72157C7.92486 0.87821 10.7775 0.543052 13.5463 0.878209C18.5804 1.54852 23.0272 5.06767 23.6984 10.3464C24.2857 15.0386 21.3491 20.4849 17.4897 23.1661C16.9023 23.3337 17.6575 23.6689 17.9931 23.4175Z" transform="translate(49.0605 60.708) rotate(-90)" fill="white"/>
<path d="M14.1882 10.9428C16.3697 6.50197 13.9365 2.22872 9.65754 0.385352C6.30147 -1.03906 2.02249 1.72598 0.596166 4.74239C-0.410654 6.75333 -0.0750675 8.51291 1.09956 10.4401C2.10638 12.1158 3.70052 13.5403 5.46245 14.3782C9.07022 16.1377 12.8458 13.7078 14.7755 10.6076C15.0272 10.1887 14.1043 10.1887 13.9365 10.5238C13.0975 11.9483 11.9229 13.0375 10.4126 13.7916C8.39901 14.7971 6.46928 14.3782 4.70734 13.1213C2.10639 11.278 -0.0750522 8.01017 1.35128 4.82618C2.10639 3.23418 3.19712 2.22871 4.79125 1.47461C5.96587 0.888084 7.2244 0.385353 8.56682 0.72051C9.32194 0.888089 10.0771 1.39082 10.6644 1.80977C13.8526 3.73692 15.0272 7.50744 13.3492 10.859C13.0975 11.3617 14.0204 11.278 14.1882 10.9428Z" transform="translate(53.5742 56.0635) rotate(-90)" fill="white"/>
<path d="M13.4313 25.7233C12.4245 25.7233 11.4177 25.6395 10.3269 25.3881C4.45382 24.2989 0.174823 19.6905 0.00701979 14.2442C-0.160784 9.46818 2.69188 4.02188 6.80306 1.08926C6.97086 0.921683 7.22258 0.921682 7.47429 0.921682C7.72599 0.921682 7.89378 1.00547 8.06158 1.08926C9.82352 0.418947 11.6694 -1.27852e-06 13.5152 -1.27852e-06C16.5357 -1.27852e-06 19.3044 1.00547 21.4019 3.01641C25.4292 6.78693 26.8556 12.6522 25.0097 17.2606C23.6673 20.4446 21.1502 23.2934 18.5493 24.634C17.0391 25.3881 15.361 25.7233 13.4313 25.7233ZM6.88697 9.63576L6.55136 10.3899C5.12504 14.0766 6.88696 17.8471 10.9981 19.6067C11.5855 19.858 12.1728 19.9418 12.844 19.9418C15.6127 19.9418 18.5493 17.9309 19.4722 15.501C20.0595 13.8252 19.8917 11.9819 19.0527 10.3061C18.0459 8.46271 17.0391 7.37345 15.5288 6.61935C14.7737 6.28419 14.0186 6.11662 13.1796 6.11662C10.9142 6.11662 8.31329 7.54103 6.80306 9.63576H6.88697Z" transform="translate(48.2617 80.5605) rotate(-90)" fill="white"/>
<path d="M17.9931 23.4175C21.8525 20.7363 24.7052 15.5413 24.5374 10.8491C24.2857 5.31904 19.9228 1.21337 14.7209 0.291687C12.1199 -0.211049 9.2673 -0.127261 6.91806 1.04579C4.2332 2.38642 1.88394 5.31904 0.79322 8.08408C-1.13652 12.7763 0.625422 18.3064 4.23319 21.6579C7.92487 25.0933 13.2107 25.1771 17.6575 23.1661C18.1609 22.9148 17.7414 22.412 17.2379 22.6634C13.6302 24.3392 9.2673 24.5068 5.99513 22.0769C2.55517 19.5632 0.289826 14.7034 1.04494 10.514C1.54835 7.49756 3.47809 4.73251 5.74344 2.72157C7.92488 0.87821 10.7775 0.543052 13.5463 0.878209C18.5804 1.54852 23.0272 5.06767 23.6984 10.3464C24.2857 15.0386 21.3491 20.4849 17.4897 23.1661C16.9024 23.3337 17.5736 23.6689 17.9931 23.4175Z" transform="translate(49.0605 26.9707) rotate(-90)" fill="white"/>
<path d="M14.1882 10.9428C16.3697 6.50197 13.9365 2.22872 9.65753 0.385352C6.30146 -1.03906 2.02248 1.72598 0.596156 4.74239C-0.410664 6.75333 -0.0750522 8.51291 1.09957 10.4401C2.10639 12.1158 3.70051 13.5403 5.46244 14.3782C9.07021 16.1377 12.8458 13.7078 14.7755 10.6076C15.0272 10.1887 14.1043 10.1887 13.9365 10.5238C13.0975 11.9483 11.9229 13.0375 10.4127 13.7916C8.39902 14.7971 6.46927 14.3782 4.70733 13.1213C2.10638 11.278 -0.0750625 8.01017 1.35127 4.82618C2.10638 3.23418 3.19711 2.22871 4.79124 1.47461C5.96586 0.888084 7.22439 0.385353 8.56681 0.72051C9.32193 0.888089 10.077 1.39082 10.6644 1.80977C13.8526 3.73692 15.0273 7.50744 13.3492 10.859C13.1814 11.3617 14.0204 11.278 14.1882 10.9428Z" transform="translate(53.5742 22.4111) rotate(-90)" fill="white"/>
<path d="M13.4313 25.7233C12.4245 25.7233 11.4177 25.6395 10.3269 25.3881C4.45381 24.2989 0.174838 19.6905 0.00703516 14.2442C-0.160768 9.46818 2.69189 4.02188 6.80307 1.08926C6.97088 0.921683 7.22257 0.921682 7.47428 0.921682C7.72598 0.921682 7.8938 1.00547 8.0616 1.08926C9.82353 0.418947 11.6694 -1.27852e-06 13.5152 -1.27852e-06C16.5357 -1.27852e-06 19.3044 1.00547 21.402 3.01641C25.4292 6.78693 26.8556 12.6522 25.0097 17.2606C23.6673 20.4446 21.1503 23.2934 18.5493 24.634C17.0391 25.3881 15.361 25.7233 13.4313 25.7233ZM6.88696 9.63576L6.55135 10.3899C5.12503 14.0766 6.88698 17.8471 10.9982 19.6067C11.5855 19.858 12.1728 19.9418 12.844 19.9418C15.6127 19.9418 18.5493 17.9309 19.4722 15.501C20.0595 13.8252 19.8917 11.9819 19.0527 10.3061C18.0459 8.46271 17.0391 7.37345 15.5288 6.61935C14.7737 6.28419 14.0186 6.11662 13.1796 6.11662C10.9142 6.11662 8.3133 7.54103 6.80307 9.63576H6.88696Z" transform="translate(48.2617 46.9072) rotate(-90)" fill="white"/>
<path d="M13.4313 25.7233C12.4245 25.7233 11.4177 25.6395 10.3269 25.3881C4.45382 24.2989 0.174823 19.6905 0.00701979 14.2442C-0.160784 9.46818 2.69188 4.02188 6.80306 1.08926C6.97086 0.921683 7.22258 0.921682 7.47429 0.921682C7.72599 0.921682 7.89378 1.00547 8.06158 1.08926C9.82352 0.418947 11.6694 -1.27852e-06 13.5152 -1.27852e-06C16.5357 -1.27852e-06 19.3044 1.00547 21.4019 3.01641C25.4292 6.78693 26.8556 12.6522 25.0097 17.2606C23.6673 20.4446 21.1502 23.2934 18.5493 24.634C17.0391 25.3881 15.2771 25.7233 13.4313 25.7233ZM6.88697 9.63576L6.55136 10.3899C5.12504 14.0766 6.88696 17.8471 10.9981 19.6067C11.5855 19.858 12.1728 19.9418 12.844 19.9418C15.6127 19.9418 18.5493 17.9309 19.4722 15.501C20.0595 13.8252 19.8917 11.9819 19.0527 10.3061C18.0459 8.46271 17.0391 7.37345 15.5288 6.61935C14.7737 6.28419 14.0186 6.11662 13.1796 6.11662C10.9142 6.11662 8.31329 7.54103 6.80306 9.63576H6.88697Z" transform="translate(48.2617 12.9189) rotate(-90)" fill="white"/>
<path d="M17.9931 23.4175C21.8525 20.7363 24.7052 15.5413 24.5374 10.8491C24.2857 5.31904 19.9228 1.21336 14.7209 0.291683C12.12 -0.211052 9.26731 -0.127262 6.91806 1.04579C4.23321 2.38642 1.88395 5.31904 0.793225 8.08408C-1.13651 12.7763 0.625427 18.3064 4.2332 21.6579C7.92487 25.0933 13.2107 25.1771 17.6575 23.1661C18.1609 22.9148 17.7414 22.412 17.238 22.6634C13.6302 24.3392 9.2673 24.5068 5.99514 22.0769C2.55517 19.5632 0.289831 14.7034 1.04495 10.514C1.54836 7.49756 3.47807 4.73251 5.74342 2.72157C7.92486 0.878209 10.7775 0.543055 13.5463 0.878212C18.5804 1.54853 23.0272 5.06767 23.6984 10.3464C24.2857 15.0386 21.3491 20.4849 17.4897 23.1661C16.9023 23.3337 17.6575 23.6689 17.9931 23.4175Z" transform="translate(97.9082 60.708) rotate(-90)" fill="white"/>
<path d="M14.1882 10.9428C16.3697 6.50197 13.9365 2.22871 9.65754 0.385348C6.30147 -1.03907 2.02249 1.72598 0.596166 4.74239C-0.410654 6.75333 -0.0750675 8.5129 1.09956 10.4401C2.10638 12.1158 3.70052 13.5403 5.46245 14.3781C9.07022 16.1377 12.8458 13.7078 14.7755 10.6076C15.0272 10.1887 14.1043 10.1887 13.9365 10.5239C13.0975 11.9483 11.9229 13.0375 10.4126 13.7916C8.39901 14.7971 6.46928 14.3781 4.70734 13.1213C2.10639 11.2779 -0.0750522 8.01017 1.35128 4.82618C2.10639 3.23418 3.19712 2.22871 4.79125 1.47461C5.96587 0.888086 7.2244 0.38535 8.56682 0.720507C9.32194 0.888085 10.0771 1.39082 10.6644 1.80977C13.8526 3.73692 15.0272 7.50743 13.3492 10.859C13.0975 11.2779 14.0204 11.278 14.1882 10.9428Z" transform="translate(102.424 56.0635) rotate(-90)" fill="white"/>
<path d="M13.4313 25.7233C12.4245 25.7233 11.4177 25.6395 10.3269 25.3881C4.45382 24.2989 0.174823 19.6905 0.00701979 14.2442C-0.160784 9.46818 2.69188 4.02188 6.80306 1.08926C6.97086 0.921679 7.22258 0.921682 7.47429 0.921682C7.72599 0.921682 7.89378 1.00547 8.06158 1.08926C9.82352 0.418944 11.6694 1.27852e-06 13.5152 1.27852e-06C16.5357 1.27852e-06 19.3044 1.00547 21.4019 3.01641C25.4292 6.78693 26.8556 12.6522 25.0097 17.2606C23.6673 20.4446 21.1502 23.2934 18.5493 24.634C17.0391 25.3881 15.361 25.7233 13.4313 25.7233ZM6.88697 9.63576L6.55136 10.3899C5.12504 14.0766 6.88696 17.8471 10.9981 19.6067C11.5855 19.8581 12.1728 19.9418 12.844 19.9418C15.6127 19.9418 18.5493 17.9309 19.4722 15.501C20.0595 13.8252 19.8917 11.9819 19.0527 10.3061C18.0459 8.46271 17.0391 7.37346 15.5288 6.61935C14.7737 6.28419 14.0186 6.11661 13.1796 6.11661C10.9142 6.11661 8.31329 7.54103 6.80306 9.63576H6.88697Z" transform="translate(97.1133 80.5605) rotate(-90)" fill="white"/>
<path d="M17.9931 23.4175C21.8525 20.7363 24.7052 15.5413 24.5374 10.8491C24.2857 5.31904 19.9228 1.21336 14.7209 0.291683C12.1199 -0.211052 9.2673 -0.127262 6.91806 1.04579C4.2332 2.38642 1.88394 5.31904 0.79322 8.08408C-1.13652 12.7763 0.625422 18.3064 4.23319 21.6579C7.92487 25.0933 13.2107 25.1771 17.6575 23.1661C18.1609 22.9148 17.7414 22.412 17.2379 22.6634C13.6302 24.3392 9.2673 24.5068 5.99513 22.0769C2.55517 19.5632 0.289826 14.7034 1.04494 10.514C1.54835 7.49756 3.47809 4.73251 5.74344 2.72157C7.92488 0.878209 10.7775 0.543055 13.5463 0.878212C18.5804 1.54853 23.0272 5.06767 23.6984 10.3464C24.2857 15.0386 21.3491 20.4849 17.4897 23.1661C16.9024 23.3337 17.5736 23.6689 17.9931 23.4175Z" transform="translate(97.9082 26.9707) rotate(-90)" fill="white"/>
<path d="M14.1882 10.9428C16.3697 6.50197 13.9365 2.22871 9.65753 0.385348C6.30146 -1.03907 2.02248 1.72598 0.596156 4.74239C-0.410664 6.75333 -0.0750522 8.5129 1.09957 10.4401C2.10639 12.1158 3.70051 13.5403 5.46244 14.3781C9.07021 16.1377 12.8458 13.7078 14.7755 10.6076C15.0272 10.1887 14.1043 10.1887 13.9365 10.5239C13.0975 11.9483 11.9229 13.0375 10.4127 13.7916C8.39902 14.7971 6.46927 14.3781 4.70733 13.1213C2.10638 11.2779 -0.0750625 8.01017 1.35127 4.82618C2.10638 3.23418 3.19711 2.22871 4.79124 1.47461C5.96586 0.888086 7.22439 0.38535 8.56681 0.720507C9.32193 0.888085 10.077 1.39082 10.6644 1.80977C13.8526 3.73692 15.0273 7.50743 13.3492 10.859C13.1814 11.2779 14.0204 11.278 14.1882 10.9428Z" transform="translate(102.424 22.4111) rotate(-90)" fill="white"/>
<path d="M13.4313 25.7233C12.4245 25.7233 11.4177 25.6395 10.3269 25.3881C4.45381 24.2989 0.174838 19.6905 0.00703516 14.2442C-0.160768 9.46818 2.69189 4.02188 6.80307 1.08926C6.97088 0.921679 7.22257 0.921682 7.47428 0.921682C7.72598 0.921682 7.8938 1.00547 8.0616 1.08926C9.82353 0.418944 11.6694 1.27852e-06 13.5152 1.27852e-06C16.5357 1.27852e-06 19.3044 1.00547 21.402 3.01641C25.4292 6.78693 26.8556 12.6522 25.0097 17.2606C23.6673 20.4446 21.1503 23.2934 18.5493 24.634C17.0391 25.3881 15.361 25.7233 13.4313 25.7233ZM6.88696 9.63576L6.55135 10.3899C5.12503 14.0766 6.88698 17.8471 10.9982 19.6067C11.5855 19.8581 12.1728 19.9418 12.844 19.9418C15.6127 19.9418 18.5493 17.9309 19.4722 15.501C20.0595 13.8252 19.8917 11.9819 19.0527 10.3061C18.0459 8.46271 17.0391 7.37346 15.5288 6.61935C14.7737 6.28419 14.0186 6.11661 13.1796 6.11661C10.9142 6.11661 8.3133 7.54103 6.80307 9.63576H6.88696Z" transform="translate(97.1133 46.9072) rotate(-90)" fill="white"/>
<path d="M13.4313 25.7233C12.4245 25.7233 11.4177 25.6395 10.3269 25.3881C4.45382 24.2989 0.174823 19.6905 0.00701979 14.2442C-0.160784 9.46818 2.69188 4.02188 6.80306 1.08926C6.97086 0.921679 7.22258 0.921682 7.47429 0.921682C7.72599 0.921682 7.89378 1.00547 8.06158 1.08926C9.82352 0.418944 11.6694 1.27852e-06 13.5152 1.27852e-06C16.5357 1.27852e-06 19.3044 1.00547 21.4019 3.01641C25.4292 6.78693 26.8556 12.6522 25.0097 17.2606C23.6673 20.4446 21.1502 23.2934 18.5493 24.634C17.0391 25.3881 15.2771 25.7233 13.4313 25.7233ZM6.88697 9.63576L6.55136 10.3899C5.12504 14.0766 6.88696 17.8471 10.9981 19.6067C11.5855 19.8581 12.1728 19.9418 12.844 19.9418C15.6127 19.9418 18.5493 17.9309 19.4722 15.501C20.0595 13.8252 19.8917 11.9819 19.0527 10.3061C18.0459 8.46271 17.0391 7.37346 15.5288 6.61935C14.7737 6.28419 14.0186 6.11661 13.1796 6.11661C10.9142 6.11661 8.31329 7.54103 6.80306 9.63576H6.88697Z" transform="translate(97.1133 12.9189) rotate(-90)" fill="white"/>
<path d="M17.9931 23.4175C21.8525 20.7363 24.7052 15.5413 24.5374 10.8491C24.2857 5.31904 19.9228 1.21336 14.7209 0.29168C12.12 -0.211055 9.26731 -0.127258 6.91806 1.04579C4.23321 2.38642 1.88395 5.31904 0.793225 8.08408C-1.13651 12.7763 0.625427 18.3064 4.2332 21.6579C7.92487 25.0933 13.2107 25.1771 17.6575 23.1661C18.1609 22.9148 17.7414 22.4121 17.238 22.6634C13.6302 24.3392 9.2673 24.5068 5.99514 22.0769C2.55517 19.5632 0.289831 14.7034 1.04495 10.514C1.54836 7.49757 3.47807 4.73252 5.74342 2.72158C7.92486 0.878213 10.7775 0.543058 13.5463 0.878215C18.5804 1.54853 23.0272 5.06767 23.6984 10.3464C24.2857 15.0386 21.3491 20.4849 17.4897 23.1661C16.9023 23.3337 17.6575 23.6689 17.9931 23.4175Z" transform="translate(152.121 60.708) rotate(-90)" fill="white"/>
<path d="M14.1882 10.9428C16.3697 6.50197 13.9365 2.22871 9.65754 0.385351C6.30147 -1.03907 2.02249 1.72598 0.596166 4.74239C-0.410654 6.75333 -0.0750675 8.51291 1.09956 10.4401C2.10638 12.1158 3.70052 13.5403 5.46245 14.3782C9.07022 16.1377 12.8458 13.7078 14.7755 10.6076C15.0272 10.1887 14.1043 10.1887 13.9365 10.5239C13.0975 11.9483 11.9229 13.0375 10.4126 13.7916C8.39901 14.7971 6.46928 14.3781 4.70734 13.1213C2.10639 11.2779 -0.0750522 8.01017 1.35128 4.82618C2.10639 3.23419 3.19712 2.22872 4.79125 1.47461C5.96587 0.888089 7.2244 0.385346 8.56682 0.720503C9.32194 0.888081 10.0771 1.39082 10.6644 1.80977C13.8526 3.73692 15.0272 7.50744 13.3492 10.859C13.0975 11.278 14.0204 11.1942 14.1882 10.9428Z" transform="translate(156.719 56.0635) rotate(-90)" fill="white"/>
<path d="M13.4313 25.7233C12.4245 25.7233 11.4177 25.6395 10.3269 25.3881C4.45382 24.2989 0.174823 19.6905 0.00701979 14.2442C-0.160784 9.46819 2.69188 4.02188 6.80306 1.08925C6.97086 0.921676 7.22258 0.921679 7.47429 0.921679C7.72599 0.921679 7.89378 1.00547 8.06158 1.08925C9.82352 0.418941 11.6694 5.11409e-06 13.5152 5.11409e-06C16.5357 5.11409e-06 19.3044 1.00547 21.4019 3.01641C25.4292 6.78693 26.8556 12.6522 25.0097 17.2606C23.6673 20.4446 21.1502 23.2934 18.5493 24.634C17.0391 25.3881 15.361 25.7233 13.4313 25.7233ZM6.88697 9.63577L6.55136 10.3899C5.12504 14.0766 6.88696 17.8471 10.9981 19.6067C11.5855 19.858 12.1728 19.9418 12.844 19.9418C15.6127 19.9418 18.5493 17.9309 19.4722 15.501C20.0595 13.8252 19.8917 11.9819 19.0527 10.3061C18.0459 8.46271 17.0391 7.37345 15.5288 6.61935C14.7737 6.28419 14.0186 6.11661 13.1796 6.11661C10.9142 6.11661 8.31329 7.54104 6.80306 9.63577H6.88697Z" transform="translate(151.324 80.5605) rotate(-90)" fill="white"/>
<path d="M17.9931 23.4175C21.8525 20.7363 24.7052 15.5413 24.5374 10.8491C24.2857 5.31904 19.9228 1.21336 14.7209 0.29168C12.1199 -0.211055 9.2673 -0.127258 6.91806 1.04579C4.2332 2.38642 1.88394 5.31904 0.79322 8.08408C-1.13652 12.7763 0.625422 18.3064 4.23319 21.6579C7.92487 25.0933 13.2107 25.1771 17.6575 23.1661C18.1609 22.9148 17.7414 22.4121 17.2379 22.6634C13.6302 24.3392 9.2673 24.5068 5.99513 22.0769C2.55517 19.5632 0.289826 14.7034 1.04494 10.514C1.54835 7.49757 3.47809 4.73252 5.74344 2.72158C7.92488 0.878213 10.7775 0.543058 13.5463 0.878215C18.5804 1.54853 23.0272 5.06767 23.6984 10.3464C24.2857 15.0386 21.3491 20.4849 17.4897 23.1661C16.9024 23.3337 17.5736 23.6689 17.9931 23.4175Z" transform="translate(152.121 26.9707) rotate(-90)" fill="white"/>
<path d="M14.1882 10.9428C16.3697 6.50197 13.9365 2.22871 9.65753 0.385351C6.30146 -1.03907 2.02248 1.72598 0.596156 4.74239C-0.410664 6.75333 -0.0750522 8.51291 1.09957 10.4401C2.10639 12.1158 3.70051 13.5403 5.46244 14.3782C9.07021 16.1377 12.8458 13.7078 14.7755 10.6076C15.0272 10.1887 14.1043 10.1887 13.9365 10.5239C13.0975 11.9483 11.9229 13.0375 10.4127 13.7916C8.39902 14.7971 6.46927 14.3781 4.70733 13.1213C2.10638 11.2779 -0.0750625 8.01017 1.35127 4.82618C2.10638 3.23419 3.19711 2.22872 4.79124 1.47461C5.96586 0.888089 7.22439 0.385346 8.56681 0.720503C9.32193 0.888081 10.077 1.39082 10.6644 1.80977C13.8526 3.73692 15.0273 7.50744 13.3492 10.859C13.1814 11.278 14.0204 11.1942 14.1882 10.9428Z" transform="translate(156.719 22.4111) rotate(-90)" fill="white"/>
<path d="M13.4313 25.7233C12.4245 25.7233 11.4177 25.6395 10.3269 25.3881C4.45381 24.2989 0.174838 19.6905 0.00703516 14.2442C-0.160768 9.46819 2.69189 4.02188 6.80307 1.08925C6.97088 0.921676 7.22257 0.921679 7.47428 0.921679C7.72598 0.921679 7.8938 1.00547 8.0616 1.08925C9.82353 0.418941 11.6694 5.11409e-06 13.5152 5.11409e-06C16.5357 5.11409e-06 19.3044 1.00547 21.402 3.01641C25.4292 6.78693 26.8556 12.6522 25.0097 17.2606C23.6673 20.4446 21.1503 23.2934 18.5493 24.634C17.0391 25.3881 15.361 25.7233 13.4313 25.7233ZM6.88696 9.63577L6.55135 10.3899C5.12503 14.0766 6.88698 17.8471 10.9982 19.6067C11.5855 19.858 12.1728 19.9418 12.844 19.9418C15.6127 19.9418 18.5493 17.9309 19.4722 15.501C20.0595 13.8252 19.8917 11.9819 19.0527 10.3061C18.0459 8.46271 17.0391 7.37345 15.5288 6.61935C14.7737 6.28419 14.0186 6.11661 13.1796 6.11661C10.9142 6.11661 8.3133 7.54104 6.80307 9.63577H6.88696Z" transform="translate(151.324 46.9072) rotate(-90)" fill="white"/>
<path d="M13.4313 25.7233C12.4245 25.7233 11.4177 25.6395 10.3269 25.3881C4.45382 24.2989 0.174823 19.6905 0.00701979 14.2442C-0.160784 9.46819 2.69188 4.02188 6.80306 1.08925C6.97086 0.921676 7.22258 0.921679 7.47429 0.921679C7.72599 0.921679 7.89378 1.00547 8.06158 1.08925C9.82352 0.418941 11.6694 5.11409e-06 13.5152 5.11409e-06C16.5357 5.11409e-06 19.3044 1.00547 21.4019 3.01641C25.4292 6.78693 26.8556 12.6522 25.0097 17.2606C23.6673 20.4446 21.1502 23.2934 18.5493 24.634C17.0391 25.3881 15.2771 25.7233 13.4313 25.7233ZM6.88697 9.63577L6.55136 10.3899C5.12504 14.0766 6.88696 17.8471 10.9981 19.6067C11.5855 19.858 12.1728 19.9418 12.844 19.9418C15.6127 19.9418 18.5493 17.9309 19.4722 15.501C20.0595 13.8252 19.8917 11.9819 19.0527 10.3061C18.0459 8.46271 17.0391 7.37345 15.5288 6.61935C14.7737 6.28419 14.0186 6.11661 13.1796 6.11661C10.9142 6.11661 8.31329 7.54104 6.80306 9.63577H6.88697Z" transform="translate(151.324 12.9189) rotate(-90)" fill="white"/>
<path d="M17.9931 23.4175C21.8525 20.7363 24.7052 15.5413 24.5374 10.8491C24.2857 5.31905 19.9228 1.21337 14.7209 0.291691C12.12 -0.211045 9.26731 -0.127261 6.91806 1.04579C4.23321 2.38642 1.88395 5.31904 0.793225 8.08408C-1.13651 12.7763 0.625427 18.3064 4.2332 21.6579C7.92487 25.0933 13.2107 25.1771 17.6575 23.1661C18.1609 22.9148 17.7414 22.412 17.238 22.6634C13.6302 24.3392 9.2673 24.5068 5.99514 22.0769C2.55517 19.5632 0.289831 14.7034 1.04495 10.514C1.54836 7.49755 3.47807 4.73252 5.74342 2.72157C7.92486 0.87821 10.7775 0.543056 13.5463 0.878213C18.5804 1.54853 23.0272 5.06768 23.6984 10.3464C24.2857 15.0386 21.3491 20.4849 17.4897 23.1661C16.9023 23.3337 17.6575 23.6689 17.9931 23.4175Z" transform="translate(206.332 60.708) rotate(-90)" fill="white"/>
<path d="M14.1882 10.9428C16.3697 6.50195 13.9365 2.22871 9.65754 0.385348C6.30147 -1.03907 2.02249 1.72597 0.596166 4.74239C-0.410654 6.75333 -0.0750675 8.51292 1.09956 10.4401C2.10638 12.1159 3.70052 13.5403 5.46245 14.3781C9.07022 16.1377 12.8458 13.7078 14.7755 10.6076C15.0272 10.1887 14.1043 10.1887 13.9365 10.5238C13.0975 11.9483 11.9229 13.0375 10.4126 13.7916C8.39901 14.7971 6.46928 14.3781 4.70734 13.1213C2.10639 11.2779 -0.0750522 8.01017 1.35128 4.82618C2.10639 3.23418 3.19712 2.22871 4.79125 1.47461C5.96587 0.888086 7.2244 0.385356 8.56682 0.720513C9.32194 0.888091 10.0771 1.39082 10.6644 1.80976C13.8526 3.73692 15.0272 7.50745 13.3492 10.859C13.0975 11.278 14.0204 11.2779 14.1882 10.9428Z" transform="translate(210.932 56.0635) rotate(-90)" fill="white"/>
<path d="M13.4313 25.7233C12.4245 25.7233 11.4177 25.6395 10.3269 25.3881C4.45382 24.2989 0.174823 19.6905 0.00701979 14.2442C-0.160784 9.46818 2.69188 4.02188 6.80306 1.08926C6.97086 0.921679 7.22258 0.921682 7.47429 0.921682C7.72599 0.921682 7.89378 1.00547 8.06158 1.08926C9.82352 0.418944 11.6694 -5.11409e-06 13.5152 -5.11409e-06C16.5357 -5.11409e-06 19.3044 1.00547 21.4019 3.01641C25.4292 6.78693 26.8556 12.6522 25.0097 17.2606C23.6673 20.4446 21.1502 23.2934 18.5493 24.634C17.0391 25.3043 15.361 25.7233 13.4313 25.7233ZM6.88697 9.63576L6.55136 10.3899C5.12504 14.0766 6.88696 17.8471 10.9981 19.6067C11.5855 19.858 12.1728 19.9418 12.844 19.9418C15.6127 19.9418 18.5493 17.9309 19.4722 15.501C20.0595 13.8252 19.8917 11.9819 19.0527 10.3061C18.0459 8.46272 17.0391 7.37346 15.5288 6.61935C14.7737 6.28419 14.0186 6.11661 13.1796 6.11661C10.9142 6.11661 8.31329 7.54103 6.80306 9.63576H6.88697Z" transform="translate(205.619 80.5605) rotate(-90)" fill="white"/>
<path d="M17.9931 23.4175C21.8525 20.7363 24.7052 15.5413 24.5374 10.8491C24.2857 5.31905 19.9228 1.21337 14.7209 0.291691C12.1199 -0.211045 9.2673 -0.127261 6.91806 1.04579C4.2332 2.38642 1.88394 5.31904 0.79322 8.08408C-1.13652 12.7763 0.625422 18.3064 4.23319 21.6579C7.92487 25.0933 13.2107 25.1771 17.6575 23.1661C18.1609 22.9148 17.7414 22.412 17.2379 22.6634C13.6302 24.3392 9.2673 24.5068 5.99513 22.0769C2.55517 19.5632 0.289826 14.7034 1.04494 10.514C1.54835 7.49755 3.47809 4.73252 5.74344 2.72157C7.92488 0.87821 10.7775 0.543056 13.5463 0.878213C18.5804 1.54853 23.0272 5.06768 23.6984 10.3464C24.2857 15.0386 21.3491 20.4849 17.4897 23.1661C16.9024 23.3337 17.5736 23.6689 17.9931 23.4175Z" transform="translate(206.332 26.9707) rotate(-90)" fill="white"/>
<path d="M14.1882 10.9428C16.3697 6.50195 13.9365 2.22871 9.65753 0.385348C6.30146 -1.03907 2.02248 1.72597 0.596156 4.74239C-0.410664 6.75333 -0.0750522 8.51292 1.09957 10.4401C2.10639 12.1159 3.70051 13.5403 5.46244 14.3781C9.07021 16.1377 12.8458 13.7078 14.7755 10.6076C15.0272 10.1887 14.1043 10.1887 13.9365 10.5238C13.0975 11.9483 11.9229 13.0375 10.4127 13.7916C8.39902 14.7971 6.46927 14.3781 4.70733 13.1213C2.10638 11.2779 -0.0750625 8.01017 1.35127 4.82618C2.10638 3.23418 3.19711 2.22871 4.79124 1.47461C5.96586 0.888086 7.22439 0.385356 8.56681 0.720513C9.32193 0.888091 10.077 1.39082 10.6644 1.80976C13.8526 3.73692 15.0273 7.50745 13.3492 10.859C13.1814 11.278 14.0204 11.2779 14.1882 10.9428Z" transform="translate(210.932 22.4111) rotate(-90)" fill="white"/>
<path d="M13.4313 25.7233C12.4245 25.7233 11.4177 25.6395 10.3269 25.3881C4.45381 24.2989 0.174838 19.6905 0.00703516 14.2442C-0.160768 9.46818 2.69189 4.02188 6.80307 1.08926C6.97088 0.921679 7.22257 0.921682 7.47428 0.921682C7.72598 0.921682 7.8938 1.00547 8.0616 1.08926C9.82353 0.418944 11.6694 -5.11409e-06 13.5152 -5.11409e-06C16.5357 -5.11409e-06 19.3044 1.00547 21.402 3.01641C25.4292 6.78693 26.8556 12.6522 25.0097 17.2606C23.6673 20.4446 21.1503 23.2934 18.5493 24.634C17.0391 25.3043 15.361 25.7233 13.4313 25.7233ZM6.88696 9.63576L6.55135 10.3899C5.12503 14.0766 6.88698 17.8471 10.9982 19.6067C11.5855 19.858 12.1728 19.9418 12.844 19.9418C15.6127 19.9418 18.5493 17.9309 19.4722 15.501C20.0595 13.8252 19.8917 11.9819 19.0527 10.3061C18.0459 8.46272 17.0391 7.37346 15.5288 6.61935C14.7737 6.28419 14.0186 6.11661 13.1796 6.11661C10.9142 6.11661 8.3133 7.54103 6.80307 9.63576H6.88696Z" transform="translate(205.619 46.9072) rotate(-90)" fill="white"/>
<path d="M13.4313 25.7233C12.4245 25.7233 11.4177 25.6395 10.3269 25.3881C4.45382 24.2989 0.174823 19.6905 0.00701979 14.2442C-0.160784 9.46818 2.69188 4.02188 6.80306 1.08926C6.97086 0.921679 7.22258 0.921682 7.47429 0.921682C7.72599 0.921682 7.89378 1.00547 8.06158 1.08926C9.82352 0.418944 11.6694 -5.11409e-06 13.5152 -5.11409e-06C16.5357 -5.11409e-06 19.3044 1.00547 21.4019 3.01641C25.4292 6.78693 26.8556 12.6522 25.0097 17.2606C23.6673 20.4446 21.1502 23.2934 18.5493 24.634C17.0391 25.3043 15.2771 25.7233 13.4313 25.7233ZM6.88697 9.63576L6.55136 10.3899C5.12504 14.0766 6.88696 17.8471 10.9981 19.6067C11.5855 19.858 12.1728 19.9418 12.844 19.9418C15.6127 19.9418 18.5493 17.9309 19.4722 15.501C20.0595 13.8252 19.8917 11.9819 19.0527 10.3061C18.0459 8.46272 17.0391 7.37346 15.5288 6.61935C14.7737 6.28419 14.0186 6.11661 13.1796 6.11661C10.9142 6.11661 8.31329 7.54103 6.80306 9.63576H6.88697Z" transform="translate(205.619 12.9189) rotate(-90)" fill="white"/>
<path d="M17.9931 23.4175C21.8525 20.7363 24.7052 15.5413 24.5374 10.8491C24.2857 5.31904 19.9228 1.21336 14.7209 0.29168C12.12 -0.211055 9.26731 -0.127271 6.91806 1.04578C4.23321 2.38641 1.88395 5.31905 0.793225 8.0841C-1.13651 12.7763 0.625427 18.3064 4.2332 21.6579C7.92487 25.0933 13.2107 25.1771 17.6575 23.1662C18.1609 22.9148 17.7414 22.4121 17.238 22.6634C13.6302 24.3392 9.2673 24.5068 5.99514 22.0769C2.55517 19.5632 0.289831 14.7034 1.04495 10.514C1.54836 7.49757 3.47807 4.73251 5.74342 2.72156C7.92486 0.8782 10.7775 0.543058 13.5463 0.878215C18.5804 1.54853 23.0272 5.06767 23.6984 10.3464C24.2857 15.0386 21.3491 20.4849 17.4897 23.1662C16.9023 23.3337 17.6575 23.6689 17.9931 23.4175Z" transform="translate(255.182 60.708) rotate(-90)" fill="white"/>
<path d="M14.1882 10.9428C16.3697 6.50197 13.9365 2.22871 9.65754 0.385351C6.30147 -1.03907 2.02249 1.72599 0.596166 4.7424C-0.410654 6.75334 -0.0750675 8.51291 1.09956 10.4401C2.10638 12.1158 3.70052 13.5403 5.46245 14.3782C9.07022 16.1377 12.8458 13.7078 14.7755 10.6076C15.0272 10.1887 14.1043 10.1887 13.9365 10.5239C13.0975 11.9483 11.9229 13.0375 10.4126 13.7916C8.39901 14.7971 6.46928 14.3782 4.70734 13.1213C2.10639 11.278 -0.0750522 8.01016 1.35128 4.82617C2.10639 3.23417 3.19712 2.2287 4.79125 1.4746C5.96587 0.888076 7.2244 0.385346 8.56682 0.720503C9.32194 0.888081 10.0771 1.39083 10.6644 1.80978C13.8526 3.73693 15.0272 7.50744 13.3492 10.859C13.0975 11.278 14.0204 11.278 14.1882 10.9428Z" transform="translate(259.779 56.0635) rotate(-90)" fill="white"/>
<path d="M13.4313 25.7233C12.4245 25.7233 11.4177 25.6395 10.3269 25.3881C4.45382 24.2989 0.174823 19.6905 0.00701979 14.2442C-0.160784 9.46819 2.69188 4.02188 6.80306 1.08925C6.97086 0.921676 7.22258 0.921692 7.47429 0.921692C7.72599 0.921692 7.89378 1.00547 8.06158 1.08925C9.82352 0.418941 11.6694 5.11409e-06 13.5152 5.11409e-06C16.5357 5.11409e-06 19.3044 1.00548 21.4019 3.01642C25.4292 6.78694 26.8556 12.6522 25.0097 17.2606C23.6673 20.4446 21.1502 23.2934 18.5493 24.634C17.0391 25.3881 15.361 25.7233 13.4313 25.7233ZM6.88697 9.71956L6.55136 10.4737C5.12504 14.1604 6.88696 17.9309 10.9981 19.6905C11.5855 19.9418 12.1728 20.0256 12.844 20.0256C15.6127 20.0256 18.5493 18.0147 19.4722 15.5848C20.0595 13.909 19.8917 12.0656 19.0527 10.3899C18.0459 8.5465 17.0391 7.45725 15.5288 6.70314C14.7737 6.36799 14.0186 6.2004 13.1796 6.2004C10.9142 6.2004 8.31329 7.62483 6.80306 9.71956H6.88697Z" transform="translate(254.385 80.5605) rotate(-90)" fill="white"/>
<path d="M17.9931 23.4175C21.8525 20.7363 24.7052 15.5413 24.5374 10.8491C24.2857 5.31904 19.9228 1.21336 14.7209 0.29168C12.1199 -0.211055 9.2673 -0.127271 6.91806 1.04578C4.2332 2.38641 1.88394 5.31905 0.79322 8.0841C-1.13652 12.7763 0.625422 18.3064 4.23319 21.6579C7.92487 25.0933 13.2107 25.1771 17.6575 23.1662C18.1609 22.9148 17.7414 22.4121 17.2379 22.6634C13.6302 24.3392 9.2673 24.5068 5.99513 22.0769C2.55517 19.5632 0.289826 14.7034 1.04494 10.514C1.54835 7.49757 3.47809 4.73251 5.74344 2.72156C7.92488 0.8782 10.7775 0.543058 13.5463 0.878215C18.5804 1.54853 23.0272 5.06767 23.6984 10.3464C24.2857 15.0386 21.3491 20.4849 17.4897 23.1662C16.9024 23.3337 17.5736 23.6689 17.9931 23.4175Z" transform="translate(255.182 26.9707) rotate(-90)" fill="white"/>
<path d="M14.1882 10.9428C16.3697 6.50197 13.9365 2.22871 9.65753 0.385351C6.30146 -1.03907 2.02248 1.72599 0.596156 4.7424C-0.410664 6.75334 -0.0750522 8.51291 1.09957 10.4401C2.10639 12.1158 3.70051 13.5403 5.46244 14.3782C9.07021 16.1377 12.8458 13.7078 14.7755 10.6076C15.0272 10.1887 14.1043 10.1887 13.9365 10.5239C13.0975 11.9483 11.9229 13.0375 10.4127 13.7916C8.39902 14.7971 6.46927 14.3782 4.70733 13.1213C2.10638 11.278 -0.0750625 8.01016 1.35127 4.82617C2.10638 3.23417 3.19711 2.2287 4.79124 1.4746C5.96586 0.888076 7.22439 0.385346 8.56681 0.720503C9.32193 0.888081 10.077 1.39083 10.6644 1.80978C13.8526 3.73693 15.0273 7.50744 13.3492 10.859C13.1814 11.278 14.0204 11.278 14.1882 10.9428Z" transform="translate(259.779 22.4111) rotate(-90)" fill="white"/>
<path d="M13.4313 25.7233C12.4245 25.7233 11.4177 25.6395 10.3269 25.3881C4.45381 24.2989 0.174838 19.6905 0.00703516 14.2442C-0.160768 9.46819 2.69189 4.02188 6.80307 1.08925C6.97088 0.921676 7.22257 0.921692 7.47428 0.921692C7.72598 0.921692 7.8938 1.00547 8.0616 1.08925C9.82353 0.418941 11.6694 5.11409e-06 13.5152 5.11409e-06C16.5357 5.11409e-06 19.3044 1.00548 21.402 3.01642C25.4292 6.78694 26.8556 12.6522 25.0097 17.2606C23.6673 20.4446 21.1503 23.2934 18.5493 24.634C17.0391 25.3881 15.361 25.7233 13.4313 25.7233ZM6.88696 9.71956L6.55135 10.4737C5.12503 14.1604 6.88698 17.9309 10.9982 19.6905C11.5855 19.9418 12.1728 20.0256 12.844 20.0256C15.6127 20.0256 18.5493 18.0147 19.4722 15.5848C20.0595 13.909 19.8917 12.0656 19.0527 10.3899C18.0459 8.5465 17.0391 7.45725 15.5288 6.70314C14.7737 6.36799 14.0186 6.2004 13.1796 6.2004C10.9142 6.2004 8.3133 7.62483 6.80307 9.71956H6.88696Z" transform="translate(254.385 46.9072) rotate(-90)" fill="white"/>
<path d="M13.4313 25.7233C12.4245 25.7233 11.4177 25.6395 10.3269 25.3881C4.45382 24.2989 0.174823 19.6905 0.00701979 14.2442C-0.160784 9.46819 2.69188 4.02188 6.80306 1.08925C6.97086 0.921676 7.22258 0.921692 7.47429 0.921692C7.72599 0.921692 7.89378 1.00547 8.06158 1.08925C9.82352 0.418941 11.6694 5.11409e-06 13.5152 5.11409e-06C16.5357 5.11409e-06 19.3044 1.00548 21.4019 3.01642C25.4292 6.78694 26.8556 12.6522 25.0097 17.2606C23.6673 20.4446 21.1502 23.2934 18.5493 24.634C17.0391 25.3881 15.2771 25.7233 13.4313 25.7233ZM6.88697 9.71956L6.55136 10.4737C5.12504 14.1604 6.88696 17.9309 10.9981 19.6905C11.5855 19.9418 12.1728 20.0256 12.844 20.0256C15.6127 20.0256 18.5493 18.0147 19.4722 15.5848C20.0595 13.909 19.8917 12.0656 19.0527 10.3899C18.0459 8.5465 17.0391 7.45725 15.5288 6.70314C14.7737 6.36799 14.0186 6.2004 13.1796 6.2004C10.9142 6.2004 8.31329 7.62483 6.80306 9.71956H6.88697Z" transform="translate(254.385 12.9189) rotate(-90)" fill="white"/>
<path d="M17.9931 23.4175C21.8525 20.7363 24.7052 15.5413 24.5374 10.8491C24.2857 5.31904 19.9228 1.21336 14.7209 0.291675C12.12 -0.21106 9.26731 -0.12725 6.91806 1.0458C4.23321 2.38643 1.88395 5.31905 0.793225 8.08409C-1.13651 12.7763 0.625427 18.3064 4.2332 21.6579C7.92487 25.0933 13.2107 25.1771 17.6575 23.1662C18.1609 22.9148 17.7414 22.412 17.238 22.6634C13.6302 24.3392 9.2673 24.5068 5.99514 22.0769C2.55517 19.5632 0.289831 14.7034 1.04495 10.514C1.54836 7.49756 3.47807 4.73253 5.74342 2.72158C7.92486 0.87822 10.7775 0.543053 13.5463 0.87821C18.5804 1.54852 23.0272 5.06766 23.6984 10.3464C24.2857 15.0386 21.3491 20.4849 17.4897 23.1662C16.9023 23.3337 17.6575 23.6689 17.9931 23.4175Z" transform="translate(304.533 60.708) rotate(-90)" fill="white"/>
<path d="M14.1882 10.9428C16.3697 6.50197 13.9365 2.22871 9.65754 0.385346C6.30147 -1.03907 2.02249 1.72598 0.596166 4.7424C-0.410654 6.75334 -0.0750675 8.5129 1.09956 10.4401C2.10638 12.1158 3.70052 13.5403 5.46245 14.3782C9.07022 16.1377 12.8458 13.7078 14.7755 10.6076C15.0272 10.1887 14.1043 10.1887 13.9365 10.5238C13.0975 11.9483 11.9229 13.0375 10.4126 13.7916C8.39901 14.7971 6.46928 14.3782 4.70734 13.1213C2.10639 11.278 -0.0750522 8.01018 1.35128 4.82619C2.10639 3.2342 3.19712 2.22872 4.79125 1.47462C5.96587 0.888097 7.2244 0.385341 8.56682 0.720498C9.32194 0.888076 10.0771 1.39083 10.6644 1.80977C13.8526 3.73693 15.0272 7.50743 13.3492 10.859C13.0975 11.2779 14.0204 11.278 14.1882 10.9428Z" transform="translate(309.131 56.0635) rotate(-90)" fill="white"/>
<path d="M13.4313 25.7233C12.4245 25.7233 11.4177 25.6395 10.3269 25.3881C4.45382 24.2989 0.174823 19.6905 0.00701979 14.2442C-0.160784 9.46818 2.69188 4.02187 6.80306 1.08925C6.97086 0.921671 7.22258 0.921687 7.47429 0.921687C7.72599 0.921687 7.89378 1.00546 8.06158 1.08925C9.82352 0.418936 11.6694 0 13.5152 0C16.5357 0 19.3044 1.00548 21.4019 3.01642C25.4292 6.78693 26.8556 12.6522 25.0097 17.2606C23.6673 20.4446 21.1502 23.2934 18.5493 24.634C17.0391 25.3881 15.361 25.7233 13.4313 25.7233ZM6.88697 9.71956L6.55136 10.4737C5.12504 14.1604 6.88696 17.9309 10.9981 19.6905C11.5855 19.9418 12.1728 20.0256 12.844 20.0256C15.6127 20.0256 18.5493 18.0147 19.4722 15.5848C20.0595 13.909 19.8917 12.0656 19.0527 10.3899C18.0459 8.5465 17.0391 7.45724 15.5288 6.70314C14.7737 6.36798 14.0186 6.2004 13.1796 6.2004C10.9142 6.2004 8.31329 7.62483 6.80306 9.71956H6.88697Z" transform="translate(303.736 80.5605) rotate(-90)" fill="white"/>
<path d="M17.9931 23.4175C21.8525 20.7363 24.7052 15.5413 24.5374 10.8491C24.2857 5.31904 19.9228 1.21336 14.7209 0.291675C12.1199 -0.21106 9.2673 -0.12725 6.91806 1.0458C4.2332 2.38643 1.88394 5.31905 0.79322 8.08409C-1.13652 12.7763 0.625422 18.3064 4.23319 21.6579C7.92487 25.0933 13.2107 25.1771 17.6575 23.1662C18.1609 22.9148 17.7414 22.412 17.2379 22.6634C13.6302 24.3392 9.2673 24.5068 5.99513 22.0769C2.55517 19.5632 0.289826 14.7034 1.04494 10.514C1.54835 7.49756 3.47809 4.73253 5.74344 2.72158C7.92488 0.87822 10.7775 0.543053 13.5463 0.87821C18.5804 1.54852 23.0272 5.06766 23.6984 10.3464C24.2857 15.0386 21.3491 20.4849 17.4897 23.1662C16.9024 23.3337 17.5736 23.6689 17.9931 23.4175Z" transform="translate(304.533 26.9707) rotate(-90)" fill="white"/>
<path d="M14.1882 10.9428C16.3697 6.50197 13.9365 2.22871 9.65753 0.385346C6.30146 -1.03907 2.02248 1.72598 0.596156 4.7424C-0.410664 6.75334 -0.0750522 8.5129 1.09957 10.4401C2.10639 12.1158 3.70051 13.5403 5.46244 14.3782C9.07021 16.1377 12.8458 13.7078 14.7755 10.6076C15.0272 10.1887 14.1043 10.1887 13.9365 10.5238C13.0975 11.9483 11.9229 13.0375 10.4127 13.7916C8.39902 14.7971 6.46927 14.3782 4.70733 13.1213C2.10638 11.278 -0.0750625 8.01018 1.35127 4.82619C2.10638 3.2342 3.19711 2.22872 4.79124 1.47462C5.96586 0.888097 7.22439 0.385341 8.56681 0.720498C9.32193 0.888076 10.077 1.39083 10.6644 1.80977C13.8526 3.73693 15.0273 7.50743 13.3492 10.859C13.1814 11.2779 14.0204 11.278 14.1882 10.9428Z" transform="translate(309.131 22.4111) rotate(-90)" fill="white"/>
<path d="M13.4313 25.7233C12.4245 25.7233 11.4177 25.6395 10.3269 25.3881C4.45381 24.2989 0.174838 19.6905 0.00703516 14.2442C-0.160768 9.46818 2.69189 4.02187 6.80307 1.08925C6.97088 0.921671 7.22257 0.921687 7.47428 0.921687C7.72598 0.921687 7.8938 1.00546 8.0616 1.08925C9.82353 0.418936 11.6694 0 13.5152 0C16.5357 0 19.3044 1.00548 21.402 3.01642C25.4292 6.78693 26.8556 12.6522 25.0097 17.2606C23.6673 20.4446 21.1503 23.2934 18.5493 24.634C17.0391 25.3881 15.361 25.7233 13.4313 25.7233ZM6.88696 9.71956L6.55135 10.4737C5.12503 14.1604 6.88698 17.9309 10.9982 19.6905C11.5855 19.9418 12.1728 20.0256 12.844 20.0256C15.6127 20.0256 18.5493 18.0147 19.4722 15.5848C20.0595 13.909 19.8917 12.0656 19.0527 10.3899C18.0459 8.5465 17.0391 7.45724 15.5288 6.70314C14.7737 6.36798 14.0186 6.2004 13.1796 6.2004C10.9142 6.2004 8.3133 7.62483 6.80307 9.71956H6.88696Z" transform="translate(303.736 46.9072) rotate(-90)" fill="white"/>
<path d="M13.4313 25.7233C12.4245 25.7233 11.4177 25.6395 10.3269 25.3881C4.45382 24.2989 0.174823 19.6905 0.00701979 14.2442C-0.160784 9.46818 2.69188 4.02187 6.80306 1.08925C6.97086 0.921671 7.22258 0.921687 7.47429 0.921687C7.72599 0.921687 7.89378 1.00546 8.06158 1.08925C9.82352 0.418936 11.6694 0 13.5152 0C16.5357 0 19.3044 1.00548 21.4019 3.01642C25.4292 6.78693 26.8556 12.6522 25.0097 17.2606C23.6673 20.4446 21.1502 23.2934 18.5493 24.634C17.0391 25.3881 15.2771 25.7233 13.4313 25.7233ZM6.88697 9.71956L6.55136 10.4737C5.12504 14.1604 6.88696 17.9309 10.9981 19.6905C11.5855 19.9418 12.1728 20.0256 12.844 20.0256C15.6127 20.0256 18.5493 18.0147 19.4722 15.5848C20.0595 13.909 19.8917 12.0656 19.0527 10.3899C18.0459 8.5465 17.0391 7.45724 15.5288 6.70314C14.7737 6.36798 14.0186 6.2004 13.1796 6.2004C10.9142 6.2004 8.31329 7.62483 6.80306 9.71956H6.88697Z" transform="translate(303.736 12.9189) rotate(-90)" fill="white"/>
<path d="M17.9931 23.4175C21.8525 20.7363 24.7052 15.5413 24.5374 10.8491C24.2857 5.31904 19.9228 1.21336 14.7209 0.29168C12.12 -0.211055 9.26731 -0.127271 6.91806 1.04578C4.23321 2.38641 1.88395 5.31905 0.793225 8.0841C-1.13651 12.7763 0.625427 18.3064 4.2332 21.6579C7.92487 25.0933 13.2107 25.1771 17.6575 23.1662C18.1609 22.9148 17.7414 22.4121 17.238 22.6634C13.6302 24.3392 9.2673 24.5068 5.99514 22.0769C2.55517 19.5632 0.289831 14.7034 1.04495 10.514C1.54836 7.49757 3.47807 4.73251 5.74342 2.72156C7.92486 0.8782 10.7775 0.543058 13.5463 0.878215C18.5804 1.54853 23.0272 5.06767 23.6984 10.3464C24.2857 15.0386 21.3491 20.4849 17.4897 23.1662C16.9023 23.3337 17.6575 23.6689 17.9931 23.4175Z" transform="translate(354.473 60.708) rotate(-90)" fill="white"/>
<path d="M14.1882 10.9428C16.3697 6.50197 13.9365 2.22871 9.65754 0.385346C6.30147 -1.03907 2.02249 1.72598 0.596166 4.7424C-0.410654 6.75334 -0.0750675 8.5129 1.09956 10.4401C2.10638 12.1158 3.70052 13.5403 5.46245 14.3782C9.07022 16.1377 12.8458 13.7078 14.7755 10.6076C15.0272 10.1887 14.1043 10.1887 13.9365 10.5238C13.0975 11.9483 11.9229 13.0375 10.4126 13.7916C8.39901 14.7971 6.46928 14.3782 4.70734 13.1213C2.10639 11.278 -0.0750522 8.01018 1.35128 4.82619C2.10639 3.2342 3.19712 2.22872 4.79125 1.47462C5.96587 0.888097 7.2244 0.385341 8.56682 0.720498C9.32194 0.888076 10.0771 1.39083 10.6644 1.80977C13.8526 3.73693 15.0272 7.50743 13.3492 10.859C13.0975 11.2779 14.0204 11.278 14.1882 10.9428Z" transform="translate(358.986 56.0635) rotate(-90)" fill="white"/>
<path d="M13.4313 25.7233C12.4245 25.7233 11.4177 25.6395 10.3269 25.3881C4.45382 24.2989 0.174823 19.6905 0.00701979 14.2442C-0.160784 9.46819 2.69188 4.02188 6.80306 1.08925C6.97086 0.921676 7.22258 0.921692 7.47429 0.921692C7.72599 0.921692 7.89378 1.00547 8.06158 1.08925C9.82352 0.418941 11.6694 5.11409e-06 13.5152 5.11409e-06C16.5357 5.11409e-06 19.3044 1.00548 21.4019 3.01642C25.4292 6.78694 26.8556 12.6522 25.0097 17.2606C23.6673 20.4446 21.1502 23.2934 18.5493 24.634C17.0391 25.3043 15.361 25.7233 13.4313 25.7233ZM6.88697 9.63577L6.55136 10.3899C5.12504 14.0766 6.88696 17.8471 10.9981 19.6067C11.5855 19.858 12.1728 19.9418 12.844 19.9418C15.6127 19.9418 18.5493 17.9309 19.4722 15.501C20.0595 13.8252 19.8917 11.9819 19.0527 10.3061C18.0459 8.46271 17.0391 7.37345 15.5288 6.61935C14.7737 6.28419 14.0186 6.11661 13.1796 6.11661C10.9142 6.11661 8.31329 7.54104 6.80306 9.63577H6.88697Z" transform="translate(353.676 80.5605) rotate(-90)" fill="white"/>
<path d="M17.9931 23.4175C21.8525 20.7363 24.7052 15.5413 24.5374 10.8491C24.2857 5.31904 19.9228 1.21336 14.7209 0.29168C12.1199 -0.211055 9.2673 -0.127271 6.91806 1.04578C4.2332 2.38641 1.88394 5.31905 0.79322 8.0841C-1.13652 12.7763 0.625422 18.3064 4.23319 21.6579C7.92487 25.0933 13.2107 25.1771 17.6575 23.1662C18.1609 22.9148 17.7414 22.4121 17.2379 22.6634C13.6302 24.3392 9.2673 24.5068 5.99513 22.0769C2.55517 19.5632 0.289826 14.7034 1.04494 10.514C1.54835 7.49757 3.47809 4.73251 5.74344 2.72156C7.92488 0.8782 10.7775 0.543058 13.5463 0.878215C18.5804 1.54853 23.0272 5.06767 23.6984 10.3464C24.2857 15.0386 21.3491 20.4849 17.4897 23.1662C16.9024 23.3337 17.5736 23.6689 17.9931 23.4175Z" transform="translate(354.473 26.9707) rotate(-90)" fill="white"/>
<path d="M14.1882 10.9428C16.3697 6.50197 13.9365 2.22871 9.65753 0.385346C6.30146 -1.03907 2.02248 1.72598 0.596156 4.7424C-0.410664 6.75334 -0.0750522 8.5129 1.09957 10.4401C2.10639 12.1158 3.70051 13.5403 5.46244 14.3782C9.07021 16.1377 12.8458 13.7078 14.7755 10.6076C15.0272 10.1887 14.1043 10.1887 13.9365 10.5238C13.0975 11.9483 11.9229 13.0375 10.4127 13.7916C8.39902 14.7971 6.46927 14.3782 4.70733 13.1213C2.10638 11.278 -0.0750625 8.01018 1.35127 4.82619C2.10638 3.2342 3.19711 2.22872 4.79124 1.47462C5.96586 0.888097 7.22439 0.385341 8.56681 0.720498C9.32193 0.888076 10.077 1.39083 10.6644 1.80977C13.8526 3.73693 15.0273 7.50743 13.3492 10.859C13.1814 11.2779 14.0204 11.278 14.1882 10.9428Z" transform="translate(358.986 22.4111) rotate(-90)" fill="white"/>
<path d="M13.4313 25.7233C12.4245 25.7233 11.4177 25.6395 10.3269 25.3881C4.45381 24.2989 0.174838 19.6905 0.00703516 14.2442C-0.160768 9.46819 2.69189 4.02188 6.80307 1.08925C6.97088 0.921676 7.22257 0.921692 7.47428 0.921692C7.72598 0.921692 7.8938 1.00547 8.0616 1.08925C9.82353 0.418941 11.6694 5.11409e-06 13.5152 5.11409e-06C16.5357 5.11409e-06 19.3044 1.00548 21.402 3.01642C25.4292 6.78694 26.8556 12.6522 25.0097 17.2606C23.6673 20.4446 21.1503 23.2934 18.5493 24.634C17.0391 25.3043 15.361 25.7233 13.4313 25.7233ZM6.88696 9.63577L6.55135 10.3899C5.12503 14.0766 6.88698 17.8471 10.9982 19.6067C11.5855 19.858 12.1728 19.9418 12.844 19.9418C15.6127 19.9418 18.5493 17.9309 19.4722 15.501C20.0595 13.8252 19.8917 11.9819 19.0527 10.3061C18.0459 8.46271 17.0391 7.37345 15.5288 6.61935C14.7737 6.28419 14.0186 6.11661 13.1796 6.11661C10.9142 6.11661 8.3133 7.54104 6.80307 9.63577H6.88696Z" transform="translate(353.676 46.9072) rotate(-90)" fill="white"/>
<path d="M13.4313 25.7233C12.4245 25.7233 11.4177 25.6395 10.3269 25.3881C4.45382 24.2989 0.174823 19.6905 0.00701979 14.2442C-0.160784 9.46819 2.69188 4.02188 6.80306 1.08925C6.97086 0.921676 7.22258 0.921692 7.47429 0.921692C7.72599 0.921692 7.89378 1.00547 8.06158 1.08925C9.82352 0.418941 11.6694 5.11409e-06 13.5152 5.11409e-06C16.5357 5.11409e-06 19.3044 1.00548 21.4019 3.01642C25.4292 6.78694 26.8556 12.6522 25.0097 17.2606C23.6673 20.4446 21.1502 23.2934 18.5493 24.634C17.0391 25.3043 15.2771 25.7233 13.4313 25.7233ZM6.88697 9.63577L6.55136 10.3899C5.12504 14.0766 6.88696 17.8471 10.9981 19.6067C11.5855 19.858 12.1728 19.9418 12.844 19.9418C15.6127 19.9418 18.5493 17.9309 19.4722 15.501C20.0595 13.8252 19.8917 11.9819 19.0527 10.3061C18.0459 8.46271 17.0391 7.37345 15.5288 6.61935C14.7737 6.28419 14.0186 6.11661 13.1796 6.11661C10.9142 6.11661 8.31329 7.54104 6.80306 9.63577H6.88697Z" transform="translate(353.676 12.9189) rotate(-90)" fill="white"/>
</g>
<defs>
<clipPath id="clip0">
<rect width="110" height="413" fill="white" transform="translate(0 110) rotate(-90)"/>
</clipPath>
</defs>
</svg>
