<svg width="208" height="868" viewBox="0 0 208 868" fill="none" xmlns="http://www.w3.org/2000/svg">
<path d="M2.23866 18.6441C2.06557 17.98 1.40204 17.9223 0.940456 17.6335C0.190382 17.1716 -0.126949 16.4497 0.0461446 15.6701C1.02701 11.0215 1.2001 6.1708 3.39262 1.81092C4.25809 0.107397 4.89277 -0.267942 6.47946 0.165158C8.1527 0.598258 8.64313 1.26232 8.64313 3.02359C8.67198 4.69825 8.00845 6.19966 7.57572 7.78769C6.7391 10.8194 5.64285 13.7645 4.28695 16.623C3.94076 17.3737 3.30607 18.0088 2.81564 18.6729C2.6137 18.6441 2.4406 18.6441 2.23866 18.6441Z" transform="translate(172.383 849.327)" fill="#F0572A"/>
<path d="M10.1063 1.40983e-05C10.7986 0.202128 11.5199 0.40422 12.2122 0.66408C14.2317 1.41479 14.924 3.08945 13.7989 4.96622C13.02 6.26552 12.2122 7.50708 11.2314 8.69089C9.1254 11.2606 7.01943 13.8303 4.42302 15.967C2.89402 17.2374 2.1728 17.555 0.989994 16.7466C0.00912879 16.0825 -0.337061 14.2346 0.384164 12.8487C1.07654 11.4916 1.85546 10.1634 2.66323 8.86412C4.42302 6.15002 6.26935 3.52256 8.46188 1.15495C8.92346 0.692974 9.38505 0.202128 10.1063 1.40983e-05Z" transform="translate(40.9863 358.559)" fill="#F0572A"/>
<path d="M17.2417 11.5171C17.2994 13.0474 15.9724 14.3467 14.4722 14.058C13.5491 13.8848 12.6548 13.596 11.8181 13.0474C8.41396 10.7376 4.92324 8.54319 1.57676 6.17557C-0.413821 4.78965 -0.442671 3.66359 1.05748 1.55584C2.24028 -0.118817 3.74043 -0.465301 5.50022 0.631887C6.30799 1.12273 7.00036 1.8157 7.75044 2.42204C8.93324 3.40373 10.0872 4.4143 11.4431 5.16501C13.4048 6.26219 14.5588 8.25444 16.434 9.46712C16.9821 9.81361 17.2417 10.7087 17.2417 11.5171Z" transform="translate(38.5215 213.531)" fill="#F0572A"/>
<path d="M1.66179 0.571772C2.90229 -0.178935 4.0851 -0.00569867 5.21021 0.0809214C6.59496 0.167541 7.31618 0.947127 7.22964 2.33305C6.9123 6.89504 6.53727 11.457 6.13338 16.019C6.07568 16.5676 5.81604 17.1162 5.5564 17.6359C4.74863 19.4261 3.7389 19.9169 1.92142 19.3394C0.969403 19.0507 0.392424 18.531 0.190481 17.3472C-0.213405 15.1528 0.132786 12.9873 0.248182 10.8507C0.363578 8.85842 0.738608 6.89503 0.854004 4.8739C0.911702 3.37249 1.40215 1.89995 1.66179 0.571772Z" transform="translate(188.137 138.896)" fill="#F0572A"/>
<path d="M3.032 0.00810792C3.63783 -0.0496388 4.15711 0.210216 4.64754 0.498949C8.36906 2.63558 12.0906 4.77221 15.7832 6.93771C16.3602 7.28419 16.9084 7.65955 17.3988 8.12152C18.322 9.01659 18.4373 10.4314 17.7161 11.5286C17.0237 12.5969 16.216 12.9434 15.0332 12.4236C10.9078 10.6624 6.66697 9.18983 2.83005 6.87996C2.25307 6.53348 1.67609 6.21588 1.12796 5.81165C0.752927 5.52292 0.40674 5.17644 0.175948 4.77221C-0.602974 3.32854 1.35876 0.0658546 3.032 0.00810792Z" transform="translate(29.6523 135.302)" fill="#F0572A"/>
<path d="M0.163112 4.44687C0.163112 4.24475 0.163112 4.07151 0.163112 3.8694C0.22081 2.85883 -0.471563 1.61729 0.624698 0.924331C2.0383 0.058131 3.65384 -0.259483 5.32708 0.231364C6.1637 0.491224 6.45219 1.21308 6.53874 2.02153C6.65413 2.97435 6.76953 3.92715 6.85608 4.8511C7.20227 8.749 7.37535 12.6469 7.05802 16.5448C6.88492 18.5948 5.06744 19.6631 3.45189 18.6526C2.84607 18.2772 2.58643 17.7286 2.38449 17.0645C1.69211 15.0434 1.77865 12.9068 1.23052 10.8856C0.653544 8.77788 0.105415 6.67011 0.163112 4.44687Z" transform="translate(71.8145 338.78)" fill="#F0572A"/>
<path d="M0 12.1562C0.201943 11.6365 0.259641 11.1745 0.519281 10.9435C3.54842 8.31604 5.85634 4.93786 9.14512 2.57024C9.8375 2.0794 10.4433 1.44418 11.078 0.866709C12.4628 -0.317098 13.4148 -0.288211 14.8572 0.953343C16.242 2.13715 16.617 3.40758 15.8092 4.70688C15.2611 5.60195 14.6553 6.46813 13.7898 7.10334C11.078 9.18223 8.3662 11.2611 5.62555 13.3111C5.30821 13.5421 4.99087 13.7442 4.67353 13.9464C2.36562 15.1879 1.70209 15.0147 0.317339 12.7626C0.201943 12.5893 0.144245 12.416 0 12.1562Z" transform="translate(0 440.355)" fill="#F0572A"/>
<path d="M9.12056 14.1205C8.94747 15.1599 9.06287 16.2282 8.57244 17.2099C7.79351 18.8268 6.29336 19.0867 5.1971 17.6719C4.56243 16.8634 3.98545 15.9106 3.69696 14.9289C2.62955 11.2909 0.725519 7.94157 0.11969 4.13029C-0.0822525 2.80212 -0.139957 1.67606 0.869757 0.723239C1.90832 -0.258454 3.11998 -0.0563339 4.36048 0.261273C5.1971 0.49226 5.68754 1.01197 5.94718 1.76267C7.27423 5.6317 8.60129 9.47186 9.06287 13.5719C9.09172 13.7451 9.12056 13.9184 9.12056 14.1205Z" transform="translate(92.6875 189.85)" fill="#F0572A"/>
<path d="M6.04037 8.43854C6.12691 11.2104 6.04037 13.9822 5.60763 16.7252C5.26144 18.9773 4.77101 19.3815 2.63619 19.266C1.19374 19.1794 0.501359 18.6886 0.357115 17.2449C0.155172 15.2526 -0.133318 13.2893 0.0686248 11.2393C0.357115 8.29418 0.241722 5.32022 0.559061 2.37514C0.789853 0.180763 0.818709 0.0652841 2.83814 0.00753739C5.2903 -0.0790826 5.92496 0.556117 6.06921 3.24134C6.1269 4.10754 6.04037 4.97374 6.04037 5.83994C6.04037 6.70614 6.04037 7.57234 6.04037 8.43854Z" transform="translate(192.73 253.913)" fill="#F0572A"/>
<path d="M5.22308 -1.40983e-05C6.95403 0.144352 8.28111 0.635219 9.60817 1.21268C10.6179 1.64578 10.9641 2.42535 10.791 3.55141C10.6467 4.61972 10.2717 5.6014 9.75242 6.49647C7.93491 9.64366 6.0597 12.762 4.1845 15.8803C3.98256 16.1979 3.75176 16.5155 3.52097 16.8043C2.88629 17.5838 1.99195 17.6416 1.15532 17.3239C0.405243 17.0352 -0.0274961 16.3423 0.00135322 15.505C0.0302025 14.6388 0.11675 13.7725 0.289846 12.9352C1.18417 8.40212 2.74204 4.12886 5.22308 -1.40983e-05Z" transform="translate(85.9121 422.628)" fill="#F0572A"/>
<path d="M0.0601585 4.08782C-0.141784 1.22936 0.0890074 0.796263 1.93534 0.247669C3.81052 -0.329798 4.64714 0.0455557 5.10873 1.98007C6.17614 6.42657 7.3878 10.8731 8.48406 15.3196C9.06104 17.6294 7.50319 19.6217 5.42607 19.4196C4.01247 19.2752 3.52204 18.2069 3.147 17.1386C1.58916 12.6632 0.00246053 8.21671 0.0601585 4.08782Z" transform="translate(125.402 128.565)" fill="#F0572A"/>
<path d="M16.2513 2.81966e-05C17.261 0.462002 17.4341 1.03944 17.6649 1.55916C18.415 3.11832 18.3573 3.23383 16.9437 4.38876C15.7609 5.37046 14.4338 6.12112 13.0779 6.87183C11.5489 7.68028 10.0199 8.45986 9.06793 10.0479C8.77944 10.5387 8.31786 10.943 7.68318 11.0007C6.06764 11.2028 4.45209 11.4627 2.83655 11.5205C1.53835 11.5493 0.211294 10.481 0.0381998 9.4127C-0.134894 8.17114 0.268992 7.21835 1.48065 6.55426C6.24073 3.86904 11.0874 1.4437 16.2513 2.81966e-05Z" transform="translate(33.7441 695.885)" fill="#F0572A"/>
<path d="M12.6115 7.04916e-06C13.477 0.664094 14.2271 1.1838 14.9483 1.79014C16.333 2.94507 16.4484 3.81129 15.2368 5.19721C14.429 6.12116 13.4193 6.87186 12.4673 7.68031C9.98627 9.78806 7.93799 12.3578 5.31273 14.2923C3.55295 15.5916 2.25475 15.5627 0.754599 14.1191C-0.11087 13.2818 -0.226266 12.5888 0.379562 11.5782C0.523807 11.3184 0.696901 11.0874 0.898844 10.8852C3.69719 8.17115 6.32245 5.22608 9.38044 2.77184C10.4767 1.87677 11.5153 0.923954 12.6115 7.04916e-06Z" transform="translate(67.9355 315.999)" fill="#F0572A"/>
<path d="M-3.5216e-06 1.75619C0.288486 1.43858 0.346184 1.35197 0.432731 1.29422C4.58698 -1.27551 5.36591 0.254776 6.46217 3.48859C7.70268 7.18438 9.23167 10.8224 9.11627 14.8069C9.08743 15.3844 9.17397 15.9908 9.02973 16.5105C8.56815 18.3006 6.80836 18.7626 5.51015 17.4633C4.64468 16.5682 3.86576 15.4999 3.54843 14.345C2.62526 10.8513 0.865466 7.61748 0.288486 4.00831C0.17309 3.28648 0.0865434 2.53577 -3.5216e-06 1.75619Z" transform="translate(117.502 62.9004)" fill="#F0572A"/>
<path d="M5.00523 0.330559C6.07265 -0.102544 6.85158 -0.0158952 7.60166 0.0707254C9.67881 0.301714 10.2269 1.25451 9.67881 3.36228C8.69793 7.14471 6.99582 10.6673 5.78415 14.392C5.49566 15.2871 4.94753 16.1244 4.39939 16.904C3.62046 18.0301 2.43765 18.4054 1.39907 17.9723C0.38935 17.5392 -0.216486 16.442 0.0720062 15.1716C1.19713 10.0321 2.66844 5.03695 5.00523 0.330559Z" transform="translate(99.1973 674.275)" fill="#F0572A"/>
<path d="M10.2398 14.4541C10.2398 16.3598 9.57627 16.8795 8.10497 16.3309C6.14324 15.6091 4.78734 14.1077 3.66223 12.4619C1.90244 9.92103 0.748472 7.09144 0.084946 4.08862C-0.463184 1.63438 1.72934 -0.50226 4.1238 0.10408C4.72963 0.248447 5.10467 0.65266 5.42201 1.17238C6.08553 2.32731 6.89331 3.36678 7.32605 4.66608C8.22037 7.38018 9.57627 9.92099 9.98016 12.7795C10.0667 13.4435 10.1821 14.0788 10.2398 14.4541Z" transform="translate(153.42 803.393)" fill="#F0572A"/>
<path d="M6.63526 6.23528C6.40447 9.58459 6.05828 12.905 5.42361 16.1966C5.01972 18.2755 4.26965 18.9684 2.74065 18.8818C1.21166 18.7952 -8.80401e-07 17.5248 -8.80401e-07 15.7924C-8.80401e-07 13.6846 0.0576984 11.6057 0.346188 9.49798C0.634678 7.44797 0.836621 5.34022 1.06741 3.29021C1.15396 2.62612 1.21166 1.962 1.38475 1.29791C1.64439 0.373961 2.16367 -0.232365 3.28878 0.0852419C3.75037 0.200735 4.2408 0.143031 4.70238 0.200778C6.20253 0.431764 6.63526 0.922583 6.69296 2.48174C6.69296 2.68386 6.63526 2.8571 6.63526 3.05921C6.63526 4.12752 6.63526 5.19584 6.63526 6.23528Z" transform="translate(26.8867 722.104)" fill="#F0572A"/>
<path d="M7.04321e-06 14.9715C0.548137 10.8426 0.807771 6.33831 2.19252 2.03618C2.8272 0.0727953 4.70239 -0.562404 6.43332 0.534783C7.1834 0.996756 7.38534 1.68973 7.29879 2.49818C6.89491 7.34891 6.57756 12.2285 4.81777 16.8193C4.1254 18.5806 3.54842 18.9559 1.84633 18.6961C0.375033 18.4651 7.04321e-06 18.0031 7.04321e-06 16.3862C0.028856 16.0397 7.04321e-06 15.6644 7.04321e-06 14.9715Z" transform="translate(176.092 647.335)" fill="#F0572A"/>
<path d="M8.14131 2.53336C7.99707 3.68829 7.91051 4.84327 7.67972 5.96933C6.8431 9.69399 6.41037 13.5341 4.96793 17.1144C4.16015 19.1067 2.86195 19.5686 1.13102 18.5581C0.352094 18.0961 -0.138353 17.4609 0.0347411 16.4504C0.35208 14.5736 0.55403 12.6679 0.871368 10.7623C1.2464 8.51014 1.708 6.22915 2.14073 3.97703C2.25613 3.42843 2.37151 2.85098 2.60231 2.33126C3.64087 -0.0363549 5.05446 -0.556033 7.39123 0.570027C8.2567 0.974254 8.17016 1.78265 8.14131 2.53336Z" transform="translate(150.873 774.429)" fill="#F0572A"/>
<path d="M6.98598 9.33396C7.59181 11.3262 6.84174 13.2896 6.72634 15.2241C6.66864 15.8882 6.5244 16.5234 6.29361 17.1586C5.97627 18.0537 5.25504 18.1981 4.47612 18.2847C3.6972 18.3713 3.17792 17.9382 2.91828 17.2741C2.45669 16.1192 1.90857 14.9642 1.70662 13.7804C1.07195 10.4022 0.552665 6.99521 0.0622323 3.58815C-0.0820125 2.54871 -0.0531671 1.36489 1.01424 0.758553C2.2836 0.0655923 3.6972 -0.309761 5.13965 0.325453C5.45699 0.469819 5.74548 0.816306 5.86087 1.16279C6.17821 1.97124 6.55325 2.77969 6.61095 3.61702C6.75519 5.55153 6.66865 7.45719 6.98598 9.33396Z" transform="translate(55.3594 408.126)" fill="#F0572A"/>
<path d="M-3.5216e-06 17.3804C0.952012 12.241 2.79835 7.44799 4.93317 2.77051C5.25051 2.07755 5.68325 1.44233 6.17368 0.86486C6.57757 0.345139 7.09685 -0.174577 7.87577 0.0564095C8.68354 0.31627 9.17398 0.86486 9.20283 1.73106C9.23167 3.26135 9.43361 4.84939 9.14512 6.32193C8.39505 9.95997 7.52958 13.5691 5.5967 16.8318C5.39476 17.1494 5.22167 17.4959 4.99087 17.8135C3.89461 19.2861 2.88489 19.4882 1.2982 18.4776C0.807768 18.1889 0.403882 17.7558 -3.5216e-06 17.3804Z" transform="translate(84.7598 149.025)" fill="#F0572A"/>
<path d="M0.117802 6.76607C0.406288 5.09143 -0.228387 3.35905 0.46398 1.65554C0.839013 0.760467 1.18519 0.09638 2.16605 0.00976044C3.23345 -0.0768591 3.98351 0.413985 4.32969 1.45342C4.35854 1.54004 4.44509 1.62665 4.47394 1.71327C5.2817 3.5034 6.66644 14.7351 6.32026 16.6985C6.03177 18.2576 5.07976 19.1816 3.69503 19.2393C2.42569 19.2682 1.76217 18.864 1.50253 17.5358C0.781317 13.9844 -0.372625 10.4618 0.117802 6.76607Z" transform="translate(117.502 287.491)" fill="#F0572A"/>
<path d="M4.32431 18.912C3.22805 18.7388 1.901 18.8832 1.00668 17.8149C-0.0318832 16.5156 -0.29152 15.1296 0.343157 13.5127C1.8433 9.78806 3.1992 6.03452 4.69934 2.33873C5.07438 1.38591 5.65136 0.4331 6.77647 0C8.10353 0.288733 8.56511 1.1838 8.56511 2.4831C8.56511 4.30212 8.59396 6.12115 8.16122 7.94017C7.55539 10.5388 7.06496 13.1662 6.34374 15.736C6.05525 16.862 5.53597 18.0458 4.32431 18.912Z" transform="translate(160.836 188.984)" fill="#F0572A"/>
<path d="M1.96083 18.4789C1.32616 17.324 1.03766 16.2268 0.893419 15.0719C0.316439 10.7986 -0.116295 6.52538 0.0279497 2.22325C0.0856477 0.664094 0.345299 0.346466 1.78775 0.144353C2.36473 0.0577326 2.94171 -1.40983e-05 3.51869 -1.40983e-05C3.89372 -1.40983e-05 4.26876 0.115507 4.67264 0.173254C5.39387 1.58805 5.71121 3.14718 5.74006 4.61972C5.82661 8.34438 6.31703 12.0402 5.99969 15.7649C5.74005 18.3346 5.27847 18.6522 1.96083 18.4789Z" transform="translate(170.643 455.543)" fill="#F0572A"/>
<path d="M0.324093 17.7618C-0.108641 12.5646 0.00675445 7.59835 0.0356034 2.63214C0.0356034 0.49551 0.612579 0.0624167 2.8628 0.00467C4.79568 -0.0530767 5.5169 0.408883 5.68999 2.37227C6.06503 7.16525 5.89194 11.9294 4.73798 16.6068C4.44949 17.7907 3.67057 18.3392 2.43006 18.2237C1.73769 18.1371 1.10302 17.9061 0.324093 17.7618Z" transform="translate(184.426 587.375)" fill="#F0572A"/>
<path d="M0.00770837 14.1457C-0.0788385 12.5865 0.584688 11.1429 0.930876 9.67032C1.50786 7.24496 2.54642 4.99283 3.15225 2.56746C3.72923 0.11323 5.31592 -0.493103 8.11427 0.373097C9.47017 0.777324 10.3645 2.76959 9.87406 4.47312C9.61442 5.39706 9.23938 6.26326 8.74895 7.10058C7.85463 8.57312 7.04686 10.1034 6.35448 11.6626C5.54671 13.4816 4.01772 14.6654 2.92145 16.2534C2.43102 16.9464 1.56555 16.9464 0.815479 16.6865C0.0654061 16.4267 0.00770837 15.7048 0.00770837 15.0119C0.00770837 14.7232 0.00770837 14.4344 0.00770837 14.1457Z" transform="translate(4.31836 154.83)" fill="#F0572A"/>
<path d="M10.233 15.3109C10.1176 16.3504 10.0888 17.332 8.90597 17.6785C7.55007 18.0827 6.65575 17.794 5.99222 16.5524C3.79969 12.4524 1.60715 8.38139 0.193541 3.90607C-0.556536 1.48073 0.943624 -0.280569 3.48235 0.0370346C4.40552 0.152527 4.78056 0.84548 5.12675 1.48069C6.85769 4.77222 8.55978 8.09265 9.42525 11.7595C9.71374 12.9722 9.97338 14.1849 10.233 15.3109Z" transform="translate(172.264 728.216)" fill="#F0572A"/>
<path d="M1.76079e-06 14.2946C1.38475 11.6383 2.59639 9.1841 3.92344 6.78763C4.962 4.88201 6.11595 3.00525 7.29876 1.18625C7.81803 0.3778 8.53926 -0.344027 9.69321 0.175688C10.876 0.724277 12.2896 1.07076 12.6935 2.60104C12.78 2.91864 12.6358 3.35172 12.4627 3.66933C10.3279 7.59607 7.78919 11.2918 5.27934 15.0165C5.07739 15.3341 4.76006 15.5939 4.47157 15.8538C2.94258 17.182 1.99057 17.0665 0.692372 15.3918C0.432733 15.0742 0.259641 14.7277 1.76079e-06 14.2946Z" transform="translate(62.4883 483.924)" fill="#F0572A"/>
<path d="M15.6122 2.81966e-05C16.5354 0.288762 16.8239 0.923961 17.1701 1.50143C17.8048 2.45425 17.6605 3.37821 16.7662 4.0423C12.4965 7.21836 8.28459 10.5099 3.00523 11.8958C1.47624 12.3001 0.466528 11.7803 0.0914917 10.3655C-0.168149 9.35496 0.120335 8.54648 1.01465 7.88239C5.51509 4.59083 10.2752 1.81905 15.6122 2.81966e-05Z" transform="translate(112.764 760.85)" fill="#F0572A"/>
<path d="M11.605 0.0180546C12.384 1.54834 11.9512 2.84764 11.4896 4.11807C10.1914 7.81385 8.2297 11.2209 6.21027 14.5702C5.83524 15.2054 5.3448 15.8118 4.62358 16.1871C3.41192 16.8512 1.82523 16.6491 0.700118 15.6097C-0.0788043 14.8878 -0.280744 13.5885 0.46933 12.4336C2.51761 9.19978 4.53703 5.96596 6.78725 2.84764C7.88351 1.34623 9.21057 -0.184059 11.605 0.0180546Z" transform="translate(90.1152 84.7915)" fill="#F0572A"/>
<path d="M-5.5025e-08 8.90082C-5.5025e-08 8.69871 0.144245 8.32333 0.605828 8.00572C4.84663 5.03176 9.26052 2.37543 14.0206 0.296548C14.3668 0.152182 14.7418 0.0366882 15.1169 0.00781489C16.4439 -0.107679 17.2805 1.07614 16.7324 2.28882C16.2997 3.27051 15.5784 4.07897 14.7418 4.71418C12.2608 6.67757 9.75095 8.58321 7.24109 10.5177C6.14483 11.355 4.84663 11.7015 3.57727 12.048C1.529 12.6255 0.0576979 11.3839 -5.5025e-08 8.90082Z" transform="translate(2.51172 335.654)" fill="#F0572A"/>
<path d="M8.94983 3.59391C8.69019 7.89604 7.0458 12.2559 5.05522 16.5003C4.2763 18.175 3.00694 18.5792 1.53564 17.944C0.150891 17.3376 -0.339541 15.6918 0.237438 14.1038C1.07406 11.7073 1.85299 9.28197 3.00695 7.00098C3.93012 5.21083 4.76674 3.39181 5.66106 1.63054C5.863 1.22631 6.23803 0.850947 6.55537 0.53334C7.44969 -0.390607 8.6325 -0.0729791 8.92099 1.16857C9.06523 1.77491 8.94983 2.46785 8.94983 3.59391Z" transform="translate(178.367 357.967)" fill="#F0572A"/>
<path d="M6.53911 13.5697C6.5968 15.0711 7.14494 16.1683 6.45256 17.3232C5.90443 18.2183 5.32746 18.7957 4.20235 18.738C3.01954 18.6802 2.44256 18.0739 2.26946 17.0056C1.60594 13.3675 0.221189 9.84498 0.451981 6.0337C0.538527 4.82102 0.105793 3.57945 0.019246 2.3379C-0.0961499 0.749862 0.27888 0.374564 1.92327 0.085831C3.48112 -0.174029 4.14465 0.114704 4.54854 1.5295C5.7025 5.57177 6.36601 9.72952 6.53911 13.5697Z" transform="translate(156.775 745.75)" fill="#F0572A"/>
<path d="M8.29565 14.7123C8.20911 15.8383 8.23795 17.0799 6.99746 17.6862C6.24739 18.0616 5.12229 17.3397 4.45877 15.8383C2.64129 11.6805 0.44879 7.63824 0.0449068 2.96071C-0.128186 1.08393 0.131451 0.708575 2.03547 0.217724C4.02604 -0.273127 5.03574 0.0155521 5.55502 1.6036C5.98775 2.93178 6.50703 4.26003 6.70897 5.70371C6.99746 8.07134 7.60328 10.3812 8.03601 12.7199C8.12256 13.3552 8.20911 14.0193 8.29565 14.7123Z" transform="translate(118.438 642.107)" fill="#F0572A"/>
<path d="M8.23528 15.13C8.17758 15.6208 8.17759 16.1405 8.03335 16.5736C7.71601 17.4398 7.02363 18.0173 6.15816 18.1905C5.14845 18.3927 4.51377 17.642 4.19643 16.8335C3.44635 14.899 2.75398 12.9067 2.177 10.9145C1.48462 8.54685 0.907643 6.15035 0.272965 3.78273C0.157569 3.32076 0.0421753 2.85878 0.0133263 2.36793C-0.10207 1.01088 0.532608 0.260203 1.88851 0.0869628C4.08103 -0.201771 4.9465 0.173562 5.35039 2.05033C6.12931 5.89049 7.48521 9.5574 8.00449 13.4553C8.06219 14.0039 8.14874 14.5814 8.23528 15.13Z" transform="translate(121.27 322.812)" fill="#F0572A"/>
<path d="M6.17369 0.673379C6.57757 3.38747 6.14483 5.95726 5.97174 8.52699C5.85635 10.2305 5.5967 11.9629 5.56785 13.6953C5.56785 14.1573 5.39475 14.6481 5.3659 15.1101C5.04856 18.5749 3.08684 19.6144 0 17.7665C0.375037 16.4383 0.346184 15.0234 0.375033 13.6087C0.490429 9.97061 1.03856 6.39032 1.61554 2.78115C2.07712 -0.163933 2.9426 -0.597048 6.17369 0.673379Z" transform="translate(166.602 593.953)" fill="#F0572A"/>
<path d="M9.27002 16.3712C8.14491 16.8043 7.53908 16.2268 6.87556 15.6205C5.00037 13.917 3.93296 11.636 2.54821 9.58598C1.50965 8.02682 0.326838 6.55425 0.0960462 4.50424C-0.192444 1.81902 0.0383448 1.21267 2.63475 0.375339C2.98094 0.259846 3.32713 0.115465 3.64447 -2.81966e-05C5.31771 0.317579 5.51965 1.7324 6.09663 2.91621C7.76987 6.35214 8.98153 9.9613 9.52966 13.7437C9.64506 14.581 9.81815 15.4473 9.27002 16.3712Z" transform="translate(176.115 612.239)" fill="#F0572A"/>
<path d="M13.2363 1.79003C13.1786 3.63793 12.0824 5.11046 11.2169 6.43864C9.22633 9.44146 7.03381 12.3577 4.37971 14.8697C3.68733 15.5338 2.99496 15.8514 2.07179 15.707C0.456246 15.476 -0.380371 14.119 0.167759 12.5887C0.369702 12.069 0.629339 11.5492 0.975527 11.0873C3.68733 7.50698 6.54338 4.07103 10.0053 1.1837C10.2937 0.952714 10.6399 0.750593 10.8996 0.490733C11.4477 -0.000113757 12.0247 -0.202206 12.7171 0.259768C13.2652 0.663994 13.3806 1.21257 13.2363 1.79003Z" transform="translate(40.6816 383.418)" fill="#F0572A"/>
<path d="M0.0048731 4.29369C-0.0239759 3.10989 0.0625728 1.98381 0.610703 0.944374C1.15883 -0.12394 2.05315 -0.297173 2.94747 0.482408C3.29366 0.800015 3.69755 1.17538 3.81294 1.60848C4.33222 3.34088 5.28424 4.87115 5.34193 6.77679C5.37078 8.3937 5.77467 9.98174 6.06316 11.5986C6.29395 12.9268 6.38049 14.255 6.43819 15.612C6.49589 17.0846 5.89007 17.9508 4.64956 18.5571C3.3802 19.1635 2.11084 18.7304 1.67811 17.4022C1.36077 16.4205 1.24538 15.3522 1.04344 14.3127C0.379912 10.9634 0.668399 7.58525 0.0048731 4.29369Z" transform="translate(102.553 264.873)" fill="#F0572A"/>
<path d="M7.12782 -7.04912e-06C8.97413 1.73239 8.42601 4.01338 7.96443 5.89013C7.35861 8.28661 6.86817 10.712 6.14696 13.0796C5.85847 14.0035 5.5123 14.8697 5.02187 15.707C4.24296 17.0641 3.52174 17.3528 2.22355 16.9486C0.752273 16.5155 0.0599027 15.707 0.00220547 14.35C-0.0266431 13.4838 0.232994 12.6753 0.434935 11.838C1.38694 8.05562 2.85821 4.47535 4.84877 1.12606C5.36804 0.288732 6.14696 0.0288662 7.12782 -7.04912e-06Z" transform="translate(147.936 259.465)" fill="#F0572A"/>
<path d="M6.93511 3.90333C6.58892 6.70404 6.38699 10.2555 5.14649 13.5759C4.71375 14.7597 4.68489 16.0013 4.25216 17.1851C3.84827 18.2534 3.1559 18.7154 2.08849 18.6576C1.04992 18.5999 0.126762 17.6759 0.0402154 16.6365C-0.0174825 16.1745 -0.0174896 15.6837 0.0690574 15.1928C0.819131 10.9773 1.56921 6.76182 2.72317 2.63293C2.92511 1.88222 3.18475 1.13151 3.79058 0.640659C4.36756 0.178685 5.05994 -0.254408 5.86771 0.178692C6.47354 0.525172 6.93511 0.958244 6.93511 1.73782C6.93511 2.28642 6.93511 2.74839 6.93511 3.90333Z" transform="translate(194.893 385.953)" fill="#F0572A"/>
<path d="M8.95117 11.541C8.92232 11.7719 8.95118 12.0896 8.89348 12.3494C8.66269 13.1579 8.48959 14.0818 7.59527 14.4572C6.58556 14.8902 6.03742 14.0529 5.40274 13.5043C4.50842 12.7536 4.10454 11.6565 3.52756 10.6748C2.17165 8.36494 1.30618 5.85301 0.296462 3.39881C-0.309368 1.92629 -0.0208757 1.4932 1.47927 0.800246C1.91201 0.598135 2.34474 0.367145 2.77748 0.251653C5.11425 -0.441298 6.18167 0.280547 7.01829 2.61925C7.82606 4.84247 8.51844 7.09454 8.72038 9.46212C8.80693 10.1551 8.89347 10.8191 8.95117 11.541Z" transform="translate(96.752 397.517)" fill="#F0572A"/>
<path d="M0.0256506 2.27683C0.804574 1.67048 1.5258 1.03526 2.33357 0.544408C3.60293 -0.264054 4.35299 -0.2063 5.33386 0.948646C6.77631 2.62332 7.93028 4.50009 8.62266 6.63674C8.96884 7.61844 9.17079 8.68677 9.83432 9.49524C10.7286 10.5636 10.469 11.8629 10.4401 13.0756C10.4113 14.2016 9.48812 14.6347 8.36301 14.1728C7.84373 13.9706 7.26675 13.7108 6.89171 13.3065C4.06451 10.3037 1.6412 7.04096 0.0256506 3.20077C-0.0320474 3.02753 0.0256506 2.82543 0.0256506 2.27683Z" transform="translate(192.512 546.297)" fill="#F0572A"/>
<path d="M5.86014 14.0069C6.17747 14.7576 5.34085 15.8259 4.90811 16.9519C4.61962 17.7315 3.9561 18.1935 3.09063 18.0491C2.31171 17.9336 1.82128 17.5872 1.64818 16.6055C1.2443 14.3822 0.176884 12.1878 0.148035 9.96459C0.119186 7.2505 -0.0250591 4.50753 0.00378983 1.79344C0.00378983 0.927238 0.580771 0.407511 1.33084 0.0899042C1.93667 -0.169956 2.4271 0.176528 2.88869 0.580755C3.63876 1.21597 4.27344 1.9378 4.38884 2.91949C4.87927 6.41316 5.34085 9.90685 5.86014 14.0069Z" transform="translate(133.654 214.102)" fill="#F0572A"/>
<path d="M11.5576 2.56331C11.4422 4.15136 10.5191 5.10419 9.76899 6.02815C8.15346 8.0493 6.16289 9.72396 4.11462 11.2831C3.27801 11.9184 2.29715 12.3515 1.17205 11.8029C0.133489 11.2831 -0.299244 10.4458 0.220035 9.46408C1.80672 6.40348 3.68189 3.48723 6.07634 1.00409C7.63418 -0.612829 10.0286 -0.208598 11.2114 1.72593C11.4134 2.07242 11.4999 2.44782 11.5576 2.56331Z" transform="translate(27.1016 777.199)" fill="#F0572A"/>
<path d="M0 11.383C1.09626 9.27525 2.19252 7.16751 3.28877 5.05974C4.09654 3.52944 5.1351 2.14351 6.28906 0.873069C6.80834 0.295597 7.38532 -0.281874 8.25079 0.15123C9.00086 0.55546 9.17396 1.21954 9.14511 2.08574C9.11626 3.76041 8.27964 5.1752 7.9623 6.76325C7.67381 8.26468 7.15453 9.70837 6.63525 11.1809C5.71208 13.8662 3.86575 14.7035 1.52899 13.6641C0.519277 13.2021 0.317338 12.307 0 11.383Z" transform="translate(78.7598 703.154)" fill="#F0572A"/>
<path d="M3.21713 -7.04916e-06C6.07318 4.18663 6.13087 13.1951 3.36137 16.6888C1.48619 16.2268 1.63043 14.1191 0.418775 13.0796C-0.215903 12.5599 0.0437276 11.636 0.101426 10.8853C0.332217 8.05568 0.591865 5.22608 1.22654 2.42536C1.48618 1.2993 1.86123 0.433093 3.21713 -7.04916e-06Z" transform="translate(159.463 497.092)" fill="#F0572A"/>
<path d="M4.52097 7.04916e-06C5.32874 0.519727 5.67493 1.12605 5.70378 1.79014C5.84802 5.11058 6.2519 8.4599 5.06909 11.6937C4.66521 12.7909 4.08823 13.7726 2.87657 14.1768C1.43412 14.6677 0.135922 13.8881 0.0493749 12.3578C-0.066021 10.6543 -0.00832835 8.92186 0.539802 7.27608C1.11678 5.57255 1.72262 3.86903 2.35729 2.19437C2.73233 1.12606 2.84773 1.03945 4.52097 7.04916e-06Z" transform="translate(108.307 245.404)" fill="#F0572A"/>
<path d="M6.06705 7.04916e-06C7.22101 0.837334 7.19216 2.10776 7.22101 3.17608C7.3364 5.68806 5.77857 10.9719 4.56691 13.0507C4.30727 13.1085 4.04762 13.1662 3.75913 13.1951C0.153008 13.5705 -0.625915 11.7803 0.441497 8.92188C1.30697 6.61201 2.37438 4.35988 3.52834 2.19437C4.04762 1.21268 4.88424 0.346487 6.06705 7.04916e-06Z" transform="translate(193.738 419.366)" fill="#F0572A"/>
<path d="M5.57201 4.58358C5.71626 6.83567 4.85078 8.94342 4.61999 11.1378C4.53344 11.9173 4.1007 12.6103 3.14867 12.668C2.16779 12.7258 1.6485 12.2927 1.3023 11.2821C0.177177 8.07723 -0.255564 4.81455 0.148328 1.43642C0.263726 0.483608 0.754176 0.0794148 1.61966 0.0216688C2.1101 -0.00720415 2.57169 -0.00720415 3.06213 0.0216688C4.76424 0.194907 5.16813 0.570227 5.39892 2.30261C5.51432 3.0533 5.51432 3.83288 5.57201 4.58358Z" transform="translate(166.83 430.864)" fill="#F0572A"/>
<path d="M5.09144 7.04916e-06C6.27425 1.35705 6.13001 2.88733 6.21656 4.38874C6.3608 6.8141 5.06259 9.00848 5.09144 11.4338C5.09144 12.0979 4.42792 12.7909 3.96634 13.3972C3.33166 14.1768 2.52389 14.6965 1.45648 14.2345C0.389066 13.7726 -0.216759 12.5599 0.0717305 11.4338C0.821804 8.662 1.60072 5.91904 2.46619 3.17608C2.87008 1.90565 3.4759 0.692967 5.09144 7.04916e-06Z" transform="translate(153.029 466.862)" fill="#F0572A"/>
<path d="M8.03232 9.54943C6.76297 9.52056 5.55131 9.2029 4.5993 8.3367C3.38764 7.23951 2.20483 6.14232 1.05087 5.01626C-0.30503 3.65922 -0.33388 3.02406 0.877776 1.60926C2.32022 -0.0365164 4.85893 -0.96052 6.27253 1.55146C7.36879 3.51485 8.78239 5.305 9.47477 7.4705C9.9075 8.82754 9.35938 9.54943 8.03232 9.54943Z" transform="translate(40.293 775.266)" fill="#F0572A"/>
<path d="M6.62745 4.6421C6.714 6.46112 6.02162 8.13577 5.61774 9.89704C5.3581 11.1097 2.79054 12.2069 1.57888 11.8893C0.482621 11.6294 -0.123205 10.7344 0.0210396 9.52167C0.165284 8.16462 0.886512 7.00969 1.37694 5.76814C2.09817 4.00686 2.79054 2.21674 3.82911 0.628701C4.40609 -0.2375 5.4735 -0.208647 5.84854 0.7153C6.33897 1.95685 6.91594 3.19844 6.62745 4.6421Z" transform="translate(103.951 307.43)" fill="#F0572A"/>
</svg>
