<svg width="767" height="824" viewBox="0 0 767 824" fill="none" xmlns="http://www.w3.org/2000/svg">
<path d="M18.907 93.6407C19.102 103.565 19.2413 113.552 19.5198 123.477C19.6033 126.722 20.1882 129.906 20.3554 133.214C20.6339 139.269 19.6869 142.077 17.0688 142.14C13.2808 142.265 9.465 142.14 5.7049 141.578C2.83609 141.141 1.8891 138.707 2.16762 132.278C3.03105 112.99 1.24849 93.828 1.55487 74.6031C1.72199 63.2429 1.24849 51.8827 0.969965 40.5226C0.719292 29.9738 0.301505 19.4251 0.0229791 8.87634C-0.116284 3.44592 0.329359 2.13513 2.69683 1.6982C6.84686 0.949183 10.9969 0.262609 15.1469 0.0129352C18.0157 -0.17432 18.4335 1.63579 18.2107 7.94006C17.96 15.8048 17.8486 23.6696 17.9322 31.5343C17.9879 38.5876 18.5728 45.5784 18.6285 52.6317C18.7399 66.3014 18.6564 79.9711 18.6564 93.6407C18.7399 93.6407 18.8235 93.6407 18.907 93.6407Z" transform="translate(204.643 666.846)" fill="#A8DBF5"/>
<path d="M12.0382 0.229793C13.598 0.479467 15.1856 0.791513 16.7453 1.04119C18.2494 1.29086 18.8343 3.28824 18.8621 6.40916C18.8621 23.5742 18.89 40.8018 18.89 57.9669C18.89 74.1956 18.9178 90.362 18.9178 106.591C18.9178 108.9 18.7786 111.147 18.8064 113.457C18.8343 116.703 18.9178 119.948 19.0292 123.194C19.1128 125.691 19.3635 128.125 19.3356 130.559C19.3078 133.306 18.7229 135.178 17.3302 135.553C13.3752 136.489 9.44796 137.613 5.49289 138.611C5.13081 138.736 4.74087 138.736 4.37879 138.611C1.06433 137.925 0.312311 135.74 0.423721 128.25C0.562984 118.076 0.256603 107.839 0.730097 97.7898C1.28715 86.1175 1.09218 74.5702 1.00862 62.9603C0.925065 48.6665 0.53513 34.3726 0.256604 20.0788C0.200899 16.3337 0.117343 12.5886 0.00593253 8.9059C-0.0776252 5.78497 0.730096 4.09968 1.8999 3.60033C5.27007 2.03987 8.52882 -0.831321 12.0382 0.229793Z" transform="translate(79.0645 674.059)" fill="#A8DBF5"/>
<path d="M0.302156 121.507C0.66424 110.709 1.16559 99.1617 1.41626 87.6767C1.69478 75.4426 2.08471 63.2086 1.86189 50.9745C1.58337 36.4934 0.692079 22.0748 0.079322 7.65612C-0.227056 0.727661 0.246437 -0.520709 3.42163 0.165895C7.82234 1.16459 12.2509 1.97597 16.5402 4.78481C17.9886 5.72108 18.6013 7.15671 18.4063 10.4025C17.6265 23.6976 18.6848 36.8055 18.852 50.0382C19.0191 62.6468 18.657 75.3178 18.5456 87.9887C18.462 95.6662 18.5177 103.344 18.1835 111.021C17.905 117.95 18.2392 124.566 18.7127 131.37C19.1583 138.048 17.5986 141.419 14.7019 139.796C11.0254 137.736 7.40456 135.364 3.81157 132.805C0.664233 130.621 0.441419 129.622 0.302156 121.507Z" transform="translate(758.105 654.458)" fill="#A8DBF5"/>
<path d="M3.10375 122.605C3.15946 107.499 2.63027 92.5189 1.87825 77.476C1.20979 63.8687 1.2655 50.1366 1.18194 36.4045C1.12624 27.0417 1.23765 17.7413 0.12355 8.62822C-0.266385 5.38245 0.262803 3.69713 1.76684 2.44876C2.54671 1.82457 3.38229 1.38766 4.19001 1.13798C8.22862 -0.235225 12.2951 -0.422496 16.3337 0.888295C18.0884 1.45006 18.729 3.07298 18.7569 7.00535C18.7847 11.125 18.8961 15.2446 18.9518 19.3642C19.0632 33.0339 19.0632 46.7036 19.2861 60.3109C19.5089 73.7933 19.8431 87.2133 20.3723 100.633C20.623 107.624 21.3471 114.553 21.9042 121.419C22.322 126.537 21.0965 130.782 18.8683 130.844C14.9968 130.969 11.0974 130.657 7.22594 130.469C6.58533 130.407 5.94471 130.032 5.33195 129.658C3.27087 128.472 2.93664 127.411 3.10375 122.605Z" transform="translate(334.867 672.338)" fill="#A8DBF5"/>
<path d="M18.0026 22.2491C18.0026 32.1737 18.0304 42.1606 18.0026 52.0851C17.919 69.3127 17.6962 86.5402 17.724 103.705C17.724 108.2 18.1976 112.694 18.7268 117.063C19.4788 123.242 18.4761 127.612 15.6351 127.986C12.1257 128.423 8.61628 128.486 5.10686 128.111C3.76994 127.986 2.43303 126.488 1.17966 125.24C0.260529 124.366 -0.129433 122.368 0.0376819 120.059C0.984668 106.015 0.176958 91.8458 0.260516 77.8016C0.260516 75.9291 0.260529 74.0565 0.344087 72.184C1.0404 52.7094 0.622606 33.2348 0.371933 13.7602C0.371933 12.6991 0.344067 11.7004 0.288361 10.6393C-0.101574 2.77451 -0.101581 2.5248 3.24072 1.40127C7.3629 -0.0343597 11.513 -0.720964 15.663 1.08917C17.4734 1.90062 18.0304 3.33623 17.9747 7.39344C17.919 12.3245 17.7798 17.318 17.6684 22.2491C17.8076 22.2491 17.919 22.2491 18.0026 22.2491Z" transform="translate(466.258 665.833)" fill="#A8DBF5"/>
<path d="M17.7594 59.4241C17.7594 76.2147 17.7315 93.0676 17.7872 109.858C17.7872 112.73 18.1772 115.601 18.4279 118.41C18.8735 123.528 17.7315 127.523 15.4476 127.273C11.1026 126.774 6.78552 125.588 2.46839 124.714C0.936506 124.402 0.518719 122.342 0.518719 119.159C0.574424 101.931 0.602297 84.7036 0.574444 67.4761C0.574444 51.06 0.518739 34.7063 0.435182 18.2902C0.40733 14.7948 0.100952 11.2369 0.0173951 7.74144C-0.0940148 3.18489 0.295899 1.99898 2.18987 1.31237C6.61841 -0.24809 11.047 -0.685066 15.4755 1.49958C17.5923 2.5607 17.8708 3.24734 17.843 8.24082C17.7316 25.2811 17.6201 42.3214 17.5087 59.3617C17.5923 59.4241 17.6758 59.4241 17.7594 59.4241Z" transform="translate(572.066 680.465)" fill="#A8DBF5"/>
<path d="M5.80328 -1.52389e-05C9.08988 1.12352 12.4043 2.1222 15.6631 3.49541C17.6685 4.36927 18.3926 6.36673 17.947 10.4239C16.8607 20.3485 17.5571 30.2731 17.8356 40.1352C18.337 58.5487 19.2004 76.8997 18.8661 95.4381C18.8104 98.4966 19.1725 101.618 19.3118 104.676C19.5625 110.856 18.3091 114.039 15.5795 112.978C11.3181 111.355 7.05665 109.233 2.85091 107.048C1.1519 106.174 0.706269 104.489 1.01265 100.681C2.37742 83.3289 1.95963 65.9765 1.31902 48.6241C0.845525 35.641 0.344186 22.658 0.0378072 9.61247C-0.157161 1.18595 0.288474 0.4369 4.10428 0.374481C4.66133 0.374481 5.21838 0.374481 5.77543 0.374481C5.77543 0.312063 5.80328 0.187241 5.80328 -1.52389e-05Z" transform="translate(661.598 695.072)" fill="#A8DBF5"/>
<path d="M11.2398 92.7773C8.95592 92.4028 7.11764 92.278 5.27937 91.7162C3.55251 91.1544 2.77264 88.5953 2.93975 84.7878C3.58036 71.0557 3.10687 57.4485 2.10417 43.9037C1.82565 40.2211 1.68638 36.5384 1.46356 32.7933C1.01792 25.1782 0.572276 17.6256 0.0987811 10.0106C-0.263303 3.76872 0.293751 2.14582 3.05116 1.52164C5.44649 1.02229 7.81396 0.273278 10.2093 0.0860232C12.2147 -0.101232 14.2479 0.0236048 16.2812 0.398115C17.9523 0.710207 18.2587 1.95859 18.398 5.64128C18.8715 18.874 19.3449 32.0442 19.902 45.2145C20.2084 52.3926 20.654 59.5707 21.0161 66.7489C21.2668 71.8672 21.4339 77.0479 21.6289 82.2286C21.8795 89.2819 21.1832 90.9672 18.0359 91.4666C15.6127 91.9035 13.2174 92.4028 11.2398 92.7773Z" transform="translate(123.25 537.817)" fill="#A8DBF5"/>
<path d="M18.0627 1.75023C18.5919 19.9764 18.9261 37.2039 19.6224 54.3066C19.9845 63.5445 19.4553 72.9697 20.848 82.0204C21.4607 86.0776 20.2073 89.6979 18.1463 90.3845C16.865 90.8215 15.556 90.759 14.2748 90.759C11.2388 90.6966 8.17504 90.9463 5.16696 90.1973C2.63238 89.5731 2.24244 87.5133 2.52097 81.7707C2.66023 79.0867 2.57666 76.4028 2.4931 73.7188C2.01961 56.9282 1.57397 40.1376 1.01692 23.4094C0.849806 18.2287 0.34847 13.1728 0.0699441 7.99208C-0.208582 3.06102 0.292761 1.50055 2.52097 1.12604C6.03039 0.501858 9.53981 0.0648976 13.0492 0.00247905C14.6647 -0.0599395 16.2801 1.06362 18.0627 1.75023Z" transform="translate(317.43 534.653)" fill="#A8DBF5"/>
<path d="M0 0.937309C3.98292 -0.872828 7.46449 0.375512 10.9461 1.06212C12.5894 1.37421 14.2048 2.49776 15.8203 3.30921C17.6585 4.24548 18.327 6.43012 18.3549 10.8618C18.4663 25.3429 18.4941 39.8864 18.7726 54.3675C18.9398 63.6055 19.5525 72.8434 19.9146 82.0814C20.1374 87.7615 19.8032 89.0098 17.2965 89.0722C12.6729 89.1346 8.07725 88.5105 3.45372 88.0735C1.97753 87.9487 1.42048 85.5768 1.30907 82.5807C0.86343 69.4104 -0.0278526 56.3649 0.362084 42.945C0.696315 30.9606 0.139263 18.9138 0 6.86707C0 5.05693 0 3.24679 0 0.937309Z" transform="translate(2.32617 560.124)" fill="#A8DBF5"/>
<path d="M11.6702 87.4489C9.2749 87.012 6.40609 86.575 3.53728 85.9508C1.33692 85.4515 0.807725 84.4528 0.75202 79.3345C0.668462 73.9665 0.891269 68.5985 0.946974 63.2305C0.974827 61.5452 1.03053 59.8599 0.946974 58.237C-0.0835713 41.3216 0.0278662 24.2813 1.35999e-05 7.24108C1.35999e-05 2.18518 0.417802 1.24891 2.78527 0.811977C6.93531 -0.061882 11.0853 -0.623641 15.2354 1.24891C15.7924 1.49859 16.3216 1.68581 16.8508 1.99791C18.1599 2.74693 18.522 4.55707 18.327 7.61557C17.2686 23.5323 17.4914 39.449 18.4941 55.3657C18.9676 62.7311 19.4689 70.0965 19.8867 77.4619C19.9981 79.2721 19.9424 81.2695 19.7196 83.0172C19.3854 85.826 18.6055 87.6361 17.1015 87.4489C15.486 87.2616 13.8149 87.4489 11.6702 87.4489Z" transform="translate(709.268 571.047)" fill="#A8DBF5"/>
<path d="M18.1079 2.39253C18.1079 7.38602 18.1636 12.1298 18.1079 16.8736C17.8572 31.8541 18.4421 46.7721 19.1942 61.6277C19.3056 63.6251 19.7234 65.5601 20.0019 67.495C20.9489 74.049 19.6398 78.1686 16.576 77.9814C12.8716 77.7941 9.19511 77.3572 5.49071 76.9203C4.76655 76.8578 4.04237 76.3585 3.34606 75.8591C1.67491 74.7356 1.14571 72.7382 1.11785 69.118C0.978591 56.0725 0.783613 43.027 0.53294 30.0439C0.393677 22.1792 0.115161 14.3145 0.00375072 6.44974C-0.0519544 2.39253 0.505097 1.14419 2.23196 0.894512C6.46555 0.270327 10.727 -0.728392 14.9606 0.832071C15.9633 1.20658 16.9102 1.76835 18.1079 2.39253Z" transform="translate(401.145 539.88)" fill="#A8DBF5"/>
<path d="M0.14099 3.4478C4.5974 2.26185 8.63605 -1.48326 13.0089 0.638969C13.7888 1.01348 14.6801 0.57652 15.4878 0.763776C17.6881 1.32554 18.1895 2.63636 18.2173 7.50501C18.2452 20.3632 18.1895 33.2214 18.3844 46.0796C18.4958 53.7571 18.8858 61.3722 19.2479 68.9873C19.4986 74.4177 18.9972 76.4775 16.574 76.852C12.5911 77.4762 8.63605 77.9131 4.65313 77.9755C1.47793 78.0379 0.865184 75.4788 1.00445 68.3006C1.17156 60.2486 0.920883 52.1343 0.753767 44.0198C0.530947 32.5973 0.252428 21.2371 0.029607 9.81446C-0.0539508 8.00432 0.0574323 6.1318 0.14099 3.4478Z" transform="translate(511.602 506.119)" fill="#A8DBF5"/>
<path d="M18.0226 28.4739C18.2176 38.0239 18.3847 47.5115 18.6632 57.0615C18.7467 60.12 19.2203 63.1786 19.3317 66.2371C19.4709 70.3567 18.691 72.7286 16.8528 72.9783C12.6192 73.54 8.35776 73.977 4.09631 73.7897C1.36676 73.6649 0.559009 71.4802 0.726125 65.6129C1.31103 46.5128 0.753978 27.4752 0.0298106 8.43752C-0.137305 3.75613 0.364041 3.0071 2.39728 1.75873C6.79799 -0.862851 11.2265 0.135823 15.6273 0.447916C17.7998 0.572753 18.1619 1.69632 18.1619 6.56496C18.1619 13.8055 18.1619 21.1085 18.1619 28.349C18.134 28.4738 18.0783 28.4739 18.0226 28.4739Z" transform="translate(602.297 548.879)" fill="#A8DBF5"/>
<path d="M12.4821 61.5222C9.33472 61.1477 6.49376 60.898 3.65279 60.4611C1.25747 60.0866 0.477602 58.2141 0.477602 53.0957C0.533307 41.7356 0.700421 30.3754 0.672569 19.0152C0.672569 14.8956 0.310486 10.7759 0.0598128 6.71874C-0.163008 3.09846 0.199075 1.4756 1.78667 1.03867C6.57732 -0.27212 11.3958 -0.58422 16.1586 1.53801C18.6096 2.66154 19.0553 5.09587 18.9996 11.0256C18.916 18.4534 19.0831 25.8813 19.1945 33.3091C19.2781 39.4885 19.3895 45.7303 19.4731 51.9098C19.5009 53.3454 19.4731 54.781 19.3895 56.2167C19.1388 60.2114 18.6653 61.2725 16.9106 61.4598C15.3509 61.647 13.7633 61.5222 12.4821 61.5222Z" transform="translate(62.791 431.503)" fill="#A8DBF5"/>
<path d="M0.905281 28.8878C0.710313 24.2688 0.376081 16.4665 0.0418495 8.60176C-0.153119 4.04521 0.292521 2.3599 2.2422 1.61087C5.61236 0.300086 9.01038 -0.885851 12.4362 0.924286C13.3275 1.42363 14.2745 1.29879 15.1937 1.42363C17.6725 1.86056 18.1182 2.85925 18.2296 8.16482C18.3967 14.7812 18.4803 21.46 18.7031 28.0763C18.9538 35.3169 19.3437 42.5574 19.6222 49.798C19.7058 51.6705 19.7058 53.5431 19.6501 55.3532C19.5387 58.2869 18.7588 59.9098 17.4219 59.785C12.7983 59.348 8.1748 58.9735 3.55128 58.2869C1.43448 57.9748 0.960985 56.9137 0.877427 52.1075C0.793869 45.4287 0.905281 38.7499 0.905281 28.8878Z" transform="translate(141.855 413.452)" fill="#A8DBF5"/>
<path d="M19.4812 5.34153C19.3976 7.52617 19.4533 9.46112 19.2584 11.2088C17.8379 24.7536 17.9493 38.3608 18.4785 52.0929C18.7013 58.3347 17.6986 61.2684 14.9412 60.5194C10.4569 59.3334 5.97267 57.4609 1.51625 55.838C-0.154913 55.2138 -0.0435163 52.2177 0.0400417 49.5337C0.179305 43.5416 0.429999 37.5494 0.513557 31.5573C0.624968 23.0684 0.624961 14.517 0.680666 6.02812C0.708519 1.72125 1.20986 0.0359677 3.07599 0.0359677C8.53511 -0.151288 14.0221 0.223223 19.4812 5.34153Z" transform="translate(741.822 448.546)" fill="#A8DBF5"/>
<path d="M18.6053 2.46088C18.6053 8.64031 18.4939 14.3828 18.6332 20.1254C18.8839 29.4257 19.3573 38.6636 19.5802 47.964C19.6359 50.0238 19.1067 52.1461 18.8282 54.6428C14.1489 54.9549 9.72038 55.267 5.29182 55.4542C4.65121 55.5166 4.01059 55.0797 3.36998 54.83C1.28104 54.0186 0.807536 52.9575 0.751831 48.4633C0.640421 39.7248 0.612561 31.0486 0.501151 22.31C0.417593 17.3165 0.250491 12.3854 0.0276708 7.39196C-0.111592 4.27103 0.250498 1.58702 1.67098 1.21251C7.2415 -0.347957 12.8398 -0.847305 18.6053 2.46088Z" transform="translate(631.363 415.161)" fill="#A8DBF5"/>
<path d="M8.92108 7.61945e-06C11.3164 0.499356 13.5446 0.936263 15.745 1.49803C18.1124 2.12221 18.5581 3.24578 18.753 8.55135C19.0873 17.2275 19.3658 25.9037 19.7557 34.5799C19.9507 38.4498 20.3128 42.3198 20.7584 46.1273C21.594 52.8061 20.6192 56.3015 17.6389 56.3015C14.408 56.3015 11.1771 56.1143 7.94624 55.927C7.0271 55.8646 6.10797 55.4901 5.21669 55.0532C2.79351 53.7424 2.37572 52.6188 2.23646 46.9388C1.95793 33.8933 1.84653 20.8478 0.175377 8.11442C-0.353821 4.18205 0.314644 2.30948 2.18077 1.62287C4.49253 0.873852 6.80428 0.561774 8.92108 7.61945e-06Z" transform="translate(238.363 434.54)" fill="#A8DBF5"/>
<path d="M19.5558 52.5564C14.0967 54.5538 9.02757 54.429 3.9584 53.4927C2.06443 53.1806 0.922465 50.4966 1.20099 46.689C1.86945 36.8269 0.811054 27.2769 0.504676 17.6644C0.393266 13.9193 0.337567 10.1742 0.0590415 6.49154C-0.219484 2.93369 0.504683 1.12353 1.86946 0.936278C5.26747 0.374511 8.69333 0.0624185 12.0913 0C13.3726 0 14.6538 0.686611 15.9072 1.37322C18.1632 2.62159 18.3303 3.12094 18.4696 8.67619C18.6367 14.6684 18.6089 20.6605 18.8874 26.6527C19.1381 32.5825 19.723 38.4498 19.9736 44.442C20.085 46.9387 19.723 49.5603 19.5558 52.5564Z" transform="translate(433.699 425.362)" fill="#A8DBF5"/>
<path d="M14.4037 45.6797C10.5879 44.2441 6.7442 46.3039 3.06766 43.1205C1.03443 41.3728 0.700188 41.3104 0.588778 36.3169C0.338104 26.642 0.143143 16.9048 0.0038802 7.22989C-0.051825 2.61092 0.477371 1.42498 2.59417 0.925633C6.91132 -0.0730638 11.2563 -0.572442 15.5735 1.05044C17.9966 1.98672 18.693 3.92171 18.5258 9.53938C18.2752 18.4652 18.0523 27.2662 19.1943 36.0673C20.002 42.3091 18.9158 45.0555 15.9634 45.4924C15.4342 45.4924 14.8772 45.6173 14.4037 45.6797Z" transform="translate(222.084 533.921)" fill="#A8DBF5"/>
<path d="M12.1645 42.6955C9.82483 43.1325 6.81677 43.0701 3.83654 40.8854C2.72244 40.074 2.16538 39.0128 2.05397 36.2664C1.66403 26.4043 1.58047 16.4174 0.132134 6.86732C-0.313507 3.99607 0.41066 1.93624 1.66403 1.31206C3.00095 0.68787 4.39358 0.00128147 5.75836 0.00128147C9.23993 0.00128147 12.7772 -0.0611523 16.2309 0.68787C18.4313 1.18722 18.5148 2.7477 18.8212 7.8036C19.3226 16.1677 19.0162 24.719 20.4367 32.8958C21.4394 38.6384 20.0746 42.3834 17.2893 42.6331C15.841 42.8204 14.337 42.6955 12.1645 42.6955Z" transform="translate(353.473 413.939)" fill="#A8DBF5"/>
<path d="M10.053 -7.61947e-06C11.8634 0.436924 14.2587 0.998715 16.6262 1.6229C17.991 1.99741 18.2974 3.74512 18.2695 6.86605C18.186 15.355 18.2695 23.844 19.6343 31.9584C19.8571 33.3316 20.0242 34.7672 20.1078 36.2029C20.3028 39.8856 19.5229 42.1327 17.9353 42.8193C17.7403 42.8817 17.5732 42.9441 17.3783 42.9441C13.0333 42.5071 8.68823 42.3199 4.37109 41.5709C2.03147 41.1964 1.0288 39.0117 1.22377 34.0182C1.53014 25.7789 0.555298 17.9766 0.13751 10.0494C-0.252426 3.05853 0.0260858 1.87255 3.11772 1.12352C5.20666 0.561753 7.35132 0.436924 10.053 -7.61947e-06Z" transform="translate(527.885 388.1)" fill="#A8DBF5"/>
<path d="M6.79991e-06 5.90935C0.752022 4.91066 1.33691 3.66228 2.00537 3.28777C6.68457 0.541367 11.4195 -1.14392 16.2658 0.915884C18.1598 1.72732 18.6054 2.60118 18.6333 7.15771C18.6611 13.462 19.0789 19.5165 19.9145 25.4463C20.4158 28.8793 19.8588 31.0015 18.3826 32.0626C18.2155 32.1874 18.0205 32.2498 17.8256 32.2498C13.0349 32.125 8.24432 33.9976 3.42585 32.4371C2.2282 32.0626 1.67114 30.8143 1.50403 28.0678C1.08624 20.8897 0.529203 13.7741 6.79991e-06 5.90935Z" transform="translate(370.914 338.559)" fill="#A8DBF5"/>
<path d="M18.8421 8.97286C18.7307 12.9676 18.6193 17.0248 18.5636 21.0196C18.5357 22.2056 18.6471 23.454 18.7585 24.7023C19.2877 30.5697 18.48 33.004 15.8062 32.7543C11.489 32.3174 7.17187 31.6932 2.85472 30.8817C0.403694 30.4448 -0.0140955 28.6347 0.180873 23.0794C0.320135 19.0222 0.320136 14.8402 0.0973151 10.8454C-0.236916 5.04049 0.208726 3.16792 2.71546 2.16922C6.89334 0.608761 11.0712 -0.577191 15.3327 0.296669C18.285 0.983272 19.0649 2.54375 18.8421 8.97286Z" transform="translate(47.6719 358.965)" fill="#A8DBF5"/>
<path d="M7.03163 31.6858C5.72256 31.6858 4.80344 31.8731 3.88431 31.6234C1.99033 31.1241 1.46112 29.9381 1.15474 26.0057C0.82051 21.9485 0.486279 17.8913 0.179901 13.8341C-0.349298 6.78083 0.179901 5.28278 3.24368 3.3478C7.00378 0.9759 10.7917 -0.397296 14.6911 0.102052C18.0334 0.538981 18.4512 1.60009 18.5348 8.96547C18.5905 13.0227 18.869 17.2047 19.3425 21.1371C20.011 26.7548 19.3982 29.3139 16.78 29.8757C13.4099 30.5623 10.0119 31.124 7.03163 31.6858Z" transform="translate(481.375 276.206)" fill="#A8DBF5"/>
<path d="M15.4643 29.0761C11.9549 28.6392 7.88842 28.0774 3.82194 27.7653C2.34576 27.6405 1.59374 26.0176 1.31521 23.0839C0.841717 17.8408 0.396075 12.5352 0.0618445 7.16721C-0.216681 2.73549 0.423928 0.862934 2.42931 0.613259C7.30352 -0.0733445 12.2056 -0.635111 17.0519 1.54954C18.2496 2.1113 18.8623 3.04757 19.0294 5.73157C19.3358 10.413 19.7257 15.0944 20.0878 19.8382C20.5613 26.3921 19.7536 28.6392 16.8291 29.0761C16.5506 29.1385 16.272 29.0761 15.4643 29.0761Z" transform="translate(725.549 280.624)" fill="#A8DBF5"/>
<path d="M21.3812 22.0962C20.2671 27.5266 18.7631 29.524 16.4235 29.1494C12.3848 28.5253 8.31835 28.5253 4.27973 27.9635C2.3579 27.7138 1.80086 26.4031 1.46662 22.6579C0.99313 17.4148 0.547489 12.1092 0.0739952 6.86606C-0.232383 3.24578 0.408221 0.686589 2.07938 0.436915C5.19886 -1.52166e-05 8.31836 1.52389e-05 11.4657 1.52389e-05C12.9419 1.52389e-05 14.4181 0.374511 15.8943 0.686604C17.8439 1.18595 18.3731 2.55916 18.5681 6.92846C18.6517 8.98827 18.8745 11.0481 18.9023 13.1079C18.958 17.0403 19.4872 20.4109 21.3812 22.0962Z" transform="translate(187.199 349.462)" fill="#A8DBF5"/>
<path d="M5.8286 29.5315C5.63363 29.5939 5.46651 29.6564 5.27154 29.6564C1.17722 29.7812 0.480887 28.5328 0.453035 19.6694C0.425182 16.7982 0.146656 13.9269 0.0352458 11.0557C-0.159722 6.06218 0.425189 4.43931 2.51413 3.0661C6.91484 0.257266 11.3991 -0.304509 15.9112 0.132421C18.1394 0.319677 18.6129 1.63046 18.7243 6.56152C18.8357 10.8684 19.0307 15.1753 19.2535 19.4198C19.5042 23.9139 18.8636 26.6603 16.8025 27.2845C13.1538 28.3456 9.47728 28.9698 5.8286 29.7812C5.8286 29.6564 5.8286 29.5939 5.8286 29.5315Z" transform="translate(586.018 306.324)" fill="#A8DBF5"/>
<path d="M11.0902 28.0492C8.667 27.7371 6.71734 27.3002 4.76766 27.3626C3.40288 27.425 2.65085 26.0518 2.23306 23.4927C1.48104 18.8113 0.784737 14.0675 0.171981 9.32365C-0.385071 4.82952 0.422647 1.83343 2.42803 1.27167C7.10727 -0.0391223 11.8143 -0.663304 16.5214 1.022C17.6912 1.45893 18.3319 2.3952 18.6104 5.0792C19.1117 9.69817 19.7245 14.2547 20.3372 18.8113C20.9778 23.6175 20.3094 26.4263 18.0533 26.9881C15.6023 27.6123 13.0956 27.7995 11.0902 28.0492Z" transform="translate(255.803 304.811)" fill="#A8DBF5"/>
<path d="M14.8637 23.4291C12.6634 23.866 10.4631 24.5526 8.2627 24.8023C6.42443 24.9895 4.58614 24.8023 2.74787 24.6774C1.57807 24.615 0.853899 22.9922 0.658931 20.4954C0.408258 17.2497 0.269008 13.9415 0.0461878 10.6957C-0.176633 7.51237 0.408258 5.26531 1.77303 4.57871C6.50797 2.20681 11.1872 -1.72556 16.2007 0.833599C18.1225 1.8323 18.4846 2.51887 18.7074 6.88816C18.8467 9.75942 19.0695 12.6307 19.153 15.502C19.348 21.4317 18.791 22.9922 16.2007 23.6164C15.755 23.7412 15.2815 23.6164 14.8359 23.6164C14.8638 23.5539 14.8637 23.4915 14.8637 23.4291Z" transform="translate(677.873 371.413)" fill="#A8DBF5"/>
<path d="M10.9033 9.52431e-07C13.048 0.436931 15.2762 0.81144 17.4487 1.37321C18.6185 1.6853 19.6768 2.93367 19.7604 5.86734C19.8718 9.23794 18.6742 10.5487 17.4765 11.2353C16.3346 11.9219 15.109 12.1092 13.9392 12.2964C10.6248 12.7334 7.31032 13.1079 3.96801 13.2327C3.13243 13.2951 2.15759 12.6085 1.43343 11.6098C0.625703 10.4239 -0.349158 8.80101 0.124336 6.0546C0.569977 3.43302 1.3777 1.49805 2.77033 1.24837C5.49988 0.811442 8.17375 0.374512 10.9033 9.52431e-07Z" transform="translate(449.979 42.6738)" fill="#A8DBF5"/>
<path d="M17.9772 10.4658C12.8523 12.4007 7.81102 13.1498 2.74187 11.9638C1.79488 11.7141 0.875746 10.7779 0.0401706 10.2785C-0.238354 4.84804 0.9593 2.35128 2.76971 1.78951C5.74993 0.853222 8.78586 0.416286 11.7939 0.0417721C12.9916 -0.145485 14.1892 0.353871 15.4148 0.41629C18.9799 0.665967 19.4534 2.28886 17.9772 10.4658Z" transform="translate(302.312 63.7295)" fill="#A8DBF5"/>
<path d="M9.3863 12.5359C6.90742 12.0365 4.4564 11.4123 1.97752 10.9754C0.584897 10.7257 0 8.66586 0 5.98181C0 3.17292 1.05839 2.42389 2.11679 2.04938C6.76816 0.426463 11.4196 -0.634677 16.1266 0.426459C18.6055 0.988236 19.5246 3.98439 18.5776 8.72829C18.2991 10.1015 17.4357 11.7869 16.8229 11.8493C14.3719 12.2238 11.8931 11.9741 9.41418 11.9741C9.38632 12.1614 9.3863 12.3486 9.3863 12.5359Z" transform="translate(692.992 194.236)" fill="#A8DBF5"/>
<path d="M18.0185 1.96397C18.1021 12.9495 18.1021 13.0119 13.6735 12.8871C10.2755 12.7623 6.87743 12.4502 3.45155 12.2005C2.89449 12.1381 2.33743 12.0757 1.80823 11.7012C0.777683 10.9521 -0.169299 9.45413 0.0256698 6.895C0.137081 5.52181 1.00051 3.64926 1.64112 3.33717C4.78848 1.96398 7.99154 0.902869 11.1668 0.0914372C12.3366 -0.220652 13.5342 0.341124 14.7319 0.653213C15.7903 1.02772 16.8487 1.52705 18.0185 1.96397Z" transform="translate(287.199 230.4)" fill="#A8DBF5"/>
<path d="M17.5402 2.17747C18.7658 9.73011 17.958 12.851 14.5878 12.5389C10.6328 12.1644 6.70557 11.1033 2.75051 10.2919C2.22131 10.167 1.66427 9.7301 1.16292 9.23075C-0.201853 7.85755 -0.396821 5.04872 0.745134 2.92649C1.02366 2.42714 1.35789 1.92779 1.71997 1.80295C7.01196 -0.381695 12.304 -0.943458 17.5402 2.17747Z" transform="translate(646.48 107.096)" fill="#A8DBF5"/>
<path d="M8.79768 11.6961C6.40235 11.6961 4.00702 11.8834 1.61169 11.6337C0.0240857 11.4465 -0.254443 10.0733 0.1912 6.7027C0.581137 3.70664 1.58384 2.52069 2.7815 1.70926C5.53892 -0.100863 8.37989 -0.225695 11.2209 0.211231C12.9477 0.460904 14.6746 1.39716 16.4015 1.89651C18.0169 2.33343 18.2119 4.76775 18.184 7.70139C18.1562 11.072 17.1813 11.821 15.9558 11.8834C13.5605 11.9458 11.1652 11.8834 8.76983 11.8834C8.79768 11.821 8.79768 11.7586 8.79768 11.6961Z" transform="translate(172.086 207.747)" fill="#A8DBF5"/>
<path d="M12.9934 0.499356C14.0797 0.499356 15.1937 0.312085 16.28 0.561759C17.2827 0.749015 18.0626 1.93497 18.0904 4.43172C18.1183 7.05329 18.2854 10.0494 16.8092 11.1729C16.1407 11.6723 15.3887 11.9219 14.6646 12.0468C12.0186 12.4837 9.34471 13.0455 6.67086 13.1079C4.944 13.1079 3.1893 12.5461 1.49029 11.7971C0.933238 11.5474 0.264782 9.98696 0.0698145 8.73859C-0.236564 6.61636 0.515449 5.36799 1.35103 4.68139C2.40942 3.86994 3.43998 2.87125 4.52623 2.49674C7.31148 1.49804 10.1246 0.811437 12.9377 -3.80972e-06C12.9655 0.124833 12.9656 0.3121 12.9934 0.499356Z" transform="translate(418.584 213.702)" fill="#A8DBF5"/>
<path d="M10.7877 13.0384C7.7796 12.0397 4.77152 11.1034 1.7913 10.0423C0.872162 9.73023 -0.102681 8.91879 0.00872977 6.17237C0.12014 3.86289 0.927866 3.05145 1.90271 2.36485C6.41482 -0.943334 10.9826 -0.131895 15.5783 0.92922C17.0545 1.24131 18.0015 4.11256 17.9458 7.42074C17.8901 10.4793 17.3052 11.6652 15.5226 11.9149C13.9629 12.1021 12.4031 11.9773 10.8155 11.9773C10.8155 12.2894 10.7877 12.6639 10.7877 13.0384Z" transform="translate(109.299 112.84)" fill="#A8DBF5"/>
<path d="M3.90818 14.2038C2.68267 14.0165 2.01421 14.2038 1.4293 13.7044C0.900105 13.2675 0.175938 12.3312 0.0645279 11.2701C-0.102588 9.95932 0.0645278 7.89951 0.454464 6.90082C0.95581 5.59003 1.79139 4.59132 2.57126 4.27923C6.38706 2.71877 10.2029 1.28315 14.0187 0.0347761C14.6314 -0.152479 15.2999 0.471702 15.9405 0.596539C17.2217 0.846213 17.6674 2.53151 17.6952 5.21551C17.7231 8.02434 17.361 10.2714 15.9962 10.7083C11.7626 12.0191 7.55687 13.1427 3.90818 14.2038Z" transform="translate(33.7188 278.707)" fill="#A8DBF5"/>
<path d="M12.5955 0.81144C13.5982 0.81144 14.6287 0.686602 15.6314 0.81144C16.829 0.936278 17.414 2.74643 17.6089 5.2432C17.8039 7.80238 16.9683 11.1106 15.9935 11.6724C15.1858 12.1717 14.3502 12.4838 13.5425 12.5462C10.3951 12.6711 7.27564 12.7335 4.12831 12.6711C3.32059 12.6711 2.48502 12.2341 1.6773 11.8596C0.702458 11.3603 -0.0774115 10.2991 0.006146 7.73996C0.0897035 5.43045 0.813862 4.80627 1.70514 4.43176C5.32597 2.99612 8.9468 1.49806 12.5398 0C12.5398 0.249676 12.5676 0.561764 12.5955 0.81144Z" transform="translate(158.133 274.311)" fill="#A8DBF5"/>
<path d="M17.8255 0.51029C17.8255 3.69359 17.8255 6.62723 17.8255 10.4347C14.7339 10.9965 11.7259 11.683 8.71781 12.12C7.26949 12.3072 5.79329 12.0576 4.31711 12.1824C2.50671 12.3696 1.55972 11.5582 -1.35998e-05 8.12525C0.167101 5.25404 1.14194 3.81844 2.20034 3.25668C7.24163 0.697558 12.3386 -0.862898 17.8255 0.51029Z" transform="translate(556.949 183.479)" fill="#A8DBF5"/>
<path d="M10.6857 3.80972e-06C12.5797 0.436933 14.3344 0.811445 16.0613 1.24837C17.3703 1.62289 17.9831 3.37061 18.0109 6.30428C18.0388 9.7373 17.5653 11.485 16.0891 12.1092C15.2814 12.4837 14.4458 12.4213 13.6381 12.2964C11.3542 12.0468 9.04243 11.7347 6.75852 11.2353C4.9481 10.8608 3.13768 10.4863 1.35511 9.61245C0.825911 9.36278 0.296719 7.61507 0.0738982 6.30428C-0.23248 4.3693 0.463821 3.30819 1.24369 2.80884C2.05142 2.30949 2.85915 1.81014 3.66687 1.62289C6.06219 0.998704 8.45752 0.499352 10.6857 3.80972e-06Z" transform="translate(387.191 161.395)" fill="#A8DBF5"/>
<path d="M17.8283 2.2158C17.689 5.64882 17.5776 8.2704 17.4384 11.2041C16.3243 11.5786 15.433 12.2652 14.5417 12.2028C11.0323 11.8907 7.52284 11.3913 4.01341 10.892C3.09428 10.7671 2.09158 10.5799 1.31171 9.58118C0.698955 8.83216 0.0862116 7.02202 0.00265392 5.52398C-0.0530512 4.5877 0.782516 2.77756 1.36742 2.40305C4.57047 0.34324 7.88493 -0.343368 11.2272 0.15598C13.2883 0.405654 15.3773 1.40436 17.8283 2.2158Z" transform="translate(273.246 175.159)" fill="#A8DBF5"/>
<path d="M16.9352 1.16979C17.1301 2.79267 17.4087 4.16588 17.4365 5.60151C17.4644 8.66001 16.4617 11.344 15.1247 11.344C10.724 11.2816 6.29548 10.9071 1.89477 10.595C1.6998 10.595 1.47701 10.595 1.3656 10.3453C0.864253 9.34662 0.0565216 8.2855 0.000816488 7.09955C-0.0270361 6.03843 0.669285 4.2283 1.22634 3.72895C2.56326 2.48058 4.01159 1.2322 5.43207 1.04494C9.13646 0.608011 12.8965 -1.1397 16.9352 1.16979Z" transform="translate(497.648 165.779)" fill="#A8DBF5"/>
<path d="M6.18663 12.6284C4.62689 12.6284 3.06717 12.8781 1.53528 12.5036C0.950379 12.3787 0.059099 10.8807 0.00339397 9.75712C-0.052311 8.63357 0.58829 6.76099 1.14534 6.1368C5.32321 1.33052 9.80746 -0.417201 14.5145 0.0821522C15.7122 0.20699 16.1857 1.70504 16.2414 4.01455C16.2971 6.82341 16.13 9.7571 14.6816 10.5061C12.7041 11.5048 10.6987 12.129 8.69336 12.7532C7.88564 13.0029 7.02224 12.8156 6.21451 12.8156C6.18666 12.7532 6.18663 12.6908 6.18663 12.6284Z" transform="translate(544.156 230.974)" fill="#A8DBF5"/>
<path d="M17.9735 0.602857C18.1685 7.09438 18.1685 7.46889 15.996 8.34275C13.0993 9.46628 10.1748 10.2777 7.25025 10.9019C5.43983 11.2764 3.60156 11.1516 1.79115 11.0267C0.927716 10.9643 0.119992 10.3401 0.00858138 7.96824C-0.0749764 5.53391 0.454223 3.97346 1.48477 3.47411C2.73813 2.84993 3.9915 2.1009 5.24487 1.78881C8.55932 1.03978 11.8459 0.478024 15.1604 0.0410943C16.0795 -0.146161 16.9708 0.353183 17.9735 0.602857Z" transform="translate(18.6055 171.715)" fill="#A8DBF5"/>
<path d="M0.0835577 6.28883C0.0557052 4.66595 0.0278517 3.23033 -8.49993e-07 2.04438C1.42048 -1.88799 13.6756 0.23424 17.6585 5.1653C17.2129 6.22642 16.8508 7.8493 16.4052 7.97414C12.1994 9.34735 7.99369 11.2199 3.73225 9.28491C2.45103 8.72314 1.28122 7.34994 0.0835577 6.28883Z" transform="translate(95.3477 214.343)" fill="#A8DBF5"/>
<path d="M16.0289 8.0949C14.887 9.21844 14.2742 10.2796 13.6057 10.4044C10.2077 10.9037 6.80971 11.2782 3.41169 11.2782C2.49256 11.2782 1.43417 10.0923 0.737853 8.71909C0.236506 7.72039 -0.0698652 5.47333 0.0136925 3.85044C0.0972502 1.72821 0.793544 0.16775 1.90765 0.105331C2.18617 0.105331 2.4647 -0.0819243 2.74322 0.0429127C6.69829 1.60338 10.7648 2.10272 14.5806 5.47333C14.9427 5.78542 15.2491 6.65928 16.0289 8.0949Z" transform="translate(618.574)" fill="#A8DBF5"/>
<path d="M18.907 93.6407C19.102 103.565 19.2413 113.552 19.5198 123.477C19.6033 126.722 20.1882 129.906 20.3554 133.214C20.6339 139.269 19.6869 142.077 17.0688 142.14C13.2808 142.265 9.465 142.14 5.7049 141.578C2.83609 141.141 1.8891 138.707 2.16762 132.278C3.03105 112.99 1.24849 93.828 1.55487 74.6031C1.72199 63.2429 1.24849 51.8827 0.969965 40.5226C0.719292 29.9738 0.301505 19.4251 0.0229791 8.87634C-0.116284 3.44592 0.329359 2.13513 2.69683 1.6982C6.84686 0.949183 10.9969 0.262609 15.1469 0.0129352C18.0157 -0.17432 18.4335 1.63579 18.2107 7.94006C17.96 15.8048 17.8486 23.6696 17.9322 31.5343C17.9879 38.5876 18.5728 45.5784 18.6285 52.6317C18.7399 66.3014 18.6564 79.9711 18.6564 93.6407C18.7399 93.6407 18.8235 93.6407 18.907 93.6407Z" transform="translate(202.312 678.084)" fill="#B41935" fill-opacity="0.8" style="mix-blend-mode:multiply"/>
<path d="M12.0382 0.229793C13.598 0.479467 15.1856 0.791513 16.7453 1.04119C18.2494 1.29086 18.8343 3.28824 18.8621 6.40916C18.8621 23.5742 18.89 40.8018 18.89 57.9669C18.89 74.1956 18.9178 90.362 18.9178 106.591C18.9178 108.9 18.7786 111.147 18.8064 113.457C18.8343 116.703 18.9178 119.948 19.0292 123.194C19.1128 125.691 19.3635 128.125 19.3356 130.559C19.3078 133.306 18.7229 135.178 17.3302 135.553C13.3752 136.489 9.44796 137.613 5.49289 138.611C5.13081 138.736 4.74087 138.736 4.37879 138.611C1.06433 137.925 0.312311 135.74 0.423721 128.25C0.562984 118.076 0.256603 107.839 0.730097 97.7898C1.28715 86.1175 1.09218 74.5702 1.00862 62.9603C0.925065 48.6665 0.53513 34.3726 0.256604 20.0788C0.200899 16.3337 0.117343 12.5886 0.00593253 8.9059C-0.0776252 5.78497 0.730096 4.09968 1.8999 3.60033C5.27007 2.03987 8.52882 -0.831321 12.0382 0.229793Z" transform="translate(76.7383 685.295)" fill="#B41935" fill-opacity="0.8" style="mix-blend-mode:multiply"/>
<path d="M0.302156 121.507C0.66424 110.709 1.16559 99.1617 1.41626 87.6767C1.69478 75.4426 2.08471 63.2086 1.86189 50.9745C1.58337 36.4934 0.692079 22.0748 0.079322 7.65612C-0.227056 0.727661 0.246437 -0.520709 3.42163 0.165895C7.82234 1.16459 12.2509 1.97597 16.5402 4.78481C17.9886 5.72108 18.6013 7.15671 18.4063 10.4025C17.6265 23.6976 18.6848 36.8055 18.852 50.0382C19.0191 62.6468 18.657 75.3178 18.5456 87.9887C18.462 95.6662 18.5177 103.344 18.1835 111.021C17.905 117.95 18.2392 124.566 18.7127 131.37C19.1583 138.048 17.5986 141.419 14.7019 139.796C11.0254 137.736 7.40456 135.364 3.81157 132.805C0.664233 130.621 0.441419 129.622 0.302156 121.507Z" transform="translate(755.775 665.694)" fill="#B41935" fill-opacity="0.8" style="mix-blend-mode:multiply"/>
<path d="M3.10377 122.604C3.15948 107.499 2.63029 92.5185 1.87827 77.4757C1.2098 63.8685 1.26551 50.1364 1.18195 36.4044C1.12624 27.0416 1.23766 17.7413 0.123551 8.62819C-0.266386 5.38243 0.262804 3.69712 1.76685 2.44875C2.54672 1.82457 3.38231 1.38765 4.19003 1.13798C8.22867 -0.235224 12.2951 -0.422494 16.3338 0.888292C18.0885 1.45006 18.7291 3.07297 18.757 7.00532C18.7848 11.1249 18.8962 15.2445 18.9519 19.3641C19.0634 33.0337 19.0634 46.7034 19.2862 60.3106C19.509 73.793 19.8432 87.213 20.3724 100.633C20.6231 107.624 21.3473 114.552 21.9043 121.418C22.3221 126.536 21.0966 130.781 18.8684 130.843C14.9969 130.968 11.0975 130.656 7.22598 130.469C6.58537 130.406 5.94474 130.032 5.33198 129.657C3.27089 128.472 2.93666 127.41 3.10377 122.604Z" transform="translate(332.543 683.574)" fill="#B41935" fill-opacity="0.8" style="mix-blend-mode:multiply"/>
<path d="M18.0027 22.2491C18.0027 32.1737 18.0305 42.1606 18.0027 52.0851C17.9191 69.3127 17.6963 86.5402 17.7242 103.705C17.7242 108.2 18.1977 112.694 18.7269 117.063C19.4789 123.242 18.4762 127.612 15.6352 127.986C12.1258 128.423 8.61634 128.486 5.1069 128.111C3.76997 127.986 2.43304 126.488 1.17967 125.24C0.260531 124.366 -0.129434 122.368 0.0376821 120.059C0.984675 106.015 0.176959 91.8458 0.260517 77.8016C0.260517 75.9291 0.260531 74.0565 0.344089 72.184C1.04041 52.7094 0.62261 33.2348 0.371935 13.7602C0.371935 12.6991 0.344069 11.7004 0.288363 10.6393C-0.101575 2.77451 -0.101582 2.5248 3.24074 1.40127C7.36295 -0.0343597 11.513 -0.720964 15.6631 1.08917C17.4735 1.90062 18.0305 3.33623 17.9748 7.39344C17.9191 12.3245 17.7799 17.318 17.6685 22.2491C17.8077 22.2491 17.9191 22.2491 18.0027 22.2491Z" transform="translate(463.928 677.069)" fill="#B41935" fill-opacity="0.8" style="mix-blend-mode:multiply"/>
<path d="M17.7595 59.4241C17.7595 76.2147 17.7317 93.0676 17.7874 109.858C17.7874 112.73 18.1773 115.601 18.428 118.41C18.8736 123.528 17.7317 127.523 15.4477 127.273C11.1027 126.774 6.78557 125.588 2.46841 124.714C0.936512 124.402 0.518722 122.342 0.518722 119.159C0.574428 101.931 0.602301 84.7036 0.574448 67.4761C0.574448 51.06 0.518743 34.7063 0.435185 18.2902C0.407332 14.7948 0.100953 11.2369 0.0173952 7.74144C-0.0940154 3.18489 0.295901 1.99898 2.18988 1.31237C6.61845 -0.24809 11.047 -0.685066 15.4756 1.49958C17.5924 2.5607 17.8709 3.24734 17.8431 8.24082C17.7317 25.2811 17.6202 42.3214 17.5088 59.3617C17.5924 59.4241 17.676 59.4241 17.7595 59.4241Z" transform="translate(569.738 691.702)" fill="#B41935" fill-opacity="0.8" style="mix-blend-mode:multiply"/>
<path d="M5.80328 -1.52389e-05C9.08988 1.12352 12.4043 2.12219 15.6631 3.4954C17.6685 4.36926 18.3926 6.3667 17.947 10.4239C16.8607 20.3484 17.5571 30.2729 17.8356 40.135C18.337 58.5484 19.2004 76.8994 18.8661 95.4377C18.8104 98.4962 19.1725 101.617 19.3118 104.676C19.5625 110.855 18.3091 114.038 15.5795 112.977C11.3181 111.354 7.05665 109.232 2.85091 107.047C1.1519 106.174 0.706269 104.488 1.01265 100.681C2.37742 83.3285 1.95963 65.9762 1.31902 48.6239C0.845525 35.6409 0.344186 22.6579 0.0378072 9.61243C-0.157161 1.18595 0.288474 0.436898 4.10428 0.37448C4.66133 0.37448 5.21838 0.37448 5.77543 0.37448C5.77543 0.312061 5.80328 0.18724 5.80328 -1.52389e-05Z" transform="translate(659.27 706.308)" fill="#B41935" fill-opacity="0.8" style="mix-blend-mode:multiply"/>
<path d="M11.2398 92.7775C8.9559 92.403 7.11763 92.2782 5.27936 91.7164C3.5525 91.1546 2.77263 88.5955 2.93975 84.788C3.58036 71.0559 3.10686 57.4487 2.10417 43.9038C1.82564 40.2211 1.68638 36.5385 1.46356 32.7933C1.01791 25.1783 0.572275 17.6256 0.0987809 10.0106C-0.263303 3.76873 0.293751 2.14583 3.05116 1.52164C5.44648 1.02229 7.81395 0.273279 10.2093 0.0860234C12.2147 -0.101232 14.2479 0.0236049 16.2811 0.398116C17.9523 0.710209 18.2587 1.95859 18.3979 5.64129C18.8714 18.874 19.3449 32.0443 19.902 45.2146C20.2083 52.3927 20.654 59.5709 21.0161 66.749C21.2667 71.8673 21.4339 77.0481 21.6288 82.2288C21.8795 89.2821 21.1832 90.9674 18.0358 91.4668C15.6127 91.9037 13.2173 92.403 11.2398 92.7775Z" transform="translate(120.928 549.055)" fill="#B41935" fill-opacity="0.8" style="mix-blend-mode:multiply"/>
<path d="M18.0627 1.75023C18.5919 19.9764 18.9261 37.2039 19.6224 54.3066C19.9845 63.5445 19.4553 72.9697 20.848 82.0204C21.4607 86.0776 20.2073 89.6979 18.1463 90.3845C16.865 90.8215 15.556 90.759 14.2748 90.759C11.2388 90.6966 8.17504 90.9463 5.16696 90.1973C2.63238 89.5731 2.24244 87.5133 2.52097 81.7707C2.66023 79.0867 2.57666 76.4028 2.4931 73.7188C2.01961 56.9282 1.57397 40.1376 1.01692 23.4094C0.849806 18.2287 0.34847 13.1728 0.0699441 7.99208C-0.208582 3.06102 0.292761 1.50055 2.52097 1.12604C6.03039 0.501858 9.53981 0.0648976 13.0492 0.00247905C14.6647 -0.0599395 16.2801 1.06362 18.0627 1.75023Z" transform="translate(315.102 545.89)" fill="#B41935" fill-opacity="0.8" style="mix-blend-mode:multiply"/>
<path d="M0 0.937309C3.98292 -0.872828 7.46449 0.375512 10.9461 1.06212C12.5894 1.37421 14.2048 2.49776 15.8203 3.30921C17.6585 4.24548 18.327 6.43012 18.3549 10.8618C18.4663 25.3429 18.4941 39.8864 18.7726 54.3675C18.9398 63.6055 19.5525 72.8434 19.9146 82.0814C20.1374 87.7615 19.8032 89.0098 17.2965 89.0722C12.6729 89.1346 8.07725 88.5105 3.45372 88.0735C1.97753 87.9487 1.42048 85.5768 1.30907 82.5807C0.86343 69.4104 -0.0278526 56.3649 0.362084 42.945C0.696315 30.9606 0.139263 18.9138 0 6.86707C0 5.05693 0 3.24679 0 0.937309Z" transform="translate(0 571.359)" fill="#B41935" fill-opacity="0.8" style="mix-blend-mode:multiply"/>
<path d="M11.6702 87.4489C9.2749 87.012 6.40609 86.575 3.53728 85.9508C1.33692 85.4515 0.807725 84.4528 0.75202 79.3345C0.668462 73.9665 0.891269 68.5985 0.946974 63.2305C0.974827 61.5452 1.03053 59.8599 0.946974 58.237C-0.0835713 41.3216 0.0278662 24.2813 1.35999e-05 7.24108C1.35999e-05 2.18518 0.417802 1.24891 2.78527 0.811977C6.93531 -0.061882 11.0853 -0.623641 15.2354 1.24891C15.7924 1.49859 16.3216 1.68581 16.8508 1.99791C18.1599 2.74693 18.522 4.55707 18.327 7.61557C17.2686 23.5323 17.4914 39.449 18.4941 55.3657C18.9676 62.7311 19.4689 70.0965 19.8867 77.4619C19.9981 79.2721 19.9424 81.2695 19.7196 83.0172C19.3854 85.826 18.6055 87.6361 17.1015 87.4489C15.486 87.2616 13.8149 87.4489 11.6702 87.4489Z" transform="translate(706.941 582.284)" fill="#B41935" fill-opacity="0.8" style="mix-blend-mode:multiply"/>
<path d="M18.108 2.39254C18.108 7.38602 18.1637 12.1298 18.108 16.8736C17.8573 31.8541 18.4422 46.7722 19.1943 61.6278C19.3057 63.6252 19.7235 65.5601 20.002 67.4951C20.949 74.049 19.6399 78.1687 16.5761 77.9814C12.8717 77.7942 9.19515 77.3572 5.49074 76.9203C4.76657 76.8579 4.04239 76.3585 3.34608 75.8592C1.67491 74.7357 1.14571 72.7383 1.11786 69.118C0.978596 56.0725 0.783617 43.027 0.532942 30.0439C0.393679 22.1792 0.115162 14.3145 0.00375074 6.44974C-0.0519547 2.39254 0.5051 1.14419 2.23197 0.894513C6.46558 0.270327 10.727 -0.728392 14.9607 0.832072C15.9634 1.20658 16.9103 1.76835 18.108 2.39254Z" transform="translate(398.82 551.117)" fill="#B41935" fill-opacity="0.8" style="mix-blend-mode:multiply"/>
<path d="M0.14099 3.44781C4.59739 2.26186 8.63602 -1.48326 13.0089 0.63897C13.7887 1.01348 14.68 0.576521 15.4877 0.763777C17.6881 1.32555 18.1894 2.63637 18.2173 7.50502C18.2451 20.3633 18.1894 33.2215 18.3844 46.0798C18.4958 53.7573 18.8857 61.3723 19.2478 68.9874C19.4985 74.4178 18.9971 76.4776 16.574 76.8522C12.5911 77.4763 8.63602 77.9133 4.65311 77.9757C1.47793 78.0381 0.865182 75.4789 1.00444 68.3008C1.17156 60.2488 0.92088 52.1344 0.753765 44.0199C0.530945 32.5973 0.252427 21.2371 0.0296069 9.81449C-0.0539506 8.00434 0.0574322 6.13181 0.14099 3.44781Z" transform="translate(509.279 517.354)" fill="#B41935" fill-opacity="0.8" style="mix-blend-mode:multiply"/>
<path d="M18.0226 28.4739C18.2176 38.0239 18.3847 47.5115 18.6632 57.0615C18.7467 60.12 19.2203 63.1786 19.3317 66.2371C19.4709 70.3567 18.691 72.7286 16.8528 72.9783C12.6192 73.54 8.35776 73.977 4.09631 73.7897C1.36676 73.6649 0.559009 71.4802 0.726125 65.6129C1.31103 46.5128 0.753978 27.4752 0.0298106 8.43752C-0.137305 3.75613 0.364041 3.0071 2.39728 1.75873C6.79799 -0.862851 11.2265 0.135823 15.6273 0.447916C17.7998 0.572753 18.1619 1.69632 18.1619 6.56496C18.1619 13.8055 18.1619 21.1085 18.1619 28.349C18.134 28.4738 18.0783 28.4739 18.0226 28.4739Z" transform="translate(599.971 560.115)" fill="#B41935" fill-opacity="0.8" style="mix-blend-mode:multiply"/>
<path d="M12.4821 61.5222C9.33472 61.1477 6.49376 60.898 3.65279 60.4611C1.25747 60.0866 0.477602 58.2141 0.477602 53.0957C0.533307 41.7356 0.700421 30.3754 0.672569 19.0152C0.672569 14.8956 0.310486 10.7759 0.0598128 6.71874C-0.163008 3.09846 0.199075 1.4756 1.78667 1.03867C6.57732 -0.27212 11.3958 -0.58422 16.1586 1.53801C18.6096 2.66154 19.0553 5.09587 18.9996 11.0256C18.916 18.4534 19.0831 25.8813 19.1945 33.3091C19.2781 39.4885 19.3895 45.7303 19.4731 51.9098C19.5009 53.3454 19.4731 54.781 19.3895 56.2167C19.1388 60.2114 18.6653 61.2725 16.9106 61.4598C15.3509 61.647 13.7633 61.5222 12.4821 61.5222Z" transform="translate(60.4609 442.738)" fill="#B41935" fill-opacity="0.8" style="mix-blend-mode:multiply"/>
<path d="M0.905281 28.8878C0.710313 24.2688 0.376081 16.4665 0.0418495 8.60176C-0.153119 4.04521 0.292521 2.3599 2.2422 1.61087C5.61236 0.300086 9.01038 -0.885851 12.4362 0.924286C13.3275 1.42363 14.2745 1.29879 15.1937 1.42363C17.6725 1.86056 18.1182 2.85925 18.2296 8.16482C18.3967 14.7812 18.4803 21.46 18.7031 28.0763C18.9538 35.3169 19.3437 42.5574 19.6222 49.798C19.7058 51.6705 19.7058 53.5431 19.6501 55.3532C19.5387 58.2869 18.7588 59.9098 17.4219 59.785C12.7983 59.348 8.1748 58.9735 3.55128 58.2869C1.43448 57.9748 0.960985 56.9137 0.877427 52.1075C0.793869 45.4287 0.905281 38.7499 0.905281 28.8878Z" transform="translate(139.529 424.688)" fill="#B41935" fill-opacity="0.8" style="mix-blend-mode:multiply"/>
<path d="M19.4812 5.34155C19.3976 7.5262 19.4533 9.46116 19.2584 11.2089C17.8379 24.7537 17.9493 38.361 18.4785 52.0931C18.7013 58.335 17.6986 61.2686 14.9412 60.5196C10.4569 59.3337 5.97267 57.4611 1.51625 55.8382C-0.154913 55.214 -0.0435163 52.2179 0.0400417 49.5339C0.179305 43.5418 0.429999 37.5496 0.513557 31.5574C0.624968 23.0684 0.624961 14.5171 0.680666 6.02814C0.708519 1.72126 1.20986 0.0359678 3.07599 0.0359678C8.53511 -0.151288 14.0221 0.223224 19.4812 5.34155Z" transform="translate(739.494 459.782)" fill="#B41935" fill-opacity="0.8" style="mix-blend-mode:multiply"/>
<path d="M18.6053 2.46088C18.6053 8.64031 18.4939 14.3828 18.6332 20.1254C18.8839 29.4257 19.3573 38.6636 19.5802 47.964C19.6359 50.0238 19.1067 52.1461 18.8282 54.6428C14.1489 54.9549 9.72038 55.267 5.29182 55.4542C4.65121 55.5166 4.01059 55.0797 3.36998 54.83C1.28104 54.0186 0.807536 52.9575 0.751831 48.4633C0.640421 39.7248 0.612561 31.0486 0.501151 22.31C0.417593 17.3165 0.250491 12.3854 0.0276708 7.39196C-0.111592 4.27103 0.250498 1.58702 1.67098 1.21251C7.2415 -0.347957 12.8398 -0.847305 18.6053 2.46088Z" transform="translate(629.041 426.398)" fill="#B41935" fill-opacity="0.8" style="mix-blend-mode:multiply"/>
<path d="M8.92108 7.61945e-06C11.3164 0.499356 13.5446 0.936263 15.745 1.49803C18.1124 2.12221 18.5581 3.24578 18.753 8.55135C19.0873 17.2275 19.3658 25.9037 19.7557 34.5799C19.9507 38.4498 20.3128 42.3198 20.7584 46.1273C21.594 52.8061 20.6192 56.3015 17.6389 56.3015C14.408 56.3015 11.1771 56.1143 7.94624 55.927C7.0271 55.8646 6.10797 55.4901 5.21669 55.0532C2.79351 53.7424 2.37572 52.6188 2.23646 46.9388C1.95793 33.8933 1.84653 20.8478 0.175377 8.11442C-0.353821 4.18205 0.314644 2.30948 2.18077 1.62287C4.49253 0.873852 6.80428 0.561774 8.92108 7.61945e-06Z" transform="translate(236.035 445.776)" fill="#B41935" fill-opacity="0.8" style="mix-blend-mode:multiply"/>
<path d="M19.5558 52.5564C14.0967 54.5538 9.02757 54.429 3.9584 53.4927C2.06443 53.1806 0.922465 50.4966 1.20099 46.689C1.86945 36.8269 0.811054 27.2769 0.504676 17.6644C0.393266 13.9193 0.337567 10.1742 0.0590415 6.49154C-0.219484 2.93369 0.504683 1.12353 1.86946 0.936278C5.26747 0.374511 8.69333 0.0624185 12.0913 0C13.3726 0 14.6538 0.686611 15.9072 1.37322C18.1632 2.62159 18.3303 3.12094 18.4696 8.67619C18.6367 14.6684 18.6089 20.6605 18.8874 26.6527C19.1381 32.5825 19.723 38.4498 19.9736 44.442C20.085 46.9387 19.723 49.5603 19.5558 52.5564Z" transform="translate(431.371 436.6)" fill="#B41935" fill-opacity="0.8" style="mix-blend-mode:multiply"/>
<path d="M14.4037 45.6797C10.5879 44.2441 6.7442 46.3039 3.06766 43.1205C1.03443 41.3728 0.700188 41.3104 0.588778 36.3169C0.338104 26.642 0.143143 16.9048 0.0038802 7.22989C-0.051825 2.61092 0.477371 1.42498 2.59417 0.925633C6.91132 -0.0730638 11.2563 -0.572442 15.5735 1.05044C17.9966 1.98672 18.693 3.92171 18.5258 9.53938C18.2752 18.4652 18.0523 27.2662 19.1943 36.0673C20.002 42.3091 18.9158 45.0555 15.9634 45.4924C15.4342 45.4924 14.8772 45.6173 14.4037 45.6797Z" transform="translate(219.758 545.157)" fill="#B41935" fill-opacity="0.8" style="mix-blend-mode:multiply"/>
<path d="M12.1645 42.6955C9.82488 43.1324 6.8168 43.07 3.83656 40.8854C2.72245 40.0739 2.16539 39.0128 2.05398 36.2664C1.66404 26.4043 1.58048 16.4173 0.132135 6.86731C-0.313509 3.99606 0.410662 1.93624 1.66403 1.31205C3.00096 0.687869 4.3936 0.00128147 5.75839 0.00128147C9.23998 0.00128147 12.7773 -0.0611523 16.231 0.687869C18.4314 1.18722 18.5149 2.74769 18.8213 7.80359C19.3227 16.1677 19.0163 24.719 20.4368 32.8958C21.4395 38.6383 20.0747 42.3834 17.2894 42.6331C15.8411 42.8203 14.337 42.6955 12.1645 42.6955Z" transform="translate(351.146 425.177)" fill="#B41935" fill-opacity="0.8" style="mix-blend-mode:multiply"/>
<path d="M10.0531 -7.61947e-06C11.8635 0.436924 14.2588 0.998715 16.6263 1.6229C17.9911 1.99741 18.2975 3.74512 18.2696 6.86605C18.1861 15.355 18.2696 23.844 19.6344 31.9584C19.8572 33.3316 20.0243 34.7672 20.1079 36.2029C20.3029 39.8856 19.523 42.1327 17.9354 42.8193C17.7404 42.8817 17.5733 42.9441 17.3784 42.9441C13.0333 42.5071 8.68829 42.3199 4.37111 41.5709C2.03148 41.1964 1.0288 39.0117 1.22377 34.0182C1.53015 25.7789 0.555302 17.9766 0.137511 10.0494C-0.252428 3.05853 0.0260859 1.87255 3.11774 1.12352C5.20669 0.561753 7.35136 0.436924 10.0531 -7.61947e-06Z" transform="translate(525.555 399.337)" fill="#B41935" fill-opacity="0.8" style="mix-blend-mode:multiply"/>
<path d="M6.79995e-06 5.90939C0.752027 4.91069 1.33692 3.66231 2.00538 3.2878C6.68461 0.541371 11.4196 -1.14393 16.2659 0.915891C18.1599 1.72733 18.6055 2.6012 18.6334 7.15777C18.6612 13.4621 19.079 19.5167 19.9146 25.4465C20.416 28.8795 19.8589 31.0017 18.3827 32.0628C18.2156 32.1877 18.0206 32.2501 17.8257 32.2501C13.035 32.1252 8.24437 33.9978 3.42587 32.4374C2.22821 32.0629 1.67115 30.8145 1.50404 28.0681C1.08625 20.8899 0.529206 13.7742 6.79995e-06 5.90939Z" transform="translate(368.584 349.796)" fill="#B41935" fill-opacity="0.8" style="mix-blend-mode:multiply"/>
<path d="M18.8421 8.97286C18.7307 12.9676 18.6193 17.0248 18.5636 21.0196C18.5357 22.2056 18.6471 23.454 18.7585 24.7023C19.2877 30.5697 18.48 33.004 15.8062 32.7543C11.489 32.3174 7.17187 31.6932 2.85472 30.8817C0.403694 30.4448 -0.0140955 28.6347 0.180873 23.0794C0.320135 19.0222 0.320136 14.8402 0.0973151 10.8454C-0.236916 5.04049 0.208726 3.16792 2.71546 2.16922C6.89334 0.608761 11.0712 -0.577191 15.3327 0.296669C18.285 0.983272 19.0649 2.54375 18.8421 8.97286Z" transform="translate(45.3477 370.201)" fill="#B41935" fill-opacity="0.8" style="mix-blend-mode:multiply"/>
<path d="M7.03163 31.6858C5.72256 31.6858 4.80344 31.8731 3.88431 31.6234C1.99033 31.1241 1.46112 29.9381 1.15474 26.0057C0.82051 21.9485 0.486279 17.8913 0.179901 13.8341C-0.349298 6.78083 0.179901 5.28278 3.24368 3.3478C7.00378 0.9759 10.7917 -0.397296 14.6911 0.102052C18.0334 0.538981 18.4512 1.60009 18.5348 8.96547C18.5905 13.0227 18.869 17.2047 19.3425 21.1371C20.011 26.7548 19.3982 29.3139 16.78 29.8757C13.4099 30.5623 10.0119 31.124 7.03163 31.6858Z" transform="translate(479.045 287.442)" fill="#B41935" fill-opacity="0.8" style="mix-blend-mode:multiply"/>
<path d="M15.4643 29.0763C11.9549 28.6393 7.88842 28.0776 3.82194 27.7655C2.34576 27.6406 1.59374 26.0177 1.31521 23.0841C0.841717 17.8409 0.396076 12.5353 0.0618445 7.16724C-0.216681 2.7355 0.423928 0.862938 2.42931 0.613263C7.30352 -0.0733449 12.2056 -0.635115 17.0519 1.54955C18.2496 2.11132 18.8623 3.04759 19.0294 5.7316C19.3358 10.413 19.7257 15.0944 20.0878 19.8383C20.5613 26.3922 19.7536 28.6393 16.8291 29.0763C16.5506 29.1387 16.272 29.0763 15.4643 29.0763Z" transform="translate(723.219 291.861)" fill="#B41935" fill-opacity="0.8" style="mix-blend-mode:multiply"/>
<path d="M21.3812 22.0962C20.2671 27.5266 18.7631 29.524 16.4235 29.1494C12.3848 28.5253 8.31835 28.5253 4.27973 27.9635C2.3579 27.7138 1.80086 26.4031 1.46662 22.6579C0.99313 17.4148 0.547489 12.1092 0.0739952 6.86606C-0.232383 3.24578 0.408221 0.686589 2.07938 0.436915C5.19886 -1.52166e-05 8.31836 1.52389e-05 11.4657 1.52389e-05C12.9419 1.52389e-05 14.4181 0.374511 15.8943 0.686604C17.8439 1.18595 18.3731 2.55916 18.5681 6.92846C18.6517 8.98827 18.8745 11.0481 18.9023 13.1079C18.958 17.0403 19.4872 20.4109 21.3812 22.0962Z" transform="translate(184.873 360.699)" fill="#B41935" fill-opacity="0.8" style="mix-blend-mode:multiply"/>
<path d="M5.8286 29.5315C5.63363 29.5939 5.46651 29.6564 5.27154 29.6564C1.17722 29.7812 0.480887 28.5328 0.453035 19.6694C0.425182 16.7982 0.146656 13.9269 0.0352458 11.0557C-0.159722 6.06218 0.425189 4.43931 2.51413 3.0661C6.91484 0.257266 11.3991 -0.304509 15.9112 0.132421C18.1394 0.319677 18.6129 1.63046 18.7243 6.56152C18.8357 10.8684 19.0307 15.1753 19.2535 19.4198C19.5042 23.9139 18.8636 26.6603 16.8025 27.2845C13.1538 28.3456 9.47728 28.9698 5.8286 29.7812C5.8286 29.6564 5.8286 29.5939 5.8286 29.5315Z" transform="translate(583.691 317.561)" fill="#B41935" fill-opacity="0.8" style="mix-blend-mode:multiply"/>
<path d="M11.0902 28.0491C8.66702 27.737 6.71735 27.3001 4.76767 27.3625C3.40289 27.4249 2.65086 26.0517 2.23307 23.4925C1.48105 18.8112 0.784739 14.0674 0.171981 9.3236C-0.385072 4.82949 0.422648 1.83342 2.42804 1.27166C7.10728 -0.0391221 11.8144 -0.6633 16.5215 1.02199C17.6913 1.45892 18.3319 2.39519 18.6104 5.07917C19.1118 9.69812 19.7245 14.2547 20.3373 18.8112C20.9779 23.6174 20.3094 26.4262 18.0534 26.9879C15.6023 27.6121 13.0956 27.7994 11.0902 28.0491Z" transform="translate(253.477 316.048)" fill="#B41935" fill-opacity="0.8" style="mix-blend-mode:multiply"/>
<path d="M14.8637 23.4291C12.6634 23.866 10.4631 24.5526 8.2627 24.8023C6.42443 24.9895 4.58614 24.8023 2.74787 24.6774C1.57807 24.615 0.853899 22.9922 0.658931 20.4954C0.408258 17.2497 0.269008 13.9415 0.0461878 10.6957C-0.176633 7.51237 0.408258 5.26531 1.77303 4.57871C6.50797 2.20681 11.1872 -1.72556 16.2007 0.833599C18.1225 1.8323 18.4846 2.51887 18.7074 6.88816C18.8467 9.75942 19.0695 12.6307 19.153 15.502C19.348 21.4317 18.791 22.9922 16.2007 23.6164C15.755 23.7412 15.2815 23.6164 14.8359 23.6164C14.8638 23.5539 14.8637 23.4915 14.8637 23.4291Z" transform="translate(675.547 382.647)" fill="#B41935" fill-opacity="0.8" style="mix-blend-mode:multiply"/>
<path d="M10.9033 9.52431e-07C13.048 0.436931 15.2762 0.81144 17.4487 1.37321C18.6185 1.6853 19.6768 2.93367 19.7604 5.86734C19.8718 9.23794 18.6742 10.5487 17.4765 11.2353C16.3346 11.9219 15.109 12.1092 13.9392 12.2964C10.6248 12.7334 7.31032 13.1079 3.96801 13.2327C3.13243 13.2951 2.15759 12.6085 1.43343 11.6098C0.625703 10.4239 -0.349158 8.80101 0.124336 6.0546C0.569977 3.43302 1.3777 1.49805 2.77033 1.24837C5.49988 0.811442 8.17375 0.374512 10.9033 9.52431e-07Z" transform="translate(447.65 53.9111)" fill="#B41935" fill-opacity="0.8" style="mix-blend-mode:multiply"/>
<path d="M17.9773 10.4656C12.8524 12.4005 7.81107 13.1495 2.74188 11.9636C1.79489 11.7139 0.875751 10.7776 0.0401709 10.2783C-0.238356 4.84795 0.959306 2.35123 2.76973 1.78947C5.74997 0.853205 8.78592 0.416278 11.794 0.0417713C12.9917 -0.145482 14.1893 0.353864 15.4149 0.416282C18.98 0.665954 19.4535 2.28882 17.9773 10.4656Z" transform="translate(299.986 74.9668)" fill="#B41935" fill-opacity="0.8" style="mix-blend-mode:multiply"/>
<path d="M9.38631 12.5356C6.90743 12.0363 4.45641 11.4121 1.97753 10.9752C0.584897 10.7255 0 8.66569 0 5.9817C0 3.17286 1.05839 2.42385 2.11679 2.04934C6.76817 0.426454 11.4196 -0.634664 16.1266 0.426451C18.6055 0.988217 19.5246 3.98432 18.5777 8.72813C18.2991 10.1013 17.4357 11.7866 16.823 11.8491C14.3719 12.2236 11.8931 11.9739 9.41419 11.9739C9.38633 12.1611 9.38631 12.3484 9.38631 12.5356Z" transform="translate(690.664 205.474)" fill="#B41935" fill-opacity="0.8" style="mix-blend-mode:multiply"/>
<path d="M18.0185 1.96397C18.1021 12.9495 18.1021 13.0119 13.6735 12.8871C10.2755 12.7623 6.87743 12.4502 3.45155 12.2005C2.89449 12.1381 2.33743 12.0757 1.80823 11.7012C0.777683 10.9521 -0.169299 9.45413 0.0256698 6.895C0.137081 5.52181 1.00051 3.64926 1.64112 3.33717C4.78848 1.96398 7.99154 0.902869 11.1668 0.0914372C12.3366 -0.220652 13.5342 0.341124 14.7319 0.653213C15.7903 1.02772 16.8487 1.52705 18.0185 1.96397Z" transform="translate(284.873 241.637)" fill="#B41935" fill-opacity="0.8" style="mix-blend-mode:multiply"/>
<path d="M17.5403 2.1775C18.7658 9.73025 17.958 12.8512 14.5879 12.5391C10.6328 12.1646 6.70558 11.1035 2.75051 10.292C2.22131 10.1672 1.66427 9.73024 1.16292 9.23088C-0.201853 7.85766 -0.396822 5.04879 0.745136 2.92653C1.02366 2.42717 1.35789 1.92782 1.71998 1.80298C7.01197 -0.381701 12.304 -0.943471 17.5403 2.1775Z" transform="translate(644.152 118.333)" fill="#B41935" fill-opacity="0.8" style="mix-blend-mode:multiply"/>
<path d="M8.79768 11.6961C6.40235 11.6961 4.00702 11.8834 1.61169 11.6337C0.0240857 11.4465 -0.254443 10.0733 0.1912 6.7027C0.581137 3.70664 1.58384 2.52069 2.7815 1.70926C5.53892 -0.100863 8.37989 -0.225695 11.2209 0.211231C12.9477 0.460904 14.6746 1.39716 16.4015 1.89651C18.0169 2.33343 18.2119 4.76775 18.184 7.70139C18.1562 11.072 17.1813 11.821 15.9558 11.8834C13.5605 11.9458 11.1652 11.8834 8.76983 11.8834C8.79768 11.821 8.79768 11.7586 8.79768 11.6961Z" transform="translate(169.758 218.984)" fill="#B41935" fill-opacity="0.8" style="mix-blend-mode:multiply"/>
<path d="M12.9934 0.499356C14.0797 0.499356 15.1937 0.312085 16.28 0.561759C17.2827 0.749015 18.0626 1.93497 18.0904 4.43172C18.1183 7.05329 18.2854 10.0494 16.8092 11.1729C16.1407 11.6723 15.3887 11.9219 14.6646 12.0468C12.0186 12.4837 9.34471 13.0455 6.67086 13.1079C4.944 13.1079 3.1893 12.5461 1.49029 11.7971C0.933238 11.5474 0.264782 9.98696 0.0698145 8.73859C-0.236564 6.61636 0.515449 5.36799 1.35103 4.68139C2.40942 3.86994 3.43998 2.87125 4.52623 2.49674C7.31148 1.49804 10.1246 0.811437 12.9377 -3.80972e-06C12.9655 0.124833 12.9656 0.3121 12.9934 0.499356Z" transform="translate(416.26 224.938)" fill="#B41935" fill-opacity="0.8" style="mix-blend-mode:multiply"/>
<path d="M10.7877 13.0384C7.7796 12.0397 4.77152 11.1034 1.7913 10.0423C0.872162 9.73023 -0.102681 8.91879 0.00872977 6.17237C0.12014 3.86289 0.927866 3.05145 1.90271 2.36485C6.41482 -0.943334 10.9826 -0.131895 15.5783 0.92922C17.0545 1.24131 18.0015 4.11256 17.9458 7.42074C17.8901 10.4793 17.3052 11.6652 15.5226 11.9149C13.9629 12.1021 12.4031 11.9773 10.8155 11.9773C10.8155 12.2894 10.7877 12.6639 10.7877 13.0384Z" transform="translate(106.973 124.077)" fill="#B41935" fill-opacity="0.8" style="mix-blend-mode:multiply"/>
<path d="M3.90818 14.2036C2.68267 14.0164 2.01421 14.2036 1.4293 13.7043C0.900104 13.2673 0.175938 12.3311 0.0645279 11.27C-0.102587 9.95921 0.0645278 7.89942 0.454463 6.90073C0.955809 5.58996 1.79139 4.59127 2.57126 4.27918C6.38706 2.71873 10.2029 1.28313 14.0187 0.0347757C14.6314 -0.152478 15.2999 0.471697 15.9405 0.596532C17.2217 0.846203 17.6673 2.53148 17.6952 5.21545C17.723 8.02425 17.361 10.2713 15.9962 10.7082C11.7626 12.019 7.55686 13.1425 3.90818 14.2036Z" transform="translate(31.3965 289.944)" fill="#B41935" fill-opacity="0.8" style="mix-blend-mode:multiply"/>
<path d="M12.5955 0.81144C13.5982 0.81144 14.6288 0.686602 15.6314 0.81144C16.8291 0.936278 17.414 2.74643 17.609 5.2432C17.8039 7.80238 16.9684 11.1106 15.9935 11.6724C15.1858 12.1717 14.3502 12.4838 13.5425 12.5462C10.3952 12.6711 7.27567 12.7335 4.12833 12.6711C3.3206 12.6711 2.48503 12.2341 1.6773 11.8596C0.702461 11.3603 -0.0774118 10.2991 0.00614602 7.73996C0.0897038 5.43045 0.813864 4.80627 1.70515 4.43176C5.32598 2.99612 8.94683 1.49806 12.5398 0C12.5398 0.249676 12.5677 0.561764 12.5955 0.81144Z" transform="translate(155.803 285.548)" fill="#B41935" fill-opacity="0.8" style="mix-blend-mode:multiply"/>
<path d="M17.8256 0.510298C17.8256 3.69364 17.8256 6.62733 17.8256 10.4349C14.734 10.9966 11.7259 11.6832 8.71786 12.1201C7.26952 12.3074 5.79332 12.0577 4.31714 12.1826C2.50672 12.3698 1.55973 11.5584 -1.35999e-05 8.12537C0.167102 5.25411 1.14195 3.8185 2.20035 3.25673C7.24166 0.697568 12.3387 -0.86291 17.8256 0.510298Z" transform="translate(554.621 194.715)" fill="#B41935" fill-opacity="0.8" style="mix-blend-mode:multiply"/>
<path d="M10.6858 3.80971e-06C12.5798 0.436932 14.3345 0.811442 16.0614 1.24837C17.3704 1.62288 17.9832 3.3706 18.0111 6.30426C18.0389 9.73727 17.5654 11.485 16.0892 12.1092C15.2815 12.4837 14.4459 12.4212 13.6382 12.2964C11.3542 12.0467 9.04248 11.7347 6.75856 11.2353C4.94813 10.8608 3.13769 10.4863 1.35512 9.61242C0.825916 9.36275 0.296721 7.61505 0.0738987 6.30426C-0.232481 4.36929 0.463823 3.30818 1.2437 2.80883C2.05143 2.30948 2.85916 1.81014 3.66689 1.62288C6.06223 0.998701 8.45757 0.499351 10.6858 3.80971e-06Z" transform="translate(384.867 172.632)" fill="#B41935" fill-opacity="0.8" style="mix-blend-mode:multiply"/>
<path d="M17.8283 2.2158C17.689 5.64882 17.5776 8.2704 17.4384 11.2041C16.3243 11.5786 15.433 12.2652 14.5417 12.2028C11.0323 11.8907 7.52284 11.3913 4.01341 10.892C3.09428 10.7671 2.09158 10.5799 1.31171 9.58118C0.698955 8.83216 0.0862116 7.02202 0.00265392 5.52398C-0.0530512 4.5877 0.782516 2.77756 1.36742 2.40305C4.57047 0.34324 7.88493 -0.343368 11.2272 0.15598C13.2883 0.405654 15.3773 1.40436 17.8283 2.2158Z" transform="translate(270.916 186.396)" fill="#B41935" fill-opacity="0.8" style="mix-blend-mode:multiply"/>
<path d="M16.9352 1.16979C17.1301 2.79267 17.4087 4.16588 17.4365 5.60151C17.4644 8.66001 16.4617 11.344 15.1247 11.344C10.724 11.2816 6.29548 10.9071 1.89477 10.595C1.6998 10.595 1.47701 10.595 1.3656 10.3453C0.864253 9.34662 0.0565216 8.2855 0.000816488 7.09955C-0.0270361 6.03843 0.669285 4.2283 1.22634 3.72895C2.56326 2.48058 4.01159 1.2322 5.43207 1.04494C9.13646 0.608011 12.8965 -1.1397 16.9352 1.16979Z" transform="translate(495.324 177.016)" fill="#B41935" fill-opacity="0.8" style="mix-blend-mode:multiply"/>
<path d="M6.18668 12.6281C4.62693 12.6281 3.06719 12.8778 1.53529 12.5033C0.950386 12.3785 0.0590994 10.8805 0.00339399 9.75693C-0.0523114 8.63341 0.588294 6.76086 1.14535 6.13668C5.32325 1.3305 9.80754 -0.417193 14.5146 0.0821507C15.7123 0.206987 16.1858 1.70501 16.2415 4.01447C16.2972 6.82328 16.1301 9.75692 14.6818 10.5059C12.7042 11.5046 10.6988 12.1288 8.69342 12.753C7.8857 13.0027 7.02229 12.8154 6.21456 12.8154C6.18671 12.753 6.18668 12.6906 6.18668 12.6281Z" transform="translate(541.834 242.21)" fill="#B41935" fill-opacity="0.8" style="mix-blend-mode:multiply"/>
<path d="M17.9735 0.602857C18.1685 7.09438 18.1685 7.46889 15.996 8.34275C13.0993 9.46628 10.1748 10.2777 7.25025 10.9019C5.43983 11.2764 3.60156 11.1516 1.79115 11.0267C0.927716 10.9643 0.119992 10.3401 0.00858138 7.96824C-0.0749764 5.53391 0.454223 3.97346 1.48477 3.47411C2.73813 2.84993 3.9915 2.1009 5.24487 1.78881C8.55932 1.03978 11.8459 0.478024 15.1604 0.0410943C16.0795 -0.146161 16.9708 0.353183 17.9735 0.602857Z" transform="translate(16.2793 182.95)" fill="#B41935" fill-opacity="0.8" style="mix-blend-mode:multiply"/>
<path d="M0.0835577 6.28883C0.0557052 4.66595 0.0278517 3.23033 -8.49993e-07 2.04438C1.42048 -1.88799 13.6756 0.23424 17.6585 5.1653C17.2129 6.22642 16.8508 7.8493 16.4052 7.97414C12.1994 9.34735 7.99369 11.2199 3.73225 9.28491C2.45103 8.72314 1.28122 7.34994 0.0835577 6.28883Z" transform="translate(93.0215 225.579)" fill="#B41935" fill-opacity="0.8" style="mix-blend-mode:multiply"/>
<path d="M16.0289 8.0949C14.887 9.21844 14.2742 10.2796 13.6057 10.4044C10.2077 10.9037 6.80971 11.2782 3.41169 11.2782C2.49256 11.2782 1.43417 10.0923 0.737853 8.71909C0.236506 7.72039 -0.0698652 5.47333 0.0136925 3.85044C0.0972502 1.72821 0.793544 0.16775 1.90765 0.105331C2.18617 0.105331 2.4647 -0.0819243 2.74322 0.0429127C6.69829 1.60338 10.7648 2.10272 14.5806 5.47333C14.9427 5.78542 15.2491 6.65928 16.0289 8.0949Z" transform="translate(616.248 11.2363)" fill="#B41935" fill-opacity="0.8" style="mix-blend-mode:multiply"/>
</svg>
