<svg width="677" height="772" viewBox="0 0 677 772" fill="none" xmlns="http://www.w3.org/2000/svg">
<g clip-path="url(#clip0)">
<path d="M11.973 1.33164C12.8518 7.10874 12.764 13.1583 12.764 19.0444C12.7859 31.0346 12.5882 43.0248 12.72 54.9606C12.8518 69.2943 13.1814 83.5735 13.511 97.9073C14.0603 120.525 14.6096 143.143 15.3347 165.761C16.0817 188.924 16.5431 212.087 16.6749 235.304C16.7848 254.706 16.8068 274.163 17.1583 293.566C17.4659 310.624 17.1144 327.683 16.9606 344.688C16.7848 367.741 16.8068 390.741 16.7628 413.795C16.7409 433.033 16.6969 452.272 16.7628 471.511C16.8068 484.973 17.0485 498.38 17.0485 511.787C17.0705 537.021 17.0704 562.255 16.9606 587.489C16.8727 606.565 16.5431 625.585 16.3893 644.661C16.1916 667.714 15.9059 690.714 15.9499 713.768C16.0378 750.065 16.3234 786.363 16.6749 822.661C16.8947 846.26 17.3781 869.804 17.7076 893.403C17.9713 913.895 18.1031 934.442 18.4327 954.934C18.8721 981.585 19.4654 1008.24 19.9707 1034.89C20.0366 1038.32 19.9927 1041.81 20.1026 1045.24C20.2124 1048.46 20.4321 1051.67 20.6079 1054.89C20.6958 1056.31 20.8496 1057.72 20.8936 1059.19C21.0913 1065.24 20.4541 1066.88 17.9713 1067.42C15.9279 1067.86 13.9065 1068.51 11.8851 1069.17C9.22649 1069.99 8.03999 1067.53 8.43548 1060.99C9.02873 1051.02 8.5893 1041.05 8.50141 1031.13C8.36958 1017.88 8.14985 1004.64 7.88619 991.396C7.68844 980.877 7.33691 970.413 7.16113 959.894C6.89747 943.38 6.72167 926.866 6.47998 910.407C6.23829 893.348 5.90873 876.29 5.73296 859.231C5.35944 825.658 5.00789 792.086 4.74422 758.513C4.56845 736.386 4.45857 714.204 4.50251 692.076C4.52448 675.563 4.85407 659.049 5.02984 642.59C5.09576 636.976 5.11774 631.362 5.20563 625.749C5.90873 580.404 5.79887 535.005 5.51324 489.605C5.38141 470.53 5.20562 451.509 5.11774 432.434C5.02985 413.74 5.07379 395.101 5.00788 376.407C4.94196 362.618 5.22761 348.884 5.40338 335.095C5.6231 317.71 5.16168 300.269 4.98591 282.883C4.87605 271.111 4.83211 259.285 4.65633 247.512C4.34872 226.693 4.23885 205.819 3.1842 185.054C2.72279 176.116 2.76673 167.014 2.52504 157.967C2.10758 141.672 1.88788 125.321 1.11886 109.134C0.61351 98.6703 0.130123 88.2061 0.0422351 77.7965C-0.111568 61.1192 0.196028 44.4419 0.305887 27.7101C0.327859 23.35 0.305882 18.9899 0.327854 14.6299C0.349825 7.98075 1.58025 3.89318 4.17293 1.98565C6.63378 0.0781186 9.13858 -1.0119 11.973 1.33164Z" transform="translate(870.729 473.36) rotate(120)" fill="#496C7D"/>
<path d="M12.2048 25.4172C12.4684 38.8244 12.7541 52.2316 12.9958 65.6388C13.3693 86.6762 13.7208 107.714 14.0944 128.751C14.3141 140.523 14.5777 152.295 14.8414 164.068C15.2808 184.015 15.6983 203.908 16.1817 223.855C16.9287 253.722 17.6758 283.588 18.5327 313.455C18.8183 323.21 19.4116 332.911 19.8071 342.667C20.5541 361.252 21.2352 379.837 21.9823 398.476C22.6634 415.426 23.3665 432.376 24.0696 449.325C24.6848 464.313 25.3 479.301 25.9152 494.234C26.4426 507.042 26.9699 519.85 27.4752 532.657C28.0245 547.264 28.4859 561.924 29.1012 576.531C29.5406 587.158 30.2217 597.731 30.6392 608.359C31.1665 621.875 31.4961 635.446 31.9575 649.017C32.1772 655.884 32.5508 662.697 32.7705 669.564C33.4296 690.165 34.0888 710.766 34.682 731.368C35.0336 743.848 35.2533 756.384 35.6268 768.864C36.264 790.229 36.9232 811.539 37.1868 832.957C37.3626 847.836 37.846 862.66 38.1536 877.539C38.5271 895.47 38.7908 913.401 39.1863 931.332C39.5817 949.262 40.0212 967.193 40.5485 985.124C41.0319 1001.42 41.5812 1017.66 42.2623 1033.9C42.4601 1038.53 43.0973 1043.06 43.6026 1047.53C44.064 1051.51 43.4268 1055.1 41.8449 1055.87C39.2742 1057.07 36.6595 1058.1 34.0668 1058.92C32.5508 1059.41 32.1113 1058.1 32.0234 1054.5C31.6279 1037.34 31.2324 1020.17 30.771 1002.95C30.3755 987.359 29.8922 971.826 29.4527 956.239C28.9693 939.398 28.5079 922.557 28.0465 905.716C27.9586 902.119 27.9367 898.468 27.8707 894.816C27.5631 874.869 27.3214 854.921 26.904 834.974C26.4645 814.482 25.8054 794.044 25.2781 773.606C24.7947 755.13 24.4431 736.654 23.8938 718.233C23.4983 704.662 22.8392 691.146 22.3558 677.63C21.9823 667.329 21.7406 656.974 21.3231 646.728C20.4882 626.181 19.5654 605.634 18.6865 585.087C18.0493 569.554 17.4561 554.076 16.8189 538.543C16.2256 524.264 15.6324 510.039 14.9952 495.76C14.358 481.535 13.611 467.311 13.0177 453.031C12.3146 436.245 11.7434 419.404 11.1282 402.618C10.5349 386.704 10.0515 370.79 9.37041 354.93C8.79914 341.25 7.98618 327.625 7.349 313.891C7.08533 308.331 7.01942 302.663 6.84365 297.104C6.51407 286.422 6.14054 275.794 5.83294 265.112C5.52533 254.103 5.26167 243.039 4.97603 231.976C4.73434 222.765 4.49265 213.5 4.27293 204.289C3.89941 187.448 3.54786 170.608 3.17434 153.767C2.86673 140.36 2.51518 126.952 2.20758 113.545C1.94391 101.609 1.68025 89.6738 1.48251 77.7381C1.13096 58.7172 0.845322 39.6964 0.493771 20.6211C0.427856 17.1875 0.230108 13.754 0.0323606 10.3749C-0.121443 7.81337 0.274049 6.01484 1.19687 5.19733C4.1411 2.47228 7.17322 0.346743 10.3372 0.0197378C11.5896 -0.143765 11.8752 0.67375 11.9411 3.7803C12.0949 11.0289 12.2268 18.2775 12.3586 25.5262C12.3146 25.4172 12.2707 25.4172 12.2048 25.4172Z" transform="translate(970.805 294.999) rotate(120)" fill="#496C7D"/>
<path d="M27.3997 1055.36C27.18 1053.56 26.8724 1052.25 26.8504 1050.89C26.3231 1020.26 25.7738 989.629 25.3124 958.999C25.1586 948.481 25.4222 937.907 25.2464 927.389C24.9828 911.42 24.4774 895.506 24.1039 879.591C23.7304 862.587 23.4008 845.528 23.0712 828.524C22.9394 821.984 22.7636 815.498 22.7197 808.958C22.6538 801.328 22.7197 793.752 22.6538 786.122C22.5659 777.62 22.456 769.118 22.1923 760.616C21.8408 748.517 21.4014 736.417 20.9399 724.318C20.6543 717.124 20.2808 709.93 19.9512 702.736C19.8853 701.319 19.7974 699.847 19.6876 698.43C18.9845 688.62 18.1056 678.919 17.5783 669.054C17.029 658.427 16.8092 647.744 16.4577 637.062C16.3698 634.174 16.216 631.285 16.1281 628.397C15.7985 615.916 15.469 603.435 15.2053 590.954C15.0295 583.379 14.9636 575.749 14.8318 568.173C14.7878 565.83 14.612 563.486 14.5022 561.142C14.3044 556.837 14.0627 552.531 13.9089 548.171C13.5574 538.252 13.2278 528.333 12.8982 518.468C12.5027 506.914 11.8656 495.36 11.7996 483.806C11.6678 465.275 10.6571 446.909 10.1298 428.487C9.88809 420.367 9.75626 412.191 9.55851 404.016C9.22894 391.318 8.92133 378.673 8.50387 365.975C8.04246 352.24 7.3833 338.615 6.92189 324.881C6.39456 308.967 5.93315 293.052 5.60357 277.084C5.29597 262.423 5.16413 247.762 5.01033 233.047C4.8785 221.656 4.92245 210.211 4.74667 198.82C4.63681 190.7 4.30723 182.579 4.06554 174.458C4.04357 173.75 3.95568 173.041 3.93371 172.333C3.58216 156.746 3.29653 141.158 2.90104 125.626C2.70329 118.05 2.24188 110.529 1.97821 102.953C1.363 85.0768 0.703845 67.2005 0.286379 49.3242C0.000744392 36.68 0.0886312 23.9813 0.000743711 11.2826C-0.0212282 7.84901 0.44018 5.23296 1.84638 4.14294C4.06554 2.45341 6.19682 -0.053628 8.59175 0.000872976C10.2177 0.0553739 10.5692 0.709387 10.6571 4.52445C11.2503 26.3793 11.8656 48.2887 12.4588 70.1436C12.7664 81.7523 13.0301 93.3065 13.3377 104.915C13.9309 127.206 14.612 149.442 15.1394 171.733C15.3811 182.034 15.425 192.389 15.5568 202.69C15.6667 211.737 15.7546 220.784 15.8864 229.831C16.0402 241.276 16.1501 252.667 16.4137 264.112C16.7433 278.392 17.2047 292.671 17.6222 306.95C17.9298 317.632 18.2374 328.314 18.567 338.942C19.1163 356.273 19.7095 373.605 20.2588 390.936C20.4346 396.55 20.5445 402.163 20.6983 407.777C21.1157 422.601 21.5332 437.425 21.9287 452.25C22.1704 461.297 22.3242 470.344 22.5219 479.391C22.7416 489.692 22.9833 500.047 23.225 510.348C23.8402 535.527 25.4222 560.488 25.7078 585.722C25.9276 604.58 26.8504 623.328 27.2679 642.185C27.7732 665.021 29.0256 687.639 30.3879 710.203C31.6842 731.567 32.4972 753.04 32.7389 774.623C32.8927 788.575 32.8707 802.582 33.1124 816.534C33.42 834.465 33.8155 852.395 34.3428 870.272C35.1118 895.996 35.7929 921.666 35.771 947.445C35.749 966.302 36.496 985.105 36.8915 1003.96C36.9575 1006.85 37.0234 1009.74 37.0234 1012.68C37.0453 1024.45 37.0014 1036.28 38.1 1047.84C38.3637 1050.56 37.9682 1052.2 36.8696 1052.52C33.7496 1053.72 30.6296 1054.48 27.3997 1055.36Z" transform="translate(975.031 274.997) rotate(120)" fill="#496C7D"/>
<path d="M6.51826 523.232C6.51826 509.988 6.51826 496.744 6.51826 483.5C6.51826 471.347 6.54022 459.193 6.54022 447.039C6.51825 431.997 6.56219 416.955 6.43036 401.913C6.27656 384.527 5.96895 367.141 5.79317 349.701C5.72726 343.161 5.94698 336.675 5.90303 330.135C5.79317 310.188 5.61741 290.24 5.50755 270.293C5.41967 253.452 5.37571 236.557 5.33177 219.716C5.28782 200.314 5.44164 180.911 5.15601 161.563C4.91432 144.178 4.2112 126.846 3.70584 109.461C3.46415 100.958 3.17853 92.4563 2.98079 83.9542C2.54135 65.6964 2.18978 47.384 1.72837 29.1262C1.59654 23.5671 1.46472 17.9535 0.256269 12.8305C-0.358944 10.2144 0.168382 7.27136 1.46472 5.69083C2.76106 4.1648 4.14529 2.63878 5.52952 1.98477C7.72671 0.94925 9.98981 0.567744 12.2309 0.0227346C13.1977 -0.195269 13.725 1.16725 13.7909 3.56529C14.0985 12.3944 14.4721 21.2236 14.6918 30.1072C15.285 53.2701 15.8124 76.433 16.3617 99.6504C16.8451 119.925 17.5262 140.199 17.7239 160.473C17.9876 186.252 17.8118 212.031 17.8777 237.81C17.9217 257.594 18.0315 277.378 18.0755 297.162C18.1633 327.301 17.9656 357.44 18.3611 387.524C18.8665 424.585 18.5369 461.591 18.6248 498.652C18.6687 518.599 18.6028 538.601 18.7566 558.548C18.8884 574.68 19.218 590.813 19.5476 606.945C19.7893 619.044 20.1189 631.198 20.4484 643.297C20.4924 645.096 20.6901 646.84 20.8 648.638C21.0636 652.889 20.5802 655.396 18.8664 656.268C15.9442 657.74 12.978 658.666 10.0338 659.756C8.93516 660.138 8.42981 658.448 8.27601 656.05C8.21009 655.015 8.25405 653.87 8.23207 652.78C7.88052 637.575 7.52896 622.369 7.17741 607.163C7.06755 602.476 6.89178 597.734 6.84783 593.047C6.716 578.332 6.58417 563.671 6.51826 548.956C6.51826 540.29 6.54023 531.788 6.51826 523.232C6.54023 523.286 6.54023 523.232 6.51826 523.232Z" transform="translate(824.131 595.164) rotate(120)" fill="#496C7D"/>
<path d="M13.9265 33.5074C13.9265 37.3224 13.9265 41.1375 13.9265 44.9526C13.8826 64.0824 15.0031 82.9397 15.882 101.852C16.3214 111.226 16.5412 120.654 16.8268 130.029C17.3761 148.504 17.3981 166.98 17.1344 185.51C16.8488 205.621 16.9586 225.787 17.1344 245.897C17.42 277.29 18.0572 308.628 18.255 340.021C18.3868 360.676 18.0133 381.387 17.8595 402.097C17.7496 416.431 17.7496 430.765 17.5299 445.098C17.2882 461.231 16.7609 477.308 16.5192 493.441C16.2116 514.642 15.9919 535.897 15.8381 557.098C15.7722 565.981 15.9479 574.865 16.0358 583.694C16.0797 587.673 15.3327 590.398 13.8167 591.379C11.1361 593.068 8.45554 594.812 5.753 596.284C5.02793 596.665 4.19299 596.284 3.44595 595.848C2.45721 595.248 2.14957 593.45 2.19351 590.888C2.61098 567.126 2.89662 543.418 3.35803 519.656C4.14902 479.924 4.91804 440.248 4.96199 400.462C4.98396 377.027 5.37946 353.646 5.24763 330.21C5.07186 299.908 4.43466 269.605 4.19297 239.303C4.06114 223.552 4.3248 207.747 4.41269 191.942C4.54452 170.686 4.65439 149.485 3.7096 128.284C2.89664 110.081 2.03973 91.8779 1.44649 73.6201C0.897189 56.9973 0.699421 40.32 0.325899 23.6427C0.259983 20.3727 0.106202 17.1571 0.0183141 13.887C-0.0915453 9.47247 0.259983 7.94645 1.97379 6.69292C4.83014 4.56739 7.73043 2.55085 10.6088 0.697823C13.0696 -0.882704 13.4871 -0.06519 13.531 6.14792C13.5969 13.6145 13.5969 21.0267 13.6189 28.4933C13.6189 30.1283 13.6189 31.7634 13.6189 33.3984C13.7507 33.5074 13.8386 33.5074 13.9265 33.5074Z" transform="translate(787.207 695.014) rotate(120)" fill="#496C7D"/>
<path d="M12.4388 0.139033C12.7245 7.27865 13.076 13.5463 13.2079 19.8139C13.4935 33.7661 13.6253 47.7183 13.889 61.6706C14.3504 85.215 14.9876 108.759 15.3831 132.304C15.8005 157.32 15.9544 182.39 16.3279 207.406C16.6135 226.263 17.0749 245.121 17.4045 263.978C17.6682 279.02 17.8 294.117 18.0417 309.159C18.2174 319.841 18.5031 330.524 18.7008 341.206C18.8546 350.253 18.9865 359.355 19.0524 368.402C19.1842 388.731 19.2282 409.059 19.36 429.388C19.6017 464.596 19.8434 499.803 20.1949 535.011C20.3927 554.086 20.6563 573.107 21.1177 592.128C21.5572 610.059 22.2823 627.935 22.8975 645.811C23.0073 649.136 22.7437 650.717 21.3814 651.262C18.569 652.352 15.7346 653.169 12.9003 653.714C11.538 653.987 11.0986 652.57 11.0327 649.136C10.7251 631.205 10.4174 613.274 10.0879 595.344C9.67039 572.126 9.14307 548.909 8.81349 525.691C8.52786 506.453 8.35207 487.214 8.24221 467.975C8.08841 437.291 8.11039 406.607 7.8687 375.923C7.73687 359.627 7.27545 343.331 6.9239 327.09C6.61629 313.356 6.19884 299.567 5.95715 285.833C5.64954 269.864 5.53968 253.895 5.23208 237.981C4.88053 219.669 4.37517 201.411 3.97968 183.099C3.23263 149.036 2.48558 114.972 1.80445 80.9094C1.43093 62.2701 1.23318 43.5763 0.881633 24.8825C0.793746 20.1954 0.486142 15.5083 0.156564 10.8757C-0.282874 4.88061 0.112623 3.35459 2.50756 2.53707C4.46306 1.82856 6.37461 0.684043 8.33011 0.0845325C9.56053 -0.133471 10.7909 0.139033 12.4388 0.139033Z" transform="translate(906.783 419.429) rotate(120)" fill="#496C7D"/>
<path d="M13.1335 76.7927C13.3971 96.2496 13.6169 114.78 13.9025 133.256C14.1442 147.916 14.3859 162.632 14.7594 177.292C15.3526 199.747 16.0997 222.147 17.2202 244.438C17.8574 257.191 17.9233 270.108 18.2529 282.97C18.6045 296.377 19.0439 309.73 19.3515 323.137C19.5932 333.601 19.6591 344.12 19.8789 354.584C20.1205 366.193 20.538 377.747 20.7357 389.301C20.9774 402.545 20.9994 415.734 21.2631 428.978C21.5707 444.728 22.0541 460.479 22.4276 476.23C22.6253 484.569 22.7572 492.907 22.911 501.246C23.3724 525.553 23.7898 549.806 24.2732 574.114C24.5149 585.886 24.8225 597.658 25.196 609.376C25.3279 613.681 25.7234 617.987 25.9431 622.293C26.1189 625.781 25.9431 626.707 24.5808 627.198C21.8343 628.233 19.0879 628.887 16.3194 629.596C15.3966 629.814 14.7814 628.669 14.6276 626.271C14.5617 625.018 14.4957 623.764 14.4738 622.511C14.0343 598.421 13.5729 574.277 13.1335 550.188C12.7819 530.458 12.4743 510.675 12.0788 490.945C11.8811 481.353 11.3977 471.761 11.2219 462.169C10.8923 445.165 10.6726 428.106 10.409 411.047C10.1892 396.931 10.0135 382.815 9.72784 368.7C9.42023 353.875 9.06868 338.997 8.65121 324.172C8.16783 306.46 7.61854 288.747 7.0253 271.034C6.30023 249.179 5.44332 227.324 4.78417 205.469C4.03712 180.126 3.35599 154.838 2.82866 129.441C2.4112 109.33 2.32331 89.2189 1.94979 69.1081C1.73007 56.9544 1.29063 44.8552 0.917106 32.756C0.675415 24.7988 0.32387 16.8962 0.0162639 8.93906C-0.0496517 7.19503 0.0602023 5.72352 0.807246 4.9605C3.37796 2.34446 5.99261 -0.0536028 8.82698 0.000898132C11.1121 0.0553991 11.5295 0.763924 11.6833 6.48652C12.1887 25.6709 12.6281 44.8552 13.0456 64.094C13.2214 68.6721 13.1335 73.1957 13.1335 76.7927Z" transform="translate(579.201 115.836) rotate(120)" fill="#496C7D"/>
<path d="M14.1532 131.929C14.1532 146.644 14.1093 161.359 14.1752 176.02C14.2411 194.169 14.6366 212.317 14.4608 230.466C14.1312 261.695 14.4608 292.87 14.5707 324.099C14.6586 346.771 15.076 369.444 15.12 392.17C15.1639 412.663 14.8563 433.21 14.7245 453.702C14.5927 473.867 14.4828 493.978 14.3949 514.143C14.351 522.646 14.5267 531.202 14.351 539.704C14.2631 544.228 14.1532 548.643 14.5048 553.166C14.8124 557.363 13.8676 559.597 12.1318 559.597C9.7149 559.597 7.31996 559.652 4.90305 559.488C2.53009 559.27 1.95883 557.526 2.11263 551.695C2.42024 539.922 2.83771 528.205 2.96954 516.433C3.16729 499.21 3.16728 481.933 3.2332 464.711C3.29911 449.669 3.10138 434.572 3.40898 419.53C3.89236 395.223 3.67263 370.915 3.47488 346.608C3.27713 321.047 2.81573 295.431 2.57404 269.87C2.48615 262.077 2.66193 254.283 2.77179 246.489C3.0794 223.436 2.81575 200.436 2.50814 177.382C2.31039 161.632 2.33236 145.826 2.17856 130.076C2.0687 118.467 1.78307 106.913 1.62926 95.3039C1.38757 78.4631 1.25574 61.5679 0.970108 44.6726C0.750389 32.1919 0.376856 19.7112 0.0253059 7.23044C-0.0845535 3.41538 0.113204 2.32537 1.62926 1.45336C4.63941 -0.290672 7.71547 -0.0726812 10.7696 0.145322C11.8022 0.254324 12.3515 1.72585 12.5053 4.23289C12.5932 5.64992 12.6591 7.12145 12.6811 8.53848C12.9008 29.0308 13.1205 49.5232 13.3183 70.0155C13.4941 87.2378 13.6479 104.46 13.8017 121.737C13.8236 125.17 13.8017 128.604 13.8017 132.092C13.9335 131.929 14.0434 131.929 14.1532 131.929Z" transform="translate(395.762 264.894) rotate(120)" fill="#496C7D"/>
<path d="M17.6483 83.8992C17.4505 102.43 17.1869 125.865 16.9891 149.246C16.7694 178.458 16.7474 207.671 16.3739 236.883C16.1542 254.269 15.4072 271.6 14.9677 288.986C14.77 297.161 14.726 305.282 14.6161 313.457C14.3525 333.949 14.1328 354.442 13.8252 374.934C13.6054 389.976 13.21 405.019 12.9903 420.061C12.6607 443.442 12.419 466.877 12.1773 490.258C12.1333 495.327 12.0235 500.341 12.7705 505.3C13.2759 508.625 12.6607 511.132 11.2325 511.731C8.13446 512.93 5.01445 513.639 1.89445 514.511C1.1474 514.729 0.576118 513.803 0.422315 511.949C0.224568 509.66 -0.0391004 507.317 0.00484337 505.028C0.334422 478.922 0.707955 452.816 1.0595 426.71C1.32317 408.234 1.58683 389.704 1.82852 371.228C2.09218 349.101 2.24599 326.973 2.57557 304.846C2.79529 290.185 3.34458 275.524 3.58627 260.809C3.91585 240.48 4.13556 220.206 4.28936 199.877C4.48711 176.496 4.59698 153.061 4.68487 129.625C4.77275 106.953 4.77275 84.2807 4.79473 61.6083C4.8167 46.021 4.77275 30.3792 4.79473 14.792C4.79473 12.9934 5.03642 11.195 5.01444 9.39644C4.9705 5.36337 6.02516 3.51032 7.27756 2.3658C9.71644 0.131264 12.2871 -0.0867667 14.8139 0.0222352C16.7474 0.131237 17.5824 2.80182 17.5824 7.76141C17.6043 21.0051 17.6043 34.1943 17.6043 47.438C17.6483 58.0112 17.6483 68.5299 17.6483 83.8992Z" transform="translate(309.453 326.39) rotate(120)" fill="#496C7D"/>
<path d="M12.2834 32.3591C12.2834 48.5459 12.9865 64.5692 13.5797 80.7014C14.2828 99.8313 14.5685 119.07 15.0299 138.254C15.4473 155.64 15.9087 173.026 16.3262 190.412C16.6997 205.618 17.0733 220.823 17.4028 236.029C17.7983 254.668 18.084 273.362 18.4795 292.002C18.7431 304.482 19.0947 316.963 19.4682 329.444C19.6879 336.692 19.9955 343.886 20.2372 351.135C20.5668 360.891 20.9183 370.646 21.1381 380.457C21.5995 399.641 22.0389 418.88 22.3685 438.064C22.5882 450.381 22.5882 462.753 22.72 475.07C22.8958 493.055 23.0716 510.986 23.3133 528.972C23.3572 532.187 23.5769 535.457 23.7527 538.673C23.9724 542.433 23.7088 543.741 22.1927 544.286C20.8305 544.777 19.4243 544.831 18.04 544.94C16.8096 545.049 15.5572 544.995 14.3048 544.995C12.5471 544.995 12.0637 543.85 12.0856 539.545C12.1076 532.46 12.1735 525.375 12.1516 518.344C11.9538 479.321 11.6901 440.299 10.7673 401.33C10.3938 386.125 9.97635 370.919 9.471 355.713C8.98762 340.889 8.21859 326.119 7.84507 311.295C7.22986 287.205 6.90028 263.116 6.35099 238.972C6.06535 225.946 5.58197 212.921 5.20845 199.949C4.96676 191.611 4.769 183.272 4.57126 174.934C4.26365 160.436 4.02197 145.939 3.67041 131.442C3.31886 117.49 3.14309 103.537 2.41802 89.6941C1.29745 68.4387 0.814067 47.0744 0.440545 25.71C0.330686 19.0064 0.110967 12.3572 0.00110758 5.65363C-0.0208643 4.61811 0.286739 3.0921 0.616318 2.60159C1.27547 1.56607 2.06647 0.585058 2.83549 0.421555C5.23042 0.0400484 7.64732 -0.0689268 10.0642 0.040075C11.8879 0.149077 12.1516 0.639558 12.2175 5.05413C12.3713 14.2103 12.2834 23.3119 12.2834 32.3591Z" transform="translate(466.422 144.688) rotate(120)" fill="#496C7D"/>
<path d="M13.0836 49.9656C13.3253 61.5743 13.6988 79.3416 14.0065 97.1089C14.2042 108.173 14.2701 119.236 14.4459 130.3C14.8194 151.501 15.3028 172.702 15.6324 193.903C15.8301 206.383 15.8301 218.918 15.896 231.454C16.0279 255.053 16.1158 278.651 16.3135 302.196C16.4234 315.44 16.7749 328.629 16.9946 341.873C17.2143 355.28 17.2583 368.742 17.6098 382.149C18.0053 397.9 18.6865 413.596 19.1918 429.292C19.6972 444.661 20.1366 460.031 20.642 475.4C20.9056 483.357 21.2132 491.26 21.5428 499.162C21.6966 502.923 21.6307 503.795 20.0707 504.285C17.3242 505.103 14.5557 505.593 11.7873 505.975C10.2712 506.193 9.7439 504.503 9.69996 500.634C9.63404 493.004 9.67799 485.374 9.48024 477.798C9.12869 463.137 8.64531 448.531 8.20587 433.87C7.70052 417.574 7.06334 401.333 6.71179 384.983C6.27235 364.872 5.98671 344.707 5.78897 324.596C5.41544 287.208 5.23968 249.82 4.82221 212.433C4.62446 194.284 4.14107 176.19 3.76755 158.041C3.416 140.655 3.02051 123.269 2.7129 105.829C2.36135 86.8082 2.16361 67.7329 1.76811 48.712C1.48248 35.6863 1.21881 22.6606 0.142189 9.79835C-0.209362 5.60178 0.01036 4.56625 1.72417 3.58523C4.20699 2.16821 6.73375 1.02373 9.26052 0.151712C10.8205 -0.393298 11.0842 0.42419 11.5236 4.34826C12.9079 17.3195 13.1276 30.5087 13.0836 49.9656Z" transform="translate(452.459 105.334) rotate(120)" fill="#496C7D"/>
<path d="M9.79864 0.774464C9.9085 2.02798 10.0623 3.06352 10.1062 4.09904C11.3147 25.4634 12.7429 46.7733 13.6877 68.1921C15.0719 99.5847 16.1705 131.032 16.1485 162.642C16.1265 178.611 16.544 194.58 16.5879 210.549C16.6319 226.136 16.4781 241.778 16.4122 257.365C16.2803 283.471 16.0826 309.631 16.0826 335.737C16.0826 346.964 16.566 358.192 16.7198 369.473C16.9395 386.314 17.0274 403.209 17.1812 420.105C17.335 438.253 17.4888 456.402 17.6646 474.551C17.7305 482.181 17.6865 489.811 17.8843 497.387C18.1479 507.306 18.5874 517.225 18.9829 527.144C19.2026 532.54 19.4882 537.936 19.708 543.331C19.8618 546.819 19.4443 548.509 18.1699 548.618C15.1158 548.781 12.0617 548.672 8.94173 548.672C8.78793 547.637 8.54624 546.656 8.52427 545.675C8.04088 528.67 7.4037 511.666 7.16201 494.662C6.89835 476.35 7.00821 457.983 6.96426 439.67C6.92032 423.865 6.96426 408.06 6.81046 392.309C6.67863 378.902 6.19525 365.495 6.04144 352.087C5.88764 338.68 5.95356 325.273 5.93158 311.866C5.93158 306.47 5.95356 301.02 6.04144 295.624C6.17327 288.212 6.37102 280.855 6.61271 273.443C6.83243 266.576 6.94229 259.763 6.7006 252.841C6.48088 246.247 6.98623 239.489 7.09609 232.785C7.18398 228.261 7.38173 223.683 7.11806 219.269C6.7006 212.129 7.14004 205.262 7.49159 198.231C7.84314 191.637 7.64539 184.824 7.51356 178.12C7.22792 164.386 6.92032 150.652 6.41496 136.918C5.86567 122.693 5.05271 108.523 4.37158 94.3526C4.042 87.1585 3.82228 79.9643 3.42679 72.7702C2.85552 62.0335 2.13045 51.2968 1.53721 40.5601C0.987909 30.532 0.460583 20.4493 0.0431174 10.3666C-0.15463 5.40706 0.28481 4.20803 2.26228 2.5185C4.72313 0.501966 7.18398 -0.969566 9.79864 0.774464Z" transform="translate(553.627 18.8867) rotate(120)" fill="#496C7D"/>
<path d="M5.8812 429.316C4.49697 429.316 3.09077 429.425 1.70654 429.261C0.30034 429.098 -0.139065 427.299 0.03671 423.811C0.344316 417.326 0.695856 410.895 0.7398 404.355C1.00346 378.085 1.04738 351.761 1.37696 325.492C1.59668 307.888 2.21194 290.339 2.6294 272.789C3.15673 250.716 3.68405 228.589 4.16744 206.516C4.56293 188.749 4.78264 170.982 5.30996 153.214C6.14489 125.364 7.24347 97.5143 8.14431 69.6643C8.71558 52.2785 9.15502 34.9472 9.57249 17.5614C9.66037 14.1279 9.46262 10.6943 9.3967 7.26075C9.33079 3.9362 9.72628 2.30119 11.0446 1.97419C14.3184 1.10217 17.5923 0.393676 20.8661 0.0121691C22.448 -0.151334 22.9973 1.32016 22.9753 5.29873C22.9534 12.0023 22.8655 18.706 22.6458 25.3551C22.1843 40.0158 21.679 54.6766 21.1297 69.2828C20.4046 88.9577 19.4818 108.633 18.9105 128.307C18.0097 158.719 17.3066 189.13 16.5156 219.542C16.0982 235.456 15.6368 251.425 15.2632 267.339C14.5821 296.497 13.835 325.655 13.3077 354.813C13.0001 372.035 13.0001 389.258 12.9122 406.48C12.8902 412.039 12.9781 417.653 13.0221 423.212C13.044 426.209 12.3849 428.553 11.1545 428.716C9.41867 428.989 7.66094 428.771 5.90319 428.771C5.88122 429.043 5.8812 429.207 5.8812 429.316Z" transform="translate(177.783 358.439) rotate(120)" fill="#496C7D"/>
<path d="M12.5587 8.31618e-07C12.9981 5.8316 13.6573 11.2817 13.7891 16.7863C14.0527 28.5585 14.0747 40.3307 14.1626 52.1029C14.3604 77.1188 14.4922 102.189 14.7339 127.205C14.9097 145.136 15.3051 163.121 15.415 181.052C15.5468 203.506 15.4809 226.015 15.4809 248.524C15.4809 267.545 15.4809 286.566 15.393 305.641C15.3271 318.721 15.0854 331.747 14.9756 344.827C14.8437 359.543 14.7778 374.203 14.668 388.919C14.602 397.257 14.4482 405.596 14.4482 413.935C14.4482 418.458 14.668 422.982 14.7998 427.505C14.9756 433.228 14.4922 434.808 12.251 435.244C9.85611 435.735 7.46119 436.171 5.06625 436.607C2.97893 436.988 2.56145 436.225 2.58342 431.048C2.67131 416.714 2.86907 402.38 2.97893 388.047C3.08878 373.004 3.1547 357.908 3.19864 342.865C3.26456 313.653 3.26456 284.44 3.3085 255.228C3.3085 246.344 3.41836 237.461 3.33047 228.577C3.17667 209.883 2.97894 191.189 2.71527 172.55C2.29781 143.719 1.74851 114.888 1.39696 86.057C1.22119 71.0147 1.46286 55.9179 1.24314 40.8757C1.11131 31.5015 0.562024 22.1274 0.100614 12.8077C-0.141076 8.06614 -0.0751661 6.92162 1.77047 5.50459C5.13217 2.83405 8.55978 0.163504 12.5587 8.31618e-07Z" transform="translate(863.602 498.736) rotate(120)" fill="#496C7D"/>
<path d="M2.14569e-05 312.644C0.175797 291.443 0.197747 267.79 0.637185 244.245C1.36226 204.35 1.66986 164.401 1.4062 124.507C1.2524 100.363 0.747044 76.2733 0.417466 52.1294C0.329578 45.8073 0.35155 39.4307 0.307606 33.054C0.241691 25.9689 0.175754 18.9383 0.0658942 11.8532C-2.14582e-05 7.2206 0.21973 5.91258 2.02142 4.82256C5.0096 3.02403 7.99778 1.389 11.0299 0.244485C13.4688 -0.682031 13.8423 0.898496 13.7324 7.1661C13.5567 18.0118 13.4028 28.912 13.4907 39.8122C13.7764 75.7283 14.9629 111.59 14.4795 147.56C14.062 179.28 13.5566 211 13.315 242.719C13.0293 280.652 12.8975 318.53 12.8316 356.463C12.8096 366.055 13.271 375.592 13.5347 385.185C13.6006 387.855 13.2491 389.872 12.1944 390.689C10.8761 391.725 9.53578 392.651 8.19549 393.469C6.43774 394.559 4.65803 395.758 2.87831 396.521C0.681118 397.502 0.131821 396.03 0.131821 390.635C0.109849 372.649 0.043933 354.719 0.0219612 336.733C-1.07291e-05 329.539 2.14569e-05 322.29 2.14569e-05 312.644Z" transform="translate(789.859 668.048) rotate(120)" fill="#496C7D"/>
<path d="M5.85663 394.782C5.52705 388.133 5.19747 381.538 4.86789 374.889C4.82395 374.017 4.75803 373.036 4.86789 372.219C5.96648 362.572 5.26338 352.707 5.19747 343.006C5.06564 329.218 4.51634 315.483 4.20873 301.695C3.81324 282.837 3.46169 264.034 3.15408 245.177C3.00028 236.675 3.0662 228.118 2.86845 219.616C2.60479 208.008 2.1214 196.453 1.87971 184.845C1.52816 168.549 1.17661 152.253 1.04478 135.903C1.00084 129.635 1.76985 123.313 1.8138 117.045C1.94563 99.9867 2.07746 82.9279 1.85774 65.9236C1.74788 57.694 1.28647 49.4098 0.539429 41.2892C-0.00986777 35.3486 0.187879 29.0265 0.0999916 22.8679C0.034076 17.9628 -0.0757834 13.0577 0.0780197 8.20714C0.297739 1.66703 4.67014 -2.58405 6.69156 1.77603C7.24085 2.97505 7.4386 5.59109 7.54846 7.66213C7.92198 15.9463 8.1417 24.2304 8.49325 32.5145C8.93269 42.7607 9.56987 52.9524 9.89945 63.2531C10.4268 79.8759 10.8662 96.4986 11.1958 113.176C11.5473 129.635 11.6792 146.094 12.0307 162.554C12.3603 178.305 12.8437 194.055 13.2172 209.752C13.3051 213.022 13.2392 216.292 13.2612 219.562C13.415 233.732 13.5028 247.848 13.7885 262.018C14.0302 274.117 14.5575 286.216 14.8871 298.316C15.1288 306.818 15.2166 315.32 15.3924 323.876C15.7 337.665 15.7 351.508 16.4251 365.134C17.1502 378.759 16.4251 392.275 16.8206 405.846C16.9085 408.571 16.4031 410.424 15.2166 410.642C12.602 411.078 9.98734 411.623 7.35071 411.841C5.81268 411.95 5.57099 411.187 5.54902 407.372C5.52705 403.175 5.54902 399.033 5.54902 394.837C5.68085 394.837 5.76874 394.837 5.85663 394.782Z" transform="translate(996.994 223.728) rotate(120)" fill="#496C7D"/>
<path d="M0.0299871 25.5815C0.0299871 20.3494 0.0958947 15.0628 0.00800717 9.83075C-0.0579085 6.8877 0.271675 4.98017 1.41421 3.99915C4.62211 1.32861 7.91789 -0.197418 11.3016 0.0205858C11.719 0.0205858 12.3123 1.38311 12.51 2.47313C12.7297 3.67215 12.6418 5.30718 12.6418 6.7242C12.7737 20.2949 12.8176 33.9202 13.0813 47.4909C13.4987 68.8553 14.0041 90.2196 14.5754 111.584C15.2785 138.017 16.0914 164.45 16.8165 190.828C17.212 204.781 17.5636 218.733 17.8712 232.685C18.2667 250.234 18.5523 267.838 18.9258 285.442C19.1455 295.198 19.4092 305.008 19.7168 314.763C19.7827 317.107 20.0683 319.396 20.2441 321.685C20.5957 325.936 20.1343 327.953 18.4205 328.607C15.7619 329.588 13.0813 330.405 10.3787 331.114C8.75282 331.55 8.0717 330.024 7.98381 325.936C7.80804 317.434 7.69817 308.877 7.50043 300.375C6.92916 275.577 6.35789 250.725 5.74268 225.927C5.30324 208.541 4.8638 191.155 4.35845 173.824C3.89704 157.91 3.30379 141.995 2.79844 126.081C2.60069 119.759 2.46886 113.383 2.29309 107.06C1.80971 87.4946 1.32632 67.9832 0.82097 48.4174C0.623223 40.8418 0.381532 33.2117 0.161813 25.636C0.117869 25.5815 0.0739309 25.5815 0.0299871 25.5815Z" transform="translate(924.926 372.178) rotate(120)" fill="#496C7D"/>
<path d="M4.71745 248.61C4.51971 223.376 4.4538 201.085 4.14619 178.794C3.86056 157.975 3.39914 137.155 2.84984 116.336C2.47632 102.438 1.66337 88.5404 1.28985 74.6427C0.806464 56.3848 0.564768 38.0725 0.213218 19.7602C0.147303 16.1632 0.169277 12.5116 0.0374458 8.91456C-0.0724136 5.263 -0.0284724 4.22748 1.42167 3.30096C4.29999 1.55693 7.1783 -0.568605 10.2104 0.139907C12.1879 0.630415 12.4516 1.33893 12.4955 6.02601C12.5175 10.3861 12.5394 14.7462 12.5834 19.1062C12.6932 30.0064 12.6713 40.9066 12.9569 51.7523C13.3744 67.503 14.0775 83.1448 14.4949 98.8956C14.9564 115.736 15.3299 132.577 15.5935 149.418C15.9011 168.275 16.0989 187.133 16.2087 205.935C16.3406 224.793 16.2527 243.65 16.3626 262.507C16.4504 281.201 16.6482 299.895 16.824 318.534C16.8679 323.33 16.6042 324.311 14.7147 324.856C12.3417 325.565 9.94676 326.164 7.5738 326.818C5.31069 327.418 4.69548 325.728 4.7614 320.224C4.84929 313.902 4.69549 307.525 4.69549 301.203C4.71746 282.782 4.71745 264.251 4.71745 248.61Z" transform="translate(928.301 347.935) rotate(120)" fill="#496C7D"/>
<path d="M13.8426 14.0662C14.1722 27.4734 14.5018 40.8262 14.7874 54.2334C14.8973 59.4655 14.9632 64.7521 15.0731 69.9841C15.4686 89.1685 15.9739 108.353 16.2595 127.537C16.4353 139.146 16.3914 150.755 16.3474 162.363C16.2595 183.946 16.5232 205.528 17.4021 227.001C17.5339 230.053 17.8855 233.051 18.1272 236.048C18.5886 241.826 18.0173 245.205 15.4905 245.859C12.8978 246.513 10.3491 248.529 7.77838 249.783C5.4933 250.873 4.76824 249.074 4.68035 243.297C4.57049 234.631 4.30683 225.911 4.13105 217.246C3.9333 206.018 3.71358 194.791 3.60372 183.564C3.44992 166.342 3.49387 149.119 3.25218 131.897C3.05443 116.31 2.59302 100.777 2.26344 85.1899C2.02175 73.4177 1.88994 61.6455 1.53839 49.8733C1.14289 36.6841 0.593584 23.5494 0.0442864 10.3601C-0.131489 6.32707 0.176118 5.01904 1.69218 3.54752C4.8781 0.386464 8.2398 0.277462 11.5795 0.00495725C12.9418 -0.104045 13.579 1.58549 13.6669 4.96454C13.7547 8.01659 13.7767 11.1231 13.8426 14.1752C13.8646 14.0662 13.8646 14.0662 13.8426 14.0662Z" transform="translate(825.881 573.457) rotate(120)" fill="#496C7D"/>
<path d="M1.76012 169.336C1.58435 144.102 1.45251 118.868 1.23279 93.6884C1.07899 78.1011 0.793361 62.5138 0.55167 46.9266C0.507726 43.275 0.463761 39.6779 0.419817 36.0264C0.287986 26.5977 0.178143 17.169 0.0243394 7.74038C-0.0635481 2.6173 -0.0196151 2.01781 2.04574 1.3638C4.72631 0.546287 7.42887 0.110279 10.1094 0.00127737C11.6035 -0.0532236 12.0649 1.63633 12.0649 5.06989C12.0429 15.7521 11.977 26.4342 12.0429 37.1164C12.2187 68.1274 12.3945 99.193 12.6582 130.204C12.79 146.881 13.1415 163.559 13.2734 180.29C13.4052 196.259 13.3173 212.228 13.4711 228.197C13.559 237.244 13.8886 246.291 14.1742 255.284C14.3061 259.317 13.9325 261.115 12.2407 261.333C9.34041 261.715 6.41816 261.606 3.51787 261.66C2.26548 261.66 1.91393 259.371 1.86998 256.919C1.7821 252.94 1.76012 248.962 1.78209 244.928C1.86998 233.32 2.04576 221.711 2.0897 210.102C2.15562 196.532 2.11167 182.906 2.11167 169.281C1.97984 169.336 1.86998 169.336 1.76012 169.336Z" transform="translate(185.91 52.1211) rotate(120)" fill="#496C7D"/>
<path d="M1.07285e-05 185.229C0.175786 174.547 0.373501 163.811 0.571248 153.128C0.812938 139.34 0.966784 125.551 1.38425 111.817C1.95552 93.0138 2.74647 74.2654 3.38366 55.4626C3.62535 48.5955 3.69127 41.7284 3.8231 34.8068C3.95493 26.8496 3.99889 18.8925 4.17467 10.9354C4.3065 4.77679 4.46029 3.95928 6.85523 2.76026C9.64566 1.39773 12.48 0.63472 15.3144 0.0352102C16.8524 -0.291795 17.3578 1.67024 17.204 5.4853C16.8744 13.7694 16.5888 22.0536 16.3031 30.3377C15.9516 40.8019 15.666 51.266 15.3144 61.7847C14.7651 78.571 14.1279 95.4118 13.6665 112.198C13.1612 130.456 12.6778 148.768 12.4581 167.081C12.2823 180.106 12.0406 193.186 13.0952 206.158C13.3809 209.591 12.8975 211.553 11.5133 212.098C8.37128 213.406 5.18536 214.387 2.02141 215.314C1.05465 215.586 0.659135 213.57 0.571248 211.39C0.461388 208.883 0.395494 206.321 0.373522 203.814C0.35155 197.656 0.373522 191.497 0.373522 185.284C0.219719 185.229 0.10987 185.229 1.07285e-05 185.229Z" transform="translate(34.9727 197.634) rotate(120)" fill="#496C7D"/>
<path d="M11.973 1.33164C12.8518 7.10874 12.764 13.1583 12.764 19.0444C12.7859 31.0346 12.5882 43.0248 12.72 54.9606C12.8518 69.2943 13.1814 83.5735 13.511 97.9073C14.0603 120.525 14.6096 143.143 15.3347 165.761C16.0817 188.924 16.5431 212.087 16.6749 235.304C16.7848 254.706 16.8068 274.163 17.1583 293.566C17.4659 310.624 17.1144 327.683 16.9606 344.688C16.7848 367.741 16.8068 390.741 16.7628 413.795C16.7409 433.033 16.6969 452.272 16.7628 471.511C16.8068 484.973 17.0485 498.38 17.0485 511.787C17.0705 537.021 17.0704 562.255 16.9606 587.489C16.8727 606.565 16.5431 625.585 16.3893 644.661C16.1916 667.714 15.9059 690.714 15.9499 713.768C16.0378 750.065 16.3234 786.363 16.6749 822.661C16.8947 846.26 17.3781 869.804 17.7076 893.403C17.9713 913.895 18.1031 934.442 18.4327 954.934C18.8721 981.585 19.4654 1008.24 19.9707 1034.89C20.0366 1038.32 19.9927 1041.81 20.1026 1045.24C20.2124 1048.46 20.4321 1051.67 20.6079 1054.89C20.6958 1056.31 20.8496 1057.72 20.8936 1059.19C21.0913 1065.24 20.4541 1066.88 17.9713 1067.42C15.9279 1067.86 13.9065 1068.51 11.8851 1069.17C9.22649 1069.99 8.03999 1067.53 8.43548 1060.99C9.02873 1051.02 8.5893 1041.05 8.50141 1031.13C8.36958 1017.88 8.14985 1004.64 7.88619 991.396C7.68844 980.877 7.33691 970.413 7.16113 959.894C6.89747 943.38 6.72167 926.866 6.47998 910.407C6.23829 893.348 5.90873 876.29 5.73296 859.231C5.35944 825.658 5.00789 792.086 4.74422 758.513C4.56845 736.386 4.45857 714.204 4.50251 692.076C4.52448 675.563 4.85407 659.049 5.02984 642.59C5.09576 636.976 5.11774 631.362 5.20563 625.749C5.90873 580.404 5.79887 535.005 5.51324 489.605C5.38141 470.53 5.20562 451.509 5.11774 432.434C5.02985 413.74 5.07379 395.101 5.00788 376.407C4.94196 362.618 5.22761 348.884 5.40338 335.095C5.6231 317.71 5.16168 300.269 4.98591 282.883C4.87605 271.111 4.83211 259.285 4.65633 247.512C4.34872 226.693 4.23885 205.819 3.1842 185.054C2.72279 176.116 2.76673 167.014 2.52504 157.967C2.10758 141.672 1.88788 125.321 1.11886 109.134C0.61351 98.6703 0.130123 88.2061 0.0422351 77.7965C-0.111568 61.1192 0.196028 44.4419 0.305887 27.7101C0.327859 23.35 0.305882 18.9899 0.327854 14.6299C0.349825 7.98075 1.58025 3.89318 4.17293 1.98565C6.63378 0.0781186 9.13858 -1.0119 11.973 1.33164Z" transform="translate(631.264 970.384) rotate(120)" fill="#496C7D"/>
<path d="M12.2048 25.4172C12.4684 38.8244 12.7541 52.2316 12.9958 65.6388C13.3693 86.6762 13.7208 107.714 14.0944 128.751C14.3141 140.523 14.5777 152.295 14.8414 164.068C15.2808 184.015 15.6983 203.908 16.1817 223.855C16.9287 253.722 17.6758 283.588 18.5327 313.455C18.8183 323.21 19.4116 332.911 19.8071 342.667C20.5541 361.252 21.2352 379.837 21.9823 398.476C22.6634 415.426 23.3665 432.376 24.0696 449.325C24.6848 464.313 25.3 479.301 25.9152 494.234C26.4426 507.042 26.9699 519.85 27.4752 532.657C28.0245 547.264 28.4859 561.924 29.1012 576.531C29.5406 587.158 30.2217 597.731 30.6392 608.359C31.1665 621.875 31.4961 635.446 31.9575 649.017C32.1772 655.884 32.5508 662.697 32.7705 669.564C33.4296 690.165 34.0888 710.766 34.682 731.368C35.0336 743.848 35.2533 756.384 35.6268 768.864C36.264 790.229 36.9232 811.539 37.1868 832.957C37.3626 847.836 37.846 862.66 38.1536 877.539C38.5271 895.47 38.7908 913.401 39.1863 931.332C39.5817 949.262 40.0212 967.193 40.5485 985.124C41.0319 1001.42 41.5812 1017.66 42.2623 1033.9C42.4601 1038.53 43.0973 1043.06 43.6026 1047.53C44.064 1051.51 43.4268 1055.1 41.8449 1055.87C39.2742 1057.07 36.6595 1058.1 34.0668 1058.92C32.5508 1059.41 32.1113 1058.1 32.0234 1054.5C31.6279 1037.34 31.2324 1020.17 30.771 1002.95C30.3755 987.359 29.8922 971.826 29.4527 956.239C28.9693 939.398 28.5079 922.557 28.0465 905.716C27.9586 902.119 27.9367 898.468 27.8707 894.816C27.5631 874.869 27.3214 854.921 26.904 834.974C26.4645 814.482 25.8054 794.044 25.2781 773.606C24.7947 755.13 24.4431 736.654 23.8938 718.233C23.4983 704.662 22.8392 691.146 22.3558 677.63C21.9823 667.329 21.7406 656.974 21.3231 646.728C20.4882 626.181 19.5654 605.634 18.6865 585.087C18.0493 569.554 17.4561 554.076 16.8189 538.543C16.2256 524.264 15.6324 510.039 14.9952 495.76C14.358 481.535 13.611 467.311 13.0177 453.031C12.3146 436.245 11.7434 419.404 11.1282 402.618C10.5349 386.704 10.0515 370.79 9.37041 354.93C8.79914 341.25 7.98618 327.625 7.349 313.891C7.08533 308.331 7.01942 302.663 6.84365 297.104C6.51407 286.422 6.14054 275.794 5.83294 265.112C5.52533 254.103 5.26167 243.039 4.97603 231.976C4.73434 222.765 4.49265 213.5 4.27293 204.289C3.89941 187.448 3.54786 170.608 3.17434 153.767C2.86673 140.36 2.51518 126.952 2.20758 113.545C1.94391 101.609 1.68025 89.6738 1.48251 77.7381C1.13096 58.7172 0.845322 39.6964 0.493771 20.6211C0.427856 17.1875 0.230108 13.754 0.0323606 10.3749C-0.121443 7.81337 0.274049 6.01484 1.19687 5.19733C4.1411 2.47228 7.17322 0.346743 10.3372 0.0197378C11.5896 -0.143765 11.8752 0.67375 11.9411 3.7803C12.0949 11.0289 12.2268 18.2775 12.3586 25.5262C12.3146 25.4172 12.2707 25.4172 12.2048 25.4172Z" transform="translate(731.34 792.022) rotate(120)" fill="#496C7D"/>
<path d="M27.3997 1055.36C27.18 1053.56 26.8724 1052.25 26.8504 1050.89C26.3231 1020.26 25.7738 989.629 25.3124 958.999C25.1586 948.481 25.4222 937.907 25.2464 927.389C24.9828 911.42 24.4774 895.506 24.1039 879.591C23.7304 862.587 23.4008 845.528 23.0712 828.524C22.9394 821.984 22.7636 815.498 22.7197 808.958C22.6538 801.328 22.7197 793.752 22.6538 786.122C22.5659 777.62 22.456 769.118 22.1923 760.616C21.8408 748.517 21.4014 736.417 20.9399 724.318C20.6543 717.124 20.2808 709.93 19.9512 702.736C19.8853 701.319 19.7974 699.847 19.6876 698.43C18.9845 688.62 18.1056 678.919 17.5783 669.054C17.029 658.427 16.8092 647.744 16.4577 637.062C16.3698 634.174 16.216 631.285 16.1281 628.397C15.7985 615.916 15.469 603.435 15.2053 590.954C15.0295 583.379 14.9636 575.749 14.8318 568.173C14.7878 565.83 14.612 563.486 14.5022 561.142C14.3044 556.837 14.0627 552.531 13.9089 548.171C13.5574 538.252 13.2278 528.333 12.8982 518.468C12.5027 506.914 11.8656 495.36 11.7996 483.806C11.6678 465.275 10.6571 446.909 10.1298 428.487C9.88809 420.367 9.75626 412.191 9.55851 404.016C9.22894 391.318 8.92133 378.673 8.50387 365.975C8.04246 352.24 7.3833 338.615 6.92189 324.881C6.39456 308.967 5.93315 293.052 5.60357 277.084C5.29597 262.423 5.16413 247.762 5.01033 233.047C4.8785 221.656 4.92245 210.211 4.74667 198.82C4.63681 190.7 4.30723 182.579 4.06554 174.458C4.04357 173.75 3.95568 173.041 3.93371 172.333C3.58216 156.746 3.29653 141.158 2.90104 125.626C2.70329 118.05 2.24188 110.529 1.97821 102.953C1.363 85.0768 0.703845 67.2005 0.286379 49.3242C0.000744392 36.68 0.0886312 23.9813 0.000743711 11.2826C-0.0212282 7.84901 0.44018 5.23296 1.84638 4.14294C4.06554 2.45341 6.19682 -0.053628 8.59175 0.000872976C10.2177 0.0553739 10.5692 0.709387 10.6571 4.52445C11.2503 26.3793 11.8656 48.2887 12.4588 70.1436C12.7664 81.7523 13.0301 93.3065 13.3377 104.915C13.9309 127.206 14.612 149.442 15.1394 171.733C15.3811 182.034 15.425 192.389 15.5568 202.69C15.6667 211.737 15.7546 220.784 15.8864 229.831C16.0402 241.276 16.1501 252.667 16.4137 264.112C16.7433 278.392 17.2047 292.671 17.6222 306.95C17.9298 317.632 18.2374 328.314 18.567 338.942C19.1163 356.273 19.7095 373.605 20.2588 390.936C20.4346 396.55 20.5445 402.163 20.6983 407.777C21.1157 422.601 21.5332 437.425 21.9287 452.25C22.1704 461.297 22.3242 470.344 22.5219 479.391C22.7416 489.692 22.9833 500.047 23.225 510.348C23.8402 535.527 25.4222 560.488 25.7078 585.722C25.9276 604.58 26.8504 623.328 27.2679 642.185C27.7732 665.021 29.0256 687.639 30.3879 710.203C31.6842 731.567 32.4972 753.04 32.7389 774.623C32.8927 788.575 32.8707 802.582 33.1124 816.534C33.42 834.465 33.8155 852.395 34.3428 870.272C35.1118 895.996 35.7929 921.666 35.771 947.445C35.749 966.302 36.496 985.105 36.8915 1003.96C36.9575 1006.85 37.0234 1009.74 37.0234 1012.68C37.0453 1024.45 37.0014 1036.28 38.1 1047.84C38.3637 1050.56 37.9682 1052.2 36.8696 1052.52C33.7496 1053.72 30.6296 1054.48 27.3997 1055.36Z" transform="translate(735.566 772.021) rotate(120)" fill="#496C7D"/>
<path d="M6.51826 523.232C6.51826 509.988 6.51826 496.744 6.51826 483.5C6.51826 471.347 6.54022 459.193 6.54022 447.039C6.51825 431.997 6.56219 416.955 6.43036 401.913C6.27656 384.527 5.96895 367.141 5.79317 349.701C5.72726 343.161 5.94698 336.675 5.90303 330.135C5.79317 310.188 5.61741 290.24 5.50755 270.293C5.41967 253.452 5.37571 236.557 5.33177 219.716C5.28782 200.314 5.44164 180.911 5.15601 161.563C4.91432 144.178 4.2112 126.846 3.70584 109.461C3.46415 100.958 3.17853 92.4563 2.98079 83.9542C2.54135 65.6964 2.18978 47.384 1.72837 29.1262C1.59654 23.5671 1.46472 17.9535 0.256269 12.8305C-0.358944 10.2144 0.168382 7.27136 1.46472 5.69083C2.76106 4.1648 4.14529 2.63878 5.52952 1.98477C7.72671 0.94925 9.98981 0.567744 12.2309 0.0227346C13.1977 -0.195269 13.725 1.16725 13.7909 3.56529C14.0985 12.3944 14.4721 21.2236 14.6918 30.1072C15.285 53.2701 15.8124 76.433 16.3617 99.6504C16.8451 119.925 17.5262 140.199 17.7239 160.473C17.9876 186.252 17.8118 212.031 17.8777 237.81C17.9217 257.594 18.0315 277.378 18.0755 297.162C18.1633 327.301 17.9656 357.44 18.3611 387.524C18.8665 424.585 18.5369 461.591 18.6248 498.652C18.6687 518.599 18.6028 538.601 18.7566 558.548C18.8884 574.68 19.218 590.813 19.5476 606.945C19.7893 619.044 20.1189 631.198 20.4484 643.297C20.4924 645.096 20.6901 646.84 20.8 648.638C21.0636 652.889 20.5802 655.396 18.8664 656.268C15.9442 657.74 12.978 658.666 10.0338 659.756C8.93516 660.138 8.42981 658.448 8.27601 656.05C8.21009 655.015 8.25405 653.87 8.23207 652.78C7.88052 637.575 7.52896 622.369 7.17741 607.163C7.06755 602.476 6.89178 597.734 6.84783 593.047C6.716 578.332 6.58417 563.671 6.51826 548.956C6.51826 540.29 6.54023 531.788 6.51826 523.232C6.54023 523.286 6.54023 523.232 6.51826 523.232Z" transform="translate(584.666 1092.19) rotate(120)" fill="#496C7D"/>
<path d="M12.4388 0.139033C12.7245 7.27865 13.076 13.5463 13.2079 19.8139C13.4935 33.7661 13.6253 47.7183 13.889 61.6706C14.3504 85.215 14.9876 108.759 15.3831 132.304C15.8005 157.32 15.9544 182.39 16.3279 207.406C16.6135 226.263 17.0749 245.121 17.4045 263.978C17.6682 279.02 17.8 294.117 18.0417 309.159C18.2174 319.841 18.5031 330.524 18.7008 341.206C18.8546 350.253 18.9865 359.355 19.0524 368.402C19.1842 388.731 19.2282 409.059 19.36 429.388C19.6017 464.596 19.8434 499.803 20.1949 535.011C20.3927 554.086 20.6563 573.107 21.1177 592.128C21.5572 610.059 22.2823 627.935 22.8975 645.811C23.0073 649.136 22.7437 650.717 21.3814 651.262C18.569 652.352 15.7346 653.169 12.9003 653.714C11.538 653.987 11.0986 652.57 11.0327 649.136C10.7251 631.205 10.4174 613.274 10.0879 595.344C9.67039 572.126 9.14307 548.909 8.81349 525.691C8.52786 506.453 8.35207 487.214 8.24221 467.975C8.08841 437.291 8.11039 406.607 7.8687 375.923C7.73687 359.627 7.27545 343.331 6.9239 327.09C6.61629 313.356 6.19884 299.567 5.95715 285.833C5.64954 269.864 5.53968 253.895 5.23208 237.981C4.88053 219.669 4.37517 201.411 3.97968 183.099C3.23263 149.036 2.48558 114.972 1.80445 80.9094C1.43093 62.2701 1.23318 43.5763 0.881633 24.8825C0.793746 20.1954 0.486142 15.5083 0.156564 10.8757C-0.282874 4.88061 0.112623 3.35459 2.50756 2.53707C4.46306 1.82856 6.37461 0.684043 8.33011 0.0845325C9.56053 -0.133471 10.7909 0.139033 12.4388 0.139033Z" transform="translate(667.318 916.452) rotate(120)" fill="#496C7D"/>
<path d="M13.1335 76.7927C13.3971 96.2496 13.6169 114.78 13.9025 133.256C14.1442 147.916 14.3859 162.632 14.7594 177.292C15.3526 199.747 16.0997 222.147 17.2202 244.438C17.8574 257.191 17.9233 270.108 18.2529 282.97C18.6045 296.377 19.0439 309.73 19.3515 323.137C19.5932 333.601 19.6591 344.12 19.8789 354.584C20.1205 366.193 20.538 377.747 20.7357 389.301C20.9774 402.545 20.9994 415.734 21.2631 428.978C21.5707 444.728 22.0541 460.479 22.4276 476.23C22.6253 484.569 22.7572 492.907 22.911 501.246C23.3724 525.553 23.7898 549.806 24.2732 574.114C24.5149 585.886 24.8225 597.658 25.196 609.376C25.3279 613.681 25.7234 617.987 25.9431 622.293C26.1189 625.781 25.9431 626.707 24.5808 627.198C21.8343 628.233 19.0879 628.887 16.3194 629.596C15.3966 629.814 14.7814 628.669 14.6276 626.271C14.5617 625.018 14.4957 623.764 14.4738 622.511C14.0343 598.421 13.5729 574.277 13.1335 550.188C12.7819 530.458 12.4743 510.675 12.0788 490.945C11.8811 481.353 11.3977 471.761 11.2219 462.169C10.8923 445.165 10.6726 428.106 10.409 411.047C10.1892 396.931 10.0135 382.815 9.72784 368.7C9.42023 353.875 9.06868 338.997 8.65121 324.172C8.16783 306.46 7.61854 288.747 7.0253 271.034C6.30023 249.179 5.44332 227.324 4.78417 205.469C4.03712 180.126 3.35599 154.838 2.82866 129.441C2.4112 109.33 2.32331 89.2189 1.94979 69.1081C1.73007 56.9544 1.29063 44.8552 0.917106 32.756C0.675415 24.7988 0.32387 16.8962 0.0162639 8.93906C-0.0496517 7.19503 0.0602023 5.72352 0.807246 4.9605C3.37796 2.34446 5.99261 -0.0536028 8.82698 0.000898132C11.1121 0.0553991 11.5295 0.763924 11.6833 6.48652C12.1887 25.6709 12.6281 44.8552 13.0456 64.094C13.2214 68.6721 13.1335 73.1957 13.1335 76.7927Z" transform="translate(339.736 612.859) rotate(120)" fill="#496C7D"/>
<path d="M14.1532 131.929C14.1532 146.644 14.1093 161.359 14.1752 176.02C14.2411 194.169 14.6366 212.317 14.4608 230.466C14.1312 261.695 14.4608 292.87 14.5707 324.099C14.6586 346.771 15.076 369.444 15.12 392.17C15.1639 412.663 14.8563 433.21 14.7245 453.702C14.5927 473.867 14.4828 493.978 14.3949 514.143C14.351 522.646 14.5267 531.202 14.351 539.704C14.2631 544.228 14.1532 548.643 14.5048 553.166C14.8124 557.363 13.8676 559.597 12.1318 559.597C9.7149 559.597 7.31996 559.652 4.90305 559.488C2.53009 559.27 1.95883 557.526 2.11263 551.695C2.42024 539.922 2.83771 528.205 2.96954 516.433C3.16729 499.21 3.16728 481.933 3.2332 464.711C3.29911 449.669 3.10138 434.572 3.40898 419.53C3.89236 395.223 3.67263 370.915 3.47488 346.608C3.27713 321.047 2.81573 295.431 2.57404 269.87C2.48615 262.077 2.66193 254.283 2.77179 246.489C3.0794 223.436 2.81575 200.436 2.50814 177.382C2.31039 161.632 2.33236 145.826 2.17856 130.076C2.0687 118.467 1.78307 106.913 1.62926 95.3039C1.38757 78.4631 1.25574 61.5679 0.970108 44.6726C0.750389 32.1919 0.376856 19.7112 0.0253059 7.23044C-0.0845535 3.41538 0.113204 2.32537 1.62926 1.45336C4.63941 -0.290672 7.71547 -0.0726812 10.7696 0.145322C11.8022 0.254324 12.3515 1.72585 12.5053 4.23289C12.5932 5.64992 12.6591 7.12145 12.6811 8.53848C12.9008 29.0308 13.1205 49.5232 13.3183 70.0155C13.4941 87.2378 13.6479 104.46 13.8017 121.737C13.8236 125.17 13.8017 128.604 13.8017 132.092C13.9335 131.929 14.0434 131.929 14.1532 131.929Z" transform="translate(156.297 761.917) rotate(120)" fill="#496C7D"/>
<path d="M17.6483 83.8992C17.4505 102.43 17.1869 125.865 16.9891 149.246C16.7694 178.458 16.7474 207.671 16.3739 236.883C16.1542 254.269 15.4072 271.6 14.9677 288.986C14.77 297.161 14.726 305.282 14.6161 313.457C14.3525 333.949 14.1328 354.442 13.8252 374.934C13.6054 389.976 13.21 405.019 12.9903 420.061C12.6607 443.442 12.419 466.877 12.1773 490.258C12.1333 495.327 12.0235 500.341 12.7705 505.3C13.2759 508.625 12.6607 511.132 11.2325 511.731C8.13446 512.93 5.01445 513.639 1.89445 514.511C1.1474 514.729 0.576118 513.803 0.422315 511.949C0.224568 509.66 -0.0391004 507.317 0.00484337 505.028C0.334422 478.922 0.707955 452.816 1.0595 426.71C1.32317 408.234 1.58683 389.704 1.82852 371.228C2.09218 349.101 2.24599 326.973 2.57557 304.846C2.79529 290.185 3.34458 275.524 3.58627 260.809C3.91585 240.48 4.13556 220.206 4.28936 199.877C4.48711 176.496 4.59698 153.061 4.68487 129.625C4.77275 106.953 4.77275 84.2807 4.79473 61.6083C4.8167 46.021 4.77275 30.3792 4.79473 14.792C4.79473 12.9934 5.03642 11.195 5.01444 9.39644C4.9705 5.36337 6.02516 3.51032 7.27756 2.3658C9.71644 0.131264 12.2871 -0.0867667 14.8139 0.0222352C16.7474 0.131237 17.5824 2.80182 17.5824 7.76141C17.6043 21.0051 17.6043 34.1943 17.6043 47.438C17.6483 58.0112 17.6483 68.5299 17.6483 83.8992Z" transform="translate(69.9883 823.413) rotate(120)" fill="#496C7D"/>
<path d="M12.2834 32.3591C12.2834 48.5459 12.9865 64.5692 13.5797 80.7014C14.2828 99.8313 14.5685 119.07 15.0299 138.254C15.4473 155.64 15.9087 173.026 16.3262 190.412C16.6997 205.618 17.0733 220.823 17.4028 236.029C17.7983 254.668 18.084 273.362 18.4795 292.002C18.7431 304.482 19.0947 316.963 19.4682 329.444C19.6879 336.692 19.9955 343.886 20.2372 351.135C20.5668 360.891 20.9183 370.646 21.1381 380.457C21.5995 399.641 22.0389 418.88 22.3685 438.064C22.5882 450.381 22.5882 462.753 22.72 475.07C22.8958 493.055 23.0716 510.986 23.3133 528.972C23.3572 532.187 23.5769 535.457 23.7527 538.673C23.9724 542.433 23.7088 543.741 22.1927 544.286C20.8305 544.777 19.4243 544.831 18.04 544.94C16.8096 545.049 15.5572 544.995 14.3048 544.995C12.5471 544.995 12.0637 543.85 12.0856 539.545C12.1076 532.46 12.1735 525.375 12.1516 518.344C11.9538 479.321 11.6901 440.299 10.7673 401.33C10.3938 386.125 9.97635 370.919 9.471 355.713C8.98762 340.889 8.21859 326.119 7.84507 311.295C7.22986 287.205 6.90028 263.116 6.35099 238.972C6.06535 225.946 5.58197 212.921 5.20845 199.949C4.96676 191.611 4.769 183.272 4.57126 174.934C4.26365 160.436 4.02197 145.939 3.67041 131.442C3.31886 117.49 3.14309 103.537 2.41802 89.6941C1.29745 68.4387 0.814067 47.0744 0.440545 25.71C0.330686 19.0064 0.110967 12.3572 0.00110758 5.65363C-0.0208643 4.61811 0.286739 3.0921 0.616318 2.60159C1.27547 1.56607 2.06647 0.585058 2.83549 0.421555C5.23042 0.0400484 7.64732 -0.0689268 10.0642 0.040075C11.8879 0.149077 12.1516 0.639558 12.2175 5.05413C12.3713 14.2103 12.2834 23.3119 12.2834 32.3591Z" transform="translate(226.957 641.712) rotate(120)" fill="#496C7D"/>
<path d="M13.0836 49.9656C13.3253 61.5743 13.6988 79.3416 14.0065 97.1089C14.2042 108.173 14.2701 119.236 14.4459 130.3C14.8194 151.501 15.3028 172.702 15.6324 193.903C15.8301 206.383 15.8301 218.918 15.896 231.454C16.0279 255.053 16.1158 278.651 16.3135 302.196C16.4234 315.44 16.7749 328.629 16.9946 341.873C17.2143 355.28 17.2583 368.742 17.6098 382.149C18.0053 397.9 18.6865 413.596 19.1918 429.292C19.6972 444.661 20.1366 460.031 20.642 475.4C20.9056 483.357 21.2132 491.26 21.5428 499.162C21.6966 502.923 21.6307 503.795 20.0707 504.285C17.3242 505.103 14.5557 505.593 11.7873 505.975C10.2712 506.193 9.7439 504.503 9.69996 500.634C9.63404 493.004 9.67799 485.374 9.48024 477.798C9.12869 463.137 8.64531 448.531 8.20587 433.87C7.70052 417.574 7.06334 401.333 6.71179 384.983C6.27235 364.872 5.98671 344.707 5.78897 324.596C5.41544 287.208 5.23968 249.82 4.82221 212.433C4.62446 194.284 4.14107 176.19 3.76755 158.041C3.416 140.655 3.02051 123.269 2.7129 105.829C2.36135 86.8082 2.16361 67.7329 1.76811 48.712C1.48248 35.6863 1.21881 22.6606 0.142189 9.79835C-0.209362 5.60178 0.01036 4.56625 1.72417 3.58523C4.20699 2.16821 6.73375 1.02373 9.26052 0.151712C10.8205 -0.393298 11.0842 0.42419 11.5236 4.34826C12.9079 17.3195 13.1276 30.5087 13.0836 49.9656Z" transform="translate(212.994 602.357) rotate(120)" fill="#496C7D"/>
<path d="M9.79864 0.774464C9.9085 2.02798 10.0623 3.06352 10.1062 4.09904C11.3147 25.4634 12.7429 46.7733 13.6877 68.1921C15.0719 99.5847 16.1705 131.032 16.1485 162.642C16.1265 178.611 16.544 194.58 16.5879 210.549C16.6319 226.136 16.4781 241.778 16.4122 257.365C16.2803 283.471 16.0826 309.631 16.0826 335.737C16.0826 346.964 16.566 358.192 16.7198 369.473C16.9395 386.314 17.0274 403.209 17.1812 420.105C17.335 438.253 17.4888 456.402 17.6646 474.551C17.7305 482.181 17.6865 489.811 17.8843 497.387C18.1479 507.306 18.5874 517.225 18.9829 527.144C19.2026 532.54 19.4882 537.936 19.708 543.331C19.8618 546.819 19.4443 548.509 18.1699 548.618C15.1158 548.781 12.0617 548.672 8.94173 548.672C8.78793 547.637 8.54624 546.656 8.52427 545.675C8.04088 528.67 7.4037 511.666 7.16201 494.662C6.89835 476.35 7.00821 457.983 6.96426 439.67C6.92032 423.865 6.96426 408.06 6.81046 392.309C6.67863 378.902 6.19525 365.495 6.04144 352.087C5.88764 338.68 5.95356 325.273 5.93158 311.866C5.93158 306.47 5.95356 301.02 6.04144 295.624C6.17327 288.212 6.37102 280.855 6.61271 273.443C6.83243 266.576 6.94229 259.763 6.7006 252.841C6.48088 246.247 6.98623 239.489 7.09609 232.785C7.18398 228.261 7.38173 223.683 7.11806 219.269C6.7006 212.129 7.14004 205.262 7.49159 198.231C7.84314 191.637 7.64539 184.824 7.51356 178.12C7.22792 164.386 6.92032 150.652 6.41496 136.918C5.86567 122.693 5.05271 108.523 4.37158 94.3526C4.042 87.1585 3.82228 79.9643 3.42679 72.7702C2.85552 62.0335 2.13045 51.2968 1.53721 40.5601C0.987909 30.532 0.460583 20.4493 0.0431174 10.3666C-0.15463 5.40706 0.28481 4.20803 2.26228 2.5185C4.72313 0.501966 7.18398 -0.969566 9.79864 0.774464Z" transform="translate(314.162 515.91) rotate(120)" fill="#496C7D"/>
<path d="M5.85663 394.782C5.52705 388.133 5.19747 381.538 4.86789 374.889C4.82395 374.017 4.75803 373.036 4.86789 372.219C5.96648 362.572 5.26338 352.707 5.19747 343.006C5.06564 329.218 4.51634 315.483 4.20873 301.695C3.81324 282.837 3.46169 264.034 3.15408 245.177C3.00028 236.675 3.0662 228.118 2.86845 219.616C2.60479 208.008 2.1214 196.453 1.87971 184.845C1.52816 168.549 1.17661 152.253 1.04478 135.903C1.00084 129.635 1.76985 123.313 1.8138 117.045C1.94563 99.9867 2.07746 82.9279 1.85774 65.9236C1.74788 57.694 1.28647 49.4098 0.539429 41.2892C-0.00986777 35.3486 0.187879 29.0265 0.0999916 22.8679C0.034076 17.9628 -0.0757834 13.0577 0.0780197 8.20714C0.297739 1.66703 4.67014 -2.58405 6.69156 1.77603C7.24085 2.97505 7.4386 5.59109 7.54846 7.66213C7.92198 15.9463 8.1417 24.2304 8.49325 32.5145C8.93269 42.7607 9.56987 52.9524 9.89945 63.2531C10.4268 79.8759 10.8662 96.4986 11.1958 113.176C11.5473 129.635 11.6792 146.094 12.0307 162.554C12.3603 178.305 12.8437 194.055 13.2172 209.752C13.3051 213.022 13.2392 216.292 13.2612 219.562C13.415 233.732 13.5028 247.848 13.7885 262.018C14.0302 274.117 14.5575 286.216 14.8871 298.316C15.1288 306.818 15.2166 315.32 15.3924 323.876C15.7 337.665 15.7 351.508 16.4251 365.134C17.1502 378.759 16.4251 392.275 16.8206 405.846C16.9085 408.571 16.4031 410.424 15.2166 410.642C12.602 411.078 9.98734 411.623 7.35071 411.841C5.81268 411.95 5.57099 411.187 5.54902 407.372C5.52705 403.175 5.54902 399.033 5.54902 394.837C5.68085 394.837 5.76874 394.837 5.85663 394.782Z" transform="translate(757.529 720.751) rotate(120)" fill="#496C7D"/>
<path d="M0.0299871 25.5815C0.0299871 20.3494 0.0958947 15.0628 0.00800717 9.83075C-0.0579085 6.8877 0.271675 4.98017 1.41421 3.99915C4.62211 1.32861 7.91789 -0.197418 11.3016 0.0205858C11.719 0.0205858 12.3123 1.38311 12.51 2.47313C12.7297 3.67215 12.6418 5.30718 12.6418 6.7242C12.7737 20.2949 12.8176 33.9202 13.0813 47.4909C13.4987 68.8553 14.0041 90.2196 14.5754 111.584C15.2785 138.017 16.0914 164.45 16.8165 190.828C17.212 204.781 17.5636 218.733 17.8712 232.685C18.2667 250.234 18.5523 267.838 18.9258 285.442C19.1455 295.198 19.4092 305.008 19.7168 314.763C19.7827 317.107 20.0683 319.396 20.2441 321.685C20.5957 325.936 20.1343 327.953 18.4205 328.607C15.7619 329.588 13.0813 330.405 10.3787 331.114C8.75282 331.55 8.0717 330.024 7.98381 325.936C7.80804 317.434 7.69817 308.877 7.50043 300.375C6.92916 275.577 6.35789 250.725 5.74268 225.927C5.30324 208.541 4.8638 191.155 4.35845 173.824C3.89704 157.91 3.30379 141.995 2.79844 126.081C2.60069 119.759 2.46886 113.383 2.29309 107.06C1.80971 87.4946 1.32632 67.9832 0.82097 48.4174C0.623223 40.8418 0.381532 33.2117 0.161813 25.636C0.117869 25.5815 0.0739309 25.5815 0.0299871 25.5815Z" transform="translate(685.461 869.201) rotate(120)" fill="#496C7D"/>
<path d="M4.71745 248.61C4.51971 223.376 4.4538 201.085 4.14619 178.794C3.86056 157.975 3.39914 137.155 2.84984 116.336C2.47632 102.438 1.66337 88.5404 1.28985 74.6427C0.806464 56.3848 0.564768 38.0725 0.213218 19.7602C0.147303 16.1632 0.169277 12.5116 0.0374458 8.91456C-0.0724136 5.263 -0.0284724 4.22748 1.42167 3.30096C4.29999 1.55693 7.1783 -0.568605 10.2104 0.139907C12.1879 0.630415 12.4516 1.33893 12.4955 6.02601C12.5175 10.3861 12.5394 14.7462 12.5834 19.1062C12.6932 30.0064 12.6713 40.9066 12.9569 51.7523C13.3744 67.503 14.0775 83.1448 14.4949 98.8956C14.9564 115.736 15.3299 132.577 15.5935 149.418C15.9011 168.275 16.0989 187.133 16.2087 205.935C16.3406 224.793 16.2527 243.65 16.3626 262.507C16.4504 281.201 16.6482 299.895 16.824 318.534C16.8679 323.33 16.6042 324.311 14.7147 324.856C12.3417 325.565 9.94676 326.164 7.5738 326.818C5.31069 327.418 4.69548 325.728 4.7614 320.224C4.84929 313.902 4.69549 307.525 4.69549 301.203C4.71746 282.782 4.71745 264.251 4.71745 248.61Z" transform="translate(688.836 844.958) rotate(120)" fill="#496C7D"/>
</g>
<defs>
<clipPath id="clip0">
<rect width="680" height="772" fill="white"/>
</clipPath>
</defs>
</svg>
