<svg width="235" height="43" viewBox="0 0 235 43" fill="none" xmlns="http://www.w3.org/2000/svg">
<g clip-path="url(#clip0)">
<path d="M0.84375 17.9482H3.43652C3.53613 18.5693 3.84375 19.0645 4.35938 19.4336C4.88086 19.8027 5.5459 19.9873 6.35449 19.9873C6.9873 19.9873 7.47949 19.8701 7.83105 19.6357C8.18848 19.3955 8.36719 19.0674 8.36719 18.6514C8.36719 17.9951 7.85742 17.5762 6.83789 17.3945L4.84277 16.999C3.64746 16.7588 2.76562 16.3428 2.19727 15.751C1.63477 15.1592 1.35352 14.3799 1.35352 13.4131C1.35352 12.2354 1.78125 11.2891 2.63672 10.5742C3.49805 9.85352 4.62891 9.49316 6.0293 9.49316C6.46875 9.49316 6.89941 9.53125 7.32129 9.60742C7.74316 9.67773 8.17676 9.80957 8.62207 10.0029C9.06738 10.1904 9.45996 10.4307 9.7998 10.7236C10.1396 11.0107 10.4297 11.3945 10.6699 11.875C10.916 12.3496 11.0684 12.8916 11.127 13.501H8.55176C8.37012 12.2764 7.59082 11.6641 6.21387 11.6641C5.56934 11.6641 5.05371 11.7988 4.66699 12.0684C4.28027 12.332 4.08691 12.7012 4.08691 13.1758C4.08691 13.5684 4.23047 13.873 4.51758 14.0898C4.80469 14.3008 5.24414 14.4707 5.83594 14.5996L7.34766 14.9072C8.58398 15.165 9.5127 15.5605 10.1338 16.0938C10.7607 16.627 11.0742 17.3828 11.0742 18.3613C11.0742 19.5332 10.6289 20.4766 9.73828 21.1914C8.85352 21.9004 7.67871 22.2549 6.21387 22.2549C5.22949 22.2549 4.34473 22.0879 3.55957 21.7539C2.78027 21.4141 2.15039 20.9189 1.66992 20.2686C1.18945 19.6123 0.914062 18.8389 0.84375 17.9482ZM12.5589 22L17.8323 9.68652H20.2757L25.5315 22H22.7805L21.8313 19.6445H16.2854L15.3274 22H12.5589ZM17.2346 17.2803H20.8733L19.0364 12.7979L17.2346 17.2803ZM27.7632 22V9.75684H36.7105V12.1387H30.3736V15.1445H35.9019V17.5H30.3736V22H27.7632ZM38.995 22V9.75684H48.0653V12.1211H41.6053V14.7842H47.327V17.1396H41.6053V19.6445H48.0653V22H38.995ZM56.1147 22V9.75684H58.0746L64.5609 17.3945V9.75684H67.1713V22H65.1498L58.725 14.5645V22H56.1147ZM70.2995 22V9.75684H79.3698V12.1211H72.9098V14.7842H78.6315V17.1396H72.9098V19.6445H79.3698V22H70.2995ZM80.8808 12.1387V9.75684H91.665V12.1387H87.5781V22H84.9677V12.1387H80.8808ZM93.3606 9.75684H96.1028L98.678 18.001L101.499 9.75684H103.679L106.5 18.001L109.075 9.75684H111.818L107.801 22.0703H105.261L102.58 14.2744L99.9172 22.0703H97.3596L93.3606 9.75684ZM114.076 19.0908C113.513 18.1123 113.232 17.043 113.232 15.8828C113.232 14.7227 113.513 13.6533 114.076 12.6748C114.644 11.6963 115.418 10.9258 116.396 10.3633C117.375 9.79492 118.45 9.51074 119.622 9.51074C120.501 9.51074 121.335 9.67773 122.126 10.0117C122.923 10.3457 123.606 10.7969 124.174 11.3652C124.749 11.9336 125.203 12.6104 125.537 13.3955C125.871 14.1807 126.038 15.0098 126.038 15.8828C126.038 16.7559 125.871 17.585 125.537 18.3701C125.203 19.1553 124.749 19.832 124.174 20.4004C123.606 20.9688 122.923 21.4199 122.126 21.7539C121.335 22.0879 120.501 22.2549 119.622 22.2549C118.45 22.2549 117.375 21.9736 116.396 21.4111C115.418 20.8428 114.644 20.0693 114.076 19.0908ZM116.343 13.9053C116.021 14.5088 115.86 15.168 115.86 15.8828C115.86 16.5977 116.021 17.2568 116.343 17.8604C116.666 18.458 117.117 18.9355 117.697 19.293C118.277 19.6445 118.918 19.8203 119.622 19.8203C120.331 19.8203 120.975 19.6445 121.555 19.293C122.135 18.9355 122.586 18.458 122.909 17.8604C123.231 17.2568 123.392 16.5977 123.392 15.8828C123.392 15.168 123.231 14.5117 122.909 13.9141C122.586 13.3105 122.135 12.8301 121.555 12.4727C120.975 12.1152 120.331 11.9365 119.622 11.9365C118.918 11.9365 118.277 12.1152 117.697 12.4727C117.117 12.8242 116.666 13.3018 116.343 13.9053ZM128.885 22V9.75684H134.105C135.535 9.75684 136.701 10.1436 137.603 10.917C138.512 11.6904 138.966 12.71 138.966 13.9756C138.966 14.7959 138.761 15.5254 138.35 16.1641C137.94 16.8027 137.372 17.3008 136.645 17.6582L139.757 22H136.645L133.965 18.2031H131.495V22H128.885ZM131.495 15.8037H134.017C134.691 15.8037 135.254 15.6367 135.705 15.3027C136.162 14.9629 136.39 14.5205 136.39 13.9756C136.39 13.4189 136.165 12.9736 135.714 12.6396C135.263 12.3057 134.697 12.1387 134.017 12.1387H131.495V15.8037ZM141.839 22V9.75684H144.449V15.751L149.775 9.75684H152.878L148.123 15.1445L153.361 22H150.118L146.357 17.1221L144.449 19.2842V22H141.839Z" transform="translate(80 6)" fill="#333333"/>
<path d="M35.264 24.2073C36.784 24.2073 38 22.9944 38 21.4783C38 19.9621 36.784 18.7493 35.264 18.7493C34.7067 18.7493 34.1493 18.9514 33.6933 19.2546L29.8427 17.031C29.8427 16.9805 29.8427 16.8794 29.8427 16.8288C29.8427 16.7783 29.8427 16.6772 29.8427 16.6267L33.6933 14.4031C34.1493 14.7063 34.656 14.9084 35.264 14.9084C36.784 14.9084 38 13.6955 38 12.1794C38 10.6633 36.784 9.45043 35.264 9.45043C34.7067 9.45043 34.1493 9.65258 33.6933 9.9558L29.8427 7.73217C29.8427 7.68164 29.8427 7.58056 29.8427 7.53002C29.8427 6.01391 28.6267 4.80102 27.1067 4.80102C25.5867 4.80102 24.3707 6.01391 24.3707 7.53002C24.3707 9.04614 25.5867 10.259 27.1067 10.259C27.664 10.259 28.2213 10.0569 28.6773 9.75365L32.528 11.9773C32.528 12.0278 32.528 12.1289 32.528 12.1794C32.528 12.23 32.528 12.331 32.528 12.3816L28.6773 14.6052C28.2213 14.302 27.7147 14.0998 27.1067 14.0998C26.4987 14.0998 25.992 14.302 25.536 14.6052L21.6853 12.3816C21.6853 12.331 21.6853 12.23 21.6853 12.1794C21.6853 11.0676 21.0267 10.158 20.1147 9.70312V5.20532C21.0267 4.75048 21.6853 3.84082 21.6853 2.729C21.6853 1.21289 20.4693 -9.63918e-08 18.9493 -9.63918e-08C17.4293 -9.63918e-08 16.2133 1.21289 16.2133 2.729C16.2133 3.84082 16.872 4.75048 17.784 5.20532V9.65258C16.872 10.1074 16.2133 11.0171 16.2133 12.1289C16.2133 13.645 17.4293 14.8579 18.9493 14.8579C19.5067 14.8579 20.064 14.6558 20.52 14.3525L24.3707 16.5762C24.3707 16.6267 24.3707 16.7278 24.3707 16.7783C24.3707 16.8288 24.3707 16.9299 24.3707 16.9805L20.52 19.2041C20.064 18.9009 19.5573 18.6987 18.9493 18.6987C18.3413 18.6987 17.8347 18.9009 17.3787 19.2041L13.528 16.9805C13.528 16.9299 13.528 16.8288 13.528 16.7783C13.528 15.6665 12.8693 14.7568 11.9573 14.302V9.85473C12.8693 9.3999 13.528 8.49023 13.528 7.37841C13.528 5.8623 12.312 4.64941 10.792 4.64941C9.272 4.64941 8.10667 5.91284 8.10667 7.42895C8.10667 8.54077 8.76533 9.45043 9.67733 9.90527V14.302C9.52533 14.3525 9.424 14.4536 9.272 14.5041L5.42133 12.2805C5.42133 12.23 5.42133 12.1289 5.42133 12.0784C5.42133 10.5622 4.20533 9.34936 2.68533 9.34936C1.16533 9.34936 0 10.5622 0 12.0784C0 13.1902 0.658667 14.0998 1.57067 14.5547V19.0019C0.658667 19.4568 0 20.3664 0 21.4783C0 22.9944 1.216 24.2073 2.736 24.2073C4.256 24.2073 5.472 22.9944 5.472 21.4783C5.472 20.3664 4.81333 19.4568 3.90133 19.0019V14.5547C4.05333 14.5041 4.15467 14.4031 4.30667 14.3525L8.15733 16.5762C8.15733 16.6267 8.15733 16.7278 8.15733 16.7783C8.15733 17.8901 8.816 18.7998 9.728 19.2546V23.7019C8.816 24.1567 8.15733 25.0664 8.15733 26.1782C8.15733 26.2287 8.15733 26.3298 8.15733 26.3804L4.30667 28.604C3.85067 28.3008 3.344 28.0986 2.736 28.0986C1.216 28.0986 0 29.3115 0 30.8276C0 32.3437 1.216 33.5566 2.736 33.5566C4.256 33.5566 5.472 32.3437 5.472 30.8276C5.472 30.7771 5.472 30.676 5.472 30.6255L9.32267 28.4018C9.77867 28.7051 10.2853 28.9072 10.8933 28.9072C12.4133 28.9072 13.6293 27.6943 13.6293 26.1782C13.6293 25.0664 12.9707 24.1567 12.0587 23.7019V19.2546C12.2107 19.2041 12.312 19.103 12.464 19.0525L16.3147 21.2761C16.3147 21.3266 16.3147 21.4277 16.3147 21.4783C16.3147 22.5901 16.9733 23.4997 17.8853 23.9546V28.4018C16.9733 28.8567 16.3147 29.7663 16.3147 30.8782C16.3147 30.9287 16.3147 31.0298 16.3147 31.0803L12.464 33.3039C12.008 33.0007 11.5013 32.7986 10.8933 32.7986C9.37333 32.7986 8.15733 34.0115 8.15733 35.5276C8.15733 37.0437 9.37333 38.2566 10.8933 38.2566C12.4133 38.2566 13.6293 37.0437 13.6293 35.5276C13.6293 35.477 13.6293 35.376 13.6293 35.3254L17.48 33.1018C17.5813 33.2029 17.7333 33.2534 17.8853 33.3039V37.7512C16.9733 38.206 16.3147 39.1157 16.3147 40.2275C16.3147 41.7436 17.5307 42.9565 19.0507 42.9565C20.5707 42.9565 21.7867 41.7436 21.7867 40.2275C21.7867 40.177 21.7867 40.0759 21.7867 40.0254L25.6373 37.8017C26.0933 38.105 26.6 38.3071 27.208 38.3071C28.728 38.3071 29.944 37.0942 29.944 35.5781C29.944 34.062 28.728 32.8491 27.208 32.8491C25.688 32.8491 24.3707 34.0115 24.3707 35.5276C24.3707 35.5781 24.3707 35.6792 24.3707 35.7297L20.52 37.9533C20.4187 37.8523 20.2667 37.8017 20.1147 37.7512V33.3039C21.0267 32.8491 21.6853 31.9394 21.6853 30.8276C21.6853 30.7771 21.6853 30.676 21.6853 30.6255L25.536 28.4018C25.992 28.7051 26.4987 28.9072 27.1067 28.9072C27.7147 28.9072 28.2213 28.7051 28.6773 28.4018L32.528 30.6255C32.528 30.676 32.528 30.7771 32.528 30.8276C32.528 32.3437 33.744 33.5566 35.264 33.5566C36.784 33.5566 38 32.3437 38 30.8276C38 29.3115 36.784 28.0986 35.264 28.0986C34.7067 28.0986 34.1493 28.3008 33.6933 28.604L29.8427 26.3804C29.8427 26.3298 29.8427 26.2287 29.8427 26.1782C29.8427 24.6621 28.6267 23.4492 27.1067 23.4492C25.5867 23.4492 24.3707 24.6621 24.3707 26.1782C24.3707 26.2287 24.3707 26.3298 24.3707 26.3804L20.52 28.604C20.4187 28.5029 20.2667 28.4524 20.1147 28.4018V23.904C21.0267 23.4492 21.6853 22.5395 21.6853 21.4277C21.6853 21.3772 21.6853 21.2761 21.6853 21.2256L25.536 19.0019C25.992 19.3052 26.4987 19.5073 27.1067 19.5073C27.7147 19.5073 28.2213 19.3052 28.6773 19.0019L32.528 21.2256C32.528 21.2761 32.528 21.3772 32.528 21.4277C32.528 22.9438 33.744 24.2073 35.264 24.2073Z" fill="#333333"/>
</g>
<defs>
<clipPath id="clip0">
<rect width="235" height="42.9565" fill="white"/>
</clipPath>
</defs>
</svg>
