<svg width="323" height="91" viewBox="0 0 323 91" fill="none" xmlns="http://www.w3.org/2000/svg">
<path d="M39.1417 5.92788e-07V36.4403L8.4722 18.7252C-0.612174 13.4417 0.00898477 10.1784 0.00898477 2.79712L31.5326 21.0561V4.42878L39.1417 5.92788e-07Z" transform="translate(274.387 18.0415)" fill="#99BCE3"/>
<path d="M31.5236 39.0978L-4.73903e-06 20.8388L30.5918 3.12369C39.7538 -2.15977 42.2385 0.0934704 48.6053 3.74527L17.0817 22.0043L31.5236 30.2403V39.0978Z" transform="translate(274.395)" fill="#5892CD"/>
<path d="M-4.73903e-06 18.259L31.5236 -1.48197e-07V35.4302C31.5236 45.9972 28.3402 47.0072 21.9733 50.7367V14.3741L7.60915 22.6878L-4.73903e-06 18.259Z" transform="translate(291.477 3.66748)" fill="#2A5789"/>
<path d="M45.4219 55.0878C45.2666 52.99 42.7043 23.3871 42.7043 23.3871C42.3937 19.9684 42.4714 16.6273 42.4714 16.6273H42.3161C42.3161 16.6273 41.695 19.813 40.6079 23.3871C40.6079 23.3871 32.3 52.2907 31.2906 55.0878H24.8462C23.9921 52.7569 15.5288 23.3871 15.5288 23.3871C14.5195 19.8907 13.8207 16.6273 13.8207 16.6273H13.6654C13.6654 16.6273 13.8207 19.813 13.5101 23.3871C13.5101 23.3871 10.8702 52.6792 10.7149 55.0878H0L5.82332 -1.18558e-06H18.4793L27.0202 30.8461C27.9519 34.1871 28.4954 36.9842 28.4954 36.9842H28.6507C28.6507 36.9842 29.1942 34.1871 30.2036 30.8461L39.288 -1.18558e-06H51.8663L57.7673 55.0878H45.4219Z" transform="translate(0 35.0576)" fill="#333333"/>
<path d="M18.8675 44.754C6.36683 44.754 -2.36951e-06 40.0921 -2.36951e-06 31.1569C-2.36951e-06 20.0461 11.1031 16.705 24.0697 15.5396V13.5194C24.0697 9.01296 21.0416 7.76979 16.4606 7.76979C12.2678 7.76979 8.075 9.16835 5.27981 10.4115L2.56226 3.26331C5.59039 1.94245 11.1808 0 18.7899 0C28.5731 0 35.794 4.11799 35.794 15.7727V41.5684C32.2224 43.4331 26.3214 44.754 18.8675 44.754ZM24.0697 21.2892C16.5382 21.9885 11.6466 23.7756 11.6466 30.6907C11.6466 35.741 14.5195 37.9166 19.4887 37.9166C21.3522 37.9166 22.905 37.6058 24.0697 37.0619V21.2892Z" transform="translate(59.5547 46.2461)" fill="#333333"/>
<path d="M6.6774 11.6547C3.02812 11.6547 4.73903e-06 9.09065 4.73903e-06 5.82734C4.73903e-06 2.64173 2.95048 0 6.6774 0C10.4043 0 13.3548 2.64173 13.3548 5.82734C13.2772 9.09065 10.3267 11.6547 6.6774 11.6547ZM0.388226 18.259H12.8889V61.3813H0.388226V18.259Z" transform="translate(99.4609 28.7642)" fill="#333333"/>
<path d="M21.1969 63.7123C8.15265 63.7123 2.36951e-06 56.0202 2.36951e-06 41.5684C2.36951e-06 27.7381 7.84206 19.1914 18.9452 19.1914C21.5074 19.1914 23.6815 19.5022 25.2344 19.8907V-1.18558e-06H37.6575V60.5267C33.7752 62.5468 28.6507 63.7123 21.1969 63.7123ZM25.2344 26.6504C24.225 26.3396 23.0603 26.1842 21.818 26.1842C14.9077 26.1842 12.2678 32.0892 12.2678 41.0245C12.2678 50.4259 15.063 55.7871 21.4298 55.7871C23.138 55.7871 24.3803 55.6317 25.2344 55.1655V26.6504Z" transform="translate(116.312 27.2876)" fill="#333333"/>
<path d="M14.4418 56.7972C7.60913 56.7972 3.18342 55.6317 2.36951e-06 53.5338L2.95049 44.4432C4.7363 45.6087 7.99736 47.0072 11.8019 47.0072C16.3829 47.0072 19.1781 44.3655 19.1781 40.4029C19.1781 36.9065 17.0817 34.731 11.4914 32.2446C2.95049 28.4374 0.54351 22.377 0.54351 17.0158C0.54351 7.69209 7.29856 0 18.0135 0C23.9144 0 28.2625 1.47626 30.9024 3.18561L28.1849 11.1108C26.2438 9.94533 23.2933 8.70216 19.9546 8.70216C15.6065 8.70216 13.2772 11.1108 13.2772 14.9957C13.2772 19.036 16.0724 20.9784 20.731 23.0763C31.3683 27.8935 32.9212 33.7209 32.9212 39.3151C32.9212 49.4159 25.312 56.7972 14.4418 56.7972Z" transform="translate(159.402 34.2026)" fill="#333333"/>
<path d="M18.8675 44.754C6.36682 44.754 4.73903e-06 40.0921 4.73903e-06 31.1569C4.73903e-06 20.0461 11.1031 16.705 24.0697 15.5396V13.5194C24.0697 9.01296 21.0416 7.76979 16.4606 7.76979C12.2678 7.76979 8.07499 9.16835 5.2798 10.4115L2.56225 3.26331C5.59038 1.94245 11.1808 0 18.7899 0C28.5731 0 35.794 4.11799 35.794 15.7727V41.5684C32.2224 43.4331 26.3214 44.754 18.8675 44.754ZM24.0697 21.2892C16.5382 21.9885 11.6466 23.7756 11.6466 30.6907C11.6466 35.741 14.5195 37.9166 19.4887 37.9166C21.3522 37.9166 22.905 37.6058 24.0697 37.0619V21.2892Z" transform="translate(194.578 46.2461)" fill="#333333"/>
<path d="M17.237 27.9071V62.9488H4.73629V27.9071H-4.73902e-06V19.8265H4.73629V15.3977C4.73629 4.59772 12.1901 -1.07423 23.8368 0.16894V8.09412C19.644 7.93873 17.1594 9.33729 17.1594 14.31V19.7488H23.8368V27.8294H17.237V27.9071Z" transform="translate(232.469 27.1963)" fill="#333333"/>
<path d="M11.8796 26.8058C12.7337 33.0993 15.9947 36.2849 22.2839 36.2849C27.3308 36.2849 31.1353 35.1971 33.4647 33.954L36.2599 41.7238C32.9212 43.4331 28.1072 44.8317 20.8087 44.8317C7.60914 44.8317 -9.47806e-06 36.1295 -9.47806e-06 22.2993C-9.47806e-06 8.77986 7.06562 1.18558e-06 19.4887 1.18558e-06C31.9894 1.18558e-06 38.2786 8.46907 37.7351 23.0763L11.8796 26.8058ZM19.0228 7.3813C13.8983 7.3813 10.7149 11.8101 11.1031 20.6676L26.1661 18.4144C26.1661 10.7223 23.6038 7.3813 19.0228 7.3813Z" transform="translate(256.457 46.1685)" fill="#333333"/>
</svg>
