<svg xmlns="http://www.w3.org/2000/svg" xmlns:xlink="http://www.w3.org/1999/xlink" width="101" height="173" viewBox="0 0 101 173">
  <defs>
    <style>
      .cls-1 {
        fill: none;
      }

      .cls-2 {
        fill: #ffb017;
      }

      .cls-3 {
        fill: url(#Safecoin_Chennai_Orange);
      }
    </style>
    <pattern id="Safecoin_Chennai_Orange" data-name="Safecoin Chennai Orange" width="101" height="172" patternUnits="userSpaceOnUse" viewBox="0 0 101 172">
      <rect class="cls-1" width="101" height="172"/>
      <g>
        <g>
          <path class="cls-2" d="M65.21,121.83,75.8,122l14.78,25.85L75.41,173.5l-13.85-.18L65,167.6l7,.09,11.87-20.24L72.5,127.57l-3.73,0-17.57,30-5.7-10,8-13.58,4.64.06Z"/>
          <path class="cls-2" d="M46.7,121.74l13.83.19-3.38,5.71-7-.09L38.26,147.91l10.93,19.3,4.36,0L70.79,138l5.64,10-7.81,13.43-3.53.07-7.26,12.33-11.36-.15L31.59,147.47Z"/>
        </g>
        <g>
          <path class="cls-2" d="M131.66,191.94l-5.24,9.2-29.78.43L81.5,175.87l6.86-12,3.36,5.75-3.44,6,12,20.18,22.86-.26L125,192.3l-17.71-29.86,11.49-.16,8,13.54-2.3,4Z"/>
          <path class="cls-2" d="M140.69,175.77l-6.85,12-3.37-5.72,3.46-6.06-12.06-20.28L99.69,156l-2.16,3.79L114.83,189l-11.47.11-8-13.34L97,172.66l-7.28-12.31,5.62-9.88,30.11-.36Z"/>
        </g>
      </g>
      <g>
        <path class="cls-2" d="M30.66,191.94l-5.24,9.2-29.78.43-15.14-25.7,6.86-12,3.36,5.75-3.44,6,12,20.18,22.86-.26L24,192.3,6.25,162.44l11.49-.16,8,13.54-2.3,4Z"/>
        <path class="cls-2" d="M39.69,175.77l-6.85,12-3.37-5.72L32.93,176,20.87,155.73-1.31,156l-2.16,3.79L13.83,189l-11.47.11-8-13.34L-4,172.66l-7.28-12.31,5.62-9.88,30.11-.36Z"/>
      </g>
      <g>
        <g>
          <path class="cls-2" d="M87.54,128.22,82.31,119,97.13,93.19l29.84.09,6.84,12-6.65,0-3.44-6H100.26L88.81,119l1.84,3.24h34.72l-5.73,10H103.89l-2.29-4Z"/>
          <path class="cls-2" d="M96.84,144.23l-6.84-12,6.64,0,3.45,6.07,23.58,0,11.12-19.19-2.15-3.8-34-.05,5.75-9.92,15.54,0,1.84,3,14.31,0,5.62,9.88-15,26.07Z"/>
        </g>
        <g>
          <path class="cls-2" d="M115.21,34.83,125.8,35l14.78,25.85L125.41,86.5l-13.85-.18L115,80.6l7,.09,11.87-20.24L122.5,40.57l-3.73,0L101.2,70.47l-5.7-10,8-13.58,4.64.06Z"/>
          <path class="cls-2" d="M96.7,34.74l13.83.19-3.38,5.71-7-.09L88.26,60.91l10.93,19.3,4.36.05L120.79,51l5.64,10-7.81,13.43-3.53.07-7.26,12.33-11.36-.15L81.59,60.47Z"/>
        </g>
      </g>
      <g>
        <g>
          <path class="cls-2" d="M-13.46,128.22-18.69,119-3.87,93.19,26,93.28l6.84,12-6.65,0-3.44-6H-.74L-12.19,119l1.84,3.24H24.37l-5.73,10H2.89l-2.29-4Z"/>
          <path class="cls-2" d="M-4.16,144.23l-6.84-12,6.64,0,3.45,6.07,23.58,0,11.12-19.19-2.15-3.8-34-.05,5.75-9.92,15.54,0,1.84,3,14.31,0,5.62,9.88-15,26.07Z"/>
        </g>
        <g>
          <path class="cls-2" d="M14.21,34.83,24.8,35,39.58,60.82,24.41,86.5l-13.85-.18L14,80.6l7,.09L32.78,60.45,21.5,40.57l-3.73,0L.2,70.47l-5.7-10,8-13.58L7.11,47Z"/>
          <path class="cls-2" d="M-4.3,34.74l13.83.19L6.15,40.64l-7-.09L-12.74,60.91l10.93,19.3,4.36.05L19.79,51l5.64,10L17.62,74.39l-3.53.07L6.83,86.79l-11.36-.15L-19.41,60.47Z"/>
        </g>
        <g>
          <path class="cls-2" d="M81.66,105.94l-5.24,9.2-29.78.43L31.5,89.87l6.86-12,3.36,5.75-3.44,6,12,20.18,22.86-.26L75,106.3,57.25,76.44l11.49-.16,8,13.54-2.3,4Z"/>
          <path class="cls-2" d="M90.69,89.77l-6.85,12-3.37-5.72L83.93,90,71.87,69.73,49.69,70l-2.16,3.79L64.83,103l-11.47.11-8-13.34L47,86.66,39.75,74.35l5.62-9.88,30.11-.36Z"/>
        </g>
        <g>
          <path class="cls-2" d="M36.54,42.22,31.31,33,46.13,7.19,76,7.28l6.84,12-6.65,0-3.44-6H49.26L37.81,33l1.84,3.24H74.37l-5.73,10H52.89l-2.29-4Z"/>
          <path class="cls-2" d="M45.84,58.23,39,46.21l6.64,0,3.45,6.07,23.58,0L83.79,33.09l-2.15-3.8-34-.05,5.75-9.92L69,19.27l1.84,3,14.31,0,5.62,9.88-15,26.07Z"/>
        </g>
        <g>
          <path class="cls-2" d="M65.21-50.17,75.8-50,90.58-24.18,75.41,1.5,61.56,1.32,65-4.4l7,.09L83.78-24.55,72.5-44.43l-3.73,0L51.2-14.53l-5.7-10,8-13.58,4.64.06Z"/>
          <path class="cls-2" d="M46.7-50.26l13.83.19-3.38,5.71-7-.09L38.26-24.09,49.19-4.79l4.36,0L70.79-34l5.64,10L68.62-10.61l-3.53.07L57.83,1.79,46.47,1.64,31.59-24.53Z"/>
        </g>
        <g>
          <path class="cls-2" d="M131.66,19.94l-5.24,9.2-29.78.43L81.5,3.87l6.86-12,3.36,5.75-3.44,6,12,20.18,22.86-.26L125,20.3,107.25-9.56l11.49-.16,8,13.54-2.3,4Z"/>
          <path class="cls-2" d="M140.69,3.77l-6.85,12-3.37-5.72L133.93,4,121.87-16.27,99.69-16l-2.16,3.79L114.83,17l-11.47.11-8-13.34L97,.66,89.75-11.65l5.62-9.88,30.11-.36Z"/>
        </g>
      </g>
      <g>
        <path class="cls-2" d="M30.66,19.94l-5.24,9.2-29.78.43L-19.5,3.87l6.86-12,3.36,5.75-3.44,6,12,20.18,22.86-.26L24,20.3,6.25-9.56l11.49-.16,8,13.54-2.3,4Z"/>
        <path class="cls-2" d="M39.69,3.77l-6.85,12-3.37-5.72L32.93,4,20.87-16.27-1.31-16l-2.16,3.79L13.83,17l-11.47.11-8-13.34L-4,.66l-7.28-12.31,5.62-9.88,30.11-.36Z"/>
      </g>
    </pattern>
  </defs>
  <title>Safecoin Pattern</title>
  <g id="Layer_2" data-name="Layer 2">
    <g id="Layer_1-2" data-name="Layer 1">
      <rect class="cls-3" width="101" height="173"/>
    </g>
  </g>
</svg>
