<svg width="1643" height="273" viewBox="0 0 1643 273" fill="none" xmlns="http://www.w3.org/2000/svg">
<g clip-path="url(#clip0)">
<path d="M35.1837 35L0 0V369.5H1724V35L1688.82 0L1653.63 35L1618.45 0L1583.27 35L1548.08 0L1512.9 35L1477.71 0L1442.53 35L1407.35 0L1372.16 35L1336.98 0L1301.8 35L1266.61 0L1231.43 35L1196.24 0L1161.06 35L1125.88 0L1090.69 35L1055.51 0L1020.33 35L985.143 0L949.959 35L914.776 0L879.592 35L844.408 0L809.224 35L774.041 0L738.857 35L703.673 0L668.49 35L633.306 0L598.122 35L562.939 0L527.755 35L492.571 0L457.388 35L422.204 0L387.02 35L351.837 0L316.653 35L281.469 0L246.286 35L211.102 0L175.918 35L140.735 0L105.551 35L70.3673 0L35.1837 35Z" transform="translate(-24)" fill="#496C7D"/>
</g>
<defs>
<clipPath id="clip0">
<rect width="1643" height="273" fill="white"/>
</clipPath>
</defs>
</svg>
