<svg id="Layer_1" data-name="Layer 1" xmlns="http://www.w3.org/2000/svg" viewBox="0 0 2000 500"><title>Artboard 1</title><path d="M596.62,268.64h23.3A19.64,19.64,0,0,0,628.25,282q7,5,17.88,5,8.51,0,13.29-3.21a10.08,10.08,0,0,0,4.77-8.82q0-8.86-13.74-11.31l-17.94-3.52q-16.12-3.28-23.74-11.37t-7.62-21.3q0-15.68,11.58-25.24t30.49-9.56a67.6,67.6,0,0,1,11.6,1,52.62,52.62,0,0,1,11.68,3.56,40.83,40.83,0,0,1,10.58,6.48A33.08,33.08,0,0,1,684.92,214,40.7,40.7,0,0,1,689,228.67H665.84q-2.44-17.06-21-17.06-8.67,0-13.88,3.68a11.83,11.83,0,0,0-5.2,10.22,9.91,9.91,0,0,0,3.85,8.36q3.85,3,11.79,4.73L655,241.33q16.66,3.46,25.08,10.62t8.42,20.3q0,15.85-12,25.48t-31.69,9.63a59.61,59.61,0,0,1-23.81-4.54,40.63,40.63,0,0,1-17-13.35A39.65,39.65,0,0,1,596.62,268.64Z"/><path d="M691.47,305.06l47.4-110.68h22l47.24,110.68H783.35l-8.53-21H725l-8.61,21Zm42-42.42h32.71L749.7,222.35Z"/><path d="M819.66,305.06V195h80.43v21.41h-57v27h49.69v21H843.13v40.61Z"/><path d="M914.15,305.06V195h81.53v21.41H937.62V240.2h51.43v21H937.62V284h58.07v21Z"/><path d="M1061,305.06V195h17.62l58.3,68.65V195h23.46V305.06h-18.17l-57.75-66.84v66.84Z"/><path d="M1176,305.06V195h81.53v21.41h-58.07V240.2h51.43v21h-51.43V284h58.07v21Z"/><path d="M1270.61,216.42V195h96.94v21.41h-36.74v88.64h-23.46V216.42Z"/><path d="M1376.24,195h24.65l23.15,74.1L1449.4,195H1469l25.36,74.1L1517.5,195h24.65L1506.08,305.7h-22.85l-24.12-70.08-24,70.08h-23Z"/><path d="M1549.92,278.93a58.42,58.42,0,0,1,0-57.65,56,56,0,0,1,20.77-20.85,56.67,56.67,0,0,1,28.94-7.63,58.62,58.62,0,0,1,41,16.69,57,57,0,0,1-18.42,93.36,57.7,57.7,0,0,1-22.57,4.5,56.74,56.74,0,0,1-28.94-7.62A55.94,55.94,0,0,1,1549.92,278.93Zm20.21-46.57a38.33,38.33,0,0,0,0,35.47,33.25,33.25,0,0,0,12.18,12.86,34,34,0,0,0,34.72,0,33.23,33.23,0,0,0,12.18-12.86,38.22,38.22,0,0,0,0-35.43A33.53,33.53,0,0,0,1617,219.5a33.84,33.84,0,0,0-34.72,0A33.18,33.18,0,0,0,1570.12,232.36Z"/><path d="M1674.45,305.06V195h46.93q19.27,0,31.48,10.43t12.21,27.49a35.39,35.39,0,0,1-5.53,19.6,37.35,37.35,0,0,1-15.33,13.38l28,39.15h-28l-24.1-34.29h-22.2v34.29Zm23.46-55.7h22.68q9.08,0,15.21-4.54a14.75,14.75,0,0,0,0-23.9q-6.08-4.5-15.25-4.5h-22.68Z"/><path d="M1784.42,305.06V195h23.46v53.88L1855.77,195h27.89l-42.74,48.43L1888,305.06h-29.15L1825,261.22l-17.15,19.43v24.41Z"/><path d="M404.13,272.69a22.69,22.69,0,1,0-12.88-41.35l-31.88-18.41c0-.6.09-1.2.09-1.82s0-1.22-.09-1.82l31.88-18.41a22.68,22.68,0,1,0,0-37.33l-31.88-18.41c0-.6.09-1.2.09-1.82a22.71,22.71,0,1,0-9.8,18.66l31.88,18.41c0,.6-.09,1.2-.09,1.82s0,1.22.09,1.82l-31.88,18.41a22.63,22.63,0,0,0-25.77,0L292,174c.05-.6.09-1.2.09-1.82a22.66,22.66,0,0,0-13-20.47V114.91a22.69,22.69,0,1,0-19.44,0v36.83a22.67,22.67,0,1,0,22.6,39.13l31.88,18.41c0,.6-.09,1.2-.09,1.82s0,1.22.09,1.82l-31.88,18.41a22.65,22.65,0,0,0-25.77,0l-31.89-18.41c.05-.6.09-1.2.09-1.82a22.67,22.67,0,0,0-13-20.48V153.8a22.69,22.69,0,1,0-19.44,0v36.83a22.58,22.58,0,0,0-3.16,1.81L157.28,174c.05-.6.09-1.2.09-1.82A22.69,22.69,0,1,0,125,192.69v36.83a22.68,22.68,0,1,0,19.44,0V192.69a22.51,22.51,0,0,0,3.16-1.81l31.89,18.41c0,.6-.09,1.2-.09,1.82a22.66,22.66,0,0,0,13,20.47v36.83a22.66,22.66,0,0,0-13,20.47c0,.62,0,1.22.09,1.82l-31.88,18.41a22.68,22.68,0,1,0,9.8,18.66c0-.61,0-1.22-.09-1.82l31.89-18.41a22.67,22.67,0,1,0,22.6-39.14V231.58a22.8,22.8,0,0,0,3.16-1.81l31.88,18.41c0,.6-.09,1.2-.09,1.82a22.66,22.66,0,0,0,13,20.47v36.83a22.66,22.66,0,0,0-13,20.47c0,.61,0,1.22.09,1.82L214.93,348a22.68,22.68,0,1,0,9.8,18.66c0-.61,0-1.22-.09-1.82l31.89-18.41a23,23,0,0,0,3.16,1.81v36.83a22.68,22.68,0,1,0,32.41,20.48c0-.62,0-1.22-.09-1.82l31.89-18.41a22.68,22.68,0,1,0-9.8-18.66c0,.61,0,1.22.09,1.82L282.29,386.9a22.16,22.16,0,0,0-3.16-1.81V348.26a22.67,22.67,0,0,0,13-20.48c0-.61,0-1.22-.09-1.82l31.89-18.41a22.65,22.65,0,0,0,25.77,0L381.53,326c0,.6-.09,1.2-.09,1.82a22.7,22.7,0,1,0,9.8-18.66l-31.88-18.41c0-.6.09-1.2.09-1.82a22.68,22.68,0,0,0-45.37,0c0,.62,0,1.22.09,1.82l-31.88,18.41a22.56,22.56,0,0,0-3.16-1.81V270.47a22.67,22.67,0,0,0,13-20.47c0-.62,0-1.22-.09-1.82l31.89-18.41a22.65,22.65,0,0,0,25.77,0l31.88,18.41c0,.6-.09,1.2-.09,1.82a22.68,22.68,0,0,0,22.68,22.68"/></svg>