<svg width="163" height="418" viewBox="0 0 163 418" fill="none" xmlns="http://www.w3.org/2000/svg">
<g clip-path="url(#clip0)">
<path d="M84.1306 202.465C86.3321 201.894 88.5743 201.732 90.8165 202.261C91.6726 202.465 92.5288 202.75 93.3849 202.994C94.7302 203.361 96.0756 203.157 97.4209 202.709C98.114 202.505 98.8478 202.261 99.5408 202.098C99.9485 202.017 100.397 201.976 100.805 202.017C101.416 202.057 101.865 202.383 102.109 202.994C102.354 203.605 101.987 203.972 101.62 204.338C101.375 204.583 101.09 204.827 100.805 204.949C98.6439 205.968 96.3609 206.742 93.9556 206.457C92.5288 206.294 91.1019 206.049 89.7566 205.601C87.8812 204.99 86.4544 205.438 85.1498 206.783C84.416 207.556 83.4375 207.76 82.3776 207.475C81.3584 207.19 80.9915 206.253 80.9507 205.398C80.9099 204.624 80.5838 204.379 80.0131 204.176C78.79 203.727 77.6485 203.198 76.4255 202.831C74.3056 202.18 72.7971 200.795 71.6557 198.962C71.2072 198.228 71.0441 197.373 71.1257 196.518C71.1664 196.029 71.2887 195.581 71.8595 195.499C72.4302 195.377 73.0418 195.255 73.4902 195.784C73.6533 195.988 73.8163 196.233 73.8979 196.477C74.8355 198.514 76.4663 199.573 78.5862 200.102C79.9723 200.428 81.3176 200.917 82.663 201.446C83.1522 201.65 83.6414 202.139 84.1306 202.465Z" fill="#333333"/>
<path d="M168.561 213.381C168.642 212.526 168.561 211.711 168.765 210.978C169.254 209.267 170.273 207.882 171.781 206.864C172.964 206.049 174.105 205.153 175.084 204.135C175.736 203.442 176.021 202.464 176.429 201.609C176.592 201.283 176.633 200.876 176.755 200.509C177.122 199.369 178.386 199.124 179.16 200.02C179.69 200.631 179.772 201.365 179.69 202.098C179.527 203.768 178.916 205.275 177.652 206.416C176.347 207.638 174.961 208.778 173.657 209.959C172.801 210.733 172.311 211.752 172.311 212.933C172.311 213.259 172.352 213.544 172.393 213.87C172.515 215.255 172.067 215.988 170.721 216.395C170.477 216.477 170.191 216.518 169.906 216.558C169.294 216.68 168.805 216.966 168.479 217.577C166.93 220.265 164.525 222.017 161.752 223.32C160.815 223.768 159.959 223.483 159.103 223.035C159.143 222.709 159.184 222.465 159.143 222.18C159.062 221.65 159.347 221.406 159.755 221.161C160.652 220.55 161.508 219.898 162.405 219.287C163.587 218.473 164.28 217.332 164.892 216.11C165.177 215.581 165.462 215.01 165.87 214.522C166.074 214.236 166.482 214.074 166.848 213.911C167.46 213.707 168.031 213.544 168.561 213.381Z" fill="#333333"/>
<path d="M148.83 72.0764C149.033 72.9318 149.319 73.7058 149.441 74.4797C149.808 76.6386 150.705 76.3942 152.295 76.2312C153.029 76.1498 153.681 75.7424 154.415 75.6202C155.149 75.498 155.882 75.5795 156.494 75.5795C157.635 74.276 158.492 72.9726 159.918 72.1172C161.019 71.4654 162.079 70.6915 162.976 69.7953C163.914 68.8585 164.403 67.5957 164.729 66.2923C164.892 65.6813 165.014 65.0295 165.667 64.6222C166.686 64.0519 167.99 64.337 167.95 65.9257C167.909 68.6548 166.971 71.0173 164.851 72.8096C163.832 73.665 162.731 74.4797 161.671 75.3758C160.775 76.1498 160.122 77.0866 159.837 78.2272C159.592 79.2048 158.451 80.3453 157.472 80.3046C156.942 80.3046 156.331 80.0195 155.923 79.6529C155.271 79.0826 154.7 78.8789 153.844 79.2048C152.376 79.7751 150.827 79.8565 149.278 79.4085C148.259 79.1233 147.525 78.4716 147.158 77.4532C146.75 76.3534 146.587 75.2129 146.71 74.0316C146.832 72.9318 147.607 72.1579 148.83 72.0764Z" fill="#333333"/>
<path d="M23.1823 377.415C23.5084 378.678 24.3238 379.533 25.1799 380.389C26.3214 381.488 27.7075 381.896 29.1344 381.611C31.0505 381.203 32.9258 381.203 34.8011 381.774C35.3718 381.937 35.8203 381.774 36.2687 381.326C37.3695 380.267 38.4294 379.167 39.9378 378.719C40.957 378.433 42.0578 378.23 43.077 378.026C44.4223 377.741 45.7269 377.537 47.113 377.578C47.8876 377.578 48.6621 377.415 49.4367 377.374C49.9667 377.334 50.5375 377.293 51.0674 377.415C51.679 377.537 51.842 378.067 51.5159 378.556C51.2713 378.922 50.9451 379.33 50.5782 379.533C49.3552 380.226 48.0506 380.796 46.6238 380.755C44.9115 380.674 43.3216 381.244 41.6909 381.611C39.9786 381.977 38.6333 382.873 38.1033 384.747C37.7771 385.888 36.7172 386.295 35.698 386.539C35.0049 386.702 34.2711 386.336 34.0673 385.684C33.7004 384.544 32.8035 384.544 31.9066 384.503C31.0097 384.462 30.1128 384.584 29.2159 384.584C27.2183 384.544 25.2614 384.299 23.6307 382.955C22.5707 381.977 22 380.837 22 379.37C22 378.474 22.4077 377.945 23.1823 377.415Z" fill="#333333"/>
<path d="M46.7464 95.661C47.0318 95.1315 47.3579 94.6427 47.6025 94.1132C47.8879 93.4207 48.4587 93.0134 49.111 92.7282C49.9671 92.3616 50.7824 91.8728 51.6793 91.6284C53.4323 91.0989 54.5738 89.8361 55.593 88.4512C56.2046 87.5958 56.8976 87.1477 57.9983 87.4736C58.5691 88.1661 58.5283 89.0215 58.2022 89.8361C57.9983 90.3657 57.6722 90.8545 57.3868 91.384C56.5307 93.0541 54.9 93.6244 53.31 94.2354C52.2908 94.6427 51.2309 94.9686 50.6601 95.9869C50.2932 96.6386 50.0486 97.4126 49.804 98.105C49.4371 99.1641 48.744 99.6122 47.6433 99.3271C47.1133 99.2049 46.5833 99.0419 46.0941 98.7975C45.3603 98.4716 44.7488 98.5531 44.1373 99.0827C43.9334 99.2456 43.6888 99.4085 43.485 99.6122C41.6912 101.242 39.5305 101.812 37.166 101.893C36.9214 101.893 36.7175 101.893 36.4729 101.893C35.2091 101.893 35.2091 101.893 34.1084 100.834C34.8422 100.142 35.6983 99.7344 36.7175 99.5307C37.696 99.3271 38.6744 99.0012 39.5713 98.5531C40.4274 98.1458 41.1205 97.5348 41.5689 96.6794C42.1804 95.4981 43.2404 95.1315 44.5042 95.2537C45.1972 95.4166 45.9311 95.5388 46.7464 95.661Z" fill="#333333"/>
<path d="M108.998 67.9623C109.855 66.8218 111.2 66.2515 112.504 65.5183C114.787 64.2148 117.193 63.0743 119.15 61.2005C119.883 60.5081 120.699 60.3451 121.636 60.9969C121.799 62.3818 121.106 63.5223 120.21 64.4999C119.476 65.2739 118.579 65.9256 117.641 66.4959C116.418 67.2698 115.154 67.9216 113.891 68.5733C112.912 69.0621 112.178 69.6731 111.73 70.7322C111.241 71.9949 109.895 72.7688 108.387 71.7912C107.245 71.058 106.063 70.6507 104.677 70.6914C102.231 70.7322 100.274 69.6324 98.5618 67.9623C98.3172 67.7179 98.0726 67.4328 97.9096 67.1476C97.5427 66.4959 97.2165 65.8034 97.665 65.0702C98.1134 64.3777 98.8472 64.1333 99.948 64.2963C100.029 65.1109 100.233 65.8849 100.967 66.3737C102.19 67.1884 103.413 67.8808 104.962 67.8808C106.226 67.8808 107.49 67.9216 108.998 67.9623Z" fill="#333333"/>
<path d="M164.157 276.273C165.38 275.092 166.848 274.237 168.56 273.707C169.538 273.381 170.517 272.933 171.454 272.485C172.392 272.078 173.207 271.426 173.778 270.571C174.43 269.593 175.164 269.634 176.102 269.919C176.632 271.63 176.469 273.178 175.083 274.4C174.349 275.011 173.452 275.499 172.596 275.907C171.454 276.477 170.231 276.884 169.09 277.414C168.234 277.821 167.5 278.432 167.011 279.328C166.684 279.939 166.114 280.51 165.502 280.876C164.687 281.365 163.831 281.161 163.178 280.51C162.2 279.573 160.936 279.165 159.672 278.84C158.939 278.677 158.246 278.432 157.552 278.229C156.166 277.821 155.351 276.803 154.658 275.662C154.373 275.174 154.699 273.952 155.147 273.666C155.555 273.422 155.84 273.626 156.166 273.87C157.634 275.133 159.428 275.662 161.262 275.907C162.2 276.11 163.138 276.151 164.157 276.273Z" fill="#333333"/>
<path d="M145.037 376.967C144.018 376.56 143.366 377.17 142.714 378.026C142.265 378.596 141.654 379.085 141.042 379.411C139.738 380.063 138.392 380.633 137.006 381.203C136.68 381.325 136.232 381.325 135.865 381.285C135.049 381.162 134.764 380.755 134.723 379.94C134.682 379.126 135.008 378.8 135.783 378.555C137.699 377.904 139.615 377.17 140.716 375.297C141.328 374.238 142.347 373.871 143.407 373.708C144.222 373.586 144.589 373.219 144.793 372.405C145.16 370.938 146.097 369.838 147.28 368.983C149.277 367.557 151.316 366.213 153.354 364.91C153.802 364.625 154.332 364.421 154.822 364.299C155.433 364.136 155.719 364.462 155.637 365.154C155.515 366.621 154.618 367.68 153.558 368.535C152.335 369.553 151.03 370.449 149.685 371.305C148.625 371.997 148.054 372.812 148.013 374.156C148.013 375.623 146.831 377.008 145.037 376.967Z" fill="#333333"/>
<path d="M84.415 289.023C84.5781 289.308 84.7004 289.553 84.8634 289.756C86.1273 291.793 87.921 293.219 90.1633 294.074C90.3263 294.115 90.4486 294.196 90.5709 294.278C91.3455 294.726 92.0794 295.011 92.8539 294.156C93.1393 293.83 93.7508 293.748 94.24 293.667C96.5638 293.341 98.8468 293.015 101.171 292.771C102.027 292.648 102.883 292.689 103.535 293.341C104.147 293.952 104.106 294.319 103.535 294.97C102.883 295.744 102.027 296.029 101.089 296.192C99.4991 296.477 97.8684 296.722 96.2377 296.966C95.2185 297.129 94.4439 297.577 93.9547 298.555C93.5878 299.247 93.0578 299.695 92.2832 299.858C90.8563 300.143 89.4702 299.695 89.0218 298.188C88.7772 297.414 88.2472 296.966 87.5134 296.681C85.4342 295.866 84.1704 294.237 83.2327 292.282C83.0697 291.915 82.9881 291.467 82.9066 291.06C82.8251 290.123 83.5589 289.716 84.415 289.023Z" fill="#333333"/>
<path d="M84.7421 87.3109C84.8236 87.9626 84.8644 88.3292 84.9051 88.6958C85.0682 89.6734 85.5574 90.1215 86.4951 90.2437C87.1881 90.3252 87.8812 90.4066 88.5742 90.3659C89.5934 90.3252 90.4903 90.5696 91.3465 90.9769C92.2841 90.3659 93.0995 89.6734 94.0779 89.1846C94.7302 88.8588 95.5455 88.6958 96.2794 88.6551C97.7062 88.5736 99.1331 88.6551 100.56 88.5736C101.049 88.5329 101.498 88.2885 101.946 88.0848C102.476 87.8404 102.965 87.5145 103.454 87.2294C104.107 86.8628 104.718 87.1072 105.411 87.3109C105.697 88.6958 105.004 89.7142 104.066 90.5288C103.047 91.3842 101.783 91.7101 100.519 91.8323C99.4185 91.9138 98.3177 92.036 97.2578 91.9138C95.6271 91.7101 94.6079 92.6062 93.7517 93.7468C92.6103 95.2539 90.6942 95.3354 89.5934 93.869C89.2265 93.3394 88.6965 93.3394 88.1666 93.2987C87.1066 93.1765 86.0059 93.1358 84.9459 92.9321C83.1929 92.6062 81.9699 90.8547 82.2552 89.1032C82.3368 88.6144 82.826 88.0848 83.2337 87.7589C83.5598 87.4738 84.1305 87.4738 84.7421 87.3109Z" fill="#333333"/>
<path d="M80.4605 118.594C80.9089 119.409 81.3166 120.183 81.7243 120.957C82.3766 122.219 83.1104 122.586 84.578 122.342C85.2711 122.26 85.9641 122.301 86.6572 122.219C86.861 122.219 87.1056 122.097 87.2687 121.975C87.6764 121.649 88.0433 121.323 88.4102 120.957C89.7148 119.572 91.3047 118.635 93.0577 117.942C94.5254 117.331 95.993 116.72 97.4606 116.109C97.7053 115.987 97.9499 115.906 98.2352 115.865C98.9283 115.783 99.2544 116.028 99.2952 116.72C99.336 117.453 99.1729 118.105 98.6021 118.635C97.746 119.409 96.8084 120.06 95.7076 120.346C93.6285 120.875 91.9162 121.934 90.4893 123.482C90.2447 123.726 90.0409 124.175 90.0817 124.5C90.1632 125.6 89.6332 126.252 88.6956 126.659C87.7987 127.067 87.1056 126.7 86.5349 126.089C86.0049 125.478 85.3526 125.682 84.7003 125.722C82.7435 125.804 80.9904 125.234 79.7266 123.686C78.9113 122.708 78.5444 121.527 78.4628 120.223C78.3813 119.327 79.0336 118.798 80.4605 118.594Z" fill="#333333"/>
<path d="M182.951 335.256C182.788 335.622 182.624 336.315 182.258 336.885C181.768 337.659 181.116 338.351 180.464 339.044C179.893 339.655 179.2 340.021 178.344 340.225C177.447 340.429 176.55 340.714 175.653 340.958C174.756 341.203 174.267 341.814 174.145 342.669C174.145 342.751 174.145 342.832 174.104 342.914C173.941 344.828 172.596 345.398 171.087 344.787C170.394 344.502 169.783 344.502 169.09 344.787C167.54 345.439 166.032 345.113 164.605 344.339C164.034 344.013 163.464 343.647 162.974 343.199C162.159 342.465 162.077 341.406 162.73 340.592C163.341 339.818 164.075 339.818 164.727 340.51C165.257 341.04 165.787 341.529 166.562 341.651C167.173 341.732 167.744 341.732 168.315 341.366C168.845 341.04 169.538 340.877 170.15 340.795C170.639 340.755 170.924 340.551 171.169 340.184C171.413 339.818 171.658 339.492 171.903 339.125C172.555 338.229 173.615 337.985 174.593 337.618C175.123 337.414 175.694 337.292 176.265 337.17C177.325 336.966 178.222 336.478 178.955 335.704C179.322 335.337 179.689 335.011 180.015 334.645C180.586 334.034 181.198 333.748 182.054 333.952C182.91 334.115 183.032 334.156 182.951 335.256Z" fill="#333333"/>
<path d="M126.038 169.959C126.527 169.756 126.935 169.593 127.342 169.389C128.28 168.859 129.299 168.737 130.4 168.778C131.419 168.819 132.398 168.819 133.417 168.778C134.518 168.737 135.578 168.534 136.515 167.923C137.086 167.556 137.738 167.271 138.391 167.026C138.961 166.782 139.491 167.067 139.858 167.474C140.266 167.923 140.184 168.493 139.817 168.859C139.124 169.593 138.431 170.407 137.575 170.815C136.556 171.344 135.374 171.629 134.273 171.752C132.968 171.914 131.623 171.874 130.319 171.874C129.666 171.874 129.136 172.077 128.688 172.607C127.506 174.033 125.508 174.155 124.163 172.933C123.592 172.403 123.021 172.24 122.247 172.24C119.964 172.281 118.088 171.426 116.539 169.796C116.05 169.267 115.928 168.452 116.172 168.004C116.498 167.474 117.273 167.271 118.047 167.515C118.537 167.678 118.985 167.923 119.434 168.167C120.249 168.574 121.064 168.941 122.083 168.859C123.51 168.778 124.856 169.063 126.038 169.959Z" fill="#333333"/>
<path d="M123.756 99.4497C124.49 97.9425 125.876 96.8835 127.262 95.7837C128.445 94.8875 129.464 93.8284 130.075 92.4028C130.32 91.7918 131.135 91.5066 131.869 91.6696C132.603 91.8325 132.929 92.1584 132.929 92.973C132.97 94.1136 132.685 95.1319 131.869 95.9873C131.054 96.8427 130.239 97.6574 129.342 98.3906C127.996 99.4904 126.936 100.712 126.488 102.505C125.999 104.297 124.123 104.867 122.574 103.849C122.411 103.727 122.207 103.645 122.167 103.482C121.84 102.423 120.984 102.423 120.128 102.301C119.109 102.179 118.049 102.016 117.03 101.771C115.766 101.446 114.828 100.672 114.054 99.6533C113.931 99.4904 113.85 99.3275 113.768 99.1645C113.401 98.4313 113.401 97.7796 113.768 97.4537C114.217 97.0464 115.277 97.0464 115.848 97.4537C116.337 97.8203 116.785 98.2684 117.315 98.5943C118.375 99.246 119.557 99.1645 120.699 99.2053C121.637 99.2053 122.574 99.3275 123.756 99.4497Z" fill="#333333"/>
<path d="M58.2417 319.777C60.3617 319.166 62.8485 319.085 65.3761 319.085C65.9469 319.085 66.5584 319.003 67.0883 318.881C67.8222 318.718 68.4745 318.84 69.1267 319.085C69.5344 319.248 69.9013 319.451 69.9421 319.981C69.9421 320.47 69.7383 320.795 69.3306 320.999C68.0668 321.732 66.7214 322.221 65.2538 322.343C64.3161 322.425 63.3785 322.343 62.4408 322.425C61.6255 322.465 60.8101 322.547 60.0355 322.751C59.5055 322.914 59.0979 323.362 58.6086 323.688C58.4456 323.81 58.3233 323.973 58.201 324.136C57.7118 324.828 57.1818 325.439 56.2033 325.154C55.1026 324.869 54.3688 323.932 54.2873 322.791C54.2873 322.71 54.2465 322.628 54.2873 322.547C54.7765 320.918 53.7573 320.103 52.4935 319.451C51.6781 319.044 50.822 318.596 50.0474 318.107C49.5174 317.74 49.0282 317.292 48.6205 316.763C48.0498 316.07 48.2129 315.541 49.069 315.256C49.4767 315.133 50.0066 315.052 50.4143 315.174C51.5966 315.622 52.7788 316.111 53.9611 316.681C54.6949 317.048 55.3472 317.496 55.9995 317.985C56.7333 318.514 57.3448 319.044 58.2417 319.777Z" fill="#333333"/>
<path d="M93.3434 246.823C93.0581 246.782 92.8135 246.742 92.5281 246.701C90.8566 246.497 89.5928 247.149 88.6959 248.575C87.9213 249.837 86.3721 250 85.3937 248.819C85.0268 248.412 84.7007 248.29 84.2115 248.249C83.3961 248.208 82.5807 248.127 81.8061 248.004C79.6455 247.679 78.137 246.457 77.0363 244.664C76.914 244.461 76.7509 244.175 76.7509 243.931C76.6694 243.198 77.2402 242.75 77.9332 242.994C78.4224 243.157 78.8709 243.401 79.2785 243.687C80.9908 244.827 82.8661 244.99 84.8637 244.746C85.3122 244.705 85.8014 244.705 86.2091 244.868C86.7391 245.112 87.106 244.949 87.4729 244.623C88.6144 243.605 89.9597 243.198 91.4274 243.442C93.4657 243.768 95.4634 243.361 97.4202 243.035C98.3987 242.872 99.3771 243.279 99.744 244.135C99.8255 244.379 99.8255 244.786 99.6625 244.949C99.2955 245.316 98.8879 245.805 98.3986 245.927C96.7679 246.334 95.0557 246.66 93.425 246.986C93.3842 246.905 93.3434 246.864 93.3434 246.823Z" fill="#333333"/>
<path d="M134.56 138.716C134.845 137.169 135.09 136.965 136.476 136.68C136.965 136.598 137.495 136.476 137.943 136.313C138.31 136.15 138.799 135.906 138.922 135.58C139.533 134.073 140.838 133.706 142.224 133.625C143.121 133.543 143.488 133.217 143.692 132.444C143.773 132.118 143.895 131.792 144.018 131.466C144.507 130 145.689 129.266 147.035 128.737C147.891 128.411 148.502 127.881 149.032 127.189C149.358 126.782 149.684 126.334 150.092 125.926C150.377 125.641 150.744 125.397 151.111 125.193C151.56 124.949 152.049 124.745 152.538 125.152C152.987 125.56 152.946 126.13 152.783 126.578C152.538 127.27 152.13 127.881 151.764 128.533C151.03 129.837 150.011 130.855 148.624 131.547C147.157 132.281 146.708 133.706 146.749 135.295C146.79 136.721 146.545 137.087 145.322 137.617C144.752 137.861 144.262 137.861 143.692 137.494C142.55 136.802 142.428 136.843 141.368 137.739C140.186 138.757 138.881 139.409 137.291 139.531C136.19 139.653 135.293 139.45 134.56 138.716Z" fill="#333333"/>
<path d="M103.698 26.2107C103.576 24.7035 104.187 23.6037 105.329 22.7891C106.429 21.9744 107.489 21.1597 108.59 20.345C108.753 20.2228 108.998 20.0599 109.202 20.0192C109.65 19.9784 109.813 19.734 109.895 19.3674C110.384 17.453 111.444 15.9458 112.993 14.7238C114.298 13.7055 114.95 12.1576 115.48 10.6097C115.684 10.0802 115.765 9.4692 116.01 8.93966C116.173 8.57306 116.418 8.16572 116.744 7.92132C117.478 7.35105 118.415 7.71765 118.578 8.61379C118.945 10.6097 118.456 12.4835 117.396 14.1536C116.662 15.2941 115.806 16.3532 114.95 17.4122C114.094 18.4713 113.686 19.6933 113.605 21.0375C113.564 21.6485 113.36 22.2595 113.115 22.7891C112.83 23.3593 112.218 23.6852 111.648 23.4815C109.446 22.6261 108.06 24.0518 106.552 25.1923C106.063 25.5589 105.533 25.9255 105.043 26.2107C104.676 26.5365 104.228 26.4958 103.698 26.2107Z" fill="#333333"/>
<path d="M108.673 144.419C108.999 143.645 109.203 142.953 109.529 142.301C109.977 141.446 110.507 140.672 111.241 139.979C112.342 138.92 113.28 137.617 114.299 136.476C114.666 136.028 115.073 135.58 115.563 135.254C115.889 135.01 116.337 134.888 116.745 134.888C117.56 134.888 117.683 135.091 117.723 135.947C117.764 136.761 117.479 137.372 116.99 137.983C115.685 139.613 114.38 141.283 113.117 142.912C112.627 143.564 112.301 144.256 112.26 145.152C112.22 145.926 112.016 146.7 111.73 147.393C111.323 148.411 110.344 148.859 109.325 148.37C108.388 147.922 107.776 148.248 107.164 148.859C106.675 149.348 106.145 149.796 105.615 150.285C104.678 151.222 103.577 151.303 102.395 150.814C101.62 150.489 101.294 150.041 101.375 149.307C101.457 148.696 101.905 148.248 102.435 148.208C103.74 148.085 104.474 147.108 105.208 146.252C106.145 145.234 107.083 144.379 108.673 144.419Z" fill="#333333"/>
<path d="M98.8881 342.425C97.4612 342.425 96.0343 342.425 94.5667 342.425C93.8329 342.425 93.3437 342.792 92.8544 343.28C92.406 343.728 91.9575 344.095 91.4683 344.543C91.0607 344.91 90.5714 344.869 90.1638 344.625C89.3892 344.176 88.6554 343.606 88.5738 342.588C88.4515 341.651 87.9215 341.04 87.1877 340.551C86.2908 339.981 85.3124 339.411 84.497 338.718C83.8855 338.229 83.3555 337.537 82.9886 336.844C82.5402 336.03 82.9886 335.419 83.9263 335.297C84.5378 335.215 85.1086 335.256 85.557 335.704C86.8208 336.967 88.5738 337.496 89.9599 338.474C90.9383 339.166 91.876 339.492 93.2213 339.166C94.689 338.84 96.2789 339.207 97.8281 339.207C99.255 339.207 100.682 339.288 102.027 339.899C102.883 340.307 103.046 340.755 102.679 341.57C102.476 342.099 101.986 342.181 101.538 342.221C100.641 342.262 99.7442 342.221 98.8473 342.221C98.8881 342.303 98.8881 342.343 98.8881 342.425Z" fill="#333333"/>
<path d="M56.1641 167.76C56.6533 166.823 57.4279 166.497 58.3248 166.497C59.8332 166.538 61.0562 166.008 61.9123 164.705C62.4423 163.89 63.2577 163.564 64.1546 163.401C64.8476 163.279 65.1737 162.994 65.2145 162.261C65.3368 161.079 66.0299 160.183 66.7229 159.328C67.9052 157.861 68.9652 156.354 70.1067 154.888C70.4736 154.399 70.8812 153.91 71.3705 153.544C71.6558 153.34 72.1858 153.34 72.5527 153.421C73.0419 153.544 72.8789 153.992 72.8789 154.399C72.8789 155.784 72.2266 156.924 71.5335 158.065C70.7997 159.287 69.9028 160.428 69.0875 161.609C68.639 162.22 68.4759 162.749 68.7613 163.523C69.169 164.745 68.2313 165.478 67.4975 166.212C67.1306 166.578 66.6414 166.823 65.9891 166.66C65.0107 166.415 64.1953 166.782 63.4615 167.515C62.32 168.656 61.0154 169.47 59.344 169.348C58.5286 169.307 57.754 169.144 56.9386 168.982C56.3679 168.859 56.3271 168.248 56.1641 167.76Z" fill="#333333"/>
<path d="M41.9359 353.708C46.1349 351.631 51.394 351.59 53.5547 353.627C52.6986 354.727 51.4755 355.012 50.1709 355.093C49.0294 355.175 47.8472 355.215 46.7057 355.297C46.2572 355.338 45.8088 355.501 45.3603 355.623C44.8304 355.745 44.3412 355.949 44.015 356.437C43.2812 357.456 42.1397 357.578 40.9982 357.741C40.3867 357.822 39.8567 357.497 39.6121 356.886C39.5305 356.723 39.3675 356.56 39.3675 356.356C39.2452 354.89 38.0629 354.442 36.9622 353.953C35.9022 353.505 34.7607 353.138 33.7008 352.69C32.6816 352.242 32.0293 351.346 31.5401 350.327C31.4178 350.042 31.2955 349.716 31.377 349.431C31.4993 349.065 31.7439 348.657 32.0293 348.413C32.3962 348.169 32.8446 348.25 33.2115 348.576C33.4561 348.82 33.7823 349.024 33.9861 349.309C34.5569 350.165 35.413 350.45 36.3099 350.694C37.4922 351.02 38.7152 351.305 39.7752 351.957C40.5497 352.446 41.4874 352.771 41.9359 353.708Z" fill="#333333"/>
<path d="M124.734 249.715C125.019 249.349 125.223 249.023 125.468 248.697C126.12 247.801 127.099 247.353 128.118 247.149C129.545 246.864 131.012 246.62 132.48 246.375C132.643 246.334 132.806 246.253 132.928 246.294C133.418 246.538 133.988 246.701 134.233 247.108C134.396 247.353 134.111 248.045 133.866 248.33C133.418 248.779 132.847 249.186 132.276 249.43C131.502 249.756 130.686 250.082 129.83 250.163C128.648 250.326 128.036 251.06 127.425 251.956C127.139 252.363 126.854 252.77 126.487 253.096C125.549 253.911 124.408 253.87 123.47 253.015C122.9 252.485 122.329 252.2 121.513 252.282C118.986 252.485 116.417 250.693 116.336 247.231C116.336 246.457 116.907 245.764 117.641 245.683C117.885 245.642 118.211 245.846 118.374 246.049C118.741 246.579 119.027 247.19 119.353 247.76C120.005 248.982 120.168 249.104 121.432 248.86C122.533 248.697 123.552 248.819 124.734 249.715Z" fill="#333333"/>
<path d="M150.419 252.934C150.908 253.096 151.275 253.137 151.561 253.259C152.091 253.504 152.58 253.789 153.069 254.156C153.681 254.644 154.292 254.481 154.904 254.237C155.393 254.033 155.923 253.87 156.371 253.626C156.616 253.504 156.86 253.341 156.942 253.137C157.676 251.141 159.47 250.164 161.019 248.942C161.549 248.534 161.916 248.005 162.405 247.597C162.935 247.149 163.424 246.661 164.036 246.375C164.81 246.009 165.299 246.335 165.544 247.149C165.707 247.679 165.707 248.168 165.462 248.738C165.014 249.879 164.239 250.693 163.342 251.467C162.69 252.037 162.038 252.567 161.345 253.096C160.937 253.422 160.733 253.748 160.774 254.278C160.815 254.685 160.733 255.133 160.693 255.54C160.57 256.681 160.163 257.251 159.062 257.251C157.717 257.211 156.493 257.618 155.23 257.862C153.232 258.27 150.868 256.844 150.256 254.889C150.093 254.359 150.338 253.707 150.419 252.934Z" fill="#333333"/>
<path d="M79.3613 390.898C80.1767 391.142 80.829 391.305 81.4813 391.631C82.052 391.916 82.582 391.876 83.1527 391.631C84.2127 391.142 85.2727 390.939 86.4142 391.265C86.7403 391.346 87.2703 391.142 87.5557 390.898C88.7787 389.757 90.2056 389.187 91.7955 388.943C92.6109 388.821 93.3855 388.373 94.16 388.047C94.69 387.802 95.1792 387.436 95.7092 387.273C96.0761 387.15 96.5653 387.11 96.9323 387.232C97.6253 387.395 97.8291 388.006 97.503 388.658C96.81 390.043 95.5462 390.735 94.2824 391.387C93.7524 391.672 93.1409 391.835 92.5293 391.998C91.1025 392.405 89.9202 393.138 89.2271 394.523C88.901 395.134 88.4933 395.582 87.8818 395.908C87.0664 396.316 86.5365 396.397 86.0473 395.664C85.2727 394.483 84.3758 394.32 83.112 394.768C82.1743 395.094 81.1959 394.768 80.3398 394.197C79.769 393.831 79.239 393.342 78.6683 392.935C78.2606 392.609 77.8529 392.161 78.1791 391.672C78.4644 391.265 78.9944 391.142 79.3613 390.898Z" fill="#333333"/>
<path d="M150.297 8.57301C150.501 8.00274 150.705 7.351 150.99 6.74C152.213 4.13305 154.252 2.30004 156.779 1.0373C157.676 0.589234 158.654 0.99657 159.592 1.0373C159.674 2.05564 159.144 2.58518 158.491 3.07398C157.105 4.05158 155.841 5.11066 154.904 6.53633C154.211 7.55467 153.64 8.61374 153.762 9.87648C153.844 10.5282 153.558 11.017 153.069 11.3836C152.499 11.791 151.928 12.1576 151.316 12.4834C150.582 12.8908 149.849 12.6871 149.319 12.0761C148.748 11.4244 148.096 11.18 147.28 11.2207C146.424 11.2614 145.568 11.18 144.712 11.2614C143.489 11.3429 142.51 10.8948 141.654 10.1616C141.817 9.18401 142.144 8.85814 143.04 8.73594C144.427 8.57301 145.813 8.36934 147.199 8.28787C148.177 8.28787 149.156 8.45081 150.297 8.57301Z" fill="#333333"/>
<path d="M45.6048 397.538C46.1348 397.334 46.7055 397.13 47.2355 396.967C48.0509 396.723 48.907 396.682 49.7631 396.886C51.3123 397.212 52.9022 397.375 54.4514 397.66C55.3891 397.823 56.2452 398.149 56.8975 398.882C57.3459 399.411 57.1421 399.941 56.5306 400.145C56.0821 400.267 55.5929 400.348 55.1445 400.348C53.1468 400.267 51.1084 400.307 49.1516 399.859C48.4585 399.696 47.8878 399.859 47.317 400.267C46.6648 400.756 45.9717 401.204 45.1971 401.489C44.2187 401.896 43.3218 401.815 43.118 400.796C42.751 398.882 41.3242 398.108 39.8973 397.252C39.245 396.845 38.5927 396.397 38.0627 395.867C37.4512 395.297 37.492 394.36 37.9404 393.749C38.3073 393.22 39.1635 393.016 39.5712 393.464C40.4273 394.483 41.6911 394.89 42.7103 395.582C43.6887 396.234 44.6264 396.845 45.6048 397.538Z" fill="#333333"/>
<path d="M65.418 56.0277C65.4587 54.9279 65.9072 54.1539 66.7633 53.4615C68.5163 52.0765 70.5139 51.3433 72.7154 51.0582C73.6938 50.936 73.6938 50.936 73.9792 49.9177C74.713 47.3107 76.2622 45.1926 78.1375 43.2781C78.2598 43.1559 78.4229 42.993 78.586 42.9522C78.9937 42.83 79.6052 42.5449 79.7275 42.7078C80.0128 43.0337 80.2167 43.604 80.1759 44.052C80.0944 44.663 79.809 45.2333 79.5644 45.8036C79.0344 47.0256 78.4229 48.1661 77.8929 49.3881C77.5668 50.0806 77.4037 50.7731 77.8114 51.5063C78.0968 52.0358 77.9337 52.5653 77.5668 53.0541C77.4037 53.2578 77.2406 53.4615 77.0368 53.7059C76.303 54.602 75.5692 54.8871 74.5092 54.5613C72.4708 53.9095 70.5139 54.2354 68.6386 55.1315C68.0271 55.4167 67.4564 55.7426 66.8856 56.0277C66.3964 56.1499 65.948 56.3128 65.418 56.0277Z" fill="#333333"/>
<path d="M117.846 285.642C119.599 284.95 121.352 284.257 123.146 283.606C123.268 283.565 123.39 283.565 123.472 283.524C124.369 283.361 125.225 283.728 125.51 284.298C125.755 284.828 125.388 285.805 124.817 286.416C123.757 287.557 122.29 287.883 120.904 288.412C120.251 288.657 119.721 288.942 119.354 289.553C119.028 290.123 118.661 290.693 117.846 290.652C116.868 290.612 115.889 290.49 115.318 289.675C114.503 288.494 113.769 287.231 112.954 286.009C112.424 285.235 112.587 284.257 112.75 283.402C112.872 282.75 113.239 282.506 113.973 282.465C114.095 282.465 114.218 282.465 114.34 282.465C115.481 282.424 115.522 282.424 115.604 283.524C115.645 284.135 115.971 284.502 116.46 284.787C116.99 284.991 117.357 285.316 117.846 285.642Z" fill="#333333"/>
<path d="M145.974 190.53C147.116 190.57 147.157 190.57 147.483 189.715C148.543 187.149 150.826 186.538 153.313 186.864C153.435 186.864 153.516 186.945 153.639 186.986C154.984 187.312 154.903 187.434 154.903 188.412C154.903 189.104 154.169 189.756 153.313 189.837C153.19 189.837 153.068 189.837 152.946 189.837C151.233 189.919 150.663 190.448 150.744 192.118C150.826 193.381 150.051 194.033 149.195 194.644C148.584 195.051 147.891 195.092 147.197 194.807C146.871 194.685 146.545 194.562 146.26 194.359C145.689 193.951 145.2 194.074 144.67 194.481C144.018 195.01 143.325 195.499 142.428 195.621C141.694 195.703 141.327 195.621 141.042 195.092C140.797 194.562 140.919 194.114 141.327 193.707C142.183 192.852 142.998 191.996 143.895 191.181C144.548 190.57 145.322 190.53 145.974 190.53Z" fill="#333333"/>
<path d="M83.4377 366.417C82.2554 364.299 83.0708 362.303 83.6415 360.266C83.8862 359.329 84.9461 358.881 85.7615 359.37C86.0061 359.492 86.2507 359.818 86.2915 360.063C86.373 360.674 86.4138 361.285 86.3322 361.896C86.1692 363.403 86.1692 364.828 87.1883 366.132C87.5553 366.621 87.5145 367.191 87.3107 367.68C87.066 368.291 86.6991 368.861 86.2915 369.35C85.5984 370.246 84.62 370.246 83.5192 369.879C83.3154 370.327 83.03 370.735 82.9077 371.183C82.2962 373.057 80.3801 373.627 79.0348 373.464C78.8717 373.464 78.6679 373.342 78.464 373.26C78.4233 372.486 78.7902 371.916 79.2386 371.386C79.6463 370.898 80.0132 370.409 80.2578 369.839C81.1955 367.598 81.277 367.435 83.4377 366.417Z" fill="#333333"/>
<path d="M177.284 159.531C177.651 160.794 177.081 161.527 176.143 162.016C175.083 162.546 174.023 162.994 172.922 163.36C172.188 163.605 171.74 164.012 171.414 164.664C171.332 164.827 171.251 165.03 171.128 165.193C170.15 166.66 169.335 166.863 167.786 166.089C167.419 165.926 167.133 165.845 166.685 165.926C165.299 166.212 163.994 165.967 162.73 165.275C161.793 164.786 161.752 163.768 162.608 163.116C163.22 162.668 163.913 162.709 164.606 162.709C166.277 162.749 167.745 162.26 169.131 161.324C170.028 160.713 170.965 160.265 172.107 160.102C173.085 159.979 174.105 159.694 175.042 159.409C175.858 159.205 176.551 159.287 177.284 159.531Z" fill="#333333"/>
<path d="M130.891 360.348C129.708 360.022 128.608 360.429 127.711 359.655C127.425 359.411 126.936 359.37 126.488 359.329C125.061 359.207 124.001 358.515 123.186 357.374C122.819 356.885 122.37 356.356 122.819 355.704C123.104 355.297 124.572 354.849 124.979 355.174C125.999 356.03 127.099 355.948 128.241 355.826C128.485 355.785 128.73 355.826 128.934 355.908C129.749 356.396 130.524 356.111 131.258 355.745C132.195 355.297 133.133 355.093 134.152 355.012C134.845 354.971 135.498 354.726 136.191 354.604C136.394 354.563 136.557 354.523 136.761 354.482C137.699 354.36 138.351 354.563 138.514 355.012C138.637 355.419 138.107 356.682 137.617 356.926C136.476 357.415 135.375 357.985 134.152 358.27C133.255 358.474 132.562 358.759 131.991 359.451C131.747 359.859 131.217 360.103 130.891 360.348Z" fill="#333333"/>
<path d="M142.796 52.891C143.734 52.1171 144.631 51.3839 145.487 50.5692C146.098 50.0397 146.791 49.9175 147.525 49.8767C148.218 49.8767 148.544 50.2433 148.381 50.8951C148.3 51.221 148.137 51.5468 147.933 51.832C147.525 52.4022 147.077 52.9318 146.588 53.4206C145.854 54.1945 145.283 55.0092 145.038 56.109C144.794 57.2903 142.674 58.4308 141.492 58.2271C140.921 58.1049 140.839 57.6161 140.595 57.2088C140.472 57.0051 140.35 56.6792 140.391 56.4348C140.432 55.0092 139.372 54.3982 138.352 53.8686C137.741 53.5428 137.007 53.502 136.314 53.3391C136.069 53.2984 135.825 53.3391 135.621 53.2576C135.213 53.1354 134.643 53.0132 134.765 52.4837C134.846 52.0356 134.928 51.5061 135.539 51.3024C137.945 50.5285 140.146 50.8544 142.185 52.3208C142.388 52.5244 142.592 52.7281 142.796 52.891Z" fill="#333333"/>
<path d="M120.944 37.3715C120.904 38.1862 120.496 38.6342 120.007 39.0008C118.825 39.9377 117.561 40.7931 116.745 42.1373C116.175 43.0742 115.645 44.0111 115.808 45.1923C115.889 45.8441 115.563 46.3329 114.992 46.5773C114.585 46.781 114.136 46.9032 113.688 47.0254C112.791 47.3105 112.057 46.9846 111.609 46.17C110.956 45.0701 109.978 44.7035 108.755 44.7443C107.899 44.785 107.083 44.7443 106.187 44.7443C106.513 43.4408 107.246 42.6669 108.51 42.4632C109.57 42.2595 110.589 42.3003 111.609 42.7076C111.935 42.8298 112.261 42.952 112.587 43.1149C113.076 42.3003 113.525 41.5263 114.014 40.7931C114.666 39.7748 115.482 38.9194 116.46 38.1454C117.765 37.0049 119.273 36.9642 120.944 37.3715Z" fill="#333333"/>
<path d="M141.653 298.352C142.754 298.311 143.732 298.107 144.67 298.311C145.975 298.555 147.279 299.044 148.38 299.899C148.624 300.103 148.869 300.388 148.991 300.714C149.317 301.366 149.114 301.773 148.339 301.773C147.442 301.773 146.545 301.692 145.689 301.488C144.099 301.162 142.876 301.814 141.816 302.873C140.96 303.769 140.267 303.932 139.248 303.484C137.821 302.832 137.495 302.384 137.617 301.04C137.658 300.633 137.658 300.185 137.821 299.777C138.188 298.881 137.984 298.066 137.536 297.333C137.209 296.804 137.25 296.396 137.617 295.948C137.984 295.5 138.432 295.663 138.922 295.826C140.145 296.315 141.042 297.13 141.653 298.352Z" fill="#333333"/>
<path d="M121.106 211.141C121.718 211.304 122.37 211.385 122.982 211.63C123.553 211.833 123.96 211.833 124.49 211.507C125.713 210.774 127.099 210.285 128.526 210.122C128.934 210.082 129.382 210.122 129.79 210.285C130.687 210.652 130.85 211.589 130.238 212.363C129.505 213.259 128.404 213.463 127.466 214.033C127.018 214.318 126.488 214.522 126.08 214.848C125.02 215.703 123.838 215.866 122.574 215.662C122.248 215.621 121.84 215.499 121.636 215.255C121.188 214.766 120.699 214.685 120.087 214.644C119.272 214.603 118.457 214.44 117.682 214.196C116.826 213.911 116.5 213.422 116.54 212.811C116.581 212.281 117.234 211.711 117.967 211.63C118.987 211.507 120.047 211.385 121.066 211.304C121.106 211.222 121.106 211.181 121.106 211.141Z" fill="#333333"/>
<path d="M159.428 393.464C159.021 393.993 158.735 394.401 158.369 394.767C156.901 396.152 155.922 397.782 156.004 399.9C156.045 400.592 156.126 401.325 155.637 401.896C155.311 402.262 154.862 402.71 154.455 402.71C153.191 402.792 152.253 403.321 151.316 404.095C151.275 404.136 151.193 404.177 151.153 404.258C150.663 404.666 150.093 404.788 149.522 404.625C149.155 404.503 148.951 403.403 149.155 402.833C149.563 401.529 150.46 400.633 151.52 399.94C152.253 399.452 152.661 398.881 152.783 398.026C153.191 395.501 154.862 394.034 157.105 393.138C157.879 392.771 158.572 392.894 159.428 393.464Z" fill="#333333"/>
<path d="M87.0246 413.994C88.0846 414.116 88.8592 414.401 89.3892 415.094C90.0415 415.908 90.7753 415.99 91.7537 415.786C93.7106 415.42 95.6266 415.582 97.4612 416.438C97.9912 416.682 98.4396 417.212 98.8065 417.66C99.1327 418.067 99.0104 418.597 98.725 418.963C98.4804 419.289 98.1135 419.086 97.7873 419.045C96.3197 418.841 94.8521 418.597 93.3844 418.556C92.6914 418.556 91.9983 418.963 91.346 419.33C90.2453 419.982 89.4707 420.063 88.5738 419.371C88.2884 419.167 88.0846 418.8 87.9215 418.475C87.4323 417.619 87.0654 416.764 86.087 416.316C85.2308 415.908 85.2308 415.257 85.9647 414.646C86.2908 414.32 86.78 414.157 87.0246 413.994Z" fill="#333333"/>
<path d="M160.245 35.498C159.878 35.1314 159.307 34.7648 159.348 34.4797C159.389 33.8279 159.225 33.1355 159.755 32.5245C160.571 31.6283 161.549 30.9359 162.732 30.5693C163.384 30.3656 163.669 30.0397 163.873 29.3473C164.281 28.0438 164.974 26.781 165.626 25.559C165.911 24.9888 167.175 24.7444 167.705 25.111C167.909 25.2739 168.072 25.6405 168.072 25.8849C167.991 26.6996 167.787 27.4735 167.664 28.2882C167.542 29.1436 167.338 30.0397 167.338 30.8951C167.297 32.443 165.993 33.8279 164.525 33.5835C163.302 33.3799 162.446 33.8279 161.59 34.6019C161.182 34.8463 160.775 35.0907 160.245 35.498Z" fill="#333333"/>
<path d="M155.311 330.042C155.148 330.205 154.985 330.449 154.781 330.571C154.129 331.019 153.436 331.508 152.743 331.875C151.846 332.364 150.949 332.812 150.337 333.667C150.174 333.871 149.807 333.993 149.522 333.993C148.788 333.993 148.054 333.952 147.321 333.789C146.954 333.708 146.627 333.341 146.383 333.015C145.731 332.038 145.323 331.875 144.141 332.119C143.896 332.16 143.488 332.078 143.366 331.875C142.836 331.142 143.285 329.716 144.1 329.309C145.404 328.616 146.627 328.901 147.728 329.634C148.38 330.083 148.87 330.164 149.604 329.797C150.827 329.227 152.131 328.738 153.517 328.779C154.455 328.901 154.699 329.064 155.311 330.042Z" fill="#333333"/>
<path d="M123.022 403.118C123.715 402.344 124.408 401.652 125.061 400.959C125.591 400.389 126.202 400.023 126.936 399.86C127.507 399.737 127.955 399.941 128.281 400.389C128.608 400.837 128.363 401.245 128.037 401.611C126.814 403.037 125.835 404.585 125.061 406.296C124.572 407.395 123.104 407.762 122.248 406.907C121.31 405.97 120.128 405.644 118.986 405.155C118.456 404.951 117.763 404.911 117.723 404.177C117.682 403.444 118.334 403.24 118.782 402.915C118.986 402.752 119.272 402.629 119.516 402.629C120.658 402.629 121.84 402.426 123.022 403.118Z" fill="#333333"/>
<path d="M63.4194 280.917C63.3787 279.614 64.194 278.88 65.2132 278.351C65.7432 278.066 66.0286 277.699 66.2732 277.129C67.0478 275.418 68.1077 273.911 70.1869 273.585C71.1653 273.422 71.6953 274.033 71.3692 274.929C71.2469 275.337 71.0838 275.785 70.7984 276.07C70.0238 276.884 69.7792 277.862 69.6569 278.921C69.5346 279.94 68.9231 280.469 68.0262 280.836C67.1293 281.162 66.2324 281.61 65.3763 281.976C65.2132 282.058 65.0094 282.18 64.8463 282.18C64.4386 282.221 63.9902 282.221 63.5825 282.18C63.4194 282.058 63.4194 281.976 63.4194 280.917Z" fill="#333333"/>
<path d="M131.829 388.169C130.116 388.495 128.934 389.228 127.996 390.572C127.018 391.998 126.284 392.079 124.694 391.346C124.042 391.061 123.471 390.694 122.86 390.328C122.167 389.88 122.004 389.432 122.167 388.902C122.411 388.21 123.064 387.639 123.675 387.599C123.838 387.599 124.001 387.599 124.124 387.639C125.184 388.21 126.04 387.925 126.977 387.151C127.793 386.499 128.812 386.173 129.913 386.173C130.646 386.173 131.217 386.458 131.584 387.069C131.747 387.354 131.747 387.762 131.829 388.169Z" fill="#333333"/>
<path d="M120.373 373.097C119.965 373.22 119.68 373.423 119.435 373.383C118.824 373.26 118.416 373.586 117.968 373.912C117.519 374.279 117.071 374.645 116.622 374.971C115.114 376.03 113.891 375.908 112.586 374.645C112.382 374.442 112.097 374.319 111.812 374.279C110.874 374.116 110.589 373.668 110.915 372.731C111.526 371.142 113.198 370.572 114.625 371.468C114.829 371.59 114.992 371.753 115.236 371.875C116.296 371.468 117.397 370.857 118.579 371.264C119.313 371.59 119.802 372.201 120.373 373.097Z" fill="#333333"/>
<path d="M120.781 318.637C120.373 319.126 119.965 319.655 119.476 320.063C118.701 320.755 117.845 321.366 117.03 321.977C115.888 322.792 114.91 322.669 113.932 321.651C113.646 321.366 113.32 321.04 112.953 320.836C111.975 320.185 111.852 319.777 112.301 318.637C112.342 318.515 112.382 318.352 112.423 318.27C113.239 317.863 113.972 317.985 114.747 318.229C115.195 318.352 115.603 318.352 116.051 318.148C117.152 317.659 118.294 317.293 119.558 317.7C120.047 317.822 120.414 318.067 120.781 318.637Z" fill="#333333"/>
<path d="M101.334 269.308C100.723 269.716 100.315 269.96 99.9072 270.245C99.0919 270.775 98.3173 271.263 97.7873 272.2C97.2166 273.259 95.5859 273.382 94.4851 272.526C93.8736 272.078 93.2621 271.589 92.6506 271.1C92.2429 270.775 92.2429 270.449 92.3652 269.96C92.4875 269.553 92.569 269.145 93.099 269.105C93.7921 269.023 94.4851 268.86 95.1374 269.227C95.6674 269.553 96.1974 269.308 96.6866 269.105C97.9096 268.534 99.1734 268.494 100.437 268.86C100.682 268.901 100.845 269.064 101.334 269.308Z" fill="#333333"/>
<path d="M47.3418 162.134C47.6827 163.462 47.1031 164.45 46.4553 165.369C45.0233 167.378 43.0117 168.433 40.591 168.808C38.6476 169.114 36.7042 169.046 34.7608 168.944C33.397 168.876 31.9991 168.978 30.6353 169.216C29.9534 169.318 29.2715 169.795 28.6919 170.238C28.01 170.748 27.3281 171.089 26.4757 171.123C25.3847 171.157 24.6005 170.68 24.3959 169.591C24.2936 168.978 24.0209 168.842 23.5094 168.774C21.7365 168.569 20.0659 168.808 18.3611 169.42C16.3154 170.135 14.2356 169.965 12.1558 169.454C11.849 169.386 11.5762 169.114 11.2012 168.91C11.7126 168.229 12.224 167.82 13.0082 167.956C14.9857 168.297 16.8268 167.684 18.668 167.173C20.85 166.595 23.0662 166.322 25.2824 166.867C25.4188 166.901 25.5892 166.901 25.6915 166.969C26.578 167.718 27.4985 167.344 28.3509 167.003C29.7488 166.424 31.249 166.288 32.7492 166.254C34.4539 166.186 36.1586 166.322 37.8634 166.356C40.7615 166.39 43.2163 165.505 45.0233 163.122C45.637 162.339 46.353 162.032 47.3418 162.134Z" fill="#333333"/>
<path d="M-7.72158 199.926C-8.09662 199.824 -8.74444 199.688 -9.35815 199.45C-9.97186 199.211 -10.2105 198.735 -10.0741 198.19C-9.97185 197.713 -9.56271 197.373 -8.98309 197.339C-8.19891 197.271 -7.41474 197.271 -6.63056 197.168C-6.01685 197.1 -5.36904 196.93 -4.75534 196.76C-4.07344 196.556 -3.63019 196.079 -3.25515 195.5C-2.2323 194.002 -1.27765 192.47 0.49529 191.687C0.904428 191.517 1.00672 191.176 1.07491 190.768C1.27948 189.542 1.51814 188.35 1.85909 187.159C2.02956 186.58 2.30232 186.035 2.64327 185.559C3.42745 184.435 4.31392 183.38 5.0981 182.222C5.57543 181.507 5.91639 180.656 6.25734 179.839C6.496 179.26 6.83694 178.851 7.51884 178.681C8.26892 178.511 8.67807 178.681 8.78035 179.498C8.91673 180.52 8.74626 181.541 8.40532 182.494C7.92799 183.822 7.1438 184.946 6.35962 186.103C5.8141 186.886 5.30266 187.669 4.79124 188.453C4.17753 189.372 4.07525 190.359 4.34801 191.415C4.68896 192.913 4.17754 193.866 2.64327 194.07C1.31356 194.24 0.529393 195.126 -0.220695 196.147C-0.459359 196.487 -0.663941 196.862 -0.936701 197.202C-2.60735 199.313 -4.95989 199.722 -7.72158 199.926Z" fill="#333333"/>
<path d="M4.00792 229.683C3.05326 230.091 2.74641 230.806 2.71232 231.794C2.71232 233.36 2.1668 234.756 1.24624 236.049C0.803005 236.662 0.189284 237.003 -0.492615 237.207C-0.731279 237.275 -1.03812 237.207 -1.24269 237.207C-1.54954 236.56 -1.37907 236.049 -1.14041 235.573C-0.288033 234.007 0.121098 232.338 0.087003 230.602C0.087003 229.819 0.359758 229.104 0.871182 228.559C1.62127 227.776 2.30318 226.857 3.46241 226.55C3.66698 226.482 3.90563 226.176 3.93972 225.938C4.1102 224.984 4.41707 224.099 5.06487 223.35C5.30354 223.078 5.47401 222.771 5.74677 222.567C6.70143 221.784 7.69017 221.035 8.61073 220.218C9.94043 219.094 11.0997 217.766 11.9179 216.2C12.2589 215.553 12.5998 214.975 13.4522 214.941C14.1 214.907 14.3387 215.009 14.5433 215.656C14.8842 216.711 14.816 217.766 14.2023 218.72C13.0772 220.422 11.8157 221.954 10.1109 223.146C9.25854 223.759 8.50844 224.542 7.69017 225.223C7.24693 225.597 7.04237 226.04 7.04237 226.618C7.04237 227.163 6.97419 227.674 6.94009 228.219C6.8719 229.478 6.05362 230.091 4.8262 229.887C4.51935 229.819 4.24658 229.751 4.00792 229.683Z" fill="#333333"/>
<path d="M-6.80046 308.057C-6.39132 307.478 -5.98218 306.934 -5.60714 306.321C-4.65248 304.755 -3.05001 304.006 -1.54983 303.189C-1.03841 302.916 -0.424692 302.746 0.120827 302.474C0.666346 302.201 1.24596 301.895 1.75738 301.52C2.37109 301.078 2.95071 300.805 3.70079 301.078C4.38269 302.678 3.59851 304.312 1.75738 304.891C0.495867 305.265 -0.629261 305.844 -1.75439 306.627C-2.87953 307.41 -3.62963 308.398 -3.8342 309.691C-4.00467 310.611 -4.58428 311.224 -5.1298 311.836C-5.84579 312.653 -7.38006 312.551 -8.06195 311.632C-8.77795 310.645 -9.73262 310.134 -10.8918 309.896C-13.0057 309.521 -14.7787 308.432 -16.5857 307.342C-17.5062 306.798 -17.6085 305.878 -16.9607 305.197C-16.6539 304.891 -15.9379 304.721 -15.6992 304.993C-15.1537 305.64 -14.3695 305.81 -13.6535 306.083C-12.3238 306.559 -10.9259 306.866 -9.56214 307.24C-8.67567 307.512 -7.82331 307.751 -6.80046 308.057Z" fill="#333333"/>
<path d="M22.0436 236.968C22.5551 238.364 22.0095 239.42 21.2254 240.373C20.4753 241.258 19.5888 242.041 18.7705 242.892C17.85 243.812 16.8953 244.697 15.9748 245.65C15.7361 245.889 15.6679 246.263 15.5656 246.604C15.1565 247.795 14.3382 248.306 13.1449 248.033C12.0538 247.795 11.9174 247.795 11.4401 248.714C10.6218 250.383 9.18985 251.234 7.58739 251.881C6.53045 252.323 5.43942 252.221 4.24609 251.642C4.58704 251.064 5.16665 250.757 5.71217 250.383C6.63273 249.736 7.62149 249.157 8.50796 248.442C8.84891 248.17 9.01939 247.693 9.15577 247.284C9.53081 246.263 10.1786 245.548 11.2696 245.276C12.0538 245.106 12.7357 244.731 13.2812 244.05C13.9972 243.199 14.8837 242.45 15.7361 241.701C17.2022 240.339 18.8046 239.079 20.0661 237.479C20.5776 236.798 21.2595 236.73 22.0436 236.968Z" fill="#333333"/>
<path d="M11.2695 288.14C11.3718 287.97 11.5082 287.595 11.7128 287.289C12.3947 286.335 12.9061 285.314 13.2471 284.19C13.6562 282.863 14.3381 281.671 15.5996 280.854C15.9064 280.65 16.2474 280.411 16.2474 279.935C16.2815 277.483 18.3613 274.998 21.5321 274.487C22.5891 274.317 23.646 274.317 24.7029 274.317C25.6235 274.317 26.2031 274.794 26.3395 275.509C26.4418 275.951 26.3054 276.121 25.8281 276.224C24.5325 276.496 23.2369 276.734 22.0094 277.109C20.3047 277.619 19.6228 278.743 19.8274 280.479C19.9978 282.011 19.2478 283.033 17.7817 283.237C17.1339 283.339 16.7247 283.68 16.452 284.19C16.0428 284.973 15.6337 285.757 15.2586 286.574C14.679 287.765 13.6903 288.582 12.497 289.093C11.6446 289.502 11.2354 289.229 11.2695 288.14Z" fill="#333333"/>
<path d="M16.7937 262.095C16.18 261.312 16.2141 261.346 16.6914 260.563C17.5779 259.133 18.8394 258.316 20.51 258.214C21.6352 258.145 22.7603 258.214 23.9536 258.214C24.6014 257.703 25.2833 257.056 26.0675 256.545C27.2949 255.728 28.2837 254.673 29.136 253.515C29.8179 252.596 30.568 251.813 31.8977 252.085C32.341 252.63 32.3069 253.243 32.1364 253.89C31.4886 256.103 30.1248 257.805 28.1473 258.929C27.1926 259.473 26.8858 260.154 26.954 261.142C27.0222 262.061 26.6812 262.776 25.8288 263.218C25.1469 263.593 24.5673 263.491 24.0218 262.912C23.715 262.571 23.4422 262.197 23.1354 261.856C22.6921 261.346 22.1807 261.107 21.4647 261.107C20.3055 261.107 19.1803 261.142 18.1234 261.652C17.6802 261.822 17.2369 261.925 16.7937 262.095Z" fill="#333333"/>
<path d="M9.29193 263.661C9.12146 264.24 9.05326 264.682 8.88279 265.057C7.89404 267.1 6.29159 268.598 4.55275 269.959C3.05258 271.151 2.1661 272.547 2.26839 274.488C2.26839 274.658 2.26839 274.828 2.26839 275.032C2.23429 276.258 1.58649 276.803 0.393168 276.564C0.0522189 276.496 -0.288738 276.394 -0.425118 275.986C-0.629687 275.339 -0.970637 274.76 -1.10702 274.113C-1.2434 273.5 -1.48205 273.058 -1.99348 272.751C-2.64128 272.343 -3.32318 271.934 -4.03917 271.594C-5.1643 271.049 -6.22125 270.436 -7.07363 269.483C-7.2782 269.244 -7.44866 268.972 -7.61914 268.768C-6.63038 267.644 -6.494 267.61 -5.23249 268.189C-3.39137 269.04 -1.58435 269.925 0.359061 270.845C0.597725 270.572 0.904596 270.3 1.14326 269.959C2.30249 268.393 3.66627 267.1 5.20054 265.908C5.78016 265.465 6.35978 264.989 6.9394 264.512C7.75767 263.831 7.79176 263.831 9.29193 263.661Z" fill="#333333"/>
<path d="M-11.5048 167.616C-11.8458 166.867 -11.8117 166.22 -11.5389 165.437C-11.0616 164.143 -11.4025 162.781 -12.0163 161.624C-12.9368 159.921 -14.0278 158.287 -15.0166 156.619C-13.9256 155.938 -13.1755 155.938 -12.4595 156.959C-12.3913 157.061 -12.3231 157.13 -12.2549 157.198C-10.2433 158.628 -9.39094 160.807 -8.2999 162.951C-7.54981 162.543 -6.76563 162.1 -5.98145 161.692C-4.3108 160.807 -2.50377 160.228 -0.594457 160.092C-0.014843 160.057 0.598869 160.16 1.17848 160.33C1.38305 160.398 1.65581 160.704 1.68991 160.943C1.724 161.147 1.45125 161.453 1.24668 161.556C0.905727 161.76 0.53068 161.896 0.155636 161.964C-2.2651 162.407 -4.44717 163.428 -6.42468 164.824C-7.03839 165.267 -7.618 165.845 -8.06123 166.458C-9.08408 167.854 -9.83418 168.161 -11.5048 167.616Z" fill="#333333"/>
<path d="M32.7838 371.077C33.193 370.532 33.6362 370.022 34.0453 369.477C34.6249 368.762 35.4091 368.455 36.2615 368.387C36.6024 368.387 36.9434 368.524 37.2502 368.694C37.5571 368.864 37.6594 369.17 37.4207 369.511C37.2843 369.715 37.148 369.954 37.0116 370.124C36.2956 371.043 35.8523 371.996 35.716 373.188C35.5455 374.618 33.6021 375.469 32.3406 374.856C32.136 374.754 31.9996 374.516 31.8292 374.311C30.9427 373.154 29.8175 372.643 28.3856 373.222C28.0446 373.358 27.7037 373.46 27.3627 373.528C25.2829 373.903 23.2713 373.971 21.4984 372.541C21.3961 372.439 21.2597 372.371 21.1574 372.269C20.6801 371.826 20.5437 371.315 20.7483 370.941C20.9529 370.566 21.703 370.26 22.1803 370.464C24.0555 371.383 25.9989 371.009 27.8059 370.43C29.5448 369.851 31.0109 370.124 32.477 370.975C32.5451 371.009 32.6815 371.043 32.7838 371.077Z" fill="#333333"/>
<path d="M16.419 150.456C15.9757 150.388 15.6348 150.422 15.3961 150.286C14.5437 149.844 13.7936 150.184 13.0436 150.49C12.6003 150.695 12.1912 151.001 11.7139 151.171C11.2706 151.342 10.7592 151.444 10.2819 151.444C9.80454 151.478 9.63406 151.137 9.87273 150.763C10.7592 149.333 11.8161 148.039 13.4186 147.392C14.271 147.052 14.6801 146.473 15.0211 145.69C15.6348 144.328 16.2826 143 17.0667 141.741C17.7146 140.685 18.8397 140.14 20.0671 139.902C20.374 139.834 20.7149 139.902 20.9877 140.004C21.124 140.038 21.2945 140.345 21.2604 140.481C21.1241 140.991 21.09 141.536 20.5103 141.809C19.7603 142.149 19.3852 142.728 19.1465 143.477C18.6692 144.941 18.1237 146.337 18.0896 147.903C18.0555 148.754 17.6464 149.469 17.0327 150.014C16.8622 150.218 16.5553 150.354 16.419 150.456Z" fill="#333333"/>
<path d="M-12.2568 285.689C-11.9159 284.395 -11.234 283.782 -9.90429 283.884C-8.4723 283.987 -7.1085 284.293 -5.84698 285.042C-4.89233 285.621 -4.89233 285.587 -4.14224 284.838C-3.18758 283.85 -2.09654 283.067 -0.732746 282.829C-0.323606 282.761 0.119611 282.591 0.358274 283.135C0.596939 283.646 0.631046 284.089 0.221908 284.497C-0.187231 284.94 -0.630461 285.348 -1.0737 285.757C-1.7215 286.336 -2.09655 286.949 -1.99426 287.868C-1.85788 289.025 -2.64208 289.877 -3.73312 290.013C-4.31273 290.081 -4.82414 289.945 -5.23328 289.434C-6.11975 288.345 -7.21079 287.493 -8.54049 286.983C-9.18829 286.744 -9.90429 286.642 -10.5862 286.506C-11.1999 286.404 -11.8818 286.37 -12.2568 285.689Z" fill="#333333"/>
<path d="M13.1443 311.939C12.7693 311.292 12.3601 310.611 11.9851 309.93C11.5078 308.977 11.6782 308.568 12.5647 308.057C12.9397 307.853 13.2125 307.921 13.4512 308.091C14.5763 308.909 15.7014 309.726 16.2128 311.122C16.4174 311.666 16.7584 312.007 17.1675 312.347C17.713 312.79 18.2245 313.301 18.8041 313.709C19.2814 314.05 19.861 314.322 20.4065 314.424C21.1225 314.56 21.668 314.833 22.1454 315.377C22.1795 316.705 21.5317 317.318 20.0997 317.25C18.8382 317.182 17.6107 316.841 16.6902 315.956C16.0424 315.309 15.3946 314.969 14.4399 315.343C14.0308 315.514 13.4512 315.445 13.0079 315.275C12.3942 315.037 12.0874 314.118 12.3601 313.437C12.5306 312.96 12.8374 312.517 13.1443 311.939Z" fill="#333333"/>
<path d="M15.0898 202.446C16.0104 201.424 16.8287 201.288 17.8856 201.901C18.4652 202.241 18.9767 202.684 19.6245 203.127C19.9654 202.786 20.3064 202.48 20.6473 202.105C21.5338 201.084 22.5907 200.335 23.8182 199.858C25.1479 199.348 26.5116 199.211 27.7732 200.369C27.1594 200.743 26.6139 201.118 26.0343 201.492C24.7046 202.276 23.409 203.093 22.693 204.523C22.5225 204.863 22.318 205.204 22.2498 205.578C21.8406 207.246 19.829 207.893 18.6016 206.668C17.7492 205.85 17.0332 204.965 16.2832 204.08C15.8058 203.535 15.499 202.991 15.0898 202.446Z" fill="#333333"/>
<path d="M42.6702 299.307C43.1476 299.376 43.5567 299.341 43.8976 299.478C44.5113 299.716 44.9546 299.478 45.4319 299.103C47.3753 297.673 49.5915 297.197 51.944 297.435C52.3532 297.469 52.7282 297.741 53.1374 297.809C53.6488 297.912 53.8874 298.15 53.8534 298.661C53.7852 299.205 53.4442 299.58 52.8987 299.648C52.2509 299.716 51.6031 299.614 50.9894 299.784C49.9665 300.056 48.9437 300.363 48.0231 300.84C47.5799 301.044 47.3071 301.589 47.0344 302.031C46.557 302.78 46.0115 303.427 45.0569 303.461C44.6818 303.461 44.1704 303.393 43.9999 303.155C43.2839 302.269 42.2952 302.235 41.3064 302.133C40.5222 302.031 40.3177 301.895 40.1472 301.282C40.0108 300.703 40.6586 299.75 41.3746 299.546C41.8179 299.41 42.2952 299.376 42.6702 299.307Z" fill="#333333"/>
<path d="M10.2134 331.924C10.1111 332.23 10.0088 332.468 9.87242 332.877C8.645 332.741 7.41759 332.605 6.19017 332.434C5.67874 333.047 5.3037 333.694 4.48542 334.001C3.49667 334.375 2.61019 334.545 1.62144 334.103C1.41687 334.001 1.14412 334.001 0.905457 333.966C-0.32196 333.796 -1.54937 333.66 -2.77679 333.49C-3.3564 333.388 -3.97012 333.115 -4.03831 332.503C-4.14059 331.89 -3.59508 331.515 -3.08365 331.209C-2.40175 330.8 -1.61756 331.004 -0.90157 331.004C0.359942 330.97 1.65553 331.004 2.91704 330.936C3.15571 330.936 3.46257 330.766 3.66714 330.596C4.75817 329.745 6.01969 329.609 7.3153 329.745C7.65625 329.779 7.9972 329.983 8.23586 330.187C8.84957 330.698 9.46328 331.277 10.2134 331.924Z" fill="#333333"/>
<path d="M8.84858 347.313C7.55297 347.721 6.25736 348.164 4.96175 348.572C3.973 348.879 2.95017 349.083 1.99551 349.457C1.44999 349.662 0.904457 350.036 0.529413 350.445C0.0179892 351.024 -0.561625 351.16 -1.17533 350.99C-1.92542 350.785 -2.67549 350.479 -3.11873 349.764C-3.42558 349.253 -3.83474 349.049 -4.41435 349.015C-5.4031 348.947 -5.60767 348.47 -5.09625 347.619C-4.24388 346.223 -2.43683 346.223 -1.41398 346.836C-0.800272 347.176 -0.322944 347.142 0.290765 346.972C1.44999 346.666 2.6433 346.393 3.83662 346.223C5.09814 346.053 6.35965 345.985 7.65526 345.985C8.57582 345.917 8.7463 346.155 8.84858 347.313Z" fill="#333333"/>
<path d="M3.32469 315.173C2.91555 315.479 2.47233 315.718 2.09728 316.058C1.48357 316.637 0.869853 317.25 0.358429 317.897C0.15386 318.135 0.153868 318.543 0.153868 318.918C0.119773 320.007 -0.289358 320.893 -1.41449 321.131C-2.676 321.403 -3.52837 322.221 -4.48303 322.935C-5.33541 323.582 -6.1537 324.263 -6.63103 325.251C-6.73331 325.421 -6.97197 325.557 -7.17654 325.727C-7.65387 325.251 -7.79025 324.706 -7.58568 324.229C-7.27883 323.446 -6.93787 322.629 -6.42645 321.982C-5.64226 320.995 -4.65351 320.144 -3.80113 319.224C-3.56247 318.986 -3.32381 318.714 -3.18743 318.407C-2.40325 316.637 -1.00537 315.445 0.528904 314.39C0.733473 314.254 0.972137 314.186 1.2108 314.117C2.33593 313.743 2.71098 313.913 3.32469 315.173Z" fill="#333333"/>
<path d="M19.0781 186.852C19.3168 186.341 19.5214 185.932 19.76 185.456C21.7375 185.354 23.5446 185.592 24.9765 187.056C25.2834 187.362 25.5221 187.362 25.9312 187.26C27.8064 186.716 29.6816 186.205 31.5569 185.694C31.8637 185.626 32.1706 185.626 32.5115 185.592C32.8866 185.558 33.1252 185.728 33.2275 186.069C33.3639 186.443 33.4662 186.852 33.0911 187.124C32.6479 187.43 32.2047 187.703 31.7273 187.907C30.9431 188.214 30.0908 188.384 29.3066 188.69C28.4542 189.031 27.6359 189.473 26.7836 189.814C26.1699 190.086 25.5562 190.358 24.9083 190.461C23.7491 190.597 23.1695 190.12 22.8968 188.963C22.7263 188.248 22.1808 187.839 21.567 187.533C21.192 187.328 20.7829 187.192 20.3737 187.056C19.9646 187.022 19.5895 186.988 19.0781 186.852Z" fill="#333333"/>
<path d="M4.27929 105.958C4.41567 104.903 4.89301 104.29 5.94995 104.256C6.59775 104.222 6.97279 103.983 7.34783 103.473C7.92744 102.69 8.57525 101.975 9.12077 101.192C9.49581 100.647 10.0413 100.442 10.5868 100.204C11.2006 99.9318 11.9166 100.613 11.8484 101.362C11.8484 101.6 11.7802 101.872 11.6779 102.077C11.2688 102.996 10.7914 103.915 10.3823 104.869C10.0413 105.72 9.76858 106.605 9.42763 107.456C9.01849 108.511 8.60935 108.682 7.48422 108.614C6.39318 108.546 5.67718 107.865 4.85891 107.32C4.55205 107.116 4.48386 106.435 4.27929 105.958Z" fill="#333333"/>
<path d="M31.693 227.844C32.8863 227.333 33.8069 227.674 34.6592 228.593C35.5116 228.082 36.2958 227.571 37.1141 227.129C37.8301 226.754 38.5802 226.448 39.3303 226.107C39.4325 226.073 39.5348 226.039 39.6371 226.039C40.4895 225.937 41.0691 226.107 41.2055 226.584C41.4441 227.265 40.9327 227.606 40.4554 227.946C39.4666 228.661 38.4438 229.41 37.4891 230.193C37.0459 230.534 36.6708 230.976 36.3981 231.453C35.6139 232.747 34.2842 232.883 33.2954 231.725C32.8181 231.18 32.3749 230.67 31.9317 230.125C31.3179 229.444 31.0111 228.695 31.693 227.844Z" fill="#333333"/>
<path d="M13.4852 293.383C13.7579 293.145 14.0307 292.975 14.2694 292.77C15.3604 291.783 16.6901 291.511 18.1221 291.443C18.5312 291.409 18.9063 291.477 19.0427 291.953C19.2131 292.464 19.3154 292.907 18.8381 293.315C18.6335 293.485 18.463 293.656 18.2585 293.758C17.031 294.405 16.1787 295.46 15.3945 296.55C14.849 297.265 13.7239 297.503 12.9056 296.924C11.8827 296.209 10.9281 295.426 9.9734 294.609C9.2574 293.996 9.22331 293.656 9.63245 293.077C10.1439 292.328 10.8258 292.09 11.5759 292.43C11.8827 292.566 12.1896 292.805 12.4964 292.941C12.7692 293.111 13.076 293.213 13.4852 293.383Z" fill="#333333"/>
<path d="M48.7048 239.182C48.2957 238.296 48.7389 237.718 49.3185 237.207C50.0004 236.594 50.7505 236.083 51.671 235.811C52.8303 235.471 53.9554 235.062 55.1146 234.687C55.4215 234.585 55.7624 234.449 55.9329 234.892C56.1034 235.3 55.9329 235.607 55.592 235.811C54.535 236.526 53.444 237.207 52.3529 237.854C51.8074 238.16 51.5347 238.569 51.5006 239.216C51.5006 239.794 50.9891 240.543 50.5459 240.543C49.6594 240.577 49.0457 241.122 48.3297 241.463C47.0682 242.041 45.8408 242.654 44.5793 243.233C44.1361 243.437 43.6587 243.778 43.2496 243.165C43.0109 242.79 43.2837 241.837 43.7269 241.531C44.0338 241.292 44.3747 241.088 44.7498 240.952C46.0454 240.339 47.3069 239.794 48.7048 239.182Z" fill="#333333"/>
<path d="M42.1945 314.73C43.4901 313.913 44.888 313.539 46.3541 313.641C46.7632 313.675 47.1723 313.777 47.5815 313.947C48.1952 314.185 48.5362 314.696 48.3657 315.139C48.1952 315.649 47.6838 315.683 47.2405 315.752C46.5586 315.888 45.8426 316.024 45.1948 316.296C44.4788 316.569 43.7969 316.943 43.4901 317.794C43.2855 318.475 42.024 318.68 41.2398 318.169C40.2511 317.522 39.2623 316.875 38.7509 315.683C38.3759 314.866 38.41 314.322 38.9896 313.777C39.501 313.3 40.3534 313.266 40.9671 313.675C41.1716 313.811 41.3421 313.981 41.5467 314.151C41.7513 314.322 41.9217 314.492 42.1945 314.73Z" fill="#333333"/>
<path d="M32.8854 272.309C33.1581 271.968 33.3627 271.628 33.6354 271.355C34.9992 269.925 36.7381 269.142 38.6815 268.87C39.3634 268.768 39.6361 269.176 39.3975 269.857C39.227 270.402 38.7838 270.606 38.3405 270.845C37.6586 271.253 36.9086 271.662 36.2948 272.138C35.6811 272.615 35.2379 273.194 35.1356 274.079C35.0333 275.407 34.6924 275.577 33.3286 275.407C33.1581 275.373 32.9876 275.373 32.8172 275.441C31.8625 275.747 31.2829 275.169 30.7374 274.522C30.5669 274.317 30.4987 274.079 30.3282 273.909C29.6804 273.262 29.9873 272.513 30.1237 271.798C30.226 271.287 31.0783 271.151 31.692 271.492C32.0671 271.662 32.3739 271.934 32.8854 272.309Z" fill="#333333"/>
<path d="M32.7154 416.46C31.7266 416.733 30.8742 416.971 30.056 417.243C28.9308 417.618 27.5329 417.209 27.0897 416.256C26.851 415.711 26.7828 415.099 26.6805 414.52C26.6124 414.111 26.5783 413.669 26.5442 413.26C26.476 412.511 26.9874 411.762 27.7375 411.558C28.3512 411.422 28.7603 411.49 29.0672 412.137C29.5786 413.26 30.1582 414.111 31.5902 414.077C31.9994 414.077 32.5108 414.486 32.8517 414.826C33.0563 415.065 33.1245 415.541 33.0904 415.882C33.0222 416.12 32.7494 416.358 32.7154 416.46Z" fill="#333333"/>
<path d="M0.189872 260.29C-0.253362 260.393 -0.594298 260.597 -0.798868 260.495C-1.71943 260.052 -2.70818 260.29 -3.62874 260.12C-4.61749 259.95 -5.60626 259.78 -6.56092 260.154C-7.82243 259.78 -8.26566 260.801 -8.87937 261.516C-9.15213 261.823 -9.3908 262.129 -9.69765 262.503C-10.2773 261.788 -10.4477 261.142 -10.1068 260.427C-9.66354 259.507 -9.15213 258.588 -8.33386 257.941C-7.89062 257.567 -7.37919 257.294 -6.76548 257.397C-5.12892 257.669 -3.49237 257.975 -1.88991 258.248C-1.07163 258.384 -0.560199 258.86 -0.21925 259.575C-0.15106 259.746 -0.0146971 259.916 0.189872 260.29Z" fill="#333333"/>
<path d="M10.2121 301.01C11.1327 300.533 11.9509 300.09 12.7692 299.716C13.0761 299.58 13.4511 299.546 13.7921 299.546C14.5422 299.546 14.8149 300.022 14.4399 300.669C14.3035 300.907 14.0648 301.078 13.8603 301.282C13.2125 301.997 12.5987 302.678 12.1896 303.563C11.4736 305.163 10.0075 305.299 8.81421 303.972C8.2687 303.359 7.72317 302.78 7.14355 302.133C7.21174 301.384 7.34813 300.703 8.2346 300.431C9.08697 300.192 9.66658 300.805 10.2121 301.01Z" fill="#333333"/>
<path d="M28.3506 292.498C29.7826 291.817 30.1235 291.851 31.01 292.872C31.726 293.724 32.4079 294.643 32.8511 295.698C33.1239 296.379 32.9534 296.958 32.3738 297.503C31.8283 298.013 30.8054 298.184 30.294 297.775C30.0553 297.571 29.7826 297.196 29.7826 296.89C29.7826 295.766 29.203 294.881 28.7938 293.928C28.5552 293.485 28.487 292.975 28.3506 292.498Z" fill="#333333"/>
<path d="M32.1028 326.511C31.796 326.851 31.5573 327.226 31.2505 327.498C30.9095 327.77 30.6367 328.043 30.5686 328.519C30.5004 328.894 30.3299 329.268 30.1253 329.575C29.7503 330.154 29.1366 330.358 28.3524 330.188C27.7387 330.051 27.5 329.575 27.4318 329.03C27.3977 328.792 27.3977 328.519 27.4318 328.281C27.7728 327.055 29.0684 325.557 30.7049 325.523C31.2163 325.523 31.2164 325.523 32.1028 326.511Z" fill="#333333"/>
</g>
<defs>
<clipPath id="clip0">
<rect width="163" height="418" fill="white"/>
</clipPath>
</defs>
</svg>
