<svg width="187" height="318" viewBox="0 0 187 318" fill="none" xmlns="http://www.w3.org/2000/svg">
<g clip-path="url(#clip0)">
<path d="M125.226 253.817C127.395 253.257 129.605 253.097 131.815 253.617C132.658 253.817 133.502 254.097 134.346 254.337C135.671 254.697 136.997 254.497 138.323 254.057C139.006 253.857 139.729 253.617 140.412 253.457C140.814 253.377 141.256 253.337 141.657 253.377C142.26 253.417 142.702 253.737 142.943 254.337C143.184 254.937 142.822 255.298 142.461 255.658C142.22 255.898 141.938 256.138 141.657 256.258C139.528 257.258 137.278 258.019 134.908 257.739C133.502 257.579 132.096 257.339 130.77 256.898C128.922 256.298 127.516 256.738 126.23 258.059C125.507 258.819 124.543 259.019 123.499 258.739C122.494 258.459 122.133 257.539 122.092 256.698C122.052 255.938 121.731 255.698 121.168 255.498C119.963 255.058 118.838 254.537 117.633 254.177C115.544 253.537 114.058 252.176 112.933 250.376C112.491 249.655 112.33 248.815 112.411 247.974C112.451 247.494 112.571 247.054 113.134 246.974C113.696 246.854 114.299 246.734 114.741 247.254C114.901 247.454 115.062 247.694 115.142 247.934C116.066 249.935 117.673 250.976 119.762 251.496C121.128 251.816 122.454 252.296 123.78 252.817C124.262 253.017 124.744 253.497 125.226 253.817Z" fill="#333333"/>
<path d="M188.983 125.721C189.184 126.562 189.465 127.322 189.585 128.082C189.947 130.203 190.831 129.963 192.397 129.803C193.121 129.723 193.763 129.323 194.487 129.203C195.21 129.083 195.933 129.163 196.535 129.163C197.66 127.882 198.504 126.602 199.91 125.761C200.995 125.121 202.039 124.361 202.923 123.48C203.847 122.56 204.329 121.319 204.651 120.039C204.811 119.439 204.932 118.798 205.575 118.398C206.579 117.838 207.865 118.118 207.824 119.679C207.784 122.36 206.86 124.681 204.771 126.442C203.767 127.282 202.682 128.082 201.638 128.963C200.754 129.723 200.111 130.643 199.83 131.764C199.589 132.724 198.464 133.845 197.5 133.805C196.977 133.805 196.375 133.525 195.973 133.164C195.33 132.604 194.768 132.404 193.924 132.724C192.478 133.285 190.951 133.365 189.425 132.924C188.42 132.644 187.697 132.004 187.336 131.004C186.934 129.923 186.773 128.803 186.894 127.642C187.014 126.562 187.777 125.801 188.983 125.721Z" fill="#333333"/>
<path d="M88.3866 148.891C88.6678 148.371 88.9892 147.891 89.2302 147.37C89.5115 146.69 90.0739 146.29 90.7167 146.01C91.5603 145.65 92.3638 145.17 93.2477 144.929C94.9751 144.409 96.1 143.169 97.1044 141.808C97.707 140.968 98.3899 140.528 99.4746 140.848C100.037 141.528 99.9969 142.368 99.6755 143.169C99.4746 143.689 99.1533 144.169 98.872 144.689C98.0284 146.33 96.4214 146.89 94.8546 147.491C93.8503 147.891 92.8057 148.211 92.2433 149.211C91.8817 149.852 91.6407 150.612 91.3996 151.292C91.0381 152.333 90.3551 152.773 89.2704 152.493C88.7482 152.373 88.2259 152.213 87.7438 151.972C87.0207 151.652 86.4181 151.732 85.8154 152.253C85.6146 152.413 85.3735 152.573 85.1727 152.773C83.405 154.374 81.2758 154.934 78.9457 155.014C78.7046 155.014 78.5038 155.014 78.2627 155.014C77.0173 155.014 77.0173 155.014 75.9326 153.973C76.6558 153.293 77.4994 152.893 78.5038 152.693C79.4679 152.493 80.4321 152.173 81.3159 151.732C82.1596 151.332 82.8426 150.732 83.2845 149.892C83.8871 148.731 84.9316 148.371 86.177 148.491C86.86 148.651 87.5831 148.771 88.3866 148.891Z" fill="#333333"/>
<path d="M149.732 121.679C150.575 120.559 151.901 119.999 153.187 119.278C155.436 117.998 157.807 116.877 159.735 115.037C160.458 114.356 161.262 114.196 162.186 114.836C162.346 116.197 161.663 117.318 160.779 118.278C160.056 119.038 159.172 119.679 158.248 120.239C157.043 120.999 155.798 121.639 154.552 122.28C153.588 122.76 152.865 123.36 152.423 124.401C151.941 125.641 150.615 126.401 149.129 125.441C148.004 124.721 146.839 124.321 145.473 124.361C143.063 124.401 141.134 123.32 139.447 121.679C139.206 121.439 138.965 121.159 138.804 120.879C138.443 120.239 138.121 119.559 138.563 118.838C139.005 118.158 139.728 117.918 140.813 118.078C140.893 118.878 141.094 119.639 141.817 120.119C143.022 120.919 144.228 121.599 145.754 121.599C147 121.599 148.245 121.639 149.732 121.679Z" fill="#333333"/>
<path d="M125.828 140.688C125.909 141.328 125.949 141.688 125.989 142.048C126.15 143.009 126.632 143.449 127.556 143.569C128.239 143.649 128.922 143.729 129.605 143.689C130.609 143.649 131.493 143.889 132.337 144.289C133.261 143.689 134.064 143.009 135.028 142.529C135.671 142.209 136.474 142.048 137.198 142.008C138.604 141.928 140.01 142.008 141.416 141.928C141.898 141.888 142.34 141.648 142.782 141.448C143.304 141.208 143.786 140.888 144.268 140.608C144.911 140.248 145.514 140.488 146.197 140.688C146.478 142.048 145.795 143.049 144.871 143.849C143.866 144.69 142.621 145.01 141.376 145.13C140.291 145.21 139.206 145.33 138.162 145.21C136.555 145.01 135.55 145.89 134.707 147.011C133.582 148.491 131.694 148.571 130.609 147.131C130.247 146.61 129.725 146.61 129.203 146.57C128.158 146.45 127.074 146.41 126.029 146.21C124.302 145.89 123.096 144.169 123.378 142.449C123.458 141.968 123.94 141.448 124.342 141.128C124.663 140.848 125.226 140.848 125.828 140.688Z" fill="#333333"/>
<path d="M121.609 171.421C122.051 172.221 122.453 172.982 122.854 173.742C123.497 174.982 124.22 175.343 125.667 175.103C126.35 175.022 127.033 175.062 127.715 174.982C127.916 174.982 128.157 174.862 128.318 174.742C128.72 174.422 129.081 174.102 129.443 173.742C130.729 172.381 132.295 171.461 134.023 170.781C135.469 170.18 136.915 169.58 138.362 168.98C138.603 168.86 138.844 168.78 139.125 168.74C139.808 168.66 140.129 168.9 140.169 169.58C140.21 170.3 140.049 170.941 139.486 171.461C138.643 172.221 137.719 172.862 136.634 173.142C134.585 173.662 132.898 174.702 131.492 176.223C131.251 176.463 131.05 176.903 131.09 177.223C131.17 178.304 130.648 178.944 129.724 179.344C128.84 179.745 128.157 179.384 127.595 178.784C127.073 178.184 126.43 178.384 125.787 178.424C123.859 178.504 122.131 177.944 120.886 176.423C120.082 175.463 119.721 174.302 119.64 173.022C119.56 172.141 120.203 171.621 121.609 171.421Z" fill="#333333"/>
<path d="M166.523 221.883C167.005 221.683 167.407 221.523 167.809 221.323C168.733 220.803 169.737 220.683 170.822 220.723C171.826 220.763 172.79 220.763 173.795 220.723C174.88 220.683 175.924 220.482 176.848 219.882C177.41 219.522 178.053 219.242 178.696 219.002C179.259 218.762 179.781 219.042 180.142 219.442C180.544 219.882 180.464 220.442 180.102 220.803C179.419 221.523 178.736 222.323 177.893 222.723C176.888 223.244 175.723 223.524 174.638 223.644C173.353 223.804 172.027 223.764 170.742 223.764C170.099 223.764 169.577 223.964 169.135 224.484C167.97 225.885 166.001 226.005 164.675 224.804C164.113 224.284 163.55 224.124 162.787 224.124C160.537 224.164 158.689 223.324 157.163 221.723C156.681 221.203 156.56 220.402 156.801 219.962C157.123 219.442 157.886 219.242 158.649 219.482C159.131 219.642 159.573 219.882 160.015 220.122C160.819 220.522 161.622 220.883 162.626 220.803C164.033 220.723 165.358 221.003 166.523 221.883Z" fill="#333333"/>
<path d="M164.275 152.613C164.998 151.133 166.364 150.092 167.73 149.012C168.895 148.131 169.899 147.091 170.502 145.69C170.743 145.09 171.546 144.81 172.27 144.97C172.993 145.13 173.314 145.45 173.314 146.25C173.354 147.371 173.073 148.371 172.27 149.212C171.466 150.052 170.663 150.852 169.779 151.573C168.453 152.653 167.409 153.854 166.967 155.614C166.485 157.375 164.637 157.936 163.11 156.935C162.949 156.815 162.748 156.735 162.708 156.575C162.387 155.534 161.543 155.534 160.699 155.414C159.695 155.294 158.651 155.134 157.646 154.894C156.401 154.574 155.477 153.814 154.714 152.813C154.593 152.653 154.513 152.493 154.432 152.333C154.071 151.613 154.071 150.972 154.432 150.652C154.874 150.252 155.919 150.252 156.481 150.652C156.963 151.012 157.405 151.453 157.927 151.773C158.972 152.413 160.137 152.333 161.262 152.373C162.186 152.373 163.11 152.493 164.275 152.613Z" fill="#333333"/>
<path d="M134.305 297.395C134.024 297.355 133.783 297.315 133.501 297.275C131.854 297.075 130.609 297.716 129.725 299.116C128.962 300.357 127.435 300.517 126.471 299.356C126.109 298.956 125.788 298.836 125.306 298.796C124.502 298.756 123.699 298.676 122.936 298.556C120.806 298.236 119.32 297.035 118.235 295.275C118.115 295.074 117.954 294.794 117.954 294.554C117.874 293.834 118.436 293.394 119.119 293.634C119.601 293.794 120.043 294.034 120.445 294.314C122.132 295.435 123.98 295.595 125.949 295.355C126.391 295.315 126.873 295.315 127.274 295.475C127.797 295.715 128.158 295.555 128.52 295.235C129.645 294.234 130.97 293.834 132.417 294.074C134.425 294.394 136.394 293.994 138.322 293.674C139.286 293.514 140.251 293.914 140.612 294.754C140.692 294.994 140.692 295.395 140.532 295.555C140.17 295.915 139.768 296.395 139.286 296.515C137.679 296.915 135.992 297.235 134.385 297.556C134.345 297.475 134.305 297.435 134.305 297.395Z" fill="#333333"/>
<path d="M174.921 191.19C175.202 189.669 175.443 189.469 176.809 189.189C177.291 189.109 177.813 188.989 178.255 188.829C178.617 188.669 179.099 188.428 179.22 188.108C179.822 186.628 181.108 186.268 182.474 186.187C183.357 186.107 183.719 185.787 183.92 185.027C184 184.707 184.121 184.387 184.241 184.067C184.723 182.626 185.888 181.906 187.214 181.385C188.058 181.065 188.66 180.545 189.183 179.865C189.504 179.465 189.825 179.024 190.227 178.624C190.508 178.344 190.87 178.104 191.232 177.904C191.674 177.664 192.156 177.464 192.638 177.864C193.08 178.264 193.039 178.824 192.879 179.264C192.638 179.945 192.236 180.545 191.874 181.185C191.151 182.466 190.147 183.466 188.781 184.147C187.335 184.867 186.893 186.268 186.933 187.828C186.973 189.229 186.732 189.589 185.527 190.109C184.964 190.349 184.482 190.349 183.92 189.989C182.795 189.309 182.674 189.349 181.63 190.229C180.465 191.23 179.179 191.87 177.613 191.99C176.528 192.11 175.644 191.91 174.921 191.19Z" fill="#333333"/>
<path d="M144.508 80.6619C144.388 79.1813 144.99 78.1008 146.115 77.3005C147.2 76.5001 148.245 75.6998 149.329 74.8994C149.49 74.7794 149.731 74.6193 149.932 74.5793C150.374 74.5393 150.534 74.2992 150.615 73.939C151.097 72.0582 152.141 70.5775 153.668 69.377C154.954 68.3766 155.596 66.8559 156.119 65.3353C156.32 64.815 156.4 64.2148 156.641 63.6946C156.802 63.3344 157.043 62.9342 157.364 62.6941C158.087 62.1339 159.011 62.494 159.172 63.3744C159.533 65.3353 159.051 67.1761 158.007 68.8168C157.284 69.9373 156.44 70.9777 155.596 72.0182C154.753 73.0586 154.351 74.2591 154.271 75.5797C154.23 76.18 154.03 76.7802 153.789 77.3005C153.507 77.8607 152.905 78.1808 152.342 77.9807C150.173 77.1404 148.807 78.541 147.321 79.6615C146.838 80.0216 146.316 80.3818 145.834 80.6619C145.473 80.982 145.031 80.942 144.508 80.6619Z" fill="#333333"/>
<path d="M149.41 196.792C149.732 196.032 149.932 195.352 150.254 194.711C150.696 193.871 151.218 193.111 151.941 192.43C153.026 191.39 153.95 190.109 154.954 188.989C155.316 188.549 155.718 188.108 156.2 187.788C156.521 187.548 156.963 187.428 157.365 187.428C158.168 187.428 158.289 187.628 158.329 188.469C158.369 189.269 158.088 189.869 157.606 190.469C156.32 192.07 155.035 193.711 153.789 195.312C153.307 195.952 152.986 196.632 152.946 197.512C152.905 198.273 152.704 199.033 152.423 199.713C152.022 200.714 151.057 201.154 150.053 200.674C149.129 200.234 148.526 200.554 147.924 201.154C147.442 201.634 146.919 202.074 146.397 202.555C145.473 203.475 144.388 203.555 143.223 203.075C142.46 202.755 142.139 202.315 142.219 201.594C142.299 200.994 142.741 200.554 143.264 200.514C144.549 200.394 145.272 199.433 145.995 198.593C146.919 197.593 147.843 196.752 149.41 196.792Z" fill="#333333"/>
<path d="M97.667 219.722C98.1491 218.802 98.9124 218.481 99.7962 218.481C101.283 218.521 102.488 218.001 103.332 216.721C103.854 215.92 104.657 215.6 105.541 215.44C106.224 215.32 106.545 215.04 106.586 214.32C106.706 213.159 107.389 212.279 108.072 211.438C109.237 209.998 110.282 208.517 111.407 207.077C111.768 206.596 112.17 206.116 112.652 205.756C112.933 205.556 113.455 205.556 113.817 205.636C114.299 205.756 114.138 206.196 114.138 206.596C114.138 207.957 113.496 209.077 112.813 210.198C112.089 211.398 111.206 212.519 110.402 213.679C109.96 214.28 109.8 214.8 110.081 215.56C110.483 216.761 109.559 217.481 108.835 218.201C108.474 218.561 107.992 218.802 107.349 218.642C106.385 218.401 105.581 218.762 104.858 219.482C103.733 220.602 102.448 221.403 100.801 221.283C99.9971 221.243 99.2338 221.083 98.4303 220.923C97.8679 220.802 97.8277 220.202 97.667 219.722Z" fill="#333333"/>
<path d="M165.238 300.237C165.519 299.877 165.72 299.557 165.961 299.236C166.604 298.356 167.568 297.916 168.572 297.716C169.978 297.436 171.425 297.196 172.871 296.955C173.032 296.915 173.192 296.835 173.313 296.875C173.795 297.116 174.357 297.276 174.598 297.676C174.759 297.916 174.478 298.596 174.237 298.876C173.795 299.316 173.232 299.717 172.67 299.957C171.907 300.277 171.103 300.597 170.26 300.677C169.094 300.837 168.492 301.557 167.889 302.438C167.608 302.838 167.327 303.238 166.965 303.558C166.041 304.359 164.916 304.319 163.992 303.478C163.43 302.958 162.868 302.678 162.064 302.758C159.573 302.958 157.042 301.197 156.962 297.796C156.962 297.036 157.524 296.355 158.247 296.275C158.489 296.235 158.81 296.435 158.971 296.635C159.332 297.156 159.613 297.756 159.935 298.316C160.578 299.517 160.738 299.637 161.984 299.397C163.068 299.236 164.073 299.357 165.238 300.237Z" fill="#333333"/>
<path d="M190.428 63.3344C190.629 62.7741 190.83 62.1338 191.111 61.5336C192.316 58.9725 194.325 57.1717 196.816 55.9312C197.7 55.491 198.664 55.8911 199.588 55.9312C199.668 56.9316 199.146 57.4518 198.503 57.932C197.137 58.8924 195.892 59.9329 194.968 61.3335C194.285 62.3339 193.722 63.3744 193.843 64.6149C193.923 65.2552 193.642 65.7354 193.16 66.0956C192.597 66.4957 192.035 66.8559 191.432 67.176C190.709 67.5762 189.986 67.3761 189.464 66.7759C188.901 66.1356 188.259 65.8955 187.455 65.9355C186.611 65.9755 185.768 65.8955 184.924 65.9755C183.719 66.0555 182.755 65.6154 181.911 64.895C182.072 63.9346 182.393 63.6145 183.277 63.4944C184.643 63.3344 186.009 63.1343 187.375 63.0542C188.339 63.0542 189.303 63.2143 190.428 63.3344Z" fill="#333333"/>
<path d="M106.786 109.955C106.826 108.874 107.268 108.114 108.112 107.434C109.839 106.073 111.808 105.353 113.977 105.073C114.941 104.952 114.941 104.952 115.223 103.952C115.946 101.391 117.472 99.31 119.32 97.4292C119.441 97.3092 119.602 97.1491 119.762 97.1091C120.164 96.989 120.767 96.7089 120.887 96.869C121.168 97.1891 121.369 97.7494 121.329 98.1895C121.249 98.7898 120.968 99.35 120.727 99.9103C120.204 101.111 119.602 102.231 119.079 103.432C118.758 104.112 118.597 104.792 118.999 105.513C119.28 106.033 119.12 106.553 118.758 107.033C118.597 107.233 118.437 107.434 118.236 107.674C117.513 108.554 116.789 108.834 115.745 108.514C113.736 107.874 111.808 108.194 109.96 109.074C109.357 109.354 108.795 109.675 108.232 109.955C107.75 110.075 107.308 110.235 106.786 109.955Z" fill="#333333"/>
<path d="M186.168 242.092C187.293 242.132 187.333 242.132 187.655 241.291C188.699 238.77 190.949 238.17 193.4 238.49C193.52 238.49 193.601 238.57 193.721 238.61C195.047 238.93 194.966 239.05 194.966 240.011C194.966 240.691 194.243 241.331 193.4 241.412C193.279 241.412 193.159 241.412 193.038 241.412C191.351 241.492 190.788 242.012 190.869 243.652C190.949 244.893 190.186 245.533 189.342 246.134C188.739 246.534 188.057 246.574 187.374 246.294C187.052 246.174 186.731 246.054 186.45 245.853C185.887 245.453 185.405 245.573 184.883 245.974C184.24 246.494 183.557 246.974 182.673 247.094C181.95 247.174 181.588 247.094 181.307 246.574C181.066 246.054 181.187 245.613 181.588 245.213C182.432 244.373 183.236 243.532 184.119 242.732C184.762 242.132 185.526 242.092 186.168 242.092Z" fill="#333333"/>
<path d="M183.036 106.873C183.96 106.113 184.844 105.393 185.688 104.592C186.29 104.072 186.973 103.952 187.697 103.912C188.38 103.912 188.701 104.272 188.54 104.912C188.46 105.232 188.299 105.553 188.098 105.833C187.697 106.393 187.255 106.913 186.773 107.393C186.049 108.154 185.487 108.954 185.246 110.035C185.005 111.195 182.916 112.316 181.751 112.115C181.188 111.995 181.108 111.515 180.867 111.115C180.746 110.915 180.626 110.595 180.666 110.355C180.706 108.954 179.662 108.354 178.657 107.834C178.055 107.513 177.332 107.473 176.649 107.313C176.408 107.273 176.167 107.313 175.966 107.233C175.564 107.113 175.002 106.993 175.122 106.473C175.202 106.033 175.283 105.513 175.885 105.312C178.256 104.552 180.425 104.872 182.434 106.313C182.635 106.513 182.835 106.713 183.036 106.873Z" fill="#333333"/>
<path d="M161.503 91.6265C161.463 92.4268 161.061 92.867 160.579 93.2272C159.414 94.1476 158.169 94.9879 157.365 96.3085C156.803 97.2289 156.28 98.1493 156.441 99.3098C156.521 99.9501 156.2 100.43 155.638 100.67C155.236 100.871 154.794 100.991 154.352 101.111C153.468 101.391 152.745 101.071 152.303 100.27C151.66 99.1898 150.696 98.8296 149.491 98.8696C148.647 98.9097 147.844 98.8696 146.96 98.8696C147.281 97.5891 148.004 96.8287 149.25 96.6287C150.294 96.4286 151.299 96.4686 152.303 96.8688C152.625 96.9888 152.946 97.1089 153.267 97.2689C153.749 96.4686 154.191 95.7083 154.673 94.988C155.316 93.9875 156.12 93.1472 157.084 92.3868C158.369 91.2663 159.856 91.2263 161.503 91.6265Z" fill="#333333"/>
<path d="M161.663 262.34C162.266 262.501 162.908 262.581 163.511 262.821C164.073 263.021 164.475 263.021 164.997 262.701C166.203 261.98 167.569 261.5 168.975 261.34C169.376 261.3 169.818 261.34 170.22 261.5C171.104 261.86 171.265 262.781 170.662 263.541C169.939 264.421 168.854 264.621 167.93 265.182C167.488 265.462 166.966 265.662 166.564 265.982C165.52 266.822 164.355 266.983 163.109 266.782C162.788 266.742 162.386 266.622 162.185 266.382C161.743 265.902 161.261 265.822 160.659 265.782C159.855 265.742 159.052 265.582 158.288 265.342C157.445 265.062 157.123 264.581 157.163 263.981C157.204 263.461 157.846 262.901 158.57 262.821C159.574 262.701 160.618 262.581 161.623 262.501C161.663 262.421 161.663 262.38 161.663 262.34Z" fill="#333333"/>
<path d="M10.6864 191.195C12.5886 190.702 14.5261 190.562 16.4635 191.019C17.2033 191.195 17.943 191.441 18.6828 191.652C19.8453 191.969 21.0077 191.793 22.1702 191.406C22.7691 191.23 23.4031 191.019 24.002 190.878C24.3543 190.808 24.7417 190.773 25.094 190.808C25.6224 190.843 26.0099 191.125 26.2213 191.652C26.4326 192.18 26.1156 192.497 25.7985 192.813C25.5872 193.024 25.3406 193.236 25.094 193.341C23.227 194.221 21.2543 194.889 19.176 194.643C17.943 194.502 16.7101 194.291 15.5476 193.904C13.9272 193.376 12.6943 193.763 11.567 194.924C10.9329 195.593 10.0875 195.769 9.17162 195.522C8.29096 195.276 7.97392 194.467 7.93869 193.728C7.90346 193.06 7.62165 192.849 7.12848 192.673C6.07168 192.286 5.08534 191.828 4.02854 191.512C2.19676 190.949 0.893383 189.752 -0.0929599 188.169C-0.480452 187.536 -0.621359 186.797 -0.550906 186.058C-0.515679 185.636 -0.409999 185.249 0.0831728 185.179C0.576344 185.073 1.10474 184.968 1.49223 185.425C1.63314 185.601 1.77405 185.812 1.8445 186.023C2.65471 187.782 4.06377 188.697 5.89555 189.154C7.09325 189.436 8.25573 189.858 9.4182 190.315C9.84092 190.491 10.2636 190.913 10.6864 191.195Z" fill="#333333"/>
<path d="M83.6403 200.624C83.7108 199.885 83.6403 199.181 83.8165 198.548C84.2392 197.07 85.1198 195.874 86.4232 194.994C87.4448 194.291 88.4311 193.517 89.2766 192.637C89.8402 192.039 90.0868 191.195 90.439 190.456C90.58 190.174 90.6152 189.823 90.7209 189.506C91.0379 188.521 92.1299 188.31 92.7992 189.084C93.2572 189.611 93.3276 190.245 93.2572 190.878C93.1163 192.321 92.5879 193.622 91.4958 194.607C90.3686 195.663 89.1709 196.648 88.0436 197.668C87.3039 198.337 86.8812 199.216 86.8812 200.237C86.8812 200.518 86.9164 200.764 86.9516 201.046C87.0573 202.242 86.6698 202.875 85.5073 203.227C85.296 203.298 85.0494 203.333 84.8028 203.368C84.2744 203.474 83.8517 203.72 83.5699 204.248C82.2313 206.57 80.1529 208.083 77.7575 209.208C76.9473 209.595 76.2075 209.349 75.4678 208.962C75.503 208.681 75.5382 208.47 75.503 208.223C75.4325 207.766 75.6791 207.555 76.0314 207.344C76.8064 206.816 77.5461 206.253 78.3211 205.725C79.3427 205.022 79.9415 204.036 80.4699 202.981C80.7165 202.524 80.9631 202.031 81.3154 201.609C81.4915 201.363 81.8438 201.222 82.1608 201.081C82.6892 200.905 83.1824 200.764 83.6403 200.624Z" fill="#333333"/>
<path d="M66.5897 78.5738C66.7659 79.3127 67.0125 79.9812 67.1181 80.6496C67.4352 82.5143 68.2102 82.3032 69.584 82.1625C70.2181 82.0921 70.7817 81.7403 71.4158 81.6348C72.0498 81.5292 72.6839 81.5996 73.2123 81.5996C74.1987 80.4737 74.9384 79.3479 76.1713 78.609C77.1225 78.0461 78.0384 77.3776 78.8133 76.6036C79.6235 75.7944 80.0463 74.7037 80.3281 73.5778C80.469 73.0501 80.5747 72.4872 81.1383 72.1353C82.019 71.6428 83.1462 71.8891 83.111 73.2612C83.0758 75.6185 82.2655 77.6591 80.4338 79.2071C79.5531 79.946 78.602 80.6496 77.6861 81.4237C76.9111 82.0921 76.3475 82.9014 76.1009 83.8865C75.8895 84.7309 74.9032 85.716 74.0578 85.6808C73.5998 85.6808 73.0714 85.4345 72.7192 85.1179C72.1555 84.6253 71.6624 84.4494 70.9226 84.7309C69.6544 85.2234 68.3158 85.2938 66.9772 84.9068C66.0966 84.6605 65.4625 84.0976 65.1454 83.218C64.7932 82.2681 64.6523 81.2829 64.758 80.2626C64.8636 79.3127 65.5329 78.6442 66.5897 78.5738Z" fill="#333333"/>
<path d="M109.426 80.4737C111.927 78.996 114.71 79.0663 117.528 79.6996C118.514 79.9107 119.395 79.7348 120.24 79.2423C120.804 78.8904 121.403 78.5386 122.002 78.2923C122.53 78.0812 123.164 77.9053 123.587 78.4682C124.01 78.996 123.693 79.5941 123.34 80.0515C122.284 81.4236 120.839 82.268 119.148 82.6902C118.197 82.9365 117.246 82.7957 116.26 82.6198C115.203 82.4087 114.111 82.3384 113.054 82.3735C112.068 82.3735 111.222 82.7957 110.624 83.7105C110.271 84.2382 109.708 84.7308 109.144 85.0123C107.982 85.5752 107.136 85.2585 106.643 84.0271C106.326 83.1827 105.762 82.8661 104.952 82.6902C103.296 82.3735 102.31 81.2125 102.099 79.5237C102.028 78.7849 101.923 78.046 102.31 77.3776C102.486 77.0961 102.521 76.6739 102.768 76.5332C103.191 76.2869 103.684 76.1461 104.177 76.0758C104.353 76.0406 104.635 76.2869 104.811 76.4628C105.199 76.885 105.128 77.4479 105.163 77.9757C105.163 78.8552 105.516 79.2423 106.361 79.4885C107.312 79.6996 108.263 80.0515 109.426 80.4737Z" fill="#333333"/>
<path d="M115.731 39.3446C115.626 40.7168 115.344 41.8426 114.569 42.7926C113.301 44.3054 111.962 45.748 110.342 46.909C109.813 47.296 109.144 47.7182 109.003 48.4922C108.933 48.8792 108.862 49.2663 108.933 49.6533C109.109 50.9199 107.841 52.5031 106.608 52.292C104.987 52.0457 103.578 52.6086 102.134 53.2068C100.373 53.9456 98.6818 53.84 97.0966 52.7142C96.3568 52.1864 96.2159 51.3772 96.1807 50.568C96.1807 50.0755 96.8852 49.6181 97.3784 49.794C97.7306 49.8996 98.0477 50.0755 98.3647 50.2866C99.2101 50.8847 100.056 50.8495 100.936 50.4977C101.782 50.1458 102.557 49.7236 103.402 49.3718C103.578 49.3014 103.79 49.1607 103.966 49.1607C105.199 49.1607 105.762 48.3163 106.115 47.3312C106.432 46.4516 107.066 45.7831 107.735 45.185C108.616 44.411 109.496 43.637 110.412 42.8981C111.645 41.8778 112.561 40.6816 112.843 39.0984C112.948 38.5354 113.301 38.1484 113.794 37.867C114.534 37.5151 115.097 37.691 115.45 38.4299C115.59 38.7817 115.661 39.1335 115.731 39.3446Z" fill="#333333"/>
<path d="M113.51 279.117C112.559 278.941 111.749 278.765 110.974 278.624C110.375 278.519 109.776 278.378 109.177 278.308C108.402 278.202 107.733 278.413 107.205 279.046C106.993 279.293 106.712 279.504 106.5 279.785C105.972 280.454 105.303 280.63 104.492 280.7C103.682 280.735 103.189 280.383 102.872 279.785C102.52 279.152 101.991 278.765 101.357 278.378C100.159 277.674 98.7856 277.111 97.9754 275.915C97.5175 275.247 97.0595 274.508 96.7777 273.734C96.4254 272.714 97.0947 271.658 98.0811 271.412C98.4686 271.306 98.7152 271.412 98.8913 271.764C99.1379 272.291 99.4197 272.784 99.6663 273.276C99.9481 273.91 100.406 274.367 101.04 274.684C102.273 275.247 103.506 275.774 104.704 276.337C105.056 276.513 105.338 276.443 105.62 276.232C107.522 274.789 109.6 274.965 111.608 275.739C112.947 276.232 114.18 276.161 115.448 275.739C116.223 275.493 117.033 275.352 117.843 275.493C118.266 275.563 118.83 275.563 118.865 276.232C118.9 276.76 118.618 277.217 118.019 277.463C117.209 277.815 116.399 278.237 115.553 278.554C114.884 278.8 114.144 278.941 113.51 279.117Z" fill="#333333"/>
<path d="M87.3732 112.279C87.3732 111.048 88.0425 110.626 89.0993 111.153C89.4163 111.329 89.7334 111.54 89.9799 111.787C90.5436 112.314 91.1424 112.385 91.847 112.033C92.4106 111.751 93.0094 111.505 93.6083 111.259C94.2071 110.977 94.7708 110.731 95.4401 110.801C95.8276 110.837 96.1094 110.626 96.356 110.309C97.9059 108.409 99.9843 107.6 102.344 107.389C103.683 107.283 105.022 107.178 106.255 106.579C106.748 106.333 107.241 106.122 107.664 105.805C108.122 105.418 108.65 105.348 109.178 105.313C110.094 105.278 110.552 105.876 110.2 106.755C109.918 107.565 109.249 108.057 108.58 108.515C107.241 109.394 105.726 109.816 104.141 110.027C103.225 110.133 102.309 110.414 101.393 110.555C100.266 110.731 99.7025 111.54 99.2093 112.42C98.6457 113.475 97.765 114.073 96.6378 114.39C96.2855 114.496 95.7923 114.531 95.4753 114.355C94.806 113.968 94.2071 114.144 93.5731 114.425C92.939 114.672 92.3401 114.988 91.706 115.199C90.3674 115.657 89.0288 115.199 88.1482 114.073C87.7254 113.511 87.2323 112.983 87.3732 112.279Z" fill="#333333"/>
<path d="M105.304 21.5421C105.903 20.768 106.431 19.9588 107.03 19.2552C107.382 18.833 107.875 18.5163 108.298 18.1645C109.425 17.2145 110.905 16.6868 111.574 15.2795C111.821 14.7517 112.067 14.1888 112.243 13.6259C112.419 13.0629 112.56 12.5352 113.124 12.2186C114.075 11.6908 115.132 12.1482 115.167 13.274C115.202 14.0481 115.097 14.9276 114.78 15.6313C114.146 17.2145 113.054 18.446 111.644 19.4663C110.341 20.381 109.143 21.4365 108.615 23.0901C108.263 24.2863 106.818 25.2011 105.55 25.1307C105.304 25.1307 105.057 24.9548 104.811 24.8844C103.93 24.7085 103.049 24.4622 102.169 24.3567C99.1391 24.0752 97.4834 22.1402 97.6948 19.2903C97.73 18.7626 98.0471 18.446 98.5402 18.27C98.9277 18.1645 99.28 18.1645 99.5266 18.5515C99.8436 19.0441 100.231 19.4663 100.442 19.994C100.9 21.0143 101.675 21.4013 102.767 21.4365C103.613 21.4013 104.423 21.4717 105.304 21.5421Z" fill="#333333"/>
<path d="M32.1725 75.0201C32.9122 74.035 34.0747 73.5424 35.202 72.9091C37.1747 71.7833 39.253 70.7982 40.9439 69.1797C41.578 68.5816 42.2825 68.4409 43.0927 69.0038C43.2336 70.2001 42.6348 71.1852 41.8598 72.0296C41.2257 72.698 40.4507 73.261 39.6405 73.7535C38.5837 74.422 37.4917 74.9849 36.3997 75.5479C35.5542 75.9701 34.9202 76.4978 34.5327 77.4126C34.1099 78.5032 32.9475 79.1717 31.6441 78.3273C30.6577 77.694 29.6362 77.3422 28.4385 77.3774C26.3249 77.4126 24.634 76.4626 23.1545 75.0201C22.9431 74.809 22.7318 74.5627 22.5909 74.3165C22.2738 73.7535 21.992 73.1554 22.3795 72.5221C22.767 71.924 23.4011 71.7129 24.3522 71.8537C24.4226 72.5573 24.5988 73.2258 25.2329 73.648C26.2897 74.3516 27.3464 74.9498 28.6851 74.9498C29.7771 74.9498 30.8691 74.9849 32.1725 75.0201Z" fill="#333333"/>
<path d="M79.8336 254.946C80.8904 253.926 82.1585 253.187 83.6381 252.729C84.4835 252.448 85.3289 252.061 86.1391 251.674C86.9494 251.322 87.6539 250.759 88.147 250.02C88.7107 249.176 89.3448 249.211 90.155 249.457C90.6129 250.935 90.472 252.272 89.2743 253.327C88.6402 253.855 87.8652 254.277 87.1255 254.629C86.1391 255.122 85.0823 255.474 84.096 255.931C83.3562 256.283 82.7222 256.811 82.2995 257.585C82.0176 258.112 81.5245 258.605 80.9961 258.921C80.2915 259.344 79.5518 259.168 78.9882 258.605C78.1427 257.796 77.0507 257.444 75.9587 257.162C75.3246 257.022 74.7257 256.811 74.1269 256.635C72.9292 256.283 72.2247 255.403 71.6258 254.418C71.3792 253.996 71.661 252.94 72.0485 252.694C72.4008 252.483 72.6474 252.659 72.9292 252.87C74.1973 253.961 75.7473 254.418 77.3325 254.629C78.1427 254.805 78.9529 254.84 79.8336 254.946Z" fill="#333333"/>
<path d="M94.2783 137.365C94.6306 136.661 95.0181 136.168 95.7931 135.957C96.9555 135.641 97.6601 134.867 98.0123 133.706C98.2941 132.791 98.8225 132.122 99.7032 131.7C99.985 131.559 100.302 131.243 100.408 130.926C100.936 129.202 102.063 128.076 103.684 127.337C104.071 127.161 104.424 126.88 104.776 126.634C105.868 125.86 106.608 124.875 106.96 123.608C107.066 123.221 107.242 122.869 107.488 122.553C107.841 122.06 108.439 121.919 108.933 122.095C109.32 122.236 109.813 122.904 109.778 123.362C109.637 125.191 109.285 126.88 107.664 128.041C106.749 128.71 105.833 129.413 104.917 130.117C104.212 130.645 103.754 131.383 103.754 132.228C103.789 133.459 102.979 134.304 101.57 134.726C101.253 134.831 100.971 135.078 100.725 135.324C100.478 135.57 100.337 135.852 100.126 136.133C98.9987 137.611 97.343 138.033 95.6169 138.209C94.9476 138.279 94.6658 137.752 94.2783 137.365Z" fill="#333333"/>
<path d="M10.9308 265.958C11.0717 266.204 11.1774 266.416 11.3183 266.591C12.4103 268.351 13.9603 269.582 15.8978 270.321C16.0387 270.356 16.1443 270.426 16.25 270.497C16.9193 270.884 17.5534 271.13 18.2227 270.391C18.4693 270.11 18.9977 270.039 19.4204 269.969C21.4283 269.688 23.401 269.406 25.4089 269.195C26.1487 269.089 26.8884 269.125 27.4521 269.688C27.9805 270.215 27.9452 270.532 27.4521 271.095C26.8884 271.763 26.1487 272.01 25.3385 272.15C23.9646 272.397 22.5556 272.608 21.1465 272.819C20.2658 272.96 19.5965 273.347 19.1738 274.191C18.8568 274.789 18.3988 275.176 17.7295 275.317C16.4966 275.563 15.2989 275.176 14.9114 273.874C14.7 273.206 14.2421 272.819 13.608 272.573C11.8115 271.869 10.7195 270.462 9.90924 268.773C9.76834 268.456 9.69788 268.069 9.62743 267.717C9.55698 266.908 10.1911 266.556 10.9308 265.958Z" fill="#333333"/>
<path d="M11.2129 91.7322C11.2833 92.2951 11.3186 92.6117 11.3538 92.9284C11.4947 93.7728 11.9174 94.1598 12.7276 94.2654C13.3265 94.3357 13.9253 94.4061 14.5242 94.3709C15.4048 94.3357 16.1798 94.5468 16.9196 94.8986C17.7298 94.3709 18.4343 93.7728 19.2798 93.3506C19.8434 93.0691 20.5479 92.9284 21.182 92.8932C22.4149 92.8228 23.6478 92.8932 24.8808 92.8228C25.3035 92.7877 25.691 92.5766 26.0785 92.4006C26.5364 92.1896 26.9591 91.9081 27.3819 91.6618C27.9455 91.3452 28.4739 91.5563 29.0727 91.7322C29.3193 92.9284 28.7205 93.808 27.9103 94.5116C27.0296 95.2505 25.9376 95.5319 24.8455 95.6375C23.8944 95.7079 22.9433 95.8134 22.0274 95.7079C20.6184 95.5319 19.7377 96.306 18.9979 97.2911C18.0116 98.5929 16.356 98.6632 15.4048 97.3966C15.0878 96.9393 14.6299 96.9393 14.1719 96.9041C13.256 96.7985 12.3049 96.7633 11.389 96.5874C9.87427 96.306 8.81747 94.7931 9.06406 93.2802C9.13451 92.858 9.55723 92.4006 9.9095 92.1192C10.1913 91.8729 10.6845 91.8729 11.2129 91.7322Z" fill="#333333"/>
<path d="M7.51419 118.752C7.90168 119.456 8.25395 120.125 8.60621 120.793C9.16984 121.884 9.80392 122.2 11.0721 121.989C11.6709 121.919 12.2698 121.954 12.8686 121.884C13.0448 121.884 13.2561 121.778 13.397 121.673C13.7493 121.391 14.0663 121.11 14.3834 120.793C15.5106 119.597 16.8844 118.788 18.3992 118.19C19.6673 117.662 20.9355 117.134 22.2037 116.606C22.415 116.501 22.6264 116.43 22.873 116.395C23.4718 116.325 23.7536 116.536 23.7889 117.134C23.8241 117.767 23.6832 118.33 23.19 118.788C22.4502 119.456 21.64 120.019 20.6889 120.265C18.8924 120.723 17.4128 121.637 16.1799 122.974C15.9686 123.186 15.7924 123.573 15.8277 123.854C15.8981 124.804 15.4402 125.367 14.63 125.719C13.855 126.071 13.2561 125.754 12.7629 125.226C12.305 124.698 11.7414 124.874 11.1778 124.909C9.48688 124.98 7.97214 124.487 6.88012 123.15C6.17559 122.306 5.85854 121.286 5.78809 120.16C5.71764 119.386 6.28126 118.928 7.51419 118.752Z" fill="#333333"/>
<path d="M96.0727 305.891C95.9318 306.208 95.7909 306.806 95.4739 307.298C95.0511 307.967 94.4875 308.565 93.9239 309.163C93.4307 309.691 92.8319 310.007 92.0921 310.183C91.3171 310.359 90.5421 310.606 89.7672 310.817C88.9922 311.028 88.5695 311.556 88.4638 312.294C88.4638 312.365 88.4638 312.435 88.4286 312.505C88.2877 314.159 87.1252 314.652 85.8218 314.124C85.223 313.878 84.6945 313.878 84.0957 314.124C82.7571 314.687 81.4537 314.405 80.2208 313.737C79.7276 313.455 79.2344 313.139 78.8117 312.752C78.1072 312.118 78.0367 311.204 78.6004 310.5C79.1288 309.832 79.7628 309.832 80.3265 310.43C80.7844 310.887 81.2424 311.309 81.9117 311.415C82.4401 311.485 82.9332 311.485 83.4264 311.168C83.8843 310.887 84.4832 310.746 85.0116 310.676C85.4343 310.641 85.6809 310.465 85.8922 310.148C86.1036 309.832 86.315 309.55 86.5263 309.233C87.09 308.459 88.0058 308.248 88.8513 307.932C89.3092 307.756 89.8024 307.65 90.2956 307.545C91.2115 307.369 91.9864 306.947 92.6205 306.278C92.9376 305.961 93.2546 305.68 93.5364 305.363C94.0296 304.836 94.558 304.589 95.2977 304.765C96.0375 304.906 96.1432 304.941 96.0727 305.891Z" fill="#333333"/>
<path d="M46.8971 163.118C47.3198 162.943 47.6721 162.802 48.0243 162.626C48.8346 162.169 49.7152 162.063 50.6663 162.098C51.547 162.133 52.3924 162.133 53.2731 162.098C54.2242 162.063 55.1401 161.887 55.9503 161.359C56.4435 161.043 57.0071 160.796 57.5707 160.585C58.0639 160.374 58.5219 160.62 58.8389 160.972C59.1912 161.359 59.1207 161.852 58.8037 162.169C58.2048 162.802 57.606 163.505 56.8662 163.857C55.9855 164.315 54.964 164.561 54.0129 164.667C52.8856 164.807 51.7231 164.772 50.5959 164.772C50.0323 164.772 49.5743 164.948 49.1868 165.405C48.1653 166.637 46.4392 166.742 45.2767 165.687C44.7835 165.229 44.2903 165.089 43.621 165.089C41.6483 165.124 40.0279 164.385 38.6893 162.978C38.2666 162.52 38.1609 161.817 38.3723 161.43C38.6541 160.972 39.3234 160.796 39.9927 161.008C40.4154 161.148 40.8029 161.359 41.1904 161.57C41.8949 161.922 42.5995 162.239 43.4801 162.169C44.7131 162.098 45.8755 162.344 46.8971 163.118Z" fill="#333333"/>
<path d="M44.9249 102.217C45.559 100.915 46.7567 100.001 47.9544 99.0507C48.976 98.2766 49.8566 97.3619 50.385 96.1305C50.5964 95.6027 51.3009 95.3564 51.935 95.4972C52.5691 95.6379 52.8509 95.9194 52.8509 96.623C52.8861 97.6082 52.6395 98.4877 51.935 99.2266C51.2305 99.9654 50.5259 100.669 49.7509 101.302C48.5885 102.252 47.6726 103.308 47.2851 104.856C46.8624 106.404 45.242 106.896 43.9033 106.017C43.7624 105.911 43.5863 105.841 43.5511 105.7C43.2693 104.785 42.5295 104.785 41.7898 104.68C40.9091 104.574 39.9932 104.434 39.1125 104.223C38.0205 103.941 37.2103 103.273 36.541 102.393C36.4353 102.252 36.3649 102.112 36.2944 101.971C35.9774 101.338 35.9774 100.775 36.2944 100.493C36.6819 100.141 37.5978 100.141 38.091 100.493C38.5137 100.81 38.9012 101.197 39.3591 101.478C40.275 102.041 41.2966 101.971 42.2829 102.006C43.0931 102.006 43.9034 102.112 44.9249 102.217Z" fill="#333333"/>
<path d="M18.6457 229.509C18.3991 229.473 18.1877 229.438 17.9411 229.403C16.4969 229.227 15.4048 229.79 14.6299 231.021C13.9606 232.112 12.6219 232.253 11.7765 231.233C11.4595 230.881 11.1777 230.775 10.7549 230.74C10.0504 230.705 9.34587 230.634 8.67657 230.529C6.80956 230.247 5.50618 229.192 4.55506 227.644C4.44939 227.468 4.30848 227.222 4.30848 227.011C4.23803 226.377 4.7312 225.99 5.33005 226.201C5.75277 226.342 6.14026 226.553 6.49252 226.8C7.97204 227.785 9.59246 227.925 11.3186 227.714C11.706 227.679 12.1288 227.679 12.481 227.82C12.939 228.031 13.256 227.89 13.5731 227.609C14.5594 226.729 15.7219 226.377 16.99 226.588C18.7514 226.87 20.4775 226.518 22.1683 226.237C23.0138 226.096 23.8592 226.448 24.1762 227.187C24.2467 227.398 24.2467 227.749 24.1058 227.89C23.7888 228.207 23.4365 228.629 23.0138 228.735C21.6047 229.086 20.1252 229.368 18.7161 229.649C18.6809 229.579 18.6457 229.544 18.6457 229.509Z" fill="#333333"/>
<path d="M54.2607 136.133C54.5073 134.796 54.7187 134.62 55.9164 134.374C56.3391 134.304 56.7971 134.198 57.1845 134.058C57.5016 133.917 57.9243 133.706 58.03 133.424C58.5584 132.122 59.6856 131.806 60.8833 131.735C61.6583 131.665 61.9754 131.384 62.1515 130.715C62.2219 130.434 62.3276 130.152 62.4333 129.871C62.856 128.604 63.8776 127.971 65.0401 127.513C65.7798 127.232 66.3082 126.775 66.7662 126.177C67.048 125.825 67.3298 125.438 67.6821 125.086C67.9286 124.84 68.2457 124.628 68.5627 124.453C68.9502 124.241 69.3729 124.066 69.7956 124.417C70.1831 124.769 70.1479 125.262 70.007 125.649C69.7956 126.247 69.4434 126.775 69.1263 127.338C68.4923 128.463 67.6116 129.343 66.4139 129.941C65.1457 130.574 64.7582 131.806 64.7935 133.178C64.8287 134.409 64.6173 134.726 63.5605 135.183C63.0674 135.394 62.6447 135.394 62.1515 135.078C61.1651 134.48 61.0595 134.515 60.1436 135.289C59.122 136.168 57.9948 136.731 56.6209 136.837C55.6698 136.943 54.8948 136.767 54.2607 136.133Z" fill="#333333"/>
<path d="M27.5934 38.9579C27.4877 37.6561 28.0161 36.7062 29.0025 36.0025C29.9536 35.2989 30.8695 34.5952 31.8206 33.8916C31.9615 33.786 32.1728 33.6453 32.349 33.6101C32.7365 33.5749 32.8774 33.3638 32.9478 33.0472C33.3705 31.3936 34.2864 30.0918 35.625 29.0363C36.7523 28.1567 37.3159 26.8198 37.7739 25.4828C37.95 25.0254 38.0204 24.4977 38.2318 24.0403C38.3727 23.7237 38.5841 23.3718 38.8659 23.1607C39.5 22.6682 40.3102 22.9848 40.4511 23.7588C40.7681 25.4828 40.3454 27.1012 39.4295 28.5437C38.7954 29.5289 38.0557 30.4436 37.3159 31.3584C36.5762 32.2731 36.2239 33.3286 36.1534 34.4897C36.1182 35.0174 35.9421 35.5452 35.7307 36.0025C35.4841 36.4951 34.9557 36.7766 34.4626 36.6006C32.5603 35.8618 31.3626 37.0932 30.0592 38.0783C29.6365 38.395 29.1786 38.7116 28.7559 38.9579C28.4388 39.2394 28.0513 39.2042 27.5934 38.9579Z" fill="#333333"/>
<path d="M109.848 238.727C110.095 239.219 110.271 239.571 110.412 239.888C111.081 241.26 111.398 241.366 112.666 241.19C113.441 241.084 114.216 240.978 114.921 241.33C115.273 241.506 115.555 241.401 115.837 241.19C116.682 240.591 117.598 240.345 118.655 240.275C119.817 240.204 120.839 239.642 121.825 239.043C122.248 238.762 122.67 238.481 123.093 238.234C123.762 237.882 124.537 238.164 124.819 238.903C125.066 239.571 125.066 240.24 124.573 240.803C124.291 241.119 123.974 241.436 123.622 241.682C122.248 242.527 120.768 243.195 119.148 243.371C118.408 243.441 117.739 243.652 117.175 244.251C116.4 245.06 114.991 245.095 113.934 244.567C113.547 244.356 113.054 244.321 112.596 244.321C111.363 244.356 110.271 244.004 109.284 243.301C108.756 242.914 108.369 242.421 108.192 241.788C107.875 240.838 108.65 240.204 108.862 239.43C108.932 239.149 109.39 239.008 109.848 238.727Z" fill="#333333"/>
<path d="M31.8923 141.059C32.1741 140.39 32.3502 139.792 32.632 139.229C33.0195 138.491 33.4774 137.822 34.1115 137.224C35.0626 136.309 35.8728 135.183 36.7535 134.198C37.0706 133.811 37.4228 133.424 37.8455 133.143C38.1273 132.932 38.5148 132.826 38.8671 132.826C39.5716 132.826 39.6773 133.002 39.7125 133.741C39.7478 134.445 39.5012 134.972 39.0785 135.5C37.9512 136.907 36.824 138.35 35.7319 139.757C35.3092 140.32 35.0274 140.918 34.9922 141.692C34.957 142.361 34.7808 143.029 34.5342 143.627C34.182 144.507 33.3365 144.894 32.4559 144.472C31.6457 144.085 31.1173 144.366 30.5889 144.894C30.1662 145.316 29.7082 145.703 29.2503 146.125C28.4401 146.935 27.4889 147.005 26.4674 146.583C25.7981 146.301 25.5163 145.914 25.5867 145.281C25.6572 144.753 26.0447 144.366 26.5026 144.331C27.6298 144.225 28.2639 143.381 28.898 142.642C29.7082 141.763 30.5184 141.024 31.8923 141.059Z" fill="#333333"/>
<path d="M23.4366 312.084C22.2036 312.084 20.9707 312.084 19.7026 312.084C19.0685 312.084 18.6458 312.4 18.223 312.822C17.8355 313.209 17.4481 313.526 17.0253 313.913C16.6731 314.23 16.2504 314.195 15.8981 313.983C15.2288 313.596 14.5947 313.104 14.5243 312.224C14.4186 311.415 13.9606 310.887 13.3265 310.465C12.5516 309.973 11.7061 309.48 11.0016 308.882C10.4732 308.46 10.0153 307.862 9.69822 307.263C9.31073 306.56 9.69822 306.032 10.5084 305.927C11.0368 305.856 11.53 305.891 11.9175 306.278C13.0095 307.369 14.5243 307.826 15.722 308.671C16.5674 309.269 17.3776 309.55 18.5401 309.269C19.8082 308.987 21.1821 309.304 22.5207 309.304C23.7536 309.304 24.9865 309.374 26.149 309.902C26.8888 310.254 27.0297 310.641 26.7126 311.345C26.5365 311.802 26.1138 311.872 25.7263 311.908C24.9513 311.943 24.1763 311.908 23.4013 311.908C23.4366 311.978 23.4366 312.013 23.4366 312.084Z" fill="#333333"/>
<path d="M-13.4795 161.218C-13.0568 160.409 -12.3875 160.128 -11.6125 160.128C-10.3091 160.163 -9.25231 159.706 -8.51255 158.58C-8.05461 157.876 -7.35008 157.595 -6.57509 157.454C-5.97624 157.348 -5.69443 157.102 -5.6592 156.469C-5.55352 155.448 -4.95467 154.674 -4.35582 153.936C-3.33425 152.669 -2.41836 151.367 -1.43202 150.101C-1.11498 149.678 -0.762715 149.256 -0.339997 148.94C-0.0934114 148.764 0.364534 148.764 0.681573 148.834C1.10429 148.94 0.963387 149.327 0.963387 149.678C0.963387 150.875 0.399761 151.86 -0.19909 152.845C-0.833168 153.9 -1.60815 154.885 -2.31268 155.906C-2.70017 156.434 -2.84108 156.891 -2.59449 157.559C-2.24223 158.615 -3.05244 159.248 -3.68652 159.881C-4.00356 160.198 -4.42627 160.409 -4.9899 160.268C-5.83533 160.057 -6.53987 160.374 -7.17394 161.007C-8.16029 161.992 -9.28754 162.696 -10.7318 162.591C-11.4364 162.555 -12.1057 162.415 -12.8102 162.274C-13.3034 162.168 -13.3386 161.641 -13.4795 161.218Z" fill="#333333"/>
<path d="M45.7713 232.007C46.0179 231.69 46.194 231.409 46.4054 231.127C46.969 230.353 47.8144 229.966 48.6951 229.79C49.928 229.544 51.1962 229.333 52.4644 229.122C52.6053 229.087 52.7462 229.016 52.8518 229.051C53.2746 229.263 53.7677 229.403 53.9791 229.755C54.12 229.966 53.8734 230.564 53.6621 230.811C53.2746 231.198 52.7814 231.549 52.2882 231.761C51.6189 232.042 50.9144 232.323 50.1746 232.394C49.1531 232.535 48.6247 233.168 48.0963 233.942C47.8497 234.294 47.6031 234.646 47.286 234.927C46.4758 235.631 45.4895 235.595 44.6793 234.857C44.1861 234.399 43.693 234.153 42.9884 234.223C40.8044 234.399 38.5851 232.851 38.5146 229.861C38.5146 229.192 39.0078 228.594 39.6419 228.524C39.8533 228.489 40.1351 228.664 40.276 228.84C40.593 229.298 40.8396 229.825 41.1214 230.318C41.685 231.374 41.8259 231.479 42.918 231.268C43.8691 231.127 44.7497 231.233 45.7713 232.007Z" fill="#333333"/>
<path d="M67.9647 234.786C68.3874 234.927 68.7044 234.962 68.951 235.068C69.409 235.279 69.8317 235.525 70.2544 235.842C70.7828 236.264 71.3112 236.123 71.8396 235.912C72.2623 235.736 72.7203 235.596 73.1077 235.385C73.3191 235.279 73.5305 235.138 73.6009 234.962C74.235 233.238 75.785 232.394 77.1236 231.338C77.5815 230.987 77.8986 230.529 78.3213 230.177C78.7792 229.79 79.2019 229.368 79.7303 229.122C80.3996 228.805 80.8224 229.087 81.0337 229.79C81.1746 230.248 81.1746 230.67 80.9633 231.163C80.5758 232.148 79.9065 232.851 79.1315 233.52C78.5679 234.012 78.0042 234.47 77.4054 234.927C77.0531 235.209 76.877 235.49 76.9122 235.947C76.9474 236.299 76.877 236.686 76.8418 237.038C76.7361 238.023 76.3838 238.516 75.4327 238.516C74.2702 238.481 73.2134 238.832 72.1214 239.044C70.3953 239.395 68.3522 238.164 67.8238 236.475C67.6829 236.018 67.8942 235.455 67.9647 234.786Z" fill="#333333"/>
<path d="M67.8587 23.7233C68.0348 23.2308 68.2109 22.6678 68.4575 22.1401C69.5143 19.8884 71.2756 18.3051 73.4597 17.2145C74.2347 16.8274 75.0801 17.1793 75.8903 17.2145C75.9608 18.094 75.5028 18.5514 74.9392 18.9736C73.7415 19.818 72.6495 20.7328 71.8392 21.9642C71.2404 22.8437 70.7472 23.7585 70.8529 24.8492C70.9234 25.4121 70.6768 25.8343 70.2541 26.1509C69.7609 26.5028 69.2677 26.8194 68.7393 27.1009C68.1052 27.4527 67.4712 27.2768 67.0132 26.7491C66.52 26.1861 65.9564 25.975 65.2519 26.0102C64.5121 26.0454 63.7724 25.975 63.0326 26.0454C61.9758 26.1158 61.1304 25.7287 60.3906 25.0955C60.5315 24.2511 60.8133 23.9696 61.5883 23.864C62.786 23.7233 63.9837 23.5474 65.1814 23.477C66.0269 23.477 66.8723 23.6178 67.8587 23.7233Z" fill="#333333"/>
<path d="M-5.4834 64.7119C-5.44817 63.762 -5.06068 63.0935 -4.32092 62.4954C-2.80618 61.2992 -1.08008 60.6659 0.822152 60.4196C1.66759 60.3141 1.66759 60.3141 1.91417 59.4345C2.54825 57.1828 3.88686 55.3533 5.50728 53.6996C5.61296 53.5941 5.75387 53.4534 5.89477 53.4182C6.24704 53.3126 6.77544 53.0664 6.88112 53.2071C7.1277 53.4886 7.30383 53.9811 7.26861 54.3681C7.19815 54.8959 6.95157 55.3884 6.74021 55.881C6.28226 56.9365 5.75387 57.9216 5.29592 58.9771C5.01411 59.5752 4.8732 60.1733 5.22547 60.8066C5.47205 61.264 5.33115 61.7214 5.01411 62.1436C4.8732 62.3195 4.7323 62.4954 4.55616 62.7065C3.92209 63.4805 3.28801 63.7268 2.37212 63.4453C0.610793 62.8824 -1.08008 63.1639 -2.7005 63.9379C-3.2289 64.1842 -3.72207 64.4657 -4.21524 64.7119C-4.63796 64.8175 -5.02545 64.9582 -5.4834 64.7119Z" fill="#333333"/>
<path d="M39.8183 263.038C41.3331 262.44 42.8478 261.842 44.3978 261.279C44.5035 261.244 44.6091 261.244 44.6796 261.209C45.4546 261.068 46.1943 261.385 46.4409 261.877C46.6523 262.335 46.3352 263.179 45.8421 263.707C44.9262 264.692 43.658 264.973 42.4603 265.431C41.8967 265.642 41.4388 265.888 41.1217 266.416C40.8399 266.908 40.5229 267.401 39.8183 267.366C38.9729 267.331 38.1275 267.225 37.6343 266.521C36.9298 265.501 36.2957 264.41 35.5912 263.355C35.1332 262.686 35.2741 261.842 35.415 261.103C35.5207 260.54 35.8377 260.329 36.4718 260.294C36.5775 260.294 36.6832 260.294 36.7889 260.294C37.7752 260.259 37.8104 260.259 37.8809 261.209C37.9161 261.736 38.1979 262.053 38.6206 262.299C39.0786 262.475 39.3956 262.757 39.8183 263.038Z" fill="#333333"/>
<path d="M64.1238 180.886C65.1101 180.921 65.1454 180.921 65.4272 180.183C66.3431 177.966 68.3157 177.438 70.4646 177.72C70.5702 177.72 70.6407 177.79 70.7464 177.825C71.9088 178.107 71.8384 178.212 71.8384 179.057C71.8384 179.655 71.2043 180.218 70.4646 180.288C70.3589 180.288 70.2532 180.288 70.1475 180.288C68.668 180.358 68.1748 180.816 68.2453 182.258C68.3157 183.349 67.6464 183.912 66.9067 184.44C66.3783 184.792 65.7794 184.827 65.1806 184.58C64.8988 184.475 64.617 184.369 64.3704 184.193C63.8772 183.842 63.4545 183.947 62.9965 184.299C62.4329 184.756 61.8341 185.179 61.0591 185.284C60.425 185.354 60.108 185.284 59.8614 184.827C59.65 184.369 59.7557 183.982 60.108 183.63C60.8477 182.892 61.5522 182.153 62.3272 181.449C62.8909 180.921 63.5602 180.886 64.1238 180.886Z" fill="#333333"/>
<path d="M91.1779 154.111C91.495 155.202 91.0018 155.835 90.1916 156.258C89.2757 156.715 88.3598 157.102 87.4087 157.419C86.7746 157.63 86.3871 157.982 86.1053 158.544C86.0349 158.685 85.9644 158.861 85.8587 159.002C85.0133 160.268 84.3088 160.444 82.9702 159.776C82.6531 159.635 82.4065 159.565 82.019 159.635C80.8213 159.881 79.6941 159.67 78.6021 159.072C77.7919 158.65 77.7566 157.77 78.4964 157.207C79.0248 156.82 79.6236 156.856 80.2225 156.856C81.6668 156.891 82.9349 156.469 84.1326 155.659C84.9076 155.132 85.7178 154.745 86.7042 154.604C87.5496 154.498 88.4303 154.252 89.2405 154.006C89.945 153.83 90.5439 153.9 91.1779 154.111Z" fill="#333333"/>
<path d="M61.376 62.0027C62.1862 61.3342 62.9612 60.7009 63.701 59.9972C64.2294 59.5398 64.8282 59.4343 65.4623 59.3991C66.0612 59.3991 66.343 59.7158 66.2021 60.2787C66.1316 60.5601 65.9907 60.8416 65.8146 61.0879C65.4623 61.5805 65.0748 62.0378 64.6521 62.46C64.018 63.1285 63.5249 63.8322 63.3135 64.7821C63.1021 65.8024 61.2704 66.7875 60.2488 66.6116C59.7556 66.5061 59.6852 66.0839 59.4738 65.7321C59.3681 65.5561 59.2624 65.2747 59.2977 65.0636C59.3329 63.8322 58.417 63.3044 57.5363 62.847C57.008 62.5656 56.3739 62.5304 55.775 62.3897C55.5637 62.3545 55.3523 62.3897 55.1762 62.3193C54.8239 62.2138 54.3307 62.1082 54.4364 61.6508C54.5069 61.2638 54.5773 60.8064 55.1057 60.6305C57.1841 59.962 59.0863 60.2435 60.8476 61.5101C61.0238 61.686 61.1999 61.8619 61.376 62.0027Z" fill="#333333"/>
<path d="M121.861 126.141C121.649 125.086 122.037 124.382 123.023 124.065C123.587 123.889 124.221 123.749 124.784 123.749C125.559 123.749 125.982 123.432 126.193 122.764C126.299 122.482 126.475 122.236 126.616 121.954C128.166 119.316 130.174 118.612 133.697 119.034C134.155 119.069 134.754 118.999 135 119.632C134.437 120.125 133.802 120.442 133.063 120.582C130.702 121.004 129.329 122.447 128.941 124.839C128.695 126.387 126.933 127.232 125.559 126.528C125.137 126.317 124.608 126.247 124.115 126.212C123.446 126.176 122.777 126.247 122.107 126.247C122.037 126.247 121.966 126.176 121.861 126.141Z" fill="#333333"/>
<path d="M42.4952 48.5978C42.4599 49.3014 42.1077 49.6884 41.685 50.0051C40.6634 50.8143 39.5714 51.5531 38.8668 52.7142C38.3737 53.5234 37.9157 54.3326 38.0566 55.3529C38.1271 55.9158 37.8453 56.338 37.3521 56.5491C36.9998 56.7251 36.6123 56.8306 36.2248 56.9361C35.4499 57.1824 34.8158 56.901 34.4283 56.1973C33.8647 55.2474 33.0192 54.9307 31.9624 54.9659C31.2227 55.0011 30.5181 54.9659 29.7432 54.9659C30.025 53.84 30.6591 53.1716 31.7511 52.9957C32.667 52.8197 33.5476 52.8549 34.4283 53.2067C34.7101 53.3123 34.9919 53.4178 35.2737 53.5586C35.6964 52.8549 36.0839 52.1864 36.5067 51.5531C37.0703 50.6736 37.7748 49.9347 38.6202 49.2663C39.7475 48.2811 41.0509 48.2459 42.4952 48.5978Z" fill="#333333"/>
<path d="M60.3886 274.016C61.3397 273.981 62.1852 273.805 62.9954 273.981C64.1226 274.192 65.2499 274.614 66.201 275.353C66.4124 275.529 66.6237 275.775 66.7294 276.056C67.0112 276.619 66.8351 276.971 66.1658 276.971C65.3908 276.971 64.6158 276.901 63.876 276.725C62.5022 276.443 61.4454 277.006 60.5295 277.921C59.7898 278.695 59.1909 278.836 58.3103 278.449C57.0773 277.886 56.7955 277.499 56.9012 276.338C56.9364 275.986 56.9364 275.599 57.0773 275.247C57.3944 274.473 57.2182 273.77 56.8307 273.136C56.5489 272.679 56.5842 272.327 56.9012 271.94C57.2182 271.553 57.6057 271.694 58.0284 271.834C59.0852 272.257 59.8602 272.96 60.3886 274.016Z" fill="#333333"/>
<path d="M42.6368 198.688C43.1652 198.829 43.7288 198.9 44.2572 199.111C44.7504 199.287 45.1026 199.287 45.5606 199.005C46.6174 198.372 47.8151 197.95 49.048 197.809C49.4002 197.774 49.7877 197.809 50.14 197.95C50.915 198.266 51.0559 199.075 50.5275 199.744C49.8934 200.518 48.9423 200.694 48.1321 201.186C47.7446 201.433 47.2867 201.609 46.9344 201.89C46.0185 202.629 44.9969 202.77 43.9049 202.594C43.6231 202.559 43.2708 202.453 43.0947 202.242C42.7072 201.82 42.2845 201.749 41.7561 201.714C41.0516 201.679 40.347 201.538 39.6777 201.327C38.938 201.081 38.6562 200.659 38.6914 200.131C38.7266 199.674 39.2902 199.181 39.9243 199.111C40.805 199.005 41.7209 198.9 42.6015 198.829C42.6368 198.759 42.6368 198.724 42.6368 198.688Z" fill="#333333"/>
<path d="M76.4535 46.9795C76.1365 46.6629 75.6433 46.3462 75.6785 46.1C75.7138 45.537 75.5729 44.9389 76.0308 44.4112C76.7353 43.6371 77.5808 43.039 78.6024 42.7224C79.166 42.5465 79.4126 42.265 79.5887 41.6669C79.941 40.541 80.5398 39.4504 81.1034 38.3949C81.35 37.9023 82.442 37.6912 82.9 38.0079C83.0761 38.1486 83.217 38.4652 83.217 38.6763C83.1466 39.38 82.9704 40.0485 82.8648 40.7521C82.7591 41.491 82.5829 42.265 82.5829 43.0039C82.5477 44.3408 81.4205 45.537 80.1523 45.3259C79.0955 45.15 78.3558 45.537 77.616 46.2055C77.2637 46.4166 76.9115 46.6277 76.4535 46.9795Z" fill="#333333"/>
<path d="M72.1914 301.388C72.0505 301.528 71.9096 301.739 71.7335 301.845C71.1698 302.232 70.571 302.654 69.9721 302.971C69.1971 303.393 68.4222 303.78 67.8938 304.519C67.7529 304.695 67.4358 304.8 67.1892 304.8C66.5552 304.8 65.9211 304.765 65.287 304.624C64.97 304.554 64.6882 304.237 64.4768 303.956C63.9132 303.112 63.5609 302.971 62.5393 303.182C62.328 303.217 61.9757 303.147 61.87 302.971C61.4121 302.338 61.7996 301.106 62.5041 300.754C63.6314 300.156 64.6881 300.403 65.6393 301.036C66.2029 301.423 66.6256 301.493 67.2597 301.177C68.3165 300.684 69.4437 300.262 70.6414 300.297C71.4516 300.403 71.663 300.543 72.1914 301.388Z" fill="#333333"/>
<path d="M112.385 178.635C113.512 177.825 114.569 177.086 115.626 176.348C116.189 175.961 116.788 176.031 117.352 176.277C118.056 176.594 118.162 176.946 117.669 177.509C117.246 178.001 116.788 178.423 116.33 178.881C115.626 179.514 115.027 180.183 114.675 181.097C114.217 182.294 112.561 182.575 111.575 181.766C110.976 181.308 110.342 180.886 109.708 180.429C109.179 180.042 108.651 179.69 108.193 179.233C107.665 178.74 107.876 178.001 108.58 177.86C109.003 177.79 109.461 177.825 109.884 177.896C110.694 178.107 111.539 178.388 112.385 178.635Z" fill="#333333"/>
<path d="M42.3539 291.537C42.0016 291.959 41.6494 292.416 41.2266 292.768C40.5573 293.366 39.8176 293.894 39.113 294.422C38.1267 295.125 37.2813 295.02 36.4358 294.14C36.1892 293.894 35.9074 293.612 35.5904 293.437C34.745 292.874 34.6393 292.522 35.0268 291.537C35.062 291.431 35.0972 291.29 35.1324 291.22C35.837 290.868 36.4711 290.974 37.1404 291.185C37.5278 291.29 37.8801 291.29 38.2676 291.114C39.2187 290.692 40.2051 290.376 41.2971 290.727C41.7198 290.833 42.0368 291.044 42.3539 291.537Z" fill="#333333"/>
<path d="M25.5507 248.93C25.0223 249.282 24.67 249.493 24.3177 249.739C23.6132 250.196 22.9439 250.619 22.4859 251.428C21.9928 252.343 20.5837 252.448 19.6326 251.709C19.1042 251.322 18.5758 250.9 18.0474 250.478C17.6951 250.196 17.6951 249.915 17.8008 249.493C17.9065 249.141 17.977 248.789 18.4349 248.754C19.0337 248.683 19.6326 248.543 20.1962 248.859C20.6542 249.141 21.1121 248.93 21.5348 248.754C22.5916 248.261 23.6836 248.226 24.7757 248.543C24.987 248.578 25.1279 248.719 25.5507 248.93Z" fill="#333333"/>
</g>
<defs>
<clipPath id="clip0">
<rect width="187" height="318" fill="white"/>
</clipPath>
</defs>
</svg>
