<svg version="1" xmlns="http://www.w3.org/2000/svg" width="933.333" height="933.333" viewBox="0 0 700.000000 700.000000"><path d="M336 1.9c-8.5 2.7-13.1 5.4-18.9 11.2-9.4 9.4-13.6 20.7-12.9 34.2.3 6.6 1.1 9.6 3.6 15 3.5 7.5 11.5 16.6 17.9 20.4l4.3 2.5v71.5l-4.8 3.1c-20.5 13.2-27.2 38.9-15.6 59.6 5.4 9.7 15.6 17.6 27.3 21.2 9.8 2.9 24.7 1 35-4.5l3.4-1.8 31.3 17.9c31.2 17.8 31.4 18 31.4 21.2 0 3.3-.2 3.4-30.9 21-17 9.7-31.2 17.6-31.6 17.6-.4 0-3.5-1.3-6.9-2.9-12.2-5.8-26.1-5.8-38.7 0-3.7 1.7-7.1 3-7.6 2.8-.5-.2-14.7-8.2-31.6-17.8L260 276.6v-4.1c0-13.6-8.6-28.6-21.2-36.7l-4.8-3.1v-71.6l5.5-3.7c23.7-15.7 27.2-48.4 7.3-68.4-9-8.9-19.5-13.1-32.6-13.1-20.6.1-37.9 14-42.7 34.2-4.5 19.2 2.6 37.4 18.5 47.6l5.9 3.8-.2 35.9-.2 36-3.1 1.2c-3 1.2-3.9.8-34.7-16.7L126 199.8V195c0-15.2-10.8-31.3-25.6-38.2-28-13.1-59.1 3.7-63.6 34.2-1.9 12.8 2.1 25.4 11.4 35.5 2.8 3.1 7 6.7 9.4 8.1l4.4 2.6v72.4l-3.8 2.2c-5.6 3.1-14.9 13.3-17.7 19.3-13.7 29.7 7.9 63.2 41 63.2 21.7 0 38.5-13 44-34 4.7-17.8-3.1-37.4-18.9-47.3l-5.5-3.5-.1-36.1v-36l3.3-1.6 3.3-1.6 31.6 18 31.5 18.1.6 7.2c1 13.1 8.9 26 20.9 33.7l4.8 3.1v71.4l-4.8 3.1c-12 7.7-19.9 20.6-20.9 33.7l-.6 7.2-31.6 18.1-31.5 18-4.1-2.3c-12.5-7.3-30.3-7.3-44.1-.2-4.9 2.5-12.5 9.9-16.1 15.5-11 17.2-8.5 40.1 6 54.6 6 6 12.8 9.9 21.4 12.1 19.3 5 40.5-4 50.5-21.6 3.3-5.7 4.6-9.9 5.5-18.2l.8-6.7 31.4-18 31.4-17.9 4.1 2.4c6.1 3.5 14.1 5.5 22.2 5.5 33.1 0 54.6-34.3 40.3-63.9-3.5-7.1-12.6-16.9-17.7-19l-3.2-1.3V314.1l3.1-1.6 3.1-1.6 31.3 17.8 31.3 17.8.7 5.5c1 8.5 3.4 15.9 6.9 21.4 3.7 5.7 10.8 12.6 15.5 15l3.1 1.7v72.6l-4.9 3.2c-11 7.1-18.3 18.8-20.2 32.7l-1.2 8-31.1 17.8-31 17.7-6.7-3.1c-9.3-4.3-16.9-5.5-26.1-4.1-33 5.1-49.5 41.1-31.4 68.4 12.7 19.2 37.3 25.6 58.1 15.3 14.5-7.2 23.2-20 25-37.1l.7-6 31.3-17.8 31.3-17.8 3.1 1.6 3.1 1.6v71.8l-5.6 3.7c-23 15.3-26.5 48.5-7 67.9 24.9 24.7 66 14.3 76.2-19.4.8-2.5 1.4-6.9 1.4-9.6v-5l31.8-18.1 31.7-18.1 4 2.3c7 3.9 13.5 5.6 22 5.5 22.7-.1 41.1-15.6 44.6-37.7 2.2-13.9-2.6-28.1-12.8-38.1-26.8-26.2-73.7-10.5-78.6 26.5l-1.1 7.8-31.2 17.7-31.2 17.7-3.1-1.6-3.1-1.5v-36.2l.1-36.2 5.6-3.5c10.5-6.6 17.5-18.1 19.4-31.8.6-4.2 1.4-8 1.7-8.4.4-.4 14.4-8.5 31.2-18.1l30.5-17.4 7.4 3.6c6.3 3 8.8 3.6 16.1 3.9 9.7.5 17.5-1.2 24.6-5.3l4.1-2.4 31.4 17.9 31.4 18 .8 6.7c.9 8.3 2.2 12.5 5.5 18.2 14.9 26.1 50.6 30.8 71.9 9.5 18-18 16.9-47.3-2.3-64.3-5.6-4.9-8.5-6.5-16.2-9.2-10.7-3.7-27-1.8-36.7 4.1l-3 1.9-31.8-18.2-31.7-18.1v-4.7c0-5.7-2.8-15.3-6.3-21.1-3.2-5.4-12.1-13.9-17.5-16.7-17.9-9.1-39.5-5.7-53.8 8.6-7.1 7-11 15.2-12.6 26.1l-1.1 8.2-31.2 17.8-31.1 17.9-3.2-1.6-3.2-1.5v-36.7c0-36.4 0-36.8 2.1-37.4 1.1-.4 5.1-3.6 8.8-7.1 8.5-8 12.6-15.8 14.2-27 .6-4.3 1.6-8.4 2.2-9 .7-.6 14.8-8.8 31.4-18.3l30.2-17.2 3.3 2.1c5.3 3.2 15.5 6 22.2 6 8-.1 13.8-1.4 20.8-5l5.7-2.9 31.6 18 31.5 18.1v3.6c0 6 2.9 16.2 6 21.7 8.2 14.3 23.1 22.9 39.5 22.8 22.6-.1 40.9-15.5 44.6-37.6 3.5-21.1-9.8-42.4-30.8-49-11.5-3.6-21.8-2.9-33.5 2.5l-6.7 3-31.3-17.9c-30.9-17.6-31.3-17.9-31.3-21.1 0-3.2.4-3.5 31.3-21.1l31.4-17.9 7.6 3.6c26.7 12.7 58.7-4.4 63.3-33.9 3.4-21.7-10.7-43.1-32.5-49.4-9.6-2.8-21.5-1.7-30.9 2.8l-7.4 3.5-31.7-18-31.6-18V121c0-5.8-2.8-15.3-6.3-21.3-8.7-14.8-28.1-23.7-45.6-21-30.7 4.8-47.3 36.2-33.6 63.9 7.5 15.2 22.4 24.4 39.6 24.4 8.1 0 17.9-2.4 23.5-5.9l3.1-1.9 31.6 18.1c30.9 17.7 31.7 18.2 31.7 21.2 0 3.1-.8 3.6-30.7 20.6-16.9 9.6-31.2 17.5-31.9 17.7-.7.2-3.4-.8-6.1-2.1-6.9-3.6-12.7-4.9-20.8-4.9-7.2.1-17.7 2.8-21.9 5.8-1.1.8-2.7 1.4-3.4 1.4-.8 0-15.3-7.9-32.3-17.6l-30.8-17.6-.6-5.6c-1.8-15.6-8.3-26.9-19.9-34.6l-5.6-3.7V85.1l5.6-3.7c16.3-10.9 23.5-31.6 17.6-50.9-4.1-13.2-16.2-24.8-30.6-28.9-7.1-2.1-18.7-2-25.6.3z"/></svg>