<svg width="38" height="43" viewBox="0 0 38 43" fill="none" xmlns="http://www.w3.org/2000/svg">
<path d="M35.264 24.2073C36.784 24.2073 38 22.9944 38 21.4783C38 19.9621 36.784 18.7493 35.264 18.7493C34.7067 18.7493 34.1493 18.9514 33.6933 19.2546L29.8427 17.031C29.8427 16.9805 29.8427 16.8794 29.8427 16.8288C29.8427 16.7783 29.8427 16.6772 29.8427 16.6267L33.6933 14.4031C34.1493 14.7063 34.656 14.9084 35.264 14.9084C36.784 14.9084 38 13.6955 38 12.1794C38 10.6633 36.784 9.45043 35.264 9.45043C34.7067 9.45043 34.1493 9.65258 33.6933 9.9558L29.8427 7.73217C29.8427 7.68164 29.8427 7.58056 29.8427 7.53002C29.8427 6.01391 28.6267 4.80102 27.1067 4.80102C25.5867 4.80102 24.3707 6.01391 24.3707 7.53002C24.3707 9.04614 25.5867 10.259 27.1067 10.259C27.664 10.259 28.2213 10.0569 28.6773 9.75365L32.528 11.9773C32.528 12.0278 32.528 12.1289 32.528 12.1794C32.528 12.23 32.528 12.331 32.528 12.3816L28.6773 14.6052C28.2213 14.302 27.7147 14.0998 27.1067 14.0998C26.4987 14.0998 25.992 14.302 25.536 14.6052L21.6853 12.3816C21.6853 12.331 21.6853 12.23 21.6853 12.1794C21.6853 11.0676 21.0267 10.158 20.1147 9.70312V5.20532C21.0267 4.75048 21.6853 3.84082 21.6853 2.729C21.6853 1.21289 20.4693 -9.63918e-08 18.9493 -9.63918e-08C17.4293 -9.63918e-08 16.2133 1.21289 16.2133 2.729C16.2133 3.84082 16.872 4.75048 17.784 5.20532V9.65258C16.872 10.1074 16.2133 11.0171 16.2133 12.1289C16.2133 13.645 17.4293 14.8579 18.9493 14.8579C19.5067 14.8579 20.064 14.6558 20.52 14.3525L24.3707 16.5762C24.3707 16.6267 24.3707 16.7278 24.3707 16.7783C24.3707 16.8288 24.3707 16.9299 24.3707 16.9805L20.52 19.2041C20.064 18.9009 19.5573 18.6987 18.9493 18.6987C18.3413 18.6987 17.8347 18.9009 17.3787 19.2041L13.528 16.9805C13.528 16.9299 13.528 16.8288 13.528 16.7783C13.528 15.6665 12.8693 14.7568 11.9573 14.302V9.85473C12.8693 9.3999 13.528 8.49023 13.528 7.37841C13.528 5.8623 12.312 4.64941 10.792 4.64941C9.272 4.64941 8.10667 5.91284 8.10667 7.42895C8.10667 8.54077 8.76533 9.45043 9.67733 9.90527V14.302C9.52533 14.3525 9.424 14.4536 9.272 14.5041L5.42133 12.2805C5.42133 12.23 5.42133 12.1289 5.42133 12.0784C5.42133 10.5622 4.20533 9.34936 2.68533 9.34936C1.16533 9.34936 0 10.5622 0 12.0784C0 13.1902 0.658667 14.0998 1.57067 14.5547V19.0019C0.658667 19.4568 0 20.3664 0 21.4783C0 22.9944 1.216 24.2073 2.736 24.2073C4.256 24.2073 5.472 22.9944 5.472 21.4783C5.472 20.3664 4.81333 19.4568 3.90133 19.0019V14.5547C4.05333 14.5041 4.15467 14.4031 4.30667 14.3525L8.15733 16.5762C8.15733 16.6267 8.15733 16.7278 8.15733 16.7783C8.15733 17.8901 8.816 18.7998 9.728 19.2546V23.7019C8.816 24.1567 8.15733 25.0664 8.15733 26.1782C8.15733 26.2287 8.15733 26.3298 8.15733 26.3804L4.30667 28.604C3.85067 28.3008 3.344 28.0986 2.736 28.0986C1.216 28.0986 0 29.3115 0 30.8276C0 32.3437 1.216 33.5566 2.736 33.5566C4.256 33.5566 5.472 32.3437 5.472 30.8276C5.472 30.7771 5.472 30.676 5.472 30.6255L9.32267 28.4018C9.77867 28.7051 10.2853 28.9072 10.8933 28.9072C12.4133 28.9072 13.6293 27.6943 13.6293 26.1782C13.6293 25.0664 12.9707 24.1567 12.0587 23.7019V19.2546C12.2107 19.2041 12.312 19.103 12.464 19.0525L16.3147 21.2761C16.3147 21.3266 16.3147 21.4277 16.3147 21.4783C16.3147 22.5901 16.9733 23.4997 17.8853 23.9546V28.4018C16.9733 28.8567 16.3147 29.7663 16.3147 30.8782C16.3147 30.9287 16.3147 31.0298 16.3147 31.0803L12.464 33.3039C12.008 33.0007 11.5013 32.7986 10.8933 32.7986C9.37333 32.7986 8.15733 34.0115 8.15733 35.5276C8.15733 37.0437 9.37333 38.2566 10.8933 38.2566C12.4133 38.2566 13.6293 37.0437 13.6293 35.5276C13.6293 35.477 13.6293 35.376 13.6293 35.3254L17.48 33.1018C17.5813 33.2029 17.7333 33.2534 17.8853 33.3039V37.7512C16.9733 38.206 16.3147 39.1157 16.3147 40.2275C16.3147 41.7436 17.5307 42.9565 19.0507 42.9565C20.5707 42.9565 21.7867 41.7436 21.7867 40.2275C21.7867 40.177 21.7867 40.0759 21.7867 40.0254L25.6373 37.8017C26.0933 38.105 26.6 38.3071 27.208 38.3071C28.728 38.3071 29.944 37.0942 29.944 35.5781C29.944 34.062 28.728 32.8491 27.208 32.8491C25.688 32.8491 24.3707 34.0115 24.3707 35.5276C24.3707 35.5781 24.3707 35.6792 24.3707 35.7297L20.52 37.9533C20.4187 37.8523 20.2667 37.8017 20.1147 37.7512V33.3039C21.0267 32.8491 21.6853 31.9394 21.6853 30.8276C21.6853 30.7771 21.6853 30.676 21.6853 30.6255L25.536 28.4018C25.992 28.7051 26.4987 28.9072 27.1067 28.9072C27.7147 28.9072 28.2213 28.7051 28.6773 28.4018L32.528 30.6255C32.528 30.676 32.528 30.7771 32.528 30.8276C32.528 32.3437 33.744 33.5566 35.264 33.5566C36.784 33.5566 38 32.3437 38 30.8276C38 29.3115 36.784 28.0986 35.264 28.0986C34.7067 28.0986 34.1493 28.3008 33.6933 28.604L29.8427 26.3804C29.8427 26.3298 29.8427 26.2287 29.8427 26.1782C29.8427 24.6621 28.6267 23.4492 27.1067 23.4492C25.5867 23.4492 24.3707 24.6621 24.3707 26.1782C24.3707 26.2287 24.3707 26.3298 24.3707 26.3804L20.52 28.604C20.4187 28.5029 20.2667 28.4524 20.1147 28.4018V23.904C21.0267 23.4492 21.6853 22.5395 21.6853 21.4277C21.6853 21.3772 21.6853 21.2761 21.6853 21.2256L25.536 19.0019C25.992 19.3052 26.4987 19.5073 27.1067 19.5073C27.7147 19.5073 28.2213 19.3052 28.6773 19.0019L32.528 21.2256C32.528 21.2761 32.528 21.3772 32.528 21.4277C32.528 22.9438 33.744 24.2073 35.264 24.2073Z" fill="#333333"/>
</svg>
