<svg width="22" height="31" viewBox="0 0 22 31" fill="none" xmlns="http://www.w3.org/2000/svg">
<path d="M6.5 29.3579C6.5 30.1829 7.175 30.8579 8 30.8579H14C14.825 30.8579 15.5 30.1829 15.5 29.3579V27.8579H6.5V29.3579ZM11 0.85791C5.21 0.85791 0.5 5.56791 0.5 11.3579C0.5 14.9279 2.285 18.0629 5 19.9679V23.3579C5 24.1829 5.675 24.8579 6.5 24.8579H15.5C16.325 24.8579 17 24.1829 17 23.3579V19.9679C19.715 18.0629 21.5 14.9279 21.5 11.3579C21.5 5.56791 16.79 0.85791 11 0.85791ZM15.275 17.5079L14 18.4079V21.8579H8V18.4079L6.725 17.5079C4.7 16.0979 3.5 13.8029 3.5 11.3579C3.5 7.21791 6.86 3.85791 11 3.85791C15.14 3.85791 18.5 7.21791 18.5 11.3579C18.5 13.8029 17.3 16.0979 15.275 17.5079Z" fill="#444444"/>
</svg>
