<svg xmlns="http://www.w3.org/2000/svg" width="51" height="50" viewBox="0 0 51 50">
  <g fill="none" fill-rule="evenodd">
    <path fill="#7289DA" fill-opacity=".9" d="M25.341797,49.5732 C39.1489,49.5732 50.341797,38.5121 50.341797,24.8676 C50.341797,11.2232 39.1489,0.162109 25.341797,0.162109 C11.5347,0.162109 0.341797,11.2232 0.341797,24.8676 C0.341797,38.5121 11.5347,49.5732 25.341797,49.5732 Z"/>
    <g fill-rule="nonzero" transform="translate(11 14)">
      <path fill="#FFF" d="M22.1405714,21.65 C22.1405714,21.65 21.2354286,20.575 20.4811429,19.625 C23.7748571,18.7 25.032,16.65 25.032,16.65 C24.0011429,17.325 23.0205714,17.8 22.1405714,18.125 C20.8834286,18.65 19.6765714,19 18.4948571,19.2 C16.0811429,19.65 13.8685714,19.525 11.9828571,19.175 C10.5497143,18.9 9.31771429,18.5 8.28685714,18.1 C7.70857143,17.875 7.08,17.6 6.45142857,17.25 C6.376,17.2 6.30057143,17.175 6.22514286,17.125 C6.17485714,17.1 6.14971429,17.075 6.12457143,17.05 C5.672,16.8 5.42057143,16.625 5.42057143,16.625 C5.42057143,16.625 6.62742857,18.625 9.82057143,19.575 C9.06628571,20.525 8.136,21.65 8.136,21.65 C2.57942857,21.475 0.467428571,17.85 0.467428571,17.85 C0.467428571,9.8 4.088,3.275 4.088,3.275 C7.70857143,0.575 11.1531429,0.649792244 11.1531429,0.649792244 L11.4045714,0.95 C6.87885714,2.25 4.792,4.225 4.792,4.225 C4.792,4.225 5.34514286,3.925 6.27542857,3.5 C8.96571429,2.325 11.1028571,2 11.9828571,1.925 C12.1337143,1.9 12.2594286,1.875 12.4102857,1.875 C13.944,1.675 15.6788571,1.625 17.4891429,1.825 C19.8777143,2.1 22.4422857,2.8 25.0571429,4.225 C25.0571429,4.225 23.0708571,2.35 18.7965714,1.05 L19.1485714,0.649792244 C19.1485714,0.649792244 22.5931429,0.575 26.2137143,3.275 C26.2137143,3.275 29.8342857,9.8 29.8342857,17.85 C29.8342857,17.85 27.6971429,21.475 22.1405714,21.65 L22.1405714,21.65 Z"/>
      <path fill="#7289DA" d="M10.5096661,10 C9.10720562,10 8,11.1261261 8,12.5 C8,13.8738739 9.13181019,15 10.5096661,15 C11.9121265,15 13.0193322,13.8738739 13.0193322,12.5 C13.0439367,11.1261261 11.9121265,10 10.5096661,10 Z M19.4903339,10 C18.0878735,10 16.9806678,11.1261261 16.9806678,12.5 C16.9806678,13.8738739 18.112478,15 19.4903339,15 C20.8927944,15 22,13.8738739 22,12.5 C22,11.1261261 20.8927944,10 19.4903339,10 Z"/>
    </g>
  </g>
</svg>
