<svg width="51" height="50" viewBox="0 0 51 50" fill="none" xmlns="http://www.w3.org/2000/svg">
<ellipse cx="25.1934" cy="24.8719" rx="25" ry="24.8719" fill="#333333"/>
<path fill-rule="evenodd" clip-rule="evenodd" d="M25.1936 0C11.3881 0 0.193359 11.1518 0.193359 24.9088C0.193359 35.9142 7.35668 45.2511 17.29 48.5447C18.5395 48.7753 18.9982 48.0044 18.9982 47.3465C18.9982 46.7525 18.975 44.7904 18.9642 42.709C12.0091 44.2158 10.5415 39.7701 10.5415 39.7701C9.40429 36.8909 7.7657 36.1254 7.7657 36.1254C5.49744 34.5794 7.93668 34.6112 7.93668 34.6112C10.4471 34.7869 11.769 37.178 11.769 37.178C13.9988 40.986 17.6175 39.8851 19.0441 39.2487C19.2685 37.6388 19.9164 36.5399 20.6314 35.9179C15.0785 35.2881 9.24117 33.1522 9.24117 23.6079C9.24117 20.8884 10.2178 18.6664 11.817 16.922C11.5575 16.2946 10.7017 13.7612 12.0592 10.3301C12.0592 10.3301 14.1586 9.66069 18.9361 12.8834C20.9303 12.3315 23.069 12.0547 25.1936 12.0452C27.3182 12.0547 29.4585 12.3315 31.4565 12.8834C36.2281 9.66069 38.3246 10.3301 38.3246 10.3301C39.6854 13.7612 38.8293 16.2946 38.5697 16.922C40.1727 18.6664 41.1426 20.8884 41.1426 23.6079C41.1426 33.1749 35.2942 35.2815 29.7272 35.8981C30.6239 36.6711 31.4229 38.187 31.4229 40.5109C31.4229 43.8437 31.3939 46.5261 31.3939 47.3465C31.3939 48.0093 31.844 48.786 33.1112 48.5414C43.0391 45.2441 50.1934 35.9105 50.1934 24.9088C50.1934 11.1518 39.0002 0 25.1936 0Z" fill="#F8F314"/>
<path fill-rule="evenodd" clip-rule="evenodd" d="M9.73665 35.5925C9.68169 35.715 9.48665 35.7518 9.30897 35.6677C9.12797 35.5872 9.02632 35.4202 9.085 35.2972C9.13872 35.171 9.33417 35.1359 9.51475 35.2205C9.69616 35.3009 9.79946 35.4696 9.73665 35.5925Z" fill="#161514"/>
<path fill-rule="evenodd" clip-rule="evenodd" d="M10.7459 36.7068C10.6269 36.8159 10.3943 36.7652 10.2364 36.5929C10.0732 36.4209 10.0426 36.191 10.1633 36.0803C10.286 35.9713 10.5116 36.0223 10.6753 36.1943C10.8385 36.3682 10.8703 36.5965 10.7459 36.7068Z" fill="#161514"/>
<path fill-rule="evenodd" clip-rule="evenodd" d="M11.7303 38.1273C11.5774 38.2323 11.3274 38.1339 11.1729 37.9145C11.02 37.6952 11.02 37.4322 11.1762 37.3268C11.3311 37.2215 11.5774 37.3162 11.734 37.5339C11.8865 37.7569 11.8865 38.0199 11.7303 38.1273Z" fill="#161514"/>
<path fill-rule="evenodd" clip-rule="evenodd" d="M13.0788 39.4995C12.942 39.6486 12.6507 39.6086 12.4375 39.4052C12.2193 39.2063 12.1586 38.9241 12.2958 38.775C12.4342 38.6255 12.7272 38.6676 12.942 38.8694C13.1586 39.0679 13.2247 39.3521 13.0788 39.4995Z" fill="#161514"/>
<path fill-rule="evenodd" clip-rule="evenodd" d="M14.9383 40.2965C14.878 40.4897 14.5974 40.5775 14.3148 40.4954C14.0326 40.4108 13.8478 40.1846 13.9049 39.9894C13.9635 39.795 14.2454 39.7035 14.5301 39.7913C14.8119 39.8754 14.997 40.1 14.9383 40.2965Z" fill="#161514"/>
<path fill-rule="evenodd" clip-rule="evenodd" d="M16.9805 40.4444C16.9875 40.6478 16.7479 40.8165 16.4512 40.8202C16.1528 40.8267 15.9115 40.6621 15.9082 40.462C15.9082 40.2566 16.1425 40.0895 16.4408 40.0846C16.7375 40.0789 16.9805 40.2423 16.9805 40.4444Z" fill="#161514"/>
<path fill-rule="evenodd" clip-rule="evenodd" d="M18.8803 40.1243C18.9159 40.3228 18.7097 40.5266 18.415 40.5809C18.1254 40.6332 17.8572 40.5106 17.8204 40.3138C17.7845 40.1104 17.9944 39.9066 18.2836 39.8539C18.5787 39.8033 18.8427 39.9225 18.8803 40.1243Z" fill="#161514"/>
</svg>
