<svg width="51" height="49" viewBox="0 0 51 49" fill="none" xmlns="http://www.w3.org/2000/svg">
<path fill-rule="evenodd" clip-rule="evenodd" d="M25.194 0.817871C11.4142 0.817871 0.240234 11.8593 0.240234 25.4807C0.240234 36.3775 7.39024 45.6223 17.3051 48.8835C18.5522 49.1118 19.0101 48.3485 19.0101 47.6971C19.0101 47.1089 18.9869 45.1661 18.9762 43.1053C12.034 44.5972 10.5692 40.1953 10.5692 40.1953C9.43404 37.3446 7.7985 36.5866 7.7985 36.5866C5.53445 35.0559 7.96916 35.0873 7.96916 35.0873C10.4749 35.2609 11.7944 37.6289 11.7944 37.6289C14.02 41.3993 17.632 40.3093 19.0559 39.6791C19.2799 38.0855 19.9266 36.9967 20.6402 36.3812C15.0977 35.7575 9.27123 33.6428 9.27123 24.1925C9.27123 21.4999 10.246 19.2998 11.8423 17.5726C11.5832 16.951 10.7291 14.4429 12.084 11.0457C12.084 11.0457 14.1795 10.3829 18.9481 13.5738C20.9386 13.0274 23.0733 12.7533 25.194 12.7439C27.3146 12.7533 29.451 13.0274 31.4452 13.5738C36.208 10.3829 38.3006 11.0457 38.3006 11.0457C39.6588 14.4429 38.8043 16.951 38.5452 17.5726C40.1452 19.2998 41.1134 21.4999 41.1134 24.1925C41.1134 33.6652 35.2758 35.751 29.7192 36.3616C30.6142 37.1269 31.4117 38.6279 31.4117 40.9289C31.4117 44.2284 31.3828 46.8843 31.3828 47.6971C31.3828 48.3534 31.832 49.1224 33.0968 48.8802C43.0064 45.6154 50.1473 36.3738 50.1473 25.4807C50.1473 11.8593 38.9749 0.817871 25.194 0.817871" fill="#333333" fill-opacity="0.9"/>
<path fill-rule="evenodd" clip-rule="evenodd" d="M9.69173 36.2282C9.63677 36.3511 9.44173 36.3875 9.26404 36.3033C9.08305 36.2229 8.9814 36.0558 9.04008 35.9329C9.0938 35.8067 9.28925 35.772 9.46983 35.8557C9.65124 35.9366 9.75454 36.1053 9.69173 36.2282" fill="#333333" fill-opacity="0.9"/>
<path fill-rule="evenodd" clip-rule="evenodd" d="M10.7029 37.3426C10.5839 37.4516 10.3513 37.401 10.1934 37.2286C10.0302 37.0567 9.99964 36.8267 10.1203 36.7161C10.243 36.607 10.4686 36.6581 10.6323 36.83C10.7955 37.004 10.8273 37.2323 10.7029 37.3426" fill="#333333" fill-opacity="0.9"/>
<path fill-rule="evenodd" clip-rule="evenodd" d="M11.6854 38.7631C11.5325 38.868 11.2825 38.7696 11.1279 38.5503C10.975 38.331 10.975 38.0679 11.1312 37.9626C11.2862 37.8572 11.5325 37.952 11.6891 38.1696C11.8416 38.3922 11.8416 38.6556 11.6854 38.7631" fill="#333333" fill-opacity="0.9"/>
<path fill-rule="evenodd" clip-rule="evenodd" d="M13.0339 40.1353C12.8971 40.2844 12.6058 40.2443 12.3926 40.0409C12.1744 39.8421 12.1136 39.5598 12.2508 39.4108C12.3893 39.2613 12.6822 39.3034 12.8971 39.5051C13.1136 39.7036 13.1798 39.9879 13.0339 40.1353" fill="#333333" fill-opacity="0.9"/>
<path fill-rule="evenodd" clip-rule="evenodd" d="M14.8934 40.9322C14.8331 41.1254 14.5525 41.2132 14.2699 41.1311C13.9876 41.0466 13.8029 40.8203 13.8599 40.6251C13.9186 40.4307 14.2004 40.3392 14.4852 40.427C14.767 40.5112 14.9521 40.7358 14.8934 40.9322" fill="#333333" fill-opacity="0.9"/>
<path fill-rule="evenodd" clip-rule="evenodd" d="M16.9356 41.0802C16.9426 41.2836 16.7029 41.4522 16.4063 41.4555C16.1079 41.4624 15.8666 41.2979 15.8633 41.0977C15.8633 40.8923 16.0976 40.7253 16.3959 40.7204C16.6926 40.7146 16.9356 40.878 16.9356 41.0802" fill="#333333" fill-opacity="0.9"/>
<path fill-rule="evenodd" clip-rule="evenodd" d="M18.8354 40.76C18.8709 40.9585 18.6648 41.1623 18.3701 41.2162C18.0805 41.2689 17.8123 41.1464 17.7755 40.9495C17.7395 40.7461 17.9495 40.5423 18.2387 40.4897C18.5338 40.439 18.7978 40.5583 18.8354 40.76" fill="#333333" fill-opacity="0.9"/>
</svg>
