<svg width="51" height="50" viewBox="0 0 51 50" fill="none" xmlns="http://www.w3.org/2000/svg">
<path fill-rule="evenodd" clip-rule="evenodd" d="M0.193359 24.7055C0.193359 11.061 11.3862 0 25.1934 0C39.0005 0 50.1934 11.061 50.1934 24.7055C50.1934 38.35 39.0005 49.4111 25.1934 49.4111C11.3862 49.4111 0.193359 38.35 0.193359 24.7055ZM21.173 18.0524L13.1688 14.1443C13.1004 14.1108 13.0351 14.095 12.9761 14.095C12.8921 14.095 12.821 14.1273 12.771 14.1862C12.722 14.2438 12.6934 14.3271 12.6934 14.4312V31.2089C12.6934 31.4944 12.9073 31.8325 13.1688 31.9601L20.5656 35.5717C20.6684 35.6219 20.7663 35.6457 20.8548 35.6457C21.104 35.6457 21.2788 35.4574 21.2788 35.1413V18.2197C21.2788 18.1489 21.2379 18.0841 21.173 18.0524ZM37.7357 35.5661L30.5481 32.0568L38.4489 19.5195V35.1357C38.4489 35.564 38.128 35.7577 37.7357 35.5661ZM22.0376 19.3082V27.9065L29.8644 31.728L22.0376 19.3082ZM30.1021 14.0283L38.2608 18.0118C38.3624 18.0615 38.3986 18.1854 38.339 18.28L30.3098 31.0211L24.6963 22.1131L29.725 14.1332C29.7785 14.0485 29.8772 13.9998 29.9765 13.9998C29.9779 13.9998 29.9792 14 29.9806 14.0002C29.9819 14.0004 29.9831 14.0006 29.9844 14.0007C30.0247 14.0017 30.065 14.0101 30.1021 14.0283Z" fill="#333333" fill-opacity="0.9"/>
</svg>
