<svg width="51" height="50" viewBox="0 0 51 50" fill="none" xmlns="http://www.w3.org/2000/svg">
<path fill-rule="evenodd" clip-rule="evenodd" d="M0.193359 24.7055C0.193359 11.061 11.3862 0 25.1934 0C39.0005 0 50.1934 11.061 50.1934 24.7055C50.1934 38.35 39.0005 49.4111 25.1934 49.4111C11.3862 49.4111 0.193359 38.35 0.193359 24.7055Z" fill="#333333"/>
<path fill-rule="evenodd" clip-rule="evenodd" d="M30.102 14.0285L38.2608 18.012C38.3624 18.0617 38.3985 18.1856 38.339 18.2802L30.3098 31.0213L24.6962 22.1133L29.725 14.1334C29.7784 14.0487 29.8772 14 29.9764 14C29.9778 14 29.9792 14.0002 29.9806 14.0004C29.9818 14.0006 29.9831 14.0008 29.9843 14.0009C30.0247 14.0019 30.065 14.0103 30.102 14.0285ZM13.1688 14.1445L21.173 18.0526C21.2379 18.0843 21.2788 18.1491 21.2788 18.2199V35.1415C21.2788 35.4576 21.104 35.6459 20.8548 35.6459C20.7663 35.6459 20.6684 35.6221 20.5656 35.5719L13.1688 31.9603C12.9073 31.8327 12.6934 31.4946 12.6934 31.2091V14.4315C12.6934 14.3273 12.722 14.244 12.771 14.1864C12.821 14.1275 12.8921 14.0953 12.9761 14.0953C13.0351 14.0953 13.1004 14.111 13.1688 14.1445ZM37.7358 35.5663L30.5482 32.0569L38.449 19.5196V35.1358C38.449 35.5642 38.128 35.7578 37.7358 35.5663ZM22.0376 19.3084V27.9067L29.8643 31.7282L22.0376 19.3084Z" fill="white"/>
</svg>
