<svg width="51" height="50" viewBox="0 0 51 50" fill="none" xmlns="http://www.w3.org/2000/svg">
<path fill-rule="evenodd" clip-rule="evenodd" d="M50.0449 24.7055C50.0449 38.35 38.852 49.4111 25.0449 49.4111C11.2378 49.4111 0.0449219 38.35 0.0449219 24.7055C0.0449219 11.061 11.2378 0 25.0449 0C38.852 0 50.0449 11.061 50.0449 24.7055ZM39.213 20.2858C41.51 20.2858 43.3783 22.1243 43.3783 24.3838C43.3783 25.8778 42.5582 27.183 41.3427 27.8978C41.3928 28.2391 41.4196 28.584 41.4196 28.933C41.4196 34.7601 34.2277 39.5012 25.3883 39.5012C16.548 39.5012 9.35695 34.7601 9.35695 28.933C9.35695 28.5568 9.3883 28.185 9.44653 27.818C8.30394 27.0873 7.54492 25.8225 7.54492 24.3838C7.54492 22.1243 9.41314 20.2862 11.7101 20.2858C12.7306 20.2858 13.6667 20.6512 14.3919 21.2537C17.1576 19.5322 20.848 18.4513 24.9159 18.3728L27.2944 10.9763C27.4194 10.5829 27.8339 10.3518 28.2419 10.4459L34.4016 11.8717C34.9529 10.7147 36.1448 9.90905 37.5276 9.90905C39.4309 9.90905 40.9803 11.4327 40.9803 13.306C40.9803 15.1793 39.4313 16.7029 37.5276 16.7029C35.6623 16.7029 34.1422 15.2394 34.0807 13.4194L28.599 12.1494L26.5899 18.3972C30.4107 18.5851 33.8608 19.6584 36.4706 21.3078C37.2039 20.674 38.1625 20.2858 39.213 20.2858Z" fill="#333333" fill-opacity="0.9"/>
<path fill-rule="evenodd" clip-rule="evenodd" d="M40.9031 26.2704C40.3172 24.7861 39.2503 23.4283 37.8223 22.2717C38.2229 22.0149 38.7002 21.8643 39.2133 21.8643C40.6254 21.8643 41.7741 22.9944 41.7741 24.3838C41.7733 25.135 41.4353 25.8089 40.9031 26.2704V26.2704Z" fill="#333333" fill-opacity="0.9"/>
<path fill-rule="evenodd" clip-rule="evenodd" d="M37.5284 11.4883C38.5476 11.4883 39.3766 12.3044 39.3766 13.3071C39.3766 14.3099 38.5476 15.1256 37.5284 15.1256C36.5087 15.1256 35.6797 14.3099 35.6797 13.3071C35.6797 12.3044 36.5087 11.4883 37.5284 11.4883V11.4883Z" fill="#333333" fill-opacity="0.9"/>
<path fill-rule="evenodd" clip-rule="evenodd" d="M25.3879 37.9233C33.3421 37.9233 39.8149 33.8902 39.8149 28.934C39.8149 28.7669 39.8064 28.6019 39.7921 28.4364C39.7457 27.9084 39.6219 27.3928 39.435 26.892C38.9606 25.628 38.0611 24.4654 36.8306 23.4682C36.4226 23.1369 35.9795 22.8236 35.5027 22.5315C32.8983 20.9326 29.3251 19.9438 25.3879 19.9438C21.5069 19.9438 17.9814 20.9054 15.3855 22.4642C14.9099 22.7499 14.4657 23.0559 14.0556 23.3801C12.7742 24.3924 11.836 25.5799 11.347 26.8739C11.1584 27.3731 11.0346 27.8883 10.9862 28.4152C10.9707 28.587 10.9609 28.7593 10.9609 28.934C10.9609 33.8906 17.4325 37.9233 25.3879 37.9233ZM20.1123 24.5864C21.4654 24.5864 22.5624 25.7029 22.5624 27.0338C22.5624 28.3643 21.4654 29.4432 20.1123 29.4448C18.76 29.4448 17.6251 28.3643 17.6251 27.0338C17.6251 25.7029 18.7596 24.5864 20.1123 24.5864ZM30.8472 24.5856C29.4945 24.5856 28.3564 25.7017 28.3564 27.0326C28.3564 28.3639 29.4945 29.4436 30.8472 29.4436C32.2003 29.4436 33.2981 28.3647 33.2981 27.0326C33.2973 25.7009 32.2003 24.5856 30.8472 24.5856ZM25.48 34.2019C27.7191 34.2019 29.2473 33.7688 30.155 32.877C30.4689 32.5693 30.9771 32.5693 31.2911 32.8778C31.6042 33.1855 31.6042 33.6847 31.2902 33.9936C30.067 35.1954 28.1662 35.7808 25.48 35.7808C25.4764 35.7808 25.4731 35.7801 25.4699 35.7795C25.4667 35.7789 25.4636 35.7784 25.4604 35.7784C25.4572 35.7784 25.4542 35.7789 25.4511 35.7795C25.448 35.7801 25.4448 35.7808 25.4413 35.7808C22.7546 35.7808 20.8542 35.1954 19.6322 33.9927C19.3187 33.6855 19.3187 33.1859 19.6322 32.877C19.9453 32.5685 20.4535 32.5685 20.7666 32.877C21.6731 33.7688 23.2017 34.2019 25.4413 34.2019C25.4445 34.2019 25.4475 34.2024 25.4505 34.2029C25.4537 34.2034 25.4569 34.2039 25.4604 34.2039C25.4636 34.2039 25.4667 34.2034 25.4699 34.2029C25.4731 34.2024 25.4764 34.2019 25.48 34.2019Z" fill="#333333" fill-opacity="0.9"/>
<path fill-rule="evenodd" clip-rule="evenodd" d="M9.14844 24.3838C9.14844 22.9948 10.2971 21.8643 11.7089 21.8643C12.1857 21.8643 12.6312 21.9961 13.0144 22.2208C11.5855 23.363 10.5162 24.7071 9.91315 26.1762C9.44121 25.7191 9.14844 25.0849 9.14844 24.3838V24.3838Z" fill="#333333" fill-opacity="0.9"/>
</svg>
