<svg width="51" height="50" viewBox="0 0 51 50" fill="none" xmlns="http://www.w3.org/2000/svg">
<path fill-rule="evenodd" clip-rule="evenodd" d="M25.0449 49.4111C38.852 49.4111 50.0449 38.35 50.0449 24.7055C50.0449 11.061 38.852 0 25.0449 0C11.2378 0 0.0449219 11.061 0.0449219 24.7055C0.0449219 38.35 11.2378 49.4111 25.0449 49.4111Z" fill="#FF5700"/>
<path fill-rule="evenodd" clip-rule="evenodd" d="M43.3783 24.384C43.3783 22.1244 41.51 20.2859 39.213 20.2859C38.1625 20.2859 37.2039 20.6741 36.4706 21.3079C33.8608 19.6585 30.4107 18.5852 26.5899 18.3973L28.599 12.1495L34.0807 13.4195C34.1422 15.2396 35.6623 16.7031 37.5276 16.7031C39.4313 16.7031 40.9803 15.1795 40.9803 13.3061C40.9803 11.4328 39.4309 9.90918 37.5276 9.90918C36.1448 9.90918 34.9529 10.7148 34.4016 11.8719L28.2419 10.446C27.8339 10.3519 27.4194 10.583 27.2944 10.9765L24.9159 18.3729C20.848 18.4514 17.1576 19.5323 14.3919 21.2538C13.6667 20.6513 12.7306 20.2859 11.7101 20.2859C9.41314 20.2863 7.54492 22.1244 7.54492 24.384C7.54492 25.8226 8.30394 27.0874 9.44653 27.8182C9.3883 28.1851 9.35695 28.5569 9.35695 28.9331C9.35695 34.7603 16.548 39.5013 25.3883 39.5013C34.2277 39.5013 41.4196 34.7603 41.4196 28.9331C41.4196 28.5842 41.3928 28.2392 41.3427 27.8979C42.5582 27.1832 43.3783 25.8779 43.3783 24.384ZM37.5276 11.4885C38.5469 11.4885 39.3759 12.3045 39.3759 13.3073C39.3759 14.3101 38.5469 15.1258 37.5276 15.1258C36.508 15.1258 35.679 14.3101 35.679 13.3073C35.679 12.3045 36.508 11.4885 37.5276 11.4885ZM9.14928 24.384C9.14928 22.995 10.298 21.8644 11.7097 21.8644C12.1866 21.8644 12.632 21.9962 13.0152 22.2209C11.5864 23.3631 10.5171 24.7073 9.91399 26.1764C9.44205 25.7193 9.14928 25.0851 9.14928 24.384ZM39.8153 28.9339C39.8153 33.8901 33.3425 37.9233 25.3883 37.9233C17.4329 37.9233 10.9613 33.8905 10.9613 28.9339C10.9613 28.7592 10.9711 28.587 10.9866 28.4151C11.035 27.8883 11.1588 27.3731 11.3473 26.8739C11.8364 25.5798 12.7746 24.3924 14.056 23.38C14.466 23.0559 14.9103 22.7498 15.3859 22.4641C17.9818 20.9053 21.5073 19.9438 25.3883 19.9438C29.3255 19.9438 32.8986 20.9325 35.5031 22.5314C35.9799 22.8235 36.4229 23.1368 36.8309 23.4681C38.0615 24.4653 38.961 25.6279 39.4354 26.8919C39.6223 27.3927 39.7461 27.9083 39.7925 28.4363C39.8067 28.6018 39.8153 28.7668 39.8153 28.9339ZM40.9033 26.2705C40.3174 24.7862 39.2505 23.4284 37.8225 22.2718C38.2231 22.015 38.7004 21.8644 39.2134 21.8644C40.6256 21.8644 41.7743 22.9946 41.7743 24.384C41.7735 25.1351 41.4355 25.809 40.9033 26.2705Z" fill="white"/>
<path fill-rule="evenodd" clip-rule="evenodd" d="M22.5623 27.0339C22.5623 25.703 21.4653 24.5864 20.1122 24.5864C18.7595 24.5864 17.625 25.703 17.625 27.0339C17.625 28.3644 18.7599 29.4449 20.1122 29.4449C21.4653 29.4433 22.5623 28.3644 22.5623 27.0339Z" fill="white"/>
<path fill-rule="evenodd" clip-rule="evenodd" d="M30.8482 24.5854C29.4955 24.5854 28.3574 25.7016 28.3574 27.0325C28.3574 28.3638 29.4955 29.4435 30.8482 29.4435C32.2014 29.4435 33.2992 28.3646 33.2992 27.0325C33.2984 25.7008 32.2014 24.5854 30.8482 24.5854Z" fill="white"/>
<path fill-rule="evenodd" clip-rule="evenodd" d="M30.1544 32.8769C29.2468 33.7687 27.7186 34.2018 25.4794 34.2018C25.4725 34.2018 25.4664 34.2038 25.4599 34.2038C25.4529 34.2038 25.4472 34.2018 25.4407 34.2018C23.2011 34.2018 21.6725 33.7687 20.7661 32.8769C20.453 32.5684 19.9448 32.5684 19.6316 32.8769C19.3181 33.1858 19.3181 33.6853 19.6316 33.9926C20.8536 35.1953 22.754 35.7806 25.4407 35.7806C25.4476 35.7806 25.4533 35.7782 25.4599 35.7782C25.4664 35.7782 25.4725 35.7806 25.4794 35.7806C28.1657 35.7806 30.0665 35.1953 31.2897 33.9934C31.6036 33.6845 31.6036 33.1854 31.2905 32.8777C30.9766 32.5692 30.4684 32.5692 30.1544 32.8769Z" fill="white"/>
</svg>
