<svg width="51" height="50" viewBox="0 0 51 50" fill="none" xmlns="http://www.w3.org/2000/svg">
<path fill-rule="evenodd" clip-rule="evenodd" d="M25.2676 49.5732C39.0747 49.5732 50.2676 38.5121 50.2676 24.8676C50.2676 11.2232 39.0747 0.162109 25.2676 0.162109C11.4605 0.162109 0.267578 11.2232 0.267578 24.8676C0.267578 38.5121 11.4605 49.5732 25.2676 49.5732Z" fill="#333333"/>
<path fill-rule="evenodd" clip-rule="evenodd" d="M50.2676 24.8676C50.2676 38.5121 39.0747 49.5732 25.2676 49.5732C11.4605 49.5732 0.267578 38.5121 0.267578 24.8676C0.267578 11.2232 11.4605 0.162109 25.2676 0.162109C39.0747 0.162109 50.2676 11.2232 50.2676 24.8676ZM13.7998 22.2542V20.8744L16.0578 18.238C15.6481 18.0293 15.2693 17.7511 14.9409 17.4068L13.7998 18.7391V17.3592L14.3844 16.6767C14.0993 16.2024 13.9212 15.6908 13.8448 15.1714L13.7998 15.2239V14.563C13.7998 12.307 15.6311 10.4815 17.8956 10.4419L17.8855 10.4537C18.4289 10.4429 18.9704 10.537 19.4775 10.7302L19.725 10.4412H20.907L20.2983 11.1518C20.6788 11.404 21.0228 11.7225 21.3116 12.1041L22.7358 10.4412H23.9176L21.7942 12.9204C22.0406 13.4744 22.1547 14.0639 22.1439 14.6474L25.7465 10.4412H26.3127C26.5145 10.4412 26.7149 10.4469 26.914 10.4582L21.4968 16.783C21.2964 17.0956 21.0507 17.3851 20.7617 17.6412L20.3569 18.1139L13.7998 25.7695V24.3895L18.7334 18.6292C18.1396 18.7376 17.5318 18.7161 16.9533 18.5723L13.7998 22.2542ZM13.7998 29.2846V27.9048L28.5517 10.6814C28.8779 10.7524 29.1984 10.8387 29.5125 10.9394L13.7998 29.2846ZM13.7998 32.7998V31.4199L30.8745 11.4844C31.151 11.6183 31.4206 11.764 31.6828 11.9207L13.7998 32.7998ZM13.7998 35.1722V34.9351L22.4406 24.8466C22.7296 24.1168 23.2327 23.4608 23.9329 22.9785C24.0113 22.9244 24.091 22.8734 24.1718 22.8253L32.8309 12.7155C33.0653 12.9021 33.2915 13.0985 33.5088 13.304L25.8358 22.2625C26.409 22.1959 26.9888 22.2478 27.5369 22.4117L34.4582 14.3307C34.6512 14.5696 34.8336 14.8171 35.0048 15.0725L28.4026 22.7808C28.8008 23.0067 29.1657 23.3009 29.4783 23.6602L35.7367 16.3533C35.881 16.6542 36.011 16.963 36.1258 17.2789L30.0271 24.3994L30.8547 25.5685L36.5667 18.8994C36.6396 19.2943 36.6896 19.6968 36.7153 20.1057L31.3894 26.3239L32.217 27.4929L36.607 22.3675C36.4953 23.0629 36.3129 23.7355 36.0672 24.3778L32.7519 28.2485L35.9823 32.8116C37.2999 34.6795 36.8456 37.2478 34.9555 38.5499C33.0654 39.852 30.4665 39.403 29.1488 37.5351L24.4551 30.9049L24.3305 31.0504H23.1486L23.9203 30.1494L23.0927 28.9804L15.1718 38.2283C14.9463 38.0264 14.7433 37.8005 14.5669 37.5547L22.5889 28.1886C22.3271 27.6686 22.1855 27.1127 22.1579 26.5565L13.9232 36.171C13.8426 35.8511 13.7998 35.5165 13.7998 35.1722ZM22.1417 32.226L16.3605 38.9758C16.6617 39.1005 16.9809 39.1912 17.3133 39.2432L22.1417 33.6059V32.226ZM19.2734 39.09C20.7478 38.6134 21.8572 37.3485 22.0945 35.7963L19.2734 39.09Z" fill="#F8F314"/>
<path d="M35.9817 32.8117C37.2994 34.6796 36.845 37.2479 34.9549 38.55C33.0648 39.8521 30.4659 39.4031 29.1483 37.5352L22.9054 28.7168C21.5878 26.849 22.0422 24.2807 23.9323 22.9786C25.8224 21.6765 28.4213 22.1255 29.7389 23.9933L35.9817 32.8117Z" fill="#333333"/>
<path d="M35.9817 32.8117C37.2994 34.6796 36.845 37.2479 34.9549 38.55C33.0648 39.8521 30.4659 39.4031 29.1483 37.5352L22.9054 28.7168C21.5878 26.849 22.0422 24.2807 23.9323 22.9786C25.8224 21.6765 28.4213 22.1255 29.7389 23.9933L35.9817 32.8117Z" fill="#333333"/>
<path d="M20.3648 17.9517C22.2519 16.6459 22.7105 14.0756 21.3892 12.2108C20.0679 10.3459 17.4669 9.89268 15.5799 11.1984C13.6928 12.5042 13.2341 15.0745 14.5555 16.9393C15.8768 18.8042 18.4777 19.2574 20.3648 17.9517Z" fill="#333333"/>
</svg>
