<svg width="51" height="51" viewBox="0 0 51 51" fill="none" xmlns="http://www.w3.org/2000/svg">
<g clip-path="url(#clip0)">
<path fill-rule="evenodd" clip-rule="evenodd" d="M50.5195 25.5837C50.5195 39.2282 39.3267 50.2892 25.5195 50.2892C11.7124 50.2892 0.519531 39.2282 0.519531 25.5837C0.519531 11.9392 11.7124 0.878174 25.5195 0.878174C39.3267 0.878174 50.5195 11.9392 50.5195 25.5837ZM14.0517 21.5905V22.9703L17.2053 19.2884C17.7837 19.4322 18.3916 19.4537 18.9854 19.3453L14.0517 25.1055V26.4856L21.0137 18.3572C21.3027 18.1012 21.5483 17.8117 21.7487 17.499L27.1659 11.1743C26.9669 11.163 26.7664 11.1573 26.5646 11.1573H25.9985L22.3958 15.3635C22.4066 14.78 22.2925 14.1905 22.0461 13.6365L24.1696 11.1573H22.9878L21.5635 12.8201C21.2747 12.4386 20.9307 12.1201 20.5503 11.8679L21.1589 11.1573H19.977L19.7295 11.4463C19.2224 11.253 18.6808 11.1589 18.1374 11.1697L18.1476 11.1579C15.883 11.1975 14.0517 13.0231 14.0517 15.2791V15.94L14.0967 15.8874C14.1731 16.4068 14.3512 16.9184 14.6363 17.3927L14.0517 18.0752V19.4552L15.1929 18.1228C15.5213 18.4671 15.9001 18.7453 16.3098 18.9541L14.0517 21.5905ZM14.0517 28.6209V30.0007L29.7645 11.6554C29.4504 11.5548 29.1298 11.4685 28.8037 11.3974L14.0517 28.6209ZM14.0517 32.136V33.5159L31.9347 12.6368C31.6726 12.4801 31.4029 12.3344 31.1265 12.2005L14.0517 32.136ZM14.0517 35.6512V35.8883C14.0517 36.2325 14.0945 36.5671 14.1751 36.887L22.4099 27.2726C22.4375 27.8288 22.5791 28.3847 22.8409 28.9047L14.8188 38.2708C14.9952 38.5166 15.1983 38.7425 15.4238 38.9444L23.3446 29.6965L24.1722 30.8655L23.4006 31.7664H24.5825L24.7071 31.621L29.4008 38.2512C30.7184 40.119 33.3173 40.5681 35.2074 39.2659C37.0975 37.9638 37.5519 35.3955 36.2343 33.5277L33.0039 28.9645L36.3192 25.0938C36.5648 24.4516 36.7473 23.779 36.8589 23.0835L32.469 28.209L31.6414 27.04L36.9673 20.8218C36.9416 20.4129 36.8916 20.0103 36.8187 19.6155L31.1066 26.2845L30.279 25.1155L36.3778 17.995C36.263 17.6791 36.133 17.3703 35.9886 17.0694L29.7303 24.3763C29.4177 24.0169 29.0527 23.7227 28.6546 23.4969L35.2568 15.7885C35.0856 15.5331 34.9031 15.2857 34.7102 15.0468L27.7888 23.1277C27.2408 22.9638 26.661 22.912 26.0878 22.9785L33.7607 14.0201C33.5435 13.8145 33.3173 13.6182 33.0828 13.4316L24.4238 23.5414C24.343 23.5894 24.2633 23.6405 24.1848 23.6946C23.4847 24.1769 22.9816 24.8329 22.6925 25.5627L14.0517 35.6512ZM16.6124 39.6919L22.3937 32.942V34.322L17.5653 39.9593C17.2329 39.9073 16.9136 39.8166 16.6124 39.6919ZM19.5254 39.8061C20.9998 39.3294 22.1091 38.0646 22.3464 36.5124L19.5254 39.8061Z" fill="#333333" fill-opacity="0.9"/>
</g>
<defs>
<clipPath id="clip0">
<rect width="50" height="49.4111" fill="white" transform="translate(0.519531 0.878174)"/>
</clipPath>
</defs>
</svg>
