<svg width="51" height="50" viewBox="0 0 51 50" fill="none" xmlns="http://www.w3.org/2000/svg">
<path fill-rule="evenodd" clip-rule="evenodd" d="M50.2676 24.8676C50.2676 38.5121 39.0747 49.5732 25.2676 49.5732C11.4605 49.5732 0.267578 38.5121 0.267578 24.8676C0.267578 11.2232 11.4605 0.162109 25.2676 0.162109C39.0747 0.162109 50.2676 11.2232 50.2676 24.8676ZM13.7998 20.8744V22.2542L16.9533 18.5723C17.5318 18.7161 18.1396 18.7376 18.7334 18.6292L13.7998 24.3895V25.7695L20.7617 17.6412C21.0507 17.3851 21.2964 17.0956 21.4968 16.783L26.914 10.4582C26.7149 10.4469 26.5145 10.4412 26.3127 10.4412H25.7465L22.1439 14.6474C22.1547 14.0639 22.0406 13.4744 21.7942 12.9204L23.9176 10.4412H22.7358L21.3116 12.1041C21.0228 11.7225 20.6788 11.404 20.2983 11.1518L20.907 10.4412H19.725L19.4775 10.7302C18.9704 10.537 18.4289 10.4429 17.8855 10.4537L17.8956 10.4419C15.6311 10.4815 13.7998 12.307 13.7998 14.563V15.2239L13.8448 15.1714C13.9212 15.6908 14.0993 16.2024 14.3844 16.6767L13.7998 17.3592V18.7391L14.9409 17.4068C15.2693 17.7511 15.6481 18.0293 16.0578 18.238L13.7998 20.8744ZM13.7998 27.9048V29.2846L29.5125 10.9394C29.1984 10.8387 28.8779 10.7524 28.5517 10.6814L13.7998 27.9048ZM13.7998 31.4199V32.7998L31.6828 11.9207C31.4206 11.764 31.151 11.6183 30.8745 11.4844L13.7998 31.4199ZM13.7998 34.9351V35.1722C13.7998 35.5165 13.8426 35.8511 13.9232 36.171L22.1579 26.5565C22.1855 27.1127 22.3271 27.6686 22.5889 28.1886L14.5669 37.5547C14.7433 37.8005 14.9463 38.0264 15.1718 38.2283L23.0927 28.9804L23.9203 30.1494L23.1486 31.0504H24.3305L24.4551 30.9049L29.1488 37.5351C30.4665 39.403 33.0654 39.852 34.9555 38.5499C36.8456 37.2478 37.2999 34.6795 35.9823 32.8116L32.7519 28.2485L36.0672 24.3778C36.3129 23.7355 36.4953 23.0629 36.607 22.3675L32.217 27.4929L31.3894 26.3239L36.7153 20.1057C36.6896 19.6968 36.6396 19.2943 36.5667 18.8994L30.8547 25.5685L30.0271 24.3994L36.1258 17.2789C36.011 16.963 35.881 16.6542 35.7367 16.3533L29.4783 23.6602C29.1657 23.3009 28.8008 23.0067 28.4026 22.7808L35.0048 15.0725C34.8336 14.8171 34.6512 14.5696 34.4582 14.3307L27.5369 22.4117C26.9888 22.2478 26.409 22.1959 25.8358 22.2625L33.5088 13.304C33.2915 13.0985 33.0653 12.9021 32.8309 12.7155L24.1718 22.8253C24.091 22.8734 24.0113 22.9244 23.9329 22.9785C23.2327 23.4608 22.7296 24.1168 22.4406 24.8466L13.7998 34.9351ZM16.3605 38.9758L22.1417 32.226V33.6059L17.3133 39.2432C16.9809 39.1912 16.6617 39.1005 16.3605 38.9758ZM19.2734 39.09C20.7478 38.6134 21.8572 37.3485 22.0945 35.7963L19.2734 39.09Z" fill="#333333" fill-opacity="0.9"/>
</svg>
