<svg width="51" height="50" viewBox="0 0 51 50" fill="none" xmlns="http://www.w3.org/2000/svg">
<path fill-rule="evenodd" clip-rule="evenodd" d="M25.3418 49.5732C39.1489 49.5732 50.3418 38.5121 50.3418 24.8676C50.3418 11.2232 39.1489 0.162109 25.3418 0.162109C11.5347 0.162109 0.341797 11.2232 0.341797 24.8676C0.341797 38.5121 11.5347 49.5732 25.3418 49.5732Z" fill="#F8F314"/>
<path fill-rule="evenodd" clip-rule="evenodd" d="M20.7591 36.1909C19.9492 36.1909 20.0868 35.8887 19.8075 35.1266L17.4258 27.3804L35.7591 16.6323" fill="#444444"/>
<path fill-rule="evenodd" clip-rule="evenodd" d="M20.7578 36.191C21.3828 36.191 21.659 35.9086 22.0078 35.5734L25.3411 32.3703L21.1832 29.8926" fill="#333333"/>
<path fill-rule="evenodd" clip-rule="evenodd" d="M21.1835 29.8931L31.2585 37.2489C32.4081 37.8758 33.2379 37.5513 33.5243 36.1941L37.6253 17.0961C38.0452 15.4326 36.9836 14.6781 35.8838 15.1715L11.8025 24.3478C10.1588 24.9993 10.1684 25.9056 11.5029 26.3094L17.6827 28.2155L31.9896 19.2958C32.665 18.891 33.2849 19.1086 32.7761 19.5548" fill="#333333"/>
</svg>
