<svg width="51" height="50" viewBox="0 0 51 50" fill="none" xmlns="http://www.w3.org/2000/svg">
<path fill-rule="evenodd" clip-rule="evenodd" d="M25.3418 49.5732C39.1489 49.5732 50.3418 38.5121 50.3418 24.8676C50.3418 11.2232 39.1489 0.162109 25.3418 0.162109C11.5347 0.162109 0.341797 11.2232 0.341797 24.8676C0.341797 38.5121 11.5347 49.5732 25.3418 49.5732ZM20.7585 36.191C21.3665 36.191 21.6444 35.9237 21.9802 35.6005L22.0085 35.5734L25.0113 32.6879L31.2585 37.249C32.4081 37.8759 33.2379 37.5513 33.5243 36.1942L37.6253 17.0962C38.0452 15.4327 36.9837 14.6782 35.8838 15.1716L11.8025 24.3479C10.1588 24.9994 10.1684 25.9057 11.5029 26.3095L17.6827 28.2156L31.9896 19.2958C32.665 18.8911 33.2849 19.1087 32.7761 19.5549L21.184 29.8926L21.1839 29.8925L21.1839 29.8928L21.1835 29.8932L21.1838 29.8934L20.7585 36.191Z" fill="#333333" fill-opacity="0.9"/>
</svg>
