<svg width="51" height="50" viewBox="0 0 51 50" fill="none" xmlns="http://www.w3.org/2000/svg">
<path fill-rule="evenodd" clip-rule="evenodd" d="M25.3418 0C11.5347 0 0.341797 11.061 0.341797 24.7055C0.341797 38.35 11.5347 49.4111 25.3418 49.4111C39.1489 49.4111 50.3418 38.35 50.3418 24.7055C50.3418 11.061 39.1489 0 25.3418 0ZM24.6455 20.9358L24.5931 20.081C24.4357 17.8653 25.8171 15.8415 28.003 15.0564C28.8074 14.7773 30.1714 14.7424 31.0632 14.9867C31.413 15.0913 32.0775 15.4403 32.5496 15.7543L33.4065 16.33L34.3508 16.0334C34.8754 15.8764 35.5749 15.6147 35.8896 15.4403C36.1869 15.2832 36.4492 15.196 36.4492 15.2484C36.4492 15.5449 35.8022 16.5568 35.2601 17.1151C34.5257 17.9002 34.7355 17.97 36.2219 17.4466C37.1137 17.15 37.1312 17.15 36.9563 17.4815C36.8514 17.6559 36.3093 18.2666 35.7323 18.8248C34.753 19.7844 34.7005 19.8891 34.7005 20.6916C34.7005 21.9303 34.106 24.5123 33.5114 25.9255C32.4097 28.5773 30.049 31.3164 27.6882 32.6946C24.3657 34.6312 19.9415 35.1197 16.2168 33.9856C14.9752 33.6018 12.8418 32.6248 12.8418 32.4504C12.8418 32.398 13.4888 32.3282 14.2757 32.3108C15.9195 32.2759 17.5633 31.8223 18.9622 31.0198L19.9065 30.4615L18.8223 30.0951C17.2835 29.5717 15.902 28.3679 15.5523 27.2339C15.4474 26.8676 15.4823 26.8501 16.4616 26.8501L17.4758 26.8327L16.619 26.4314C15.6047 25.9255 14.6779 25.0706 14.2233 24.1983C13.891 23.5702 13.4713 21.9826 13.5937 21.8605C13.6287 21.8081 13.9959 21.9128 14.4156 22.0524C15.6222 22.4886 15.7796 22.3839 15.0801 21.6511C13.7686 20.3252 13.3664 18.3538 13.9959 16.487L14.2932 15.6496L15.4474 16.7836C17.8081 19.0691 20.5885 20.4299 23.7712 20.8312L24.6455 20.9358Z" fill="#333333" fill-opacity="0.9"/>
</svg>
