<svg width="51" height="50" viewBox="0 0 51 50" fill="none" xmlns="http://www.w3.org/2000/svg">
<path fill-rule="evenodd" clip-rule="evenodd" d="M0.341797 24.7055C0.341797 11.061 11.5347 0 25.3418 0C39.1489 0 50.3418 11.061 50.3418 24.7055C50.3418 38.35 39.1489 49.4111 25.3418 49.4111C11.5347 49.4111 0.341797 38.35 0.341797 24.7055Z" fill="#F8F314"/>
<path fill-rule="evenodd" clip-rule="evenodd" d="M24.5931 20.0809L24.6455 20.9358L23.7712 20.8311C20.5885 20.4298 17.8081 19.069 15.4474 16.7835L14.2932 15.6495L13.9959 16.487C13.3664 18.3537 13.7686 20.3251 15.0801 21.6511C15.7796 22.3838 15.6222 22.4885 14.4156 22.0523C13.9959 21.9127 13.6287 21.8081 13.5937 21.8604C13.4713 21.9825 13.891 23.5701 14.2233 24.1982C14.6779 25.0705 15.6047 25.9254 16.619 26.4313L17.4758 26.8326L16.4616 26.85C15.4823 26.85 15.4474 26.8675 15.5523 27.2339C15.902 28.3679 17.2835 29.5717 18.8223 30.095L19.9065 30.4614L18.9622 31.0197C17.5633 31.8222 15.9195 32.2758 14.2757 32.3107C13.4888 32.3282 12.8418 32.398 12.8418 32.4503C12.8418 32.6248 14.9752 33.6017 16.2168 33.9856C19.9415 35.1196 24.3657 34.6311 27.6882 32.6945C30.049 31.3163 32.4097 28.5772 33.5114 25.9254C34.106 24.5122 34.7005 21.9302 34.7005 20.6915C34.7005 19.889 34.753 19.7843 35.7323 18.8248C36.3093 18.2665 36.8514 17.6559 36.9563 17.4814C37.1312 17.1499 37.1137 17.1499 36.2219 17.4465C34.7355 17.9699 34.5257 17.9001 35.2601 17.115C35.8022 16.5567 36.4492 15.5449 36.4492 15.2483C36.4492 15.1959 36.1869 15.2832 35.8896 15.4402C35.5749 15.6146 34.8754 15.8763 34.3508 16.0334L33.4065 16.3299L32.5496 15.7542C32.0775 15.4402 31.413 15.0913 31.0632 14.9866C30.1714 14.7423 28.8074 14.7772 28.003 15.0564C25.8171 15.8414 24.4357 17.8652 24.5931 20.0809Z" fill="#333333"/>
</svg>
