<svg width="30" height="31" viewBox="0 0 30 31" fill="none" xmlns="http://www.w3.org/2000/svg">
<path fill-rule="evenodd" clip-rule="evenodd" d="M15.6516 20.3453L7.76722 23.6836C7.32194 23.8711 6.87332 23.7405 6.58874 23.4526C6.30417 23.1646 6.1736 22.7193 6.36108 22.2773L9.70233 14.3954C9.75589 14.2682 9.8329 14.151 9.92999 14.0539L23.228 0.754422C24.1688 -0.186451 25.7021 -0.193147 26.6429 0.747725L29.2978 3.40293C30.2386 4.3438 30.2319 5.87732 29.2911 6.8182L15.9931 20.1177C15.8927 20.2148 15.7788 20.2918 15.6516 20.3453ZM1.20526 27.6346H28.7923C29.4585 27.6346 29.9975 28.1737 29.9975 28.84C29.9975 29.5063 29.4585 30.0454 28.7923 30.0454H1.20526C0.539018 30.0454 0 29.5063 0 28.84C0 28.1737 0.539018 27.6346 1.20526 27.6346ZM24.9321 2.45871L24.9388 2.45201L27.5904 5.10387L27.5837 5.11056L25.5079 7.18651L22.8564 4.53466L24.9321 2.45871ZM21.1523 6.23894L11.8182 15.574L9.86972 20.1746L14.4698 18.2259L23.8038 8.8908L21.1523 6.23894Z" fill="#444444"/>
</svg>
