<svg width="51" height="50" viewBox="0 0 51 50" fill="none" xmlns="http://www.w3.org/2000/svg">
<path fill-rule="evenodd" clip-rule="evenodd" d="M0.119141 24.7055C0.119141 11.061 11.312 0 25.1191 0C38.9263 0 50.1191 11.061 50.1191 24.7055C50.1191 38.35 38.9263 49.4111 25.1191 49.4111C11.312 49.4111 0.119141 38.35 0.119141 24.7055Z" fill="#FF0000"/>
<path fill-rule="evenodd" clip-rule="evenodd" d="M37.8945 18.6047C37.5879 17.4404 36.6842 16.5236 35.5368 16.2125C33.4574 15.647 25.1185 15.647 25.1185 15.647C25.1185 15.647 16.7795 15.647 14.7 16.2125C13.5526 16.5236 12.6489 17.4404 12.3423 18.6047C11.7852 20.7147 11.7852 25.1174 11.7852 25.1174C11.7852 25.1174 11.7852 29.52 12.3423 31.6302C12.6489 32.7945 13.5526 33.7113 14.7 34.0226C16.7795 34.5879 25.1185 34.5879 25.1185 34.5879C25.1185 34.5879 33.4574 34.5879 35.5368 34.0226C36.6842 33.7113 37.5879 32.7945 37.8945 31.6302C38.4518 29.52 38.4518 25.1174 38.4518 25.1174C38.4518 25.1174 38.4518 20.7147 37.8945 18.6047Z" fill="white"/>
<path fill-rule="evenodd" clip-rule="evenodd" d="M22.6191 29.6468V21.4116L29.2858 25.5294L22.6191 29.6468Z" fill="#FF0000"/>
</svg>
