<svg width="51" height="50" viewBox="0 0 51 50" fill="none" xmlns="http://www.w3.org/2000/svg">
<path fill-rule="evenodd" clip-rule="evenodd" d="M25.1191 0C11.312 0 0.119141 11.061 0.119141 24.7055C0.119141 38.35 11.312 49.4111 25.1191 49.4111C38.9263 49.4111 50.1191 38.35 50.1191 24.7055C50.1191 11.061 38.9263 0 25.1191 0ZM35.5375 16.2123C36.6849 16.5235 37.5885 17.4403 37.8952 18.6045C38.4525 20.7146 38.4525 25.1173 38.4525 25.1173C38.4525 25.1173 38.4525 29.5198 37.8952 31.6301C37.5885 32.7943 36.6849 33.7111 35.5375 34.0224C33.4581 34.5877 25.1191 34.5877 25.1191 34.5877C25.1191 34.5877 16.7802 34.5877 14.7007 34.0224C13.5532 33.7111 12.6496 32.7943 12.3429 31.6301C11.7858 29.5198 11.7858 25.1173 11.7858 25.1173C11.7858 25.1173 11.7858 20.7146 12.3429 18.6045C12.6496 17.4403 13.5532 16.5235 14.7007 16.2123C16.7802 15.6468 25.1191 15.6468 25.1191 15.6468C25.1191 15.6468 33.4581 15.6468 35.5375 16.2123Z" fill="#333333" fill-opacity="0.9"/>
<path fill-rule="evenodd" clip-rule="evenodd" d="M22.6191 29.6468V21.4116L29.2858 25.5294L22.6191 29.6468Z" fill="#333333" fill-opacity="0.9"/>
</svg>
