<svg width="51" height="51" viewBox="0 0 51 51" fill="none" xmlns="http://www.w3.org/2000/svg">
<path fill-rule="evenodd" clip-rule="evenodd" d="M25.3711 0.813965C11.564 0.813965 0.371094 11.875 0.371094 25.5195C0.371094 39.164 11.564 50.225 25.3711 50.225C39.1782 50.225 50.3711 39.164 50.3711 25.5195C50.3711 11.875 39.1782 0.813965 25.3711 0.813965ZM35.7894 17.0263C36.9369 17.3374 37.8405 18.2542 38.1472 19.4185C38.7044 21.5286 38.7044 25.9313 38.7044 25.9313C38.7044 25.9313 38.7044 30.3338 38.1472 32.444C37.8405 33.6083 36.9369 34.5251 35.7894 34.8364C33.71 35.4017 25.3711 35.4017 25.3711 35.4017C25.3711 35.4017 17.0322 35.4017 14.9526 34.8364C13.8052 34.5251 12.9015 33.6083 12.5949 32.444C12.0378 30.3338 12.0378 25.9313 12.0378 25.9313C12.0378 25.9313 12.0378 21.5286 12.5949 19.4185C12.9015 18.2542 13.8052 17.3374 14.9526 17.0263C17.0322 16.4608 25.3711 16.4608 25.3711 16.4608C25.3711 16.4608 33.71 16.4608 35.7894 17.0263Z" fill="#333333" fill-opacity="0.9"/>
<path fill-rule="evenodd" clip-rule="evenodd" d="M22.8711 30.4605V22.2253L29.5378 26.3431L22.8711 30.4605Z" fill="#333333" fill-opacity="0.9"/>
</svg>
