<svg width="51" height="51" viewBox="0 0 51 51" fill="none" xmlns="http://www.w3.org/2000/svg">
<path fill-rule="evenodd" clip-rule="evenodd" d="M25.4459 1.53418C11.6662 1.53418 0.492188 12.5756 0.492188 26.197C0.492188 37.0938 7.64219 46.3386 17.5571 49.5998C18.8042 49.8281 19.262 49.0648 19.262 48.4134C19.262 47.8253 19.2389 45.8824 19.2281 43.8216C12.286 45.3135 10.8211 40.9117 10.8211 40.9117C9.68599 38.0609 8.05045 37.3029 8.05045 37.3029C5.7864 35.7722 8.22111 35.8036 8.22111 35.8036C10.7269 35.9772 12.0463 38.3452 12.0463 38.3452C14.2719 42.1157 17.8839 41.0256 19.3079 40.3954C19.5319 38.8018 20.1786 37.713 20.8922 37.0975C15.3496 36.4739 9.52318 34.3591 9.52318 24.9088C9.52318 22.2162 10.498 20.0161 12.0943 18.2889C11.8352 17.6673 10.981 15.1592 12.336 11.762C12.336 11.762 14.4314 11.0992 19.2 14.2901C21.1905 13.7437 23.3252 13.4696 25.4459 13.4602C27.5666 13.4696 29.7029 13.7437 31.6971 14.2901C36.46 11.0992 38.5525 11.762 38.5525 11.762C39.9108 15.1592 39.0562 17.6673 38.7971 18.2889C40.3971 20.0161 41.3653 22.2162 41.3653 24.9088C41.3653 34.3815 35.5277 36.4673 29.9711 37.0779C30.8662 37.8433 31.6637 39.3442 31.6637 41.6452C31.6637 44.9447 31.6348 47.6006 31.6348 48.4134C31.6348 49.0697 32.0839 49.8387 33.3488 49.5965C43.2583 46.3317 50.3992 37.0901 50.3992 26.197C50.3992 12.5756 39.2269 1.53418 25.4459 1.53418Z" fill="#333333" fill-opacity="0.9"/>
<path fill-rule="evenodd" clip-rule="evenodd" d="M9.94368 36.9447C9.88873 37.0677 9.69368 37.104 9.516 37.0199C9.33501 36.9394 9.23335 36.7724 9.29203 36.6495C9.34575 36.5233 9.5412 36.4885 9.72178 36.5723C9.90319 36.6531 10.0065 36.8218 9.94368 36.9447Z" fill="#333333" fill-opacity="0.9"/>
<path fill-rule="evenodd" clip-rule="evenodd" d="M10.9549 38.0589C10.8359 38.1679 10.6032 38.1173 10.4454 37.9449C10.2822 37.773 10.2516 37.543 10.3723 37.4324C10.495 37.3233 10.7206 37.3744 10.8842 37.5463C11.0475 37.7203 11.0793 37.9486 10.9549 38.0589Z" fill="#333333" fill-opacity="0.9"/>
<path fill-rule="evenodd" clip-rule="evenodd" d="M11.9373 39.4794C11.7844 39.5843 11.5344 39.4859 11.3799 39.2666C11.227 39.0473 11.227 38.7843 11.3832 38.6789C11.5381 38.5735 11.7844 38.6683 11.941 38.8859C12.0935 39.1085 12.0935 39.372 11.9373 39.4794Z" fill="#333333" fill-opacity="0.9"/>
<path fill-rule="evenodd" clip-rule="evenodd" d="M13.2858 40.8516C13.1491 41.0007 12.8577 40.9606 12.6445 40.7573C12.4263 40.5584 12.3656 40.2761 12.5028 40.1271C12.6412 39.9776 12.9342 40.0197 13.1491 40.2214C13.3656 40.4199 13.4317 40.7042 13.2858 40.8516Z" fill="#333333" fill-opacity="0.9"/>
<path fill-rule="evenodd" clip-rule="evenodd" d="M15.1454 41.6483C15.085 41.8415 14.8045 41.9293 14.5218 41.8472C14.2396 41.7627 14.0549 41.5364 14.1119 41.3412C14.1706 41.1468 14.4524 41.0553 14.7371 41.1431C15.0189 41.2272 15.2041 41.4519 15.1454 41.6483Z" fill="#333333" fill-opacity="0.9"/>
<path fill-rule="evenodd" clip-rule="evenodd" d="M17.1875 41.7962C17.1946 41.9996 16.9549 42.1683 16.6582 42.1716C16.3599 42.1785 16.1185 42.0139 16.1152 41.8138C16.1152 41.6084 16.3495 41.4413 16.6479 41.4364C16.9446 41.4307 17.1875 41.5941 17.1875 41.7962Z" fill="#333333" fill-opacity="0.9"/>
<path fill-rule="evenodd" clip-rule="evenodd" d="M19.0874 41.4766C19.1229 41.6751 18.9167 41.8789 18.6221 41.9328C18.3324 41.9855 18.0642 41.8629 18.0274 41.6661C17.9915 41.4627 18.2014 41.2589 18.4907 41.2062C18.7857 41.1556 19.0498 41.2748 19.0874 41.4766Z" fill="#333333" fill-opacity="0.9"/>
</svg>
