<svg width="51" height="51" viewBox="0 0 51 51" fill="none" xmlns="http://www.w3.org/2000/svg">
<path fill-rule="evenodd" clip-rule="evenodd" d="M0.445312 25.5195C0.445312 11.875 11.6382 0.813965 25.4453 0.813965C39.2524 0.813965 50.4453 11.875 50.4453 25.5195C50.4453 39.164 39.2524 50.225 25.4453 50.225C11.6382 50.225 0.445312 39.164 0.445312 25.5195ZM21.425 18.8664L13.4208 14.9583C13.3523 14.9248 13.287 14.909 13.228 14.909C13.144 14.909 13.073 14.9413 13.0229 15.0002C12.974 15.0578 12.9453 15.141 12.9453 15.2452V32.0228C12.9453 32.3084 13.1593 32.6464 13.4208 32.7741L20.8176 36.3857C20.9204 36.4359 21.0182 36.4596 21.1067 36.4596C21.356 36.4596 21.5308 36.2713 21.5308 35.9553V19.0336C21.5308 18.9629 21.4898 18.8981 21.425 18.8664ZM37.9877 36.3801L30.8001 32.8707L38.7009 20.3334V35.9496C38.7009 36.3779 38.3799 36.5716 37.9877 36.3801ZM22.2896 20.1222V28.7205L30.1163 32.542L22.2896 20.1222ZM30.354 14.8422L38.5127 18.8258C38.6144 18.8754 38.6505 18.9994 38.591 19.0939L30.5618 31.8351L24.9482 22.9271L29.9769 14.9472C30.0304 14.8624 30.1292 14.8138 30.2284 14.8138C30.2298 14.8138 30.2312 14.814 30.2326 14.8142C30.2338 14.8144 30.2351 14.8146 30.2363 14.8146C30.2766 14.8157 30.317 14.8241 30.354 14.8422Z" fill="#333333" fill-opacity="0.9"/>
</svg>
