<svg width="51" height="51" viewBox="0 0 51 51" fill="none" xmlns="http://www.w3.org/2000/svg">
<path fill-rule="evenodd" clip-rule="evenodd" d="M50.2969 25.5195C50.2969 39.164 39.104 50.225 25.2969 50.225C11.4898 50.225 0.296875 39.164 0.296875 25.5195C0.296875 11.875 11.4898 0.813965 25.2969 0.813965C39.104 0.813965 50.2969 11.875 50.2969 25.5195ZM39.465 21.0997C41.762 21.0997 43.6302 22.9382 43.6302 25.1978C43.6302 26.6917 42.8101 27.997 41.5946 28.7117C41.6447 29.0531 41.6716 29.398 41.6716 29.7469C41.6716 35.5741 34.4797 40.3152 25.6402 40.3152C16.8 40.3152 9.6089 35.5741 9.6089 29.7469C9.6089 29.3708 9.64026 28.999 9.69849 28.632C8.55589 27.9012 7.79688 26.6365 7.79688 25.1978C7.79688 22.9382 9.6651 21.1001 11.9621 21.0997C12.9825 21.0997 13.9187 21.4651 14.6439 22.0677C17.4096 20.3462 21.1 19.2653 25.1679 19.1867L27.5463 11.7903C27.6713 11.3969 28.0859 11.1657 28.4939 11.2599L34.6536 12.6857C35.2049 11.5287 36.3968 10.723 37.7796 10.723C39.6828 10.723 41.2322 12.2466 41.2322 14.12C41.2322 15.9933 39.6832 17.5169 37.7796 17.5169C35.9142 17.5169 34.3942 16.0534 34.3327 14.2333L28.851 12.9633L26.8419 19.2112C30.6626 19.3991 34.1128 20.4724 36.7225 22.1217C37.4559 21.488 38.4144 21.0997 39.465 21.0997Z" fill="#333333" fill-opacity="0.9"/>
<path fill-rule="evenodd" clip-rule="evenodd" d="M41.1551 27.0844C40.5691 25.6 39.5023 24.2423 38.0742 23.0857C38.4749 22.8289 38.9521 22.6782 39.4652 22.6782C40.8774 22.6782 42.0261 23.8084 42.0261 25.1978C42.0253 25.949 41.6873 26.6228 41.1551 27.0844Z" fill="#333333" fill-opacity="0.9"/>
<path fill-rule="evenodd" clip-rule="evenodd" d="M37.7803 12.3022C38.7995 12.3022 39.6286 13.1183 39.6286 14.1211C39.6286 15.1239 38.7995 15.9396 37.7803 15.9396C36.7607 15.9396 35.9316 15.1239 35.9316 14.1211C35.9316 13.1183 36.7607 12.3022 37.7803 12.3022Z" fill="#333333" fill-opacity="0.9"/>
<path fill-rule="evenodd" clip-rule="evenodd" d="M25.6399 38.7371C33.5941 38.7371 40.0669 34.7039 40.0669 29.7477C40.0669 29.5806 40.0583 29.4156 40.0441 29.2501C39.9976 28.7221 39.8739 28.2065 39.687 27.7057C39.2126 26.4417 38.3131 25.2791 37.0825 24.2819C36.6745 23.9506 36.2315 23.6373 35.7547 23.3452C33.1502 21.7463 29.5771 20.7576 25.6399 20.7576C21.7589 20.7576 18.2334 21.7191 15.6375 23.2779C15.1619 23.5636 14.7176 23.8697 14.3076 24.1938C13.0261 25.2062 12.088 26.3936 11.5989 27.6877C11.4104 28.1869 11.2866 28.7021 11.2381 29.2289C11.2227 29.4008 11.2129 29.573 11.2129 29.7477C11.2129 34.7043 17.6845 38.7371 25.6399 38.7371ZM20.3642 25.4001C21.7174 25.4001 22.8143 26.5166 22.8143 27.8475C22.8143 29.178 21.7174 30.2569 20.3642 30.2585C19.0119 30.2585 17.8771 29.178 17.8771 27.8475C17.8771 26.5166 19.0115 25.4001 20.3642 25.4001ZM31.0992 25.3993C29.7465 25.3993 28.6083 26.5154 28.6083 27.8463C28.6083 29.1776 29.7465 30.2573 31.0992 30.2573C32.4523 30.2573 33.5501 29.1784 33.5501 27.8463C33.5493 26.5146 32.4523 25.3993 31.0992 25.3993ZM25.7319 35.0156C27.9711 35.0156 29.4993 34.5825 30.4069 33.6907C30.7209 33.383 31.2291 33.383 31.543 33.6915C31.8561 33.9992 31.8561 34.4984 31.5422 34.8073C30.319 36.0092 28.4182 36.5945 25.7319 36.5945C25.7284 36.5945 25.7251 36.5939 25.7218 36.5933C25.7187 36.5927 25.7156 36.5921 25.7124 36.5921C25.7092 36.5921 25.7061 36.5927 25.7031 36.5933C25.6999 36.5939 25.6967 36.5945 25.6932 36.5945C23.0065 36.5945 21.1061 36.0092 19.8841 34.8065C19.5706 34.4992 19.5706 33.9996 19.8841 33.6907C20.1973 33.3822 20.7055 33.3822 21.0186 33.6907C21.925 34.5825 23.4536 35.0156 25.6932 35.0156C25.6964 35.0156 25.6994 35.0161 25.7025 35.0166C25.7056 35.0171 25.7088 35.0176 25.7124 35.0176C25.7156 35.0176 25.7187 35.0171 25.7218 35.0166C25.7251 35.0161 25.7284 35.0156 25.7319 35.0156Z" fill="#333333" fill-opacity="0.9"/>
<path fill-rule="evenodd" clip-rule="evenodd" d="M9.40039 25.1978C9.40039 23.8088 10.5491 22.6782 11.9608 22.6782C12.4377 22.6782 12.8831 22.81 13.2663 23.0348C11.8375 24.177 10.7682 25.5211 10.1651 26.9902C9.69317 26.5331 9.40039 25.8989 9.40039 25.1978Z" fill="#333333" fill-opacity="0.9"/>
</svg>
