<svg width="51" height="51" viewBox="0 0 51 51" fill="none" xmlns="http://www.w3.org/2000/svg">
<path fill-rule="evenodd" clip-rule="evenodd" d="M25.5938 50.2892C39.4009 50.2892 50.5938 39.2282 50.5938 25.5837C50.5938 11.9392 39.4009 0.878174 25.5938 0.878174C11.7866 0.878174 0.59375 11.9392 0.59375 25.5837C0.59375 39.2282 11.7866 50.2892 25.5938 50.2892ZM21.0104 36.9071C21.6184 36.9071 21.8963 36.6397 22.2322 36.3166L22.2604 36.2894L25.2632 33.404L31.5104 37.9651C32.6601 38.592 33.4899 38.2674 33.7762 36.9103L37.8773 17.8123C38.2972 16.1487 37.2356 15.3942 36.1357 15.8877L12.0545 25.0639C10.4107 25.7155 10.4203 26.6217 11.7549 27.0255L17.9347 28.9316L32.2415 20.0119C32.9169 19.6072 33.5368 19.8248 33.028 20.271L21.436 30.6087L21.4358 30.6086L21.4358 30.6089L21.4354 30.6092L21.4358 30.6095L21.0104 36.9071Z" fill="#333333" fill-opacity="0.9"/>
</svg>
