<svg width="51" height="51" viewBox="0 0 51 51" fill="none" xmlns="http://www.w3.org/2000/svg">
<path fill-rule="evenodd" clip-rule="evenodd" d="M25.5938 0.813965C11.7866 0.813965 0.59375 11.875 0.59375 25.5195C0.59375 39.164 11.7866 50.225 25.5938 50.225C39.4009 50.225 50.5938 39.164 50.5938 25.5195C50.5938 11.875 39.4009 0.813965 25.5938 0.813965ZM24.8975 21.7498L24.845 20.8949C24.6876 18.6793 26.0691 16.6555 28.255 15.8704C29.0594 15.5913 30.4234 15.5564 31.3152 15.8006C31.6649 15.9053 32.3294 16.2542 32.8016 16.5683L33.6584 17.144L34.6027 16.8474C35.1273 16.6904 35.8268 16.4287 36.1416 16.2542C36.4389 16.0972 36.7012 16.01 36.7012 16.0623C36.7012 16.3589 36.0542 17.3708 35.5121 17.9291C34.7776 18.7141 34.9875 18.7839 36.4738 18.2605C37.3657 17.964 37.3832 17.964 37.2083 18.2954C37.1034 18.4699 36.5613 19.0805 35.9842 19.6388C35.0049 20.5983 34.9525 20.703 34.9525 21.5056C34.9525 22.7442 34.3579 25.3263 33.7634 26.7394C32.6617 29.3913 30.3009 32.1303 27.9402 33.5086C24.6177 35.4451 20.1935 35.9336 16.4687 34.7996C15.2272 34.4158 13.0938 33.4388 13.0938 33.2643C13.0938 33.212 13.7408 33.1422 14.5277 33.1248C16.1715 33.0899 17.8152 32.6363 19.2142 31.8337L20.1585 31.2755L19.0743 30.9091C17.5354 30.3857 16.154 29.1819 15.8042 28.0479C15.6993 27.6815 15.7343 27.6641 16.7136 27.6641L17.7278 27.6466L16.8709 27.2454C15.8567 26.7394 14.9299 25.8846 14.4752 25.0123C14.143 24.3842 13.7233 22.7966 13.8457 22.6744C13.8807 22.6221 14.2479 22.7268 14.6676 22.8664C15.8742 23.3025 16.0316 23.1978 15.3321 22.4651C14.0206 21.1392 13.6184 19.1678 14.2479 17.301L14.5452 16.4636L15.6993 17.5976C18.0601 19.883 20.8405 21.2439 24.0231 21.6451L24.8975 21.7498Z" fill="#333333" fill-opacity="0.9"/>
</svg>
